<?xml version="1.0" encoding="utf-8"?>
<!-- Generator: Adobe Illustrator 16.0.0, SVG Export Plug-In . SVG Version: 6.00 Build 0)  -->
<!DOCTYPE svg PUBLIC "-//W3C//DTD SVG 1.1//EN" "http://www.w3.org/Graphics/SVG/1.1/DTD/svg11.dtd">
<svg version="1.1" xmlns="http://www.w3.org/2000/svg" xmlns:xlink="http://www.w3.org/1999/xlink" x="0px" y="0px"
	 width="595.275px" height="419.527px" viewBox="0 0 595.275 419.527" enable-background="new 0 0 595.275 419.527"
	 xml:space="preserve">
<g id="Ebene_2">
</g>
<g id="Ebene_1">
	<g>
		<g>
			<g enable-background="new    ">
				<defs>
					<polygon id="SVGID_1_" enable-background="new    " points="87.126,231.708 265.345,128.135 407.173,210.025 228.954,313.599 
											"/>
				</defs>
				<clipPath id="SVGID_2_">
					<use xlink:href="#SVGID_1_"  overflow="visible"/>
				</clipPath>
				<g clip-path="url(#SVGID_2_)">
					<g>
						<g>
							<g>
								<path fill="#CFD0D2" d="M235.265,227.145c-0.415-0.239-0.842-0.354-1.287-0.347c-0.445,0.008-0.891,0.141-1.335,0.398
									l-0.38,0.221l2.554,1.475l0.381-0.221c0.438-0.255,0.666-0.513,0.683-0.774
									C235.885,227.635,235.679,227.384,235.265,227.145 M244.583,221.729c-0.523-0.302-0.944-0.486-1.25-0.553
									c-0.313-0.069-0.586-0.036-0.821,0.1c-0.229,0.133-0.285,0.292-0.163,0.473c0.11,0.18,0.429,0.424,0.952,0.726
									c0.53,0.306,0.958,0.494,1.27,0.557c0.319,0.074,0.586,0.037,0.814-0.096s0.291-0.287,0.169-0.476
									C245.439,222.282,245.113,222.035,244.583,221.729 M230.367,227.572l1.135-0.66c0.628-0.365,1.149-0.615,1.542-0.74
									c0.4-0.13,0.82-0.196,1.259-0.199c0.388-0.004,0.745,0.04,1.089,0.129c0.337,0.085,0.669,0.217,0.982,0.397
									c0.319,0.185,0.549,0.377,0.704,0.575c0.147,0.195,0.231,0.406,0.22,0.627c-0.005,0.254-0.124,0.501-0.34,0.737
									c-0.221,0.232-0.646,0.531-1.268,0.893l-1.135,0.659L230.367,227.572 M235.138,225.029l0.772-0.679l1.021-0.594l3.441,1.987
									l0.945-0.55l0.747,0.432l-2.911,1.692l-0.748-0.432l0.952-0.554l-2.707-1.562l-0.773,0.686L235.138,225.029
									 M241.672,224.598l1.002-0.583l1.085,0.627l-1.002,0.582L241.672,224.598 M242.236,223.101
									c-0.69-0.398-1.086-0.796-1.165-1.188c-0.079-0.391,0.161-0.744,0.707-1.062c0.545-0.316,1.156-0.457,1.831-0.412
									c0.674,0.044,1.363,0.272,2.053,0.671c0.696,0.401,1.086,0.796,1.165,1.187s-0.155,0.748-0.7,1.065
									c-0.546,0.317-1.162,0.453-1.837,0.409C243.614,223.728,242.932,223.503,242.236,223.101 M243.936,219.687l3.14-1.824
									l0.606,0.35l1.958,3.013l-1.046,0.607l-1.862-2.853l-2.004,1.164L243.936,219.687 M268.997,221.04l-21.957-12.678
									l-34.621,20.12l21.957,12.678L268.997,221.04"/>
								<path fill="#EC7405" d="M145.938,217.464l-2.932,0.328l1.188,0.686L145.938,217.464 M132.088,209.38l-0.383-0.221
									l-2.543,1.478l0.383,0.221c0.44,0.254,0.887,0.387,1.345,0.395c0.445,0.007,0.877-0.111,1.29-0.351
									c0.412-0.239,0.614-0.49,0.6-0.748C132.76,209.899,132.535,209.638,132.088,209.38 M142.335,215.119
									c-0.23-0.133-0.504-0.166-0.815-0.096c-0.312,0.062-0.731,0.247-1.251,0.55c-0.526,0.306-0.843,0.549-0.957,0.733
									c-0.12,0.181-0.062,0.339,0.168,0.472s0.504,0.166,0.821,0.1c0.312-0.07,0.731-0.254,1.257-0.561
									c0.521-0.302,0.837-0.546,0.951-0.723C142.629,215.414,142.572,215.256,142.335,215.119 M135.52,215.249l1.079-0.627
									l1.009,0.582l-1.079,0.627L135.52,215.249 M127.265,210.482l4.162-2.418l1.143,0.66c0.632,0.365,1.066,0.667,1.284,0.896
									c0.224,0.232,0.34,0.476,0.348,0.729c0.008,0.225-0.061,0.435-0.219,0.63c-0.146,0.195-0.374,0.388-0.685,0.568
									c-0.317,0.185-0.647,0.316-0.99,0.405c-0.331,0.089-0.7,0.133-1.082,0.125c-0.439-0.004-0.86-0.07-1.268-0.203
									c-0.408-0.125-0.925-0.372-1.55-0.733L127.265,210.482 M135.103,211.26l0.729-0.424l1.174,0.449l1.028,0.594l-3.418,1.987
									l0.951,0.549l-0.743,0.432l-2.931-1.692l0.743-0.431l0.958,0.553l2.689-1.563L135.103,211.26 M141.561,217.854l0.919-0.534
									l4.154-0.476l1.207,0.696l-2.626,1.526l0.594,0.343l-0.774,0.45l-0.594-0.343l-0.761,0.442l-1.021-0.59l0.761-0.442
									L141.561,217.854 M138.751,217.202c-0.549-0.317-0.793-0.671-0.718-1.062c0.08-0.387,0.46-0.785,1.151-1.188
									c0.692-0.401,1.378-0.622,2.045-0.67c0.674-0.045,1.287,0.096,1.835,0.412c0.549,0.317,0.792,0.671,0.718,1.062
									c-0.073,0.391-0.459,0.784-1.151,1.187c-0.691,0.401-1.371,0.627-2.045,0.671S139.301,217.52,138.751,217.202
									 M153.602,216.723l-20.412-11.785l-11.824,6.872l20.412,11.785L153.602,216.723"/>
								<path fill="#CFD0D2" d="M114.321,219.706l-0.383-0.222l-2.537,1.475l0.383,0.221c0.44,0.255,0.887,0.388,1.345,0.395
									c0.446,0.008,0.877-0.11,1.29-0.35c0.413-0.24,0.614-0.49,0.594-0.745C114.999,220.222,114.768,219.964,114.321,219.706
									 M124.574,225.441c-0.23-0.133-0.504-0.166-0.815-0.096c-0.312,0.062-0.731,0.247-1.251,0.549
									c-0.525,0.306-0.843,0.55-0.956,0.734c-0.12,0.181-0.062,0.339,0.168,0.472s0.503,0.166,0.821,0.1
									c0.311-0.07,0.73-0.255,1.256-0.561c0.521-0.302,0.837-0.546,0.951-0.723C124.868,225.736,124.811,225.578,124.574,225.441
									 M117.759,225.57l1.079-0.627l1.009,0.583l-1.079,0.627L117.759,225.57 M109.504,220.805l4.161-2.419l1.143,0.66
									c0.632,0.364,1.067,0.667,1.285,0.896c0.224,0.232,0.339,0.476,0.347,0.729c0.008,0.226-0.061,0.436-0.219,0.631
									c-0.145,0.195-0.373,0.387-0.685,0.567c-0.316,0.185-0.647,0.317-0.99,0.405c-0.331,0.089-0.7,0.133-1.082,0.126
									c-0.439-0.004-0.859-0.07-1.268-0.203c-0.408-0.125-0.925-0.372-1.551-0.733L109.504,220.805 M117.343,221.582l0.729-0.424
									l1.174,0.449l1.028,0.594l-3.419,1.986l0.951,0.55l-0.743,0.432l-2.93-1.692l0.742-0.432l0.958,0.554l2.689-1.563
									L117.343,221.582 M120.99,227.524c-0.549-0.317-0.793-0.671-0.718-1.062c0.081-0.388,0.46-0.785,1.151-1.188
									c0.692-0.401,1.378-0.623,2.046-0.671c0.674-0.044,1.286,0.096,1.835,0.413c0.549,0.316,0.792,0.671,0.719,1.062
									c-0.074,0.391-0.46,0.785-1.151,1.188c-0.691,0.401-1.371,0.626-2.046,0.671C122.151,227.981,121.54,227.841,120.99,227.524
									 M126.32,226.949l0.919-0.534c0.319,0.096,0.625,0.199,0.9,0.312c0.28,0.111,0.536,0.236,0.766,0.369
									c0.498,0.287,0.78,0.575,0.838,0.866c0.059,0.284-0.105,0.542-0.499,0.771c-0.228,0.133-0.495,0.222-0.813,0.266
									c-0.312,0.048-0.821,0.056-1.527,0.029l-1.675-0.062l1.839,1.062l-0.793,0.461l-3.045-1.759l0.793-0.46l2.871,0.106
									c0.254,0.007,0.477-0.004,0.661-0.037c0.185-0.025,0.337-0.077,0.464-0.151c0.196-0.114,0.285-0.247,0.278-0.391
									c-0.02-0.144-0.129-0.28-0.353-0.409c-0.166-0.096-0.389-0.181-0.657-0.254C127.008,227.06,126.696,226.997,126.32,226.949
									 M138.492,225.504l-20.412-11.785l-17.203,9.998l20.412,11.785L138.492,225.504"/>
								<path fill="#CFD0D2" d="M308.846,184.382c-0.415-0.24-0.842-0.354-1.287-0.347c-0.452,0.011-0.891,0.14-1.334,0.398
									l-0.388,0.225l2.554,1.475l0.388-0.225c0.438-0.254,0.665-0.512,0.683-0.774
									C309.466,184.873,309.261,184.622,308.846,184.382 M321.85,176.825c-0.523-0.302-0.944-0.486-1.25-0.553
									c-0.312-0.07-0.586-0.037-0.82,0.1c-0.229,0.132-0.285,0.291-0.164,0.472c0.11,0.181,0.43,0.424,0.953,0.726
									c0.529,0.306,0.957,0.494,1.27,0.557c0.318,0.074,0.585,0.037,0.813-0.096s0.291-0.288,0.17-0.476
									C322.705,177.378,322.379,177.131,321.85,176.825 M303.948,184.81l1.136-0.66c0.627-0.365,1.147-0.616,1.542-0.741
									c0.399-0.129,0.819-0.195,1.259-0.199c0.389-0.004,0.745,0.041,1.089,0.129c0.338,0.085,0.669,0.218,0.982,0.398
									c0.319,0.184,0.55,0.376,0.703,0.575c0.147,0.196,0.231,0.406,0.22,0.627c-0.005,0.254-0.124,0.501-0.34,0.737
									c-0.221,0.232-0.646,0.531-1.267,0.892l-1.136,0.66L303.948,184.81 M308.72,182.267l0.772-0.679l1.021-0.594l3.441,1.987
									l0.944-0.549l0.747,0.432l-2.911,1.692l-0.747-0.432l0.951-0.553l-2.707-1.563l-0.772,0.686L308.72,182.267
									 M315.253,181.835l1.002-0.583l1.086,0.627l-1.003,0.583L315.253,181.835 M314.289,179.03l0.772-0.678l1.021-0.594
									l3.441,1.987l0.944-0.549l0.747,0.431l-2.911,1.692l-0.747-0.431l0.951-0.553l-2.707-1.563l-0.772,0.686L314.289,179.03
									 M319.503,178.197c-0.69-0.398-1.08-0.8-1.165-1.187c-0.079-0.391,0.161-0.745,0.707-1.062
									c0.551-0.321,1.155-0.457,1.83-0.413c0.674,0.044,1.363,0.272,2.053,0.671c0.696,0.402,1.086,0.796,1.165,1.187
									c0.078,0.391-0.148,0.745-0.7,1.065c-0.546,0.317-1.162,0.454-1.837,0.41C320.887,178.819,320.198,178.599,319.503,178.197
									 M347.361,175.491l-21.95-12.674l-45.38,26.373l21.957,12.678L347.361,175.491"/>
								<path fill="#CFD0D2" d="M273.493,213.531c-0.205-0.118-0.415-0.174-0.631-0.174c-0.216,0-0.426,0.062-0.629,0.181
									c-0.209,0.121-0.31,0.239-0.31,0.365c-0.006,0.129,0.097,0.247,0.301,0.364c0.198,0.114,0.402,0.174,0.625,0.17
									c0.216,0,0.42-0.059,0.629-0.181c0.203-0.118,0.311-0.239,0.31-0.365C273.787,213.767,273.69,213.645,273.493,213.531
									 M261.174,204.698l-0.39-0.225l-2.538,1.475l0.39,0.225c0.441,0.254,0.887,0.387,1.338,0.391
									c0.452,0.011,0.884-0.107,1.297-0.347c0.412-0.24,0.614-0.49,0.594-0.752C261.845,205.21,261.614,204.952,261.174,204.698
									 M271.426,210.434c-0.236-0.136-0.503-0.166-0.821-0.1c-0.312,0.063-0.724,0.25-1.244,0.553
									c-0.526,0.306-0.85,0.545-0.963,0.73c-0.113,0.185-0.062,0.34,0.175,0.476c0.229,0.133,0.503,0.166,0.815,0.096
									c0.318-0.066,0.73-0.254,1.257-0.56c0.521-0.303,0.843-0.542,0.951-0.723C271.714,210.726,271.656,210.567,271.426,210.434
									 M275.192,212.543c-0.172-0.1-0.351-0.151-0.529-0.151c-0.185-0.004-0.356,0.044-0.521,0.141
									c-0.165,0.096-0.247,0.195-0.24,0.302c0,0.104,0.09,0.206,0.263,0.306c0.166,0.096,0.344,0.147,0.522,0.147
									s0.356-0.044,0.521-0.14c0.165-0.096,0.24-0.199,0.24-0.303C275.448,212.742,275.358,212.639,275.192,212.543
									 M264.604,210.56l1.079-0.627l1.015,0.586l-1.079,0.627L264.604,210.56 M256.356,205.797l4.161-2.418l1.136,0.656
									c0.639,0.369,1.067,0.667,1.291,0.9c0.224,0.232,0.339,0.476,0.341,0.726c0.007,0.225-0.062,0.435-0.213,0.634
									c-0.146,0.195-0.38,0.383-0.69,0.564c-0.317,0.184-0.641,0.32-0.984,0.409c-0.337,0.084-0.706,0.129-1.087,0.122
									c-0.439-0.003-0.86-0.07-1.262-0.199c-0.408-0.125-0.925-0.372-1.557-0.737L256.356,205.797 M264.194,206.574l0.729-0.424
									l1.167,0.446l1.028,0.593l-3.419,1.987l0.958,0.553l-0.742,0.431l-2.931-1.692l0.743-0.431l0.951,0.549l2.689-1.563
									L264.194,206.574 M267.842,212.517c-0.556-0.32-0.793-0.671-0.719-1.062c0.075-0.391,0.46-0.785,1.152-1.187
									s1.371-0.626,2.045-0.671c0.674-0.044,1.28,0.092,1.835,0.413c0.549,0.317,0.786,0.667,0.712,1.058
									c-0.075,0.391-0.454,0.789-1.146,1.19s-1.377,0.623-2.052,0.667C268.997,212.971,268.391,212.834,267.842,212.517
									 M271.552,214.659c-0.543-0.313-0.856-0.612-0.922-0.893c-0.065-0.288,0.111-0.546,0.524-0.785
									c0.266-0.155,0.559-0.243,0.883-0.262c0.312-0.019,0.655,0.033,1.026,0.151c-0.18-0.192-0.257-0.369-0.233-0.538
									c0.031-0.166,0.164-0.317,0.398-0.454c0.355-0.206,0.756-0.283,1.202-0.239s0.924,0.218,1.435,0.513
									c0.504,0.291,0.805,0.567,0.882,0.825c0.078,0.258-0.054,0.49-0.409,0.697c-0.235,0.136-0.496,0.214-0.782,0.232
									c-0.292,0.015-0.598-0.03-0.93-0.133c0.205,0.214,0.288,0.409,0.264,0.593c-0.031,0.188-0.183,0.358-0.449,0.513
									c-0.412,0.239-0.857,0.343-1.354,0.306C272.604,215.149,272.094,214.973,271.552,214.659 M283.333,212.701l-21.95-12.674
									l-11.057,6.425l21.957,12.678l5.208-3.027L283.333,212.701"/>
								<path fill="#CFD0D2" d="M275.979,196.094l-0.39-0.225l-2.543,1.478l0.39,0.225c0.44,0.254,0.893,0.384,1.338,0.391
									c0.452,0.011,0.884-0.106,1.296-0.346c0.412-0.24,0.614-0.491,0.594-0.752C276.649,196.606,276.419,196.349,275.979,196.094
									 M286.225,201.834c-0.236-0.137-0.503-0.166-0.815-0.104c-0.318,0.066-0.73,0.254-1.251,0.557
									c-0.526,0.306-0.85,0.546-0.963,0.73c-0.114,0.184-0.062,0.339,0.175,0.476c0.229,0.132,0.503,0.166,0.815,0.096
									c0.317-0.066,0.73-0.254,1.257-0.56c0.52-0.303,0.843-0.542,0.957-0.727C286.513,202.125,286.454,201.966,286.225,201.834
									 M289.896,203.895c-0.191-0.111-0.389-0.159-0.612-0.14c-0.216,0.015-0.451,0.092-0.692,0.232
									c-0.241,0.14-0.375,0.277-0.399,0.402c-0.025,0.125,0.052,0.243,0.244,0.354c0.185,0.107,0.39,0.151,0.605,0.136
									c0.216-0.014,0.451-0.092,0.692-0.232c0.241-0.14,0.374-0.276,0.398-0.402C290.164,204.116,290.081,204.001,289.896,203.895
									 M279.41,201.956l1.078-0.627l1.015,0.586l-1.078,0.626L279.41,201.956 M271.161,197.192l4.161-2.418l1.136,0.656
									c0.639,0.369,1.067,0.667,1.285,0.903c0.224,0.232,0.34,0.476,0.341,0.727c0.014,0.221-0.061,0.435-0.207,0.63
									c-0.151,0.199-0.386,0.387-0.697,0.567s-0.635,0.317-0.978,0.406c-0.343,0.088-0.706,0.129-1.094,0.125
									c-0.439-0.004-0.86-0.07-1.262-0.199c-0.401-0.129-0.918-0.376-1.55-0.741L271.161,197.192 M278.993,197.974l0.729-0.424
									l1.173,0.442l1.028,0.593l-3.425,1.991l0.958,0.553l-0.736,0.428l-2.93-1.692l0.735-0.428l0.951,0.549l2.696-1.567
									L278.993,197.974 M287.554,205.041c-0.428-0.247-0.646-0.52-0.66-0.815c-0.014-0.294,0.175-0.56,0.582-0.796
									c0.45-0.262,0.952-0.384,1.518-0.373c0.561,0.015,1.09,0.159,1.581,0.442c0.549,0.317,0.786,0.667,0.719,1.054
									c-0.068,0.387-0.435,0.771-1.107,1.162c-0.685,0.398-1.396,0.611-2.141,0.638c-0.745,0.026-1.42-0.137-2.027-0.487
									c-0.198-0.114-0.37-0.229-0.523-0.354c-0.153-0.118-0.282-0.243-0.397-0.376l0.768-0.446
									c0.096,0.144,0.199,0.277,0.314,0.387c0.121,0.115,0.255,0.214,0.409,0.302c0.319,0.185,0.663,0.28,1.02,0.28
									c0.35,0.004,0.725-0.088,1.106-0.273c-0.223-0.018-0.427-0.062-0.618-0.114
									C287.904,205.214,287.726,205.141,287.554,205.041 M282.641,203.917c-0.555-0.321-0.792-0.671-0.719-1.062
									c0.075-0.391,0.46-0.786,1.152-1.187c0.691-0.402,1.371-0.627,2.045-0.671c0.674-0.044,1.286,0.088,1.841,0.409
									c0.549,0.317,0.78,0.671,0.706,1.062s-0.454,0.789-1.145,1.19c-0.691,0.402-1.377,0.623-2.052,0.667
									S283.19,204.233,282.641,203.917 M298.702,203.776l-21.957-12.677l-12.077,7.019l21.957,12.678L298.702,203.776"/>
								<path fill="#BDD4E4" d="M232.666,185.82c-0.191-0.11-0.389-0.159-0.605-0.144c-0.223,0.018-0.445,0.096-0.692,0.24
									c-0.241,0.14-0.38,0.272-0.405,0.398c-0.025,0.125,0.052,0.244,0.244,0.354c0.191,0.111,0.396,0.155,0.612,0.14
									c0.216-0.015,0.445-0.096,0.686-0.236c0.248-0.144,0.38-0.273,0.412-0.402C232.94,186.045,232.857,185.931,232.666,185.82
									 M220.079,177.046l-0.383-0.221l-2.543,1.478l0.383,0.221c0.44,0.254,0.893,0.384,1.345,0.395
									c0.446,0.007,0.878-0.11,1.29-0.35c0.413-0.24,0.614-0.49,0.601-0.748C220.75,177.559,220.526,177.304,220.079,177.046
									 M230.326,182.786c-0.23-0.133-0.504-0.166-0.815-0.104c-0.312,0.07-0.73,0.254-1.25,0.557
									c-0.526,0.306-0.843,0.55-0.963,0.73c-0.113,0.184-0.055,0.343,0.174,0.476c0.23,0.133,0.504,0.166,0.822,0.1
									c0.312-0.07,0.73-0.254,1.257-0.56c0.52-0.302,0.836-0.546,0.957-0.727C230.613,183.077,230.562,182.922,230.326,182.786
									 M223.517,182.911l1.079-0.626l1.009,0.583l-1.079,0.627L223.517,182.911 M215.262,178.145l4.161-2.418l1.143,0.66
									c0.632,0.365,1.066,0.667,1.278,0.9c0.224,0.232,0.34,0.475,0.348,0.729c0.008,0.225-0.068,0.432-0.212,0.627
									c-0.152,0.199-0.38,0.391-0.69,0.571c-0.311,0.181-0.641,0.313-0.984,0.402s-0.699,0.133-1.088,0.129
									c-0.439-0.003-0.866-0.073-1.267-0.203c-0.402-0.129-0.919-0.376-1.544-0.737L215.262,178.145 M223.093,178.926l0.73-0.424
									l1.18,0.446l1.028,0.594l-3.425,1.991l0.951,0.549l-0.736,0.428l-2.931-1.692l0.736-0.427l0.958,0.553l2.696-1.567
									L223.093,178.926 M230.521,187.051c-0.542-0.313-0.78-0.664-0.718-1.047c0.068-0.387,0.435-0.771,1.107-1.161
									c0.692-0.402,1.403-0.616,2.147-0.642c0.738-0.029,1.414,0.133,2.026,0.487c0.192,0.11,0.358,0.229,0.518,0.35
									c0.147,0.122,0.281,0.25,0.403,0.387l-0.774,0.45c-0.096-0.151-0.199-0.284-0.32-0.398
									c-0.109-0.114-0.244-0.213-0.396-0.302c-0.319-0.184-0.657-0.276-1.02-0.28c-0.356,0-0.725,0.096-1.105,0.28
									c0.223,0.019,0.414,0.056,0.611,0.111c0.191,0.059,0.364,0.136,0.536,0.236c0.428,0.247,0.652,0.516,0.667,0.811
									c0.007,0.298-0.182,0.564-0.587,0.8c-0.444,0.258-0.946,0.38-1.513,0.369C231.542,187.486,231.013,187.335,230.521,187.051
									 M226.741,184.869c-0.549-0.317-0.792-0.671-0.718-1.062c0.074-0.391,0.46-0.786,1.151-1.188s1.371-0.627,2.045-0.671
									c0.675-0.044,1.292,0.092,1.842,0.409c0.549,0.317,0.786,0.675,0.712,1.065c-0.074,0.391-0.46,0.785-1.151,1.187
									s-1.371,0.627-2.046,0.671C227.902,185.326,227.291,185.186,226.741,184.869 M322.097,160.911l-56.759-32.772
									l-128.861,74.889l20.411,11.786l36.348,20.986L322.097,160.911"/>
								<path fill="#CFD0D2" d="M243.567,285.688l-0.383-0.221l-2.543,1.478l0.383,0.222c0.447,0.258,0.887,0.387,1.344,0.394
									c0.446,0.008,0.884-0.106,1.296-0.346c0.412-0.24,0.608-0.494,0.594-0.752C244.239,286.208,244.014,285.946,243.567,285.688
									 M253.82,291.432c-0.236-0.137-0.51-0.17-0.821-0.1c-0.312,0.062-0.731,0.247-1.251,0.55
									c-0.526,0.306-0.843,0.549-0.957,0.733c-0.12,0.181-0.062,0.339,0.174,0.476c0.23,0.133,0.499,0.162,0.815,0.096
									c0.312-0.07,0.73-0.254,1.257-0.561c0.52-0.302,0.837-0.546,0.951-0.723C254.108,291.723,254.05,291.564,253.82,291.432
									 M246.999,291.557l1.079-0.627l1.008,0.583l-1.079,0.627L246.999,291.557 M238.75,286.794l4.162-2.418l1.137,0.656
									c0.638,0.368,1.065,0.667,1.29,0.899c0.217,0.229,0.333,0.472,0.342,0.727c0.007,0.225-0.061,0.435-0.213,0.634
									c-0.146,0.195-0.38,0.383-0.691,0.563c-0.317,0.185-0.64,0.321-0.983,0.409c-0.337,0.086-0.706,0.13-1.087,0.122
									c-0.44-0.004-0.86-0.07-1.269-0.203c-0.407-0.125-0.925-0.372-1.55-0.733L238.75,286.794 M246.588,287.572l0.729-0.424
									l1.167,0.445l1.028,0.594l-3.419,1.987l0.951,0.549l-0.743,0.432l-2.93-1.692l0.743-0.431l0.957,0.553l2.689-1.563
									L246.588,287.572 M250.236,293.514c-0.555-0.32-0.799-0.674-0.719-1.062c0.074-0.39,0.454-0.788,1.145-1.19
									c0.692-0.401,1.377-0.623,2.051-0.667c0.668-0.048,1.281,0.093,1.836,0.413c0.549,0.316,0.786,0.667,0.711,1.058
									c-0.073,0.392-0.459,0.785-1.15,1.188c-0.691,0.401-1.372,0.627-2.046,0.671S250.786,293.831,250.236,293.514
									 M255.858,292.88l0.786-0.456c0.268,0.088,0.53,0.181,0.766,0.287c0.243,0.104,0.46,0.214,0.664,0.332
									c0.543,0.312,0.862,0.601,0.953,0.858c0.09,0.259-0.035,0.494-0.391,0.701c-0.241,0.14-0.507,0.221-0.794,0.231
									c-0.286,0.019-0.586-0.029-0.898-0.136c0.21,0.202,0.294,0.397,0.265,0.593c-0.031,0.188-0.189,0.361-0.462,0.52
									c-0.412,0.24-0.889,0.332-1.424,0.273c-0.529-0.056-1.096-0.266-1.708-0.619c-0.211-0.122-0.416-0.255-0.595-0.402
									c-0.186-0.144-0.346-0.295-0.486-0.457l0.831-0.482c0.096,0.173,0.225,0.335,0.372,0.479
									c0.146,0.144,0.319,0.272,0.51,0.383c0.288,0.166,0.549,0.266,0.804,0.295c0.249,0.033,0.471-0.008,0.655-0.114
									c0.19-0.11,0.253-0.236,0.195-0.388c-0.058-0.144-0.237-0.306-0.543-0.482l-0.435-0.251l0.691-0.401l0.454,0.262
									c0.274,0.158,0.51,0.251,0.733,0.276c0.217,0.029,0.408-0.008,0.585-0.11c0.158-0.093,0.215-0.199,0.176-0.325
									c-0.039-0.125-0.179-0.258-0.415-0.394c-0.173-0.1-0.364-0.188-0.587-0.266C256.342,293.006,256.106,292.936,255.858,292.88
									 M275.019,286.827l-19.895-11.486l-15.11,8.781l-17.203,9.997l19.895,11.487L275.019,286.827"/>
								<path fill="#BDD4E4" d="M302.099,228.299l-0.39-0.226l-2.543,1.479l0.389,0.225c0.44,0.255,0.894,0.384,1.339,0.391
									c0.452,0.012,0.884-0.106,1.296-0.347c0.412-0.239,0.614-0.49,0.594-0.752C302.77,228.811,302.539,228.553,302.099,228.299
									 M312.346,234.038c-0.236-0.137-0.505-0.166-0.815-0.104c-0.312,0.07-0.731,0.255-1.251,0.557
									c-0.526,0.307-0.843,0.55-0.963,0.73c-0.114,0.184-0.062,0.339,0.174,0.476c0.229,0.133,0.504,0.166,0.815,0.096
									c0.317-0.066,0.73-0.255,1.257-0.561c0.52-0.303,0.844-0.542,0.957-0.727C312.633,234.329,312.574,234.171,312.346,234.038
									 M308.949,224.317l-0.39-0.226l-2.543,1.479l0.389,0.225c0.441,0.255,0.894,0.384,1.339,0.391
									c0.452,0.012,0.884-0.106,1.296-0.346c0.412-0.24,0.615-0.49,0.595-0.752C309.62,224.83,309.39,224.571,308.949,224.317
									 M305.53,234.16l1.078-0.627l1.015,0.586l-1.078,0.627L305.53,234.16 M297.281,229.396l4.161-2.418l1.137,0.656
									c0.639,0.369,1.067,0.667,1.284,0.903c0.225,0.232,0.341,0.476,0.342,0.726c0.008,0.226-0.062,0.436-0.206,0.631
									c-0.152,0.199-0.387,0.387-0.697,0.567s-0.635,0.317-0.978,0.406c-0.344,0.088-0.706,0.129-1.095,0.125
									c-0.438-0.004-0.859-0.07-1.261-0.199s-0.918-0.376-1.55-0.741L297.281,229.396 M305.112,230.179l0.729-0.425l1.174,0.443
									l1.028,0.594l-3.426,1.99l0.958,0.553l-0.736,0.428l-2.93-1.692l0.735-0.428l0.951,0.55l2.696-1.567L305.112,230.179
									 M312.981,236.354l2.341-1.36l2.688,1.552l-0.793,0.461l-1.826-1.055l-0.641,0.372c0.103,0.037,0.205,0.074,0.301,0.115
									c0.095,0.04,0.19,0.088,0.28,0.14c0.505,0.291,0.779,0.597,0.808,0.907c0.032,0.312-0.182,0.601-0.632,0.862
									c-0.451,0.262-0.959,0.38-1.526,0.347c-0.56-0.029-1.114-0.203-1.669-0.523c-0.236-0.137-0.454-0.284-0.634-0.446
									c-0.191-0.162-0.352-0.336-0.493-0.52l0.845-0.491c0.103,0.207,0.225,0.388,0.359,0.546
									c0.141,0.155,0.301,0.284,0.485,0.391c0.262,0.151,0.53,0.232,0.81,0.247c0.274,0.012,0.521-0.044,0.744-0.173
									c0.216-0.125,0.311-0.27,0.29-0.428c-0.026-0.162-0.167-0.317-0.429-0.469c-0.159-0.092-0.345-0.177-0.556-0.254
									C313.511,236.497,313.269,236.423,312.981,236.354 M308.762,236.121c-0.556-0.321-0.793-0.671-0.72-1.062
									c0.074-0.391,0.46-0.784,1.151-1.187c0.691-0.401,1.371-0.627,2.045-0.671c0.676-0.044,1.287,0.089,1.843,0.409
									c0.549,0.317,0.779,0.671,0.706,1.062c-0.074,0.391-0.454,0.789-1.146,1.191c-0.691,0.401-1.378,0.623-2.052,0.667
									C309.915,236.574,309.311,236.438,308.762,236.121 M312.381,230.179l1.078-0.627l1.015,0.586l-1.078,0.627L312.381,230.179
									 M304.132,225.416l4.161-2.419l1.137,0.656c0.638,0.369,1.066,0.667,1.284,0.903c0.224,0.232,0.339,0.476,0.341,0.727
									c0.014,0.221-0.062,0.435-0.207,0.63c-0.151,0.199-0.386,0.387-0.696,0.568c-0.311,0.181-0.635,0.316-0.978,0.405
									c-0.344,0.088-0.706,0.129-1.094,0.125c-0.439-0.004-0.859-0.07-1.262-0.199c-0.401-0.129-0.918-0.376-1.55-0.74
									L304.132,225.416 M311.964,226.197l0.729-0.424l1.174,0.442l1.028,0.594l-3.426,1.99l0.958,0.553l-0.735,0.428l-2.931-1.692
									l0.735-0.428l0.951,0.55l2.695-1.566L311.964,226.197 M317.569,229.434l0.729-0.424l1.18,0.446l1.021,0.59l-3.426,1.99
									l0.958,0.554l-0.735,0.427l-2.931-1.691l0.736-0.428l0.951,0.549l2.695-1.566L317.569,229.434 M321.278,231.575l0.729-0.424
									l1.18,0.446l1.028,0.594l-3.425,1.99l0.951,0.55l-0.736,0.427l-2.931-1.691l0.736-0.428l0.958,0.553l2.695-1.566
									L321.278,231.575 M301.844,224.97c0.17-0.432,0.397-0.808,0.669-1.128c0.278-0.317,0.62-0.598,1.026-0.833
									c0.406-0.236,0.889-0.436,1.447-0.598c0.553-0.166,1.201-0.299,1.938-0.395l0.83,0.479
									c-0.674,0.118-1.284,0.266-1.823,0.438c-0.547,0.177-1.017,0.384-1.429,0.623s-0.768,0.513-1.071,0.829
									c-0.303,0.311-0.556,0.664-0.758,1.062L301.844,224.97 M320.819,235.926c0.687-0.118,1.297-0.266,1.83-0.442
									c0.547-0.177,1.022-0.38,1.436-0.62c0.412-0.239,0.761-0.516,1.064-0.832c0.304-0.311,0.556-0.664,0.751-1.059l0.836,0.483
									c-0.169,0.423-0.396,0.8-0.675,1.124c-0.284,0.32-0.626,0.601-1.032,0.837c-0.406,0.235-0.889,0.435-1.435,0.597
									c-0.554,0.158-1.202,0.291-1.938,0.395L320.819,235.926 M407.173,210.025l-56.498-32.621l-128.868,74.893l56.498,32.621
									L407.173,210.025"/>
								<polyline fill="#CFD0D2" points="231.09,243.07 209.133,230.393 193.257,239.619 156.909,218.633 145.085,225.504 
									181.433,246.491 160.944,258.398 182.901,271.075 203.39,259.168 239.993,280.303 251.816,273.431 215.213,252.297 
									231.09,243.07 								"/>
								<path fill="#CFD0D2" d="M205.94,272.605l-0.383-0.222l-2.537,1.475l0.383,0.222c0.44,0.254,0.887,0.387,1.345,0.395
									c0.446,0.007,0.877-0.111,1.29-0.351c0.413-0.24,0.614-0.49,0.594-0.744C206.618,273.121,206.387,272.863,205.94,272.605
									 M216.193,278.341c-0.229-0.132-0.504-0.165-0.815-0.096c-0.312,0.062-0.731,0.247-1.251,0.55
									c-0.526,0.306-0.843,0.549-0.957,0.733c-0.121,0.181-0.062,0.339,0.168,0.472c0.23,0.133,0.503,0.166,0.822,0.1
									c0.311-0.07,0.73-0.254,1.256-0.56c0.521-0.303,0.837-0.547,0.951-0.724C216.487,278.637,216.43,278.478,216.193,278.341
									 M209.378,278.471l1.079-0.627l1.009,0.582l-1.079,0.627L209.378,278.471 M201.123,273.704l4.162-2.419l1.143,0.66
									c0.632,0.365,1.067,0.667,1.285,0.896c0.224,0.232,0.339,0.476,0.347,0.73c0.008,0.225-0.061,0.435-0.219,0.63
									c-0.146,0.195-0.374,0.388-0.685,0.568c-0.316,0.184-0.647,0.316-0.99,0.405c-0.33,0.088-0.699,0.133-1.081,0.125
									c-0.439-0.003-0.86-0.069-1.268-0.202c-0.408-0.126-0.925-0.373-1.551-0.734L201.123,273.704 M208.961,274.481l0.729-0.424
									l1.174,0.45l1.028,0.593l-3.418,1.987l0.951,0.549l-0.743,0.432l-2.931-1.691l0.743-0.432l0.958,0.553l2.689-1.562
									L208.961,274.481 M218.283,279.863l0.729-0.423l1.167,0.445l1.028,0.594l-3.418,1.986l0.958,0.554l-0.743,0.431l-2.93-1.691
									l0.743-0.432l0.951,0.55l2.689-1.563L218.283,279.863 M212.609,280.424c-0.549-0.316-0.793-0.671-0.719-1.062
									c0.081-0.387,0.46-0.785,1.151-1.187c0.691-0.402,1.378-0.623,2.046-0.672c0.674-0.044,1.286,0.097,1.835,0.413
									c0.556,0.321,0.792,0.671,0.719,1.062c-0.074,0.392-0.46,0.785-1.152,1.188c-0.691,0.401-1.371,0.627-2.045,0.671
									C213.77,280.881,213.165,280.745,212.609,280.424 M236.707,282.212l-33.303-19.229l-17.203,9.998l33.302,19.229
									L236.707,282.212"/>
								<polyline fill="#EC7405" points="174.84,246.491 141.8,227.414 124.597,237.411 157.637,256.488 174.84,246.491 								"/>
								<path fill="#FFFFFF" d="M217.152,178.303l2.543-1.478l0.383,0.221c0.447,0.258,0.671,0.512,0.692,0.774
									c0.014,0.258-0.188,0.508-0.601,0.748c-0.412,0.24-0.844,0.357-1.29,0.35c-0.452-0.011-0.904-0.14-1.345-0.395
									L217.152,178.303 M220.565,176.386l-1.143-0.66l-4.161,2.418l1.143,0.66c0.625,0.361,1.143,0.608,1.544,0.737
									c0.401,0.129,0.828,0.199,1.267,0.203c0.389,0.004,0.745-0.041,1.088-0.129s0.673-0.221,0.984-0.402
									c0.311-0.181,0.539-0.372,0.69-0.571c0.145-0.195,0.22-0.402,0.212-0.627c-0.007-0.254-0.124-0.498-0.348-0.729
									C221.632,177.054,221.198,176.751,220.565,176.386"/>
								<polyline fill="#FFFFFF" points="226.031,179.542 225.003,178.948 223.823,178.502 223.093,178.926 224.28,179.376 
									221.584,180.943 220.626,180.39 219.89,180.817 222.821,182.51 223.557,182.082 222.605,181.533 226.031,179.542 								
									"/>
								<polyline fill="#FFFFFF" points="225.604,182.867 224.595,182.285 223.517,182.911 224.525,183.494 225.604,182.867 
																	"/>
								<path fill="#FFFFFF" d="M227.471,184.445c-0.229-0.132-0.288-0.292-0.174-0.476c0.12-0.18,0.437-0.424,0.963-0.73
									c0.52-0.302,0.939-0.486,1.25-0.557c0.312-0.062,0.585-0.029,0.815,0.104c0.236,0.136,0.288,0.291,0.181,0.472
									c-0.12,0.181-0.437,0.424-0.957,0.727c-0.527,0.306-0.946,0.49-1.257,0.56C227.975,184.611,227.701,184.578,227.471,184.445
									 M231.062,182.358c-0.549-0.317-1.167-0.453-1.842-0.409c-0.674,0.044-1.354,0.269-2.045,0.671s-1.078,0.796-1.151,1.188
									c-0.074,0.391,0.169,0.744,0.718,1.062c0.549,0.317,1.161,0.457,1.835,0.413c0.675-0.044,1.354-0.269,2.046-0.671
									s1.078-0.796,1.151-1.187C231.848,183.033,231.61,182.675,231.062,182.358"/>
								<path fill="#FFFFFF" d="M231.207,186.668c-0.192-0.11-0.269-0.229-0.244-0.354c0.024-0.125,0.164-0.258,0.405-0.398
									c0.248-0.144,0.47-0.222,0.692-0.24c0.216-0.015,0.414,0.033,0.605,0.144c0.191,0.111,0.275,0.225,0.25,0.35
									c-0.032,0.129-0.165,0.258-0.412,0.402c-0.241,0.14-0.47,0.221-0.686,0.236
									C231.602,186.823,231.398,186.779,231.207,186.668 M235.083,184.688c-0.613-0.354-1.288-0.516-2.026-0.487
									c-0.745,0.026-1.456,0.24-2.147,0.642c-0.672,0.391-1.039,0.774-1.107,1.161c-0.062,0.383,0.176,0.733,0.718,1.047
									c0.492,0.284,1.021,0.435,1.581,0.45c0.566,0.011,1.068-0.11,1.513-0.369c0.406-0.236,0.595-0.501,0.587-0.8
									c-0.015-0.295-0.239-0.564-0.667-0.811c-0.172-0.1-0.345-0.177-0.536-0.236c-0.197-0.055-0.389-0.092-0.611-0.111
									c0.381-0.184,0.75-0.28,1.105-0.28c0.363,0.004,0.701,0.096,1.02,0.28c0.153,0.089,0.287,0.188,0.396,0.302
									c0.121,0.115,0.224,0.247,0.32,0.398l0.774-0.45c-0.122-0.137-0.256-0.266-0.403-0.387
									C235.441,184.917,235.275,184.799,235.083,184.688"/>
								<path fill="#FFFFFF" d="M273.045,197.347l2.543-1.478l0.39,0.225c0.44,0.255,0.671,0.513,0.686,0.771
									c0.02,0.262-0.182,0.513-0.594,0.752c-0.413,0.24-0.844,0.357-1.296,0.346c-0.445-0.007-0.898-0.136-1.338-0.391
									L273.045,197.347 M276.458,195.431l-1.136-0.656l-4.161,2.418l1.136,0.656c0.632,0.365,1.149,0.612,1.55,0.741
									c0.402,0.129,0.822,0.195,1.262,0.199c0.388,0.003,0.75-0.037,1.094-0.125c0.343-0.088,0.667-0.225,0.978-0.406
									s0.545-0.369,0.697-0.567c0.146-0.196,0.22-0.409,0.207-0.63c-0.001-0.251-0.117-0.494-0.341-0.727
									C277.525,196.098,277.097,195.799,276.458,195.431"/>
								<polyline fill="#FFFFFF" points="281.923,198.586 280.896,197.993 279.722,197.55 278.993,197.974 280.172,198.42 
									277.477,199.987 276.525,199.438 275.79,199.865 278.72,201.557 279.456,201.129 278.498,200.577 281.923,198.586 								
									"/>
								<polyline fill="#FFFFFF" points="281.503,201.915 280.488,201.329 279.41,201.956 280.425,202.542 281.503,201.915 								
									"/>
								<path fill="#FFFFFF" d="M283.371,203.493c-0.236-0.136-0.289-0.292-0.175-0.476c0.113-0.184,0.437-0.424,0.963-0.73
									c0.521-0.302,0.933-0.49,1.251-0.557c0.312-0.062,0.579-0.033,0.815,0.104c0.229,0.132,0.288,0.291,0.175,0.468
									c-0.114,0.185-0.437,0.424-0.957,0.727c-0.526,0.306-0.939,0.494-1.257,0.56C283.874,203.659,283.6,203.625,283.371,203.493
									 M286.96,201.406c-0.556-0.321-1.167-0.454-1.841-0.409c-0.675,0.044-1.354,0.269-2.045,0.671
									c-0.691,0.401-1.077,0.796-1.152,1.187c-0.074,0.391,0.164,0.741,0.719,1.062c0.549,0.317,1.155,0.454,1.829,0.409
									s1.36-0.266,2.052-0.667c0.691-0.401,1.071-0.8,1.145-1.19S287.51,201.723,286.96,201.406"/>
								<path fill="#FFFFFF" d="M288.437,204.742c-0.191-0.11-0.269-0.229-0.244-0.354c0.024-0.125,0.158-0.262,0.399-0.402
									c0.241-0.14,0.476-0.217,0.692-0.232c0.223-0.019,0.42,0.029,0.612,0.14c0.185,0.106,0.269,0.221,0.237,0.35
									c-0.024,0.125-0.158,0.262-0.398,0.402c-0.241,0.14-0.476,0.218-0.692,0.232
									C288.826,204.894,288.622,204.849,288.437,204.742 M290.574,203.5c-0.491-0.284-1.021-0.428-1.581-0.442
									c-0.566-0.011-1.068,0.111-1.518,0.373c-0.406,0.236-0.596,0.501-0.582,0.796c0.014,0.295,0.232,0.568,0.66,0.815
									c0.172,0.1,0.351,0.173,0.542,0.232c0.191,0.052,0.395,0.096,0.618,0.114c-0.381,0.185-0.756,0.277-1.106,0.273
									c-0.356,0-0.7-0.096-1.02-0.28c-0.153-0.088-0.288-0.188-0.409-0.302c-0.116-0.11-0.218-0.243-0.314-0.387l-0.768,0.446
									c0.115,0.133,0.244,0.258,0.397,0.376c0.153,0.125,0.326,0.24,0.523,0.354c0.606,0.35,1.282,0.513,2.027,0.487
									c0.744-0.026,1.456-0.24,2.141-0.638c0.673-0.391,1.04-0.774,1.107-1.162C291.36,204.167,291.124,203.817,290.574,203.5"/>
								<path fill="#FFFFFF" d="M258.247,205.948l2.538-1.475l0.39,0.225c0.44,0.254,0.671,0.512,0.691,0.767
									c0.021,0.262-0.182,0.512-0.594,0.752c-0.413,0.24-0.845,0.357-1.297,0.347c-0.452-0.004-0.897-0.137-1.338-0.391
									L258.247,205.948 M261.653,204.034l-1.136-0.656l-4.161,2.418l1.136,0.656c0.632,0.365,1.149,0.612,1.557,0.737
									c0.402,0.129,0.822,0.196,1.262,0.199c0.382,0.007,0.75-0.037,1.087-0.122c0.343-0.089,0.667-0.225,0.984-0.409
									c0.311-0.181,0.545-0.369,0.69-0.564c0.151-0.199,0.22-0.41,0.213-0.634c-0.002-0.25-0.118-0.494-0.341-0.726
									C262.72,204.702,262.292,204.403,261.653,204.034"/>
								<polyline fill="#FFFFFF" points="267.119,207.19 266.091,206.597 264.923,206.15 264.194,206.574 265.368,207.024 
									262.678,208.587 261.727,208.038 260.984,208.469 263.915,210.161 264.657,209.73 263.7,209.177 267.119,207.19 								"/>
								<polyline fill="#FFFFFF" points="266.698,210.519 265.683,209.933 264.604,210.56 265.62,211.146 266.698,210.519 								
									"/>
								<path fill="#FFFFFF" d="M268.572,212.093c-0.236-0.136-0.288-0.291-0.175-0.476c0.114-0.185,0.437-0.424,0.963-0.73
									c0.52-0.302,0.933-0.49,1.244-0.553c0.318-0.066,0.585-0.037,0.821,0.1c0.23,0.133,0.289,0.292,0.168,0.472
									c-0.107,0.181-0.43,0.42-0.951,0.723c-0.526,0.306-0.939,0.493-1.257,0.56C269.075,212.259,268.801,212.226,268.572,212.093
									 M272.156,210.01c-0.556-0.321-1.161-0.457-1.835-0.413c-0.674,0.044-1.354,0.269-2.045,0.671s-1.077,0.796-1.152,1.187
									c-0.074,0.391,0.164,0.741,0.719,1.062c0.549,0.317,1.155,0.454,1.829,0.409c0.674-0.044,1.36-0.266,2.052-0.667
									s1.071-0.8,1.146-1.19C272.942,210.678,272.705,210.327,272.156,210.01"/>
								<path fill="#FFFFFF" d="M272.224,214.268c-0.205-0.117-0.307-0.235-0.301-0.364c0-0.126,0.1-0.244,0.31-0.365
									c0.203-0.118,0.413-0.181,0.629-0.181c0.217,0,0.427,0.056,0.631,0.174c0.198,0.113,0.294,0.235,0.294,0.36
									c0.001,0.126-0.106,0.247-0.31,0.365c-0.209,0.122-0.413,0.181-0.629,0.181
									C272.626,214.441,272.422,214.382,272.224,214.268 M274.165,213.14c-0.172-0.1-0.262-0.202-0.263-0.306
									c-0.007-0.106,0.075-0.206,0.24-0.302c0.165-0.097,0.336-0.145,0.521-0.141c0.178,0,0.356,0.052,0.529,0.151
									c0.166,0.096,0.256,0.199,0.256,0.302c0,0.104-0.075,0.207-0.24,0.303c-0.165,0.096-0.343,0.14-0.521,0.14
									S274.331,213.235,274.165,213.14 M275.865,212.152c-0.511-0.295-0.989-0.469-1.435-0.513s-0.846,0.033-1.202,0.239
									c-0.234,0.137-0.367,0.288-0.398,0.454c-0.024,0.169,0.053,0.346,0.233,0.538c-0.371-0.118-0.714-0.17-1.026-0.151
									c-0.324,0.019-0.617,0.106-0.883,0.262c-0.413,0.239-0.589,0.497-0.524,0.785c0.065,0.28,0.379,0.579,0.922,0.893
									c0.542,0.313,1.053,0.49,1.537,0.526c0.497,0.037,0.941-0.066,1.354-0.306c0.267-0.154,0.418-0.324,0.449-0.513
									c0.024-0.184-0.06-0.379-0.264-0.593c0.332,0.103,0.637,0.147,0.93,0.133c0.286-0.019,0.547-0.097,0.782-0.232
									c0.355-0.207,0.487-0.439,0.409-0.697C276.67,212.72,276.369,212.443,275.865,212.152"/>
								<path fill="#FFFFFF" d="M129.162,210.637l2.543-1.478l0.383,0.221c0.447,0.258,0.672,0.52,0.692,0.774
									c0.014,0.258-0.188,0.509-0.6,0.748c-0.413,0.239-0.845,0.357-1.29,0.351c-0.458-0.008-0.904-0.141-1.345-0.395
									L129.162,210.637 M132.569,208.724l-1.143-0.66l-4.162,2.418l1.143,0.659c0.625,0.361,1.143,0.608,1.55,0.733
									c0.408,0.133,0.829,0.199,1.268,0.203c0.382,0.008,0.75-0.036,1.082-0.125c0.343-0.089,0.672-0.221,0.99-0.405
									c0.311-0.181,0.539-0.373,0.685-0.568c0.158-0.195,0.227-0.405,0.219-0.63c-0.008-0.254-0.124-0.498-0.348-0.729
									C133.635,209.391,133.201,209.089,132.569,208.724"/>
								<polyline fill="#FFFFFF" points="138.034,211.879 137.006,211.285 135.833,210.836 135.103,211.26 136.283,211.713 
									133.594,213.276 132.636,212.724 131.894,213.154 134.824,214.847 135.567,214.415 134.616,213.866 138.034,211.879 
																	"/>
								<polyline fill="#FFFFFF" points="137.607,215.204 136.599,214.622 135.52,215.249 136.529,215.831 137.607,215.204 								
									"/>
								<path fill="#FFFFFF" d="M139.48,216.778c-0.23-0.133-0.288-0.291-0.168-0.472c0.114-0.185,0.43-0.428,0.957-0.733
									c0.521-0.303,0.94-0.487,1.251-0.55c0.311-0.07,0.585-0.037,0.815,0.096c0.236,0.137,0.294,0.295,0.174,0.476
									c-0.113,0.177-0.43,0.421-0.951,0.723c-0.526,0.307-0.945,0.49-1.257,0.561C139.984,216.944,139.71,216.911,139.48,216.778
									 M143.065,214.695c-0.549-0.316-1.161-0.457-1.835-0.412c-0.667,0.048-1.354,0.269-2.045,0.67
									c-0.691,0.402-1.071,0.801-1.151,1.188c-0.075,0.391,0.169,0.744,0.718,1.062c0.549,0.317,1.161,0.457,1.835,0.413
									s1.354-0.27,2.045-0.671c0.692-0.402,1.078-0.796,1.151-1.187C143.857,215.366,143.614,215.013,143.065,214.695"/>
								<path fill="#FFFFFF" d="M143.006,217.792l2.932-0.328l-1.744,1.014L143.006,217.792 M147.841,217.541l-1.207-0.696
									l-4.154,0.476l-0.919,0.534l1.858,1.073l-0.761,0.442l1.021,0.59l0.761-0.442l0.594,0.343l0.774-0.45l-0.594-0.343
									L147.841,217.541"/>
								<path fill="#FFFFFF" d="M111.401,220.959l2.537-1.475l0.383,0.222c0.447,0.258,0.678,0.516,0.692,0.773
									c0.02,0.255-0.181,0.505-0.594,0.745c-0.412,0.239-0.844,0.357-1.29,0.35c-0.458-0.007-0.905-0.14-1.345-0.395
									L111.401,220.959 M114.808,219.046l-1.143-0.66l-4.161,2.419l1.143,0.659c0.625,0.361,1.143,0.608,1.551,0.733
									c0.408,0.133,0.828,0.199,1.268,0.203c0.382,0.007,0.751-0.037,1.082-0.126c0.343-0.088,0.673-0.221,0.99-0.405
									c0.312-0.181,0.54-0.372,0.685-0.567c0.158-0.195,0.227-0.405,0.219-0.631c-0.008-0.254-0.123-0.497-0.347-0.729
									C115.875,219.713,115.44,219.41,114.808,219.046"/>
								<polyline fill="#FFFFFF" points="120.273,222.201 119.245,221.607 118.071,221.158 117.343,221.582 118.522,222.035 
									115.833,223.599 114.875,223.045 114.133,223.477 117.063,225.169 117.806,224.737 116.854,224.188 120.273,222.201 
																	"/>
								<polyline fill="#FFFFFF" points="119.846,225.526 118.837,224.943 117.759,225.57 118.768,226.153 119.846,225.526 								
									"/>
								<path fill="#FFFFFF" d="M121.72,227.101c-0.23-0.133-0.289-0.291-0.168-0.472c0.113-0.185,0.431-0.429,0.956-0.734
									c0.521-0.302,0.94-0.486,1.251-0.549c0.311-0.07,0.585-0.037,0.815,0.096c0.236,0.137,0.294,0.295,0.175,0.476
									c-0.114,0.177-0.431,0.421-0.951,0.723c-0.526,0.306-0.945,0.49-1.256,0.561C122.223,227.267,121.95,227.233,121.72,227.101
									 M125.304,225.018c-0.549-0.317-1.161-0.457-1.835-0.413c-0.668,0.048-1.354,0.27-2.046,0.671
									c-0.691,0.402-1.07,0.8-1.151,1.188c-0.075,0.391,0.169,0.744,0.718,1.062c0.549,0.316,1.161,0.457,1.835,0.413
									c0.675-0.045,1.354-0.27,2.046-0.671c0.691-0.402,1.077-0.797,1.151-1.188C126.096,225.688,125.853,225.334,125.304,225.018
									"/>
								<path fill="#FFFFFF" d="M128.905,227.097c-0.23-0.133-0.485-0.258-0.766-0.369c-0.275-0.113-0.581-0.217-0.9-0.312
									l-0.919,0.534c0.376,0.048,0.688,0.11,0.968,0.185c0.268,0.073,0.491,0.158,0.657,0.254
									c0.224,0.129,0.333,0.266,0.353,0.409c0.007,0.144-0.082,0.276-0.278,0.391c-0.127,0.074-0.28,0.126-0.464,0.151
									c-0.184,0.033-0.407,0.044-0.661,0.037l-2.871-0.106l-0.793,0.46l3.045,1.759l0.793-0.461l-1.839-1.062l1.675,0.062
									c0.706,0.026,1.215,0.019,1.527-0.029c0.318-0.044,0.585-0.133,0.813-0.266c0.394-0.229,0.557-0.486,0.499-0.771
									C129.685,227.672,129.403,227.384,128.905,227.097"/>
								<path fill="#FFFFFF" d="M203.02,273.858l2.537-1.475l0.383,0.222c0.447,0.258,0.678,0.516,0.691,0.774
									c0.021,0.254-0.181,0.504-0.594,0.744c-0.413,0.239-0.844,0.357-1.29,0.351c-0.458-0.008-0.904-0.141-1.345-0.395
									L203.02,273.858 M206.427,271.945l-1.143-0.66l-4.162,2.419l1.143,0.659c0.625,0.361,1.143,0.608,1.551,0.734
									c0.408,0.133,0.828,0.199,1.268,0.202c0.382,0.008,0.751-0.037,1.081-0.125c0.343-0.089,0.674-0.222,0.99-0.405
									c0.311-0.181,0.539-0.373,0.685-0.568c0.158-0.195,0.227-0.405,0.219-0.63c-0.008-0.255-0.123-0.498-0.347-0.73
									C207.494,272.612,207.059,272.311,206.427,271.945"/>
								<polyline fill="#FFFFFF" points="211.892,275.101 210.864,274.508 209.69,274.058 208.961,274.481 210.141,274.936 
									207.452,276.498 206.494,275.945 205.751,276.377 208.682,278.068 209.425,277.637 208.474,277.088 211.892,275.101 
																	"/>
								<polyline fill="#FFFFFF" points="211.465,278.426 210.457,277.844 209.378,278.471 210.387,279.053 211.465,278.426 
																	"/>
								<path fill="#FFFFFF" d="M213.339,280c-0.229-0.133-0.289-0.291-0.168-0.472c0.113-0.185,0.431-0.428,0.957-0.733
									c0.52-0.303,0.939-0.487,1.251-0.55c0.311-0.069,0.585-0.036,0.815,0.096c0.236,0.137,0.294,0.296,0.175,0.476
									c-0.114,0.177-0.431,0.421-0.951,0.724c-0.526,0.306-0.945,0.489-1.256,0.56C213.842,280.166,213.569,280.133,213.339,280
									 M216.923,277.917c-0.549-0.316-1.161-0.457-1.835-0.413c-0.668,0.049-1.354,0.27-2.046,0.672
									c-0.691,0.401-1.07,0.8-1.151,1.187c-0.074,0.391,0.17,0.745,0.719,1.062c0.556,0.321,1.161,0.457,1.835,0.413
									c0.674-0.044,1.354-0.27,2.045-0.671c0.692-0.402,1.078-0.796,1.152-1.188C217.715,278.588,217.479,278.238,216.923,277.917
									"/>
								<polyline fill="#FFFFFF" points="221.207,280.479 220.179,279.886 219.012,279.44 218.283,279.863 219.457,280.313 
									216.767,281.877 215.816,281.327 215.073,281.759 218.003,283.45 218.746,283.02 217.789,282.466 221.207,280.479 								
									"/>
								<path fill="#FFFFFF" d="M240.641,286.945l2.543-1.478l0.383,0.221c0.447,0.258,0.671,0.52,0.691,0.774
									c0.015,0.258-0.182,0.512-0.594,0.752c-0.412,0.239-0.851,0.354-1.296,0.346c-0.458-0.007-0.897-0.136-1.344-0.394
									L240.641,286.945 M244.048,285.032l-1.137-0.656l-4.162,2.418l1.137,0.656c0.625,0.361,1.143,0.608,1.55,0.733
									c0.408,0.133,0.829,0.199,1.269,0.203c0.382,0.008,0.75-0.036,1.087-0.122c0.343-0.088,0.666-0.225,0.983-0.409
									c0.311-0.181,0.546-0.368,0.691-0.563c0.152-0.199,0.22-0.409,0.213-0.634c-0.008-0.255-0.125-0.498-0.342-0.727
									C245.113,285.699,244.686,285.4,244.048,285.032"/>
								<polyline fill="#FFFFFF" points="249.513,288.188 248.485,287.594 247.317,287.148 246.588,287.572 247.762,288.021 
									245.072,289.585 244.115,289.032 243.373,289.463 246.303,291.155 247.045,290.724 246.094,290.175 249.513,288.188 
																	"/>
								<polyline fill="#FFFFFF" points="249.085,291.513 248.077,290.93 246.999,291.557 248.007,292.14 249.085,291.513 								
									"/>
								<path fill="#FFFFFF" d="M250.965,293.091c-0.236-0.137-0.293-0.295-0.174-0.476c0.114-0.185,0.43-0.428,0.957-0.733
									c0.521-0.303,0.94-0.487,1.251-0.55c0.311-0.07,0.585-0.037,0.821,0.1c0.23,0.133,0.288,0.291,0.168,0.472
									c-0.113,0.177-0.431,0.421-0.951,0.723c-0.527,0.307-0.945,0.49-1.257,0.561
									C251.463,293.253,251.195,293.224,250.965,293.091 M254.55,291.008c-0.555-0.32-1.167-0.461-1.836-0.413
									c-0.674,0.044-1.359,0.266-2.051,0.667c-0.691,0.402-1.071,0.801-1.145,1.19c-0.081,0.388,0.164,0.741,0.719,1.062
									c0.549,0.317,1.154,0.454,1.829,0.41s1.355-0.27,2.046-0.671c0.691-0.402,1.078-0.796,1.15-1.188
									C255.336,291.675,255.099,291.324,254.55,291.008"/>
								<path fill="#FFFFFF" d="M258.074,293.043c-0.204-0.118-0.421-0.229-0.664-0.332c-0.236-0.106-0.498-0.199-0.766-0.287
									l-0.786,0.456c0.248,0.056,0.484,0.126,0.701,0.207c0.223,0.077,0.415,0.166,0.587,0.266
									c0.236,0.136,0.376,0.269,0.415,0.394c0.04,0.126-0.018,0.232-0.176,0.325c-0.177,0.103-0.369,0.14-0.585,0.11
									c-0.223-0.025-0.458-0.118-0.733-0.276l-0.454-0.262l-0.691,0.401l0.435,0.251c0.306,0.177,0.485,0.339,0.543,0.482
									c0.058,0.151-0.005,0.277-0.195,0.388c-0.184,0.106-0.406,0.147-0.655,0.114c-0.255-0.029-0.517-0.129-0.804-0.295
									c-0.191-0.11-0.364-0.239-0.51-0.383c-0.147-0.145-0.276-0.307-0.372-0.479l-0.831,0.482c0.14,0.162,0.3,0.313,0.486,0.457
									c0.179,0.147,0.384,0.28,0.595,0.402c0.612,0.354,1.18,0.563,1.708,0.619c0.535,0.059,1.012-0.033,1.424-0.273
									c0.272-0.158,0.431-0.331,0.462-0.52c0.03-0.195-0.054-0.391-0.265-0.593c0.312,0.106,0.612,0.154,0.898,0.136
									c0.287-0.011,0.553-0.092,0.794-0.231c0.355-0.207,0.481-0.442,0.391-0.701
									C258.936,293.644,258.617,293.355,258.074,293.043"/>
								<path fill="#FFFFFF" d="M307.755,222.496l-0.83-0.479c-0.737,0.096-1.386,0.229-1.938,0.395
									c-0.559,0.162-1.041,0.361-1.447,0.598c-0.406,0.235-0.748,0.516-1.026,0.833c-0.271,0.32-0.499,0.696-0.669,1.128
									l0.83,0.479c0.202-0.398,0.455-0.752,0.758-1.062c0.304-0.316,0.659-0.59,1.071-0.829s0.882-0.446,1.429-0.623
									C306.471,222.762,307.081,222.614,307.755,222.496"/>
								<path fill="#FFFFFF" d="M306.017,225.57l2.543-1.479l0.39,0.226c0.44,0.254,0.671,0.513,0.686,0.771
									c0.021,0.262-0.183,0.512-0.595,0.752c-0.412,0.239-0.844,0.357-1.296,0.346c-0.445-0.007-0.897-0.136-1.339-0.391
									L306.017,225.57 M309.43,223.653l-1.137-0.656l-4.161,2.419l1.137,0.656c0.632,0.364,1.148,0.611,1.55,0.74
									c0.402,0.129,0.822,0.195,1.262,0.199c0.388,0.004,0.75-0.037,1.094-0.125c0.343-0.089,0.667-0.225,0.978-0.405
									c0.311-0.182,0.545-0.369,0.696-0.568c0.146-0.195,0.221-0.409,0.207-0.63c-0.002-0.251-0.117-0.494-0.341-0.727
									C310.496,224.32,310.067,224.022,309.43,223.653"/>
								<polyline fill="#FFFFFF" points="314.895,226.81 313.866,226.216 312.692,225.773 311.964,226.197 313.143,226.644 
									310.447,228.21 309.496,227.66 308.761,228.088 311.691,229.78 312.427,229.353 311.469,228.8 314.895,226.81 								"/>
								<polyline fill="#FFFFFF" points="314.474,230.138 313.459,229.552 312.381,230.179 313.396,230.765 314.474,230.138 
																	"/>
								<polyline fill="#FFFFFF" points="320.5,230.046 319.479,229.456 318.299,229.01 317.569,229.434 318.749,229.88 
									316.054,231.446 315.103,230.897 314.366,231.325 317.297,233.017 318.032,232.59 317.074,232.036 320.5,230.046 								
									"/>
								<polyline fill="#FFFFFF" points="324.216,232.191 323.188,231.598 322.008,231.151 321.278,231.575 322.465,232.025 
									319.77,233.592 318.812,233.039 318.075,233.467 321.006,235.158 321.742,234.731 320.791,234.182 324.216,232.191 								
									"/>
								<path fill="#FFFFFF" d="M326.736,233.456l-0.836-0.483c-0.195,0.395-0.447,0.748-0.751,1.059
									c-0.304,0.316-0.652,0.593-1.064,0.832c-0.413,0.24-0.889,0.443-1.436,0.62c-0.533,0.177-1.144,0.324-1.83,0.442
									l0.837,0.482c0.736-0.104,1.385-0.236,1.938-0.395c0.546-0.162,1.028-0.361,1.435-0.597
									c0.406-0.236,0.748-0.517,1.032-0.837C326.34,234.256,326.567,233.879,326.736,233.456"/>
								<path fill="#FFFFFF" d="M299.166,229.552l2.543-1.479l0.39,0.226c0.44,0.254,0.671,0.512,0.685,0.77
									c0.021,0.262-0.182,0.513-0.594,0.752c-0.412,0.24-0.844,0.358-1.296,0.347c-0.445-0.007-0.898-0.136-1.339-0.391
									L299.166,229.552 M302.578,227.635l-1.137-0.656l-4.161,2.418l1.137,0.656c0.632,0.365,1.149,0.612,1.55,0.741
									s0.822,0.195,1.261,0.199c0.389,0.004,0.751-0.037,1.095-0.125c0.343-0.089,0.667-0.226,0.978-0.406
									s0.545-0.368,0.697-0.567c0.145-0.195,0.214-0.405,0.206-0.631c-0.001-0.25-0.117-0.493-0.342-0.726
									C303.646,228.302,303.217,228.004,302.578,227.635"/>
								<polyline fill="#FFFFFF" points="308.044,230.791 307.016,230.197 305.842,229.754 305.112,230.179 306.293,230.624 
									303.597,232.191 302.646,231.642 301.91,232.069 304.84,233.762 305.576,233.334 304.618,232.781 308.044,230.791 								
									"/>
								<polyline fill="#FFFFFF" points="307.623,234.119 306.608,233.533 305.53,234.16 306.545,234.746 307.623,234.119 								
									"/>
								<path fill="#FFFFFF" d="M309.49,235.697c-0.236-0.137-0.288-0.292-0.174-0.476c0.12-0.181,0.437-0.424,0.963-0.73
									c0.52-0.302,0.939-0.486,1.251-0.557c0.311-0.062,0.579-0.033,0.815,0.104c0.229,0.133,0.287,0.291,0.174,0.468
									c-0.113,0.185-0.438,0.424-0.957,0.727c-0.526,0.306-0.939,0.494-1.257,0.561C309.994,235.863,309.72,235.83,309.49,235.697
									 M313.081,233.61c-0.556-0.32-1.167-0.453-1.843-0.409c-0.674,0.044-1.354,0.27-2.045,0.671
									c-0.691,0.402-1.077,0.796-1.151,1.187c-0.073,0.392,0.164,0.741,0.72,1.062c0.549,0.316,1.153,0.453,1.828,0.409
									c0.674-0.044,1.36-0.266,2.052-0.667c0.691-0.402,1.071-0.801,1.146-1.191C313.86,234.281,313.63,233.928,313.081,233.61"/>
								<path fill="#FFFFFF" d="M318.01,236.545l-2.688-1.552l-2.341,1.36c0.287,0.069,0.529,0.144,0.752,0.221
									c0.211,0.077,0.396,0.162,0.556,0.254c0.262,0.151,0.402,0.307,0.429,0.469c0.021,0.158-0.074,0.303-0.29,0.428
									c-0.223,0.129-0.47,0.185-0.744,0.173c-0.279-0.015-0.548-0.096-0.81-0.247c-0.185-0.106-0.345-0.235-0.485-0.391
									c-0.135-0.158-0.257-0.339-0.359-0.546l-0.845,0.491c0.142,0.184,0.302,0.357,0.493,0.52c0.18,0.162,0.397,0.31,0.634,0.446
									c0.555,0.32,1.109,0.494,1.669,0.523c0.567,0.033,1.075-0.085,1.526-0.347c0.45-0.262,0.664-0.55,0.632-0.862
									c-0.028-0.311-0.303-0.616-0.808-0.907c-0.09-0.052-0.186-0.1-0.28-0.14c-0.096-0.041-0.198-0.078-0.301-0.115l0.641-0.372
									l1.826,1.055L318.01,236.545"/>
								<path fill="#FFFFFF" d="M305.837,184.659l0.388-0.225c0.443-0.258,0.882-0.387,1.334-0.398
									c0.445-0.007,0.872,0.107,1.287,0.347s0.62,0.49,0.615,0.752c-0.018,0.262-0.245,0.52-0.683,0.774l-0.388,0.225
									L305.837,184.659 M309.956,183.737c-0.313-0.181-0.645-0.313-0.982-0.398c-0.344-0.088-0.7-0.133-1.089-0.129
									c-0.439,0.004-0.859,0.07-1.259,0.199c-0.395,0.125-0.915,0.376-1.542,0.741l-1.136,0.66l4.188,2.418l1.136-0.66
									c0.621-0.361,1.046-0.66,1.267-0.892c0.216-0.236,0.335-0.483,0.34-0.737c0.012-0.221-0.072-0.431-0.22-0.627
									C310.506,184.113,310.275,183.921,309.956,183.737"/>
								<polyline fill="#FFFFFF" points="315.646,182.864 314.899,182.432 313.955,182.981 310.514,180.994 309.492,181.588 
									308.72,182.267 309.46,182.694 310.232,182.008 312.939,183.571 311.988,184.124 312.735,184.556 315.646,182.864 								
									"/>
								<polyline fill="#FFFFFF" points="317.341,181.879 316.255,181.252 315.253,181.835 316.338,182.462 317.341,181.879 
																	"/>
								<polyline fill="#FFFFFF" points="321.216,179.627 320.469,179.196 319.524,179.745 316.083,177.758 315.062,178.352 
									314.289,179.03 315.029,179.458 315.802,178.771 318.509,180.334 317.558,180.888 318.305,181.319 321.216,179.627 								
									"/>
								<path fill="#FFFFFF" d="M320.568,177.57c-0.523-0.302-0.843-0.545-0.953-0.726c-0.121-0.181-0.064-0.339,0.164-0.472
									c0.234-0.137,0.508-0.17,0.82-0.1c0.306,0.066,0.727,0.25,1.25,0.553c0.529,0.306,0.855,0.553,0.972,0.73
									c0.121,0.188,0.059,0.343-0.17,0.476s-0.495,0.169-0.813,0.096C321.525,178.064,321.098,177.876,320.568,177.57
									 M322.928,176.206c-0.689-0.398-1.379-0.627-2.053-0.671c-0.675-0.044-1.279,0.092-1.83,0.413
									c-0.546,0.317-0.786,0.671-0.707,1.062c0.085,0.387,0.475,0.789,1.165,1.187c0.695,0.402,1.384,0.623,2.053,0.671
									c0.675,0.044,1.291-0.092,1.837-0.41c0.552-0.32,0.778-0.674,0.7-1.065C324.014,177.002,323.624,176.608,322.928,176.206"/>
								<path fill="#FFFFFF" d="M232.262,227.417l0.38-0.221c0.444-0.258,0.89-0.391,1.335-0.398
									c0.445-0.007,0.872,0.107,1.287,0.347c0.415,0.239,0.62,0.49,0.615,0.752c-0.018,0.262-0.246,0.52-0.683,0.774l-0.381,0.221
									L232.262,227.417 M236.375,226.499c-0.313-0.181-0.645-0.312-0.982-0.397c-0.344-0.089-0.701-0.133-1.089-0.129
									c-0.438,0.003-0.858,0.069-1.259,0.199c-0.394,0.125-0.914,0.375-1.542,0.74l-1.135,0.66l4.188,2.418l1.135-0.659
									c0.622-0.361,1.046-0.66,1.268-0.893c0.216-0.236,0.335-0.483,0.34-0.737c0.011-0.221-0.072-0.432-0.22-0.627
									C236.924,226.876,236.694,226.684,236.375,226.499"/>
								<polyline fill="#FFFFFF" points="242.065,225.626 241.318,225.194 240.374,225.744 236.932,223.757 235.911,224.351 
									235.138,225.029 235.879,225.456 236.652,224.771 239.359,226.333 238.407,226.887 239.154,227.318 242.065,225.626 
																	"/>
								<polyline fill="#FFFFFF" points="243.759,224.642 242.674,224.015 241.672,224.598 242.757,225.224 243.759,224.642 
																	"/>
								<path fill="#FFFFFF" d="M243.301,222.474c-0.523-0.302-0.842-0.546-0.952-0.726c-0.122-0.181-0.065-0.34,0.163-0.473
									c0.235-0.136,0.508-0.169,0.821-0.1c0.306,0.066,0.727,0.251,1.25,0.553c0.53,0.307,0.856,0.554,0.972,0.73
									c0.122,0.188,0.059,0.343-0.169,0.476s-0.496,0.17-0.814,0.096C244.259,222.968,243.832,222.779,243.301,222.474
									 M245.661,221.11c-0.689-0.398-1.378-0.627-2.053-0.671c-0.675-0.045-1.285,0.096-1.831,0.412
									c-0.545,0.317-0.785,0.671-0.707,1.062c0.078,0.392,0.475,0.789,1.165,1.188c0.696,0.402,1.378,0.627,2.053,0.671
									c0.675,0.044,1.291-0.092,1.837-0.409c0.545-0.317,0.779-0.675,0.7-1.065S246.357,221.512,245.661,221.11"/>
								<polyline fill="#FFFFFF" points="247.682,218.212 247.075,217.862 243.936,219.687 244.727,220.144 246.731,218.979 
									248.593,221.832 249.639,221.225 247.682,218.212 								"/>
								<polyline fill="#CFD0D2" points="179.282,272.661 157.983,260.363 158.053,272.66 179.282,272.661 								"/>
							</g>
						</g>
					</g>
				</g>
			</g>
		</g>
	</g>
	<g>
		<polygon fill="#EC7404" stroke="#FFFFFF" stroke-width="0.5" points="312.837,-23.968 316.249,-23.968 314.68,-12.192 		"/>
		<circle fill="#EC7404" cx="314.543" cy="-33" r="9.731"/>
		<polygon fill="none" stroke="#FFFFFF" stroke-width="0.5" points="318.413,-35.826 314.543,-40.501 310.674,-35.826 
			312.627,-35.826 312.627,-30.704 316.46,-30.704 316.46,-35.826 		"/>
		<text transform="matrix(1 0 0 1 312.875 -25.1201)" fill="#FFFFFF" font-family="'DejaVuSansCondensed-Bold'" font-size="5"></text>
	</g>
	<g>
		<polygon fill="#EC7404" stroke="#FFFFFF" stroke-width="0.5" points="338.409,-23.968 341.822,-23.968 340.252,-12.192 		"/>
		<circle fill="#EC7404" cx="340.116" cy="-33" r="9.731"/>
		<polygon fill="none" stroke="#FFFFFF" stroke-width="0.5" points="343.985,-35.826 340.115,-40.501 336.246,-35.826 
			338.199,-35.826 338.199,-30.704 342.032,-30.704 342.032,-35.826 		"/>
		<rect x="338.429" y="-29.443" fill="none" width="8" height="3.833"/>
		<text transform="matrix(1 0 0 1 338.4287 -25.644)" fill="#FFFFFF" font-family="'DejaVuSansCondensed-Bold'" font-size="5">P</text>
	</g>
	<g>
		<polygon fill="#EC7404" stroke="#FFFFFF" stroke-width="0.5" points="363.981,-23.968 367.394,-23.968 365.824,-12.192 		"/>
		<circle fill="#EC7404" cx="365.688" cy="-33" r="9.731"/>
		<polygon fill="none" stroke="#FFFFFF" stroke-width="0.5" points="369.558,-35.826 365.688,-40.501 361.818,-35.826 
			363.771,-35.826 363.771,-30.704 367.604,-30.704 367.604,-35.826 		"/>
		<rect x="360.819" y="-29.442" fill="none" width="8" height="3.833"/>
		<text transform="matrix(1 0 0 1 360.8193 -25.6431)" fill="#FFFFFF" font-family="'DejaVuSansCondensed-Bold'" font-size="5"> EC</text>
	</g>
	<g>
		<polygon fill="#EC7404" stroke="#FFFFFF" stroke-width="0.5" points="415.003,-23.991 418.417,-23.991 416.847,-12.215 		"/>
		<g>
			<circle fill="#EC7404" cx="416.71" cy="-33" r="9.731"/>
			<g>
				<g>
					<path fill="none" stroke="#FFFFFF" stroke-width="0.5" d="M421.197-29.081c0,0.312-0.255,0.567-0.567,0.567h-7.839
						c-0.312,0-0.567-0.255-0.567-0.567v-7.84c0-0.312,0.255-0.567,0.567-0.567h7.839c0.312,0,0.567,0.255,0.567,0.567V-29.081z"/>
				</g>
				<polygon fill="#FFFFFF" points="413.152,-32.975 415.846,-29.744 420.287,-36.475 415.608,-31.057 				"/>
			</g>
		</g>
	</g>
	<g>
		<polygon fill="#EC7404" stroke="#FFFFFF" stroke-width="0.5" points="440.863,-23.991 444.277,-23.991 442.707,-12.215 		"/>
		<circle fill="#EC7404" cx="442.571" cy="-33" r="9.731"/>
		<g>
			<g>
				<path fill="#EC7404" d="M446.946-31.146c0,0.312-0.255,0.567-0.567,0.567h-9.54c-0.312,0-0.567-0.255-0.567-0.567V-36.6
					c0-0.312,0.255-0.567,0.567-0.567h9.54c0.312,0,0.567,0.255,0.567,0.567V-31.146z"/>
				<path fill="none" stroke="#FFFFFF" stroke-width="0.5" d="M446.946-31.146c0,0.312-0.255,0.567-0.567,0.567h-9.54
					c-0.312,0-0.567-0.255-0.567-0.567V-36.6c0-0.312,0.255-0.567,0.567-0.567h9.54c0.312,0,0.567,0.255,0.567,0.567V-31.146z"/>
			</g>
			<g>
				<path fill="#EC7404" d="M448.87-29.223c0,0.312-0.255,0.567-0.567,0.567h-9.54c-0.312,0-0.567-0.255-0.567-0.567v-5.454
					c0-0.312,0.255-0.567,0.567-0.567h9.54c0.312,0,0.567,0.255,0.567,0.567V-29.223z"/>
				<path fill="none" stroke="#FFFFFF" stroke-width="0.5" d="M448.87-29.223c0,0.312-0.255,0.567-0.567,0.567h-9.54
					c-0.312,0-0.567-0.255-0.567-0.567v-5.454c0-0.312,0.255-0.567,0.567-0.567h9.54c0.312,0,0.567,0.255,0.567,0.567V-29.223z"/>
			</g>
		</g>
	</g>
	<g>
		<polygon fill="#EC7404" stroke="#FFFFFF" stroke-width="0.5" points="287.264,-23.968 290.677,-23.968 289.107,-12.192 		"/>
		<circle fill="#EC7404" cx="288.97" cy="-33" r="9.731"/>
		<g>
			<path fill="#FFFFFF" d="M285.842-31.311h6.294v-0.557h-6.294V-31.311z M285.842-29.615h6.294v-0.557h-6.294V-29.615z
				 M285.842-34.658h6.294v-0.558h-6.294V-34.658z M285.842-32.993h6.294v-0.557h-6.294V-32.993z M292.842-27.685h-7.744v-11.183
				h5.521v2.222h2.223V-27.685z M284.54-27.125 M291.178-38.797l1.594,1.592h-1.594V-38.797z M291.336-39.427h-6.796v12.301h8.86
				v-10.239L291.336-39.427z"/>
		</g>
	</g>
	<g>
		<polygon fill="#EC7404" stroke="#FFFFFF" stroke-width="0.5" points="261.69,-23.968 265.104,-23.968 263.533,-12.192 		"/>
		<circle fill="#EC7404" cx="263.397" cy="-33.001" r="9.731"/>
		<g>
			<g>
				<path fill="#FFFFFF" d="M268.454-33.723c-0.002-0.272-0.025-0.522-0.083-0.758c-0.046-0.183-0.114-0.358-0.217-0.517
					c-0.152-0.24-0.387-0.429-0.656-0.535c-0.269-0.108-0.564-0.149-0.898-0.149c-0.295,0-0.563,0.033-0.811,0.114
					c-0.185,0.062-0.357,0.153-0.505,0.277c-0.223,0.186-0.377,0.438-0.463,0.709c-0.086,0.264-0.118,0.55-0.119,0.862l-0.569,4.806
					h1.198v2.099h0.97v-2.099h0.6v2.099h0.97v-2.099h1.204L268.454-33.723z"/>
				<path fill="#FFFFFF" d="M260.08-36.128c0.872,0,1.576-0.707,1.576-1.577c0-0.871-0.704-1.577-1.576-1.577
					c-0.87,0-1.575,0.706-1.576,1.577C258.505-36.834,259.21-36.128,260.08-36.128 M260.08-35.59
					c-1.305,0.001-2.36,1.057-2.36,2.361v2.469h1.092v3.943h0.969v-3.943h0.6v3.943h0.97v-3.943h1.091v-2.469
					C262.44-34.534,261.385-35.589,260.08-35.59"/>
			</g>
			<circle fill="#FFFFFF" cx="266.494" cy="-37.707" r="1.584"/>
		</g>
	</g>
	<g>
		<polygon fill="#EC7404" stroke="#FFFFFF" stroke-width="0.5" points="389.554,-23.968 392.967,-23.968 391.397,-12.192 		"/>
		<circle fill="#EC7404" cx="391.26" cy="-33" r="9.731"/>
		<text transform="matrix(1 0 0 1 389.5 -25.1201)" fill="#FFFFFF" font-family="'DejaVuSansCondensed-Bold'" font-size="5"></text>
		<polygon fill="none" stroke="#FFFFFF" stroke-width="0.5" points="387.342,-35.379 391.212,-30.704 395.081,-35.379 
			393.128,-35.379 393.128,-40.501 389.295,-40.501 389.295,-35.379 		"/>
	</g>
	<g>
		<polygon fill="#EC7404" stroke="#FFFFFF" stroke-width="0.5" points="180.215,242.068 181.187,245.341 169.452,247.188 		"/>
		<circle fill="#EC7404" cx="189.78" cy="240.791" r="9.731"/>
		<g>
			<g>
				<path fill="#FFFFFF" d="M194.691,239.874c-0.002-0.271-0.025-0.521-0.083-0.758c-0.046-0.183-0.114-0.357-0.217-0.516
					c-0.152-0.24-0.387-0.43-0.656-0.535c-0.269-0.109-0.564-0.149-0.898-0.15c-0.295,0-0.563,0.033-0.811,0.114
					c-0.185,0.062-0.357,0.153-0.505,0.276c-0.223,0.186-0.377,0.438-0.463,0.709c-0.086,0.265-0.118,0.551-0.119,0.862
					l-0.569,4.806h1.198v2.1h0.97v-2.1h0.6v2.1h0.97v-2.1h1.204L194.691,239.874z"/>
				<path fill="#FFFFFF" d="M186.317,237.47c0.872,0,1.576-0.707,1.576-1.576c0-0.871-0.704-1.577-1.576-1.577
					c-0.87,0-1.575,0.706-1.576,1.577C184.742,236.763,185.447,237.47,186.317,237.47 M186.317,238.007
					c-1.305,0.002-2.36,1.057-2.36,2.361v2.469h1.092v3.943h0.969v-3.943h0.6v3.943h0.97v-3.943h1.091v-2.469
					C188.678,239.063,187.622,238.009,186.317,238.007"/>
			</g>
			<circle fill="#FFFFFF" cx="192.731" cy="235.891" r="1.584"/>
		</g>
	</g>
	<g>
		<g>
			<g enable-background="new    ">
				<defs>
					<polygon id="SVGID_3_" enable-background="new    " points="233.687,273.755 239.833,270.183 246.02,273.755 239.873,277.327 
											"/>
				</defs>
				<clipPath id="SVGID_4_">
					<use xlink:href="#SVGID_3_"  overflow="visible"/>
				</clipPath>
				<g clip-path="url(#SVGID_4_)">
					<g>
						<g>
							<g>
								<polyline fill="#FFFFFF" points="241.397,271.086 239.833,270.183 233.687,273.755 236.77,275.535 239.873,277.327 
									241.427,276.424 239.889,275.535 241.417,274.646 239.873,273.755 241.401,272.866 239.862,271.978 241.397,271.086 
																	"/>
							</g>
						</g>
					</g>
				</g>
			</g>
		</g>
	</g>
	<g>
		<g>
			<g enable-background="new    ">
				<defs>
					<polygon id="SVGID_5_" enable-background="new    " points="172.084,260.414 178.231,256.842 184.417,260.414 178.271,263.986 
											"/>
				</defs>
				<clipPath id="SVGID_6_">
					<use xlink:href="#SVGID_5_"  overflow="visible"/>
				</clipPath>
				<g clip-path="url(#SVGID_6_)">
					<g>
						<g>
							<g>
								<polyline fill="#FFFFFF" points="179.795,257.745 178.231,256.842 172.084,260.414 175.168,262.194 178.271,263.986 
									179.825,263.083 178.287,262.194 179.815,261.306 178.271,260.414 179.799,259.525 178.26,258.637 179.795,257.745 								
									"/>
							</g>
						</g>
					</g>
				</g>
			</g>
		</g>
	</g>
	<g>
		<g>
			<g enable-background="new    ">
				<defs>
					<polygon id="SVGID_7_" enable-background="new    " points="150.543,224.558 156.69,220.985 162.876,224.558 156.73,228.13 
											"/>
				</defs>
				<clipPath id="SVGID_8_">
					<use xlink:href="#SVGID_7_"  overflow="visible"/>
				</clipPath>
				<g clip-path="url(#SVGID_8_)">
					<g>
						<g>
							<g>
								<polyline fill="#FFFFFF" points="158.254,221.889 156.69,220.985 150.543,224.558 153.627,226.338 156.73,228.13 
									158.284,227.227 156.746,226.338 158.274,225.449 156.729,224.558 158.258,223.669 156.719,222.78 158.254,221.889 								
									"/>
							</g>
						</g>
					</g>
				</g>
			</g>
		</g>
	</g>
	<g>
		<polygon fill="#EC7404" stroke="#FFFFFF" stroke-width="0.5" points="166.04,234.903 169.452,234.903 167.881,246.679 		"/>
		<circle fill="#EC7404" cx="167.468" cy="225.87" r="9.731"/>
		<g>
			<path fill="#FFFFFF" d="M167.883,228.368c-0.174,1.439-1.402,2.558-2.887,2.558c-1.605,0-2.91-1.305-2.91-2.91
				c0-0.9,0.412-1.709,1.057-2.243v-1.217c-1.232,0.663-2.072,1.965-2.072,3.46c0,2.164,1.762,3.926,3.926,3.926
				c1.641,0,3.051-1.014,3.635-2.449L167.883,228.368z"/>
			<path fill="#FFFFFF" d="M171.557,229.092l-0.811,0.56l-2.08-3.488l-3.998,0.025v-0.829h2.115v-0.889h-2.115v-2.055
				c0.494-0.188,0.846-0.664,0.846-1.225c0-0.725-0.588-1.313-1.311-1.313c-0.725,0-1.314,0.589-1.314,1.313
				c0,0.576,0.373,1.064,0.889,1.24v4.621l4.395,0.005l2.275,3.813l1.594-1.033L171.557,229.092z"/>
			<polygon fill="#FFFFFF" points="166.641,220.448 167.426,220.448 167.973,222.754 168.518,220.448 169.305,220.448 
				169.852,222.754 170.397,220.448 171.176,220.448 170.428,223.621 169.485,223.621 168.909,221.209 168.34,223.621 
				167.395,223.621 			"/>
			<path fill="#FFFFFF" d="M173.864,223.447c-0.148,0.077-0.307,0.135-0.471,0.176c-0.162,0.04-0.332,0.06-0.51,0.06
				c-0.527,0-0.945-0.148-1.254-0.443s-0.463-0.695-0.463-1.201c0-0.507,0.154-0.909,0.463-1.204s0.727-0.442,1.254-0.442
				c0.178,0,0.348,0.02,0.51,0.059c0.164,0.039,0.322,0.1,0.471,0.178v0.655c-0.15-0.104-0.301-0.179-0.447-0.228
				c-0.148-0.048-0.303-0.072-0.465-0.072c-0.293,0-0.521,0.094-0.689,0.281s-0.252,0.444-0.252,0.773
				c0,0.327,0.084,0.585,0.252,0.771s0.396,0.279,0.689,0.279c0.162,0,0.316-0.023,0.465-0.072c0.146-0.048,0.297-0.123,0.447-0.227
				V223.447z"/>
		</g>
	</g>
</g>
</svg>
