<?xml version="1.0" encoding="utf-8"?>
<!-- Generator: Adobe Illustrator 16.0.0, SVG Export Plug-In . SVG Version: 6.00 Build 0)  -->
<!DOCTYPE svg PUBLIC "-//W3C//DTD SVG 1.1//EN" "http://www.w3.org/Graphics/SVG/1.1/DTD/svg11.dtd">
<svg version="1.1" xmlns="http://www.w3.org/2000/svg" xmlns:xlink="http://www.w3.org/1999/xlink" x="0px" y="0px"
	 width="595.275px" height="419.527px" viewBox="0 0 595.275 419.527" enable-background="new 0 0 595.275 419.527"
	 xml:space="preserve">
<g id="Ebene_2">
</g>
<g id="Ebene_1">
	<g>
		<g>
			<g enable-background="new    ">
				<defs>
					<polygon id="SVGID_1_" enable-background="new    " points="152.141,275.82 200.33,247.814 342.157,329.704 293.969,357.71 
											"/>
				</defs>
				<clipPath id="SVGID_2_">
					<use xlink:href="#SVGID_1_"  overflow="visible"/>
				</clipPath>
				<g clip-path="url(#SVGID_2_)">
					<g>
						<g>
							<g>
								<path fill="#CFD0D2" d="M196.698,269.675l-2.925,0.324l1.188,0.686L196.698,269.675 M182.856,261.595l-0.39-0.226
									l-2.544,1.479l0.39,0.225c0.44,0.255,0.887,0.38,1.339,0.391c0.445,0.008,0.884-0.106,1.296-0.346
									c0.412-0.24,0.615-0.491,0.594-0.753C183.526,262.106,183.296,261.849,182.856,261.595 M193.102,267.334
									c-0.236-0.137-0.511-0.17-0.815-0.104c-0.317,0.066-0.73,0.255-1.25,0.557c-0.527,0.307-0.85,0.546-0.963,0.73
									c-0.12,0.18-0.062,0.339,0.174,0.476c0.23,0.132,0.498,0.162,0.815,0.096c0.312-0.07,0.731-0.255,1.257-0.561
									c0.52-0.302,0.843-0.542,0.957-0.726C193.39,267.625,193.332,267.467,193.102,267.334 M186.281,267.459l1.084-0.63
									l1.009,0.582l-1.085,0.631L186.281,267.459 M178.032,262.696l4.167-2.422l1.137,0.656c0.638,0.368,1.06,0.671,1.284,0.903
									c0.218,0.229,0.334,0.472,0.341,0.727c0.008,0.225-0.061,0.435-0.207,0.63c-0.151,0.199-0.386,0.388-0.696,0.567
									c-0.311,0.181-0.641,0.321-0.978,0.406c-0.343,0.088-0.706,0.129-1.094,0.125c-0.439-0.004-0.86-0.07-1.262-0.199
									c-0.408-0.133-0.924-0.372-1.556-0.737L178.032,262.696 M192.322,270.065l0.919-0.534l4.166-0.476l1.201,0.692l-2.626,1.526
									l0.594,0.343l-0.78,0.454l-0.594-0.344l-0.761,0.442l-1.021-0.59l0.761-0.442L192.322,270.065 M185.533,263.456l0.914-0.531
									c0.318,0.097,0.624,0.199,0.905,0.31c0.274,0.115,0.529,0.24,0.753,0.369c0.504,0.291,0.786,0.579,0.852,0.866
									c0.052,0.288-0.112,0.546-0.505,0.774c-0.229,0.133-0.495,0.221-0.813,0.266c-0.312,0.048-0.821,0.055-1.528,0.029
									l-1.68-0.066l1.845,1.064l-0.793,0.461l-3.045-1.758l0.793-0.461l2.871,0.107c0.261,0.003,0.477-0.004,0.662-0.037
									c0.184-0.026,0.343-0.082,0.463-0.151c0.197-0.114,0.285-0.247,0.278-0.391c-0.02-0.144-0.129-0.28-0.353-0.409
									c-0.166-0.096-0.389-0.181-0.657-0.254C186.221,263.566,185.902,263.508,185.533,263.456 M189.518,269.417
									c-0.556-0.321-0.793-0.671-0.719-1.062c0.074-0.392,0.454-0.789,1.146-1.191c0.691-0.401,1.376-0.623,2.051-0.667
									c0.675-0.044,1.28,0.092,1.835,0.413c0.549,0.317,0.787,0.667,0.712,1.058c-0.074,0.392-0.46,0.785-1.151,1.188
									c-0.691,0.401-1.371,0.626-2.046,0.671C190.672,269.87,190.067,269.734,189.518,269.417 M204.865,268.827l-20.412-11.786
									l-11.83,6.876l20.411,11.785L204.865,268.827"/>
								<path fill="#CFD0D2" d="M164.879,272.041l-0.39-0.225l-2.538,1.475l0.39,0.226c0.44,0.254,0.88,0.383,1.332,0.395
									c0.452,0.003,0.891-0.111,1.303-0.351c0.412-0.24,0.607-0.486,0.587-0.749C165.55,272.554,165.319,272.296,164.879,272.041
									 M175.132,277.777c-0.236-0.136-0.51-0.17-0.822-0.1c-0.312,0.062-0.724,0.251-1.244,0.553
									c-0.527,0.307-0.851,0.546-0.964,0.73c-0.12,0.181-0.062,0.339,0.175,0.476c0.229,0.133,0.498,0.162,0.815,0.096
									c0.311-0.07,0.731-0.254,1.257-0.561c0.521-0.302,0.843-0.542,0.95-0.722C175.42,278.068,175.361,277.91,175.132,277.777
									 M168.311,277.902l1.078-0.626l1.009,0.583l-1.078,0.626L168.311,277.902 M160.062,273.14l4.161-2.418l1.136,0.656
									c0.639,0.369,1.067,0.667,1.291,0.899c0.218,0.229,0.334,0.472,0.341,0.727c0.008,0.225-0.061,0.435-0.213,0.634
									c-0.145,0.195-0.379,0.384-0.69,0.563c-0.317,0.185-0.642,0.321-0.984,0.41c-0.336,0.084-0.706,0.129-1.088,0.121
									c-0.438-0.004-0.859-0.07-1.261-0.199c-0.415-0.129-0.925-0.372-1.557-0.737L160.062,273.14 M167.556,273.903l0.92-0.535
									c0.319,0.097,0.625,0.199,0.899,0.313c0.28,0.111,0.536,0.236,0.759,0.365c0.504,0.291,0.786,0.579,0.845,0.87
									c0.058,0.284-0.105,0.542-0.499,0.771c-0.229,0.133-0.495,0.221-0.813,0.266c-0.312,0.048-0.821,0.055-1.528,0.029
									l-1.68-0.066l1.845,1.065l-0.793,0.46l-3.045-1.758l0.793-0.461l2.871,0.107c0.254,0.007,0.478-0.004,0.662-0.037
									c0.185-0.026,0.337-0.078,0.464-0.151c0.197-0.114,0.285-0.247,0.278-0.391c-0.02-0.144-0.129-0.28-0.353-0.409
									c-0.166-0.096-0.389-0.181-0.656-0.255C168.244,274.014,167.932,273.951,167.556,273.903 M171.548,279.86
									c-0.556-0.32-0.793-0.671-0.719-1.062s0.454-0.789,1.146-1.191c0.691-0.401,1.377-0.622,2.051-0.667
									c0.675-0.044,1.28,0.093,1.835,0.413c0.549,0.317,0.787,0.667,0.712,1.059c-0.075,0.391-0.46,0.785-1.151,1.187
									c-0.692,0.401-1.372,0.627-2.046,0.671C172.702,280.313,172.097,280.178,171.548,279.86 M176.871,279.281l0.92-0.534
									c0.325,0.1,0.625,0.199,0.899,0.313c0.287,0.114,0.536,0.235,0.766,0.368c0.498,0.288,0.78,0.575,0.839,0.866
									c0.058,0.284-0.105,0.542-0.499,0.771c-0.229,0.133-0.495,0.222-0.813,0.266c-0.312,0.048-0.821,0.056-1.527,0.03
									l-1.674-0.063l1.845,1.065l-0.793,0.461l-3.045-1.759l0.793-0.461l2.864,0.104c0.261,0.012,0.478-0.004,0.668-0.033
									c0.178-0.029,0.331-0.081,0.457-0.154c0.197-0.115,0.292-0.243,0.278-0.391c-0.02-0.145-0.129-0.28-0.346-0.405
									c-0.173-0.1-0.396-0.185-0.663-0.259C177.565,279.396,177.247,279.33,176.871,279.281 M189.755,277.608l-20.412-11.786
									l-17.202,9.998l20.412,11.785L189.755,277.608"/>
								<path fill="#CFD0D2" d="M295.388,345.36c-0.421-0.243-0.849-0.357-1.294-0.351c-0.452,0.012-0.896,0.144-1.334,0.398
									l-0.388,0.225l2.554,1.475l0.388-0.225c0.438-0.255,0.666-0.513,0.676-0.771C296.008,345.851,295.803,345.6,295.388,345.36
									 M304.706,339.945c-0.523-0.303-0.944-0.486-1.263-0.553c-0.307-0.066-0.579-0.033-0.808,0.1s-0.285,0.29-0.176,0.472
									c0.122,0.181,0.44,0.424,0.965,0.726c0.523,0.303,0.951,0.49,1.263,0.561c0.319,0.066,0.593,0.033,0.821-0.1
									s0.284-0.291,0.163-0.472C305.556,340.494,305.229,340.247,304.706,339.945 M290.483,345.784l1.136-0.66
									c0.628-0.364,1.143-0.611,1.543-0.741c0.406-0.125,0.825-0.191,1.259-0.191c0.381-0.007,0.744,0.033,1.088,0.122
									c0.344,0.088,0.676,0.222,0.988,0.401c0.313,0.182,0.543,0.372,0.697,0.572c0.154,0.198,0.225,0.408,0.22,0.634
									c-0.005,0.254-0.119,0.497-0.34,0.729c-0.221,0.232-0.646,0.531-1.267,0.893l-1.136,0.659L290.483,345.784 M299.456,344.505
									l1.827-1.062l0.791,0.457l-3.02,1.755l-0.792-0.457l0.163-1.663c0.019-0.151-0.008-0.276-0.053-0.383
									c-0.058-0.107-0.147-0.195-0.275-0.27c-0.198-0.114-0.415-0.166-0.668-0.158c-0.255,0.008-0.484,0.074-0.699,0.199
									c-0.171,0.1-0.323,0.225-0.444,0.383c-0.125,0.155-0.233,0.343-0.321,0.557l-0.919-0.53
									c0.158-0.188,0.342-0.361,0.532-0.523c0.203-0.162,0.406-0.31,0.634-0.442c0.494-0.287,0.997-0.446,1.492-0.483
									c0.496-0.029,0.942,0.066,1.338,0.295c0.224,0.13,0.384,0.288,0.461,0.472c0.084,0.182,0.098,0.476,0.056,0.886
									L299.456,344.505 M301.788,342.81l1.002-0.583l1.086,0.627l-1.002,0.583L301.788,342.81 M302.359,341.316
									c-0.695-0.402-1.086-0.796-1.165-1.188c-0.079-0.391,0.155-0.748,0.7-1.064c0.546-0.317,1.162-0.454,1.831-0.406
									c0.675,0.045,1.363,0.266,2.059,0.668c0.689,0.398,1.074,0.796,1.152,1.187c0.085,0.387-0.148,0.744-0.694,1.062
									c-0.545,0.317-1.162,0.453-1.836,0.409C303.731,341.939,303.049,341.715,302.359,341.316 M308.257,337.689
									c0.356-0.118,0.699-0.17,1.024-0.151c0.324,0.019,0.624,0.11,0.905,0.272c0.415,0.239,0.574,0.509,0.476,0.818
									c-0.101,0.31-0.455,0.642-1.058,0.991c-0.216,0.126-0.45,0.24-0.698,0.347c-0.248,0.1-0.515,0.195-0.794,0.277l-0.829-0.479
									c0.305-0.06,0.578-0.13,0.825-0.214c0.254-0.089,0.471-0.185,0.66-0.295c0.286-0.166,0.456-0.324,0.514-0.469
									c0.044-0.144-0.021-0.269-0.206-0.375c-0.192-0.111-0.414-0.152-0.663-0.118c-0.254,0.036-0.533,0.14-0.838,0.316
									l-0.425,0.247l-0.696-0.401l0.45-0.263c0.267-0.154,0.426-0.298,0.475-0.423c0.038-0.126-0.02-0.24-0.192-0.34
									c-0.159-0.092-0.351-0.129-0.561-0.103c-0.223,0.025-0.444,0.103-0.68,0.239c-0.171,0.1-0.33,0.214-0.469,0.339
									c-0.14,0.125-0.253,0.258-0.354,0.406l-0.792-0.458c0.158-0.158,0.322-0.306,0.5-0.446c0.178-0.133,0.368-0.265,0.564-0.379
									c0.539-0.313,1.035-0.498,1.486-0.553c0.444-0.052,0.846,0.025,1.209,0.235c0.243,0.14,0.378,0.291,0.411,0.457
									C308.529,337.331,308.454,337.509,308.257,337.689 M326.281,338.932l-19.895-11.487l-15.11,8.781l-17.202,9.997
									l19.895,11.487L326.281,338.932"/>
								<polyline fill="#CFD0D2" points="282.353,295.174 260.396,282.496 244.52,291.723 208.172,270.736 196.342,277.611 
									232.689,298.599 212.207,310.502 234.164,323.179 254.646,311.275 291.255,332.406 303.079,325.535 266.476,304.4 
									282.353,295.174 								"/>
								<path fill="#CFD0D2" d="M256.601,325l-0.39-0.225l-2.538,1.475l0.39,0.225c0.44,0.255,0.887,0.388,1.332,0.395
									c0.458,0.008,0.891-0.11,1.303-0.35c0.412-0.24,0.607-0.486,0.594-0.745C257.271,325.513,257.047,325.258,256.601,325
									 M266.853,330.736c-0.23-0.133-0.503-0.166-0.822-0.1c-0.305,0.066-0.724,0.251-1.244,0.553
									c-0.526,0.307-0.843,0.55-0.963,0.73c-0.113,0.184-0.055,0.343,0.175,0.476c0.229,0.133,0.503,0.165,0.815,0.096
									c0.318-0.066,0.737-0.251,1.263-0.557c0.521-0.303,0.837-0.546,0.951-0.723
									C267.141,331.027,267.083,330.869,266.853,330.736 M260.038,330.865l1.078-0.626l1.009,0.582l-1.078,0.626L260.038,330.865
									 M251.783,326.099l4.161-2.418l1.143,0.66c0.632,0.364,1.06,0.663,1.285,0.896c0.224,0.232,0.34,0.476,0.347,0.73
									c0.001,0.221-0.067,0.431-0.219,0.63c-0.145,0.195-0.374,0.387-0.684,0.567c-0.317,0.185-0.648,0.317-0.991,0.405
									c-0.336,0.085-0.706,0.13-1.081,0.126c-0.439-0.004-0.866-0.074-1.268-0.203c-0.408-0.125-0.925-0.372-1.55-0.733
									L251.783,326.099 M268.942,332.259l0.73-0.424l1.167,0.446l1.027,0.593l-3.418,1.987l0.952,0.55l-0.742,0.431l-2.931-1.691
									l0.742-0.432l0.958,0.553l2.689-1.562L268.942,332.259 M259.283,326.866l0.92-0.535c0.318,0.096,0.618,0.195,0.899,0.313
									c0.28,0.11,0.529,0.232,0.759,0.365c0.504,0.291,0.786,0.578,0.839,0.866c0.064,0.287-0.105,0.542-0.499,0.771
									c-0.229,0.133-0.495,0.221-0.807,0.269c-0.318,0.045-0.827,0.052-1.534,0.026l-1.674-0.063l1.845,1.065l-0.792,0.461
									l-3.046-1.758l0.793-0.461l2.864,0.104c0.261,0.011,0.484-0.001,0.668-0.034c0.178-0.029,0.33-0.081,0.457-0.154
									c0.197-0.114,0.291-0.243,0.278-0.391c-0.014-0.141-0.129-0.28-0.346-0.405c-0.172-0.1-0.389-0.181-0.663-0.259
									C259.971,326.977,259.653,326.91,259.283,326.866 M263.269,332.819c-0.549-0.317-0.793-0.671-0.719-1.062
									c0.075-0.391,0.46-0.785,1.152-1.188c0.691-0.401,1.371-0.626,2.045-0.671c0.675-0.044,1.286,0.096,1.835,0.413
									c0.549,0.317,0.793,0.671,0.718,1.062c-0.074,0.391-0.46,0.785-1.151,1.187c-0.691,0.402-1.371,0.627-2.045,0.672
									C264.43,333.276,263.818,333.137,263.269,332.819 M287.969,334.316l-33.302-19.229l-17.202,9.997l33.302,19.229
									L287.969,334.316"/>
								<polyline fill="#EC7405" points="226.102,298.595 193.062,279.518 175.86,289.515 208.9,308.592 226.102,298.595 								
									"/>
								<path fill="#FFFFFF" d="M179.922,262.848l2.544-1.479l0.39,0.226c0.44,0.254,0.67,0.512,0.685,0.77
									c0.021,0.262-0.182,0.513-0.594,0.753c-0.412,0.239-0.851,0.354-1.296,0.346c-0.452-0.011-0.898-0.136-1.339-0.391
									L179.922,262.848 M183.336,260.931l-1.137-0.656l-4.167,2.422l1.137,0.656c0.632,0.365,1.148,0.604,1.556,0.737
									c0.402,0.129,0.823,0.195,1.262,0.199c0.388,0.004,0.751-0.037,1.094-0.125c0.337-0.085,0.667-0.226,0.978-0.406
									c0.311-0.18,0.545-0.368,0.696-0.567c0.146-0.195,0.215-0.405,0.207-0.63c-0.007-0.255-0.124-0.498-0.341-0.727
									C184.396,261.602,183.974,261.299,183.336,260.931"/>
								<path fill="#FFFFFF" d="M188.104,263.604c-0.224-0.129-0.479-0.254-0.753-0.369c-0.281-0.11-0.587-0.213-0.905-0.31
									l-0.914,0.531c0.369,0.052,0.688,0.11,0.961,0.188c0.268,0.073,0.491,0.158,0.657,0.254
									c0.224,0.129,0.333,0.266,0.353,0.409c0.007,0.144-0.081,0.276-0.278,0.391c-0.121,0.069-0.28,0.125-0.463,0.151
									c-0.185,0.033-0.401,0.04-0.662,0.037l-2.871-0.107l-0.793,0.461l3.045,1.758l0.793-0.461l-1.845-1.064l1.68,0.066
									c0.707,0.025,1.216,0.019,1.528-0.029c0.318-0.045,0.584-0.133,0.813-0.266c0.393-0.229,0.557-0.486,0.505-0.774
									C188.891,264.183,188.609,263.895,188.104,263.604"/>
								<polyline fill="#FFFFFF" points="188.375,267.411 187.365,266.829 186.281,267.459 187.29,268.042 188.375,267.411 								
									"/>
								<path fill="#FFFFFF" d="M190.248,268.993c-0.236-0.137-0.294-0.296-0.174-0.476c0.113-0.185,0.437-0.424,0.963-0.73
									c0.52-0.302,0.933-0.49,1.25-0.557c0.305-0.066,0.579-0.033,0.815,0.104c0.229,0.133,0.288,0.291,0.174,0.469
									c-0.113,0.184-0.437,0.424-0.957,0.726c-0.526,0.306-0.946,0.49-1.257,0.561
									C190.745,269.155,190.478,269.125,190.248,268.993 M193.832,266.91c-0.556-0.321-1.161-0.457-1.835-0.413
									c-0.674,0.044-1.36,0.266-2.051,0.667c-0.692,0.402-1.072,0.8-1.146,1.191c-0.074,0.391,0.163,0.74,0.719,1.062
									c0.549,0.317,1.154,0.453,1.829,0.409c0.675-0.045,1.354-0.27,2.046-0.671c0.691-0.402,1.077-0.796,1.151-1.188
									C194.618,267.577,194.381,267.228,193.832,266.91"/>
								<path fill="#FFFFFF" d="M193.772,269.999l2.925-0.324l-1.738,1.01L193.772,269.999 M198.608,269.748l-1.201-0.692
									l-4.166,0.476l-0.919,0.534l1.857,1.072l-0.761,0.442l1.021,0.59l0.761-0.442l0.594,0.344l0.78-0.454l-0.594-0.343
									L198.608,269.748"/>
								<path fill="#FFFFFF" d="M253.673,326.25l2.538-1.475l0.39,0.225c0.447,0.258,0.67,0.513,0.691,0.774
									c0.014,0.259-0.182,0.505-0.594,0.745c-0.413,0.239-0.845,0.357-1.303,0.35c-0.445-0.007-0.892-0.14-1.332-0.395
									L253.673,326.25 M257.086,324.341l-1.143-0.66l-4.161,2.418l1.143,0.66c0.625,0.361,1.142,0.608,1.55,0.733
									c0.402,0.129,0.829,0.199,1.268,0.203c0.375,0.004,0.744-0.041,1.081-0.126c0.343-0.088,0.674-0.221,0.991-0.405
									c0.31-0.181,0.539-0.372,0.684-0.567c0.152-0.199,0.221-0.409,0.219-0.63c-0.007-0.255-0.124-0.498-0.347-0.73
									C258.146,325.004,257.718,324.705,257.086,324.341"/>
								<path fill="#FFFFFF" d="M261.862,327.01c-0.23-0.133-0.479-0.255-0.759-0.365c-0.281-0.118-0.581-0.218-0.899-0.313
									l-0.92,0.535c0.37,0.044,0.688,0.11,0.963,0.18c0.273,0.078,0.49,0.159,0.663,0.259c0.217,0.125,0.333,0.265,0.346,0.405
									c0.013,0.147-0.081,0.276-0.278,0.391c-0.127,0.073-0.279,0.125-0.457,0.154c-0.184,0.033-0.408,0.045-0.668,0.034
									l-2.864-0.104l-0.793,0.461l3.046,1.758l0.792-0.461l-1.845-1.065l1.674,0.063c0.707,0.025,1.216,0.019,1.534-0.026
									c0.312-0.048,0.579-0.136,0.807-0.269c0.393-0.229,0.563-0.483,0.499-0.771C262.647,327.588,262.366,327.301,261.862,327.01
									"/>
								<polyline fill="#FFFFFF" points="262.125,330.821 261.116,330.239 260.038,330.865 261.047,331.447 262.125,330.821 
																	"/>
								<path fill="#FFFFFF" d="M263.999,332.396c-0.23-0.133-0.288-0.292-0.175-0.476c0.12-0.181,0.437-0.424,0.963-0.73
									c0.521-0.302,0.939-0.486,1.244-0.553c0.318-0.066,0.592-0.033,0.822,0.1c0.229,0.133,0.288,0.291,0.174,0.476
									c-0.113,0.177-0.43,0.42-0.951,0.723c-0.526,0.306-0.945,0.49-1.263,0.557C264.502,332.561,264.228,332.528,263.999,332.396
									 M267.583,330.312c-0.549-0.317-1.161-0.457-1.835-0.413c-0.674,0.045-1.354,0.27-2.045,0.671
									c-0.692,0.402-1.078,0.797-1.152,1.188c-0.074,0.391,0.17,0.744,0.719,1.062c0.549,0.317,1.161,0.457,1.835,0.413
									c0.674-0.045,1.354-0.27,2.045-0.672c0.691-0.401,1.077-0.796,1.151-1.187C268.375,330.983,268.131,330.63,267.583,330.312"
									/>
								<polyline fill="#FFFFFF" points="271.866,332.874 270.839,332.281 269.672,331.835 268.942,332.259 270.116,332.709 
									267.427,334.271 266.469,333.719 265.727,334.15 268.658,335.842 269.399,335.411 268.448,334.861 271.866,332.874 								
									"/>
								<path fill="#FFFFFF" d="M161.952,273.291l2.538-1.475l0.39,0.225c0.44,0.255,0.67,0.513,0.685,0.771
									c0.02,0.263-0.175,0.509-0.587,0.749c-0.413,0.239-0.851,0.354-1.303,0.351c-0.452-0.012-0.892-0.141-1.332-0.395
									L161.952,273.291 M165.358,271.378l-1.136-0.656l-4.161,2.418l1.137,0.656c0.632,0.365,1.142,0.608,1.557,0.737
									c0.402,0.129,0.822,0.195,1.261,0.199c0.382,0.008,0.751-0.037,1.088-0.121c0.343-0.089,0.667-0.226,0.984-0.41
									c0.311-0.18,0.545-0.368,0.69-0.563c0.152-0.199,0.221-0.409,0.213-0.634c-0.007-0.255-0.124-0.498-0.341-0.727
									C166.425,272.045,165.997,271.747,165.358,271.378"/>
								<path fill="#FFFFFF" d="M170.134,274.047c-0.224-0.129-0.479-0.254-0.759-0.365c-0.274-0.114-0.581-0.217-0.899-0.313
									l-0.92,0.535c0.376,0.048,0.688,0.11,0.969,0.184c0.267,0.074,0.49,0.159,0.656,0.255c0.223,0.129,0.333,0.266,0.353,0.409
									c0.007,0.144-0.081,0.276-0.278,0.391c-0.127,0.073-0.279,0.125-0.464,0.151c-0.184,0.033-0.407,0.044-0.662,0.037
									l-2.871-0.107l-0.793,0.461l3.045,1.758l0.793-0.46l-1.845-1.065l1.68,0.066c0.707,0.025,1.216,0.019,1.528-0.029
									c0.318-0.045,0.584-0.133,0.813-0.266c0.393-0.229,0.557-0.486,0.499-0.771C170.92,274.626,170.639,274.338,170.134,274.047
									"/>
								<polyline fill="#FFFFFF" points="170.397,277.859 169.388,277.276 168.311,277.902 169.319,278.485 170.397,277.859 
																	"/>
								<path fill="#FFFFFF" d="M172.277,279.437c-0.236-0.137-0.294-0.295-0.175-0.476c0.113-0.185,0.437-0.424,0.964-0.73
									c0.52-0.302,0.932-0.49,1.244-0.553c0.312-0.07,0.585-0.036,0.822,0.1c0.229,0.133,0.288,0.291,0.168,0.473
									c-0.107,0.18-0.43,0.42-0.95,0.722c-0.526,0.307-0.946,0.49-1.257,0.561C172.775,279.599,172.507,279.569,172.277,279.437
									 M175.861,277.354c-0.556-0.32-1.161-0.457-1.835-0.413c-0.674,0.045-1.36,0.266-2.051,0.667
									c-0.691,0.402-1.071,0.801-1.146,1.191s0.163,0.741,0.719,1.062c0.549,0.317,1.154,0.453,1.829,0.409
									c0.674-0.044,1.354-0.27,2.046-0.671c0.691-0.401,1.077-0.796,1.151-1.187C176.648,278.021,176.41,277.671,175.861,277.354"
									/>
								<path fill="#FFFFFF" d="M179.456,279.429c-0.23-0.133-0.479-0.254-0.766-0.368c-0.274-0.114-0.574-0.214-0.899-0.313
									l-0.92,0.534c0.376,0.049,0.695,0.114,0.969,0.185c0.268,0.074,0.49,0.159,0.663,0.259c0.217,0.125,0.326,0.261,0.346,0.405
									c0.014,0.147-0.081,0.275-0.278,0.391c-0.126,0.073-0.279,0.125-0.457,0.154c-0.191,0.029-0.408,0.045-0.668,0.033
									l-2.864-0.104l-0.793,0.461l3.045,1.759l0.793-0.461l-1.845-1.065l1.674,0.063c0.707,0.025,1.215,0.018,1.527-0.03
									c0.318-0.044,0.584-0.133,0.813-0.266c0.393-0.229,0.557-0.486,0.499-0.771
									C180.235,280.004,179.954,279.717,179.456,279.429"/>
								<path fill="#FFFFFF" d="M292.373,345.633l0.388-0.225c0.438-0.255,0.882-0.387,1.334-0.398
									c0.445-0.007,0.873,0.107,1.294,0.351c0.415,0.239,0.62,0.49,0.602,0.752c-0.011,0.258-0.239,0.516-0.676,0.771
									l-0.388,0.225L292.373,345.633 M296.498,344.715c-0.312-0.18-0.644-0.313-0.988-0.401c-0.344-0.089-0.707-0.129-1.088-0.122
									c-0.434,0-0.853,0.066-1.259,0.191c-0.4,0.13-0.915,0.377-1.543,0.741l-1.136,0.66l4.188,2.418l1.136-0.659
									c0.622-0.361,1.046-0.66,1.267-0.893c0.222-0.232,0.335-0.476,0.34-0.729c0.004-0.226-0.066-0.436-0.22-0.634
									C297.041,345.087,296.811,344.896,296.498,344.715"/>
								<path fill="#FFFFFF" d="M302.074,343.9l-0.791-0.457l-1.827,1.062l0.103-0.969c0.042-0.41,0.028-0.704-0.056-0.886
									c-0.077-0.184-0.237-0.342-0.461-0.472c-0.396-0.229-0.842-0.324-1.338-0.295c-0.496,0.037-0.998,0.196-1.492,0.483
									c-0.229,0.133-0.432,0.28-0.634,0.442c-0.19,0.162-0.374,0.335-0.532,0.523l0.919,0.53c0.088-0.214,0.196-0.401,0.321-0.557
									c0.121-0.158,0.272-0.283,0.444-0.383c0.215-0.125,0.444-0.191,0.699-0.199c0.254-0.008,0.47,0.044,0.668,0.158
									c0.127,0.074,0.217,0.162,0.275,0.27c0.045,0.106,0.072,0.231,0.053,0.383l-0.163,1.663l0.792,0.457L302.074,343.9"/>
								<polyline fill="#FFFFFF" points="303.876,342.854 302.79,342.227 301.788,342.81 302.874,343.437 303.876,342.854 								
									"/>
								<path fill="#FFFFFF" d="M303.425,340.689c-0.524-0.302-0.843-0.545-0.965-0.726c-0.109-0.182-0.053-0.339,0.176-0.472
									s0.501-0.166,0.808-0.1c0.318,0.066,0.739,0.25,1.263,0.553c0.523,0.302,0.85,0.549,0.966,0.733
									c0.121,0.181,0.065,0.339-0.163,0.472s-0.502,0.166-0.821,0.1C304.376,341.18,303.948,340.992,303.425,340.689
									 M305.784,339.326c-0.695-0.402-1.384-0.623-2.059-0.668c-0.669-0.048-1.285,0.089-1.831,0.406
									c-0.545,0.316-0.779,0.674-0.7,1.064c0.079,0.392,0.47,0.785,1.165,1.188c0.689,0.398,1.372,0.623,2.047,0.667
									c0.674,0.044,1.291-0.092,1.836-0.409c0.546-0.317,0.779-0.675,0.694-1.062
									C306.858,340.122,306.474,339.725,305.784,339.326"/>
								<path fill="#FFFFFF" d="M310.187,337.811c-0.281-0.162-0.581-0.254-0.905-0.272c-0.325-0.019-0.668,0.033-1.024,0.151
									c0.197-0.181,0.272-0.358,0.246-0.521c-0.033-0.166-0.168-0.317-0.411-0.457c-0.363-0.21-0.765-0.287-1.209-0.235
									c-0.451,0.055-0.947,0.239-1.486,0.553c-0.196,0.114-0.387,0.246-0.564,0.379c-0.178,0.141-0.342,0.288-0.5,0.446
									l0.792,0.458c0.101-0.148,0.214-0.281,0.354-0.406c0.139-0.125,0.298-0.239,0.469-0.339c0.235-0.137,0.457-0.214,0.68-0.239
									c0.21-0.026,0.401,0.011,0.561,0.103c0.173,0.1,0.23,0.214,0.192,0.34c-0.049,0.125-0.208,0.269-0.475,0.423l-0.45,0.263
									l0.696,0.401l0.425-0.247c0.305-0.177,0.584-0.28,0.838-0.316c0.249-0.034,0.471,0.007,0.663,0.118
									c0.185,0.106,0.25,0.231,0.206,0.375c-0.058,0.145-0.228,0.303-0.514,0.469c-0.189,0.11-0.406,0.206-0.66,0.295
									c-0.247,0.084-0.521,0.154-0.825,0.214l0.829,0.479c0.279-0.082,0.546-0.178,0.794-0.277
									c0.248-0.106,0.482-0.221,0.698-0.347c0.603-0.35,0.957-0.682,1.058-0.991C310.761,338.319,310.602,338.05,310.187,337.811"
									/>
							</g>
						</g>
					</g>
				</g>
			</g>
		</g>
	</g>
	<g>
		<polygon fill="#EC7404" stroke="#FFFFFF" stroke-width="0.5" points="312.837,-23.968 316.249,-23.968 314.68,-12.192 		"/>
		<circle fill="#EC7404" cx="314.543" cy="-33" r="9.731"/>
		<polygon fill="none" stroke="#FFFFFF" stroke-width="0.5" points="318.413,-35.826 314.543,-40.501 310.674,-35.826 
			312.627,-35.826 312.627,-30.704 316.46,-30.704 316.46,-35.826 		"/>
		<text transform="matrix(1 0 0 1 312.875 -25.1201)" fill="#FFFFFF" font-family="'DejaVuSansCondensed-Bold'" font-size="5">€</text>
	</g>
	<g>
		<polygon fill="#EC7404" stroke="#FFFFFF" stroke-width="0.5" points="338.409,-23.968 341.822,-23.968 340.252,-12.192 		"/>
		<circle fill="#EC7404" cx="340.116" cy="-33" r="9.731"/>
		<polygon fill="none" stroke="#FFFFFF" stroke-width="0.5" points="343.985,-35.826 340.115,-40.501 336.246,-35.826 
			338.199,-35.826 338.199,-30.704 342.032,-30.704 342.032,-35.826 		"/>
		<rect x="338.429" y="-29.443" fill="none" width="8" height="3.833"/>
		<text transform="matrix(1 0 0 1 338.4287 -25.644)" fill="#FFFFFF" font-family="'DejaVuSansCondensed-Bold'" font-size="5">P</text>
	</g>
	<g>
		<polygon fill="#EC7404" stroke="#FFFFFF" stroke-width="0.5" points="363.981,-23.968 367.394,-23.968 365.824,-12.192 		"/>
		<circle fill="#EC7404" cx="365.688" cy="-33" r="9.731"/>
		<polygon fill="none" stroke="#FFFFFF" stroke-width="0.5" points="369.558,-35.826 365.688,-40.501 361.818,-35.826 
			363.771,-35.826 363.771,-30.704 367.604,-30.704 367.604,-35.826 		"/>
		<rect x="360.819" y="-29.442" fill="none" width="8" height="3.833"/>
		<text transform="matrix(1 0 0 1 360.8193 -25.6431)" fill="#FFFFFF" font-family="'DejaVuSansCondensed-Bold'" font-size="5"> EC</text>
	</g>
	<g>
		<polygon fill="#EC7404" stroke="#FFFFFF" stroke-width="0.5" points="415.003,-23.991 418.417,-23.991 416.847,-12.215 		"/>
		<g>
			<circle fill="#EC7404" cx="416.71" cy="-33" r="9.731"/>
			<g>
				<g>
					<path fill="none" stroke="#FFFFFF" stroke-width="0.5" d="M421.197-29.081c0,0.312-0.255,0.567-0.567,0.567h-7.839
						c-0.312,0-0.567-0.255-0.567-0.567v-7.84c0-0.312,0.255-0.567,0.567-0.567h7.839c0.312,0,0.567,0.255,0.567,0.567V-29.081z"/>
				</g>
				<polygon fill="#FFFFFF" points="413.152,-32.975 415.846,-29.744 420.287,-36.475 415.608,-31.057 				"/>
			</g>
		</g>
	</g>
	<g>
		<polygon fill="#EC7404" stroke="#FFFFFF" stroke-width="0.5" points="440.863,-23.991 444.277,-23.991 442.707,-12.215 		"/>
		<circle fill="#EC7404" cx="442.571" cy="-33" r="9.731"/>
		<g>
			<g>
				<path fill="#EC7404" d="M446.946-31.146c0,0.312-0.255,0.567-0.567,0.567h-9.54c-0.312,0-0.567-0.255-0.567-0.567V-36.6
					c0-0.312,0.255-0.567,0.567-0.567h9.54c0.312,0,0.567,0.255,0.567,0.567V-31.146z"/>
				<path fill="none" stroke="#FFFFFF" stroke-width="0.5" d="M446.946-31.146c0,0.312-0.255,0.567-0.567,0.567h-9.54
					c-0.312,0-0.567-0.255-0.567-0.567V-36.6c0-0.312,0.255-0.567,0.567-0.567h9.54c0.312,0,0.567,0.255,0.567,0.567V-31.146z"/>
			</g>
			<g>
				<path fill="#EC7404" d="M448.87-29.223c0,0.312-0.255,0.567-0.567,0.567h-9.54c-0.312,0-0.567-0.255-0.567-0.567v-5.454
					c0-0.312,0.255-0.567,0.567-0.567h9.54c0.312,0,0.567,0.255,0.567,0.567V-29.223z"/>
				<path fill="none" stroke="#FFFFFF" stroke-width="0.5" d="M448.87-29.223c0,0.312-0.255,0.567-0.567,0.567h-9.54
					c-0.312,0-0.567-0.255-0.567-0.567v-5.454c0-0.312,0.255-0.567,0.567-0.567h9.54c0.312,0,0.567,0.255,0.567,0.567V-29.223z"/>
			</g>
		</g>
	</g>
	<g>
		<polygon fill="#EC7404" stroke="#FFFFFF" stroke-width="0.5" points="287.264,-23.968 290.677,-23.968 289.107,-12.192 		"/>
		<circle fill="#EC7404" cx="288.97" cy="-33" r="9.731"/>
		<g>
			<path fill="#FFFFFF" d="M285.842-31.311h6.294v-0.557h-6.294V-31.311z M285.842-29.615h6.294v-0.557h-6.294V-29.615z
				 M285.842-34.658h6.294v-0.558h-6.294V-34.658z M285.842-32.993h6.294v-0.557h-6.294V-32.993z M292.842-27.685h-7.744v-11.183
				h5.521v2.222h2.223V-27.685z M284.54-27.125 M291.178-38.797l1.594,1.592h-1.594V-38.797z M291.336-39.427h-6.796v12.301h8.86
				v-10.239L291.336-39.427z"/>
		</g>
	</g>
	<g>
		<polygon fill="#EC7404" stroke="#FFFFFF" stroke-width="0.5" points="261.69,-23.968 265.104,-23.968 263.533,-12.192 		"/>
		<circle fill="#EC7404" cx="263.397" cy="-33.001" r="9.731"/>
		<g>
			<g>
				<path fill="#FFFFFF" d="M268.454-33.723c-0.002-0.272-0.025-0.522-0.083-0.758c-0.046-0.183-0.114-0.358-0.217-0.517
					c-0.152-0.24-0.387-0.429-0.656-0.535c-0.269-0.108-0.564-0.149-0.898-0.149c-0.295,0-0.563,0.033-0.811,0.114
					c-0.185,0.062-0.357,0.153-0.505,0.277c-0.223,0.186-0.377,0.438-0.463,0.709c-0.086,0.264-0.118,0.55-0.119,0.862l-0.569,4.806
					h1.198v2.099h0.97v-2.099h0.6v2.099h0.97v-2.099h1.204L268.454-33.723z"/>
				<path fill="#FFFFFF" d="M260.08-36.128c0.872,0,1.576-0.707,1.576-1.577c0-0.871-0.704-1.577-1.576-1.577
					c-0.87,0-1.575,0.706-1.576,1.577C258.505-36.834,259.21-36.128,260.08-36.128 M260.08-35.59
					c-1.305,0.001-2.36,1.057-2.36,2.361v2.469h1.092v3.943h0.969v-3.943h0.6v3.943h0.97v-3.943h1.091v-2.469
					C262.44-34.534,261.385-35.589,260.08-35.59"/>
			</g>
			<circle fill="#FFFFFF" cx="266.494" cy="-37.707" r="1.584"/>
		</g>
	</g>
	<g>
		<polygon fill="#EC7404" stroke="#FFFFFF" stroke-width="0.5" points="389.554,-23.968 392.967,-23.968 391.397,-12.192 		"/>
		<circle fill="#EC7404" cx="391.26" cy="-33" r="9.731"/>
		<text transform="matrix(1 0 0 1 389.5 -25.1201)" fill="#FFFFFF" font-family="'DejaVuSansCondensed-Bold'" font-size="5">€</text>
		<polygon fill="none" stroke="#FFFFFF" stroke-width="0.5" points="387.342,-35.379 391.212,-30.704 395.081,-35.379 
			393.128,-35.379 393.128,-40.501 389.295,-40.501 389.295,-35.379 		"/>
	</g>
	<g>
		<polygon fill="#EC7404" stroke="#FFFFFF" stroke-width="0.5" points="217.633,286.785 221.046,286.785 219.476,298.561 		"/>
		<circle fill="#EC7404" cx="219.34" cy="277.752" r="9.731"/>
		<g>
			<g>
				<path fill="#FFFFFF" d="M224.396,277.029c-0.002-0.271-0.025-0.521-0.083-0.758c-0.046-0.183-0.114-0.357-0.217-0.516
					c-0.152-0.24-0.387-0.43-0.656-0.535c-0.269-0.109-0.564-0.149-0.898-0.15c-0.295,0-0.563,0.033-0.811,0.114
					c-0.185,0.062-0.357,0.153-0.505,0.276c-0.223,0.186-0.377,0.438-0.463,0.709c-0.086,0.265-0.118,0.551-0.119,0.862
					l-0.569,4.806h1.198v2.1h0.97v-2.1h0.6v2.1h0.97v-2.1h1.204L224.396,277.029z"/>
				<path fill="#FFFFFF" d="M216.022,274.625c0.872,0,1.576-0.707,1.576-1.576c0-0.871-0.704-1.577-1.576-1.577
					c-0.87,0-1.575,0.706-1.576,1.577C214.447,273.918,215.152,274.625,216.022,274.625 M216.022,275.162
					c-1.305,0.002-2.36,1.057-2.36,2.361v2.469h1.092v3.943h0.969v-3.943h0.6v3.943h0.97v-3.943h1.091v-2.469
					C218.383,276.219,217.327,275.164,216.022,275.162"/>
			</g>
			<circle fill="#FFFFFF" cx="222.436" cy="273.046" r="1.584"/>
		</g>
	</g>
	<g>
		<g>
			<g enable-background="new    ">
				<defs>
					<polygon id="SVGID_3_" enable-background="new    " points="285.862,325.55 292.002,321.981 298.188,325.553 292.048,329.121 
											"/>
				</defs>
				<clipPath id="SVGID_4_">
					<use xlink:href="#SVGID_3_"  overflow="visible"/>
				</clipPath>
				<g clip-path="url(#SVGID_4_)">
					<g>
						<g>
							<g>
								<polyline fill="#FFFFFF" points="293.566,322.885 292.002,321.981 285.862,325.55 288.945,327.33 292.048,329.121 
									293.597,328.222 292.058,327.334 293.593,326.441 292.047,325.55 293.576,324.661 292.038,323.772 293.566,322.885 								
									"/>
							</g>
						</g>
					</g>
				</g>
			</g>
		</g>
	</g>
	<g>
		<g>
			<g enable-background="new    ">
				<defs>
					<polygon id="SVGID_5_" enable-background="new    " points="201.466,277.291 207.606,273.723 213.792,277.294 207.652,280.862 
											"/>
				</defs>
				<clipPath id="SVGID_6_">
					<use xlink:href="#SVGID_5_"  overflow="visible"/>
				</clipPath>
				<g clip-path="url(#SVGID_6_)">
					<g>
						<g>
							<g>
								<polyline fill="#FFFFFF" points="209.17,274.626 207.606,273.723 201.466,277.291 204.549,279.071 207.652,280.862 
									209.201,279.963 207.662,279.075 209.197,278.183 207.651,277.291 209.18,276.402 207.642,275.514 209.17,274.626 								
									"/>
							</g>
						</g>
					</g>
				</g>
			</g>
		</g>
	</g>
</g>
</svg>
