<?xml version="1.0" encoding="utf-8"?>
<!-- Generator: Adobe Illustrator 16.0.0, SVG Export Plug-In . SVG Version: 6.00 Build 0)  -->
<!DOCTYPE svg PUBLIC "-//W3C//DTD SVG 1.1//EN" "http://www.w3.org/Graphics/SVG/1.1/DTD/svg11.dtd">
<svg version="1.1" xmlns="http://www.w3.org/2000/svg" xmlns:xlink="http://www.w3.org/1999/xlink" x="0px" y="0px"
	 width="595.275px" height="419.527px" viewBox="0 0 595.275 419.527" enable-background="new 0 0 595.275 419.527"
	 xml:space="preserve">
<g id="Ebene_2">
	<rect x="78.686" y="451.253" fill="#A78BBC" width="34.273" height="53.545"/>
	<text transform="matrix(0 -1 1 0 100.9214 490.665)" fill="#FFFFFF" font-family="'DejaVuSans-Bold'" font-size="8">A1.10</text>
	<polygon fill="#C6C7C8" points="155.022,449.43 144.764,459.688 155.022,469.948 155.022,465.395 200.72,465.395 200.72,453.983
		155.022,453.983 	"/>
	<text transform="matrix(1 0 0 1 154.5479 462.8467)" fill="#FFFFFF" font-family="'DejaVuSans-Bold'" font-size="8">B-Bau</text>
</g>
<g id="Ebene_1">
	<g>
		<g>
			<g enable-background="new    ">
				<defs>
					<polygon id="SVGID_1_" enable-background="new    " points="53.83,149.66 201.05,64.103 509.074,241.953 361.855,327.511
						"/>
				</defs>
				<clipPath id="SVGID_2_">
					<use xlink:href="#SVGID_1_"  overflow="visible"/>
				</clipPath>
				<g clip-path="url(#SVGID_2_)">
					<g>
						<g>
							<g>
								<path fill="#CFD0D2" d="M109.411,156.118l6.825-3.966l1.73,1l-1.7,0.988l1.711,0.988l-1.706,0.992l1.711,0.988l-1.7,0.988
									l1.718,0.991l-1.719,0.999l-3.448-1.991L109.411,156.118 M158.878,159.547l-23.266-13.434l-27.926-16.124l-11.266,6.547
									l13.159,7.598l-13.073,7.598l38.033,21.96L158.878,159.547"/>
								<polyline fill="#CFD0D2" points="326.009,136.252 270.827,104.391 199.623,140.816 263.359,177.618 326.009,136.252
																	"/>
								<polyline fill="#CFD0D2" points="102.75,144.138 93.014,138.516 83.347,144.134 93.084,149.756 102.75,144.138 								"/>
								<path id="B1.16" fill="#CFD0D2" d="M129.944,129.613c-0.14-0.081-0.293-0.118-0.452-0.114c-0.166,0.007-0.324,0.062-0.489,0.159
									l-0.583,0.339l0.875,0.505l0.583-0.339c0.166-0.096,0.254-0.191,0.266-0.288
									C130.156,129.787,130.091,129.698,129.944,129.613 M131.821,130.498c-0.179-0.103-0.376-0.151-0.567-0.144
									c-0.197,0.011-0.407,0.082-0.616,0.203l-0.622,0.361l1.085,0.626l0.622-0.361c0.209-0.122,0.323-0.24,0.342-0.354
									C132.083,130.716,132,130.602,131.821,130.498 M144.691,122.967c-0.243-0.14-0.472-0.221-0.689-0.236
									c-0.216-0.015-0.414,0.033-0.598,0.14c-0.184,0.107-0.266,0.221-0.24,0.347c0.026,0.125,0.167,0.258,0.41,0.398
									s0.466,0.217,0.682,0.232c0.217,0.015,0.414-0.033,0.598-0.14s0.266-0.222,0.24-0.347
									C145.067,123.236,144.933,123.107,144.691,122.967 M131.218,129.753c0.292-0.096,0.598-0.125,0.897-0.092
									c0.305,0.03,0.586,0.118,0.847,0.27c0.403,0.232,0.563,0.479,0.488,0.752c-0.069,0.269-0.378,0.56-0.924,0.877l-1.764,1.025
									l-4.137-2.389l1.592-0.925c0.571-0.332,1.066-0.523,1.505-0.571c0.426-0.048,0.827,0.037,1.21,0.258
									c0.204,0.118,0.333,0.243,0.378,0.379C131.356,129.474,131.326,129.609,131.218,129.753 M130.96,127.906l0.759-0.67
									l1.009-0.586l3.396,1.961l0.932-0.542l0.741,0.428l-2.873,1.669l-0.741-0.427l0.939-0.546l-2.669-1.541l-0.767,0.675
									L130.96,127.906 M137.41,127.479l0.989-0.575l1.073,0.62l-0.989,0.575L137.41,127.479 M136.459,124.71l0.76-0.671
									l1.009-0.586l3.396,1.961l0.932-0.542l0.741,0.427l-2.873,1.67l-0.741-0.428l0.939-0.545l-2.669-1.541l-0.767,0.675
									L136.459,124.71 M142.311,123.025c0.031-0.122,0.094-0.239,0.189-0.346s0.221-0.21,0.393-0.31
									c0.419-0.243,0.882-0.365,1.385-0.376c0.509-0.007,0.961,0.107,1.364,0.339c0.44,0.254,0.652,0.545,0.635,0.866
									c-0.03,0.32-0.276,0.619-0.765,0.903c-0.533,0.31-1.124,0.446-1.78,0.406c-0.655-0.041-1.319-0.247-1.989-0.634
									c-0.683-0.395-1.048-0.804-1.095-1.228c-0.047-0.424,0.225-0.811,0.82-1.157c0.19-0.111,0.387-0.21,0.597-0.295
									c0.209-0.084,0.432-0.162,0.661-0.229l0.767,0.442c-0.255,0.052-0.483,0.111-0.674,0.177
									c-0.19,0.067-0.368,0.141-0.514,0.225c-0.317,0.185-0.476,0.38-0.474,0.586
									C141.831,122.594,141.991,122.812,142.311,123.025 M164.542,124.508l-23.789-13.735l-29.661,17.237l23.789,13.736
									L164.542,124.508"/>
								<path id="B1.12" fill="#CFD0D2" d="M257.608,198.424c-0.14-0.081-0.293-0.118-0.452-0.114c-0.159,0.011-0.324,0.062-0.489,0.158
									l-0.59,0.343l0.875,0.505l0.59-0.343c0.165-0.096,0.253-0.192,0.272-0.284C257.82,198.597,257.755,198.509,257.608,198.424
									 M259.479,199.312c-0.179-0.103-0.364-0.151-0.561-0.14c-0.197,0.011-0.4,0.077-0.617,0.203l-0.622,0.361l1.079,0.623
									l0.622-0.361c0.216-0.126,0.33-0.244,0.349-0.358C259.747,199.526,259.664,199.419,259.479,199.312 M258.883,198.564
									c0.298-0.092,0.591-0.122,0.897-0.092c0.305,0.029,0.592,0.122,0.847,0.269c0.402,0.232,0.557,0.483,0.488,0.752
									c-0.069,0.269-0.378,0.56-0.93,0.881l-1.757,1.021l-4.137-2.389l1.592-0.925c0.571-0.332,1.073-0.52,1.505-0.572
									c0.426-0.048,0.833,0.041,1.217,0.262c0.197,0.114,0.326,0.239,0.372,0.376
									C259.021,198.284,258.996,198.424,258.883,198.564 M258.624,196.717l0.753-0.667l1.009-0.586l3.403,1.964l0.939-0.545
									l0.734,0.424l-2.874,1.67l-0.734-0.424l0.932-0.542l-2.675-1.544l-0.759,0.671L258.624,196.717 M265.068,196.293
									l0.996-0.579l1.073,0.619l-0.996,0.579L265.068,196.293 M264.124,193.521l0.76-0.671l1.009-0.586l3.403,1.965l0.933-0.542
									l0.734,0.424l-2.874,1.67l-0.734-0.424l0.939-0.545l-2.675-1.544l-0.766,0.674L264.124,193.521 M271.908,192.65l1.808-1.05
									l0.786,0.454l-2.988,1.736l-0.786-0.454l0.176-1.641c0.005-0.151-0.008-0.276-0.06-0.379
									c-0.058-0.107-0.147-0.195-0.269-0.266c-0.198-0.114-0.414-0.166-0.669-0.158c-0.242,0.007-0.47,0.073-0.686,0.199
									c-0.165,0.096-0.317,0.221-0.443,0.376c-0.126,0.155-0.227,0.339-0.309,0.549l-0.907-0.523
									c0.158-0.188,0.335-0.357,0.525-0.52c0.19-0.155,0.393-0.302,0.621-0.435c0.488-0.284,0.978-0.442,1.474-0.472
									c0.49-0.033,0.93,0.059,1.319,0.284c0.23,0.133,0.383,0.288,0.461,0.464c0.077,0.184,0.098,0.476,0.049,0.881
									L271.908,192.65 M287.663,195.596l-23.431-13.529l-14.672,8.519l-7.339,4.265l23.432,13.537L287.663,195.596"/>
								<path id="B1.01" fill="#CFD0D2" d="M367.922,262.117c-0.141-0.081-0.293-0.118-0.452-0.114c-0.159,0.011-0.324,0.062-0.489,0.159
									l-0.59,0.342l0.875,0.506l0.59-0.343c0.165-0.097,0.253-0.192,0.266-0.288C368.133,262.29,368.069,262.202,367.922,262.117
									 M369.791,263.006c-0.178-0.104-0.363-0.151-0.56-0.141c-0.197,0.012-0.4,0.077-0.617,0.203l-0.621,0.361l1.079,0.623
									l0.621-0.361c0.217-0.125,0.33-0.243,0.349-0.357C370.06,263.22,369.971,263.108,369.791,263.006 M378.261,257.151
									c-0.517-0.298-0.932-0.479-1.237-0.545s-0.58-0.033-0.809,0.1c-0.228,0.132-0.277,0.287-0.169,0.468
									c0.116,0.177,0.43,0.417,0.946,0.715c0.523,0.303,0.944,0.486,1.251,0.554c0.318,0.066,0.586,0.036,0.813-0.096
									c0.229-0.133,0.279-0.288,0.163-0.473C379.104,257.697,378.785,257.454,378.261,257.151 M369.195,262.257
									c0.3-0.092,0.592-0.121,0.897-0.092c0.306,0.03,0.585,0.118,0.848,0.27c0.402,0.232,0.557,0.482,0.487,0.752
									c-0.068,0.27-0.378,0.56-0.93,0.881l-1.758,1.021l-4.137-2.389l1.592-0.925c0.571-0.332,1.073-0.521,1.506-0.571
									c0.426-0.048,0.833,0.041,1.21,0.258c0.204,0.118,0.332,0.243,0.378,0.38C369.334,261.978,369.303,262.113,369.195,262.257
									 M368.938,260.41l0.753-0.667l1.009-0.586l3.402,1.965l0.939-0.546l0.734,0.424l-2.873,1.67l-0.734-0.424l0.932-0.542
									l-2.675-1.544l-0.76,0.671L368.938,260.41 M375.381,259.986l0.996-0.578l1.072,0.619l-0.995,0.578L375.381,259.986
									 M375.946,258.512c-0.69-0.397-1.074-0.789-1.146-1.176c-0.085-0.387,0.149-0.737,0.688-1.051
									c0.539-0.312,1.143-0.449,1.812-0.401c0.668,0.04,1.344,0.262,2.034,0.66c0.683,0.394,1.066,0.785,1.139,1.172
									c0.079,0.384-0.148,0.737-0.688,1.051c-0.538,0.313-1.148,0.446-1.812,0.401
									C377.305,259.128,376.629,258.906,375.946,258.512 M378.078,255.099l0.759-0.671l1.009-0.587l3.403,1.965l0.933-0.542
									l0.734,0.424l-2.874,1.671l-0.734-0.425l0.939-0.545l-2.675-1.545l-0.767,0.675L378.078,255.099 M397.938,259.275
									L374.5,245.742l-22.023,12.792l23.431,13.536L397.938,259.275"/>
								<path id="B1.09" fill="#CFD0D2" d="M285.28,214.4c-0.141-0.081-0.293-0.118-0.452-0.114c-0.166,0.008-0.331,0.06-0.496,0.155
									l-0.59,0.343l0.874,0.505l0.59-0.343c0.165-0.097,0.26-0.188,0.272-0.284C285.484,214.57,285.42,214.482,285.28,214.4
									 M287.143,215.285c-0.179-0.104-0.364-0.15-0.56-0.14c-0.198,0.011-0.401,0.077-0.617,0.202l-0.622,0.361l1.086,0.627
									l0.622-0.361c0.216-0.125,0.329-0.243,0.348-0.357C287.411,215.499,287.328,215.392,287.143,215.285 M295.619,209.435
									c-0.517-0.298-0.932-0.479-1.238-0.545c-0.306-0.066-0.579-0.033-0.808,0.1s-0.278,0.288-0.169,0.468
									c0.115,0.177,0.429,0.417,0.946,0.715c0.523,0.302,0.944,0.486,1.25,0.553c0.318,0.066,0.579,0.033,0.807-0.1
									c0.229-0.133,0.286-0.284,0.17-0.468C296.461,209.98,296.143,209.737,295.619,209.435 M298.354,206.987
									c-0.236-0.137-0.465-0.218-0.682-0.232c-0.217-0.015-0.414,0.033-0.598,0.14s-0.266,0.221-0.24,0.347
									c0.026,0.125,0.167,0.258,0.403,0.394c0.242,0.14,0.472,0.222,0.689,0.236c0.216,0.015,0.414-0.033,0.597-0.14
									c0.184-0.107,0.266-0.221,0.24-0.347C298.738,207.26,298.597,207.127,298.354,206.987 M286.553,214.54
									c0.293-0.095,0.585-0.124,0.891-0.095c0.312,0.033,0.592,0.121,0.854,0.272c0.396,0.229,0.557,0.482,0.487,0.752
									c-0.074,0.266-0.378,0.56-0.93,0.881l-1.757,1.021l-4.137-2.389l1.592-0.925c0.571-0.332,1.067-0.523,1.5-0.575
									c0.432-0.044,0.833,0.041,1.216,0.262c0.204,0.118,0.326,0.24,0.372,0.376C286.692,214.261,286.661,214.396,286.553,214.54
									 M286.295,212.693l0.753-0.667l1.009-0.586l3.396,1.961l0.939-0.546l0.741,0.428l-2.873,1.67l-0.741-0.428l0.932-0.541
									l-2.675-1.545l-0.759,0.671L286.295,212.693 M292.739,212.27l0.996-0.578l1.072,0.619l-0.996,0.578L292.739,212.27
									 M293.297,210.792c-0.683-0.395-1.067-0.785-1.146-1.176c-0.079-0.383,0.155-0.734,0.694-1.047
									c0.539-0.313,1.143-0.45,1.806-0.406c0.674,0.044,1.35,0.265,2.033,0.66c0.684,0.395,1.067,0.786,1.146,1.176
									c0.079,0.383-0.155,0.733-0.694,1.047c-0.539,0.313-1.143,0.45-1.805,0.405C294.657,211.407,293.98,211.187,293.297,210.792
									 M296.293,208.274c-0.447-0.258-0.652-0.546-0.635-0.866c0.017-0.321,0.27-0.624,0.752-0.903
									c0.533-0.31,1.13-0.45,1.786-0.41c0.656,0.041,1.325,0.251,1.989,0.634c0.684,0.395,1.048,0.804,1.089,1.231
									c0.054,0.428-0.225,0.811-0.821,1.158c-0.196,0.114-0.393,0.214-0.596,0.295c-0.203,0.088-0.42,0.162-0.648,0.229
									l-0.766-0.442c0.254-0.052,0.471-0.111,0.661-0.177c0.204-0.066,0.375-0.144,0.521-0.229
									c0.317-0.185,0.476-0.38,0.475-0.586c-0.001-0.199-0.155-0.413-0.475-0.634c-0.031,0.129-0.095,0.247-0.188,0.354
									c-0.096,0.107-0.229,0.214-0.394,0.31c-0.418,0.243-0.882,0.365-1.385,0.376
									C297.147,208.62,296.695,208.506,296.293,208.274 M315.231,211.515l-23.432-13.53l-22.017,12.789l23.432,13.536
									l17.335-10.075L315.231,211.515"/>
								<path id="B1.04" fill="#EC7405" d="M339.9,245.938c-0.141-0.081-0.294-0.118-0.452-0.114c-0.16,0.011-0.324,0.062-0.489,0.159
									l-0.59,0.343l0.874,0.505l0.591-0.343c0.165-0.096,0.252-0.192,0.271-0.284C340.111,246.111,340.047,246.022,339.9,245.938
									 M341.77,246.826c-0.179-0.104-0.363-0.151-0.561-0.141c-0.197,0.012-0.4,0.078-0.616,0.203l-0.622,0.361l1.08,0.623
									l0.621-0.361c0.216-0.125,0.329-0.243,0.348-0.357S341.955,246.934,341.77,246.826 M350.239,240.972
									c-0.517-0.298-0.933-0.479-1.238-0.545s-0.572-0.029-0.801,0.104c-0.229,0.132-0.285,0.283-0.176,0.464
									c0.115,0.177,0.429,0.417,0.946,0.715c0.523,0.303,0.944,0.486,1.257,0.558c0.312,0.062,0.579,0.032,0.807-0.101
									c0.229-0.133,0.279-0.287,0.17-0.468C351.082,241.518,350.763,241.274,350.239,240.972 M353.909,239.476l-1.73-0.999
									l0.569,1.674L353.909,239.476 M341.174,246.078c0.299-0.093,0.591-0.122,0.896-0.093c0.306,0.03,0.592,0.122,0.848,0.27
									c0.402,0.232,0.558,0.482,0.487,0.752c-0.067,0.27-0.378,0.56-0.93,0.881l-1.757,1.021l-4.138-2.39l1.592-0.925
									c0.571-0.332,1.073-0.52,1.506-0.571c0.426-0.048,0.834,0.041,1.216,0.262c0.198,0.114,0.327,0.239,0.373,0.376
									C341.312,245.798,341.287,245.938,341.174,246.078 M340.915,244.23l0.753-0.667l1.009-0.586l3.403,1.965l0.938-0.546
									l0.734,0.424l-2.873,1.67l-0.734-0.424l0.932-0.542l-2.675-1.544l-0.759,0.671L340.915,244.23 M347.359,243.807l0.996-0.578
									l1.072,0.619l-0.996,0.578L347.359,243.807 M347.924,242.333c-0.689-0.398-1.074-0.79-1.146-1.177
									c-0.079-0.383,0.148-0.737,0.688-1.05c0.539-0.313,1.149-0.447,1.812-0.402c0.668,0.04,1.344,0.262,2.034,0.66
									c0.683,0.395,1.067,0.785,1.139,1.172c0.079,0.384-0.148,0.737-0.688,1.051s-1.149,0.446-1.812,0.401
									C349.283,242.948,348.607,242.727,347.924,242.333 M351.948,240.452l-0.828-2.382l1.18-0.686l2.611,1.509l0.591-0.344
									l0.771,0.446l-0.59,0.343l0.753,0.436l-1.002,0.582l-0.753-0.435l-1.82,1.058L351.948,240.452 M370.362,243.354
									l-23.432-13.529l-22.017,12.795l23.424,13.533l14.286-8.302L370.362,243.354"/>
								<path id="B1.06" fill="#CFD0D2" d="M312.235,229.965c-0.141-0.081-0.293-0.118-0.452-0.114c-0.166,0.007-0.33,0.059-0.495,0.154
									l-0.59,0.343l0.881,0.509l0.59-0.343c0.165-0.096,0.253-0.191,0.266-0.287C312.446,230.138,312.383,230.05,312.235,229.965
									 M314.105,230.853c-0.186-0.106-0.37-0.154-0.566-0.144c-0.198,0.012-0.401,0.077-0.617,0.203l-0.622,0.361l1.086,0.627
									l0.622-0.361c0.216-0.126,0.329-0.244,0.348-0.358C314.373,231.066,314.283,230.956,314.105,230.853 M322.574,224.999
									c-0.517-0.299-0.932-0.479-1.237-0.546s-0.579-0.033-0.808,0.1s-0.278,0.288-0.17,0.469c0.116,0.177,0.43,0.416,0.946,0.715
									c0.523,0.303,0.944,0.486,1.251,0.553c0.318,0.066,0.586,0.037,0.813-0.096c0.229-0.133,0.278-0.287,0.163-0.472
									C323.417,225.544,323.099,225.301,322.574,224.999 M326.981,223.318c-0.242-0.141-0.479-0.218-0.688-0.236
									c-0.217-0.015-0.414,0.033-0.598,0.14c-0.19,0.111-0.272,0.226-0.239,0.347c0.025,0.125,0.167,0.259,0.409,0.398
									c0.236,0.137,0.466,0.218,0.683,0.232c0.21,0.018,0.406-0.029,0.597-0.141c0.184-0.106,0.267-0.221,0.24-0.346
									C327.353,223.591,327.218,223.454,326.981,223.318 M313.509,230.104c0.293-0.096,0.591-0.121,0.897-0.092
									c0.306,0.029,0.586,0.118,0.848,0.269c0.396,0.229,0.557,0.483,0.487,0.752c-0.074,0.266-0.378,0.561-0.93,0.881
									l-1.758,1.021l-4.137-2.389l1.592-0.926c0.571-0.331,1.066-0.523,1.506-0.571c0.426-0.048,0.826,0.037,1.21,0.259
									c0.204,0.118,0.332,0.243,0.378,0.379C313.647,229.825,313.616,229.961,313.509,230.104 M313.251,228.258l0.753-0.667
									l1.009-0.587l3.396,1.962l0.938-0.546l0.741,0.428l-2.874,1.67l-0.74-0.428l0.932-0.542l-2.675-1.544l-0.753,0.674
									L313.251,228.258 M319.695,227.834l0.995-0.579l1.072,0.619l-0.995,0.579L319.695,227.834 M320.253,226.355
									c-0.684-0.395-1.067-0.785-1.146-1.176c-0.079-0.384,0.155-0.733,0.694-1.047s1.143-0.45,1.806-0.405
									c0.674,0.044,1.35,0.265,2.033,0.659c0.689,0.398,1.073,0.789,1.146,1.176c0.079,0.384-0.155,0.734-0.694,1.048
									c-0.539,0.312-1.143,0.449-1.806,0.405C321.618,226.975,320.942,226.754,320.253,226.355 M324.596,223.381
									c0.031-0.122,0.094-0.24,0.188-0.347c0.102-0.11,0.229-0.214,0.394-0.31c0.425-0.247,0.889-0.369,1.391-0.38
									c0.503-0.004,0.962,0.106,1.365,0.339c0.439,0.254,0.651,0.546,0.635,0.867c-0.031,0.32-0.283,0.622-0.766,0.902
									c-0.533,0.31-1.131,0.45-1.786,0.41c-0.655-0.041-1.312-0.252-1.982-0.639c-0.684-0.395-1.049-0.804-1.095-1.228
									c-0.054-0.427,0.224-0.811,0.82-1.157c0.189-0.11,0.387-0.211,0.597-0.295c0.202-0.089,0.425-0.166,0.66-0.229l0.76,0.438
									c-0.254,0.052-0.477,0.114-0.673,0.185c-0.197,0.062-0.368,0.14-0.515,0.225c-0.317,0.185-0.469,0.376-0.468,0.583
									C324.116,222.949,324.276,223.159,324.596,223.381 M319.369,213.903l-22.024,12.792l23.437,13.532l1.713-0.995
									l20.298-11.797L319.369,213.903"/>
								<path id="B1.10" fill="#CFD0D2" d="M241.528,230.374c-0.141-0.081-0.293-0.118-0.458-0.111c-0.159,0.004-0.324,0.056-0.489,0.151
									l-0.59,0.343l0.881,0.509l0.59-0.343c0.166-0.096,0.254-0.191,0.26-0.283C241.74,230.547,241.675,230.459,241.528,230.374
									 M243.398,231.262c-0.186-0.106-0.371-0.154-0.567-0.144c-0.197,0.011-0.4,0.077-0.616,0.203l-0.622,0.361l1.085,0.627
									l0.622-0.361c0.216-0.126,0.33-0.244,0.348-0.358C243.667,231.476,243.577,231.365,243.398,231.262 M255.509,223.292
									c-0.518-0.299-0.932-0.479-1.238-0.546s-0.58-0.033-0.808,0.1s-0.278,0.288-0.169,0.469
									c0.115,0.177,0.429,0.416,0.946,0.715c0.523,0.303,0.944,0.487,1.25,0.553c0.318,0.066,0.585,0.037,0.813-0.096
									s0.278-0.287,0.163-0.472C256.352,223.838,256.032,223.595,255.509,223.292 M242.802,230.514
									c0.286-0.092,0.591-0.122,0.897-0.092c0.305,0.029,0.58,0.121,0.841,0.272c0.396,0.229,0.563,0.479,0.494,0.748
									c-0.074,0.266-0.378,0.561-0.93,0.881l-1.757,1.021l-4.137-2.389l1.592-0.925c0.571-0.332,1.066-0.524,1.499-0.568
									c0.432-0.051,0.834,0.033,1.217,0.255c0.205,0.117,0.332,0.243,0.377,0.38C242.94,230.233,242.91,230.37,242.802,230.514
									 M242.544,228.667l0.753-0.667l1.009-0.587l3.396,1.962l0.939-0.546l0.74,0.428l-2.874,1.67l-0.74-0.428l0.932-0.542
									l-2.675-1.544l-0.753,0.674L242.544,228.667 M248.988,228.243l0.996-0.579l1.073,0.619l-0.996,0.579L248.988,228.243
									 M248.043,225.471l0.76-0.671l1.002-0.582l3.396,1.961l0.939-0.546l0.74,0.428l-2.874,1.67l-0.74-0.428l0.933-0.542
									l-2.675-1.544l-0.753,0.675L248.043,225.471 M253.188,224.648c-0.683-0.395-1.067-0.785-1.146-1.176
									c-0.079-0.384,0.155-0.733,0.694-1.047c0.54-0.313,1.143-0.45,1.805-0.405c0.675,0.044,1.351,0.266,2.034,0.66
									c0.69,0.397,1.074,0.788,1.146,1.176c0.079,0.383-0.155,0.733-0.694,1.047c-0.539,0.313-1.143,0.449-1.805,0.405
									C254.553,225.268,253.877,225.047,253.188,224.648 M266.219,225.589l-14.896-8.601l-20.831,12.106l14.895,8.601
									L266.219,225.589"/>
								<path id="B1.02" fill="#CFD0D2" d="M336.589,285.261c-0.141-0.081-0.294-0.118-0.458-0.11c-0.16,0.003-0.324,0.055-0.49,0.15
									l-0.59,0.344l0.875,0.504l0.59-0.343c0.165-0.096,0.26-0.188,0.266-0.279C336.8,285.434,336.729,285.342,336.589,285.261
									 M338.452,286.146c-0.179-0.104-0.363-0.151-0.561-0.141c-0.197,0.012-0.4,0.077-0.616,0.203l-0.622,0.361l1.086,0.627
									l0.621-0.361c0.217-0.126,0.33-0.244,0.349-0.358C338.721,286.359,338.637,286.252,338.452,286.146 M346.928,280.295
									c-0.517-0.299-0.932-0.479-1.237-0.546s-0.58-0.033-0.809,0.1s-0.278,0.288-0.168,0.468
									c0.114,0.178,0.429,0.417,0.945,0.716c0.524,0.302,0.944,0.486,1.251,0.553c0.318,0.066,0.585,0.037,0.813-0.096
									s0.278-0.287,0.163-0.472C347.771,280.841,347.451,280.598,346.928,280.295 M337.862,285.4
									c0.286-0.092,0.586-0.125,0.897-0.092c0.305,0.029,0.579,0.121,0.841,0.272c0.396,0.229,0.563,0.479,0.494,0.749
									c-0.075,0.266-0.378,0.56-0.931,0.881l-1.757,1.021l-4.138-2.389l1.593-0.925c0.571-0.332,1.066-0.523,1.492-0.571
									c0.438-0.048,0.841,0.036,1.224,0.257c0.204,0.118,0.326,0.24,0.378,0.381C338.001,285.121,337.97,285.257,337.862,285.4
									 M337.604,283.554l0.754-0.667l1.009-0.587l3.396,1.962l0.938-0.546l0.741,0.428l-2.874,1.67l-0.74-0.428l0.932-0.542
									l-2.675-1.544l-0.753,0.674L337.604,283.554 M344.049,283.13l0.995-0.579l1.073,0.619l-0.996,0.579L344.049,283.13
									 M344.606,281.651c-0.684-0.395-1.067-0.785-1.146-1.176c-0.079-0.384,0.154-0.733,0.693-1.047
									c0.54-0.313,1.144-0.45,1.806-0.405c0.675,0.044,1.351,0.265,2.033,0.659c0.69,0.398,1.067,0.785,1.146,1.176
									c0.078,0.384-0.155,0.734-0.694,1.048c-0.539,0.312-1.143,0.449-1.805,0.405
									C345.965,282.267,345.296,282.05,344.606,281.651 M350.889,279.487l1.807-1.05l0.785,0.453l-2.987,1.735l-0.784-0.453
									l0.169-1.644c0.011-0.147-0.015-0.272-0.06-0.38c-0.052-0.103-0.142-0.191-0.27-0.266c-0.191-0.11-0.415-0.166-0.662-0.154
									c-0.249,0.003-0.478,0.069-0.693,0.195c-0.165,0.096-0.311,0.225-0.438,0.38c-0.125,0.154-0.232,0.335-0.314,0.545
									l-0.906-0.523c0.164-0.185,0.335-0.357,0.525-0.512c0.189-0.163,0.399-0.307,0.628-0.439
									c0.487-0.283,0.978-0.441,1.467-0.475c0.49-0.034,0.936,0.062,1.325,0.287c0.223,0.129,0.377,0.283,0.454,0.468
									c0.078,0.177,0.098,0.469,0.051,0.874L350.889,279.487 M361.362,280.523l-14.889-8.597l-20.831,12.106l14.889,8.597
									L361.362,280.523"/>
								<path id="B1.05" fill="#CFD0D2" d="M298.99,263.552c-0.141-0.081-0.294-0.118-0.458-0.111c-0.16,0.004-0.325,0.056-0.49,0.151
									l-0.59,0.343l0.881,0.509l0.59-0.343c0.166-0.096,0.253-0.191,0.259-0.284C299.201,263.725,299.137,263.637,298.99,263.552
									 M300.859,264.439c-0.185-0.106-0.369-0.154-0.566-0.144c-0.197,0.012-0.4,0.077-0.617,0.203l-0.621,0.361l1.086,0.626
									l0.621-0.36c0.216-0.126,0.329-0.244,0.348-0.358S301.038,264.543,300.859,264.439 M309.329,258.586
									c-0.517-0.299-0.933-0.479-1.238-0.546s-0.579-0.033-0.808,0.1s-0.278,0.288-0.169,0.468
									c0.115,0.178,0.43,0.417,0.946,0.716c0.523,0.302,0.943,0.486,1.251,0.553c0.317,0.066,0.585,0.037,0.813-0.096
									s0.278-0.287,0.163-0.472C310.172,259.131,309.853,258.888,309.329,258.586 M300.264,263.691
									c0.286-0.092,0.592-0.122,0.896-0.092c0.306,0.029,0.58,0.121,0.842,0.272c0.396,0.229,0.563,0.479,0.494,0.748
									c-0.075,0.266-0.379,0.561-0.931,0.881l-1.757,1.021l-4.138-2.389l1.592-0.926c0.571-0.332,1.067-0.523,1.499-0.567
									c0.433-0.052,0.834,0.033,1.218,0.254c0.204,0.118,0.332,0.244,0.378,0.38C300.402,263.412,300.371,263.548,300.264,263.691
									 M300.005,261.845l0.753-0.667l1.01-0.587l3.396,1.961l0.938-0.545l0.741,0.427l-2.874,1.67l-0.74-0.427l0.932-0.542
									l-2.675-1.544l-0.753,0.674L300.005,261.845 M306.449,261.42l0.996-0.578l1.072,0.619l-0.996,0.579L306.449,261.42
									 M307.008,259.942c-0.684-0.395-1.067-0.785-1.146-1.176c-0.079-0.384,0.154-0.733,0.693-1.047
									c0.54-0.313,1.144-0.45,1.806-0.405c0.674,0.044,1.35,0.265,2.033,0.659c0.689,0.398,1.074,0.789,1.146,1.176
									c0.079,0.384-0.154,0.733-0.694,1.048c-0.538,0.312-1.142,0.449-1.805,0.404
									C308.373,260.562,307.697,260.341,307.008,259.942 M310.538,256.403l0.639,0.369c0.058-0.062,0.127-0.118,0.196-0.174
									c0.07-0.056,0.146-0.107,0.235-0.158c0.501-0.292,1.016-0.442,1.543-0.461c0.535-0.015,1.025,0.106,1.473,0.365
									c0.447,0.258,0.646,0.55,0.597,0.873c-0.049,0.317-0.347,0.639-0.886,0.951c-0.234,0.137-0.482,0.259-0.755,0.365
									c-0.273,0.106-0.572,0.199-0.896,0.276l-0.836-0.482c0.356-0.06,0.661-0.126,0.928-0.207
									c0.273-0.077,0.489-0.166,0.673-0.272c0.255-0.147,0.393-0.303,0.411-0.461c0.025-0.162-0.077-0.303-0.294-0.428
									c-0.218-0.126-0.46-0.185-0.733-0.166c-0.273,0.012-0.541,0.093-0.795,0.24c-0.151,0.088-0.298,0.194-0.43,0.316
									c-0.134,0.129-0.261,0.27-0.374,0.432l-2.324-1.342l2.632-1.53l0.786,0.454L310.538,256.403 M323.304,258.549l-14.889-8.597
									l-20.831,12.106l14.888,8.596L323.304,258.549"/>
								<path id="B1.15" fill="#BDD4E4" d="M158.324,146c-0.147-0.084-0.3-0.122-0.452-0.114c-0.166,0.007-0.331,0.059-0.496,0.155
									l-0.583,0.339l0.875,0.505l0.584-0.339c0.165-0.096,0.253-0.192,0.272-0.284C158.529,146.169,158.464,146.081,158.324,146
									 M160.194,146.881c-0.179-0.104-0.37-0.148-0.561-0.141c-0.197,0.011-0.407,0.082-0.616,0.203l-0.622,0.361l1.085,0.627
									l0.622-0.361c0.209-0.122,0.324-0.24,0.335-0.358C160.456,147.098,160.379,146.987,160.194,146.881 M159.598,146.14
									c0.292-0.096,0.592-0.129,0.891-0.096c0.306,0.03,0.592,0.122,0.854,0.273c0.396,0.229,0.563,0.479,0.481,0.749
									c-0.068,0.269-0.378,0.56-0.924,0.877l-1.763,1.024L155,146.578l1.592-0.925c0.571-0.332,1.073-0.52,1.504-0.571
									c0.427-0.048,0.834,0.041,1.217,0.262c0.198,0.114,0.326,0.24,0.372,0.375C159.729,145.856,159.705,145.996,159.598,146.14
									 M159.339,144.292l0.753-0.674l1.009-0.586l3.403,1.965l0.932-0.542l0.734,0.424l-2.873,1.67l-0.734-0.424l0.939-0.545
									l-2.675-1.545l-0.767,0.675L159.339,144.292 M165.784,143.861l0.989-0.575l1.073,0.62l-0.989,0.575L165.784,143.861
									 M164.839,141.096l0.753-0.674l1.009-0.586l3.403,1.965l0.932-0.542l0.734,0.424l-2.873,1.67l-0.734-0.424l0.939-0.546
									l-2.675-1.544l-0.767,0.675L164.839,141.096 M169.873,138.844l0.639,0.369c0.057-0.055,0.12-0.114,0.19-0.17
									c0.076-0.051,0.152-0.103,0.241-0.154c0.501-0.292,1.016-0.45,1.55-0.465c0.528-0.019,1.019,0.104,1.472,0.365
									c0.447,0.258,0.646,0.549,0.591,0.87c-0.049,0.325-0.34,0.642-0.886,0.958c-0.229,0.133-0.489,0.254-0.762,0.361
									s-0.571,0.199-0.882,0.276l-0.843-0.486c0.356-0.052,0.667-0.122,0.928-0.199c0.267-0.081,0.489-0.173,0.667-0.276
									c0.254-0.147,0.393-0.302,0.417-0.465c0.025-0.154-0.072-0.298-0.289-0.424c-0.217-0.125-0.465-0.181-0.739-0.169
									c-0.273,0.018-0.541,0.1-0.794,0.247c-0.152,0.088-0.298,0.195-0.431,0.317c-0.133,0.122-0.253,0.266-0.374,0.432
									l-2.33-1.346l2.639-1.534l0.785,0.454L169.873,138.844 M191.945,140.33l-23.266-13.434l-29.667,17.241l23.266,13.434
									L191.945,140.33"/>
								<path fill="#CFD0D2" d="M355.692,298.657l6.825-3.967l1.736,1.003l-1.7,0.988l1.712,0.987l-1.707,0.992l1.711,0.987
									l-1.699,0.988l1.711,0.988l-1.719,0.999l-3.441-1.987L355.692,298.657 M425.576,275.227l-23.495-13.566l-23.388,13.585
									l-2.055,1.194l-27.562-15.93l-0.013,0.008l-27.55-15.922l-27.575-15.921l-3.442-1.995l-0.689-0.397l-23.426-13.533
									l-0.006,0.004l-27.557-15.925l-7.77,4.516L368.9,280.937l-24.231,14.082l-9.223,5.36l23.501,13.569l54.184-31.489
									l-12.342-7.126l8.633-5.018l12.342,7.126L425.576,275.227"/>
								<path id="B1.03" fill="#CFD0D2" d="M317.786,274.404c-0.141-0.081-0.293-0.118-0.458-0.11c-0.153,0.007-0.318,0.059-0.483,0.154
									l-0.59,0.343l0.875,0.506l0.59-0.344c0.165-0.096,0.253-0.191,0.266-0.28C317.997,274.577,317.934,274.489,317.786,274.404
									 M319.655,275.292c-0.179-0.103-0.363-0.15-0.56-0.14c-0.197,0.012-0.4,0.077-0.617,0.203l-0.621,0.361l1.079,0.623
									l0.621-0.361c0.217-0.126,0.33-0.244,0.349-0.358C319.924,275.507,319.842,275.399,319.655,275.292 M328.132,269.442
									c-0.523-0.303-0.938-0.483-1.244-0.55s-0.573-0.029-0.802,0.104s-0.284,0.284-0.175,0.465
									c0.114,0.177,0.429,0.416,0.952,0.719c0.518,0.299,0.938,0.482,1.251,0.553c0.312,0.062,0.578,0.033,0.807-0.1
									s0.278-0.287,0.17-0.468C328.968,269.984,328.649,269.741,328.132,269.442 M319.06,274.544
									c0.292-0.088,0.592-0.121,0.897-0.092s0.586,0.125,0.841,0.272c0.402,0.232,0.563,0.479,0.494,0.749
									c-0.068,0.269-0.378,0.56-0.931,0.88l-1.757,1.021l-4.137-2.389l1.592-0.925c0.571-0.332,1.073-0.521,1.499-0.567
									c0.433-0.052,0.84,0.036,1.224,0.257c0.198,0.114,0.325,0.24,0.371,0.377C319.198,274.265,319.174,274.404,319.06,274.544
									 M318.802,272.697l0.753-0.667l1.009-0.587l3.403,1.965l0.938-0.545l0.734,0.424l-2.874,1.67l-0.734-0.424l0.933-0.542
									l-2.675-1.544l-0.76,0.67L318.802,272.697 M325.246,272.273l0.996-0.579l1.072,0.619l-0.996,0.579L325.246,272.273
									 M325.811,270.799c-0.689-0.398-1.074-0.789-1.146-1.176c-0.079-0.384,0.148-0.737,0.688-1.051s1.148-0.446,1.812-0.402
									c0.668,0.041,1.344,0.262,2.033,0.66c0.684,0.395,1.067,0.785,1.14,1.172c0.085,0.388-0.148,0.737-0.688,1.051
									c-0.539,0.313-1.143,0.45-1.811,0.402C327.17,271.414,326.494,271.193,325.811,270.799 M331.645,267.216
									c0.349-0.122,0.688-0.17,1.012-0.151c0.311,0.019,0.617,0.106,0.893,0.266c0.408,0.235,0.562,0.509,0.469,0.814
									c-0.101,0.303-0.448,0.63-1.045,0.978c-0.216,0.125-0.444,0.235-0.691,0.342c-0.248,0.101-0.509,0.192-0.781,0.277
									l-0.824-0.476c0.3-0.062,0.572-0.133,0.813-0.214c0.248-0.085,0.463-0.181,0.654-0.292c0.285-0.166,0.45-0.32,0.5-0.46
									c0.056-0.145-0.015-0.267-0.199-0.373s-0.408-0.147-0.656-0.114c-0.247,0.033-0.527,0.137-0.825,0.31l-0.426,0.247
									l-0.683-0.394l0.451-0.263c0.266-0.154,0.417-0.295,0.461-0.416c0.051-0.125-0.014-0.236-0.187-0.336
									c-0.159-0.092-0.344-0.125-0.56-0.103c-0.217,0.021-0.433,0.104-0.66,0.235c-0.172,0.1-0.324,0.21-0.464,0.336
									c-0.133,0.121-0.253,0.258-0.348,0.401l-0.785-0.453c0.151-0.154,0.316-0.303,0.487-0.438
									c0.185-0.137,0.361-0.262,0.564-0.38c0.533-0.31,1.022-0.49,1.467-0.542c0.439-0.048,0.834,0.026,1.191,0.232
									c0.242,0.14,0.377,0.291,0.403,0.453C331.904,266.865,331.828,267.035,331.645,267.216 M342.336,269.538l-14.895-8.601
									l-20.831,12.106l14.896,8.601L342.336,269.538"/>
								<polyline fill="#EC7405" points="247.187,214.6 227.656,203.323 206.825,215.429 226.355,226.705 247.187,214.6 								"/>
								<path id="B1.14" fill="#BDD4E4" d="M191.41,182.248c-0.147-0.085-0.3-0.122-0.453-0.114c-0.166,0.007-0.331,0.059-0.496,0.155
									l-0.59,0.343l0.875,0.505l0.59-0.343c0.165-0.096,0.253-0.192,0.272-0.284C191.614,182.417,191.55,182.329,191.41,182.248
									 M193.273,183.133c-0.179-0.104-0.364-0.151-0.561-0.141c-0.197,0.011-0.4,0.077-0.616,0.203l-0.622,0.361l1.085,0.626
									l0.622-0.361c0.216-0.126,0.33-0.244,0.342-0.362C193.542,183.347,193.458,183.239,193.273,183.133 M205.412,175.782
									l-1.73-0.999l0.57,1.673L205.412,175.782 M192.684,182.388c0.292-0.096,0.584-0.125,0.891-0.096
									c0.306,0.03,0.592,0.122,0.854,0.273c0.396,0.229,0.557,0.483,0.481,0.749c-0.069,0.269-0.378,0.56-0.93,0.881l-1.757,1.021
									l-4.137-2.389l1.592-0.925c0.571-0.332,1.073-0.52,1.505-0.572c0.426-0.047,0.833,0.041,1.216,0.262
									c0.198,0.114,0.326,0.239,0.372,0.375C192.815,182.104,192.791,182.244,192.684,182.388 M192.425,180.541l0.748-0.671
									l1.009-0.586l3.403,1.965l0.938-0.545l0.734,0.424l-2.873,1.669l-0.734-0.424l0.932-0.542l-2.675-1.545l-0.76,0.671
									L192.425,180.541 M198.863,180.113l0.996-0.579l1.072,0.62l-0.996,0.579L198.863,180.113 M197.924,177.345l0.754-0.674
									l1.008-0.586l3.403,1.965l0.933-0.542l0.734,0.424l-2.874,1.67l-0.734-0.424l0.938-0.545l-2.675-1.544l-0.767,0.674
									L197.924,177.345 M203.452,176.759l-0.828-2.381l1.18-0.686l2.611,1.507l0.59-0.343l0.773,0.446l-0.59,0.343l0.753,0.435
									l-1.002,0.583l-0.753-0.435l-1.82,1.058L203.452,176.759 M260.094,179.678l-64.012-36.959l-33.771,19.626l-23.635,13.736
									l64.012,36.959l31.297-18.188l-0.006-0.003l13.956-8.103L260.094,179.678"/>
								<path id="B1.08" fill="#CFD0D2" d="M261.04,241.64c-0.147-0.085-0.3-0.122-0.458-0.11c-0.16,0.003-0.324,0.055-0.49,0.15l-0.59,0.343
									l0.875,0.506l0.59-0.343c0.166-0.097,0.253-0.192,0.266-0.28C261.245,241.809,261.181,241.721,261.04,241.64
									 M262.903,242.524c-0.179-0.104-0.363-0.151-0.56-0.141c-0.197,0.012-0.4,0.077-0.617,0.203l-0.622,0.361l1.085,0.627
									l0.622-0.361c0.216-0.126,0.33-0.244,0.342-0.362C263.171,242.738,263.089,242.631,262.903,242.524 M271.379,236.674
									c-0.517-0.299-0.932-0.479-1.244-0.55c-0.306-0.066-0.572-0.028-0.801,0.104s-0.285,0.283-0.176,0.464
									c0.121,0.181,0.436,0.42,0.952,0.719c0.523,0.302,0.938,0.483,1.251,0.553c0.312,0.062,0.578,0.033,0.807-0.1
									s0.279-0.287,0.17-0.468C272.215,237.216,271.902,236.976,271.379,236.674 M273.942,234.067
									c-0.16-0.092-0.332-0.14-0.51-0.14c-0.185,0.004-0.349,0.055-0.514,0.151c-0.165,0.096-0.254,0.198-0.259,0.298
									c0,0.104,0.077,0.207,0.237,0.299c0.166,0.096,0.345,0.141,0.523,0.141s0.356-0.053,0.521-0.148
									c0.165-0.096,0.248-0.194,0.253-0.302C274.191,234.264,274.107,234.163,273.942,234.067 M275.844,235.062
									c-0.204-0.117-0.408-0.177-0.625-0.177c-0.21-0.003-0.419,0.052-0.617,0.166c-0.196,0.114-0.291,0.236-0.291,0.361
									s0.109,0.247,0.307,0.361c0.205,0.118,0.415,0.181,0.625,0.177c0.215,0,0.426-0.056,0.622-0.17
									c0.197-0.114,0.292-0.235,0.286-0.357C276.156,235.303,276.048,235.181,275.844,235.062 M262.314,241.779
									c0.286-0.092,0.585-0.125,0.89-0.096c0.306,0.029,0.586,0.125,0.848,0.276c0.396,0.229,0.563,0.479,0.487,0.745
									c-0.068,0.269-0.378,0.56-0.93,0.881l-1.757,1.021l-4.137-2.389l1.592-0.925c0.571-0.332,1.073-0.521,1.499-0.567
									c0.433-0.052,0.841,0.036,1.224,0.257c0.198,0.115,0.326,0.24,0.372,0.377C262.445,241.496,262.421,241.636,262.314,241.779
									 M262.055,239.933l0.747-0.671l1.009-0.587l3.403,1.965l0.938-0.545l0.734,0.424l-2.874,1.67l-0.734-0.424l0.932-0.542
									l-2.675-1.544l-0.759,0.671L262.055,239.933 M268.493,239.505l0.996-0.579l1.072,0.619l-0.996,0.579L268.493,239.505
									 M269.057,238.03c-0.689-0.398-1.073-0.789-1.145-1.176c-0.079-0.384,0.155-0.733,0.693-1.047
									c0.54-0.313,1.143-0.45,1.806-0.405c0.668,0.04,1.344,0.262,2.033,0.659c0.684,0.395,1.068,0.786,1.14,1.173
									c0.085,0.387-0.148,0.736-0.688,1.051c-0.539,0.312-1.142,0.449-1.811,0.401
									C270.417,238.646,269.741,238.425,269.057,238.03 M275.019,234.403c0.355-0.118,0.693-0.166,1.011-0.151
									c0.319,0.022,0.605,0.106,0.873,0.262c0.409,0.236,0.588,0.493,0.526,0.774c-0.062,0.272-0.36,0.571-0.893,0.881
									s-1.042,0.479-1.518,0.52c-0.484,0.037-0.936-0.062-1.345-0.299c-0.269-0.154-0.415-0.32-0.448-0.508
									c-0.033-0.181,0.048-0.377,0.251-0.583c-0.325,0.1-0.63,0.144-0.91,0.129c-0.287-0.019-0.548-0.096-0.778-0.229
									c-0.352-0.203-0.486-0.436-0.405-0.689c0.068-0.254,0.36-0.527,0.861-0.818s0.965-0.457,1.404-0.505
									c0.445-0.045,0.84,0.037,1.191,0.239c0.229,0.133,0.365,0.284,0.397,0.45C275.265,234.038,275.19,234.215,275.019,234.403
									 M285.246,236.574l-14.889-8.597l-20.831,12.106l14.889,8.597L285.246,236.574"/>
								<path id="B1.07" fill="#CFD0D2" d="M280.193,252.699c-0.146-0.085-0.299-0.122-0.458-0.111c-0.16,0.004-0.324,0.056-0.49,0.151
									l-0.59,0.343l0.875,0.505l0.59-0.343c0.166-0.096,0.253-0.191,0.266-0.28C280.398,252.868,280.334,252.78,280.193,252.699
									 M282.057,253.583c-0.179-0.103-0.363-0.15-0.56-0.14c-0.197,0.011-0.401,0.077-0.617,0.203l-0.622,0.36l1.085,0.627
									l0.622-0.361c0.216-0.125,0.33-0.243,0.342-0.361C282.325,253.797,282.243,253.69,282.057,253.583 M290.533,247.732
									c-0.517-0.298-0.932-0.479-1.244-0.549c-0.306-0.066-0.573-0.029-0.801,0.104s-0.285,0.283-0.175,0.464
									c0.121,0.181,0.435,0.421,0.952,0.719c0.524,0.303,0.938,0.483,1.251,0.554c0.312,0.062,0.578,0.033,0.807-0.1
									s0.279-0.287,0.17-0.469C291.369,248.274,291.057,248.035,290.533,247.732 M281.468,252.839
									c0.285-0.092,0.585-0.126,0.89-0.096c0.306,0.029,0.585,0.125,0.848,0.276c0.396,0.229,0.563,0.479,0.487,0.744
									c-0.068,0.27-0.378,0.561-0.93,0.881l-1.757,1.021l-4.137-2.389l1.592-0.926c0.571-0.332,1.073-0.52,1.499-0.567
									c0.433-0.052,0.842,0.037,1.224,0.258c0.198,0.114,0.326,0.24,0.372,0.376C281.599,252.555,281.575,252.695,281.468,252.839
									 M281.209,250.991l0.747-0.671l1.009-0.586l3.403,1.965l0.939-0.546l0.734,0.425l-2.874,1.67l-0.734-0.425l0.932-0.541
									l-2.675-1.545l-0.759,0.671L281.209,250.991 M287.647,250.564l0.996-0.579l1.072,0.619l-0.996,0.579L287.647,250.564
									 M288.211,249.089c-0.689-0.397-1.073-0.788-1.145-1.175c-0.079-0.384,0.155-0.734,0.693-1.047
									c0.54-0.314,1.143-0.45,1.806-0.406c0.668,0.041,1.344,0.262,2.033,0.66c0.684,0.395,1.068,0.785,1.14,1.172
									c0.085,0.388-0.148,0.737-0.688,1.051c-0.539,0.313-1.143,0.45-1.811,0.402
									C289.571,249.705,288.895,249.484,288.211,249.089 M289.885,245.713l3.102-1.803l0.601,0.347l1.932,2.975l-1.034,0.601
									l-1.835-2.816l-1.979,1.15L289.885,245.713 M304.278,247.563l-14.896-8.601l-20.831,12.106l14.896,8.601L304.278,247.563"/>
								<path fill="#FFFFFF" d="M128.419,129.997l0.583-0.339c0.165-0.096,0.324-0.151,0.489-0.159
									c0.159-0.003,0.312,0.033,0.452,0.114c0.147,0.085,0.211,0.173,0.199,0.262c-0.012,0.096-0.1,0.191-0.266,0.288
									l-0.583,0.339L128.419,129.997 M130.016,130.918l0.622-0.361c0.209-0.122,0.419-0.192,0.616-0.203
									c0.191-0.007,0.388,0.041,0.567,0.144c0.179,0.104,0.262,0.218,0.244,0.332c-0.019,0.114-0.133,0.233-0.342,0.354
									l-0.622,0.361L130.016,130.918 M132.962,129.931c-0.261-0.151-0.542-0.24-0.847-0.27c-0.299-0.033-0.604-0.004-0.897,0.092
									c0.107-0.144,0.138-0.28,0.093-0.417c-0.045-0.137-0.174-0.262-0.378-0.379c-0.383-0.221-0.784-0.306-1.21-0.258
									c-0.438,0.048-0.934,0.239-1.505,0.571l-1.592,0.925l4.137,2.389l1.764-1.025c0.546-0.317,0.855-0.608,0.924-0.877
									C133.526,130.409,133.365,130.163,132.962,129.931"/>
								<polyline fill="#FFFFFF" points="137.798,128.497 137.057,128.069 136.125,128.61 132.729,126.649 131.719,127.236
									130.96,127.906 131.688,128.327 132.454,127.652 135.123,129.193 134.184,129.739 134.925,130.166 137.798,128.497
									"/>
								<polyline fill="#FFFFFF" points="139.472,127.523 138.399,126.904 137.41,127.479 138.483,128.098 139.472,127.523
									"/>
								<polyline fill="#FFFFFF" points="143.297,125.3 142.557,124.873 141.625,125.415 138.228,123.453 137.219,124.04
									136.459,124.71 137.187,125.131 137.954,124.456 140.623,125.997 139.684,126.542 140.424,126.97 143.297,125.3 								"/>
								<path fill="#FFFFFF" d="M143.574,123.616c-0.243-0.14-0.383-0.273-0.41-0.398c-0.026-0.126,0.056-0.24,0.24-0.347
									c0.184-0.106,0.381-0.155,0.598-0.14c0.217,0.015,0.446,0.096,0.689,0.236c0.242,0.14,0.376,0.269,0.403,0.395
									c0.026,0.125-0.056,0.24-0.24,0.347s-0.381,0.155-0.598,0.14C144.04,123.833,143.817,123.756,143.574,123.616
									 M145.642,122.333c-0.402-0.232-0.854-0.347-1.364-0.339c-0.503,0.011-0.966,0.133-1.385,0.376
									c-0.171,0.1-0.298,0.203-0.393,0.31s-0.158,0.225-0.189,0.346c-0.32-0.213-0.48-0.431-0.481-0.63
									c-0.001-0.207,0.157-0.402,0.474-0.586c0.146-0.084,0.324-0.158,0.514-0.225c0.19-0.066,0.419-0.125,0.674-0.177
									l-0.767-0.442c-0.229,0.066-0.451,0.144-0.661,0.229c-0.209,0.085-0.406,0.185-0.597,0.295
									c-0.596,0.346-0.868,0.733-0.82,1.157c0.047,0.424,0.412,0.833,1.095,1.228c0.67,0.387,1.334,0.593,1.989,0.634
									c0.656,0.041,1.247-0.096,1.78-0.406c0.488-0.284,0.735-0.583,0.765-0.903C146.294,122.878,146.082,122.587,145.642,122.333
									"/>
								<path fill="#FFFFFF" d="M156.792,146.379l0.583-0.339c0.166-0.096,0.33-0.147,0.496-0.155
									c0.152-0.008,0.305,0.03,0.452,0.114c0.14,0.081,0.205,0.169,0.199,0.262c-0.019,0.092-0.107,0.188-0.272,0.284
									l-0.584,0.339L156.792,146.379 M158.395,147.304l0.622-0.361c0.209-0.122,0.419-0.192,0.616-0.203
									c0.191-0.007,0.382,0.037,0.561,0.141c0.185,0.106,0.262,0.217,0.244,0.331c-0.012,0.118-0.126,0.236-0.335,0.358
									l-0.622,0.361L158.395,147.304 M161.342,146.316c-0.262-0.151-0.548-0.243-0.854-0.273c-0.299-0.033-0.598,0-0.891,0.096
									c0.107-0.144,0.132-0.284,0.087-0.421c-0.045-0.136-0.174-0.261-0.372-0.375c-0.383-0.221-0.791-0.31-1.217-0.262
									c-0.432,0.051-0.933,0.239-1.504,0.571L155,146.578l4.137,2.389l1.763-1.024c0.546-0.317,0.855-0.608,0.924-0.877
									C161.905,146.795,161.738,146.545,161.342,146.316"/>
								<polyline fill="#FFFFFF" points="166.171,144.879 165.437,144.455 164.504,144.997 161.102,143.032 160.093,143.618
									159.339,144.292 160.061,144.709 160.827,144.034 163.502,145.579 162.563,146.125 163.298,146.549 166.171,144.879
																	"/>
								<polyline fill="#FFFFFF" points="167.846,143.906 166.772,143.286 165.784,143.861 166.856,144.48 167.846,143.906
									"/>
								<polyline fill="#FFFFFF" points="171.67,141.683 170.936,141.259 170.004,141.801 166.601,139.836 165.592,140.422
									164.839,141.096 165.56,141.513 166.327,140.838 169.002,142.383 168.063,142.929 168.797,143.353 171.67,141.683
									"/>
								<path fill="#FFFFFF" d="M173.964,138.789c-0.453-0.262-0.943-0.384-1.472-0.365c-0.534,0.015-1.049,0.173-1.55,0.465
									c-0.089,0.051-0.165,0.103-0.241,0.154c-0.07,0.056-0.133,0.115-0.19,0.17l-0.639-0.369l1.789-1.04l-0.785-0.454
									l-2.639,1.534l2.33,1.346c0.121-0.166,0.24-0.31,0.374-0.432c0.133-0.122,0.279-0.229,0.431-0.317
									c0.253-0.147,0.521-0.229,0.794-0.247c0.273-0.011,0.522,0.044,0.739,0.169c0.217,0.125,0.314,0.27,0.289,0.424
									c-0.024,0.163-0.164,0.317-0.417,0.465c-0.177,0.103-0.399,0.195-0.667,0.276c-0.261,0.078-0.572,0.147-0.928,0.199
									l0.843,0.486c0.311-0.077,0.609-0.169,0.882-0.276s0.533-0.229,0.762-0.361c0.546-0.317,0.837-0.634,0.886-0.958
									C174.61,139.338,174.411,139.047,173.964,138.789"/>
								<path fill="#FFFFFF" d="M189.872,182.631l0.59-0.343c0.165-0.096,0.33-0.148,0.496-0.155
									c0.153-0.008,0.306,0.029,0.453,0.114c0.14,0.081,0.204,0.169,0.199,0.262c-0.019,0.092-0.107,0.188-0.272,0.284
									l-0.59,0.343L189.872,182.631 M191.475,183.557l0.622-0.361c0.216-0.126,0.419-0.192,0.616-0.203
									c0.197-0.011,0.382,0.037,0.561,0.141c0.185,0.106,0.268,0.214,0.25,0.328c-0.012,0.118-0.126,0.236-0.342,0.362
									l-0.622,0.361L191.475,183.557 M194.428,182.565c-0.262-0.151-0.548-0.243-0.854-0.273c-0.306-0.029-0.598,0-0.891,0.096
									c0.107-0.144,0.132-0.284,0.087-0.42c-0.045-0.136-0.174-0.261-0.372-0.375c-0.383-0.221-0.791-0.31-1.216-0.262
									c-0.433,0.052-0.934,0.24-1.505,0.572l-1.592,0.925l4.137,2.389l1.757-1.021c0.552-0.321,0.861-0.612,0.93-0.881
									C194.985,183.048,194.824,182.793,194.428,182.565"/>
								<polyline fill="#FFFFFF" points="199.257,181.127 198.522,180.703 197.584,181.249 194.181,179.284 193.172,179.87
									192.425,180.541 193.146,180.958 193.906,180.287 196.581,181.832 195.649,182.373 196.384,182.797 199.257,181.127
																	"/>
								<polyline fill="#FFFFFF" points="200.932,180.154 199.859,179.534 198.863,180.113 199.936,180.732 200.932,180.154
																	"/>
								<polyline fill="#FFFFFF" points="204.757,177.931 204.022,177.507 203.09,178.049 199.687,176.084 198.679,176.67
									197.924,177.345 198.646,177.761 199.413,177.087 202.087,178.631 201.149,179.177 201.883,179.601 204.757,177.931
																	"/>
								<path fill="#FFFFFF" d="M204.252,176.456l-0.57-1.673l1.73,0.999L204.252,176.456 M207.777,175.303l-0.773-0.446
									l-0.59,0.343l-2.611-1.507l-1.18,0.686l0.828,2.381l0.913,0.527l1.82-1.058l0.753,0.435l1.002-0.583l-0.753-0.435
									L207.777,175.303"/>
								<path fill="#FFFFFF" d="M256.078,198.811l0.59-0.343c0.165-0.096,0.33-0.147,0.489-0.158
									c0.159-0.004,0.312,0.033,0.452,0.114c0.147,0.085,0.212,0.173,0.206,0.266c-0.019,0.092-0.107,0.188-0.272,0.284
									l-0.59,0.343L256.078,198.811 M257.68,199.736l0.622-0.361c0.216-0.126,0.419-0.192,0.617-0.203
									c0.197-0.011,0.382,0.037,0.561,0.14c0.185,0.107,0.269,0.214,0.25,0.328c-0.019,0.114-0.132,0.232-0.349,0.358
									l-0.622,0.361L257.68,199.736 M260.627,198.741c-0.255-0.147-0.542-0.24-0.847-0.269c-0.306-0.029-0.599,0-0.897,0.092
									c0.113-0.14,0.138-0.28,0.093-0.417c-0.045-0.137-0.174-0.262-0.372-0.376c-0.383-0.221-0.791-0.31-1.217-0.262
									c-0.432,0.052-0.934,0.24-1.505,0.572l-1.592,0.925l4.137,2.389l1.757-1.021c0.552-0.321,0.861-0.612,0.93-0.881
									C261.184,199.224,261.029,198.973,260.627,198.741"/>
								<polyline fill="#FFFFFF" points="265.462,197.307 264.728,196.883 263.789,197.428 260.386,195.464 259.377,196.05
									258.624,196.717 259.352,197.137 260.111,196.466 262.787,198.011 261.854,198.553 262.589,198.977 265.462,197.307
																	"/>
								<polyline fill="#FFFFFF" points="267.137,196.333 266.064,195.714 265.068,196.293 266.141,196.913 267.137,196.333
																	"/>
								<polyline fill="#FFFFFF" points="270.962,194.11 270.228,193.687 269.295,194.229 265.892,192.264 264.883,192.85
									264.124,193.521 264.852,193.941 265.618,193.267 268.293,194.811 267.354,195.356 268.088,195.781 270.962,194.11
									"/>
								<path fill="#FFFFFF" d="M274.501,192.054l-0.786-0.454l-1.808,1.05l0.103-0.954c0.049-0.406,0.028-0.697-0.049-0.881
									c-0.078-0.177-0.231-0.332-0.461-0.464c-0.389-0.225-0.829-0.317-1.319-0.284c-0.496,0.03-0.985,0.188-1.474,0.472
									c-0.228,0.133-0.431,0.28-0.621,0.435c-0.19,0.162-0.367,0.332-0.525,0.52l0.907,0.523c0.082-0.21,0.182-0.394,0.309-0.549
									c0.126-0.155,0.278-0.28,0.443-0.376c0.216-0.125,0.444-0.191,0.686-0.199c0.255-0.008,0.471,0.044,0.669,0.158
									c0.122,0.07,0.211,0.159,0.269,0.266c0.052,0.103,0.065,0.229,0.06,0.379l-0.176,1.641l0.786,0.454L274.501,192.054"/>
								<path fill="#FFFFFF" d="M283.742,214.784l0.59-0.343c0.165-0.096,0.33-0.147,0.496-0.155
									c0.159-0.004,0.312,0.033,0.452,0.114c0.141,0.082,0.205,0.17,0.199,0.262c-0.012,0.096-0.107,0.188-0.272,0.284
									l-0.59,0.343L283.742,214.784 M285.344,215.709l0.622-0.361c0.216-0.125,0.419-0.191,0.617-0.202
									c0.196-0.011,0.381,0.036,0.56,0.14c0.185,0.106,0.268,0.214,0.256,0.332c-0.019,0.114-0.132,0.232-0.348,0.357
									l-0.622,0.361L285.344,215.709 M288.298,214.718c-0.262-0.151-0.542-0.239-0.854-0.272c-0.306-0.029-0.598,0-0.891,0.095
									c0.107-0.144,0.139-0.279,0.087-0.42c-0.046-0.136-0.168-0.258-0.372-0.376c-0.383-0.221-0.784-0.306-1.216-0.262
									c-0.433,0.052-0.928,0.243-1.5,0.575l-1.592,0.925l4.137,2.389l1.757-1.021c0.552-0.321,0.855-0.615,0.93-0.881
									C288.855,215.2,288.694,214.946,288.298,214.718"/>
								<polyline fill="#FFFFFF" points="293.133,213.283 292.392,212.855 291.453,213.401 288.057,211.44 287.048,212.026
									286.295,212.693 287.017,213.11 287.776,212.439 290.451,213.984 289.519,214.525 290.26,214.953 293.133,213.283
									"/>
								<polyline fill="#FFFFFF" points="294.807,212.311 293.735,211.691 292.739,212.27 293.812,212.889 294.807,212.311
									"/>
								<path fill="#FFFFFF" d="M294.35,210.172c-0.517-0.298-0.831-0.539-0.946-0.715c-0.109-0.181-0.06-0.335,0.169-0.468
									s0.502-0.166,0.808-0.1c0.306,0.066,0.721,0.247,1.238,0.545c0.524,0.303,0.843,0.546,0.959,0.723
									c0.116,0.184,0.059,0.335-0.17,0.468c-0.228,0.133-0.489,0.166-0.807,0.1C295.294,210.659,294.874,210.475,294.35,210.172
									 M296.685,208.823c-0.684-0.395-1.359-0.616-2.033-0.66c-0.663-0.044-1.267,0.092-1.806,0.406
									c-0.539,0.313-0.773,0.664-0.694,1.047c0.078,0.391,0.462,0.781,1.146,1.176c0.684,0.395,1.36,0.616,2.034,0.66
									c0.663,0.045,1.267-0.092,1.805-0.405c0.54-0.313,0.773-0.664,0.694-1.047C297.752,209.608,297.368,209.218,296.685,208.823
									"/>
								<path fill="#FFFFFF" d="M297.238,207.636c-0.236-0.136-0.377-0.269-0.403-0.394c-0.026-0.125,0.056-0.24,0.24-0.347
									s0.381-0.155,0.598-0.14c0.216,0.015,0.445,0.096,0.682,0.232c0.243,0.14,0.384,0.273,0.41,0.398
									c0.026,0.125-0.056,0.24-0.24,0.347c-0.184,0.107-0.381,0.155-0.597,0.14C297.71,207.857,297.48,207.776,297.238,207.636
									 M300.186,206.729c-0.664-0.383-1.333-0.593-1.989-0.634c-0.655-0.04-1.253,0.1-1.786,0.41
									c-0.482,0.28-0.735,0.583-0.752,0.903c-0.018,0.32,0.188,0.608,0.635,0.866c0.402,0.232,0.854,0.346,1.364,0.339
									c0.502-0.012,0.966-0.133,1.385-0.376c0.165-0.096,0.298-0.203,0.394-0.31c0.094-0.107,0.157-0.225,0.188-0.354
									c0.319,0.221,0.474,0.435,0.475,0.634c0.001,0.207-0.157,0.402-0.475,0.586c-0.146,0.084-0.316,0.163-0.521,0.229
									c-0.19,0.066-0.406,0.125-0.661,0.177l0.766,0.442c0.229-0.066,0.445-0.14,0.648-0.229c0.203-0.081,0.399-0.181,0.596-0.295
									c0.597-0.347,0.875-0.73,0.821-1.158C301.233,207.533,300.869,207.124,300.186,206.729"/>
								<path fill="#FFFFFF" d="M310.698,230.348l0.59-0.343c0.165-0.096,0.329-0.147,0.495-0.154
									c0.159-0.004,0.312,0.033,0.452,0.114c0.147,0.085,0.211,0.173,0.199,0.262c-0.013,0.096-0.101,0.191-0.266,0.287
									l-0.59,0.343L310.698,230.348 M312.3,231.273l0.622-0.361c0.216-0.126,0.419-0.191,0.617-0.203
									c0.196-0.011,0.381,0.037,0.566,0.144c0.178,0.104,0.268,0.214,0.25,0.328c-0.019,0.114-0.132,0.232-0.348,0.358
									l-0.622,0.361L312.3,231.273 M315.254,230.281c-0.262-0.15-0.542-0.239-0.848-0.269c-0.307-0.029-0.604-0.004-0.897,0.092
									c0.107-0.144,0.139-0.279,0.094-0.417c-0.046-0.136-0.174-0.261-0.378-0.379c-0.384-0.222-0.784-0.307-1.21-0.259
									c-0.439,0.048-0.935,0.24-1.506,0.571l-1.592,0.926l4.137,2.389l1.758-1.021c0.552-0.32,0.855-0.615,0.93-0.881
									C315.811,230.765,315.649,230.511,315.254,230.281"/>
								<polyline fill="#FFFFFF" points="320.089,228.848 319.348,228.42 318.409,228.966 315.013,227.004 314.004,227.591
									313.251,228.258 313.979,228.678 314.731,228.004 317.406,229.548 316.475,230.09 317.215,230.518 320.089,228.848
									"/>
								<polyline fill="#FFFFFF" points="321.763,227.874 320.69,227.255 319.695,227.834 320.768,228.453 321.763,227.874
									"/>
								<path fill="#FFFFFF" d="M321.306,225.736c-0.517-0.299-0.83-0.538-0.946-0.715c-0.108-0.181-0.059-0.336,0.17-0.469
									s0.502-0.166,0.808-0.1s0.721,0.247,1.237,0.546c0.524,0.302,0.843,0.545,0.959,0.723c0.115,0.185,0.065,0.339-0.163,0.472
									c-0.228,0.133-0.495,0.162-0.813,0.096C322.25,226.223,321.829,226.039,321.306,225.736 M323.641,224.387
									c-0.684-0.395-1.359-0.615-2.033-0.659c-0.663-0.045-1.267,0.092-1.806,0.405s-0.773,0.663-0.694,1.047
									c0.078,0.391,0.462,0.781,1.146,1.176c0.689,0.398,1.365,0.619,2.033,0.66c0.663,0.044,1.267-0.093,1.806-0.405
									c0.539-0.313,0.773-0.664,0.694-1.048C324.714,225.176,324.33,224.785,323.641,224.387"/>
								<path fill="#FFFFFF" d="M325.865,223.967c-0.242-0.14-0.384-0.273-0.409-0.398c-0.033-0.121,0.049-0.235,0.239-0.347
									c0.184-0.106,0.381-0.154,0.598-0.14c0.21,0.019,0.446,0.096,0.688,0.236c0.236,0.136,0.371,0.272,0.403,0.395
									c0.026,0.125-0.057,0.239-0.24,0.346c-0.19,0.111-0.387,0.158-0.597,0.141C326.331,224.185,326.102,224.104,325.865,223.967
									 M327.934,222.684c-0.403-0.232-0.862-0.343-1.365-0.339c-0.502,0.011-0.966,0.133-1.391,0.38
									c-0.165,0.096-0.292,0.199-0.394,0.31c-0.095,0.106-0.157,0.225-0.188,0.347c-0.319-0.222-0.479-0.432-0.475-0.634
									c-0.001-0.207,0.15-0.398,0.468-0.583c0.146-0.085,0.317-0.162,0.515-0.225c0.196-0.07,0.419-0.133,0.673-0.185l-0.76-0.438
									c-0.235,0.062-0.458,0.14-0.66,0.229c-0.21,0.084-0.407,0.185-0.597,0.295c-0.597,0.347-0.874,0.73-0.82,1.157
									c0.046,0.424,0.411,0.833,1.095,1.228c0.67,0.387,1.327,0.598,1.982,0.639c0.655,0.04,1.253-0.101,1.786-0.41
									c0.482-0.28,0.734-0.582,0.766-0.902C328.585,223.229,328.373,222.938,327.934,222.684"/>
								<path fill="#FFFFFF" d="M338.369,246.325l0.59-0.343c0.165-0.097,0.329-0.148,0.489-0.159
									c0.158-0.004,0.312,0.033,0.452,0.114c0.146,0.085,0.211,0.174,0.205,0.266c-0.02,0.092-0.106,0.188-0.271,0.284
									l-0.591,0.343L338.369,246.325 M339.971,247.25l0.622-0.361c0.216-0.125,0.419-0.191,0.616-0.203
									c0.197-0.011,0.382,0.037,0.561,0.141c0.186,0.107,0.269,0.214,0.25,0.328s-0.132,0.232-0.348,0.357l-0.621,0.361
									L339.971,247.25 M342.918,246.255c-0.256-0.147-0.542-0.239-0.848-0.27c-0.306-0.029-0.598,0-0.896,0.093
									c0.113-0.141,0.139-0.28,0.094-0.417c-0.046-0.137-0.175-0.262-0.373-0.376c-0.382-0.221-0.79-0.31-1.216-0.262
									c-0.433,0.052-0.935,0.239-1.506,0.571l-1.592,0.925l4.138,2.39l1.757-1.021c0.552-0.321,0.862-0.611,0.93-0.881
									C343.476,246.737,343.32,246.487,342.918,246.255"/>
								<polyline fill="#FFFFFF" points="347.753,244.82 347.019,244.396 346.08,244.942 342.677,242.978 341.668,243.563
									340.915,244.23 341.644,244.651 342.402,243.98 345.077,245.524 344.146,246.066 344.88,246.49 347.753,244.82 								"/>
								<polyline fill="#FFFFFF" points="349.428,243.848 348.355,243.229 347.359,243.807 348.432,244.426 349.428,243.848
																	"/>
								<path fill="#FFFFFF" d="M348.971,241.709c-0.518-0.298-0.831-0.538-0.946-0.715c-0.109-0.181-0.053-0.332,0.176-0.464
									c0.229-0.133,0.495-0.17,0.801-0.104s0.722,0.247,1.238,0.545c0.523,0.303,0.843,0.546,0.965,0.727
									c0.109,0.181,0.059,0.335-0.17,0.468c-0.228,0.133-0.495,0.163-0.807,0.101
									C349.915,242.195,349.494,242.012,348.971,241.709 M351.312,240.364c-0.69-0.398-1.366-0.62-2.034-0.66
									c-0.662-0.045-1.272,0.089-1.812,0.402c-0.539,0.312-0.767,0.667-0.688,1.05c0.071,0.387,0.456,0.778,1.146,1.177
									c0.684,0.394,1.359,0.615,2.027,0.655c0.662,0.045,1.272-0.088,1.812-0.401s0.767-0.667,0.688-1.051
									C352.379,241.149,351.994,240.759,351.312,240.364"/>
								<path fill="#FFFFFF" d="M352.748,240.15l-0.569-1.674l1.73,0.999L352.748,240.15 M356.273,238.996l-0.771-0.446
									l-0.591,0.344l-2.611-1.509l-1.18,0.686l0.828,2.382l0.913,0.527l1.82-1.058l0.753,0.435l1.002-0.582l-0.753-0.436
									L356.273,238.996"/>
								<path fill="#FFFFFF" d="M366.391,262.504l0.59-0.342c0.165-0.097,0.33-0.148,0.489-0.159
									c0.159-0.004,0.312,0.033,0.452,0.114c0.147,0.085,0.211,0.173,0.199,0.262c-0.013,0.096-0.101,0.191-0.266,0.288
									l-0.59,0.343L366.391,262.504 M367.993,263.43l0.621-0.361c0.217-0.126,0.42-0.191,0.617-0.203
									c0.196-0.011,0.382,0.037,0.56,0.141c0.18,0.103,0.269,0.214,0.251,0.328c-0.019,0.114-0.132,0.232-0.349,0.357
									l-0.621,0.361L367.993,263.43 M370.94,262.435c-0.263-0.151-0.542-0.239-0.848-0.27c-0.306-0.029-0.598,0-0.897,0.092
									c0.107-0.144,0.139-0.279,0.094-0.416c-0.046-0.137-0.174-0.262-0.378-0.38c-0.377-0.217-0.784-0.306-1.21-0.258
									c-0.433,0.051-0.935,0.239-1.506,0.571l-1.592,0.925l4.137,2.389l1.758-1.021c0.552-0.321,0.861-0.611,0.93-0.881
									C371.497,262.917,371.343,262.667,370.94,262.435"/>
								<polyline fill="#FFFFFF" points="375.775,261 375.041,260.576 374.102,261.122 370.699,259.157 369.69,259.743
									368.938,260.41 369.665,260.831 370.425,260.16 373.1,261.704 372.168,262.246 372.902,262.67 375.775,261 								"/>
								<polyline fill="#FFFFFF" points="377.449,260.027 376.377,259.408 375.381,259.986 376.454,260.605 377.449,260.027
																	"/>
								<path fill="#FFFFFF" d="M376.992,257.889c-0.517-0.298-0.83-0.538-0.946-0.715c-0.108-0.181-0.059-0.336,0.169-0.468
									c0.229-0.133,0.503-0.166,0.809-0.1s0.721,0.247,1.237,0.545c0.524,0.303,0.843,0.546,0.959,0.723
									c0.116,0.185,0.065,0.34-0.163,0.473c-0.228,0.132-0.495,0.162-0.813,0.096
									C377.937,258.375,377.516,258.191,376.992,257.889 M379.334,256.544c-0.69-0.398-1.366-0.62-2.034-0.66
									c-0.669-0.048-1.272,0.089-1.812,0.401c-0.539,0.313-0.773,0.664-0.688,1.051c0.072,0.387,0.456,0.778,1.146,1.176
									c0.683,0.395,1.358,0.616,2.026,0.656c0.663,0.045,1.273-0.088,1.812-0.401c0.54-0.313,0.768-0.667,0.688-1.051
									C380.4,257.329,380.017,256.938,379.334,256.544"/>
								<polyline fill="#FFFFFF" points="384.916,255.688 384.182,255.264 383.249,255.806 379.846,253.841 378.837,254.428
									378.078,255.099 378.806,255.519 379.572,254.844 382.247,256.389 381.308,256.934 382.042,257.358 384.916,255.688
																	"/>
								<path fill="#FFFFFF" d="M259.502,242.022l0.59-0.343c0.166-0.096,0.33-0.147,0.49-0.15c0.159-0.012,0.312,0.025,0.458,0.11
									c0.141,0.081,0.205,0.169,0.192,0.266c-0.013,0.088-0.1,0.184-0.266,0.28l-0.59,0.343L259.502,242.022 M261.104,242.948
									l0.622-0.361c0.216-0.126,0.419-0.191,0.617-0.203c0.197-0.011,0.381,0.037,0.56,0.141c0.186,0.106,0.269,0.214,0.25,0.327
									c-0.012,0.118-0.125,0.236-0.342,0.362l-0.622,0.361L261.104,242.948 M264.052,241.96c-0.262-0.151-0.542-0.247-0.848-0.276
									c-0.305-0.029-0.604,0.004-0.89,0.096c0.107-0.144,0.131-0.283,0.087-0.42c-0.046-0.137-0.173-0.262-0.372-0.377
									c-0.383-0.221-0.791-0.309-1.224-0.257c-0.426,0.047-0.928,0.235-1.499,0.567l-1.592,0.925l4.137,2.389l1.757-1.021
									c0.552-0.321,0.861-0.612,0.93-0.881C264.615,242.439,264.448,242.188,264.052,241.96"/>
								<polyline fill="#FFFFFF" points="268.887,240.519 268.152,240.095 267.214,240.64 263.811,238.675 262.802,239.262
									262.055,239.933 262.777,240.35 263.536,239.679 266.211,241.223 265.279,241.765 266.013,242.188 268.887,240.519
									"/>
								<polyline fill="#FFFFFF" points="270.562,239.545 269.489,238.926 268.493,239.505 269.565,240.124 270.562,239.545
																	"/>
								<path fill="#FFFFFF" d="M270.11,237.411c-0.517-0.299-0.831-0.538-0.952-0.719c-0.109-0.181-0.053-0.331,0.176-0.464
									s0.495-0.171,0.801-0.104c0.312,0.07,0.728,0.251,1.244,0.55c0.523,0.302,0.836,0.542,0.959,0.723
									c0.109,0.181,0.059,0.335-0.17,0.468s-0.495,0.162-0.807,0.1C271.048,237.895,270.634,237.713,270.11,237.411
									 M272.444,236.062c-0.689-0.397-1.365-0.619-2.033-0.659c-0.663-0.045-1.266,0.092-1.806,0.405
									c-0.539,0.313-0.772,0.663-0.693,1.047c0.072,0.387,0.456,0.777,1.145,1.176c0.684,0.395,1.36,0.616,2.028,0.656
									c0.669,0.048,1.272-0.089,1.811-0.401c0.54-0.314,0.773-0.664,0.688-1.051C273.512,236.848,273.128,236.456,272.444,236.062
									"/>
								<path fill="#FFFFFF" d="M272.895,234.676c-0.16-0.092-0.236-0.195-0.237-0.299c0.005-0.1,0.095-0.202,0.259-0.298
									c0.165-0.097,0.33-0.147,0.514-0.151c0.178,0,0.35,0.048,0.51,0.14c0.166,0.096,0.249,0.196,0.25,0.299
									c-0.005,0.107-0.088,0.206-0.253,0.302c-0.165,0.096-0.342,0.148-0.521,0.148S273.061,234.771,272.895,234.676
									 M274.619,235.774c-0.198-0.114-0.307-0.236-0.307-0.361s0.095-0.247,0.291-0.361c0.197-0.114,0.407-0.169,0.617-0.166
									c0.216,0,0.42,0.06,0.625,0.177c0.204,0.118,0.312,0.24,0.308,0.361c0.006,0.122-0.088,0.243-0.286,0.357
									c-0.196,0.114-0.406,0.17-0.622,0.17C275.034,235.955,274.824,235.893,274.619,235.774 M276.903,234.514
									c-0.268-0.155-0.554-0.239-0.873-0.262c-0.318-0.015-0.656,0.033-1.011,0.151c0.171-0.188,0.246-0.365,0.22-0.527
									c-0.033-0.166-0.168-0.317-0.397-0.45c-0.352-0.202-0.746-0.284-1.191-0.239c-0.439,0.048-0.903,0.214-1.404,0.505
									s-0.792,0.564-0.861,0.818c-0.081,0.254,0.053,0.486,0.405,0.689c0.23,0.133,0.491,0.21,0.778,0.229
									c0.28,0.015,0.585-0.029,0.91-0.129c-0.204,0.206-0.285,0.402-0.251,0.583c0.033,0.188,0.18,0.354,0.448,0.508
									c0.409,0.236,0.861,0.336,1.345,0.299c0.476-0.04,0.985-0.21,1.518-0.52s0.83-0.608,0.893-0.881
									C277.492,235.007,277.312,234.75,276.903,234.514"/>
								<path fill="#FFFFFF" d="M239.991,230.757l0.59-0.343c0.166-0.096,0.33-0.147,0.489-0.151
									c0.166-0.007,0.318,0.03,0.458,0.111c0.146,0.085,0.211,0.173,0.193,0.266c-0.006,0.092-0.094,0.188-0.26,0.283l-0.59,0.343
									L239.991,230.757 M241.593,231.683l0.622-0.361c0.216-0.126,0.419-0.192,0.616-0.203c0.197-0.011,0.382,0.037,0.567,0.144
									c0.179,0.104,0.268,0.214,0.25,0.328c-0.019,0.114-0.132,0.232-0.348,0.358l-0.622,0.361L241.593,231.683 M244.541,230.694
									c-0.262-0.151-0.536-0.243-0.841-0.272c-0.306-0.03-0.611,0-0.897,0.092c0.107-0.144,0.138-0.28,0.093-0.416
									c-0.045-0.137-0.173-0.263-0.377-0.38c-0.383-0.222-0.785-0.306-1.217-0.255c-0.433,0.044-0.928,0.236-1.499,0.568
									l-1.592,0.925l4.137,2.389l1.757-1.021c0.552-0.32,0.856-0.615,0.93-0.881C245.104,231.174,244.937,230.923,244.541,230.694
									"/>
								<polyline fill="#FFFFFF" points="249.382,229.257 248.642,228.829 247.703,229.375 244.306,227.413 243.297,228
									242.544,228.667 243.272,229.087 244.025,228.413 246.7,229.957 245.768,230.499 246.508,230.927 249.382,229.257
									"/>
								<polyline fill="#FFFFFF" points="251.057,228.283 249.984,227.664 248.988,228.243 250.061,228.862 251.057,228.283
																	"/>
								<polyline fill="#FFFFFF" points="254.881,226.061 254.141,225.633 253.202,226.179 249.806,224.218 248.803,224.8
									248.043,225.471 248.771,225.892 249.525,225.217 252.2,226.761 251.268,227.303 252.008,227.73 254.881,226.061
									"/>
								<path fill="#FFFFFF" d="M254.24,224.029c-0.518-0.299-0.831-0.538-0.946-0.715c-0.109-0.181-0.06-0.336,0.169-0.469
									s0.502-0.166,0.808-0.1s0.72,0.247,1.238,0.546c0.523,0.303,0.843,0.546,0.958,0.723c0.115,0.185,0.065,0.339-0.163,0.472
									s-0.495,0.162-0.813,0.096C255.185,224.517,254.764,224.332,254.24,224.029 M256.574,222.681
									c-0.683-0.395-1.359-0.616-2.034-0.66c-0.662-0.045-1.266,0.092-1.805,0.405c-0.539,0.313-0.772,0.663-0.694,1.047
									c0.079,0.391,0.463,0.781,1.146,1.176c0.689,0.398,1.365,0.619,2.033,0.66c0.663,0.044,1.266-0.092,1.805-0.405
									c0.54-0.313,0.773-0.664,0.694-1.047C257.648,223.469,257.264,223.078,256.574,222.681"/>
								<path fill="#FFFFFF" d="M297.452,263.935l0.59-0.343c0.165-0.096,0.33-0.147,0.49-0.151c0.165-0.007,0.318,0.03,0.458,0.111
									c0.146,0.085,0.211,0.173,0.192,0.265c-0.006,0.093-0.094,0.188-0.259,0.284l-0.59,0.343L297.452,263.935 M299.055,264.86
									l0.621-0.361c0.217-0.126,0.42-0.191,0.617-0.203c0.197-0.011,0.382,0.037,0.566,0.144c0.179,0.104,0.269,0.214,0.25,0.328
									s-0.132,0.232-0.348,0.358l-0.621,0.36L299.055,264.86 M302.002,263.872c-0.262-0.151-0.536-0.243-0.842-0.272
									c-0.305-0.03-0.61,0-0.896,0.092c0.107-0.144,0.139-0.279,0.094-0.417c-0.046-0.136-0.174-0.262-0.378-0.38
									c-0.384-0.221-0.785-0.306-1.218-0.254c-0.432,0.044-0.927,0.235-1.499,0.567l-1.592,0.926l4.138,2.389l1.757-1.021
									c0.552-0.32,0.855-0.615,0.931-0.881C302.565,264.352,302.398,264.101,302.002,263.872"/>
								<polyline fill="#FFFFFF" points="306.844,262.434 306.103,262.007 305.164,262.552 301.768,260.591 300.758,261.178
									300.005,261.845 300.733,262.265 301.486,261.591 304.161,263.135 303.229,263.677 303.97,264.104 306.844,262.434
									"/>
								<polyline fill="#FFFFFF" points="308.518,261.461 307.445,260.842 306.449,261.42 307.521,262.04 308.518,261.461
									"/>
								<path fill="#FFFFFF" d="M308.061,259.323c-0.517-0.299-0.831-0.538-0.946-0.716c-0.109-0.18-0.06-0.335,0.169-0.468
									s0.502-0.166,0.808-0.1s0.722,0.247,1.238,0.546c0.523,0.302,0.843,0.545,0.959,0.723c0.115,0.185,0.065,0.339-0.163,0.472
									s-0.496,0.162-0.813,0.096C309.004,259.81,308.584,259.625,308.061,259.323 M310.395,257.974
									c-0.684-0.395-1.359-0.615-2.033-0.659c-0.662-0.045-1.266,0.092-1.806,0.405c-0.539,0.313-0.772,0.663-0.693,1.047
									c0.078,0.391,0.462,0.781,1.146,1.176c0.689,0.398,1.365,0.619,2.033,0.659c0.663,0.045,1.267-0.092,1.805-0.404
									c0.54-0.314,0.773-0.664,0.694-1.048C311.469,258.763,311.084,258.372,310.395,257.974"/>
								<path fill="#FFFFFF" d="M314.624,256.345c-0.447-0.259-0.938-0.38-1.473-0.365c-0.527,0.019-1.042,0.169-1.543,0.461
									c-0.089,0.051-0.165,0.103-0.235,0.158c-0.069,0.056-0.139,0.111-0.196,0.174l-0.639-0.369l1.789-1.039l-0.786-0.454
									l-2.632,1.53l2.324,1.342c0.113-0.162,0.24-0.303,0.374-0.432c0.132-0.122,0.278-0.229,0.43-0.316
									c0.254-0.147,0.521-0.229,0.795-0.24c0.273-0.019,0.516,0.04,0.733,0.166c0.217,0.125,0.319,0.266,0.294,0.428
									c-0.019,0.158-0.156,0.313-0.411,0.461c-0.184,0.106-0.399,0.195-0.673,0.272c-0.267,0.081-0.571,0.147-0.928,0.207
									l0.836,0.482c0.324-0.077,0.623-0.17,0.896-0.276c0.272-0.106,0.521-0.229,0.755-0.365c0.539-0.312,0.837-0.634,0.886-0.951
									C315.27,256.895,315.071,256.603,314.624,256.345"/>
								<path fill="#FFFFFF" d="M316.255,274.791l0.59-0.343c0.165-0.096,0.33-0.147,0.483-0.154
									c0.165-0.008,0.317,0.029,0.458,0.11c0.147,0.085,0.211,0.173,0.199,0.269c-0.013,0.089-0.101,0.185-0.266,0.28l-0.59,0.344
									L316.255,274.791 M317.857,275.717l0.621-0.361c0.217-0.126,0.42-0.191,0.617-0.203c0.196-0.011,0.381,0.037,0.56,0.14
									c0.187,0.107,0.269,0.215,0.251,0.328c-0.019,0.114-0.132,0.232-0.349,0.358l-0.621,0.361L317.857,275.717 M320.798,274.725
									c-0.255-0.147-0.535-0.243-0.841-0.272s-0.605,0.004-0.897,0.092c0.114-0.14,0.139-0.279,0.094-0.416
									c-0.046-0.137-0.173-0.263-0.371-0.377c-0.384-0.221-0.791-0.309-1.224-0.257c-0.426,0.047-0.928,0.235-1.499,0.567
									l-1.592,0.925l4.137,2.389l1.757-1.021c0.553-0.32,0.862-0.611,0.931-0.88C321.361,275.204,321.2,274.957,320.798,274.725"
									/>
								<polyline fill="#FFFFFF" points="325.64,273.287 324.905,272.863 323.967,273.408 320.563,271.443 319.555,272.03
									318.802,272.697 319.529,273.117 320.289,272.447 322.964,273.991 322.031,274.533 322.766,274.957 325.64,273.287
									"/>
								<polyline fill="#FFFFFF" points="327.314,272.313 326.242,271.694 325.246,272.273 326.318,272.893 327.314,272.313
																	"/>
								<path fill="#FFFFFF" d="M326.863,270.18c-0.523-0.303-0.838-0.542-0.952-0.719c-0.109-0.181-0.054-0.332,0.175-0.465
									s0.496-0.17,0.802-0.104s0.721,0.247,1.244,0.55c0.518,0.299,0.836,0.542,0.959,0.723c0.108,0.181,0.059,0.335-0.17,0.468
									s-0.495,0.162-0.807,0.1C327.801,270.662,327.381,270.479,326.863,270.18 M329.197,268.83
									c-0.689-0.398-1.365-0.619-2.033-0.66c-0.663-0.044-1.272,0.089-1.812,0.402s-0.767,0.667-0.688,1.051
									c0.071,0.387,0.456,0.777,1.146,1.176c0.684,0.395,1.359,0.615,2.027,0.656c0.668,0.048,1.271-0.089,1.811-0.402
									c0.54-0.313,0.773-0.663,0.688-1.051C330.265,269.615,329.881,269.225,329.197,268.83"/>
								<path fill="#FFFFFF" d="M333.549,267.33c-0.275-0.159-0.582-0.247-0.893-0.266c-0.324-0.019-0.663,0.029-1.012,0.151
									c0.184-0.181,0.26-0.351,0.232-0.513c-0.026-0.162-0.161-0.313-0.403-0.453c-0.357-0.206-0.752-0.28-1.191-0.232
									c-0.444,0.052-0.934,0.232-1.467,0.542c-0.203,0.118-0.38,0.243-0.564,0.38c-0.171,0.136-0.336,0.284-0.487,0.438
									l0.785,0.453c0.095-0.144,0.215-0.28,0.348-0.401c0.14-0.126,0.292-0.236,0.464-0.336c0.228-0.132,0.443-0.214,0.66-0.235
									c0.216-0.022,0.4,0.011,0.56,0.103c0.173,0.1,0.237,0.211,0.187,0.336c-0.044,0.121-0.195,0.262-0.461,0.416l-0.451,0.263
									l0.683,0.394l0.426-0.247c0.298-0.173,0.578-0.276,0.825-0.31c0.248-0.033,0.472,0.008,0.656,0.114s0.255,0.229,0.199,0.373
									c-0.05,0.14-0.215,0.294-0.5,0.46c-0.191,0.111-0.406,0.207-0.654,0.292c-0.241,0.081-0.514,0.151-0.813,0.214l0.824,0.476
									c0.272-0.085,0.533-0.177,0.781-0.277c0.247-0.106,0.476-0.217,0.691-0.342c0.597-0.348,0.944-0.675,1.045-0.978
									C334.11,267.839,333.957,267.565,333.549,267.33"/>
								<path fill="#FFFFFF" d="M335.051,285.645l0.59-0.344c0.166-0.096,0.33-0.147,0.49-0.15c0.164-0.008,0.317,0.029,0.458,0.11
									s0.211,0.173,0.192,0.266c-0.006,0.092-0.101,0.184-0.266,0.279l-0.59,0.343L335.051,285.645 M336.653,286.569l0.622-0.361
									c0.216-0.126,0.419-0.191,0.616-0.203c0.197-0.011,0.382,0.037,0.561,0.141c0.185,0.106,0.269,0.214,0.257,0.331
									c-0.019,0.114-0.132,0.232-0.349,0.358l-0.621,0.361L336.653,286.569 M339.601,285.581
									c-0.262-0.151-0.536-0.243-0.841-0.272c-0.312-0.033-0.611,0-0.897,0.092c0.107-0.144,0.139-0.279,0.094-0.416
									c-0.052-0.141-0.174-0.263-0.378-0.381c-0.383-0.221-0.785-0.305-1.224-0.257c-0.426,0.048-0.921,0.239-1.492,0.571
									l-1.593,0.925l4.138,2.389l1.757-1.021c0.553-0.321,0.855-0.615,0.931-0.881
									C340.164,286.061,339.997,285.811,339.601,285.581"/>
								<polyline fill="#FFFFFF" points="344.442,284.144 343.701,283.716 342.763,284.262 339.366,282.3 338.357,282.887
									337.604,283.554 338.332,283.974 339.085,283.3 341.76,284.844 340.828,285.386 341.568,285.813 344.442,284.144
									"/>
								<polyline fill="#FFFFFF" points="346.117,283.17 345.044,282.551 344.049,283.13 345.121,283.749 346.117,283.17
									"/>
								<path fill="#FFFFFF" d="M345.659,281.032c-0.517-0.299-0.831-0.538-0.945-0.716c-0.11-0.18-0.061-0.335,0.168-0.468
									s0.503-0.166,0.809-0.1s0.721,0.247,1.237,0.546c0.523,0.303,0.843,0.546,0.959,0.723c0.115,0.185,0.065,0.339-0.163,0.472
									s-0.495,0.162-0.813,0.096C346.604,281.519,346.184,281.334,345.659,281.032 M347.993,279.683
									c-0.683-0.395-1.358-0.615-2.033-0.659c-0.662-0.045-1.266,0.092-1.806,0.405c-0.539,0.313-0.772,0.663-0.693,1.047
									c0.078,0.391,0.462,0.781,1.146,1.176c0.689,0.398,1.358,0.615,2.034,0.66c0.662,0.044,1.266-0.093,1.805-0.405
									c0.539-0.313,0.772-0.664,0.694-1.048C349.061,280.468,348.684,280.081,347.993,279.683"/>
								<path fill="#FFFFFF" d="M353.48,278.891l-0.785-0.453l-1.807,1.05l0.097-0.958c0.047-0.405,0.027-0.697-0.051-0.874
									c-0.077-0.185-0.231-0.339-0.454-0.468c-0.39-0.225-0.835-0.321-1.325-0.287c-0.489,0.033-0.979,0.191-1.467,0.475
									c-0.229,0.133-0.438,0.276-0.628,0.439c-0.19,0.154-0.361,0.327-0.525,0.512l0.906,0.523
									c0.082-0.21,0.189-0.391,0.314-0.545c0.127-0.155,0.272-0.284,0.438-0.38c0.216-0.126,0.444-0.192,0.693-0.195
									c0.247-0.012,0.471,0.044,0.662,0.154c0.128,0.074,0.218,0.163,0.27,0.266c0.045,0.107,0.07,0.232,0.06,0.38l-0.169,1.644
									l0.784,0.453L353.48,278.891"/>
								<path fill="#FFFFFF" d="M278.656,253.082l0.59-0.343c0.166-0.096,0.33-0.147,0.49-0.151
									c0.159-0.011,0.312,0.026,0.458,0.111c0.141,0.081,0.205,0.169,0.193,0.265c-0.012,0.089-0.1,0.185-0.266,0.28l-0.59,0.343
									L278.656,253.082 M280.258,254.007l0.622-0.36c0.216-0.126,0.419-0.192,0.617-0.203c0.197-0.011,0.381,0.037,0.56,0.14
									c0.186,0.107,0.269,0.214,0.25,0.328c-0.012,0.118-0.125,0.236-0.342,0.361l-0.622,0.361L280.258,254.007 M283.206,253.02
									c-0.262-0.151-0.542-0.247-0.848-0.276c-0.305-0.03-0.605,0.004-0.89,0.096c0.107-0.144,0.131-0.284,0.087-0.421
									c-0.046-0.136-0.174-0.262-0.372-0.376c-0.382-0.221-0.791-0.31-1.224-0.258c-0.426,0.048-0.927,0.235-1.499,0.567
									l-1.592,0.926l4.137,2.389l1.757-1.021c0.552-0.32,0.862-0.611,0.93-0.881C283.769,253.498,283.602,253.248,283.206,253.02"
									/>
								<polyline fill="#FFFFFF" points="288.041,251.578 287.307,251.153 286.368,251.699 282.965,249.734 281.956,250.32
									281.209,250.991 281.931,251.408 282.69,250.737 285.365,252.282 284.433,252.823 285.167,253.248 288.041,251.578
									"/>
								<polyline fill="#FFFFFF" points="289.715,250.604 288.643,249.985 287.647,250.564 288.719,251.184 289.715,250.604
																	"/>
								<path fill="#FFFFFF" d="M289.264,248.47c-0.517-0.298-0.831-0.538-0.952-0.719c-0.109-0.181-0.053-0.331,0.175-0.464
									s0.496-0.17,0.801-0.104c0.312,0.07,0.727,0.251,1.244,0.549c0.524,0.303,0.836,0.542,0.959,0.723
									c0.109,0.182,0.059,0.336-0.17,0.469s-0.495,0.162-0.807,0.1C290.202,248.953,289.788,248.772,289.264,248.47
									 M291.598,247.121c-0.689-0.398-1.365-0.619-2.033-0.66c-0.663-0.044-1.266,0.092-1.806,0.406
									c-0.539,0.312-0.772,0.663-0.693,1.047c0.072,0.387,0.456,0.777,1.145,1.175c0.684,0.396,1.36,0.616,2.028,0.657
									c0.668,0.048,1.272-0.089,1.811-0.402c0.54-0.313,0.773-0.663,0.688-1.051C292.666,247.906,292.282,247.516,291.598,247.121
									"/>
								<polyline fill="#FFFFFF" points="293.587,244.257 292.987,243.91 289.885,245.713 290.67,246.166 292.65,245.016
									294.485,247.832 295.519,247.231 293.587,244.257 								"/>
								<polyline fill="#CFD0D2" points="352.429,313.697 349.198,311.832 337.872,305.292 337.926,313.694 352.429,313.697
																	"/>
								<polyline fill="#CFD0D2" points="106.019,127.755 91.522,127.755 91.563,136.157 94.772,134.292 106.019,127.755
									"/>
								<path fill="#CFD0D2" d="M417.857,281.007l-0.518-0.299c-0.204-0.118-0.401-0.188-0.573-0.207
									c-0.172-0.018-0.325,0.012-0.458,0.089c-0.127,0.073-0.184,0.151-0.177,0.243c0.013,0.089,0.103,0.177,0.25,0.262
									c0.185,0.106,0.408,0.162,0.669,0.159c0.261-0.004,0.49-0.063,0.693-0.181L417.857,281.007 M414.05,278.338l-0.626-0.361
									l-1.072,0.623l0.626,0.361c0.217,0.125,0.421,0.191,0.619,0.202c0.196,0.011,0.394-0.037,0.571-0.14
									c0.178-0.104,0.253-0.214,0.234-0.328C414.389,278.584,414.267,278.463,414.05,278.338 M409.208,273.977l-2.205,0.623
									l1.131,0.652L409.208,273.977 M415.609,277.394l-0.594-0.343l-0.868,0.505l0.593,0.343c0.167,0.097,0.332,0.147,0.498,0.155
									c0.152,0.007,0.305-0.029,0.451-0.114c0.14-0.081,0.203-0.17,0.195-0.262C415.872,277.582,415.776,277.49,415.609,277.394
									 M409.502,276.373l0.799-0.465l1.743,1.007l-0.8,0.464L409.502,276.373 M420.206,283.2c0.204,0.118,0.452,0.165,0.72,0.144
									c0.279-0.022,0.559-0.118,0.838-0.28l1.522-0.885l0.99,0.571l-3.083,1.792l-0.99-0.571l0.444-0.259
									c-0.331,0.015-0.617,0.004-0.872-0.048c-0.255-0.044-0.484-0.125-0.683-0.239c-0.357-0.206-0.518-0.432-0.486-0.663
									c0.029-0.24,0.257-0.477,0.67-0.716l1.884-1.095l0.996,0.575l-0.305,0.177c-0.171,0.1-0.381,0.222-0.641,0.365
									c-0.247,0.144-0.418,0.243-0.501,0.291c-0.247,0.144-0.419,0.251-0.521,0.324c-0.095,0.07-0.146,0.129-0.171,0.173
									c-0.019,0.063-0.018,0.122,0.008,0.181C420.064,283.097,420.116,283.148,420.206,283.2 M416.85,279.425l0.748-0.435
									c0.269,0.096,0.517,0.195,0.766,0.302c0.236,0.107,0.466,0.226,0.677,0.347c0.562,0.324,0.855,0.619,0.883,0.893
									c0.027,0.272-0.2,0.553-0.694,0.84l-1.758,1.021l-1.002-0.579l0.457-0.265c-0.319,0.029-0.605,0.025-0.854-0.022
									c-0.255-0.044-0.504-0.137-0.74-0.272c-0.325-0.188-0.492-0.396-0.499-0.619c-0.015-0.222,0.124-0.421,0.423-0.595
									c0.361-0.21,0.748-0.294,1.17-0.243c0.42,0.045,0.892,0.222,1.428,0.531l0.588,0.339l0.076-0.044
									c0.158-0.092,0.209-0.195,0.157-0.307c-0.052-0.117-0.205-0.25-0.467-0.401c-0.211-0.121-0.435-0.221-0.657-0.306
									C417.328,279.532,417.092,279.469,416.85,279.425 M403.891,274.552l5.643-1.504l1.271,0.733l-2.577,3.273l-1.073-0.619
									l0.487-0.586l-1.667-0.963l-1.011,0.284L403.891,274.552 M410.562,278.404l4.11-2.39l1.603,0.926
									c0.575,0.332,0.907,0.619,0.991,0.873c0.084,0.247-0.061,0.479-0.441,0.701c-0.203,0.117-0.419,0.191-0.653,0.218
									c-0.236,0.025-0.472,0.007-0.72-0.056c0.16,0.173,0.211,0.343,0.162,0.52c-0.051,0.177-0.202,0.339-0.463,0.49
									c-0.399,0.232-0.831,0.321-1.296,0.28c-0.466-0.041-0.969-0.221-1.518-0.538L410.562,278.404 M431.095,278.839l-3.444,2.002
									l-5.887-3.399l-12.342-7.126l-8.633,5.018l12.342,7.126l5.887,3.398l-3.444,2.002l15.042-0.31L431.095,278.839"/>
								<path fill="#FFFFFF" d="M407.003,274.6l2.205-0.623l-1.074,1.275L407.003,274.6 M410.804,273.781l-1.271-0.733l-5.643,1.504
									l1.072,0.619l1.011-0.284l1.667,0.963l-0.487,0.586l1.073,0.619L410.804,273.781"/>
								<polyline fill="#FFFFFF" points="412.044,276.915 410.301,275.908 409.502,276.373 411.244,277.379 412.044,276.915
																	"/>
								<path fill="#FFFFFF" d="M412.352,278.6l1.072-0.623l0.626,0.361c0.217,0.125,0.339,0.246,0.353,0.357
									c0.019,0.114-0.057,0.225-0.234,0.328c-0.178,0.103-0.375,0.15-0.571,0.14c-0.198-0.011-0.402-0.077-0.619-0.202
									L412.352,278.6 M414.147,277.556l0.868-0.505l0.594,0.343c0.167,0.097,0.263,0.188,0.275,0.284
									c0.008,0.092-0.056,0.181-0.195,0.262c-0.146,0.085-0.299,0.121-0.451,0.114c-0.166-0.008-0.331-0.059-0.498-0.155
									L414.147,277.556 M416.275,276.94l-1.603-0.926l-4.11,2.39l1.775,1.024c0.549,0.317,1.052,0.497,1.518,0.538
									c0.465,0.041,0.896-0.048,1.296-0.28c0.261-0.151,0.412-0.313,0.463-0.49c0.049-0.177-0.002-0.347-0.162-0.52
									c0.248,0.062,0.483,0.081,0.72,0.056c0.234-0.026,0.45-0.101,0.653-0.218c0.381-0.222,0.525-0.454,0.441-0.701
									C417.183,277.56,416.851,277.272,416.275,276.94"/>
								<path fill="#FFFFFF" d="M416.382,281.095c-0.147-0.085-0.237-0.173-0.25-0.262c-0.007-0.092,0.05-0.17,0.177-0.243
									c0.133-0.077,0.286-0.106,0.458-0.089c0.172,0.019,0.369,0.089,0.573,0.207l0.518,0.299l-0.113,0.066
									c-0.203,0.117-0.433,0.177-0.693,0.181C416.79,281.257,416.566,281.201,416.382,281.095 M419.04,279.639
									c-0.211-0.121-0.44-0.239-0.677-0.347c-0.249-0.106-0.497-0.206-0.766-0.302l-0.748,0.435
									c0.242,0.044,0.479,0.107,0.701,0.185c0.223,0.085,0.446,0.185,0.657,0.306c0.262,0.151,0.415,0.284,0.467,0.401
									c0.052,0.111,0.001,0.215-0.157,0.307l-0.076,0.044l-0.588-0.339c-0.536-0.31-1.008-0.486-1.428-0.531
									c-0.422-0.051-0.809,0.033-1.17,0.243c-0.299,0.174-0.438,0.373-0.423,0.595c0.007,0.224,0.174,0.431,0.499,0.619
									c0.236,0.136,0.485,0.229,0.74,0.272c0.248,0.048,0.534,0.052,0.854,0.022l-0.457,0.265l1.002,0.579l1.758-1.021
									c0.494-0.287,0.722-0.567,0.694-0.84C419.896,280.258,419.602,279.963,419.04,279.639"/>
								<path fill="#FFFFFF" d="M424.276,282.75l-0.99-0.571l-1.522,0.885c-0.279,0.162-0.559,0.258-0.838,0.28
									c-0.268,0.021-0.516-0.025-0.72-0.144c-0.09-0.052-0.142-0.104-0.18-0.163c-0.025-0.059-0.026-0.117-0.008-0.181
									c0.025-0.044,0.076-0.103,0.171-0.173c0.102-0.073,0.273-0.181,0.521-0.324c0.083-0.048,0.254-0.147,0.501-0.291
									c0.26-0.144,0.47-0.266,0.641-0.365l0.305-0.177l-0.996-0.575l-1.884,1.095c-0.413,0.239-0.641,0.476-0.67,0.716
									c-0.031,0.231,0.129,0.457,0.486,0.663c0.198,0.114,0.428,0.195,0.683,0.239c0.255,0.052,0.541,0.062,0.872,0.048
									l-0.444,0.259l0.99,0.571L424.276,282.75"/>
								<polyline fill="#FFFFFF" points="117.966,153.151 116.236,152.152 109.411,156.118 112.833,158.094 116.281,160.085
									118,159.086 116.282,158.095 117.982,157.106 116.271,156.119 117.977,155.127 116.266,154.139 117.966,153.151 								"/>
								<polyline fill="#FFFFFF" points="364.254,295.693 362.518,294.69 355.692,298.657 359.121,300.637 362.562,302.624
									364.281,301.625 362.57,300.637 364.27,299.648 362.559,298.661 364.266,297.669 362.554,296.682 364.254,295.693
									"/>
							</g>
						</g>
					</g>
				</g>
			</g>
		</g>
	</g>
	<g>
		<polygon fill="#EC7404" stroke="#FFFFFF" stroke-width="0.5" points="312.837,-23.968 316.249,-23.968 314.68,-12.192 		"/>
		<circle fill="#EC7404" cx="314.543" cy="-33" r="9.731"/>
		<polygon fill="none" stroke="#FFFFFF" stroke-width="0.5" points="318.413,-35.826 314.543,-40.501 310.674,-35.826
			312.627,-35.826 312.627,-30.704 316.46,-30.704 316.46,-35.826 		"/>
		<text transform="matrix(1 0 0 1 312.875 -25.1201)" fill="#FFFFFF" font-family="'DejaVuSansCondensed-Bold'" font-size="5"></text>
	</g>
	<g>
		<polygon fill="#EC7404" stroke="#FFFFFF" stroke-width="0.5" points="338.409,-23.968 341.822,-23.968 340.252,-12.192 		"/>
		<circle fill="#EC7404" cx="340.116" cy="-33" r="9.731"/>
		<polygon fill="none" stroke="#FFFFFF" stroke-width="0.5" points="343.985,-35.826 340.115,-40.501 336.246,-35.826
			338.199,-35.826 338.199,-30.704 342.032,-30.704 342.032,-35.826 		"/>
		<rect x="338.429" y="-29.443" fill="none" width="8" height="3.833"/>
		<text transform="matrix(1 0 0 1 338.4287 -25.644)" fill="#FFFFFF" font-family="'DejaVuSansCondensed-Bold'" font-size="5">P</text>
	</g>
	<g>
		<polygon fill="#EC7404" stroke="#FFFFFF" stroke-width="0.5" points="363.981,-23.968 367.394,-23.968 365.824,-12.192 		"/>
		<circle fill="#EC7404" cx="365.688" cy="-33" r="9.731"/>
		<polygon fill="none" stroke="#FFFFFF" stroke-width="0.5" points="369.558,-35.826 365.688,-40.501 361.818,-35.826
			363.771,-35.826 363.771,-30.704 367.604,-30.704 367.604,-35.826 		"/>
		<rect x="360.819" y="-29.442" fill="none" width="8" height="3.833"/>
		<text transform="matrix(1 0 0 1 360.8193 -25.6431)" fill="#FFFFFF" font-family="'DejaVuSansCondensed-Bold'" font-size="5"> EC</text>
	</g>
	<g>
		<polygon fill="#EC7404" stroke="#FFFFFF" stroke-width="0.5" points="415.003,-23.991 418.417,-23.991 416.847,-12.215 		"/>
		<g>
			<circle fill="#EC7404" cx="416.71" cy="-33" r="9.731"/>
			<g>
				<g>
					<path fill="none" stroke="#FFFFFF" stroke-width="0.5" d="M421.197-29.081c0,0.312-0.255,0.567-0.567,0.567h-7.839
						c-0.312,0-0.567-0.255-0.567-0.567v-7.84c0-0.312,0.255-0.567,0.567-0.567h7.839c0.312,0,0.567,0.255,0.567,0.567V-29.081z"/>
				</g>
				<polygon fill="#FFFFFF" points="413.152,-32.975 415.846,-29.744 420.287,-36.475 415.608,-31.057 				"/>
			</g>
		</g>
	</g>
	<g>
		<polygon fill="#EC7404" stroke="#FFFFFF" stroke-width="0.5" points="440.863,-23.991 444.277,-23.991 442.707,-12.215 		"/>
		<circle fill="#EC7404" cx="442.571" cy="-33" r="9.731"/>
		<g>
			<g>
				<path fill="#EC7404" d="M446.946-31.146c0,0.312-0.255,0.567-0.567,0.567h-9.54c-0.312,0-0.567-0.255-0.567-0.567V-36.6
					c0-0.312,0.255-0.567,0.567-0.567h9.54c0.312,0,0.567,0.255,0.567,0.567V-31.146z"/>
				<path fill="none" stroke="#FFFFFF" stroke-width="0.5" d="M446.946-31.146c0,0.312-0.255,0.567-0.567,0.567h-9.54
					c-0.312,0-0.567-0.255-0.567-0.567V-36.6c0-0.312,0.255-0.567,0.567-0.567h9.54c0.312,0,0.567,0.255,0.567,0.567V-31.146z"/>
			</g>
			<g>
				<path fill="#EC7404" d="M448.87-29.223c0,0.312-0.255,0.567-0.567,0.567h-9.54c-0.312,0-0.567-0.255-0.567-0.567v-5.454
					c0-0.312,0.255-0.567,0.567-0.567h9.54c0.312,0,0.567,0.255,0.567,0.567V-29.223z"/>
				<path fill="none" stroke="#FFFFFF" stroke-width="0.5" d="M448.87-29.223c0,0.312-0.255,0.567-0.567,0.567h-9.54
					c-0.312,0-0.567-0.255-0.567-0.567v-5.454c0-0.312,0.255-0.567,0.567-0.567h9.54c0.312,0,0.567,0.255,0.567,0.567V-29.223z"/>
			</g>
		</g>
	</g>
	<g>
		<polygon fill="#EC7404" stroke="#FFFFFF" stroke-width="0.5" points="287.264,-23.968 290.677,-23.968 289.107,-12.192 		"/>
		<circle fill="#EC7404" cx="288.97" cy="-33" r="9.731"/>
		<g>
			<path fill="#FFFFFF" d="M285.842-31.311h6.294v-0.557h-6.294V-31.311z M285.842-29.615h6.294v-0.557h-6.294V-29.615z
				 M285.842-34.658h6.294v-0.558h-6.294V-34.658z M285.842-32.993h6.294v-0.557h-6.294V-32.993z M292.842-27.685h-7.744v-11.183
				h5.521v2.222h2.223V-27.685z M284.54-27.125 M291.178-38.797l1.594,1.592h-1.594V-38.797z M291.336-39.427h-6.796v12.301h8.86
				v-10.239L291.336-39.427z"/>
		</g>
	</g>
	<g>
		<polygon fill="#EC7404" stroke="#FFFFFF" stroke-width="0.5" points="261.69,-23.968 265.104,-23.968 263.533,-12.192 		"/>
		<circle fill="#EC7404" cx="263.397" cy="-33.001" r="9.731"/>
		<g>
			<g>
				<path fill="#FFFFFF" d="M268.454-33.723c-0.002-0.272-0.025-0.522-0.083-0.758c-0.046-0.183-0.114-0.358-0.217-0.517
					c-0.152-0.24-0.387-0.429-0.656-0.535c-0.269-0.108-0.564-0.149-0.898-0.149c-0.295,0-0.563,0.033-0.811,0.114
					c-0.185,0.062-0.357,0.153-0.505,0.277c-0.223,0.186-0.377,0.438-0.463,0.709c-0.086,0.264-0.118,0.55-0.119,0.862l-0.569,4.806
					h1.198v2.099h0.97v-2.099h0.6v2.099h0.97v-2.099h1.204L268.454-33.723z"/>
				<path fill="#FFFFFF" d="M260.08-36.128c0.872,0,1.576-0.707,1.576-1.577c0-0.871-0.704-1.577-1.576-1.577
					c-0.87,0-1.575,0.706-1.576,1.577C258.505-36.834,259.21-36.128,260.08-36.128 M260.08-35.59
					c-1.305,0.001-2.36,1.057-2.36,2.361v2.469h1.092v3.943h0.969v-3.943h0.6v3.943h0.97v-3.943h1.091v-2.469
					C262.44-34.534,261.385-35.589,260.08-35.59"/>
			</g>
			<circle fill="#FFFFFF" cx="266.494" cy="-37.707" r="1.584"/>
		</g>
	</g>
	<g>
		<polygon fill="#EC7404" stroke="#FFFFFF" stroke-width="0.5" points="224.917,197.988 228.33,197.988 226.759,209.764 		"/>
		<circle fill="#EC7404" cx="226.624" cy="188.955" r="9.731"/>
		<g>
			<g>
				<path fill="#FFFFFF" d="M231.68,188.233c-0.002-0.272-0.025-0.522-0.083-0.758c-0.046-0.183-0.114-0.358-0.217-0.517
					c-0.152-0.24-0.387-0.429-0.656-0.535c-0.269-0.108-0.564-0.149-0.898-0.149c-0.295,0-0.563,0.033-0.811,0.114
					c-0.185,0.062-0.357,0.153-0.505,0.277c-0.223,0.186-0.377,0.438-0.463,0.709c-0.086,0.264-0.118,0.55-0.119,0.862l-0.569,4.806
					h1.198v2.099h0.97v-2.099h0.6v2.099h0.97v-2.099h1.204L231.68,188.233z"/>
				<path fill="#FFFFFF" d="M223.306,185.828c0.872,0,1.576-0.707,1.576-1.577c0-0.871-0.704-1.577-1.576-1.577
					c-0.87,0-1.575,0.706-1.576,1.577C221.731,185.122,222.436,185.828,223.306,185.828 M223.306,186.366
					c-1.305,0.001-2.36,1.057-2.36,2.361v2.469h1.092v3.943h0.969v-3.943h0.6v3.943h0.97v-3.943h1.091v-2.469
					C225.667,187.422,224.611,186.367,223.306,186.366"/>
			</g>
			<circle fill="#FFFFFF" cx="229.72" cy="184.249" r="1.584"/>
		</g>
	</g>
	<g>
		<polygon fill="#EC7404" stroke="#FFFFFF" stroke-width="0.5" points="389.554,-23.968 392.967,-23.968 391.397,-12.192 		"/>
		<circle fill="#EC7404" cx="391.26" cy="-33" r="9.731"/>
		<text transform="matrix(1 0 0 1 389.5 -25.1201)" fill="#FFFFFF" font-family="'DejaVuSansCondensed-Bold'" font-size="5"></text>
		<polygon fill="none" stroke="#FFFFFF" stroke-width="0.5" points="387.342,-35.379 391.212,-30.704 395.081,-35.379
			393.128,-35.379 393.128,-40.501 389.295,-40.501 389.295,-35.379 		"/>
	</g>
</g>
</svg>
