<?xml version="1.0" encoding="utf-8"?>
<!-- Generator: Adobe Illustrator 16.0.0, SVG Export Plug-In . SVG Version: 6.00 Build 0)  -->
<!DOCTYPE svg PUBLIC "-//W3C//DTD SVG 1.1//EN" "http://www.w3.org/Graphics/SVG/1.1/DTD/svg11.dtd">
<svg version="1.1" xmlns="http://www.w3.org/2000/svg" xmlns:xlink="http://www.w3.org/1999/xlink" x="0px" y="0px"
	 width="595.275px" height="419.527px" viewBox="0 0 595.275 419.527" enable-background="new 0 0 595.275 419.527"
	 xml:space="preserve">
<g id="Ebene_1">
	<g>
		<g>
			<g enable-background="new    ">
				<defs>
					<polygon id="SVGID_59_" enable-background="new    " points="36.147,222.839 291.271,74.572 504.159,197.492 249.036,345.759
											"/>
				</defs>
				<clipPath id="SVGID_60_">
					<use xlink:href="#SVGID_59_"  overflow="visible"/>
				</clipPath>
				<g clip-path="url(#SVGID_60_)">
					<g>
						<g>
							<g>
								<path id="A2.13" fill="#BDD4E4" d="M288.391,260.828l-2.238-0.631l1.096,1.294L288.391,260.828 M287.182,263.32l-2.653-3.318
									l1.281-0.744l5.736,1.525l-1.079,0.627l-1.032-0.287l-1.675,0.973l0.5,0.598L287.182,263.32 M292.131,259.52l1.833-1.065
									l0.798,0.461l-3.026,1.758l-0.798-0.461l0.175-1.662c0.012-0.147-0.008-0.276-0.065-0.384
									c-0.045-0.106-0.141-0.199-0.262-0.269c-0.198-0.115-0.428-0.166-0.676-0.163c-0.248,0.012-0.483,0.074-0.706,0.203
									c-0.165,0.096-0.31,0.226-0.437,0.38c-0.133,0.158-0.233,0.343-0.321,0.557l-0.919-0.531
									c0.164-0.185,0.341-0.361,0.531-0.523c0.197-0.158,0.413-0.306,0.635-0.435c0.501-0.291,0.996-0.454,1.486-0.486
									c0.503-0.034,0.948,0.062,1.344,0.291c0.23,0.133,0.383,0.287,0.461,0.472c0.083,0.181,0.098,0.476,0.055,0.885
									L292.131,259.52 M294.47,257.827l1.002-0.583l1.085,0.627l-1.002,0.583L294.47,257.827 M293.512,255.019l0.76-0.679
									l1.021-0.594l3.448,1.991l0.945-0.55l0.746,0.432l-2.905,1.688l-0.747-0.432l0.945-0.549l-2.708-1.563l-0.772,0.679
									L293.512,255.019 M300.945,252.703c0.349-0.122,0.691-0.173,1.017-0.155c0.331,0.022,0.631,0.114,0.905,0.272
									c0.416,0.24,0.575,0,0.477,0.826c-0.101,0.303-0.456,0.634-1.064,0.988c-0.21,0.121-0.438,0.239-0.691,0.343
									c-0.248,0.107-0.508,0.199-0.787,0.28l-0.837-0.483c0.299-0.055,0.578-0.129,0.825-0.214
									c0.249-0.084,0.471-0.184,0.661-0.294c0.285-0.166,0.45-0.321,0.507-0.465c0.05-0.147-0.016-0.273-0.2-0.38
									c-0.191-0.11-0.407-0.147-0.669-0.114c-0.248,0.033-0.527,0.136-0.832,0.313l-0.432,0.25l-0.695-0.401l0.451-0.262
									c0.272-0.158,0.424-0.299,0.475-0.424c0.05-0.126-0.014-0.236-0.193-0.34c-0.159-0.092-0.344-0.125-0.561-0.103
									c-0.216,0.022-0.445,0.103-0.68,0.239c-0.171,0.1-0.323,0.21-0.463,0.336c-0.132,0.129-0.252,0.266-0.348,0.409
									l-0.791-0.457c0.145-0.159,0.31-0.306,0.494-0.443c0.177-0.14,0.368-0.265,0.57-0.383c0.54-0.313,1.035-0.497,1.479-0.549
									c0.445-0.052,0.854,0.021,1.211,0.229c0.242,0.14,0.383,0.295,0.403,0.46C301.211,252.349,301.128,252.522,300.945,252.703
									 M325.348,251.221l-21.88-12.633l-39.517,22.966l21.88,12.634L325.348,251.221"/>
								<polyline fill="#EC7405" points="284.341,275.253 262.461,262.619 248.582,270.686 270.461,283.318 284.341,275.253
																	"/>
								<path id="A2.06" fill="#CFD0D2" d="M218.659,287.809l-2.237-0.631l1.095,1.295L218.659,287.809 M227.65,281.939
									c-0.523-0.302-0.944-0.486-1.256-0.556c-0.306-0.066-0.579-0.034-0.813,0.103c-0.229,0.133-0.285,0.291-0.169,0.469
									c0.116,0.184,0.436,0.427,0.958,0.729c0.53,0.306,0.952,0.49,1.27,0.557c0.312,0.069,0.586,0.036,0.814-0.097
									c0.228-0.132,0.284-0.291,0.168-0.475C228.5,282.489,228.18,282.246,227.65,281.939 M232.108,280.236
									c-0.249-0.144-0.478-0.225-0.695-0.239c-0.216-0.015-0.414,0.033-0.604,0.144c-0.191,0.111-0.272,0.225-0.247,0.351
									c0.033,0.122,0.167,0.258,0.417,0.401c0.242,0.14,0.479,0.218,0.688,0.236c0.217,0.015,0.419-0.029,0.61-0.141
									c0.19-0.11,0.266-0.229,0.239-0.354C232.492,280.51,232.351,280.377,232.108,280.236 M217.445,290.297l-2.647-3.314
									l1.282-0.744l5.729,1.522l-1.078,0.626l-1.027-0.283l-1.674,0.973l0.494,0.594L217.445,290.297 M222.4,286.5l1.833-1.065
									l0.792,0.457L222,287.649l-0.792-0.457l0.176-1.662c0.004-0.151-0.015-0.28-0.066-0.384
									c-0.051-0.103-0.142-0.198-0.269-0.272c-0.192-0.11-0.42-0.162-0.669-0.158c-0.254,0.007-0.482,0.073-0.704,0.202
									c-0.166,0.097-0.311,0.225-0.438,0.38c-0.133,0.159-0.233,0.343-0.322,0.557l-0.919-0.53
									c0.158-0.188,0.343-0.361,0.532-0.524c0.197-0.158,0.406-0.31,0.627-0.438c0.501-0.292,1.003-0.45,1.493-0.483
									c0.503-0.033,0.949,0.062,1.344,0.291c0.23,0.133,0.377,0.291,0.461,0.472c0.084,0.181,0.099,0.476,0.05,0.889L222.4,286.5
									 M224.733,284.804l1.002-0.582l1.085,0.627l-1.002,0.582L224.733,284.804 M225.303,283.311
									c-0.696-0.401-1.079-0.8-1.165-1.187c-0.078-0.391,0.155-0.748,0.701-1.065c0.551-0.32,1.162-0.453,1.836-0.409
									c0.675,0.044,1.357,0.27,2.053,0.671c0.696,0.402,1.086,0.796,1.166,1.188c0.079,0.391-0.155,0.741-0.707,1.062
									c-0.546,0.317-1.156,0.457-1.831,0.413C226.688,283.934,225.999,283.713,225.303,283.311 M229.703,280.296
									c0.025-0.126,0.088-0.243,0.183-0.351c0.101-0.11,0.241-0.214,0.406-0.31c0.425-0.247,0.889-0.376,1.404-0.387
									c0.516-0.004,0.968,0.11,1.377,0.347c0.447,0.258,0.658,0.549,0.641,0.877c-0.023,0.324-0.276,0.627-0.771,0.914
									c-0.539,0.313-1.143,0.45-1.805,0.413c-0.662-0.044-1.332-0.255-2.008-0.646c-0.695-0.401-1.067-0.814-1.115-1.246
									c-0.046-0.431,0.231-0.821,0.834-1.172c0.19-0.11,0.394-0.206,0.603-0.299c0.209-0.084,0.432-0.162,0.673-0.229l0.772,0.446
									c-0.26,0.056-0.489,0.114-0.68,0.181c-0.203,0.066-0.375,0.144-0.527,0.232c-0.316,0.184-0.475,0.38-0.474,0.586
									C229.217,279.86,229.377,280.078,229.703,280.296 M246.75,283.443l-23.629-13.643l-24.009,13.953l23.629,13.643
									L246.75,283.443"/>
								<path id="A2.15" fill="#BDD4E4" d="M341.673,229.862l-2.237-0.631l1.096,1.294L341.673,229.862 M340.465,232.354l-2.653-3.318
									l1.281-0.744l5.736,1.526l-1.078,0.626l-1.033-0.287l-1.675,0.973l0.5,0.598L340.465,232.354 M345.414,228.554l1.833-1.065
									l0.798,0.461l-3.025,1.758l-0.798-0.461l0.175-1.662c0.012-0.147-0.008-0.276-0.065-0.384
									c-0.052-0.103-0.142-0.198-0.263-0.269c-0.198-0.114-0.427-0.166-0.676-0.162c-0.248,0.011-0.49,0.077-0.705,0.202
									c-0.165,0.096-0.311,0.226-0.437,0.38c-0.134,0.158-0.234,0.343-0.321,0.557l-0.92-0.531
									c0.164-0.184,0.342-0.361,0.531-0.523c0.197-0.158,0.413-0.306,0.635-0.435c0.501-0.291,0.996-0.453,1.486-0.486
									c0.502-0.033,0.947,0.062,1.344,0.291c0.23,0.133,0.378,0.291,0.461,0.472c0.077,0.185,0.099,0.476,0.056,0.885
									L345.414,228.554 M347.752,226.861l1.003-0.582l1.085,0.626l-1.002,0.583L347.752,226.861 M346.795,224.053l0.76-0.679
									l1.021-0.594l3.448,1.991l0.944-0.55l0.747,0.432l-2.905,1.688l-0.747-0.432l0.945-0.549l-2.707-1.563l-0.772,0.679
									L346.795,224.053 M351.893,221.777l0.645,0.373c0.063-0.06,0.127-0.118,0.196-0.174c0.07-0.055,0.146-0.106,0.234-0.158
									c0.508-0.295,1.029-0.449,1.569-0.469c0.541-0.018,1.038,0.107,1.498,0.373c0.447,0.258,0.652,0.553,0.597,0.881
									c-0.049,0.324-0.353,0.648-0.898,0.966c-0.234,0.136-0.488,0.262-0.762,0.368c-0.285,0.107-0.578,0.203-0.901,0.28
									l-0.85-0.49c0.356-0.059,0.674-0.125,0.94-0.206c0.268-0.081,0.489-0.173,0.667-0.276c0.261-0.151,0.405-0.31,0.424-0.469
									c0.024-0.162-0.072-0.306-0.289-0.431c-0.224-0.129-0.472-0.185-0.752-0.17c-0.273,0.012-0.547,0.096-0.807,0.247
									c-0.152,0.089-0.298,0.195-0.431,0.316c-0.134,0.13-0.266,0.273-0.373,0.439l-2.362-1.364l2.664-1.548l0.798,0.46
									L351.893,221.777 M375.016,222.356l-12.124-7l-9.756-5.633l-34.177,19.863l21.88,12.633L375.016,222.356"/>
								<path id="A2.14" fill="#CFD0D2" d="M317.393,236.316l-2.229,0.631l1.148,0.663L317.393,236.316 M330.851,243.984l-2.926,0.324
									l1.188,0.686L330.851,243.984 M320.439,241.766l1.079-0.627l1.009,0.582l-1.079,0.627L320.439,241.766 M312.013,236.899
									l5.712-1.522l1.29,0.745l-2.61,3.313l-1.085-0.627l0.487-0.593l-1.687-0.974l-1.022,0.283L312.013,236.899 M325.629,241.021
									l0.729-0.424l1.173,0.442l1.028,0.594l-3.426,1.99l0.951,0.55l-0.735,0.428l-2.924-1.688l0.735-0.428l0.951,0.549
									l2.696-1.566L325.629,241.021 M326.475,244.375l0.92-0.534l4.165-0.476l1.201,0.693l-2.627,1.526l0.594,0.343l-0.779,0.453
									l-0.594-0.343l-0.755,0.438l-1.022-0.59l0.755-0.438L326.475,244.375 M319.686,237.766l0.913-0.531
									c0.318,0.096,0.625,0.199,0.905,0.311c0.275,0.114,0.536,0.235,0.76,0.364c0.504,0.291,0.779,0.582,0.839,0.866
									c0.059,0.291-0.105,0.55-0.499,0.778c-0.229,0.133-0.501,0.218-0.812,0.266s-0.82,0.055-1.534,0.025l-1.674-0.062
									l1.846,1.065l-0.787,0.457l-3.045-1.759l0.786-0.457l2.871,0.107c0.26,0.003,0.483-0.008,0.661-0.037
									s0.343-0.081,0.47-0.155c0.19-0.11,0.279-0.243,0.272-0.387c-0.015-0.147-0.13-0.28-0.353-0.409
									c-0.166-0.096-0.39-0.181-0.657-0.255C320.373,237.876,320.055,237.817,319.686,237.766 M339.513,242.989l-21.88-12.633
									l-12.471,7.247l9.756,5.633l12.124,7L339.513,242.989"/>
								<path id="A2.16" fill="#BDD4E4" d="M371.486,212.536l-2.238-0.631l1.097,1.294L371.486,212.536 M384.935,204.964
									c-0.242-0.14-0.472-0.222-0.694-0.24c-0.217-0.015-0.414,0.033-0.604,0.144c-0.189,0.111-0.272,0.225-0.246,0.35
									c0.039,0.125,0.174,0.262,0.416,0.402c0.242,0.14,0.479,0.217,0.688,0.235c0.217,0.015,0.42-0.029,0.61-0.14
									c0.19-0.111,0.266-0.229,0.239-0.354C385.318,205.237,385.178,205.104,384.935,204.964 M370.278,215.028l-2.653-3.318
									l1.281-0.745l5.736,1.527l-1.079,0.626l-1.032-0.287l-1.675,0.973l0.5,0.598L370.278,215.028 M375.228,211.228l1.833-1.065
									l0.798,0.46l-3.026,1.758l-0.798-0.461l0.175-1.662c0.013-0.147-0.008-0.276-0.065-0.383
									c-0.051-0.104-0.141-0.199-0.262-0.269c-0.198-0.114-0.428-0.166-0.677-0.163c-0.247,0.011-0.489,0.078-0.705,0.203
									c-0.164,0.096-0.31,0.226-0.437,0.38c-0.133,0.158-0.233,0.343-0.321,0.557l-0.919-0.531
									c0.164-0.185,0.341-0.361,0.531-0.523c0.196-0.159,0.412-0.306,0.634-0.435c0.501-0.291,0.997-0.454,1.486-0.486
									c0.503-0.033,0.948,0.062,1.345,0.291c0.23,0.133,0.377,0.292,0.461,0.472c0.077,0.184,0.098,0.475,0.049,0.888
									L375.228,211.228 M377.565,209.535l1.003-0.583l1.085,0.627l-1.002,0.583L377.565,209.535 M376.608,206.726l0.76-0.678
									l1.021-0.593l3.448,1.991l0.945-0.549l0.747,0.431l-2.905,1.688l-0.747-0.432l0.945-0.549l-2.707-1.563l-0.772,0.679
									L376.608,206.726 M382.523,205.027c0.03-0.129,0.1-0.244,0.188-0.354c0.102-0.11,0.234-0.21,0.405-0.31
									c0.426-0.247,0.889-0.376,1.404-0.38c0.516-0.011,0.968,0.103,1.377,0.339c0.447,0.258,0.659,0.55,0.642,0.878
									c-0.023,0.324-0.276,0.626-0.771,0.914c-0.54,0.313-1.137,0.453-1.805,0.413c-0.662-0.045-1.332-0.254-2.009-0.646
									c-0.689-0.398-1.067-0.814-1.113-1.246c-0.042-0.428,0.23-0.822,0.833-1.172c0.19-0.11,0.393-0.207,0.608-0.295
									c0.203-0.088,0.426-0.166,0.668-0.232l0.771,0.446c-0.26,0.055-0.488,0.114-0.68,0.181
									c-0.203,0.066-0.374,0.144-0.526,0.232c-0.317,0.184-0.476,0.379-0.474,0.586
									C382.044,204.588,382.204,204.806,382.523,205.027 M398.803,208.532l-12.125-7l-9.755-5.633l-22.1,12.843l21.88,12.633
									L398.803,208.532"/>
								<path id="A2.17" fill="#BDD4E4" d="M395.749,198.436l-2.238-0.63l1.097,1.294L395.749,198.436 M394.541,200.927l-2.653-3.318
									l1.281-0.744l5.736,1.526l-1.079,0.627l-1.032-0.288l-1.675,0.973l0.5,0.597L394.541,200.927 M399.49,197.127l1.833-1.065
									l0.798,0.461l-3.025,1.758l-0.799-0.461l0.176-1.663c0.012-0.147-0.008-0.276-0.066-0.383
									c-0.052-0.103-0.141-0.199-0.262-0.269c-0.198-0.114-0.428-0.166-0.677-0.163c-0.247,0.012-0.489,0.078-0.704,0.203
									c-0.166,0.096-0.311,0.226-0.438,0.38c-0.133,0.159-0.233,0.343-0.321,0.557l-0.919-0.531
									c0.164-0.184,0.342-0.361,0.531-0.523c0.196-0.159,0.412-0.306,0.635-0.435c0.501-0.291,0.995-0.453,1.486-0.486
									c0.502-0.033,0.947,0.062,1.344,0.291c0.23,0.133,0.377,0.292,0.461,0.472c0.077,0.184,0.098,0.476,0.056,0.884
									L399.49,197.127 M401.828,195.435l1.002-0.583l1.086,0.627l-1.002,0.583L401.828,195.435 M400.871,192.626l0.76-0.679
									l1.021-0.593l3.447,1.991l0.945-0.549l0.747,0.431l-2.905,1.688l-0.747-0.431l0.945-0.549l-2.707-1.563l-0.772,0.679
									L400.871,192.626 M404.092,190.517l3.134-1.821l0.612,0.354l1.959,3.012l-1.047,0.608l-1.855-2.857l-2.005,1.165
									L404.092,190.517 M422.906,194.524l-12.124-7l-9.755-5.633l-22.709,13.198l21.88,12.633L422.906,194.524"/>
								<path id="A2.01" fill="#EC7405" d="M134.421,239.17l-2.237-0.63l1.095,1.294L134.421,239.17 M143.412,233.302
									c-0.524-0.303-0.944-0.487-1.251-0.553c-0.312-0.07-0.585-0.038-0.819,0.099c-0.229,0.133-0.286,0.292-0.163,0.473
									c0.109,0.18,0.429,0.424,0.952,0.726c0.53,0.306,0.951,0.49,1.27,0.557c0.312,0.07,0.585,0.037,0.814-0.096
									c0.228-0.133,0.285-0.291,0.168-0.476C144.262,233.851,143.942,233.607,143.412,233.302 M133.213,241.662l-2.654-3.317
									l1.282-0.745l5.736,1.526l-1.078,0.626l-1.033-0.287l-1.675,0.974l0.5,0.597L133.213,241.662 M138.162,237.861l1.833-1.065
									l0.798,0.461l-3.026,1.759l-0.798-0.461l0.175-1.663c0.005-0.15-0.008-0.276-0.066-0.383
									c-0.052-0.104-0.135-0.195-0.263-0.27c-0.198-0.114-0.427-0.166-0.676-0.162c-0.248,0.011-0.483,0.074-0.705,0.203
									c-0.165,0.096-0.311,0.225-0.438,0.38c-0.132,0.158-0.233,0.342-0.321,0.557l-0.919-0.531
									c0.165-0.184,0.342-0.361,0.532-0.523c0.196-0.158,0.412-0.307,0.633-0.436c0.501-0.291,0.997-0.453,1.487-0.486
									c0.502-0.033,0.948,0.062,1.344,0.291c0.23,0.133,0.377,0.292,0.461,0.473c0.084,0.181,0.098,0.475,0.05,0.888
									L138.162,237.861 M140.495,236.166l1.002-0.583l1.092,0.631l-1.002,0.582L140.495,236.166 M141.065,234.673
									c-0.696-0.401-1.08-0.8-1.165-1.187c-0.078-0.392,0.162-0.745,0.708-1.062c0.551-0.32,1.156-0.457,1.83-0.413
									c0.675,0.045,1.357,0.27,2.053,0.671c0.696,0.402,1.087,0.797,1.165,1.188c0.079,0.391-0.155,0.741-0.707,1.062
									c-0.546,0.317-1.155,0.457-1.831,0.413C142.45,235.296,141.761,235.074,141.065,234.673 M143.229,231.219l0.759-0.679
									l1.021-0.593l3.447,1.99l0.952-0.553l0.747,0.431l-2.912,1.692l-0.747-0.432l0.945-0.549l-2.707-1.563l-0.772,0.679
									L143.229,231.219 M162.78,234.961L140,221.808l-24.009,13.952l22.78,13.153L162.78,234.961"/>
								<path id="A2.03" fill="#EC7405" d="M169.536,259.445l-2.237-0.63l1.095,1.294L169.536,259.445 M178.527,253.577
									c-0.524-0.303-0.944-0.487-1.251-0.554c-0.312-0.069-0.585-0.037-0.819,0.1c-0.229,0.133-0.286,0.291-0.163,0.472
									c0.109,0.181,0.429,0.424,0.952,0.727c0.53,0.306,0.951,0.49,1.27,0.557c0.312,0.07,0.586,0.037,0.814-0.096
									s0.285-0.291,0.169-0.476C179.377,254.126,179.057,253.883,178.527,253.577 M168.329,261.938l-2.653-3.318l1.281-0.744
									l5.736,1.526l-1.078,0.626l-1.033-0.287l-1.675,0.974l0.5,0.597L168.329,261.938 M173.277,258.137l1.833-1.065l0.798,0.461
									l-3.025,1.758l-0.798-0.46l0.176-1.663c0.005-0.151-0.008-0.276-0.066-0.384c-0.052-0.103-0.135-0.194-0.263-0.269
									c-0.198-0.114-0.427-0.166-0.676-0.162c-0.248,0.011-0.483,0.073-0.705,0.202c-0.165,0.097-0.311,0.226-0.437,0.38
									c-0.133,0.159-0.234,0.343-0.322,0.557l-0.919-0.53c0.165-0.185,0.342-0.361,0.532-0.523
									c0.196-0.159,0.412-0.307,0.633-0.436c0.501-0.291,0.997-0.453,1.487-0.486c0.502-0.033,0.948,0.062,1.344,0.291
									c0.23,0.133,0.377,0.291,0.461,0.472c0.084,0.181,0.098,0.476,0.05,0.889L173.277,258.137 M175.61,256.44l1.002-0.582
									l1.092,0.631l-1.002,0.582L175.61,256.44 M176.18,254.948c-0.696-0.402-1.079-0.801-1.165-1.188
									c-0.078-0.391,0.162-0.744,0.708-1.062c0.551-0.32,1.156-0.457,1.83-0.413c0.675,0.045,1.357,0.27,2.053,0.671
									c0.696,0.402,1.086,0.797,1.165,1.188c0.079,0.391-0.155,0.741-0.707,1.062c-0.545,0.317-1.155,0.457-1.831,0.413
									C177.565,255.571,176.876,255.35,176.18,254.948 M182.091,251.32c0.35-0.121,0.686-0.17,1.011-0.151
									c0.332,0.022,0.637,0.111,0.912,0.27c0.415,0.239,0.576,0.517,0.476,0.826c-0.106,0.306-0.455,0.634-1.063,0.987
									c-0.209,0.122-0.438,0.239-0.692,0.344c-0.248,0.106-0.508,0.198-0.787,0.279l-0.836-0.482
									c0.298-0.056,0.578-0.129,0.826-0.214c0.249-0.085,0.47-0.185,0.66-0.295c0.286-0.166,0.45-0.321,0.506-0.465
									c0.05-0.147-0.014-0.272-0.199-0.38c-0.192-0.11-0.409-0.147-0.669-0.114c-0.248,0.033-0.534,0.141-0.832,0.313
									l-0.431,0.251l-0.696-0.402l0.45-0.262c0.273-0.158,0.425-0.298,0.475-0.424c0.05-0.125-0.021-0.239-0.193-0.339
									c-0.16-0.092-0.344-0.125-0.561-0.104c-0.216,0.022-0.445,0.104-0.68,0.24c-0.171,0.099-0.323,0.21-0.462,0.335
									c-0.133,0.129-0.253,0.266-0.348,0.409l-0.792-0.457c0.146-0.158,0.31-0.306,0.494-0.442
									c0.178-0.14,0.368-0.266,0.571-0.384c0.539-0.312,1.035-0.497,1.479-0.549c0.445-0.051,0.853,0.022,1.211,0.229
									c0.242,0.141,0.377,0.299,0.403,0.461C182.356,250.967,182.275,251.14,182.091,251.32 M198.272,255.453l-22.199-12.817
									l-24.009,13.952l22.199,12.818L198.272,255.453"/>
								<path id="A2.18" fill="#CFD0D2" d="M426.683,173.246l-2.237-0.63l1.095,1.293L426.683,173.246 M438.28,164.738
									c-0.166-0.096-0.345-0.14-0.522-0.14c-0.179,0-0.356,0.052-0.521,0.148c-0.171,0.1-0.26,0.203-0.259,0.306
									c-0.007,0.107,0.077,0.207,0.243,0.302c0.166,0.096,0.338,0.144,0.522,0.14c0.179,0,0.356-0.051,0.528-0.151
									c0.164-0.096,0.253-0.199,0.252-0.303C438.523,164.937,438.446,164.834,438.28,164.738 M440.201,165.744
									c-0.204-0.118-0.414-0.18-0.631-0.181c-0.216,0-0.426,0.056-0.622,0.17c-0.203,0.118-0.298,0.24-0.298,0.365
									c0.001,0.125,0.109,0.247,0.313,0.365c0.205,0.118,0.416,0.181,0.632,0.181c0.217,0,0.426-0.055,0.629-0.173
									c0.196-0.114,0.292-0.236,0.291-0.361S440.405,165.862,440.201,165.744 M425.474,175.738l-2.653-3.318l1.281-0.745
									l5.736,1.526l-1.078,0.627l-1.026-0.291l-1.681,0.977l0.5,0.597L425.474,175.738 M430.43,171.934l1.826-1.062l0.798,0.461
									l-3.019,1.755l-0.799-0.461l0.17-1.659c0.012-0.147-0.009-0.277-0.061-0.387c-0.051-0.104-0.147-0.195-0.269-0.266
									c-0.198-0.114-0.421-0.169-0.675-0.162c-0.248,0.011-0.483,0.074-0.705,0.203c-0.165,0.096-0.312,0.225-0.438,0.379
									s-0.233,0.343-0.321,0.557l-0.92-0.531c0.165-0.184,0.342-0.361,0.532-0.523c0.196-0.158,0.412-0.306,0.641-0.439
									c0.494-0.287,0.99-0.45,1.486-0.486c0.496-0.029,0.942,0.066,1.338,0.294c0.229,0.133,0.383,0.288,0.461,0.472
									c0.084,0.181,0.098,0.476,0.056,0.885L430.43,171.934 M432.762,170.246l1.009-0.586l1.085,0.626l-1.009,0.586
									L432.762,170.246 M431.804,167.437l0.76-0.679l1.021-0.593l3.448,1.991l0.951-0.553l0.747,0.431l-2.911,1.692l-0.747-0.431
									l0.944-0.549l-2.707-1.563l-0.772,0.678L431.804,167.437 M439.364,165.078c0.368-0.119,0.699-0.17,1.023-0.151
									c0.325,0.019,0.618,0.106,0.886,0.261c0.415,0.24,0.595,0.498,0.526,0.782c-0.056,0.284-0.359,0.579-0.898,0.892
									c-0.539,0.313-1.054,0.494-1.544,0.527c-0.489,0.041-0.936-0.063-1.351-0.302c-0.269-0.155-0.421-0.324-0.454-0.512
									c-0.039-0.185,0.055-0.38,0.258-0.594c-0.331,0.103-0.637,0.147-0.929,0.133c-0.287-0.019-0.548-0.096-0.784-0.232
									c-0.357-0.206-0.492-0.438-0.418-0.697c0.075-0.258,0.373-0.535,0.88-0.83c0.501-0.291,0.978-0.464,1.423-0.509
									c0.445-0.044,0.847,0.034,1.204,0.24c0.236,0.137,0.37,0.288,0.403,0.454C439.616,164.708,439.541,164.885,439.364,165.078
									 M448.67,165.454l-10.017-5.784l-27.27,15.958l10.018,5.784L448.67,165.454"/>
								<path id="A2.05" fill="#CFD0D2" d="M199.543,276.771l-2.237-0.631l1.095,1.295L199.543,276.771 M208.535,270.903
									c-0.524-0.303-0.945-0.487-1.257-0.557c-0.306-0.066-0.579-0.034-0.813,0.103c-0.229,0.133-0.285,0.291-0.169,0.469
									c0.116,0.184,0.436,0.427,0.959,0.729c0.53,0.306,0.951,0.49,1.269,0.557c0.312,0.07,0.586,0.036,0.814-0.097
									c0.228-0.132,0.285-0.29,0.168-0.475C209.385,271.452,209.065,271.209,208.535,270.903 M198.33,279.26l-2.646-3.313
									l1.281-0.745l5.729,1.522l-1.078,0.626l-1.026-0.283l-1.675,0.974l0.493,0.593L198.33,279.26 M203.285,275.463l1.833-1.065
									l0.791,0.457l-3.026,1.758l-0.791-0.456l0.175-1.663c0.005-0.151-0.014-0.28-0.066-0.384
									c-0.052-0.103-0.141-0.198-0.263-0.269c-0.197-0.114-0.427-0.166-0.675-0.162c-0.254,0.007-0.483,0.073-0.705,0.202
									c-0.166,0.096-0.311,0.226-0.437,0.38c-0.133,0.159-0.234,0.343-0.322,0.558l-0.919-0.531
									c0.164-0.185,0.342-0.361,0.532-0.523c0.196-0.159,0.412-0.307,0.633-0.436c0.501-0.291,0.997-0.453,1.487-0.486
									c0.502-0.033,0.948,0.062,1.344,0.291c0.229,0.133,0.377,0.291,0.46,0.472c0.084,0.181,0.099,0.476,0.05,0.889
									L203.285,275.463 M205.618,273.767l1.002-0.582l1.084,0.626l-1.002,0.583L205.618,273.767 M206.188,272.274
									c-0.696-0.402-1.08-0.801-1.165-1.188c-0.078-0.391,0.162-0.744,0.708-1.062c0.551-0.32,1.155-0.457,1.83-0.413
									s1.357,0.27,2.053,0.671c0.695,0.402,1.085,0.796,1.165,1.188c0.079,0.391-0.155,0.74-0.707,1.062
									c-0.546,0.316-1.156,0.457-1.831,0.413C207.573,272.896,206.884,272.676,206.188,272.274 M209.764,268.688l0.645,0.372
									c0.063-0.059,0.121-0.114,0.197-0.173c0.069-0.056,0.145-0.107,0.234-0.159c0.508-0.295,1.029-0.449,1.57-0.468
									c0.541-0.019,1.038,0.106,1.497,0.372c0.447,0.259,0.653,0.554,0.597,0.881c-0.049,0.325-0.353,0.648-0.898,0.966
									c-0.234,0.137-0.488,0.262-0.768,0.365c-0.28,0.11-0.579,0.203-0.896,0.283l-0.85-0.49c0.356-0.059,0.662-0.125,0.934-0.202
									c0.273-0.085,0.496-0.177,0.673-0.28c0.26-0.151,0.406-0.31,0.424-0.468c0.024-0.162-0.071-0.307-0.289-0.432
									c-0.223-0.129-0.472-0.185-0.751-0.169c-0.274,0.011-0.547,0.095-0.807,0.246c-0.152,0.089-0.298,0.195-0.432,0.317
									c-0.132,0.129-0.265,0.272-0.379,0.435l-2.355-1.359l2.664-1.549l0.798,0.461L209.764,268.688 M221.537,268.887
									l-10.189-5.884l-24.009,13.953l10.19,5.883L221.537,268.887"/>
								<path id="A2.07" fill="#CFD0D2" d="M236.906,298.344l-2.237-0.63l1.095,1.294L236.906,298.344 M245.897,292.476
									c-0.523-0.302-0.944-0.487-1.257-0.557c-0.306-0.066-0.579-0.033-0.813,0.103c-0.229,0.133-0.285,0.292-0.169,0.469
									c0.116,0.184,0.435,0.428,0.959,0.73c0.53,0.306,0.951,0.489,1.269,0.556c0.312,0.07,0.586,0.037,0.814-0.096
									c0.228-0.133,0.285-0.291,0.168-0.476C246.747,293.024,246.428,292.782,245.897,292.476 M235.692,300.832l-2.647-3.313
									l1.282-0.745l5.729,1.522l-1.078,0.627l-1.026-0.283l-1.674,0.973l0.493,0.594L235.692,300.832 M240.647,297.036
									l1.834-1.065l0.791,0.456l-3.026,1.759l-0.791-0.457l0.175-1.663c0.005-0.15-0.014-0.279-0.066-0.383
									s-0.141-0.198-0.263-0.27c-0.197-0.113-0.427-0.166-0.676-0.161c-0.248,0.011-0.483,0.073-0.705,0.202
									c-0.165,0.096-0.31,0.225-0.437,0.38c-0.133,0.158-0.233,0.343-0.321,0.557l-0.919-0.531
									c0.164-0.184,0.342-0.361,0.532-0.523c0.196-0.158,0.412-0.306,0.633-0.435c0.501-0.292,0.997-0.453,1.487-0.487
									c0.502-0.032,0.948,0.062,1.345,0.292c0.229,0.132,0.377,0.291,0.46,0.472c0.084,0.181,0.099,0.476,0.05,0.888
									L240.647,297.036 M242.98,295.34l1.002-0.582l1.085,0.626l-1.002,0.582L242.98,295.34 M243.551,293.847
									c-0.696-0.401-1.08-0.8-1.166-1.187c-0.078-0.391,0.162-0.745,0.708-1.062c0.551-0.32,1.156-0.457,1.83-0.412
									c0.675,0.044,1.357,0.269,2.053,0.671c0.696,0.401,1.086,0.796,1.165,1.187s-0.156,0.741-0.707,1.062
									c-0.545,0.317-1.155,0.457-1.831,0.413C244.936,294.47,244.246,294.249,243.551,293.847 M245.25,290.426l3.133-1.82
									l0.612,0.354l1.952,3.008l-1.047,0.608l-1.848-2.854l-2.004,1.165L245.25,290.426 M258.568,290.268l-10.19-5.884
									l-24.008,13.953l10.19,5.884L258.568,290.268"/>
								<path id="A2.02" fill="#EC7405" d="M151.979,249.308l-2.237-0.63l1.095,1.294L151.979,249.308 M160.97,243.439
									c-0.524-0.303-0.944-0.487-1.251-0.553c-0.312-0.07-0.585-0.038-0.819,0.099c-0.229,0.133-0.286,0.292-0.163,0.472
									c0.109,0.181,0.429,0.424,0.952,0.727c0.53,0.306,0.951,0.49,1.27,0.557c0.312,0.07,0.585,0.037,0.814-0.096
									c0.228-0.133,0.285-0.291,0.169-0.476C161.819,243.988,161.5,243.745,160.97,243.439 M150.771,251.8l-2.654-3.317
									l1.282-0.745l5.736,1.526l-1.078,0.626l-1.033-0.287l-1.675,0.974l0.5,0.597L150.771,251.8 M155.72,247.999l1.833-1.065
									l0.798,0.461l-3.025,1.758l-0.798-0.46l0.175-1.663c0.005-0.15-0.008-0.276-0.066-0.383
									c-0.052-0.104-0.135-0.195-0.263-0.27c-0.198-0.114-0.427-0.166-0.676-0.162c-0.248,0.011-0.483,0.074-0.705,0.202
									c-0.165,0.097-0.311,0.226-0.437,0.38c-0.133,0.159-0.234,0.343-0.322,0.557l-0.919-0.53
									c0.165-0.185,0.342-0.361,0.532-0.523c0.196-0.159,0.412-0.307,0.633-0.436c0.501-0.291,0.997-0.453,1.487-0.486
									c0.502-0.033,0.948,0.062,1.344,0.291c0.23,0.133,0.377,0.292,0.461,0.472c0.084,0.182,0.098,0.476,0.05,0.889
									L155.72,247.999 M158.052,246.303l1.002-0.582l1.092,0.631l-1.002,0.582L158.052,246.303 M158.623,244.811
									c-0.696-0.402-1.079-0.801-1.165-1.188c-0.078-0.391,0.162-0.744,0.708-1.062c0.551-0.32,1.156-0.457,1.83-0.413
									c0.675,0.045,1.357,0.27,2.053,0.671c0.696,0.402,1.087,0.797,1.165,1.188c0.079,0.391-0.155,0.741-0.707,1.062
									c-0.545,0.317-1.155,0.457-1.831,0.413C160.008,245.434,159.318,245.212,158.623,244.811 M164.981,242.617l1.827-1.062
									l0.798,0.46l-3.02,1.755l-0.798-0.46l0.169-1.659c0.005-0.151-0.008-0.277-0.06-0.388c-0.052-0.103-0.141-0.191-0.269-0.265
									c-0.198-0.114-0.42-0.17-0.675-0.163c-0.249,0.012-0.483,0.074-0.699,0.199c-0.171,0.1-0.316,0.229-0.443,0.384
									c-0.126,0.155-0.233,0.343-0.321,0.557l-0.919-0.53c0.165-0.186,0.342-0.362,0.532-0.524
									c0.197-0.158,0.412-0.306,0.64-0.438c0.495-0.287,0.991-0.449,1.487-0.486c0.496-0.029,0.942,0.066,1.338,0.295
									c0.23,0.133,0.383,0.287,0.46,0.472c0.084,0.181,0.099,0.476,0.056,0.885L164.981,242.617 M174.668,241.824l-10.196-5.887
									l-24.008,13.953l10.196,5.887L174.668,241.824"/>
								<path id="A2.04" fill="#CFD0D2" d="M188.051,270.136l-2.237-0.63l1.095,1.294L188.051,270.136 M197.042,264.268
									c-0.523-0.303-0.944-0.487-1.257-0.557c-0.306-0.066-0.579-0.033-0.813,0.103c-0.229,0.133-0.285,0.292-0.169,0.469
									c0.116,0.184,0.435,0.427,0.959,0.729c0.53,0.306,0.951,0.49,1.269,0.557c0.312,0.07,0.586,0.037,0.814-0.096
									c0.228-0.133,0.285-0.291,0.168-0.476C197.892,264.816,197.572,264.573,197.042,264.268 M200.757,262.745l-1.75-1.011
									l0.57,1.696L200.757,262.745 M186.844,272.628l-2.654-3.317l1.282-0.745l5.736,1.526l-1.078,0.627l-1.033-0.288
									l-1.674,0.974l0.5,0.598L186.844,272.628 M191.792,268.827l1.833-1.065l0.798,0.461l-3.026,1.759l-0.798-0.461l0.175-1.663
									c0.005-0.15-0.008-0.276-0.066-0.383c-0.052-0.104-0.142-0.199-0.263-0.27c-0.198-0.114-0.427-0.166-0.675-0.162
									c-0.248,0.011-0.483,0.074-0.705,0.203c-0.166,0.096-0.311,0.225-0.438,0.379c-0.133,0.159-0.233,0.344-0.321,0.558
									l-0.919-0.531c0.164-0.185,0.342-0.361,0.532-0.523c0.196-0.159,0.412-0.307,0.634-0.435
									c0.501-0.292,0.996-0.454,1.487-0.487c0.502-0.033,0.948,0.062,1.344,0.291c0.229,0.133,0.377,0.292,0.461,0.472
									c0.083,0.181,0.098,0.476,0.05,0.889L191.792,268.827 M194.125,267.132l1.002-0.583l1.092,0.631l-1.002,0.582
									L194.125,267.132 M194.696,265.639c-0.696-0.401-1.08-0.8-1.165-1.188c-0.078-0.391,0.162-0.744,0.707-1.062
									c0.551-0.32,1.156-0.457,1.831-0.413c0.675,0.045,1.357,0.27,2.053,0.671c0.696,0.402,1.086,0.797,1.165,1.188
									s-0.155,0.741-0.707,1.062c-0.546,0.317-1.156,0.457-1.831,0.413C196.081,266.262,195.392,266.04,194.696,265.639
									 M198.771,263.736l-0.834-2.414l1.193-0.693l2.644,1.526l0.59-0.343l0.785,0.453l-0.59,0.343l0.766,0.442l-1.015,0.59
									l-0.766-0.442l-1.846,1.073L198.771,263.736 M210.045,262.251l-10.19-5.884l-24.008,13.953l10.189,5.884L210.045,262.251"/>
								<path id="A2.09" fill="#CFD0D2" d="M287.203,299.907l-2.23,0.63l1.149,0.664L287.203,299.907 M297.065,305.234
									c-0.236-0.137-0.51-0.17-0.815-0.104c-0.318,0.066-0.737,0.251-1.258,0.553c-0.526,0.307-0.843,0.55-0.956,0.734
									c-0.121,0.181-0.062,0.339,0.175,0.475c0.229,0.133,0.497,0.163,0.814,0.096c0.311-0.069,0.73-0.254,1.256-0.56
									c0.521-0.303,0.837-0.546,0.957-0.727C297.353,305.525,297.295,305.366,297.065,305.234 M300.73,307.291
									c-0.186-0.106-0.39-0.158-0.606-0.136c-0.217,0.015-0.451,0.092-0.691,0.231c-0.242,0.141-0.375,0.276-0.399,0.402
									c-0.031,0.121,0.053,0.243,0.237,0.35c0.191,0.11,0.396,0.155,0.611,0.141s0.451-0.092,0.692-0.232s0.374-0.276,0.398-0.401
									C301.005,307.516,300.921,307.401,300.73,307.291 M290.25,305.355l1.078-0.626l1.009,0.582l-1.078,0.627L290.25,305.355
									 M281.822,300.489l5.713-1.521l1.289,0.744l-2.609,3.313l-1.085-0.626l0.486-0.594l-1.686-0.973l-1.022,0.283
									L281.822,300.489 M289.496,301.356l0.914-0.531c0.319,0.096,0.625,0.199,0.905,0.31c0.274,0.114,0.53,0.239,0.76,0.372
									c0.498,0.288,0.779,0.575,0.845,0.863c0.052,0.287-0.112,0.545-0.505,0.774c-0.228,0.132-0.495,0.221-0.813,0.265
									c-0.311,0.048-0.82,0.056-1.527,0.029l-1.674-0.062l1.839,1.062l-0.786,0.457l-3.045-1.758l0.786-0.457l2.871,0.106
									c0.261,0.004,0.483-0.007,0.662-0.037c0.185-0.025,0.343-0.08,0.464-0.15c0.196-0.114,0.285-0.247,0.277-0.392
									c-0.019-0.144-0.128-0.279-0.352-0.409c-0.166-0.095-0.389-0.181-0.657-0.254
									C290.184,301.467,289.865,301.408,289.496,301.356 M293.481,307.317c-0.555-0.321-0.793-0.672-0.719-1.062
									c0.073-0.391,0.454-0.789,1.145-1.19s1.377-0.623,2.052-0.667c0.674-0.044,1.28,0.092,1.835,0.413
									c0.549,0.316,0.786,0.667,0.712,1.058s-0.459,0.785-1.151,1.188c-0.691,0.401-1.371,0.627-2.046,0.67
									C294.635,307.771,294.03,307.634,293.481,307.317 M298.394,308.441c-0.428-0.247-0.646-0.52-0.66-0.814
									c-0.015-0.295,0.174-0.561,0.58-0.797c0.45-0.262,0.953-0.384,1.52-0.372c0.56,0.015,1.089,0.158,1.581,0.442
									c0.549,0.317,0.786,0.668,0.719,1.055c-0.068,0.387-0.436,0.77-1.107,1.161c-0.685,0.397-1.397,0.611-2.142,0.638
									c-0.745,0.025-1.419-0.137-2.026-0.486c-0.198-0.115-0.377-0.232-0.524-0.354c-0.153-0.117-0.281-0.243-0.396-0.376
									l0.768-0.446c0.096,0.145,0.192,0.273,0.314,0.388c0.121,0.114,0.249,0.217,0.402,0.306c0.319,0.185,0.664,0.28,1.02,0.28
									c0.356,0,0.725-0.096,1.105-0.28c-0.223-0.019-0.427-0.056-0.612-0.11C298.745,308.614,298.567,308.541,298.394,308.441
									 M312.074,309.123l-27.856-16.084l-10.999,6.393l27.856,16.084L312.074,309.123"/>
								<path id="A2.10" fill="#BDD4E4" d="M307.365,296.771l-2.237-0.631l1.095,1.294L307.365,296.771 M320.041,288.76
									c-0.522-0.303-0.938-0.49-1.256-0.557c-0.306-0.066-0.58-0.033-0.809,0.1c-0.234,0.137-0.29,0.295-0.175,0.472
									c0.115,0.185,0.442,0.424,0.965,0.726c0.53,0.307,0.945,0.494,1.264,0.561c0.312,0.07,0.585,0.037,0.819-0.1
									c0.229-0.132,0.279-0.287,0.163-0.472C320.897,289.306,320.571,289.065,320.041,288.76 M306.157,299.262l-2.653-3.317
									l1.282-0.744l5.735,1.525l-1.078,0.627l-1.033-0.287l-1.674,0.974l0.499,0.597L306.157,299.262 M311.105,295.461
									l1.834-1.065l0.798,0.461l-3.025,1.759l-0.798-0.461l0.176-1.662c0.005-0.151-0.016-0.281-0.066-0.384
									c-0.052-0.103-0.142-0.199-0.263-0.269c-0.197-0.114-0.427-0.166-0.676-0.162c-0.248,0.011-0.483,0.073-0.705,0.202
									c-0.165,0.096-0.311,0.225-0.437,0.38c-0.133,0.158-0.233,0.343-0.322,0.557l-0.919-0.531
									c0.164-0.184,0.343-0.361,0.532-0.523c0.196-0.158,0.412-0.306,0.633-0.435c0.502-0.291,0.997-0.453,1.487-0.487
									c0.502-0.032,0.948,0.063,1.345,0.292c0.229,0.133,0.377,0.291,0.46,0.472c0.084,0.181,0.099,0.476,0.05,0.889
									L311.105,295.461 M313.439,293.766l1.002-0.582l1.091,0.63l-1.002,0.582L313.439,293.766 M312.487,290.96l0.761-0.678
									l1.021-0.594l3.447,1.99l0.944-0.549l0.747,0.431l-2.905,1.688l-0.747-0.431l0.945-0.549l-2.707-1.563l-0.772,0.679
									L312.487,290.96 M317.695,290.131c-0.696-0.401-1.08-0.8-1.159-1.19s0.155-0.741,0.706-1.062
									c0.546-0.317,1.149-0.454,1.824-0.409c0.676,0.044,1.357,0.269,2.054,0.671c0.695,0.401,1.086,0.796,1.165,1.187
									c0.078,0.392-0.155,0.741-0.701,1.059c-0.551,0.32-1.155,0.457-1.83,0.412C319.079,290.754,318.391,290.532,317.695,290.131
									 M339.318,293.29l-27.856-16.084l-25.671,14.919l27.856,16.084L339.318,293.29"/>
								<path id="A2.08" fill="#BDD4E4" d="M254.717,327.367l-2.237-0.63l1.096,1.293L254.717,327.367 M263.708,321.498
									c-0.523-0.302-0.945-0.486-1.257-0.557c-0.306-0.065-0.58-0.033-0.814,0.104c-0.229,0.133-0.285,0.292-0.169,0.469
									c0.116,0.184,0.436,0.428,0.958,0.729c0.53,0.306,0.952,0.49,1.27,0.557c0.312,0.07,0.585,0.037,0.814-0.096
									s0.285-0.291,0.169-0.476C264.558,322.048,264.238,321.805,263.708,321.498 M266.309,318.863
									c-0.166-0.096-0.338-0.145-0.516-0.145c-0.186,0.004-0.357,0.052-0.521,0.147c-0.171,0.1-0.26,0.203-0.259,0.307
									c-0.005,0.106,0.077,0.206,0.244,0.302c0.165,0.096,0.337,0.144,0.522,0.141c0.178,0,0.356-0.052,0.527-0.151
									c0.165-0.096,0.247-0.195,0.253-0.303C266.558,319.058,266.474,318.959,266.309,318.863 M268.237,319.865
									c-0.205-0.118-0.421-0.177-0.631-0.18c-0.217,0-0.427,0.055-0.623,0.169c-0.203,0.118-0.298,0.239-0.297,0.365
									c0,0.125,0.103,0.251,0.308,0.368c0.204,0.118,0.421,0.177,0.638,0.177c0.215,0,0.426-0.056,0.628-0.173
									c0.196-0.114,0.291-0.236,0.291-0.361C268.543,320.108,268.44,319.983,268.237,319.865 M253.509,329.859l-2.653-3.317
									l1.282-0.745l5.735,1.526l-1.084,0.63l-1.025-0.291l-1.675,0.974l0.5,0.597L253.509,329.859 M258.458,326.059l1.833-1.065
									l0.798,0.461l-3.026,1.758l-0.798-0.46l0.176-1.663c0.006-0.15-0.015-0.28-0.065-0.383c-0.052-0.104-0.142-0.199-0.263-0.27
									c-0.198-0.114-0.427-0.166-0.675-0.162c-0.249,0.011-0.484,0.074-0.706,0.202c-0.165,0.097-0.311,0.226-0.437,0.381
									c-0.133,0.158-0.233,0.343-0.322,0.556l-0.919-0.53c0.166-0.185,0.342-0.361,0.532-0.523
									c0.197-0.158,0.412-0.307,0.633-0.436c0.501-0.291,0.998-0.453,1.487-0.486c0.502-0.033,0.949,0.062,1.345,0.292
									c0.229,0.132,0.376,0.29,0.46,0.472c0.084,0.181,0.099,0.475,0.05,0.888L258.458,326.059 M260.791,324.363l1.002-0.583
									l1.091,0.63l-1.002,0.583L260.791,324.363 M261.361,322.87c-0.696-0.402-1.08-0.8-1.165-1.188
									c-0.079-0.391,0.161-0.744,0.707-1.062c0.545-0.316,1.155-0.457,1.83-0.413c0.675,0.045,1.357,0.27,2.053,0.672
									c0.696,0.401,1.086,0.796,1.165,1.187c0.079,0.391-0.162,0.744-0.707,1.062s-1.155,0.457-1.83,0.413
									C262.745,323.492,262.057,323.271,261.361,322.87 M267.399,319.198c0.355-0.118,0.699-0.17,1.024-0.151
									c0.317,0.022,0.617,0.107,0.885,0.262c0.416,0.24,0.588,0.502,0.526,0.781c-0.055,0.284-0.359,0.579-0.898,0.893
									c-0.546,0.317-1.054,0.494-1.544,0.527c-0.49,0.041-0.941-0.059-1.357-0.299c-0.268-0.155-0.416-0.328-0.454-0.513
									c-0.033-0.188,0.054-0.387,0.257-0.593c-0.331,0.103-0.636,0.146-0.922,0.129c-0.286-0.019-0.547-0.096-0.784-0.232
									c-0.357-0.206-0.499-0.435-0.418-0.697c0.075-0.258,0.373-0.534,0.881-0.829c0.501-0.291,0.971-0.461,1.422-0.509
									c0.446-0.044,0.847,0.033,1.204,0.24c0.236,0.136,0.365,0.291,0.397,0.457C267.651,318.829,267.576,319.006,267.399,319.198
									 M299.502,316.43l-27.856-16.084l-50.466,29.329l27.856,16.084L299.502,316.43"/>
								<polyline fill="#EC7405" points="476.104,181.294 462.378,173.368 439.244,186.812 452.972,194.738 476.104,181.294
																	"/>
								<path fill="#CFD0D2" d="M240.818,305.857l6.14-3.568l1.558,0.899l-1.529,0.888l1.545,0.893l-1.535,0.892l1.539,0.889
									l-1.528,0.889l1.539,0.888l-1.548,0.9l-3.097-1.788L240.818,305.857 M442.001,199.508l-2.815-1.625l-4.225,2.455
									l-9.309-5.375l-24.263,14.101l-59.283,34.453l-11.697,6.798l-49.16,28.569l-10.562,6.138l-121.806-70.329l-29.178-16.847
									l-5.506,3.2l21.766,12.567l-7.86,4.567l-21.765-12.567l-34.132,19.836l29.178,16.847l38.503-22.376l121.806,70.329
									l-26.039,15.133l12.124,7l190.956-110.975L442.001,199.508 M443.715,172.778l6.141-3.569l1.559,0.899l-1.529,0.889
									l1.545,0.892l-1.535,0.892l1.539,0.888l-1.529,0.889l1.539,0.888l-1.548,0.9l-3.096-1.788L443.715,172.778 M461.012,172.579
									l-10.548-6.09l-29.09,16.906l0.39,0.225l4.23-2.459l23.866,13.78l0.152-0.089l-13.708-7.915L461.012,172.579"/>
								<path fill="#FFFFFF" d="M133.279,239.834l-1.095-1.294l2.237,0.63L133.279,239.834 M137.577,239.126l-5.736-1.526
									l-1.282,0.745l2.654,3.317l1.078-0.627l-0.5-0.597l1.675-0.974l1.033,0.287L137.577,239.126"/>
								<path fill="#FFFFFF" d="M140.793,237.257l-0.798-0.461l-1.833,1.065l0.103-0.97c0.048-0.413,0.034-0.707-0.05-0.888
									c-0.083-0.181-0.231-0.34-0.461-0.473c-0.396-0.229-0.842-0.324-1.344-0.291c-0.49,0.033-0.986,0.195-1.487,0.486
									c-0.222,0.129-0.437,0.277-0.633,0.436c-0.19,0.162-0.368,0.34-0.532,0.523l0.919,0.531
									c0.088-0.215,0.189-0.398,0.321-0.557c0.127-0.155,0.272-0.284,0.438-0.38c0.222-0.129,0.457-0.192,0.705-0.203
									c0.249-0.004,0.478,0.048,0.676,0.162c0.128,0.074,0.211,0.166,0.263,0.27c0.058,0.106,0.071,0.232,0.066,0.383
									l-0.175,1.663l0.798,0.461L140.793,237.257"/>
								<polyline fill="#FFFFFF" points="142.588,236.214 141.497,235.583 140.495,236.166 141.586,236.796 142.588,236.214
																	"/>
								<path fill="#FFFFFF" d="M142.131,234.046c-0.523-0.302-0.843-0.546-0.952-0.726c-0.123-0.181-0.065-0.34,0.163-0.473
									c0.234-0.137,0.507-0.169,0.819-0.099c0.307,0.065,0.727,0.25,1.251,0.553c0.53,0.306,0.85,0.549,0.971,0.729
									c0.116,0.185,0.06,0.343-0.168,0.476c-0.229,0.133-0.502,0.166-0.814,0.096
									C143.082,234.536,142.661,234.352,142.131,234.046 M144.49,232.682c-0.696-0.401-1.378-0.626-2.053-0.671
									c-0.674-0.044-1.279,0.093-1.83,0.413c-0.546,0.317-0.785,0.671-0.708,1.062c0.085,0.387,0.469,0.785,1.165,1.187
									s1.385,0.623,2.053,0.671c0.676,0.044,1.285-0.096,1.831-0.413c0.551-0.32,0.786-0.671,0.707-1.062
									C145.577,233.479,145.187,233.084,144.49,232.682"/>
								<polyline fill="#FFFFFF" points="150.156,231.815 149.409,231.385 148.457,231.938 145.01,229.947 143.988,230.54
									143.229,231.219 143.963,231.643 144.735,230.964 147.442,232.527 146.497,233.076 147.244,233.508 150.156,231.815
																	"/>
								<path fill="#FFFFFF" d="M150.836,249.972l-1.095-1.294l2.237,0.63L150.836,249.972 M155.135,249.264l-5.736-1.526
									l-1.282,0.745l2.654,3.317l1.078-0.627l-0.5-0.597l1.675-0.974l1.033,0.287L155.135,249.264"/>
								<path fill="#FFFFFF" d="M158.351,247.395l-0.798-0.461l-1.833,1.065l0.103-0.97c0.048-0.413,0.034-0.707-0.05-0.889
									c-0.083-0.18-0.231-0.339-0.461-0.472c-0.396-0.229-0.842-0.324-1.344-0.291c-0.49,0.033-0.986,0.195-1.487,0.486
									c-0.222,0.129-0.437,0.276-0.633,0.436c-0.19,0.162-0.368,0.339-0.532,0.523l0.919,0.53
									c0.088-0.214,0.189-0.397,0.322-0.557c0.126-0.154,0.272-0.283,0.437-0.38c0.222-0.128,0.457-0.191,0.705-0.202
									c0.249-0.004,0.478,0.048,0.676,0.162c0.128,0.074,0.211,0.166,0.263,0.27c0.058,0.106,0.071,0.232,0.066,0.383
									l-0.175,1.663l0.798,0.46L158.351,247.395"/>
								<polyline fill="#FFFFFF" points="160.146,246.352 159.055,245.721 158.052,246.303 159.144,246.934 160.146,246.352
																	"/>
								<path fill="#FFFFFF" d="M159.688,244.184c-0.523-0.303-0.843-0.546-0.952-0.727c-0.123-0.18-0.065-0.339,0.163-0.472
									c0.234-0.137,0.507-0.169,0.819-0.099c0.307,0.065,0.727,0.25,1.251,0.553c0.53,0.306,0.85,0.549,0.971,0.729
									c0.116,0.185,0.059,0.343-0.169,0.476c-0.229,0.133-0.502,0.166-0.814,0.096
									C160.64,244.674,160.219,244.489,159.688,244.184 M162.048,242.819c-0.696-0.401-1.378-0.626-2.053-0.671
									c-0.674-0.044-1.279,0.093-1.83,0.413c-0.546,0.317-0.785,0.671-0.708,1.062c0.086,0.387,0.469,0.785,1.165,1.188
									c0.696,0.401,1.385,0.623,2.053,0.671c0.676,0.044,1.286-0.096,1.831-0.413c0.551-0.32,0.786-0.671,0.707-1.062
									C163.135,243.616,162.744,243.222,162.048,242.819"/>
								<path fill="#FFFFFF" d="M167.606,242.016l-0.798-0.46l-1.827,1.062l0.103-0.97c0.042-0.409,0.028-0.704-0.056-0.885
									c-0.077-0.185-0.23-0.339-0.46-0.472c-0.396-0.229-0.842-0.324-1.338-0.295c-0.496,0.037-0.992,0.199-1.487,0.486
									c-0.228,0.133-0.443,0.28-0.64,0.438c-0.19,0.162-0.367,0.339-0.532,0.524l0.919,0.53c0.088-0.214,0.195-0.401,0.321-0.557
									c0.127-0.155,0.272-0.284,0.443-0.384c0.216-0.125,0.451-0.188,0.699-0.199c0.254-0.007,0.477,0.049,0.675,0.163
									c0.128,0.073,0.217,0.162,0.269,0.265c0.052,0.11,0.065,0.236,0.06,0.388l-0.169,1.659l0.798,0.46L167.606,242.016"/>
								<path fill="#FFFFFF" d="M168.394,260.109l-1.095-1.294l2.237,0.63L168.394,260.109 M172.692,259.401l-5.736-1.526
									l-1.281,0.744l2.653,3.318l1.078-0.627l-0.5-0.597l1.675-0.974l1.033,0.287L172.692,259.401"/>
								<path fill="#FFFFFF" d="M175.909,257.532l-0.798-0.461l-1.833,1.065l0.103-0.97c0.048-0.413,0.034-0.708-0.05-0.889
									c-0.083-0.181-0.231-0.339-0.461-0.472c-0.396-0.229-0.842-0.324-1.344-0.291c-0.49,0.033-0.985,0.195-1.487,0.486
									c-0.222,0.129-0.437,0.276-0.633,0.436c-0.19,0.162-0.368,0.339-0.532,0.523l0.919,0.53
									c0.088-0.214,0.189-0.397,0.322-0.557c0.126-0.154,0.272-0.283,0.437-0.38c0.222-0.129,0.457-0.191,0.705-0.202
									c0.249-0.004,0.478,0.048,0.676,0.162c0.128,0.074,0.211,0.166,0.263,0.269c0.058,0.107,0.071,0.232,0.066,0.384
									l-0.176,1.663l0.798,0.46L175.909,257.532"/>
								<polyline fill="#FFFFFF" points="177.704,256.489 176.612,255.858 175.61,256.44 176.702,257.071 177.704,256.489
									"/>
								<path fill="#FFFFFF" d="M177.246,254.321c-0.523-0.303-0.843-0.546-0.952-0.727c-0.123-0.181-0.065-0.339,0.163-0.472
									c0.234-0.137,0.507-0.169,0.819-0.1c0.307,0.066,0.727,0.251,1.251,0.554c0.53,0.306,0.85,0.549,0.971,0.729
									c0.116,0.185,0.059,0.343-0.169,0.476s-0.502,0.166-0.814,0.096C178.197,254.812,177.776,254.627,177.246,254.321
									 M179.606,252.957c-0.696-0.401-1.378-0.626-2.053-0.671c-0.674-0.044-1.279,0.093-1.83,0.413
									c-0.546,0.317-0.785,0.671-0.708,1.062c0.086,0.387,0.469,0.785,1.165,1.188c0.696,0.401,1.385,0.623,2.053,0.671
									c0.676,0.044,1.286-0.096,1.831-0.413c0.551-0.32,0.786-0.671,0.707-1.062C180.692,253.754,180.302,253.359,179.606,252.957
									"/>
								<path fill="#FFFFFF" d="M184.014,251.438c-0.274-0.158-0.58-0.247-0.912-0.27c-0.325-0.019-0.661,0.03-1.011,0.151
									c0.184-0.181,0.265-0.354,0.232-0.52c-0.026-0.162-0.161-0.32-0.403-0.461c-0.358-0.206-0.766-0.279-1.211-0.229
									c-0.445,0.052-0.94,0.236-1.479,0.549c-0.203,0.118-0.393,0.244-0.571,0.384c-0.184,0.137-0.348,0.284-0.494,0.442
									l0.792,0.457c0.095-0.144,0.215-0.28,0.348-0.409c0.139-0.125,0.292-0.236,0.462-0.335c0.234-0.137,0.464-0.218,0.68-0.24
									c0.216-0.021,0.4,0.012,0.561,0.104c0.172,0.1,0.243,0.214,0.193,0.339c-0.05,0.126-0.202,0.266-0.475,0.424l-0.45,0.262
									l0.696,0.402l0.431-0.251c0.298-0.173,0.584-0.28,0.832-0.313c0.26-0.033,0.477,0.004,0.669,0.114
									c0.185,0.107,0.249,0.232,0.199,0.38c-0.056,0.144-0.221,0.299-0.506,0.465c-0.19,0.11-0.412,0.21-0.66,0.295
									c-0.248,0.085-0.527,0.158-0.826,0.214l0.836,0.482c0.279-0.081,0.54-0.173,0.787-0.279
									c0.254-0.104,0.482-0.222,0.692-0.344c0.609-0.354,0.957-0.682,1.063-0.987
									C184.589,251.955,184.429,251.678,184.014,251.438"/>
								<path fill="#FFFFFF" d="M186.91,270.8l-1.095-1.294l2.237,0.63L186.91,270.8 M191.208,270.092l-5.736-1.526l-1.282,0.745
									l2.654,3.317l1.078-0.626l-0.5-0.598l1.674-0.974l1.033,0.288L191.208,270.092"/>
								<path fill="#FFFFFF" d="M194.424,268.223l-0.798-0.461l-1.833,1.065l0.104-0.97c0.048-0.413,0.034-0.708-0.05-0.889
									c-0.083-0.18-0.231-0.339-0.461-0.472c-0.396-0.229-0.842-0.324-1.344-0.291c-0.491,0.033-0.986,0.195-1.487,0.487
									c-0.222,0.128-0.438,0.275-0.634,0.435c-0.19,0.162-0.368,0.339-0.532,0.523l0.919,0.531
									c0.088-0.214,0.188-0.398,0.321-0.558c0.126-0.154,0.272-0.283,0.438-0.379c0.222-0.129,0.457-0.192,0.705-0.203
									c0.249-0.004,0.478,0.048,0.675,0.162c0.122,0.07,0.211,0.166,0.263,0.27c0.058,0.106,0.071,0.232,0.066,0.383l-0.175,1.663
									l0.798,0.461L194.424,268.223"/>
								<polyline fill="#FFFFFF" points="196.219,267.18 195.127,266.549 194.125,267.132 195.217,267.762 196.219,267.18
									"/>
								<path fill="#FFFFFF" d="M195.762,265.012c-0.524-0.303-0.843-0.546-0.959-0.729c-0.116-0.177-0.059-0.336,0.169-0.469
									c0.235-0.136,0.508-0.169,0.813-0.103c0.312,0.069,0.733,0.254,1.257,0.557c0.53,0.306,0.85,0.549,0.971,0.729
									c0.116,0.185,0.06,0.343-0.168,0.476c-0.229,0.133-0.502,0.166-0.814,0.096
									C196.712,265.502,196.292,265.317,195.762,265.012 M198.121,263.647c-0.696-0.401-1.378-0.626-2.053-0.671
									c-0.675-0.044-1.279,0.093-1.831,0.413c-0.545,0.317-0.785,0.671-0.707,1.062c0.085,0.388,0.469,0.786,1.165,1.188
									c0.696,0.401,1.385,0.623,2.053,0.671c0.675,0.044,1.285-0.096,1.831-0.413c0.551-0.32,0.785-0.671,0.707-1.062
									S198.817,264.05,198.121,263.647"/>
								<path fill="#FFFFFF" d="M199.577,263.431l-0.57-1.696l1.75,1.011L199.577,263.431 M203.147,262.266l-0.785-0.453
									l-0.59,0.343l-2.644-1.526l-1.193,0.693l0.834,2.414l0.926,0.535l1.846-1.073l0.766,0.442l1.015-0.59l-0.766-0.442
									L203.147,262.266"/>
								<path fill="#FFFFFF" d="M198.401,277.436l-1.095-1.295l2.237,0.631L198.401,277.436 M202.693,276.724l-5.729-1.522
									l-1.281,0.745l2.646,3.313l1.078-0.627l-0.493-0.593l1.675-0.974l1.026,0.283L202.693,276.724"/>
								<path fill="#FFFFFF" d="M205.91,274.854l-0.791-0.457l-1.833,1.065l0.103-0.97c0.049-0.413,0.034-0.708-0.05-0.889
									c-0.083-0.181-0.231-0.339-0.46-0.472c-0.396-0.229-0.842-0.324-1.344-0.291c-0.49,0.033-0.985,0.195-1.487,0.486
									c-0.222,0.129-0.437,0.276-0.633,0.436c-0.19,0.162-0.368,0.339-0.532,0.523l0.919,0.531
									c0.088-0.215,0.188-0.398,0.322-0.558c0.126-0.154,0.271-0.284,0.437-0.38c0.221-0.129,0.45-0.195,0.705-0.202
									c0.249-0.004,0.478,0.048,0.675,0.162c0.122,0.07,0.211,0.166,0.263,0.269c0.052,0.104,0.071,0.232,0.066,0.384
									l-0.175,1.663l0.791,0.456L205.91,274.854"/>
								<polyline fill="#FFFFFF" points="207.705,273.811 206.62,273.185 205.618,273.767 206.703,274.394 207.705,273.811
									"/>
								<path fill="#FFFFFF" d="M207.254,271.647c-0.523-0.303-0.843-0.546-0.959-0.729c-0.115-0.178-0.059-0.336,0.169-0.469
									c0.235-0.137,0.508-0.169,0.813-0.103c0.312,0.069,0.733,0.254,1.257,0.557c0.53,0.306,0.85,0.549,0.971,0.729
									c0.116,0.185,0.059,0.343-0.168,0.475c-0.229,0.133-0.502,0.167-0.814,0.097
									C208.205,272.138,207.784,271.953,207.254,271.647 M209.614,270.283c-0.696-0.401-1.378-0.627-2.053-0.671
									s-1.279,0.093-1.83,0.413c-0.546,0.317-0.786,0.671-0.708,1.062c0.085,0.387,0.469,0.785,1.165,1.188
									c0.696,0.401,1.385,0.622,2.053,0.671c0.675,0.044,1.285-0.097,1.831-0.413c0.551-0.321,0.785-0.671,0.707-1.062
									C210.699,271.079,210.309,270.686,209.614,270.283"/>
								<path fill="#FFFFFF" d="M213.906,268.632c-0.459-0.266-0.956-0.391-1.497-0.372c-0.541,0.019-1.062,0.173-1.57,0.468
									c-0.089,0.052-0.165,0.104-0.234,0.159c-0.076,0.059-0.133,0.114-0.197,0.173l-0.645-0.372l1.808-1.051l-0.798-0.461
									l-2.664,1.549l2.355,1.359c0.114-0.162,0.247-0.306,0.379-0.435c0.134-0.122,0.279-0.229,0.432-0.317
									c0.26-0.151,0.533-0.235,0.807-0.246c0.279-0.016,0.528,0.04,0.751,0.169c0.218,0.125,0.313,0.27,0.289,0.432
									c-0.019,0.158-0.164,0.316-0.424,0.468c-0.177,0.104-0.399,0.195-0.673,0.28c-0.272,0.077-0.578,0.144-0.934,0.202
									l0.85,0.49c0.317-0.08,0.616-0.173,0.896-0.283c0.279-0.104,0.533-0.229,0.768-0.365c0.546-0.317,0.849-0.641,0.898-0.966
									C214.559,269.186,214.353,268.891,213.906,268.632"/>
								<path fill="#FFFFFF" d="M217.518,288.473l-1.095-1.295l2.237,0.631L217.518,288.473 M221.809,287.761l-5.729-1.522
									l-1.282,0.744l2.647,3.314l1.078-0.627l-0.494-0.594l1.674-0.973l1.027,0.283L221.809,287.761"/>
								<path fill="#FFFFFF" d="M225.025,285.892l-0.792-0.457L222.4,286.5l0.104-0.97c0.048-0.413,0.034-0.708-0.05-0.889
									c-0.083-0.181-0.231-0.339-0.461-0.472c-0.396-0.229-0.841-0.324-1.344-0.291c-0.49,0.033-0.992,0.191-1.493,0.483
									c-0.222,0.128-0.431,0.279-0.627,0.438c-0.189,0.163-0.375,0.336-0.532,0.524l0.919,0.53
									c0.088-0.214,0.189-0.397,0.322-0.557c0.126-0.155,0.272-0.283,0.438-0.38c0.222-0.129,0.45-0.195,0.704-0.202
									c0.249-0.004,0.478,0.048,0.669,0.158c0.127,0.074,0.218,0.17,0.269,0.272c0.052,0.104,0.071,0.232,0.066,0.384
									l-0.176,1.662l0.792,0.457L225.025,285.892"/>
								<polyline fill="#FFFFFF" points="226.82,284.849 225.735,284.222 224.733,284.804 225.818,285.431 226.82,284.849
									"/>
								<path fill="#FFFFFF" d="M226.369,282.685c-0.523-0.303-0.843-0.546-0.958-0.729c-0.116-0.178-0.059-0.336,0.169-0.469
									c0.235-0.137,0.508-0.169,0.813-0.103c0.312,0.069,0.733,0.254,1.256,0.556c0.53,0.307,0.851,0.55,0.972,0.73
									c0.116,0.184,0.059,0.343-0.168,0.475c-0.229,0.133-0.502,0.166-0.814,0.097
									C227.321,283.175,226.899,282.99,226.369,282.685 M228.729,281.32c-0.695-0.401-1.377-0.627-2.053-0.671
									c-0.675-0.044-1.285,0.089-1.836,0.409c-0.546,0.317-0.779,0.675-0.701,1.065c0.086,0.387,0.469,0.785,1.165,1.187
									c0.696,0.402,1.385,0.623,2.053,0.672c0.675,0.044,1.285-0.096,1.831-0.413c0.551-0.32,0.785-0.671,0.707-1.062
									C229.815,282.116,229.425,281.723,228.729,281.32"/>
								<path fill="#FFFFFF" d="M230.979,280.893c-0.249-0.144-0.384-0.279-0.417-0.401c-0.026-0.126,0.056-0.239,0.247-0.351
									c0.19-0.11,0.387-0.158,0.604-0.144c0.217,0.015,0.446,0.096,0.695,0.239c0.242,0.141,0.384,0.273,0.409,0.398
									c0.026,0.125-0.049,0.243-0.239,0.354c-0.191,0.111-0.394,0.155-0.61,0.141C231.458,281.11,231.222,281.032,230.979,280.893
									 M233.072,279.596c-0.409-0.236-0.861-0.351-1.377-0.347c-0.515,0.011-0.979,0.14-1.404,0.387
									c-0.165,0.096-0.305,0.199-0.406,0.31c-0.095,0.107-0.157,0.225-0.183,0.351c-0.326-0.218-0.486-0.436-0.487-0.642
									c-0.001-0.206,0.157-0.402,0.474-0.586c0.153-0.089,0.324-0.166,0.527-0.232c0.19-0.066,0.419-0.125,0.68-0.181
									l-0.772-0.446c-0.241,0.066-0.463,0.145-0.673,0.229c-0.209,0.093-0.413,0.188-0.603,0.299
									c-0.603,0.351-0.88,0.741-0.834,1.172c0.047,0.432,0.419,0.845,1.115,1.246c0.677,0.391,1.347,0.602,2.008,0.646
									c0.662,0.037,1.266-0.1,1.805-0.413c0.495-0.287,0.748-0.59,0.771-0.914C233.73,280.145,233.519,279.854,233.072,279.596"/>
								<path fill="#FFFFFF" d="M235.764,299.008l-1.095-1.294l2.237,0.63L235.764,299.008 M240.056,298.296l-5.729-1.522
									l-1.282,0.745l2.647,3.313l1.078-0.626l-0.493-0.594l1.674-0.973l1.026,0.283L240.056,298.296"/>
								<path fill="#FFFFFF" d="M243.272,296.427l-0.791-0.456l-1.834,1.065l0.103-0.971c0.049-0.412,0.034-0.707-0.05-0.888
									c-0.083-0.181-0.231-0.34-0.46-0.472c-0.396-0.229-0.842-0.324-1.345-0.292c-0.49,0.034-0.985,0.195-1.487,0.487
									c-0.222,0.129-0.437,0.276-0.633,0.435c-0.19,0.162-0.368,0.34-0.532,0.523l0.919,0.531
									c0.088-0.214,0.188-0.398,0.321-0.557c0.127-0.155,0.272-0.284,0.437-0.38c0.222-0.129,0.457-0.191,0.705-0.202
									c0.249-0.005,0.479,0.048,0.676,0.161c0.122,0.071,0.211,0.166,0.263,0.27s0.071,0.232,0.066,0.383l-0.175,1.663
									l0.791,0.457L243.272,296.427"/>
								<polyline fill="#FFFFFF" points="245.067,295.384 243.982,294.758 242.98,295.34 244.065,295.966 245.067,295.384
									"/>
								<path fill="#FFFFFF" d="M244.617,293.221c-0.524-0.303-0.843-0.547-0.959-0.73c-0.116-0.177-0.059-0.336,0.169-0.469
									c0.234-0.136,0.508-0.169,0.813-0.103c0.312,0.069,0.733,0.255,1.257,0.557c0.53,0.307,0.85,0.549,0.971,0.729
									c0.116,0.185,0.059,0.343-0.168,0.476c-0.229,0.133-0.502,0.166-0.814,0.096
									C245.567,293.71,245.146,293.526,244.617,293.221 M246.976,291.856c-0.696-0.402-1.378-0.627-2.053-0.671
									c-0.674-0.045-1.279,0.092-1.83,0.412c-0.546,0.317-0.785,0.672-0.708,1.062c0.086,0.387,0.469,0.785,1.166,1.187
									c0.695,0.402,1.385,0.623,2.053,0.671c0.675,0.044,1.285-0.096,1.831-0.413c0.551-0.32,0.786-0.671,0.707-1.062
									S247.672,292.258,246.976,291.856"/>
								<polyline fill="#FFFFFF" points="248.996,288.959 248.383,288.605 245.25,290.426 246.048,290.887 248.053,289.722
									249.9,292.575 250.947,291.967 248.996,288.959 								"/>
								<path fill="#FFFFFF" d="M287.249,261.491l-1.096-1.294l2.238,0.631L287.249,261.491 M291.546,260.783l-5.736-1.525
									l-1.281,0.744l2.653,3.318l1.079-0.627l-0.5-0.598l1.675-0.973l1.032,0.287L291.546,260.783"/>
								<path fill="#FFFFFF" d="M294.762,258.915l-0.798-0.461l-1.833,1.065l0.108-0.974c0.042-0.409,0.028-0.704-0.055-0.885
									c-0.078-0.185-0.231-0.339-0.461-0.472c-0.396-0.229-0.841-0.325-1.344-0.291c-0.49,0.032-0.985,0.195-1.486,0.486
									c-0.222,0.129-0.438,0.276-0.635,0.435c-0.19,0.162-0.367,0.339-0.531,0.523l0.919,0.531
									c0.087-0.214,0.188-0.398,0.321-0.557c0.127-0.154,0.272-0.284,0.437-0.38c0.223-0.129,0.458-0.191,0.706-0.203
									c0.249-0.003,0.478,0.048,0.676,0.163c0.121,0.069,0.216,0.162,0.262,0.269c0.058,0.107,0.077,0.236,0.065,0.384
									l-0.175,1.662l0.798,0.461L294.762,258.915"/>
								<polyline fill="#FFFFFF" points="296.557,257.871 295.472,257.244 294.47,257.827 295.555,258.454 296.557,257.871
									"/>
								<polyline fill="#FFFFFF" points="300.433,255.619 299.687,255.188 298.741,255.737 295.293,253.746 294.272,254.34
									293.512,255.019 294.246,255.442 295.019,254.764 297.726,256.327 296.781,256.876 297.528,257.308 300.433,255.619
																	"/>
								<path fill="#FFFFFF" d="M302.867,252.82c-0.274-0.158-0.574-0.25-0.905-0.272c-0.325-0.018-0.668,0.033-1.017,0.155
									c0.183-0.181,0.266-0.354,0.232-0.521c-0.021-0.165-0.161-0.32-0.403-0.46c-0.357-0.207-0.766-0.28-1.211-0.229
									c-0.444,0.052-0.94,0.235-1.479,0.549c-0.203,0.118-0.393,0.243-0.57,0.383c-0.185,0.138-0.35,0.284-0.494,0.443
									l0.791,0.457c0.095-0.144,0.215-0.28,0.348-0.409c0.14-0.126,0.292-0.236,0.463-0.336c0.235-0.137,0.464-0.217,0.68-0.239
									c0.217-0.022,0.401,0.011,0.561,0.103c0.18,0.104,0.243,0.214,0.193,0.34c-0.051,0.125-0.202,0.266-0.475,0.424
									l-0.451,0.262l0.695,0.401l0.432-0.25c0.305-0.178,0.584-0.28,0.832-0.313c0.262-0.033,0.478,0.004,0.669,0.114
									c0.185,0.106,0.25,0.232,0.2,0.38c-0.057,0.144-0.222,0.299-0.507,0.465c-0.19,0.11-0.412,0.21-0.661,0.294
									c-0.247,0.085-0.526,0.159-0.825,0.214l0.837,0.483c0.279-0.081,0.539-0.173,0.787-0.28
									c0.254-0.104,0.481-0.222,0.691-0.343c0.608-0.354,0.964-0.686,1.064-0.988C303.442,253.337,303.283,253.061,302.867,252.82
									"/>
								<path fill="#FFFFFF" d="M340.531,230.525l-1.096-1.294l2.237,0.631L340.531,230.525 M344.829,229.818l-5.736-1.526
									l-1.281,0.744l2.653,3.318l1.078-0.627l-0.5-0.598l1.675-0.973l1.033,0.287L344.829,229.818"/>
								<path fill="#FFFFFF" d="M348.045,227.949l-0.798-0.461l-1.833,1.065l0.108-0.974c0.043-0.409,0.021-0.7-0.056-0.885
									c-0.083-0.181-0.23-0.339-0.461-0.472c-0.396-0.229-0.842-0.324-1.344-0.291c-0.49,0.033-0.985,0.195-1.486,0.486
									c-0.222,0.129-0.438,0.276-0.635,0.435c-0.189,0.162-0.367,0.34-0.531,0.523l0.92,0.531
									c0.087-0.214,0.188-0.398,0.321-0.557c0.126-0.154,0.271-0.284,0.437-0.38c0.215-0.125,0.457-0.191,0.705-0.202
									c0.249-0.004,0.478,0.048,0.676,0.162c0.121,0.07,0.211,0.166,0.263,0.269c0.058,0.107,0.077,0.236,0.065,0.384
									l-0.175,1.662l0.798,0.461L348.045,227.949"/>
								<polyline fill="#FFFFFF" points="349.84,226.905 348.755,226.279 347.752,226.861 348.838,227.488 349.84,226.905
									"/>
								<polyline fill="#FFFFFF" points="353.716,224.653 352.969,224.222 352.024,224.771 348.576,222.78 347.555,223.374
									346.795,224.053 347.529,224.477 348.302,223.798 351.009,225.361 350.063,225.91 350.811,226.342 353.716,224.653
									"/>
								<path fill="#FFFFFF" d="M356.035,221.723c-0.46-0.266-0.957-0.391-1.498-0.373c-0.54,0.02-1.062,0.174-1.569,0.469
									c-0.089,0.052-0.164,0.104-0.234,0.158c-0.069,0.056-0.133,0.114-0.196,0.174l-0.645-0.373l1.808-1.051l-0.798-0.46
									l-2.664,1.548l2.362,1.364c0.107-0.166,0.239-0.31,0.373-0.439c0.133-0.121,0.278-0.228,0.431-0.316
									c0.26-0.151,0.533-0.235,0.807-0.247c0.28-0.015,0.528,0.041,0.752,0.17c0.217,0.125,0.313,0.269,0.289,0.431
									c-0.019,0.159-0.163,0.317-0.424,0.469c-0.178,0.104-0.399,0.195-0.667,0.276c-0.267,0.081-0.584,0.147-0.94,0.206
									l0.85,0.49c0.323-0.077,0.616-0.173,0.901-0.28c0.273-0.106,0.527-0.232,0.762-0.368c0.546-0.317,0.85-0.642,0.898-0.966
									C356.688,222.275,356.482,221.98,356.035,221.723"/>
								<path fill="#FFFFFF" d="M370.345,213.199l-1.097-1.294l2.238,0.631L370.345,213.199 M374.643,212.492l-5.736-1.527
									l-1.281,0.745l2.653,3.318l1.078-0.627l-0.5-0.598l1.675-0.973l1.032,0.287L374.643,212.492"/>
								<path fill="#FFFFFF" d="M377.858,210.623l-0.798-0.46l-1.833,1.065l0.102-0.97c0.049-0.413,0.028-0.704-0.049-0.888
									c-0.084-0.181-0.23-0.339-0.461-0.472c-0.396-0.229-0.842-0.324-1.345-0.291c-0.489,0.033-0.985,0.195-1.486,0.486
									c-0.222,0.129-0.438,0.276-0.634,0.435c-0.19,0.162-0.367,0.339-0.531,0.523l0.919,0.531
									c0.088-0.214,0.188-0.398,0.321-0.557c0.127-0.154,0.272-0.284,0.437-0.38c0.216-0.125,0.458-0.191,0.705-0.203
									c0.249-0.003,0.479,0.048,0.677,0.163c0.121,0.07,0.211,0.166,0.262,0.269c0.058,0.107,0.078,0.236,0.065,0.383
									l-0.175,1.662l0.798,0.461L377.858,210.623"/>
								<polyline fill="#FFFFFF" points="379.653,209.58 378.568,208.953 377.565,209.535 378.651,210.162 379.653,209.58
									"/>
								<polyline fill="#FFFFFF" points="383.529,207.327 382.782,206.896 381.837,207.445 378.389,205.455 377.368,206.048
									376.608,206.726 377.343,207.15 378.115,206.472 380.822,208.035 379.877,208.584 380.624,209.016 383.529,207.327
									"/>
								<path fill="#FFFFFF" d="M383.806,205.621c-0.242-0.14-0.377-0.277-0.416-0.402c-0.026-0.125,0.057-0.239,0.246-0.35
									c0.19-0.11,0.388-0.158,0.604-0.144c0.223,0.018,0.452,0.1,0.694,0.24c0.243,0.14,0.384,0.272,0.409,0.398
									c0.026,0.125-0.049,0.243-0.239,0.354c-0.19,0.11-0.394,0.155-0.61,0.14C384.284,205.838,384.048,205.76,383.806,205.621
									 M385.898,204.322c-0.409-0.236-0.861-0.35-1.377-0.339c-0.516,0.004-0.979,0.133-1.404,0.38
									c-0.171,0.1-0.304,0.199-0.405,0.31c-0.089,0.11-0.158,0.225-0.188,0.354c-0.319-0.221-0.479-0.438-0.48-0.645
									c-0.002-0.207,0.156-0.402,0.474-0.586c0.152-0.089,0.323-0.167,0.526-0.232c0.191-0.066,0.42-0.125,0.68-0.181
									l-0.771-0.446c-0.242,0.066-0.465,0.144-0.668,0.232c-0.216,0.089-0.418,0.185-0.608,0.295
									c-0.603,0.35-0.875,0.744-0.833,1.172c0.046,0.431,0.424,0.848,1.113,1.246c0.677,0.391,1.347,0.601,2.009,0.646
									c0.668,0.04,1.265-0.1,1.805-0.413c0.495-0.288,0.748-0.59,0.771-0.914C386.558,204.872,386.346,204.581,385.898,204.322"/>
								<path fill="#FFFFFF" d="M394.607,199.099l-1.097-1.294l2.238,0.63L394.607,199.099 M398.905,198.391l-5.736-1.526
									l-1.281,0.744l2.653,3.318l1.078-0.626l-0.5-0.597l1.675-0.973l1.032,0.288L398.905,198.391"/>
								<path fill="#FFFFFF" d="M402.121,196.522l-0.798-0.461l-1.833,1.065l0.108-0.974c0.042-0.409,0.021-0.7-0.056-0.884
									c-0.084-0.181-0.23-0.339-0.461-0.472c-0.396-0.229-0.842-0.324-1.344-0.291c-0.491,0.033-0.985,0.195-1.486,0.486
									c-0.223,0.129-0.438,0.276-0.635,0.435c-0.189,0.162-0.367,0.339-0.531,0.523l0.919,0.531
									c0.088-0.214,0.188-0.398,0.321-0.557c0.127-0.154,0.271-0.284,0.438-0.38c0.215-0.125,0.457-0.191,0.704-0.203
									c0.249-0.003,0.479,0.048,0.677,0.163c0.121,0.07,0.21,0.166,0.262,0.269c0.059,0.107,0.078,0.236,0.066,0.383l-0.176,1.663
									l0.799,0.461L402.121,196.522"/>
								<polyline fill="#FFFFFF" points="403.916,195.479 402.83,194.852 401.828,195.435 402.914,196.062 403.916,195.479
									"/>
								<polyline fill="#FFFFFF" points="407.792,193.227 407.045,192.795 406.1,193.345 402.652,191.354 401.631,191.947
									400.871,192.626 401.605,193.05 402.378,192.371 405.085,193.935 404.14,194.484 404.887,194.915 407.792,193.227
									"/>
								<polyline fill="#FFFFFF" points="407.838,189.05 407.226,188.696 404.092,190.517 404.89,190.978 406.895,189.813
									408.75,192.67 409.797,192.062 407.838,189.05 								"/>
								<path fill="#FFFFFF" d="M425.54,173.91l-1.095-1.293l2.237,0.63L425.54,173.91 M429.838,173.202l-5.736-1.526l-1.281,0.745
									l2.653,3.318l1.079-0.627l-0.5-0.597l1.681-0.977l1.026,0.291L429.838,173.202"/>
								<path fill="#FFFFFF" d="M433.054,171.333l-0.798-0.461l-1.826,1.062l0.103-0.969c0.042-0.409,0.028-0.704-0.056-0.885
									c-0.078-0.184-0.231-0.339-0.461-0.472c-0.396-0.228-0.842-0.324-1.338-0.294c-0.496,0.037-0.992,0.199-1.486,0.486
									c-0.229,0.133-0.444,0.281-0.641,0.439c-0.19,0.162-0.367,0.339-0.532,0.523l0.92,0.531
									c0.088-0.213,0.195-0.402,0.321-0.557s0.272-0.284,0.438-0.379c0.222-0.129,0.457-0.192,0.705-0.203
									c0.254-0.007,0.477,0.048,0.675,0.162c0.121,0.07,0.218,0.162,0.269,0.266c0.052,0.11,0.072,0.24,0.061,0.387l-0.17,1.659
									l0.799,0.461L433.054,171.333"/>
								<polyline fill="#FFFFFF" points="434.855,170.286 433.771,169.66 432.762,170.246 433.847,170.872 434.855,170.286
									"/>
								<polyline fill="#FFFFFF" points="438.731,168.034 437.984,167.603 437.033,168.155 433.585,166.165 432.563,166.758
									431.804,167.437 432.538,167.86 433.311,167.182 436.018,168.745 435.073,169.294 435.82,169.726 438.731,168.034
									"/>
								<path fill="#FFFFFF" d="M437.221,165.354c-0.166-0.096-0.25-0.195-0.243-0.302c-0.001-0.103,0.088-0.206,0.259-0.306
									c0.165-0.096,0.343-0.148,0.521-0.148c0.178,0,0.356,0.044,0.522,0.14c0.166,0.096,0.243,0.199,0.243,0.302
									c0.001,0.104-0.088,0.207-0.252,0.303c-0.172,0.1-0.35,0.151-0.528,0.151C437.559,165.498,437.387,165.45,437.221,165.354
									 M438.964,166.463c-0.204-0.118-0.312-0.24-0.313-0.365c0-0.125,0.095-0.247,0.298-0.365
									c0.196-0.114,0.406-0.169,0.622-0.17c0.217,0,0.427,0.062,0.631,0.181s0.313,0.24,0.314,0.365s-0.095,0.247-0.291,0.361
									c-0.203,0.118-0.412,0.173-0.629,0.173C439.38,166.644,439.169,166.581,438.964,166.463 M441.273,165.188
									c-0.268-0.155-0.561-0.243-0.886-0.261c-0.324-0.019-0.655,0.033-1.023,0.151c0.177-0.192,0.252-0.369,0.226-0.539
									c-0.033-0.166-0.167-0.317-0.403-0.454c-0.357-0.206-0.759-0.284-1.204-0.24c-0.445,0.044-0.922,0.218-1.423,0.509
									c-0.507,0.295-0.805,0.571-0.88,0.83c-0.074,0.258,0.061,0.491,0.418,0.697c0.236,0.137,0.497,0.214,0.784,0.232
									c0.292,0.015,0.598-0.03,0.929-0.133c-0.203,0.213-0.297,0.409-0.258,0.594c0.033,0.188,0.186,0.357,0.454,0.512
									c0.415,0.239,0.861,0.343,1.351,0.302c0.49-0.033,1.005-0.214,1.544-0.527c0.539-0.313,0.843-0.608,0.898-0.892
									C441.868,165.686,441.688,165.427,441.273,165.188"/>
								<path fill="#FFFFFF" d="M253.575,328.03l-1.096-1.293l2.237,0.63L253.575,328.03 M257.873,327.323l-5.735-1.526
									l-1.282,0.745l2.653,3.317l1.079-0.627l-0.5-0.597l1.675-0.974l1.025,0.291L257.873,327.323"/>
								<path fill="#FFFFFF" d="M261.089,325.454l-0.798-0.461l-1.833,1.065l0.103-0.97c0.049-0.413,0.034-0.707-0.05-0.888
									c-0.084-0.182-0.231-0.34-0.46-0.472c-0.396-0.229-0.842-0.325-1.345-0.292c-0.489,0.033-0.986,0.195-1.487,0.486
									c-0.222,0.129-0.437,0.277-0.633,0.436c-0.19,0.162-0.367,0.339-0.532,0.523l0.919,0.53
									c0.088-0.213,0.189-0.397,0.322-0.556c0.126-0.155,0.272-0.284,0.437-0.381c0.222-0.128,0.457-0.191,0.706-0.202
									c0.248-0.004,0.477,0.048,0.675,0.162c0.121,0.07,0.211,0.166,0.263,0.27c0.051,0.103,0.071,0.232,0.065,0.383l-0.176,1.663
									l0.798,0.46L261.089,325.454"/>
								<polyline fill="#FFFFFF" points="262.884,324.41 261.792,323.78 260.791,324.363 261.882,324.993 262.884,324.41
									"/>
								<path fill="#FFFFFF" d="M262.426,322.243c-0.523-0.302-0.843-0.546-0.958-0.729c-0.116-0.177-0.059-0.336,0.169-0.469
									c0.234-0.137,0.508-0.169,0.814-0.104c0.312,0.07,0.733,0.255,1.257,0.557c0.53,0.307,0.85,0.55,0.971,0.73
									c0.116,0.185,0.059,0.343-0.169,0.476s-0.501,0.166-0.814,0.096C263.378,322.733,262.956,322.549,262.426,322.243
									 M264.786,320.88c-0.696-0.402-1.378-0.627-2.053-0.672c-0.675-0.044-1.285,0.097-1.83,0.413
									c-0.546,0.317-0.786,0.671-0.707,1.062c0.085,0.388,0.469,0.785,1.165,1.188c0.696,0.401,1.384,0.622,2.053,0.671
									c0.675,0.044,1.285-0.096,1.83-0.413s0.786-0.671,0.707-1.062C265.872,321.676,265.482,321.281,264.786,320.88"/>
								<path fill="#FFFFFF" d="M265.256,319.475c-0.167-0.096-0.249-0.195-0.244-0.302c0-0.104,0.088-0.207,0.259-0.307
									c0.165-0.096,0.336-0.144,0.521-0.147c0.178,0,0.35,0.049,0.516,0.145c0.166,0.096,0.249,0.194,0.25,0.298
									c-0.006,0.107-0.089,0.207-0.253,0.303c-0.171,0.1-0.349,0.151-0.527,0.151C265.593,319.618,265.421,319.57,265.256,319.475
									 M266.993,320.588c-0.205-0.117-0.308-0.243-0.308-0.368c-0.001-0.126,0.094-0.247,0.297-0.365
									c0.196-0.114,0.406-0.169,0.623-0.169c0.21,0.003,0.427,0.062,0.631,0.18c0.204,0.118,0.307,0.243,0.313,0.365
									c0,0.125-0.095,0.247-0.291,0.361c-0.203,0.117-0.413,0.173-0.628,0.173C267.414,320.765,267.197,320.706,266.993,320.588
									 M269.308,319.309c-0.268-0.154-0.568-0.239-0.885-0.262c-0.325-0.019-0.669,0.033-1.024,0.151
									c0.177-0.192,0.252-0.369,0.219-0.534c-0.032-0.166-0.161-0.321-0.397-0.457c-0.357-0.207-0.758-0.284-1.204-0.24
									c-0.451,0.048-0.921,0.218-1.422,0.509c-0.508,0.295-0.806,0.571-0.881,0.829c-0.081,0.263,0.061,0.491,0.418,0.697
									c0.236,0.137,0.498,0.214,0.784,0.232c0.287,0.018,0.592-0.026,0.922-0.129c-0.203,0.206-0.291,0.405-0.257,0.593
									c0.039,0.185,0.186,0.357,0.454,0.513c0.416,0.24,0.867,0.34,1.357,0.299c0.49-0.033,0.998-0.21,1.544-0.527
									c0.539-0.313,0.843-0.608,0.898-0.893C269.896,319.811,269.724,319.549,269.308,319.309"/>
								<path fill="#FFFFFF" d="M306.223,297.434l-1.095-1.294l2.237,0.631L306.223,297.434 M310.521,296.726l-5.735-1.525
									l-1.282,0.744l2.653,3.317l1.078-0.626l-0.499-0.597l1.674-0.974l1.033,0.287L310.521,296.726"/>
								<path fill="#FFFFFF" d="M313.737,294.856l-0.798-0.461l-1.834,1.065l0.104-0.969c0.049-0.413,0.034-0.708-0.05-0.889
									c-0.083-0.181-0.23-0.339-0.46-0.472c-0.396-0.229-0.843-0.324-1.345-0.292c-0.49,0.034-0.985,0.196-1.487,0.487
									c-0.221,0.129-0.437,0.276-0.633,0.435c-0.189,0.162-0.368,0.34-0.532,0.523l0.919,0.531
									c0.089-0.214,0.189-0.398,0.322-0.557c0.126-0.155,0.271-0.284,0.437-0.38c0.222-0.129,0.457-0.191,0.705-0.202
									c0.249-0.004,0.479,0.048,0.676,0.162c0.121,0.069,0.211,0.166,0.263,0.269c0.051,0.103,0.071,0.232,0.066,0.384
									l-0.176,1.662l0.798,0.461L313.737,294.856"/>
								<polyline fill="#FFFFFF" points="315.532,293.813 314.441,293.184 313.439,293.766 314.53,294.396 315.532,293.813
									"/>
								<polyline fill="#FFFFFF" points="319.408,291.561 318.661,291.13 317.717,291.679 314.27,289.688 313.248,290.282
									312.487,290.96 313.222,291.385 313.994,290.706 316.701,292.27 315.756,292.818 316.503,293.249 319.408,291.561
									"/>
								<path fill="#FFFFFF" d="M318.767,289.5c-0.522-0.302-0.85-0.541-0.965-0.726c-0.115-0.177-0.06-0.335,0.175-0.472
									c0.229-0.133,0.503-0.166,0.809-0.1c0.318,0.066,0.733,0.254,1.256,0.557c0.53,0.306,0.856,0.546,0.972,0.729
									c0.116,0.185,0.065,0.34-0.163,0.472c-0.234,0.137-0.507,0.17-0.819,0.1C319.712,289.994,319.297,289.807,318.767,289.5
									 M321.12,288.141c-0.696-0.402-1.378-0.627-2.054-0.671c-0.675-0.045-1.278,0.092-1.824,0.409
									c-0.551,0.32-0.785,0.671-0.706,1.062s0.463,0.789,1.159,1.19c0.695,0.401,1.384,0.623,2.059,0.667
									c0.675,0.045,1.279-0.092,1.83-0.412c0.546-0.317,0.779-0.667,0.701-1.059C322.206,288.937,321.815,288.542,321.12,288.141"
									/>
								<path fill="#FFFFFF" d="M284.973,300.537l2.23-0.63l-1.081,1.294L284.973,300.537 M288.824,299.712l-1.289-0.744
									l-5.713,1.521l1.086,0.627l1.022-0.283l1.686,0.973l-0.486,0.594l1.085,0.626L288.824,299.712"/>
								<path fill="#FFFFFF" d="M292.074,301.507c-0.23-0.133-0.485-0.258-0.76-0.372c-0.281-0.11-0.586-0.214-0.905-0.31
									l-0.914,0.531c0.37,0.052,0.688,0.11,0.962,0.188c0.268,0.073,0.491,0.159,0.657,0.254c0.224,0.13,0.333,0.266,0.352,0.409
									c0.007,0.145-0.081,0.277-0.277,0.392c-0.121,0.07-0.279,0.125-0.464,0.15c-0.178,0.03-0.4,0.041-0.662,0.037l-2.871-0.106
									l-0.786,0.457l3.045,1.758l0.786-0.457l-1.839-1.062l1.674,0.062c0.707,0.026,1.216,0.019,1.527-0.029
									c0.318-0.044,0.586-0.133,0.813-0.265c0.394-0.229,0.558-0.487,0.505-0.774
									C292.854,302.082,292.572,301.795,292.074,301.507"/>
								<polyline fill="#FFFFFF" points="292.337,305.312 291.328,304.729 290.25,305.355 291.259,305.938 292.337,305.312
									"/>
								<path fill="#FFFFFF" d="M294.211,306.893c-0.236-0.136-0.295-0.294-0.175-0.475c0.113-0.185,0.429-0.428,0.956-0.734
									c0.521-0.302,0.94-0.486,1.258-0.553c0.305-0.066,0.579-0.033,0.815,0.104c0.229,0.132,0.288,0.291,0.174,0.468
									c-0.12,0.181-0.437,0.424-0.957,0.727c-0.526,0.306-0.945,0.49-1.256,0.56C294.708,307.056,294.44,307.025,294.211,306.893
									 M297.795,304.811c-0.555-0.321-1.162-0.457-1.835-0.413c-0.674,0.044-1.36,0.266-2.052,0.667s-1.072,0.8-1.145,1.19
									c-0.075,0.391,0.164,0.741,0.719,1.062c0.549,0.316,1.154,0.453,1.828,0.408c0.675-0.043,1.355-0.269,2.046-0.67
									c0.692-0.402,1.078-0.797,1.151-1.188S298.344,305.127,297.795,304.811"/>
								<path fill="#FFFFFF" d="M299.271,308.139c-0.185-0.106-0.269-0.229-0.237-0.35c0.024-0.126,0.157-0.262,0.399-0.402
									c0.24-0.14,0.475-0.217,0.691-0.231c0.217-0.022,0.421,0.029,0.606,0.136c0.19,0.11,0.274,0.225,0.242,0.354
									c-0.024,0.125-0.157,0.261-0.398,0.401s-0.477,0.218-0.692,0.232S299.462,308.249,299.271,308.139 M301.415,306.9
									c-0.492-0.284-1.021-0.428-1.581-0.442c-0.566-0.012-1.069,0.11-1.52,0.372c-0.406,0.236-0.595,0.502-0.58,0.797
									c0.014,0.295,0.231,0.567,0.66,0.814c0.173,0.1,0.351,0.173,0.542,0.232c0.185,0.055,0.389,0.092,0.612,0.11
									c-0.381,0.185-0.749,0.28-1.105,0.28c-0.356,0-0.701-0.096-1.02-0.28c-0.153-0.089-0.281-0.191-0.402-0.306
									c-0.123-0.114-0.218-0.243-0.314-0.388l-0.768,0.446c0.115,0.133,0.243,0.259,0.396,0.376
									c0.147,0.122,0.326,0.239,0.524,0.354c0.606,0.35,1.281,0.512,2.026,0.486c0.744-0.026,1.457-0.24,2.142-0.638
									c0.672-0.392,1.039-0.774,1.107-1.161C302.201,307.568,301.964,307.218,301.415,306.9"/>
								<path fill="#FFFFFF" d="M315.163,236.947l2.229-0.631l-1.081,1.294L315.163,236.947 M319.015,236.122l-1.29-0.745
									l-5.712,1.522l1.085,0.626l1.022-0.283l1.687,0.974l-0.487,0.593l1.085,0.627L319.015,236.122"/>
								<path fill="#FFFFFF" d="M322.264,237.909c-0.224-0.129-0.484-0.25-0.76-0.364c-0.28-0.111-0.587-0.215-0.905-0.311
									l-0.913,0.531c0.369,0.052,0.688,0.11,0.962,0.188c0.268,0.074,0.491,0.159,0.657,0.255
									c0.223,0.129,0.338,0.262,0.353,0.409c0.007,0.144-0.082,0.276-0.272,0.387c-0.127,0.074-0.292,0.126-0.47,0.155
									s-0.401,0.04-0.661,0.037l-2.871-0.107l-0.786,0.457l3.045,1.759l0.787-0.457l-1.846-1.065l1.674,0.062
									c0.714,0.029,1.223,0.022,1.534-0.025s0.584-0.133,0.812-0.266c0.394-0.229,0.558-0.487,0.499-0.778
									C323.043,238.491,322.768,238.2,322.264,237.909"/>
								<polyline fill="#FFFFFF" points="322.527,241.721 321.519,241.139 320.439,241.766 321.448,242.348 322.527,241.721
																	"/>
								<polyline fill="#FFFFFF" points="328.56,241.633 327.531,241.039 326.358,240.597 325.629,241.021 326.809,241.467
									324.112,243.033 323.161,242.484 322.426,242.912 325.35,244.601 326.085,244.173 325.134,243.623 328.56,241.633
									"/>
								<path fill="#FFFFFF" d="M327.925,244.309l2.926-0.324l-1.738,1.01L327.925,244.309 M332.761,244.059l-1.201-0.693
									l-4.165,0.476l-0.92,0.534l1.857,1.073l-0.755,0.438l1.022,0.59l0.755-0.438l0.594,0.343l0.779-0.453l-0.594-0.343
									L332.761,244.059"/>
								<path fill="#CFD0D2" d="M107.953,202.774l-0.523-0.302c-0.205-0.118-0.402-0.188-0.581-0.21
									c-0.171-0.019-0.331,0.015-0.463,0.092c-0.127,0.074-0.19,0.155-0.17,0.247c0.013,0.089,0.096,0.181,0.243,0.266
									c0.191,0.111,0.421,0.163,0.682,0.159c0.261-0.003,0.496-0.066,0.699-0.184L107.953,202.774 M97.914,196.5l-0.632-0.365
									l-1.091,0.634l0.632,0.365c0.217,0.125,0.421,0.192,0.631,0.203c0.197,0.011,0.387-0.04,0.572-0.147
									c0.178-0.104,0.266-0.214,0.246-0.328C98.252,196.747,98.131,196.625,97.914,196.5 M104.101,200.072l-0.632-0.365
									l-1.091,0.634l0.632,0.365c0.217,0.125,0.427,0.196,0.631,0.203c0.197,0.011,0.394-0.037,0.578-0.144
									c0.178-0.104,0.259-0.217,0.24-0.332S104.324,200.201,104.101,200.072 M99.487,195.542l-0.594-0.343l-0.882,0.512
									l0.594,0.343c0.172,0.099,0.338,0.151,0.503,0.158c0.165,0.008,0.318-0.029,0.464-0.114c0.14-0.081,0.203-0.169,0.189-0.265
									C99.749,195.737,99.659,195.641,99.487,195.542 M105.68,199.117l-0.6-0.346l-0.882,0.512l0.6,0.347
									c0.166,0.096,0.338,0.151,0.498,0.155c0.165,0.007,0.318-0.029,0.464-0.114c0.14-0.081,0.202-0.169,0.189-0.265
									C105.942,199.312,105.846,199.213,105.68,199.117 M99.495,198.089l0.812-0.472l1.762,1.017l-0.812,0.472L99.495,198.089
									 M110.327,204.997c0.21,0.122,0.459,0.169,0.732,0.144c0.279-0.022,0.559-0.118,0.845-0.284l1.541-0.896l1.009,0.583
									l-3.121,1.813l-1.009-0.583l0.45-0.261c-0.324,0.018-0.623,0.007-0.878-0.044c-0.255-0.044-0.491-0.129-0.695-0.247
									c-0.357-0.207-0.524-0.435-0.487-0.671c0.03-0.239,0.252-0.479,0.677-0.726l1.903-1.106l1.009,0.583l-0.311,0.18
									c-0.171,0.1-0.38,0.221-0.634,0.369c-0.267,0.147-0.432,0.243-0.52,0.295c-0.254,0.147-0.425,0.254-0.521,0.325
									c-0.102,0.074-0.158,0.136-0.171,0.18c-0.031,0.063-0.024,0.125,0.008,0.181
									C110.186,204.894,110.243,204.949,110.327,204.997 M106.932,201.178l0.761-0.442c0.268,0.096,0.523,0.199,0.772,0.306
									c0.242,0.111,0.472,0.229,0.689,0.354c0.562,0.325,0.862,0.623,0.896,0.899c0.026,0.273-0.207,0.557-0.708,0.848
									l-1.783,1.036l-1.015-0.586l0.463-0.27c-0.325,0.034-0.617,0.026-0.865-0.022c-0.255-0.044-0.504-0.136-0.747-0.276
									c-0.326-0.188-0.499-0.398-0.506-0.623c-0.015-0.228,0.125-0.428,0.429-0.604c0.367-0.213,0.762-0.295,1.188-0.247
									c0.42,0.044,0.905,0.229,1.448,0.542l0.587,0.339l0.077-0.044c0.158-0.092,0.215-0.199,0.164-0.31
									c-0.052-0.118-0.206-0.25-0.474-0.405c-0.217-0.125-0.44-0.225-0.67-0.306C107.417,201.281,107.181,201.218,106.932,201.178
									 M94.375,196.566l4.162-2.418l1.622,0.937c0.587,0.339,0.92,0.634,1.004,0.881c0.084,0.254-0.061,0.494-0.442,0.715
									c-0.203,0.118-0.424,0.188-0.667,0.217c-0.235,0.026-0.477,0.011-0.732-0.055c0.173,0.173,0.224,0.351,0.174,0.527
									c-0.056,0.181-0.214,0.347-0.474,0.498c-0.4,0.232-0.838,0.324-1.31,0.28c-0.465-0.041-0.981-0.221-1.543-0.546
									L94.375,196.566 M100.569,200.142l4.161-2.418l1.622,0.937c0.581,0.335,0.914,0.63,1.003,0.881
									c0.084,0.255-0.067,0.491-0.448,0.712c-0.203,0.118-0.418,0.191-0.66,0.221c-0.235,0.026-0.484,0.008-0.732-0.055
									c0.167,0.17,0.218,0.347,0.168,0.524c-0.056,0.181-0.214,0.347-0.474,0.497c-0.4,0.232-0.832,0.328-1.303,0.284
									s-0.987-0.225-1.543-0.545L100.569,200.142 M113.432,208.312l6.146-3.572l1.558,0.899l-1.529,0.889l1.539,0.888
									l-1.535,0.892l1.545,0.892l-1.529,0.889l1.539,0.888l-1.554,0.903l-3.103-1.792L113.432,208.312 M103.542,191.262
									l-13.617,0.324l-0.51,7.886l3.134-1.821l13.791,7.962l21.765,12.567l7.86-4.567l-21.766-12.567l-13.791-7.963
									L103.542,191.262"/>
								<path fill="#CFD0D2" d="M417.744,186.377l-0.523-0.302c-0.204-0.118-0.401-0.188-0.58-0.21
									c-0.172-0.018-0.337,0.011-0.47,0.089c-0.127,0.074-0.185,0.158-0.171,0.247c0.02,0.092,0.097,0.181,0.249,0.27
									c0.192,0.11,0.422,0.162,0.683,0.158c0.261-0.003,0.496-0.066,0.699-0.184L417.744,186.377 M413.892,183.675l-0.632-0.365
									l-1.091,0.634l0.632,0.365c0.217,0.125,0.428,0.195,0.631,0.203c0.198,0.011,0.395-0.037,0.579-0.144
									c0.178-0.103,0.253-0.214,0.239-0.332C414.23,183.922,414.115,183.804,413.892,183.675 M422.279,188.121l-1.144-0.661
									c-0.259,0.144-0.426,0.241-0.507,0.288c-0.254,0.148-0.425,0.254-0.521,0.324c-0.101,0.074-0.157,0.137-0.17,0.181
									c-0.032,0.062-0.025,0.125,0.007,0.18c0.025,0.059,0.083,0.115,0.173,0.166c0.21,0.122,0.452,0.166,0.733,0.144
									c0.279-0.022,0.559-0.118,0.844-0.284L422.279,188.121 M415.471,182.72l-0.6-0.346l-0.882,0.512l0.6,0.346
									c0.167,0.096,0.339,0.151,0.498,0.155c0.159,0.011,0.318-0.03,0.464-0.114c0.14-0.081,0.202-0.17,0.188-0.266
									C415.733,182.916,415.637,182.816,415.471,182.72 M409.279,181.688l0.812-0.472l1.762,1.018l-0.812,0.472L409.279,181.688
									 M404.799,180.534l4.161-2.418l2.918,1.685l-0.812,0.472l-1.839-1.062l-0.773,0.45l1.729,0.999l-0.812,0.472l-1.73-0.999
									l-1.763,1.025L404.799,180.534 M410.36,183.745l4.161-2.418l1.621,0.936c0.582,0.335,0.914,0.63,1.005,0.881
									c0.084,0.254-0.067,0.49-0.448,0.711c-0.203,0.118-0.425,0.196-0.66,0.222c-0.236,0.025-0.483,0.007-0.732-0.055
									c0.166,0.169,0.218,0.346,0.169,0.523c-0.057,0.18-0.215,0.346-0.476,0.497c-0.399,0.232-0.838,0.325-1.303,0.284
									c-0.471-0.044-0.987-0.225-1.543-0.545L410.36,183.745 M410.392,173.423l-13.61,0.32l-0.516,7.889l3.14-1.825l26.247,15.155
									l9.309,5.375l4.225-2.455l-15.897-9.179l-2.163,1.257l-1.009-0.583l0.45-0.262c-0.331,0.015-0.63,0.004-0.879-0.044
									c-0.261-0.047-0.49-0.129-0.695-0.247c-0.363-0.21-0.523-0.435-0.493-0.674c0.037-0.236,0.259-0.476,0.684-0.723
									l0.945-0.549l-0.643-0.371c-0.098,0.079-0.214,0.158-0.352,0.238l-1.782,1.036l-1.015-0.586l0.463-0.269
									c-0.325,0.033-0.617,0.025-0.866-0.022c-0.261-0.048-0.51-0.14-0.746-0.276c-0.325-0.188-0.498-0.398-0.513-0.626
									c-0.008-0.225,0.132-0.424,0.437-0.601c0.361-0.21,0.762-0.295,1.182-0.251c0.427,0.048,0.905,0.229,1.448,0.542
									l0.594,0.343l0.076-0.044c0.031-0.018,0.057-0.037,0.08-0.057l-0.356-0.205l0.329-0.191
									c-0.084-0.08-0.208-0.166-0.369-0.258c-0.217-0.125-0.434-0.229-0.664-0.31c-0.223-0.084-0.459-0.147-0.707-0.188
									l0.762-0.442c0.268,0.096,0.517,0.195,0.766,0.302c0.242,0.11,0.472,0.229,0.688,0.354c0.08,0.046,0.153,0.091,0.223,0.136
									l2.602-1.512l-0.39-0.225l-14.116-8.15L410.392,173.423"/>
								<path fill="#CFD0D2" d="M418.464,185.537l-0.329,0.191l0.356,0.205c0.095-0.078,0.124-0.165,0.083-0.253
									C418.554,185.635,418.518,185.587,418.464,185.537 M451.766,201.126l-0.523-0.302c-0.211-0.122-0.396-0.191-0.58-0.21
									c-0.179-0.022-0.331,0.007-0.47,0.088c-0.127,0.074-0.178,0.155-0.171,0.247c0.014,0.088,0.103,0.177,0.256,0.265
									c0.185,0.107,0.408,0.163,0.669,0.159c0.274-0.003,0.503-0.062,0.706-0.181L451.766,201.126 M447.92,198.421l-0.632-0.365
									l-1.092,0.634l0.633,0.365c0.217,0.125,0.427,0.195,0.624,0.206c0.204,0.007,0.389-0.041,0.573-0.147
									c0.184-0.107,0.266-0.214,0.245-0.328C448.258,198.667,448.137,198.546,447.92,198.421 M449.492,197.462l-0.594-0.343
									l-0.882,0.512l0.594,0.343c0.173,0.1,0.339,0.151,0.498,0.162c0.165,0.007,0.317-0.029,0.464-0.114
									c0.146-0.084,0.209-0.173,0.195-0.269C449.754,197.657,449.665,197.562,449.492,197.462 M443.308,196.434l0.812-0.472
									l1.763,1.018l-0.812,0.472L443.308,196.434 M454.146,203.346c0.204,0.118,0.453,0.166,0.733,0.144
									c0.279-0.022,0.56-0.118,0.845-0.284l1.541-0.896l1.003,0.579l-3.121,1.814l-1.002-0.579l0.45-0.261
									c-0.338,0.018-0.631,0.003-0.886-0.041c-0.254-0.051-0.484-0.133-0.688-0.251c-0.364-0.21-0.53-0.431-0.5-0.671
									c0.03-0.239,0.259-0.482,0.677-0.726l1.909-1.11l1.016,0.586l-0.312,0.181c-0.171,0.1-0.38,0.221-0.646,0.369
									c-0.254,0.147-0.425,0.247-0.508,0.295c-0.253,0.147-0.425,0.254-0.526,0.328c-0.095,0.07-0.157,0.129-0.177,0.177
									c-0.019,0.062-0.019,0.122,0.014,0.184C453.999,203.239,454.057,203.294,454.146,203.346 M450.752,199.527l0.761-0.443
									c0.262,0.092,0.517,0.195,0.76,0.306c0.248,0.107,0.478,0.225,0.695,0.351c0.567,0.328,0.862,0.63,0.89,0.903
									c0.033,0.277-0.207,0.557-0.702,0.844l-1.782,1.036l-1.009-0.582l0.463-0.269c-0.324,0.033-0.617,0.025-0.872-0.019
									c-0.254-0.051-0.503-0.143-0.746-0.283c-0.325-0.188-0.492-0.395-0.506-0.623c-0.021-0.225,0.131-0.424,0.43-0.597
									c0.367-0.214,0.756-0.299,1.182-0.251c0.427,0.048,0.911,0.225,1.454,0.539l0.594,0.343l0.076-0.044
									c0.159-0.092,0.209-0.195,0.157-0.313c-0.052-0.11-0.211-0.247-0.479-0.402c-0.211-0.122-0.435-0.229-0.657-0.306
									C451.224,199.63,450.994,199.571,450.752,199.527 M438.648,195.176l4.161-2.418l2.918,1.685l-0.812,0.472l-1.838-1.062
									l-0.774,0.45l1.73,0.999l-0.812,0.472l-1.73-0.999l-0.952,0.553l1.896,1.095l-0.812,0.472L438.648,195.176 M444.382,198.487
									l4.161-2.418l1.628,0.94c0.581,0.335,0.913,0.63,0.998,0.877c0.084,0.254-0.062,0.494-0.448,0.719
									c-0.203,0.118-0.425,0.188-0.661,0.214c-0.241,0.029-0.477,0.011-0.731-0.055c0.166,0.177,0.225,0.35,0.169,0.531
									c-0.051,0.177-0.209,0.343-0.469,0.494c-0.399,0.232-0.844,0.329-1.315,0.284c-0.465-0.041-0.976-0.225-1.537-0.549
									L444.382,198.487 M464.684,199.869l-3.134,1.821l-11.689-6.75l-23.866-13.78l-4.23,2.459l-2.602,1.512
									c0.425,0.275,0.651,0.529,0.68,0.767c0.02,0.198-0.099,0.402-0.356,0.61l0.643,0.371l0.957-0.557l1.009,0.582l-0.311,0.181
									c-0.171,0.1-0.381,0.221-0.634,0.369c-0.005,0.002-0.009,0.005-0.014,0.007l1.144,0.661l0.958-0.557l1.009,0.583
									l-0.958,0.557l15.897,9.179l2.815,1.625l11.69,6.75l-3.134,1.821l13.61-0.321L464.684,199.869"/>
								<path fill="#FFFFFF" d="M96.19,196.769l1.091-0.634l0.632,0.365c0.217,0.125,0.338,0.247,0.358,0.361
									c0.02,0.114-0.068,0.225-0.246,0.328c-0.185,0.107-0.375,0.158-0.572,0.147c-0.21-0.01-0.414-0.077-0.631-0.203
									L96.19,196.769 M98.011,195.711l0.882-0.512l0.594,0.343c0.172,0.1,0.262,0.195,0.275,0.292
									c0.013,0.096-0.05,0.184-0.189,0.265c-0.146,0.085-0.299,0.122-0.464,0.114c-0.166-0.007-0.331-0.059-0.503-0.158
									L98.011,195.711 M100.159,195.084l-1.622-0.937l-4.162,2.418l1.794,1.036c0.562,0.325,1.078,0.505,1.543,0.546
									c0.471,0.044,0.91-0.048,1.31-0.28c0.26-0.151,0.418-0.317,0.474-0.498c0.05-0.177-0.001-0.354-0.174-0.527
									c0.255,0.066,0.497,0.081,0.732,0.055c0.242-0.029,0.463-0.099,0.667-0.217c0.381-0.221,0.526-0.461,0.442-0.715
									C101.079,195.718,100.746,195.423,100.159,195.084"/>
								<polyline fill="#FFFFFF" points="102.069,198.634 100.307,197.617 99.495,198.089 101.256,199.106 102.069,198.634
									"/>
								<path fill="#FFFFFF" d="M102.377,200.341l1.091-0.634l0.632,0.365c0.223,0.129,0.338,0.247,0.358,0.361
									s-0.062,0.228-0.24,0.332c-0.185,0.107-0.381,0.155-0.578,0.144c-0.204-0.007-0.414-0.077-0.631-0.203L102.377,200.341
									 M104.198,199.283l0.882-0.512l0.6,0.346c0.166,0.096,0.262,0.195,0.269,0.288c0.013,0.096-0.05,0.184-0.189,0.265
									c-0.146,0.085-0.299,0.122-0.464,0.114c-0.16-0.003-0.332-0.059-0.498-0.155L104.198,199.283 M106.352,198.66l-1.622-0.937
									l-4.161,2.418l1.794,1.036c0.556,0.321,1.072,0.501,1.543,0.545s0.903-0.052,1.303-0.284c0.26-0.15,0.418-0.316,0.474-0.497
									c0.05-0.177-0.001-0.354-0.168-0.524c0.249,0.063,0.497,0.082,0.732,0.055c0.242-0.029,0.457-0.103,0.66-0.221
									c0.38-0.221,0.532-0.457,0.448-0.712C107.266,199.291,106.933,198.996,106.352,198.66"/>
								<path fill="#FFFFFF" d="M106.458,202.866c-0.147-0.084-0.23-0.177-0.243-0.266c-0.02-0.092,0.043-0.172,0.17-0.247
									c0.133-0.077,0.292-0.111,0.463-0.092c0.179,0.021,0.376,0.092,0.581,0.21l0.523,0.302l-0.114,0.066
									c-0.203,0.118-0.438,0.181-0.699,0.184C106.879,203.029,106.649,202.977,106.458,202.866 M109.154,201.396
									c-0.217-0.125-0.447-0.243-0.689-0.354c-0.25-0.106-0.504-0.21-0.772-0.306l-0.761,0.442
									c0.249,0.041,0.484,0.104,0.707,0.188c0.23,0.081,0.453,0.181,0.67,0.306c0.268,0.155,0.422,0.287,0.474,0.405
									c0.051,0.111-0.006,0.217-0.164,0.31l-0.077,0.044l-0.587-0.339c-0.543-0.313-1.027-0.498-1.448-0.542
									c-0.426-0.048-0.821,0.033-1.188,0.247c-0.304,0.177-0.444,0.376-0.429,0.604c0.007,0.225,0.18,0.435,0.506,0.623
									c0.243,0.14,0.491,0.232,0.747,0.276c0.249,0.048,0.541,0.056,0.865,0.022l-0.463,0.27l1.015,0.586l1.783-1.036
									c0.501-0.291,0.735-0.575,0.708-0.848C110.017,202.019,109.716,201.72,109.154,201.396"/>
								<path fill="#FFFFFF" d="M114.454,204.544l-1.009-0.583l-1.541,0.896c-0.286,0.166-0.565,0.262-0.845,0.284
									c-0.273,0.025-0.522-0.022-0.732-0.144c-0.083-0.048-0.141-0.103-0.173-0.166c-0.032-0.055-0.039-0.118-0.008-0.181
									c0.013-0.044,0.069-0.106,0.171-0.18c0.095-0.07,0.266-0.177,0.521-0.325c0.088-0.052,0.253-0.147,0.52-0.295
									c0.254-0.147,0.463-0.269,0.634-0.369l0.311-0.18l-1.009-0.583l-1.903,1.106c-0.425,0.247-0.646,0.486-0.677,0.726
									c-0.037,0.236,0.13,0.465,0.487,0.671c0.205,0.118,0.44,0.203,0.695,0.247c0.255,0.051,0.554,0.062,0.878,0.044l-0.45,0.261
									l1.009,0.583L114.454,204.544"/>
								<polyline fill="#FFFFFF" points="411.878,179.801 408.96,178.116 404.799,180.534 405.879,181.157 407.642,180.132
									409.372,181.131 410.184,180.659 408.454,179.661 409.228,179.211 411.066,180.272 411.878,179.801 								"/>
								<polyline fill="#FFFFFF" points="411.854,182.234 410.092,181.216 409.279,181.688 411.042,182.706 411.854,182.234
																	"/>
								<path fill="#FFFFFF" d="M412.169,183.944l1.091-0.634l0.632,0.365c0.224,0.129,0.339,0.247,0.358,0.361
									c0.014,0.118-0.062,0.229-0.239,0.332c-0.185,0.107-0.381,0.155-0.579,0.144c-0.203-0.007-0.414-0.077-0.631-0.203
									L412.169,183.944 M413.989,182.886l0.882-0.512l0.6,0.346c0.166,0.096,0.263,0.196,0.269,0.288
									c0.014,0.096-0.049,0.185-0.188,0.266c-0.146,0.084-0.305,0.125-0.464,0.114c-0.159-0.004-0.331-0.059-0.498-0.155
									L413.989,182.886 M416.143,182.263l-1.621-0.936l-4.161,2.418l1.794,1.036c0.556,0.321,1.072,0.501,1.543,0.545
									c0.465,0.041,0.903-0.051,1.303-0.284c0.261-0.151,0.419-0.317,0.476-0.497c0.049-0.177-0.003-0.354-0.169-0.523
									c0.249,0.062,0.496,0.081,0.732,0.055c0.235-0.026,0.457-0.104,0.66-0.222c0.381-0.221,0.532-0.457,0.448-0.711
									C417.057,182.894,416.725,182.599,416.143,182.263"/>
								<path fill="#FFFFFF" d="M416.249,186.47c-0.152-0.089-0.229-0.177-0.249-0.27c-0.014-0.088,0.044-0.173,0.171-0.247
									c0.133-0.078,0.298-0.107,0.47-0.089c0.179,0.022,0.376,0.092,0.58,0.21l0.523,0.302l-0.113,0.066
									c-0.203,0.118-0.438,0.181-0.699,0.184C416.671,186.632,416.441,186.58,416.249,186.47 M418.939,184.995
									c-0.217-0.125-0.446-0.244-0.688-0.354c-0.249-0.107-0.498-0.207-0.766-0.302l-0.762,0.442
									c0.248,0.04,0.484,0.103,0.707,0.188c0.23,0.082,0.447,0.185,0.664,0.31c0.161,0.093,0.285,0.179,0.369,0.258
									c0.054,0.05,0.09,0.098,0.11,0.143c0.041,0.089,0.012,0.175-0.083,0.253c-0.023,0.02-0.049,0.039-0.08,0.057l-0.076,0.044
									l-0.594-0.343c-0.543-0.313-1.021-0.494-1.448-0.542c-0.42-0.044-0.82,0.041-1.182,0.251
									c-0.305,0.177-0.444,0.376-0.437,0.601c0.015,0.229,0.188,0.438,0.513,0.626c0.236,0.137,0.485,0.229,0.746,0.276
									c0.249,0.048,0.541,0.055,0.866,0.022l-0.463,0.269l1.015,0.586l1.782-1.036c0.138-0.08,0.254-0.159,0.352-0.238
									c0.258-0.208,0.376-0.412,0.356-0.61c-0.028-0.237-0.255-0.492-0.68-0.767C419.093,185.086,419.02,185.041,418.939,184.995"
									/>
								<path fill="#FFFFFF" d="M424.246,188.147l-1.009-0.583l-0.958,0.557l-0.584,0.339c-0.285,0.166-0.564,0.262-0.844,0.284
									c-0.281,0.021-0.523-0.022-0.733-0.144c-0.09-0.051-0.147-0.107-0.173-0.166c-0.032-0.055-0.039-0.118-0.007-0.18
									c0.013-0.044,0.069-0.107,0.17-0.181c0.096-0.07,0.267-0.176,0.521-0.324c0.081-0.047,0.248-0.144,0.507-0.288
									c0.005-0.002,0.009-0.004,0.014-0.007c0.253-0.147,0.463-0.269,0.634-0.369l0.311-0.181l-1.009-0.582l-0.957,0.557
									l-0.945,0.549c-0.425,0.247-0.646,0.487-0.684,0.723c-0.03,0.24,0.13,0.464,0.493,0.674c0.205,0.118,0.435,0.2,0.695,0.247
									c0.249,0.048,0.548,0.059,0.879,0.044l-0.45,0.262l1.009,0.583l2.163-1.257L424.246,188.147"/>
								<polyline fill="#FFFFFF" points="445.728,194.443 442.81,192.758 438.648,195.176 441.624,196.895 442.436,196.423
									440.539,195.328 441.491,194.775 443.222,195.774 444.033,195.302 442.303,194.303 443.077,193.854 444.915,194.915
									445.728,194.443 								"/>
								<polyline fill="#FFFFFF" points="445.882,196.979 444.119,195.962 443.308,196.434 445.069,197.451 445.882,196.979
																	"/>
								<path fill="#FFFFFF" d="M446.196,198.69l1.092-0.634l0.632,0.365c0.217,0.125,0.338,0.247,0.352,0.365
									c0.021,0.114-0.062,0.221-0.245,0.328c-0.185,0.107-0.369,0.155-0.573,0.147c-0.197-0.011-0.407-0.081-0.624-0.206
									L446.196,198.69 M448.017,197.632l0.882-0.512l0.594,0.343c0.173,0.1,0.262,0.195,0.275,0.291
									c0.014,0.096-0.05,0.185-0.195,0.269c-0.146,0.085-0.299,0.122-0.464,0.114c-0.159-0.011-0.325-0.062-0.498-0.162
									L448.017,197.632 M450.171,197.009l-1.628-0.94l-4.161,2.418l1.794,1.036c0.562,0.324,1.072,0.509,1.537,0.549
									c0.472,0.044,0.916-0.052,1.315-0.284c0.26-0.151,0.418-0.317,0.469-0.494c0.056-0.181-0.003-0.354-0.169-0.531
									c0.255,0.066,0.49,0.084,0.731,0.055c0.236-0.026,0.458-0.096,0.661-0.214c0.387-0.225,0.532-0.464,0.448-0.719
									C451.084,197.639,450.752,197.344,450.171,197.009"/>
								<path fill="#FFFFFF" d="M450.277,201.215c-0.153-0.088-0.242-0.177-0.256-0.265c-0.007-0.092,0.044-0.173,0.171-0.247
									c0.139-0.081,0.291-0.111,0.47-0.088c0.185,0.019,0.369,0.088,0.58,0.21l0.523,0.302l-0.113,0.066
									c-0.203,0.118-0.432,0.177-0.706,0.181C450.686,201.377,450.462,201.322,450.277,201.215 M452.968,199.741
									c-0.218-0.125-0.447-0.244-0.695-0.351c-0.243-0.111-0.498-0.214-0.76-0.306l-0.761,0.443
									c0.242,0.044,0.472,0.103,0.707,0.188c0.223,0.078,0.446,0.185,0.657,0.306c0.269,0.155,0.428,0.292,0.479,0.402
									c0.052,0.118,0.002,0.221-0.157,0.313l-0.076,0.044l-0.594-0.343c-0.543-0.314-1.027-0.491-1.454-0.539
									c-0.426-0.048-0.814,0.037-1.182,0.251c-0.299,0.173-0.45,0.372-0.43,0.597c0.014,0.229,0.181,0.435,0.506,0.623
									c0.243,0.14,0.492,0.232,0.746,0.283c0.255,0.044,0.548,0.052,0.872,0.019l-0.463,0.269l1.009,0.582l1.782-1.036
									c0.495-0.288,0.735-0.567,0.702-0.844C453.83,200.371,453.535,200.069,452.968,199.741"/>
								<path fill="#FFFFFF" d="M458.268,202.889l-1.003-0.579l-1.541,0.896c-0.285,0.166-0.565,0.261-0.845,0.284
									c-0.28,0.022-0.529-0.026-0.733-0.144c-0.089-0.051-0.146-0.107-0.179-0.162c-0.032-0.062-0.032-0.122-0.014-0.184
									c0.02-0.048,0.082-0.107,0.177-0.177c0.102-0.074,0.273-0.181,0.526-0.328c0.083-0.048,0.254-0.147,0.508-0.295
									c0.267-0.147,0.476-0.269,0.646-0.369l0.312-0.181l-1.016-0.586l-1.909,1.11c-0.418,0.243-0.646,0.486-0.677,0.726
									c-0.03,0.24,0.136,0.461,0.5,0.671c0.204,0.118,0.435,0.2,0.688,0.251c0.255,0.044,0.548,0.059,0.886,0.041l-0.45,0.261
									l1.002,0.579L458.268,202.889"/>
								<polyline fill="#FFFFFF" points="248.516,303.188 246.958,302.289 240.818,305.857 243.901,307.638 246.998,309.426
									248.546,308.525 247.008,307.638 248.536,306.749 246.998,305.86 248.532,304.969 246.987,304.076 248.516,303.188
									"/>
								<polyline fill="#FFFFFF" points="451.414,170.109 449.855,169.209 443.715,172.778 446.8,174.559 449.896,176.347
									451.443,175.447 449.904,174.559 451.434,173.67 449.895,172.782 451.43,171.89 449.885,170.998 451.414,170.109
									"/>
								<polyline fill="#FFFFFF" points="121.136,205.639 119.578,204.739 113.432,208.312 116.509,210.088 119.612,211.88
									121.166,210.977 119.627,210.088 121.156,209.2 119.611,208.308 121.146,207.416 119.607,206.527 121.136,205.639
									"/>
							</g>
						</g>
					</g>
				</g>
			</g>
		</g>
	</g>
</g>

</svg>
