<?xml version="1.0" encoding="utf-8"?>
<!-- Generator: Adobe Illustrator 16.0.0, SVG Export Plug-In . SVG Version: 6.00 Build 0)  -->
<!DOCTYPE svg PUBLIC "-//W3C//DTD SVG 1.1//EN" "http://www.w3.org/Graphics/SVG/1.1/DTD/svg11.dtd">
<svg version="1.1" xmlns="http://www.w3.org/2000/svg" xmlns:xlink="http://www.w3.org/1999/xlink" x="0px" y="0px"
	 width="595.275px" height="419.527px" viewBox="0 0 595.275 419.527" enable-background="new 0 0 595.275 419.527"
	 xml:space="preserve">
<g id="Ebene_1">
	<polygon fill="#EC7404" points="-110.667,8.637 -120.925,-1.622 -131.185,8.637 -126.631,8.637 -126.631,160.333 -115.22,160.333
		-115.22,8.637 	"/>
	<text transform="matrix(0 -1 1 0 -117.7695 70.9072)" fill="#FFFFFF" font-family="'DejaVuSans-Bold'" font-size="9">Textbaustein</text>
</g>
<g id="Ebene_3">
	<path fill="#BFBFBF" d="M361.795,216.728"/>
	<g>
		<g>
			<g enable-background="new    ">
				<defs>
					<polygon id="SVGID_1_" enable-background="new    " points="155.261,172.949 203.26,145.055 403.225,260.513 355.227,288.407
											"/>
				</defs>
				<clipPath id="SVGID_2_">
					<use xlink:href="#SVGID_1_"  overflow="visible"/>
				</clipPath>
				<g clip-path="url(#SVGID_2_)">
					<g>
						<g>
							<g>
								<path fill="#32608F" d="M169.325,176.396c-0.153-0.089-0.313-0.129-0.491-0.122c-0.165,0.008-0.337,0.056-0.508,0.155
									l-0.476,0.276l0.938,0.542l0.476-0.276c0.171-0.1,0.26-0.196,0.266-0.295C169.542,176.573,169.472,176.481,169.325,176.396
									 M175.363,172.835c-0.153-0.088-0.3-0.129-0.44-0.122c-0.153,0.007-0.311,0.062-0.495,0.169l-0.362,0.21l0.862,0.498
									l0.362-0.21c0.184-0.107,0.278-0.199,0.297-0.284C175.594,173.012,175.523,172.928,175.363,172.835 M179.817,171.49
									l-1.797-0.509l0.884,1.04L179.817,171.49 M188.936,165.673c-0.338-0.196-0.682-0.284-1.045-0.28
									c-0.356,0.007-0.706,0.114-1.061,0.32l-0.311,0.181l2.05,1.183l0.311-0.181c0.349-0.203,0.532-0.413,0.543-0.619
									C189.428,166.067,189.268,165.864,188.936,165.673 M166.362,176.846l1.434-0.833c0.425-0.248,0.844-0.38,1.264-0.402
									c0.414-0.026,0.802,0.066,1.154,0.269c0.351,0.203,0.505,0.424,0.468,0.667c-0.036,0.243-0.264,0.486-0.689,0.733
									l-0.57,0.332l1.162,0.671l-0.863,0.501L166.362,176.846 M169.026,175.298l0.945-0.549l1.961,0.25l-0.445-1.132l0.945-0.549
									l0.679,1.861l1.411,0.815l-0.862,0.501l-1.411-0.814L169.026,175.298 M178.758,173.379l-2.038-2.553l1.028-0.597l4.595,1.22
									l-0.868,0.505l-0.816-0.229l-1.345,0.781l0.391,0.476l-0.862,0.501l-0.806,0.468l-1.236-0.243
									c-0.255-0.052-0.452-0.07-0.592-0.055c-0.153,0.015-0.292,0.059-0.432,0.14l-0.248,0.144l1.271,0.734l-0.862,0.501
									l-3.358-1.939l1.319-0.767c0.438-0.254,0.838-0.398,1.188-0.432c0.356-0.037,0.693,0.041,1.013,0.225
									c0.224,0.129,0.351,0.269,0.391,0.409c0.032,0.144-0.023,0.302-0.169,0.46c0.146-0.047,0.311-0.077,0.501-0.077
									c0.185,0.004,0.428,0.033,0.714,0.088L178.758,173.379 M179.194,169.389l1.098-0.638l2.562,0.597l-1.033-1.485l1.091-0.634
									l3.358,1.938l-0.812,0.472L183,168.22l1.04,1.496l-0.546,0.317l-2.581-0.601l2.458,1.419l-0.818,0.476L179.194,169.389
									 M183.527,166.871l0.862-0.501l3.358,1.939l-0.862,0.501L183.527,166.871 M185.004,166.012l0.907-0.527
									c0.507-0.295,0.92-0.49,1.238-0.594c0.317-0.103,0.661-0.154,1.011-0.158c0.312-0.003,0.599,0.029,0.873,0.1
									c0.274,0.07,0.535,0.177,0.791,0.325c0.249,0.144,0.441,0.298,0.562,0.457c0.123,0.158,0.187,0.328,0.175,0.505
									c0.001,0.206-0.093,0.401-0.276,0.589c-0.171,0.188-0.513,0.424-1.015,0.715l-0.907,0.527L185.004,166.012 M200.901,169.407
									l-19.837-11.454l-25.626,14.893l19.837,11.454L200.901,169.407"/>
								<path id="A4.16" fill="#BDD4E4" d="M301.677,237.845l-2.237-0.63l1.095,1.294L301.677,237.845 M305.12,235.836l-1.756-1.014
									l0.583,1.695L305.12,235.836 M300.462,240.333l-2.646-3.314l1.28-0.744l5.73,1.522l-1.078,0.627l-1.026-0.284l-1.675,0.974
									l0.493,0.593L300.462,240.333 M322.44,245.505l-15.489-8.942l-0.286,0.166l-0.76-0.439l-1.839,1.069l-0.932-0.538
									l-0.836-2.407l0.464-0.27l-16.332-9.43l-20.514,11.922l35.832,20.895L322.44,245.505 M315.119,230.27
									c-0.243-0.14-0.473-0.221-0.689-0.236c-0.216-0.015-0.419,0.029-0.609,0.141c-0.19,0.11-0.267,0.229-0.24,0.354
									c0.033,0.122,0.167,0.258,0.409,0.398c0.249,0.144,0.479,0.217,0.696,0.239c0.216,0.015,0.413-0.033,0.604-0.144
									s0.271-0.225,0.246-0.351C315.502,230.542,315.367,230.413,315.119,230.27 M307.749,234.841l1.002-0.583l1.086,0.627
									l-1.002,0.582L307.749,234.841 M306.799,232.035l0.759-0.679l1.021-0.593l3.441,1.986l0.945-0.549l0.747,0.432l-2.905,1.688
									l-0.747-0.432l0.945-0.55l-2.707-1.562l-0.766,0.682L306.799,232.035 M312.714,230.328c0.031-0.121,0.095-0.239,0.188-0.347
									c0.102-0.11,0.235-0.217,0.399-0.312c0.426-0.247,0.896-0.373,1.41-0.384c0.51-0.008,0.969,0.11,1.371,0.343
									c0.453,0.262,0.665,0.553,0.641,0.877c-0.018,0.328-0.27,0.631-0.765,0.918c-0.539,0.313-1.143,0.45-1.812,0.409
									c-0.655-0.04-1.331-0.254-2.009-0.645c-0.688-0.398-1.054-0.814-1.107-1.242c-0.047-0.432,0.231-0.822,0.834-1.173
									c0.19-0.11,0.387-0.21,0.603-0.298c0.21-0.085,0.432-0.163,0.667-0.232l0.772,0.445c-0.261,0.056-0.489,0.114-0.68,0.181
									c-0.196,0.07-0.368,0.147-0.515,0.232c-0.323,0.188-0.481,0.384-0.48,0.59C312.233,229.897,312.388,230.111,312.714,230.328
									 M313.738,208.844l-27.307,15.87l16.332,9.43l0.729-0.424l2.644,1.526l0.596-0.347l0.785,0.453l-0.596,0.347l0.76,0.438
									l-0.729,0.425l15.489,8.942l27.136-15.771L313.738,208.844"/>
								<path id="A4.08" fill="#CFD0D2" d="M264.166,230.619l-2.244-0.634l1.102,1.298L264.166,230.619 M267.616,228.607l-1.756-1.014
									l0.576,1.699L267.616,228.607 M273.15,224.747c-0.523-0.302-0.938-0.49-1.25-0.553c-0.312-0.07-0.586-0.037-0.814,0.096
									c-0.234,0.137-0.29,0.295-0.169,0.476c0.109,0.181,0.435,0.42,0.958,0.723c0.53,0.306,0.945,0.494,1.264,0.561
									c0.312,0.069,0.585,0.037,0.82-0.1c0.229-0.133,0.285-0.292,0.163-0.473C274.005,225.293,273.68,225.053,273.15,224.747
									 M275.757,222.107c-0.166-0.096-0.344-0.14-0.523-0.14c-0.178,0-0.356,0.052-0.521,0.147c-0.171,0.1-0.26,0.203-0.26,0.306
									c-0.005,0.107,0.079,0.206,0.244,0.302c0.167,0.097,0.338,0.145,0.522,0.141c0.178,0,0.356-0.052,0.527-0.151
									c0.165-0.096,0.253-0.199,0.253-0.302C276,222.307,275.923,222.203,275.757,222.107 M277.678,223.114
									c-0.204-0.118-0.415-0.181-0.631-0.181c-0.216,0-0.426,0.056-0.622,0.169c-0.203,0.118-0.298,0.24-0.297,0.365
									c0,0.126,0.109,0.247,0.313,0.365c0.211,0.122,0.415,0.181,0.631,0.181c0.223,0.004,0.426-0.056,0.629-0.174
									c0.196-0.113,0.298-0.232,0.291-0.36C277.991,223.354,277.889,223.235,277.678,223.114 M262.951,233.107l-2.647-3.313
									l1.282-0.745l5.73,1.522l-1.079,0.627l-1.026-0.291l-1.681,0.977l0.5,0.598L262.951,233.107 M265.624,229.595l-0.829-2.411
									l1.193-0.692l2.643,1.526l0.59-0.344l0.779,0.45l-0.59,0.343l0.766,0.442l-1.015,0.59l-0.766-0.442l-1.845,1.072
									L265.624,229.595 M270.239,227.615l1.008-0.586l1.085,0.627l-1.008,0.586L270.239,227.615 M270.803,226.118
									c-0.696-0.401-1.08-0.8-1.158-1.19c-0.079-0.391,0.155-0.74,0.707-1.062c0.546-0.317,1.149-0.453,1.824-0.409
									c0.674,0.044,1.363,0.266,2.059,0.667c0.696,0.402,1.08,0.8,1.159,1.19c0.079,0.392-0.148,0.745-0.694,1.062
									c-0.552,0.32-1.162,0.453-1.837,0.408C272.188,226.741,271.499,226.521,270.803,226.118 M276.841,222.447
									c0.369-0.118,0.706-0.166,1.024-0.151c0.325,0.019,0.618,0.106,0.886,0.262c0.415,0.239,0.588,0.501,0.533,0.785
									c-0.062,0.28-0.359,0.579-0.898,0.892c-0.54,0.313-1.061,0.49-1.544,0.527c-0.497,0.037-0.942-0.066-1.357-0.306
									c-0.268-0.155-0.422-0.324-0.455-0.513c-0.033-0.181,0.055-0.379,0.258-0.594c-0.331,0.104-0.635,0.147-0.929,0.133
									c-0.287-0.019-0.547-0.096-0.784-0.232c-0.357-0.206-0.493-0.438-0.418-0.696c0.075-0.258,0.373-0.534,0.881-0.829
									c0.501-0.292,0.977-0.465,1.422-0.509c0.445-0.045,0.846,0.033,1.204,0.239c0.236,0.137,0.371,0.287,0.397,0.457
									C277.093,222.078,277.018,222.255,276.841,222.447 M283.841,224.674l-22.193-12.814l-12.008,6.979l-7.25,4.213
									l22.193,12.814L283.841,224.674"/>
								<path id="A4.04" fill="#CFD0D2" d="M229.261,210.503l-2.237-0.63l1.096,1.293L229.261,210.503 M232.705,208.494l-1.75-1.01l0.576,1.692
									L232.705,208.494 M238.252,204.634c-0.523-0.302-0.945-0.486-1.25-0.553c-0.313-0.07-0.585-0.037-0.82,0.1
									c-0.229,0.133-0.285,0.292-0.163,0.472c0.109,0.18,0.429,0.424,0.953,0.726c0.53,0.306,0.951,0.49,1.269,0.557
									c0.312,0.07,0.586,0.037,0.814-0.096s0.285-0.292,0.169-0.476C239.102,205.184,238.782,204.94,238.252,204.634
									 M241.966,203.112l-1.749-1.01l0.569,1.695L241.966,203.112 M228.053,212.995l-2.647-3.314l1.282-0.745l5.729,1.522
									l-1.084,0.63l-1.026-0.291l-1.674,0.973l0.5,0.598L228.053,212.995 M230.725,209.482l-0.834-2.407l1.193-0.693l2.637,1.522
									l0.596-0.346l0.785,0.453l-0.596,0.347l0.766,0.442l-1.015,0.59l-0.766-0.442l-1.84,1.069L230.725,209.482 M235.341,207.502
									l1.002-0.583l1.085,0.626l-1.002,0.583L235.341,207.502 M235.905,206.005c-0.696-0.402-1.08-0.8-1.165-1.187
									c-0.079-0.391,0.161-0.745,0.707-1.062c0.545-0.317,1.156-0.457,1.831-0.413c0.675,0.044,1.357,0.27,2.053,0.671
									c0.696,0.402,1.086,0.797,1.165,1.187c0.079,0.391-0.162,0.745-0.707,1.062s-1.155,0.457-1.83,0.413
									C237.29,206.628,236.601,206.407,235.905,206.005 M239.98,204.104l-0.829-2.411l1.193-0.693l2.637,1.522l0.59-0.343
									l0.786,0.453l-0.59,0.343l0.766,0.442l-1.015,0.59l-0.767-0.442l-1.845,1.072L239.98,204.104 M248.629,204.343
									l-10.381-5.994l-19.257,11.191l10.381,5.995L248.629,204.343"/>
								<path id="A4.019" fill="#CFD0D2" d="M325.93,266.245l-2.23-0.634l1.089,1.297L325.93,266.245 M329.38,264.232l-1.756-1.014l0.583,1.695
									L329.38,264.232 M337.694,257.892c-0.242-0.14-0.467-0.218-0.683-0.232c-0.223-0.019-0.433,0.029-0.616,0.137
									c-0.19,0.11-0.267,0.229-0.234,0.357c0.026,0.125,0.161,0.255,0.403,0.395c0.249,0.144,0.479,0.225,0.695,0.24
									c0.217,0.015,0.42-0.03,0.61-0.141c0.185-0.107,0.267-0.229,0.24-0.354C338.083,258.168,337.943,258.035,337.694,257.892
									 M324.715,268.733l-2.647-3.314l1.282-0.744l5.73,1.522l-1.079,0.626l-1.021-0.287l-1.681,0.977l0.5,0.59L324.715,268.733
									 M327.395,265.224l-0.836-2.414l1.193-0.693l2.644,1.526l0.596-0.347l0.785,0.453l-0.597,0.347l0.761,0.438l-1.016,0.59
									l-0.76-0.438l-1.846,1.072L327.395,265.224 M332.009,263.237l1.002-0.583l1.086,0.627l-1.002,0.582L332.009,263.237
									 M331.051,260.436l0.768-0.683l1.021-0.593l3.441,1.986l0.945-0.549l0.747,0.432l-2.912,1.691l-0.746-0.431l0.951-0.554
									l-2.707-1.563l-0.773,0.687L331.051,260.436 M335.607,259.193c-0.447-0.259-0.665-0.554-0.647-0.874
									c0.018-0.328,0.276-0.634,0.765-0.918c0.539-0.313,1.144-0.45,1.812-0.409c0.661,0.037,1.337,0.251,2.008,0.638
									c0.695,0.401,1.061,0.818,1.107,1.25c0.053,0.428-0.225,0.818-0.834,1.172c-0.195,0.114-0.393,0.214-0.603,0.298
									c-0.203,0.089-0.426,0.167-0.653,0.232l-0.779-0.449c0.254-0.052,0.477-0.114,0.674-0.177
									c0.196-0.07,0.368-0.147,0.521-0.236c0.323-0.188,0.48-0.383,0.479-0.589c-0.001-0.207-0.154-0.421-0.475-0.642
									c-0.037,0.125-0.101,0.243-0.195,0.357c-0.101,0.11-0.228,0.214-0.392,0.31c-0.426,0.247-0.896,0.372-1.411,0.384
									C336.476,259.547,336.016,259.429,335.607,259.193 M345.164,260.081l-10.381-5.994l-19.258,11.192l10.382,5.993
									L345.164,260.081"/>
								<path id="A4.18" fill="#CFD0D2" d="M313.479,259.057l-2.23-0.635l1.089,1.298L313.479,259.057 M316.931,257.044l-1.757-1.014
									l0.584,1.695L316.931,257.044 M325.071,250.545c-0.166-0.097-0.338-0.145-0.522-0.141c-0.178,0-0.35,0.048-0.521,0.147
									c-0.171,0.1-0.246,0.203-0.253,0.31c0.001,0.104,0.079,0.207,0.238,0.299c0.166,0.096,0.35,0.144,0.528,0.144
									c0.185-0.004,0.356-0.052,0.527-0.151c0.172-0.099,0.254-0.198,0.253-0.302
									C325.327,250.744,325.238,250.641,325.071,250.545 M326.999,251.555c-0.211-0.122-0.421-0.185-0.638-0.185
									c-0.21-0.004-0.412,0.056-0.615,0.174c-0.197,0.114-0.305,0.235-0.298,0.364c0.001,0.126,0.109,0.247,0.313,0.365
									c0.205,0.118,0.415,0.181,0.631,0.181c0.217,0,0.433-0.059,0.63-0.173c0.203-0.118,0.298-0.24,0.29-0.361
									C327.312,251.795,327.203,251.673,326.999,251.555 M312.266,261.545l-2.647-3.314l1.281-0.744l5.73,1.522l-1.079,0.626
									l-1.02-0.287l-1.681,0.977l0.5,0.59L312.266,261.545 M314.944,258.035l-0.835-2.414l1.192-0.693l2.644,1.526l0.596-0.347
									l0.785,0.453l-0.596,0.347l0.76,0.438l-1.016,0.59l-0.76-0.438l-1.845,1.072L314.944,258.035 M319.559,256.049l1.003-0.583
									l1.085,0.627l-1.002,0.583L319.559,256.049 M318.602,253.247l0.767-0.683l1.021-0.593l3.442,1.987l0.944-0.55l0.747,0.432
									l-2.911,1.691l-0.747-0.431l0.952-0.554l-2.708-1.563l-0.772,0.687L318.602,253.247 M326.167,250.884
									c0.356-0.118,0.699-0.17,1.019-0.147c0.318,0.015,0.611,0.104,0.886,0.262c0.415,0.239,0.595,0.498,0.532,0.778
									c-0.068,0.283-0.365,0.582-0.904,0.896s-1.054,0.486-1.544,0.527c-0.483,0.036-0.936-0.063-1.351-0.303
									c-0.274-0.158-0.429-0.328-0.455-0.513c-0.033-0.188,0.049-0.383,0.258-0.594c-0.33,0.104-0.642,0.145-0.929,0.126
									c-0.286-0.019-0.554-0.093-0.79-0.229c-0.352-0.203-0.486-0.436-0.411-0.693c0.082-0.262,0.366-0.538,0.874-0.833
									c0.507-0.295,0.983-0.461,1.429-0.505c0.445-0.052,0.846,0.033,1.197,0.236c0.236,0.136,0.371,0.287,0.403,0.453
									C326.407,250.516,326.339,250.695,326.167,250.884 M333.219,253.184l-10.381-5.993l-19.258,11.191l10.381,5.994
									L333.219,253.184"/>
								<path id="A4.17" fill="#CFD0D2" d="M353.154,250.423l-2.236-0.63l1.095,1.293L353.154,250.423 M356.605,248.41l-1.756-1.014
									l0.576,1.699L356.605,248.41 M351.94,252.911l-2.647-3.314l1.281-0.744l5.73,1.522l-1.078,0.627l-1.021-0.288l-1.681,0.977
									l0.493,0.594L351.94,252.911 M354.619,249.402l-0.835-2.415l1.192-0.693l2.644,1.526l0.59-0.343l0.785,0.453l-0.59,0.343
									l0.76,0.439l-1.015,0.59l-0.76-0.439l-1.847,1.073L354.619,249.402 M359.228,247.418l1.009-0.586l1.086,0.627l-1.009,0.586
									L359.228,247.418 M358.276,244.613l0.76-0.679l1.021-0.594l3.441,1.987l0.952-0.553l0.746,0.432l-2.911,1.691l-0.747-0.431
									l0.945-0.55l-2.707-1.562l-0.767,0.682L358.276,244.613 M361.497,242.505l3.134-1.821l0.607,0.35l1.957,3.013l-1.04,0.604
									l-1.855-2.85l-2.004,1.164L361.497,242.505 M373.404,243.669l-10.381-5.993l-19.258,11.191l10.381,5.994L373.404,243.669"/>
								<path id="A4.17" fill="#EC7405" d="M340.705,243.234l-2.238-0.631l1.097,1.295L340.705,243.234 M344.155,241.222l-1.756-1.014
									l0.576,1.699L344.155,241.222 M339.49,245.723l-2.646-3.314l1.281-0.744l5.729,1.522l-1.078,0.627l-1.021-0.288
									l-1.681,0.977l0.494,0.594L339.49,245.723 M342.169,242.214l-0.835-2.415l1.192-0.693l2.644,1.526l0.59-0.343l0.785,0.453
									l-0.59,0.343l0.76,0.439l-1.015,0.59l-0.76-0.439l-1.846,1.073L342.169,242.214 M346.777,240.23l1.009-0.587l1.086,0.627
									l-1.009,0.586L346.777,240.23 M345.827,237.425l0.76-0.679l1.021-0.594l3.442,1.987l0.951-0.553l0.747,0.432l-2.912,1.691
									l-0.746-0.431l0.944-0.55l-2.707-1.562l-0.767,0.682L345.827,237.425 M349.048,235.316l3.134-1.821l0.606,0.351l1.958,3.012
									l-1.041,0.604l-1.861-2.854l-2.004,1.165L349.048,235.316 M361.459,236.772l-10.381-5.994l-19.259,11.191l10.382,5.994
									L361.459,236.772"/>
								<path id="A4.06" fill="#CFD0D2" d="M240.625,217.109l-2.231-0.635l1.089,1.298L240.625,217.109 M244.083,215.1l-1.756-1.014
									l0.583,1.696L244.083,215.1 M249.623,211.236c-0.523-0.302-0.944-0.486-1.25-0.553c-0.319-0.066-0.592-0.033-0.82,0.1
									s-0.286,0.291-0.169,0.476c0.116,0.177,0.435,0.42,0.958,0.723c0.53,0.306,0.951,0.49,1.263,0.56
									c0.318,0.067,0.592,0.033,0.82-0.1s0.285-0.291,0.163-0.471C250.473,211.785,250.153,211.542,249.623,211.236
									 M254.081,209.533c-0.243-0.14-0.478-0.218-0.688-0.236c-0.224-0.018-0.42,0.029-0.61,0.14
									c-0.19,0.11-0.272,0.225-0.24,0.354c0.026,0.126,0.167,0.258,0.409,0.398c0.243,0.14,0.472,0.222,0.689,0.236
									c0.223,0.019,0.42-0.029,0.61-0.14c0.191-0.111,0.272-0.225,0.24-0.354C254.458,209.81,254.323,209.674,254.081,209.533
									 M239.418,219.601l-2.641-3.317l1.275-0.741l5.729,1.522l-1.079,0.627l-1.025-0.291l-1.682,0.977l0.507,0.594
									L239.418,219.601 M242.09,216.088l-0.828-2.411l1.193-0.693l2.643,1.526l0.596-0.347l0.779,0.45l-0.596,0.347l0.766,0.442
									l-1.015,0.59l-0.766-0.442l-1.846,1.072L242.09,216.088 M246.712,214.104l1.002-0.582l1.085,0.626l-1.002,0.583
									L246.712,214.104 M247.276,212.608c-0.696-0.402-1.086-0.797-1.165-1.188s0.161-0.745,0.707-1.062
									c0.545-0.317,1.156-0.457,1.83-0.413c0.668,0.048,1.357,0.269,2.053,0.671c0.696,0.402,1.08,0.8,1.165,1.188
									c0.079,0.391-0.155,0.748-0.7,1.064c-0.546,0.317-1.162,0.454-1.837,0.409C248.654,213.234,247.972,213.01,247.276,212.608
									 M251.669,209.596c0.031-0.122,0.094-0.239,0.195-0.35c0.102-0.111,0.228-0.214,0.399-0.313
									c0.425-0.248,0.895-0.372,1.404-0.38c0.509-0.007,0.968,0.104,1.376,0.339c0.447,0.258,0.666,0.553,0.643,0.877
									c-0.024,0.324-0.277,0.634-0.765,0.917c-0.54,0.314-1.143,0.45-1.812,0.41c-0.662-0.037-1.332-0.255-2.008-0.646
									c-0.689-0.398-1.061-0.811-1.108-1.242c-0.053-0.428,0.225-0.818,0.833-1.172c0.191-0.111,0.387-0.21,0.597-0.295
									c0.209-0.092,0.432-0.169,0.673-0.236l0.772,0.446c-0.261,0.055-0.489,0.114-0.687,0.184c-0.19,0.066-0.368,0.14-0.52,0.229
									c-0.317,0.184-0.476,0.38-0.48,0.59C251.183,209.161,251.35,209.375,251.669,209.596 M260.236,211.045l-10.196-5.887
									l-19.257,11.192l10.196,5.887L260.236,211.045"/>
								<path id="A4.02" fill="#CFD0D2" d="M217.443,203.605l-2.231-0.634l1.089,1.298L217.443,203.605 M220.893,201.593l-1.749-1.01
									l0.576,1.691L220.893,201.593 M226.44,197.733c-0.524-0.303-0.945-0.487-1.25-0.553c-0.318-0.066-0.592-0.033-0.821,0.1
									s-0.285,0.291-0.169,0.476c0.116,0.177,0.435,0.42,0.958,0.723c0.53,0.306,0.951,0.49,1.264,0.561
									c0.318,0.066,0.592,0.033,0.82-0.1s0.285-0.292,0.163-0.472C227.289,198.283,226.97,198.039,226.44,197.733
									 M216.234,206.098l-2.653-3.317l1.281-0.745l5.737,1.526l-1.079,0.626l-1.026-0.291l-1.681,0.977l0.506,0.594
									L216.234,206.098 M218.907,202.584l-0.835-2.415l1.193-0.693l2.644,1.526l0.596-0.346l0.785,0.453l-0.596,0.347l0.766,0.442
									l-1.015,0.59l-0.767-0.442l-1.845,1.073L218.907,202.584 M223.522,200.598l1.002-0.583l1.092,0.63l-1.002,0.583
									L223.522,200.598 M224.093,199.104c-0.696-0.402-1.086-0.796-1.165-1.187c-0.078-0.391,0.162-0.745,0.707-1.062
									c0.545-0.317,1.155-0.457,1.83-0.413c0.669,0.048,1.357,0.269,2.054,0.671c0.696,0.402,1.08,0.8,1.164,1.187
									c0.079,0.391-0.161,0.745-0.707,1.062c-0.545,0.317-1.155,0.457-1.831,0.413
									C225.471,199.731,224.789,199.506,224.093,199.104 M230.444,196.915l1.834-1.066l0.798,0.461l-3.026,1.759l-0.798-0.461
									l0.175-1.663c0.006-0.151-0.008-0.276-0.065-0.383c-0.051-0.104-0.141-0.199-0.262-0.269
									c-0.198-0.114-0.427-0.167-0.676-0.162c-0.248,0.011-0.489,0.077-0.706,0.203c-0.164,0.096-0.311,0.225-0.437,0.379
									c-0.133,0.159-0.233,0.343-0.321,0.557l-0.919-0.531c0.165-0.184,0.341-0.361,0.531-0.523
									c0.197-0.158,0.412-0.306,0.634-0.435c0.501-0.291,0.997-0.453,1.486-0.486c0.503-0.033,0.949,0.062,1.345,0.291
									c0.23,0.133,0.376,0.292,0.461,0.472c0.077,0.185,0.098,0.476,0.049,0.889L230.444,196.915 M236.748,197.482l-10.381-5.994
									l-19.257,11.191l10.381,5.994L236.748,197.482"/>
								<path id="A4.23" fill="#CFD0D2" d="M380.558,266.245l-2.237-0.631l1.096,1.294L380.558,266.245 M384.008,264.232l-1.756-1.014
									l0.576,1.699L384.008,264.232 M379.343,268.733l-2.647-3.314l1.281-0.744l5.73,1.522l-1.078,0.626l-1.021-0.287
									l-1.681,0.977l0.494,0.594L379.343,268.733 M382.021,265.224l-0.835-2.415l1.192-0.692l2.645,1.526l0.59-0.343l0.784,0.453
									l-0.59,0.343l0.76,0.438l-1.015,0.59l-0.76-0.438l-1.846,1.072L382.021,265.224 M386.63,263.24l1.009-0.586l1.086,0.627
									l-1.009,0.586L386.63,263.24 M389.874,261.696l1.827-1.062l0.791,0.457l-3.02,1.755l-0.791-0.457l0.162-1.662
									c0.012-0.147-0.008-0.276-0.053-0.384c-0.059-0.106-0.147-0.195-0.275-0.269c-0.198-0.115-0.421-0.17-0.669-0.159
									c-0.255,0.008-0.483,0.074-0.699,0.199c-0.171,0.1-0.323,0.225-0.442,0.384c-0.127,0.154-0.234,0.343-0.322,0.557
									l-0.92-0.531c0.158-0.188,0.343-0.36,0.532-0.523c0.189-0.162,0.405-0.31,0.634-0.442c0.495-0.287,0.991-0.449,1.493-0.482
									c0.489-0.033,0.942,0.066,1.338,0.294c0.224,0.13,0.383,0.288,0.461,0.473c0.077,0.177,0.099,0.476,0.056,0.885
									L389.874,261.696 M393.105,258.117c0.355-0.119,0.699-0.17,1.024-0.151c0.324,0.019,0.624,0.11,0.905,0.272
									c0.415,0.239,0.569,0.513,0.476,0.818c-0.101,0.31-0.455,0.642-1.058,0.991c-0.216,0.126-0.451,0.24-0.698,0.347
									c-0.254,0.104-0.515,0.195-0.794,0.276l-0.83-0.479c0.299-0.056,0.572-0.133,0.826-0.215c0.248-0.084,0.47-0.184,0.66-0.294
									c0.285-0.166,0.45-0.321,0.5-0.469c0.057-0.144-0.014-0.272-0.192-0.376c-0.192-0.11-0.415-0.151-0.669-0.114
									c-0.254,0.03-0.527,0.137-0.832,0.313l-0.432,0.251l-0.696-0.402l0.457-0.266c0.267-0.154,0.425-0.298,0.476-0.424
									c0.037-0.125-0.021-0.239-0.193-0.339c-0.159-0.092-0.351-0.129-0.573-0.104c-0.21,0.026-0.433,0.104-0.667,0.24
									c-0.178,0.103-0.329,0.214-0.469,0.339s-0.254,0.258-0.354,0.405l-0.792-0.457c0.152-0.155,0.316-0.303,0.494-0.442
									c0.184-0.137,0.368-0.266,0.571-0.383c0.539-0.313,1.034-0.498,1.479-0.55c0.451-0.056,0.853,0.022,1.21,0.229
									c0.249,0.145,0.384,0.295,0.417,0.461C393.371,257.763,393.289,257.936,393.105,258.117 M403.136,260.461l-13.932-8.044
									l-20.964,12.184l13.931,8.044L403.136,260.461"/>
								<path id="A4.22" fill="#CFD0D2" d="M353.332,282.066l-2.23-0.634l1.089,1.298L353.332,282.066 M356.783,280.055l-1.757-1.015
									l0.583,1.696L356.783,280.055 M352.118,284.556l-2.647-3.314l1.281-0.745l5.73,1.522l-1.079,0.627l-1.02-0.287l-1.681,0.977
									l0.5,0.59L352.118,284.556 M354.797,281.046l-0.835-2.415l1.192-0.692l2.644,1.526l0.596-0.347l0.785,0.453l-0.596,0.347
									l0.76,0.438l-1.016,0.59l-0.76-0.438l-1.845,1.072L354.797,281.046 M359.411,279.059l1.003-0.582l1.085,0.627l-1.002,0.582
									L359.411,279.059 M362.649,277.518l1.832-1.065l0.792,0.458l-3.025,1.758l-0.792-0.457l0.163-1.662
									c0.018-0.151-0.002-0.281-0.054-0.384c-0.058-0.106-0.147-0.195-0.274-0.269c-0.198-0.115-0.421-0.17-0.67-0.159
									c-0.248,0.004-0.482,0.074-0.698,0.199c-0.165,0.096-0.317,0.221-0.443,0.384c-0.127,0.154-0.233,0.343-0.315,0.553
									l-0.92-0.531c0.159-0.188,0.337-0.357,0.532-0.523c0.19-0.162,0.399-0.306,0.628-0.438c0.501-0.291,0.997-0.453,1.492-0.483
									c0.496-0.036,0.942,0.066,1.338,0.295c0.225,0.13,0.384,0.288,0.468,0.469c0.07,0.181,0.093,0.479,0.05,0.889
									L362.649,277.518 M366.334,275.376l1.834-1.065l0.791,0.457l-3.025,1.759l-0.792-0.457l0.169-1.666
									c0.012-0.148-0.008-0.276-0.06-0.38c-0.058-0.107-0.141-0.199-0.269-0.273c-0.198-0.114-0.427-0.166-0.669-0.158
									c-0.254,0.008-0.489,0.077-0.706,0.203c-0.164,0.096-0.316,0.221-0.436,0.38c-0.134,0.158-0.233,0.343-0.322,0.556
									l-0.92-0.53c0.158-0.188,0.343-0.361,0.532-0.523s0.405-0.31,0.628-0.438c0.501-0.291,0.996-0.453,1.492-0.483
									c0.496-0.037,0.949,0.062,1.345,0.291c0.224,0.13,0.377,0.292,0.461,0.472c0.07,0.182,0.099,0.477,0.05,0.89
									L366.334,275.376 M381.03,273.411l-13.932-8.044l-25.804,14.996l13.932,8.044L381.03,273.411"/>
								<path fill="#CFD0D2" d="M302.763,234.144l-16.332-9.43l-1.334-0.771l1.334,0.771L302.763,234.144 M324.094,246.46
									l-1.653-0.955l-15.489-8.942l15.489,8.942L324.094,246.46 M188.586,179.331l6.146-3.572l1.564,0.903l-1.535,0.892
									l1.539,0.888l-1.529,0.889l1.545,0.892l-1.529,0.889l1.539,0.889l-1.553,0.903l-3.103-1.792L188.586,179.331
									 M219.084,185.447l6.14-3.568l1.558,0.899l-1.529,0.888l1.539,0.889l-1.535,0.892l1.545,0.893l-1.529,0.888l1.539,0.888
									l-1.548,0.9l-3.103-1.792L219.084,185.447 M253.368,174.361l-29.178-16.847l-3.044,1.77l8.785,5.072l-0.799,0.465
									l1.315,0.759l-1.535,0.892l1.538,0.888l-1.528,0.888l1.545,0.893l-1.529,0.889l1.539,0.888l-1.554,0.903l-3.103-1.792
									l-2.834-1.637l-1.497,0.87l-8.785-5.073l-36.01,20.928l29.177,16.847l20.514-11.921l58.713,33.9l6.343-3.687l-58.713-33.9
									L253.368,174.361 M332.627,273.411l6.146-3.572l1.558,0.9l-1.528,0.888l1.545,0.893l-1.535,0.892l1.539,0.889l-1.529,0.889
									l1.539,0.888l-1.555,0.903l-3.097-1.788L332.627,273.411 M387.621,251.503l-12.124-7.001l-20.965,12.184l-24.096-13.912
									l-6.343,3.687l24.096,13.912l-20.514,11.922l12.124,7.001L387.621,251.503"/>
								<path fill="#FFFFFF" d="M239.483,217.772l-1.089-1.298l2.231,0.635L239.483,217.772 M243.782,217.064l-5.729-1.522
									l-1.275,0.741l2.641,3.317l1.085-0.63l-0.507-0.594l1.682-0.977l1.025,0.291L243.782,217.064"/>
								<path fill="#FFFFFF" d="M242.909,215.782l-0.583-1.696l1.756,1.014L242.909,215.782 M246.473,214.613l-0.779-0.45
									l-0.596,0.347l-2.643-1.526l-1.193,0.693l0.828,2.411l0.926,0.534l1.846-1.072l0.766,0.442l1.015-0.59l-0.766-0.442
									L246.473,214.613"/>
								<polyline fill="#FFFFFF" points="248.799,214.148 247.714,213.522 246.712,214.104 247.797,214.731 248.799,214.148
																	"/>
								<path fill="#FFFFFF" d="M248.342,211.981c-0.523-0.303-0.843-0.546-0.958-0.723c-0.116-0.185-0.059-0.343,0.169-0.476
									s0.501-0.166,0.82-0.1c0.306,0.066,0.727,0.25,1.25,0.553c0.53,0.306,0.85,0.549,0.965,0.734
									c0.122,0.18,0.066,0.338-0.163,0.471s-0.502,0.167-0.82,0.1C249.293,212.472,248.872,212.287,248.342,211.981
									 M250.701,210.617c-0.696-0.402-1.384-0.623-2.053-0.671c-0.674-0.044-1.285,0.096-1.83,0.413
									c-0.546,0.317-0.785,0.671-0.707,1.062s0.469,0.785,1.165,1.188c0.696,0.401,1.378,0.626,2.053,0.67
									c0.675,0.045,1.291-0.092,1.837-0.409c0.545-0.316,0.779-0.674,0.7-1.064C251.781,211.417,251.397,211.02,250.701,210.617"
									/>
								<path fill="#FFFFFF" d="M252.952,210.189c-0.242-0.14-0.383-0.272-0.409-0.398c-0.033-0.129,0.05-0.243,0.24-0.354
									c0.19-0.111,0.387-0.158,0.61-0.14c0.21,0.018,0.445,0.096,0.688,0.236c0.243,0.141,0.377,0.276,0.41,0.398
									c0.032,0.129-0.049,0.244-0.24,0.354c-0.19,0.11-0.387,0.158-0.61,0.14C253.424,210.411,253.195,210.33,252.952,210.189
									 M255.044,208.892c-0.408-0.236-0.867-0.347-1.376-0.339c-0.509,0.008-0.979,0.132-1.404,0.38
									c-0.171,0.1-0.298,0.203-0.399,0.313c-0.101,0.11-0.164,0.228-0.195,0.35c-0.319-0.221-0.486-0.435-0.487-0.641
									c0.005-0.21,0.164-0.406,0.48-0.59c0.152-0.088,0.33-0.162,0.52-0.229c0.198-0.07,0.426-0.129,0.687-0.184l-0.772-0.446
									c-0.242,0.066-0.464,0.144-0.673,0.236c-0.209,0.085-0.406,0.184-0.597,0.295c-0.609,0.354-0.887,0.745-0.833,1.172
									c0.047,0.431,0.419,0.844,1.108,1.242c0.677,0.391,1.346,0.608,2.008,0.646c0.668,0.04,1.272-0.096,1.812-0.41
									c0.488-0.284,0.741-0.593,0.765-0.917C255.71,209.445,255.491,209.15,255.044,208.892"/>
								<path fill="#FFFFFF" d="M263.023,231.283l-1.102-1.298l2.244,0.634L263.023,231.283 M267.315,230.571l-5.73-1.522
									l-1.282,0.745l2.647,3.313l1.078-0.626l-0.5-0.598l1.681-0.977l1.026,0.291L267.315,230.571"/>
								<path fill="#FFFFFF" d="M266.436,229.293l-0.576-1.699l1.756,1.014L266.436,229.293 M270,228.124l-0.779-0.45l-0.59,0.344
									l-2.643-1.526l-1.193,0.692l0.829,2.411l0.926,0.534l1.845-1.072l0.766,0.442l1.015-0.59l-0.766-0.442L270,228.124"/>
								<polyline fill="#FFFFFF" points="272.332,227.656 271.247,227.029 270.239,227.615 271.324,228.242 272.332,227.656
																	"/>
								<path fill="#FFFFFF" d="M271.875,225.488c-0.523-0.303-0.849-0.542-0.958-0.723c-0.121-0.181-0.065-0.339,0.169-0.476
									c0.229-0.133,0.503-0.166,0.814-0.096c0.312,0.062,0.727,0.251,1.25,0.553c0.53,0.306,0.855,0.546,0.972,0.729
									c0.122,0.181,0.065,0.34-0.163,0.473c-0.235,0.137-0.508,0.169-0.82,0.1C272.819,225.982,272.405,225.794,271.875,225.488
									 M274.234,224.124c-0.696-0.401-1.385-0.623-2.059-0.667c-0.675-0.044-1.278,0.092-1.824,0.409
									c-0.552,0.321-0.786,0.671-0.707,1.062c0.079,0.391,0.462,0.789,1.158,1.19c0.696,0.402,1.385,0.623,2.06,0.667
									c0.675,0.045,1.285-0.088,1.837-0.408c0.546-0.317,0.772-0.671,0.694-1.062C275.314,224.924,274.93,224.526,274.234,224.124
									"/>
								<path fill="#FFFFFF" d="M274.698,222.723c-0.166-0.096-0.25-0.194-0.244-0.302c0-0.103,0.088-0.206,0.26-0.306
									c0.165-0.096,0.343-0.147,0.521-0.147c0.179,0,0.357,0.044,0.523,0.14S276,222.307,276,222.41
									c0,0.103-0.088,0.206-0.253,0.302c-0.171,0.1-0.349,0.151-0.527,0.151C275.036,222.867,274.864,222.819,274.698,222.723
									 M276.441,223.833c-0.204-0.118-0.313-0.239-0.313-0.365c0-0.125,0.094-0.247,0.297-0.365
									c0.196-0.113,0.406-0.169,0.622-0.169c0.217,0,0.427,0.062,0.631,0.181c0.211,0.121,0.313,0.239,0.313,0.365
									c0.008,0.128-0.094,0.247-0.291,0.36c-0.203,0.118-0.406,0.178-0.629,0.174
									C276.855,224.014,276.652,223.955,276.441,223.833 M278.75,222.558c-0.268-0.155-0.561-0.243-0.886-0.262
									c-0.318-0.015-0.655,0.033-1.024,0.151c0.177-0.192,0.252-0.369,0.219-0.535c-0.026-0.17-0.161-0.32-0.397-0.457
									c-0.357-0.206-0.758-0.284-1.204-0.239c-0.445,0.044-0.921,0.217-1.422,0.509c-0.508,0.295-0.806,0.571-0.881,0.829
									c-0.075,0.259,0.061,0.49,0.418,0.696c0.236,0.137,0.497,0.214,0.784,0.232c0.293,0.015,0.598-0.029,0.929-0.133
									c-0.203,0.215-0.291,0.413-0.258,0.594c0.033,0.188,0.187,0.357,0.455,0.513c0.415,0.239,0.86,0.343,1.357,0.306
									c0.483-0.037,1.004-0.214,1.544-0.527c0.539-0.312,0.836-0.611,0.898-0.892C279.338,223.059,279.165,222.797,278.75,222.558
									"/>
								<path fill="#FFFFFF" d="M300.534,238.509l-1.095-1.294l2.237,0.63L300.534,238.509 M304.826,237.797l-5.73-1.522
									l-1.28,0.744l2.646,3.314l1.078-0.627l-0.493-0.593l1.675-0.974l1.026,0.284L304.826,237.797"/>
								<path fill="#FFFFFF" d="M303.947,236.518l-0.583-1.695l1.756,1.014L303.947,236.518 M307.517,235.353l-0.785-0.453
									l-0.596,0.347l-2.644-1.526l-0.729,0.424l-0.464,0.27l0.836,2.407l0.932,0.538l1.839-1.069l0.76,0.439l0.286-0.166
									l0.729-0.425l-0.76-0.438L307.517,235.353"/>
								<polyline fill="#FFFFFF" points="309.837,234.885 308.751,234.258 307.749,234.841 308.835,235.467 309.837,234.885
																	"/>
								<polyline fill="#FFFFFF" points="313.713,232.633 312.966,232.201 312.021,232.75 308.579,230.764 307.558,231.356
									306.799,232.035 307.533,232.459 308.299,231.777 311.006,233.34 310.061,233.89 310.808,234.321 313.713,232.633
									"/>
								<path fill="#FFFFFF" d="M313.989,230.926c-0.242-0.141-0.376-0.276-0.409-0.398c-0.026-0.125,0.05-0.243,0.24-0.354
									c0.19-0.111,0.394-0.155,0.609-0.141c0.217,0.016,0.446,0.097,0.689,0.236c0.248,0.144,0.383,0.272,0.416,0.401
									c0.025,0.126-0.056,0.24-0.246,0.351s-0.388,0.158-0.604,0.144C314.468,231.143,314.238,231.069,313.989,230.926
									 M316.083,229.628c-0.402-0.232-0.861-0.351-1.371-0.343c-0.515,0.011-0.984,0.137-1.41,0.384
									c-0.164,0.096-0.298,0.202-0.399,0.312c-0.094,0.107-0.157,0.226-0.188,0.347c-0.326-0.217-0.48-0.431-0.481-0.638
									c-0.001-0.206,0.157-0.401,0.48-0.59c0.146-0.085,0.318-0.162,0.515-0.232c0.19-0.066,0.419-0.125,0.68-0.181l-0.772-0.445
									c-0.235,0.069-0.457,0.147-0.667,0.232c-0.216,0.088-0.412,0.188-0.603,0.298c-0.603,0.351-0.881,0.741-0.834,1.173
									c0.054,0.428,0.419,0.844,1.107,1.242c0.678,0.391,1.354,0.604,2.009,0.645c0.669,0.041,1.272-0.096,1.812-0.409
									c0.495-0.287,0.747-0.59,0.765-0.918C316.748,230.181,316.536,229.89,316.083,229.628"/>
								<path fill="#FFFFFF" d="M167.851,176.706l0.476-0.276c0.171-0.1,0.343-0.147,0.508-0.155
									c0.178-0.007,0.338,0.033,0.491,0.122c0.146,0.084,0.217,0.177,0.205,0.28c-0.006,0.099-0.094,0.195-0.266,0.295
									l-0.476,0.276L167.851,176.706 M170.213,175.88c-0.352-0.203-0.74-0.295-1.154-0.269c-0.419,0.021-0.838,0.154-1.264,0.402
									l-1.434,0.833l3.358,1.939l0.863-0.501l-1.162-0.671l0.57-0.332c0.425-0.247,0.653-0.491,0.689-0.733
									C170.718,176.304,170.564,176.083,170.213,175.88"/>
								<polyline fill="#FFFFFF" points="172.432,173.318 171.487,173.867 171.933,174.999 169.971,174.749 169.026,175.298
									172.249,175.681 173.66,176.496 174.522,175.995 173.111,175.18 172.432,173.318 								"/>
								<path fill="#FFFFFF" d="M174.066,173.093l0.362-0.21c0.184-0.106,0.342-0.162,0.495-0.169
									c0.14-0.008,0.287,0.033,0.44,0.122c0.16,0.092,0.23,0.177,0.224,0.262c-0.019,0.084-0.113,0.177-0.297,0.284l-0.362,0.21
									L174.066,173.093 M178.758,173.379l-1.223-0.238c-0.286-0.055-0.529-0.084-0.714-0.088c-0.19,0-0.356,0.03-0.501,0.077
									c0.146-0.158,0.201-0.316,0.169-0.46c-0.04-0.14-0.167-0.28-0.391-0.409c-0.319-0.184-0.657-0.262-1.013-0.225
									c-0.35,0.033-0.75,0.177-1.188,0.432l-1.319,0.767l3.358,1.939l0.862-0.501l-1.271-0.734l0.248-0.144
									c0.14-0.081,0.279-0.125,0.432-0.14c0.14-0.015,0.337,0.003,0.592,0.055l1.236,0.243l0.806-0.468L178.758,173.379"/>
								<path fill="#FFFFFF" d="M178.903,172.021l-0.884-1.04l1.797,0.509L178.903,172.021 M182.343,171.449l-4.595-1.22
									l-1.028,0.597l2.038,2.553l0.083,0.104l0.862-0.501l-0.391-0.476l1.345-0.781l0.816,0.229L182.343,171.449"/>
								<polyline fill="#FFFFFF" points="186.27,169.167 182.911,167.229 181.82,167.862 182.854,169.348 180.292,168.75
									179.194,169.389 182.552,171.328 183.371,170.852 180.913,169.433 183.493,170.034 184.039,169.716 183,168.22
									185.458,169.639 186.27,169.167 								"/>
								<polyline fill="#FFFFFF" points="187.747,168.309 184.389,166.37 183.527,166.871 186.885,168.81 187.747,168.309
									"/>
								<path fill="#FFFFFF" d="M186.518,165.894l0.311-0.181c0.355-0.206,0.705-0.313,1.061-0.32
									c0.363-0.004,0.708,0.084,1.045,0.28c0.332,0.191,0.492,0.394,0.487,0.604c-0.011,0.206-0.195,0.417-0.543,0.619
									l-0.311,0.181L186.518,165.894 M189.824,165.157c-0.256-0.148-0.517-0.255-0.791-0.325c-0.274-0.07-0.561-0.103-0.873-0.1
									c-0.35,0.004-0.693,0.056-1.011,0.158c-0.317,0.104-0.73,0.299-1.238,0.594l-0.907,0.527l3.358,1.939l0.907-0.527
									c0.501-0.292,0.844-0.527,1.015-0.715c0.184-0.188,0.278-0.383,0.276-0.589c0.012-0.178-0.052-0.347-0.175-0.505
									C190.265,165.455,190.072,165.3,189.824,165.157"/>
								<path fill="#FFFFFF" d="M216.301,204.27l-1.089-1.298l2.231,0.634L216.301,204.27 M220.599,203.562l-5.737-1.526
									l-1.281,0.745l2.653,3.317l1.085-0.63l-0.506-0.594l1.681-0.977l1.026,0.291L220.599,203.562"/>
								<path fill="#FFFFFF" d="M219.72,202.274l-0.576-1.691l1.749,1.01L219.72,202.274 M223.289,201.11l-0.785-0.453l-0.596,0.346
									l-2.644-1.526l-1.193,0.693l0.835,2.415l0.926,0.535l1.845-1.073l0.767,0.442l1.015-0.59l-0.766-0.442L223.289,201.11"/>
								<polyline fill="#FFFFFF" points="225.616,200.646 224.524,200.015 223.522,200.598 224.614,201.228 225.616,200.646
																	"/>
								<path fill="#FFFFFF" d="M225.158,198.478c-0.523-0.302-0.843-0.546-0.958-0.723c-0.116-0.185-0.06-0.343,0.169-0.476
									s0.502-0.166,0.821-0.1c0.306,0.066,0.727,0.25,1.25,0.553c0.53,0.306,0.849,0.549,0.965,0.733
									c0.122,0.181,0.065,0.339-0.163,0.472s-0.502,0.166-0.82,0.1C226.109,198.968,225.688,198.784,225.158,198.478
									 M227.519,197.114c-0.696-0.402-1.385-0.623-2.054-0.671c-0.675-0.044-1.285,0.096-1.83,0.413
									c-0.545,0.317-0.785,0.671-0.707,1.062c0.079,0.391,0.469,0.785,1.165,1.187s1.378,0.627,2.053,0.671
									c0.675,0.044,1.286-0.096,1.831-0.413c0.546-0.317,0.786-0.671,0.707-1.062
									C228.598,197.914,228.214,197.516,227.519,197.114"/>
								<path fill="#FFFFFF" d="M233.076,196.31l-0.798-0.461l-1.834,1.066l0.103-0.97c0.049-0.413,0.028-0.704-0.049-0.889
									c-0.084-0.18-0.231-0.339-0.461-0.472c-0.396-0.229-0.842-0.324-1.345-0.291c-0.49,0.033-0.985,0.195-1.486,0.486
									c-0.223,0.129-0.438,0.277-0.634,0.435c-0.19,0.163-0.367,0.339-0.531,0.523l0.919,0.531
									c0.088-0.214,0.188-0.398,0.321-0.557c0.126-0.154,0.272-0.284,0.437-0.379c0.216-0.125,0.458-0.192,0.706-0.203
									c0.249-0.004,0.478,0.048,0.676,0.162c0.122,0.07,0.211,0.166,0.262,0.269c0.058,0.107,0.071,0.232,0.065,0.383
									l-0.175,1.663l0.798,0.461L233.076,196.31"/>
								<path fill="#FFFFFF" d="M228.119,211.166l-1.096-1.293l2.237,0.63L228.119,211.166 M232.417,210.459l-5.729-1.522
									l-1.282,0.745l2.647,3.314l1.079-0.627l-0.5-0.598l1.674-0.973l1.026,0.291L232.417,210.459"/>
								<path fill="#FFFFFF" d="M231.531,209.176l-0.576-1.692l1.75,1.01L231.531,209.176 M235.102,208.011l-0.785-0.453
									l-0.596,0.346l-2.637-1.522l-1.193,0.693l0.834,2.407l0.925,0.535l1.84-1.069l0.766,0.442l1.015-0.59l-0.766-0.442
									L235.102,208.011"/>
								<polyline fill="#FFFFFF" points="237.428,207.546 236.343,206.92 235.341,207.502 236.426,208.129 237.428,207.546
									"/>
								<path fill="#FFFFFF" d="M236.971,205.379c-0.524-0.302-0.843-0.546-0.953-0.726c-0.122-0.181-0.065-0.339,0.163-0.472
									c0.235-0.136,0.507-0.169,0.82-0.1c0.306,0.066,0.727,0.25,1.25,0.553c0.53,0.306,0.85,0.55,0.971,0.73
									c0.116,0.185,0.06,0.343-0.169,0.476s-0.502,0.166-0.814,0.096C237.922,205.869,237.5,205.685,236.971,205.379
									 M239.33,204.015c-0.696-0.401-1.378-0.626-2.053-0.671c-0.675-0.044-1.286,0.096-1.831,0.413
									c-0.546,0.317-0.785,0.671-0.707,1.062c0.085,0.387,0.469,0.785,1.165,1.187c0.696,0.402,1.384,0.623,2.053,0.671
									c0.675,0.044,1.285-0.096,1.83-0.413s0.786-0.671,0.707-1.062C240.417,204.812,240.026,204.417,239.33,204.015"/>
								<path fill="#FFFFFF" d="M240.786,203.797l-0.569-1.695l1.749,1.01L240.786,203.797 M244.356,202.632l-0.786-0.453
									l-0.59,0.343L240.344,201l-1.193,0.693l0.829,2.411l0.925,0.534l1.845-1.072l0.767,0.442l1.015-0.59l-0.766-0.442
									L244.356,202.632"/>
								<path id="A4.07" fill="#CFD0D2" d="M291.333,214.728l-2.237-0.631l1.096,1.294L291.333,214.728 M294.783,212.715l-1.756-1.014
									l0.576,1.699L294.783,212.715 M300.317,208.855c-0.523-0.302-0.938-0.49-1.251-0.553c-0.312-0.07-0.585-0.037-0.813,0.096
									c-0.235,0.136-0.291,0.295-0.169,0.476c0.109,0.181,0.435,0.42,0.958,0.723c0.53,0.306,0.951,0.498,1.27,0.564
									c0.312,0.07,0.586,0.037,0.821-0.1c0.228-0.133,0.277-0.288,0.162-0.472C301.18,209.404,300.848,209.161,300.317,208.855
									 M290.118,217.216l-2.646-3.313l1.281-0.745l5.729,1.522l-1.078,0.627l-1.026-0.292l-1.681,0.978l0.5,0.597L290.118,217.216
									 M292.791,213.703l-0.828-2.411l1.192-0.693l2.644,1.526l0.59-0.343l0.779,0.449l-0.59,0.343l0.766,0.443l-1.015,0.589
									l-0.766-0.442l-1.846,1.073L292.791,213.703 M297.406,211.724l1.009-0.587l1.085,0.627l-1.009,0.586L297.406,211.724
									 M297.97,210.226c-0.689-0.398-1.08-0.8-1.159-1.19s0.155-0.741,0.707-1.062c0.545-0.317,1.149-0.453,1.824-0.409
									c0.675,0.044,1.363,0.273,2.053,0.671c0.696,0.402,1.087,0.796,1.165,1.187s-0.148,0.745-0.694,1.062
									c-0.552,0.321-1.162,0.454-1.837,0.409C299.354,210.85,298.666,210.628,297.97,210.226 M299.676,206.809l3.134-1.821
									l0.606,0.35l1.958,3.012l-1.041,0.604l-1.861-2.854l-2.005,1.165L299.676,206.809 M312.404,208.074l-22.193-12.814
									l-4.174,2.426l-15.731,9.142l22.193,12.814L312.404,208.074"/>
								<path id="A4.03" fill="#CFD0D2" d="M256.549,194.644l-2.237-0.63l1.095,1.294L256.549,194.644 M260,192.631l-1.75-1.01l0.57,1.696
									L260,192.631 M265.541,188.775c-0.524-0.303-0.938-0.491-1.25-0.553c-0.312-0.07-0.586-0.037-0.814,0.096
									c-0.235,0.137-0.292,0.295-0.169,0.476c0.109,0.181,0.435,0.42,0.959,0.723c0.53,0.306,0.944,0.494,1.263,0.561
									c0.312,0.07,0.586,0.037,0.821-0.1c0.228-0.132,0.278-0.288,0.163-0.472C266.396,189.321,266.07,189.081,265.541,188.775
									 M255.341,197.136l-2.647-3.314l1.281-0.745l5.729,1.522l-1.078,0.627l-1.026-0.292l-1.681,0.977l0.5,0.597L255.341,197.136
									 M258.014,193.623l-0.828-2.411l1.192-0.693l2.637,1.522l0.59-0.343l0.785,0.453l-0.59,0.343l0.767,0.442l-1.015,0.59
									l-0.766-0.443l-1.846,1.073L258.014,193.623 M262.629,191.644l1.009-0.586l1.085,0.626l-1.008,0.586L262.629,191.644
									 M263.193,190.146c-0.696-0.402-1.08-0.8-1.159-1.19s0.155-0.741,0.707-1.062c0.545-0.317,1.149-0.453,1.824-0.409
									c0.675,0.044,1.357,0.269,2.053,0.671s1.086,0.796,1.165,1.187c0.079,0.391-0.155,0.741-0.701,1.058
									c-0.552,0.321-1.156,0.458-1.831,0.413C264.578,190.77,263.889,190.548,263.193,190.146 M269.104,186.52
									c0.349-0.122,0.693-0.174,1.018-0.155c0.331,0.022,0.631,0.114,0.905,0.273c0.415,0.239,0.576,0.516,0.482,0.822
									c-0.106,0.306-0.461,0.638-1.063,0.988c-0.216,0.125-0.444,0.243-0.698,0.347c-0.248,0.106-0.508,0.199-0.788,0.28
									l-0.836-0.483c0.299-0.055,0.579-0.129,0.826-0.214c0.248-0.084,0.47-0.184,0.66-0.295c0.286-0.166,0.45-0.32,0.506-0.464
									c0.05-0.147-0.014-0.273-0.199-0.379c-0.191-0.111-0.408-0.148-0.669-0.115c-0.248,0.034-0.527,0.137-0.832,0.313
									l-0.431,0.25l-0.696-0.401l0.457-0.266c0.267-0.155,0.431-0.295,0.475-0.424c0.044-0.122-0.015-0.236-0.193-0.339
									c-0.16-0.092-0.344-0.125-0.567-0.1c-0.216,0.022-0.438,0.1-0.673,0.236c-0.178,0.103-0.33,0.213-0.469,0.339
									c-0.133,0.129-0.247,0.262-0.348,0.409l-0.792-0.457c0.146-0.159,0.31-0.306,0.494-0.442
									c0.177-0.14,0.368-0.266,0.571-0.383c0.539-0.313,1.034-0.498,1.48-0.549c0.451-0.055,0.853,0.022,1.21,0.229
									c0.243,0.14,0.383,0.295,0.41,0.458C269.369,186.165,269.288,186.339,269.104,186.52 M276.87,187.931l-10.381-5.994
									l-19.582,11.38l10.381,5.994L276.87,187.931"/>
								<path id="A4.05" fill="#CFD0D2" d="M267.869,201.18l-2.237-0.63l1.096,1.293L267.869,201.18 M271.32,199.167l-1.756-1.014l0.576,1.7
									L271.32,199.167 M276.854,195.308c-0.523-0.302-0.938-0.49-1.25-0.553c-0.312-0.07-0.586-0.037-0.814,0.096
									c-0.235,0.136-0.292,0.295-0.169,0.476c0.109,0.181,0.435,0.42,0.958,0.722c0.53,0.306,0.951,0.498,1.263,0.561
									c0.319,0.074,0.586,0.037,0.821-0.1c0.228-0.133,0.285-0.284,0.163-0.472C277.716,195.857,277.384,195.613,276.854,195.308
									 M266.655,203.668l-2.647-3.314l1.281-0.745l5.73,1.523l-1.078,0.626l-1.026-0.291l-1.681,0.977l0.5,0.597L266.655,203.668
									 M269.327,200.155l-0.828-2.411l1.192-0.693l2.643,1.526l0.59-0.343l0.779,0.45l-0.59,0.343l0.766,0.442l-1.015,0.59
									l-0.767-0.442l-1.846,1.073L269.327,200.155 M273.942,198.176l1.009-0.586l1.085,0.627l-1.009,0.586L273.942,198.176
									 M274.507,196.679c-0.689-0.398-1.08-0.8-1.159-1.19s0.155-0.741,0.707-1.062c0.545-0.317,1.149-0.453,1.824-0.409
									c0.674,0.044,1.363,0.273,2.053,0.671c0.695,0.401,1.086,0.796,1.165,1.187c0.079,0.391-0.148,0.745-0.694,1.062
									c-0.552,0.321-1.163,0.454-1.837,0.409C275.891,197.302,275.203,197.081,274.507,196.679 M278.083,193.092l0.651,0.376
									c0.056-0.063,0.12-0.122,0.19-0.177c0.076-0.052,0.152-0.103,0.241-0.155c0.507-0.295,1.035-0.454,1.569-0.468
									c0.541-0.019,1.032,0.104,1.491,0.369c0.454,0.262,0.652,0.553,0.597,0.881c-0.043,0.328-0.34,0.648-0.892,0.969
									c-0.234,0.136-0.495,0.258-0.768,0.365c-0.279,0.11-0.578,0.203-0.902,0.28l-0.849-0.49c0.356-0.059,0.673-0.125,0.94-0.206
									s0.489-0.173,0.673-0.28c0.26-0.151,0.399-0.306,0.417-0.465c0.024-0.162-0.071-0.306-0.289-0.431
									c-0.223-0.129-0.472-0.184-0.751-0.169c-0.274,0.011-0.541,0.092-0.801,0.243c-0.158,0.092-0.304,0.199-0.431,0.324
									c-0.14,0.125-0.26,0.27-0.38,0.436l-2.356-1.36l2.67-1.552l0.792,0.458L278.083,193.092 M288.8,194.445l-10.196-5.887
									l-19.905,11.568l10.196,5.887L288.8,194.445"/>
								<path id="A4.01" fill="#CFD0D2" d="M244.578,187.732l-2.237-0.63l1.095,1.294L244.578,187.732 M248.035,185.723l-1.756-1.014
									l0.576,1.699L248.035,185.723 M253.569,181.863c-0.524-0.302-0.938-0.49-1.25-0.553c-0.312-0.07-0.586-0.037-0.814,0.096
									c-0.235,0.136-0.292,0.295-0.169,0.476c0.109,0.181,0.435,0.42,0.958,0.723c0.53,0.306,0.945,0.494,1.263,0.56
									c0.312,0.07,0.586,0.037,0.821-0.1c0.229-0.132,0.278-0.288,0.163-0.472C254.425,182.409,254.099,182.169,253.569,181.863
									 M243.37,190.224l-2.646-3.314l1.281-0.745l5.729,1.522l-1.078,0.626l-1.026-0.291L243.949,189l0.5,0.597L243.37,190.224
									 M246.042,186.711l-0.828-2.411l1.192-0.693l2.643,1.526l0.59-0.343l0.779,0.45l-0.59,0.343l0.766,0.442l-1.015,0.59
									l-0.766-0.442l-1.846,1.073L246.042,186.711 M250.658,184.731l1.009-0.586l1.085,0.626l-1.009,0.586L250.658,184.731
									 M251.222,183.234c-0.696-0.402-1.08-0.8-1.159-1.19c-0.079-0.391,0.155-0.741,0.707-1.062
									c0.545-0.317,1.149-0.453,1.824-0.409c0.675,0.044,1.357,0.269,2.053,0.671s1.086,0.796,1.165,1.187
									c0.079,0.391-0.155,0.741-0.7,1.058c-0.552,0.321-1.156,0.458-1.831,0.413C252.607,183.857,251.918,183.636,251.222,183.234
									 M253.386,179.78l0.772-0.678l1.015-0.59l3.441,1.986l0.952-0.553l0.747,0.432l-2.912,1.692l-0.747-0.432l0.952-0.553
									l-2.707-1.563l-0.779,0.682L253.386,179.78 M264.988,181.071l-10.381-5.994l-19.582,11.38l10.381,5.994L264.988,181.071"/>
								<path fill="#FFFFFF" d="M266.728,201.843l-1.096-1.293l2.237,0.63L266.728,201.843 M271.019,201.132l-5.73-1.523
									l-1.281,0.745l2.647,3.314l1.078-0.627l-0.5-0.597l1.681-0.977l1.026,0.291L271.019,201.132"/>
								<path fill="#FFFFFF" d="M270.14,199.853l-0.576-1.7l1.756,1.014L270.14,199.853 M273.704,198.685l-0.779-0.45l-0.59,0.343
									l-2.643-1.526l-1.192,0.693l0.828,2.411l0.926,0.535l1.846-1.073l0.767,0.442l1.015-0.59l-0.766-0.442L273.704,198.685"/>
								<polyline fill="#FFFFFF" points="276.037,198.216 274.951,197.589 273.942,198.176 275.028,198.803 276.037,198.216
																	"/>
								<path fill="#FFFFFF" d="M275.579,196.048c-0.523-0.302-0.849-0.542-0.958-0.722c-0.122-0.181-0.065-0.339,0.169-0.476
									c0.228-0.133,0.501-0.166,0.814-0.096c0.312,0.062,0.727,0.25,1.25,0.553c0.53,0.306,0.863,0.549,0.972,0.73
									c0.122,0.188,0.065,0.339-0.163,0.472c-0.235,0.136-0.502,0.173-0.821,0.1C276.53,196.546,276.108,196.354,275.579,196.048
									 M277.933,194.688c-0.69-0.398-1.379-0.627-2.053-0.671c-0.675-0.044-1.279,0.092-1.824,0.409
									c-0.552,0.321-0.786,0.671-0.707,1.062s0.469,0.792,1.159,1.19c0.696,0.402,1.384,0.623,2.06,0.667
									c0.674,0.044,1.285-0.088,1.837-0.409c0.545-0.317,0.772-0.671,0.694-1.062C279.019,195.484,278.628,195.09,277.933,194.688
									"/>
								<path fill="#FFFFFF" d="M282.225,193.037c-0.459-0.265-0.951-0.387-1.491-0.369c-0.535,0.015-1.062,0.173-1.569,0.468
									c-0.089,0.052-0.165,0.103-0.241,0.155c-0.07,0.056-0.134,0.114-0.19,0.177l-0.651-0.376l1.814-1.054l-0.792-0.458
									l-2.67,1.552l2.356,1.36c0.12-0.166,0.24-0.31,0.38-0.436c0.126-0.125,0.272-0.232,0.431-0.324
									c0.26-0.151,0.527-0.232,0.801-0.243c0.279-0.015,0.528,0.041,0.751,0.169c0.217,0.125,0.313,0.269,0.289,0.431
									c-0.018,0.159-0.157,0.313-0.417,0.465c-0.184,0.107-0.406,0.199-0.673,0.28s-0.584,0.147-0.94,0.206l0.849,0.49
									c0.324-0.077,0.623-0.169,0.902-0.28c0.273-0.107,0.534-0.229,0.768-0.365c0.552-0.321,0.849-0.641,0.892-0.969
									C282.877,193.59,282.679,193.298,282.225,193.037"/>
								<path fill="#FFFFFF" d="M290.191,215.391l-1.096-1.294l2.237,0.631L290.191,215.391 M294.482,214.68l-5.729-1.522
									l-1.281,0.745l2.646,3.313l1.079-0.627l-0.5-0.597l1.681-0.978l1.026,0.292L294.482,214.68"/>
								<path fill="#FFFFFF" d="M293.604,213.4l-0.576-1.699l1.756,1.014L293.604,213.4 M297.167,212.231l-0.779-0.449l-0.59,0.343
									l-2.644-1.526l-1.192,0.693l0.828,2.411l0.925,0.534l1.846-1.073l0.766,0.442l1.015-0.589l-0.766-0.443L297.167,212.231"/>
								<polyline fill="#FFFFFF" points="299.5,211.764 298.415,211.137 297.406,211.724 298.491,212.35 299.5,211.764 								"/>
								<path fill="#FFFFFF" d="M299.042,209.596c-0.523-0.302-0.85-0.542-0.958-0.723c-0.122-0.181-0.065-0.339,0.169-0.476
									c0.228-0.133,0.501-0.166,0.813-0.096c0.312,0.062,0.728,0.25,1.251,0.553c0.53,0.306,0.862,0.549,0.978,0.734
									c0.115,0.184,0.065,0.339-0.162,0.472c-0.235,0.136-0.509,0.17-0.821,0.1C299.993,210.094,299.572,209.902,299.042,209.596
									 M301.396,208.236c-0.689-0.398-1.378-0.627-2.053-0.671c-0.675-0.044-1.279,0.092-1.824,0.409
									c-0.552,0.321-0.786,0.671-0.707,1.062s0.47,0.792,1.159,1.19c0.696,0.402,1.384,0.624,2.059,0.667
									c0.675,0.044,1.285-0.088,1.837-0.409c0.546-0.317,0.772-0.671,0.694-1.062S302.092,208.638,301.396,208.236"/>
								<polyline fill="#FFFFFF" points="303.416,205.338 302.81,204.988 299.676,206.809 300.467,207.266 302.472,206.101
									304.333,208.955 305.374,208.35 303.416,205.338 								"/>
								<path fill="#FFFFFF" d="M243.436,188.396l-1.095-1.294l2.237,0.63L243.436,188.396 M247.734,187.688l-5.729-1.522
									l-1.281,0.745l2.646,3.314l1.079-0.627l-0.5-0.597l1.681-0.977l1.026,0.291L247.734,187.688"/>
								<path fill="#FFFFFF" d="M246.855,186.408l-0.576-1.699l1.756,1.014L246.855,186.408 M250.419,185.24l-0.779-0.45
									l-0.59,0.343l-2.643-1.526l-1.192,0.693l0.828,2.411l0.925,0.535l1.846-1.073l0.766,0.442l1.015-0.59l-0.766-0.442
									L250.419,185.24"/>
								<polyline fill="#FFFFFF" points="252.752,184.772 251.667,184.146 250.658,184.731 251.743,185.358 252.752,184.772
																	"/>
								<path fill="#FFFFFF" d="M252.294,182.604c-0.523-0.303-0.85-0.542-0.958-0.723c-0.122-0.181-0.065-0.339,0.169-0.476
									c0.228-0.133,0.501-0.166,0.814-0.096c0.312,0.063,0.727,0.251,1.25,0.553c0.53,0.306,0.856,0.545,0.971,0.729
									c0.116,0.185,0.066,0.34-0.163,0.472c-0.234,0.137-0.509,0.17-0.821,0.1C253.239,183.098,252.824,182.91,252.294,182.604
									 M254.647,181.244c-0.696-0.402-1.378-0.626-2.053-0.671c-0.675-0.044-1.279,0.092-1.824,0.409
									c-0.552,0.321-0.786,0.671-0.707,1.062c0.079,0.391,0.463,0.789,1.159,1.19s1.385,0.623,2.059,0.667
									c0.675,0.044,1.279-0.092,1.831-0.413c0.545-0.317,0.779-0.667,0.7-1.058C255.734,182.04,255.343,181.646,254.647,181.244"
									/>
								<polyline fill="#FFFFFF" points="260.313,180.378 259.566,179.946 258.614,180.499 255.173,178.513 254.158,179.103
									253.386,179.78 254.12,180.205 254.899,179.522 257.606,181.085 256.654,181.638 257.401,182.07 260.313,180.378
									"/>
								<path fill="#FFFFFF" d="M255.407,195.308l-1.095-1.294l2.237,0.63L255.407,195.308 M259.705,194.6l-5.729-1.522
									l-1.281,0.745l2.647,3.314l1.079-0.627l-0.5-0.597l1.681-0.977l1.026,0.292L259.705,194.6"/>
								<path fill="#FFFFFF" d="M258.82,193.317l-0.57-1.696l1.75,1.01L258.82,193.317 M262.39,192.152l-0.785-0.453l-0.59,0.343
									l-2.637-1.522l-1.192,0.693l0.828,2.411l0.925,0.534l1.846-1.073l0.766,0.443l1.015-0.59l-0.767-0.442L262.39,192.152"/>
								<polyline fill="#FFFFFF" points="264.723,191.684 263.638,191.057 262.629,191.644 263.714,192.27 264.723,191.684
									"/>
								<path fill="#FFFFFF" d="M264.266,189.516c-0.524-0.302-0.85-0.542-0.959-0.723c-0.122-0.18-0.065-0.339,0.169-0.476
									c0.228-0.132,0.501-0.166,0.814-0.096c0.312,0.062,0.727,0.25,1.25,0.553c0.53,0.306,0.856,0.545,0.971,0.729
									c0.115,0.185,0.065,0.34-0.163,0.472c-0.235,0.136-0.508,0.169-0.821,0.1C265.21,190.01,264.795,189.822,264.266,189.516
									 M266.619,188.156c-0.696-0.402-1.378-0.626-2.053-0.671c-0.675-0.044-1.279,0.092-1.824,0.409
									c-0.552,0.321-0.786,0.671-0.707,1.062s0.463,0.789,1.159,1.19s1.385,0.623,2.059,0.667
									c0.675,0.044,1.279-0.092,1.831-0.413c0.546-0.317,0.779-0.667,0.701-1.058
									C267.705,188.952,267.314,188.558,266.619,188.156"/>
								<path fill="#FFFFFF" d="M271.027,186.637c-0.274-0.159-0.574-0.25-0.905-0.273c-0.325-0.019-0.668,0.033-1.018,0.155
									c0.184-0.181,0.265-0.354,0.239-0.523c-0.026-0.163-0.167-0.317-0.41-0.458c-0.357-0.207-0.759-0.284-1.21-0.229
									c-0.446,0.052-0.941,0.236-1.48,0.549c-0.203,0.118-0.394,0.243-0.571,0.383c-0.184,0.136-0.348,0.284-0.494,0.442
									l0.792,0.457c0.101-0.147,0.215-0.28,0.348-0.409c0.139-0.125,0.292-0.236,0.469-0.339c0.234-0.137,0.457-0.214,0.673-0.236
									c0.223-0.026,0.407,0.007,0.567,0.1c0.179,0.104,0.237,0.217,0.193,0.339c-0.044,0.129-0.208,0.269-0.475,0.424
									l-0.457,0.266l0.696,0.401l0.431-0.25c0.305-0.177,0.584-0.28,0.832-0.313c0.261-0.033,0.478,0.004,0.669,0.115
									c0.185,0.106,0.25,0.232,0.199,0.379c-0.056,0.144-0.221,0.299-0.506,0.464c-0.19,0.111-0.413,0.21-0.66,0.295
									c-0.248,0.085-0.527,0.159-0.826,0.214l0.836,0.483c0.28-0.081,0.541-0.173,0.788-0.28c0.254-0.104,0.482-0.222,0.698-0.347
									c0.603-0.351,0.957-0.682,1.063-0.988C271.603,187.153,271.441,186.876,271.027,186.637"/>
								<path fill="#FFFFFF" d="M312.338,259.72l-1.089-1.298l2.23,0.635L312.338,259.72 M316.63,259.009l-5.73-1.522l-1.281,0.744
									l2.647,3.314l1.085-0.631l-0.5-0.59l1.681-0.977l1.02,0.287L316.63,259.009"/>
								<path fill="#FFFFFF" d="M315.758,257.726l-0.584-1.695l1.757,1.014L315.758,257.726 M319.326,256.561l-0.785-0.453
									l-0.596,0.347l-2.644-1.526l-1.192,0.693l0.835,2.414l0.926,0.534l1.845-1.072l0.76,0.438l1.016-0.59l-0.76-0.438
									L319.326,256.561"/>
								<polyline fill="#FFFFFF" points="321.646,256.093 320.562,255.466 319.559,256.049 320.645,256.676 321.646,256.093
																	"/>
								<polyline fill="#FFFFFF" points="325.522,253.841 324.775,253.409 323.831,253.959 320.389,251.972 319.368,252.564
									318.602,253.247 319.336,253.671 320.108,252.984 322.816,254.548 321.864,255.102 322.611,255.532 325.522,253.841
																	"/>
								<path fill="#FFFFFF" d="M324.013,251.16c-0.159-0.092-0.237-0.195-0.238-0.299c0.007-0.106,0.082-0.21,0.253-0.31
									c0.172-0.1,0.344-0.147,0.521-0.147c0.185-0.004,0.356,0.044,0.522,0.141c0.167,0.096,0.256,0.199,0.25,0.306
									c0.001,0.104-0.081,0.203-0.253,0.302c-0.171,0.1-0.343,0.147-0.527,0.151C324.362,251.304,324.179,251.256,324.013,251.16
									 M325.762,252.273c-0.204-0.118-0.312-0.239-0.313-0.365c-0.007-0.129,0.101-0.25,0.298-0.364
									c0.203-0.118,0.405-0.178,0.615-0.174c0.217,0,0.427,0.062,0.638,0.185c0.204,0.118,0.313,0.24,0.313,0.365
									c0.008,0.121-0.087,0.243-0.29,0.361c-0.197,0.114-0.413,0.173-0.63,0.173C326.177,252.454,325.967,252.392,325.762,252.273
									 M328.071,250.998c-0.274-0.158-0.567-0.247-0.886-0.262c-0.319-0.022-0.662,0.029-1.019,0.147
									c0.172-0.188,0.24-0.368,0.214-0.538c-0.032-0.166-0.167-0.317-0.403-0.453c-0.352-0.203-0.752-0.288-1.197-0.236
									c-0.445,0.044-0.922,0.21-1.429,0.505c-0.508,0.295-0.792,0.571-0.874,0.833c-0.075,0.258,0.06,0.49,0.411,0.693
									c0.236,0.136,0.504,0.21,0.79,0.229c0.287,0.019,0.599-0.022,0.929-0.126c-0.209,0.211-0.291,0.406-0.258,0.594
									c0.026,0.185,0.181,0.354,0.455,0.513c0.415,0.239,0.867,0.339,1.351,0.303c0.49-0.041,1.005-0.214,1.544-0.527
									s0.836-0.612,0.904-0.896C328.666,251.496,328.486,251.237,328.071,250.998"/>
								<path fill="#FFFFFF" d="M324.788,266.908l-1.089-1.297l2.23,0.634L324.788,266.908 M329.08,266.197l-5.73-1.522
									l-1.282,0.744l2.647,3.314l1.085-0.631l-0.5-0.59l1.681-0.977l1.021,0.287L329.08,266.197"/>
								<path fill="#FFFFFF" d="M328.207,264.914l-0.583-1.695l1.756,1.014L328.207,264.914 M331.776,263.749l-0.785-0.453
									l-0.596,0.347l-2.644-1.526l-1.193,0.693l0.836,2.414l0.925,0.534l1.846-1.072l0.76,0.438l1.016-0.59l-0.761-0.438
									L331.776,263.749"/>
								<polyline fill="#FFFFFF" points="334.097,263.281 333.011,262.654 332.009,263.237 333.095,263.863 334.097,263.281
																	"/>
								<polyline fill="#FFFFFF" points="337.973,261.029 337.226,260.598 336.28,261.146 332.839,259.16 331.818,259.753
									331.051,260.436 331.785,260.859 332.559,260.173 335.266,261.736 334.314,262.29 335.061,262.721 337.973,261.029
									"/>
								<path fill="#FFFFFF" d="M336.564,258.548c-0.242-0.14-0.377-0.27-0.403-0.395c-0.032-0.129,0.044-0.247,0.234-0.357
									c0.184-0.107,0.394-0.155,0.616-0.137c0.216,0.015,0.44,0.093,0.683,0.232c0.249,0.144,0.389,0.276,0.416,0.402
									c0.026,0.125-0.056,0.246-0.24,0.354c-0.19,0.11-0.394,0.155-0.61,0.141C337.043,258.772,336.813,258.691,336.564,258.548
									 M339.545,257.63c-0.671-0.387-1.347-0.601-2.008-0.638c-0.669-0.041-1.273,0.096-1.812,0.409
									c-0.488,0.284-0.747,0.59-0.765,0.918c-0.018,0.32,0.2,0.615,0.647,0.874c0.408,0.235,0.868,0.354,1.377,0.347
									c0.516-0.012,0.985-0.137,1.411-0.384c0.164-0.096,0.291-0.199,0.392-0.31c0.095-0.114,0.158-0.232,0.195-0.357
									c0.32,0.221,0.474,0.435,0.475,0.642c0.001,0.206-0.156,0.401-0.479,0.589c-0.152,0.089-0.324,0.166-0.521,0.236
									c-0.197,0.062-0.42,0.125-0.674,0.177l0.779,0.449c0.228-0.065,0.45-0.144,0.653-0.232c0.21-0.084,0.407-0.184,0.603-0.298
									c0.609-0.354,0.887-0.744,0.834-1.172C340.605,258.448,340.24,258.031,339.545,257.63"/>
								<path fill="#FFFFFF" d="M339.563,243.898l-1.097-1.295l2.238,0.631L339.563,243.898 M343.854,243.187l-5.729-1.522
									l-1.281,0.744l2.646,3.314l1.079-0.627l-0.494-0.594l1.681-0.977l1.021,0.288L343.854,243.187"/>
								<path fill="#FFFFFF" d="M342.976,241.907l-0.576-1.699l1.756,1.014L342.976,241.907 M346.545,240.742l-0.785-0.453
									l-0.59,0.343l-2.644-1.526l-1.192,0.693l0.835,2.415l0.926,0.534l1.846-1.073l0.76,0.439l1.015-0.59l-0.76-0.439
									L346.545,240.742"/>
								<polyline fill="#FFFFFF" points="348.872,240.271 347.786,239.644 346.777,240.23 347.863,240.856 348.872,240.271
									"/>
								<polyline fill="#FFFFFF" points="352.748,238.019 352.001,237.587 351.05,238.14 347.607,236.152 346.587,236.746
									345.827,237.425 346.561,237.849 347.327,237.167 350.034,238.729 349.09,239.279 349.836,239.71 352.748,238.019
									"/>
								<polyline fill="#FFFFFF" points="352.788,233.846 352.182,233.495 349.048,235.316 349.84,235.773 351.844,234.608
									353.705,237.462 354.746,236.857 352.788,233.846 								"/>
								<path fill="#FFFFFF" d="M352.013,251.086l-1.095-1.293l2.236,0.63L352.013,251.086 M356.305,250.375l-5.73-1.522
									l-1.281,0.744l2.647,3.314l1.078-0.627l-0.493-0.594l1.681-0.977l1.021,0.288L356.305,250.375"/>
								<path fill="#FFFFFF" d="M355.426,249.096l-0.576-1.699l1.756,1.014L355.426,249.096 M358.995,247.931l-0.785-0.453
									l-0.59,0.343l-2.644-1.526l-1.192,0.693l0.835,2.415l0.925,0.534l1.847-1.073l0.76,0.439l1.015-0.59l-0.76-0.439
									L358.995,247.931"/>
								<polyline fill="#FFFFFF" points="361.322,247.459 360.236,246.832 359.228,247.418 360.313,248.045 361.322,247.459
																	"/>
								<polyline fill="#FFFFFF" points="365.197,245.207 364.451,244.775 363.499,245.328 360.058,243.341 359.036,243.935
									358.276,244.613 359.011,245.037 359.777,244.355 362.484,245.918 361.539,246.468 362.286,246.898 365.197,245.207
																	"/>
								<polyline fill="#FFFFFF" points="365.238,241.033 364.631,240.684 361.497,242.505 362.296,242.965 364.3,241.801
									366.155,244.65 367.195,244.046 365.238,241.033 								"/>
								<path fill="#FFFFFF" d="M352.19,282.73l-1.089-1.298l2.23,0.634L352.19,282.73 M356.482,282.019l-5.73-1.522l-1.281,0.745
									l2.647,3.314l1.085-0.631l-0.5-0.59l1.681-0.977l1.02,0.287L356.482,282.019"/>
								<path fill="#FFFFFF" d="M355.609,280.736l-0.583-1.696l1.757,1.015L355.609,280.736 M359.179,279.571l-0.785-0.453
									l-0.596,0.347l-2.644-1.526l-1.192,0.692l0.835,2.415l0.926,0.534l1.845-1.072l0.76,0.438l1.016-0.59l-0.76-0.438
									L359.179,279.571"/>
								<polyline fill="#FFFFFF" points="361.499,279.104 360.414,278.477 359.411,279.059 360.497,279.686 361.499,279.104
																	"/>
								<path fill="#FFFFFF" d="M365.273,276.91l-0.792-0.458l-1.832,1.065l0.103-0.969c0.043-0.409,0.021-0.708-0.05-0.889
									c-0.084-0.181-0.243-0.339-0.468-0.469c-0.396-0.229-0.842-0.331-1.338-0.295c-0.495,0.03-0.991,0.192-1.492,0.483
									c-0.229,0.133-0.438,0.276-0.628,0.438c-0.195,0.166-0.373,0.335-0.532,0.523l0.92,0.531
									c0.082-0.21,0.188-0.398,0.315-0.553c0.126-0.163,0.278-0.288,0.443-0.384c0.216-0.125,0.45-0.195,0.698-0.199
									c0.249-0.011,0.472,0.044,0.67,0.159c0.127,0.073,0.217,0.162,0.274,0.269c0.052,0.103,0.071,0.232,0.054,0.384
									l-0.163,1.662l0.792,0.457L365.273,276.91"/>
								<path fill="#FFFFFF" d="M368.959,274.768l-0.791-0.457l-1.834,1.065l0.104-0.969c0.049-0.413,0.021-0.708-0.05-0.89
									c-0.084-0.18-0.237-0.342-0.461-0.472c-0.396-0.229-0.849-0.328-1.345-0.291c-0.496,0.03-0.991,0.192-1.492,0.483
									c-0.223,0.129-0.438,0.276-0.628,0.438s-0.374,0.335-0.532,0.523l0.92,0.53c0.089-0.213,0.188-0.397,0.322-0.556
									c0.119-0.159,0.271-0.284,0.436-0.38c0.217-0.126,0.452-0.195,0.706-0.203c0.242-0.008,0.471,0.044,0.669,0.158
									c0.128,0.074,0.211,0.166,0.269,0.273c0.052,0.104,0.071,0.231,0.06,0.38l-0.169,1.666l0.792,0.457L368.959,274.768"/>
								<path fill="#FFFFFF" d="M379.416,266.908l-1.096-1.294l2.237,0.631L379.416,266.908 M383.707,266.197l-5.73-1.522
									l-1.281,0.744l2.647,3.314l1.079-0.627l-0.494-0.594l1.681-0.977l1.021,0.287L383.707,266.197"/>
								<path fill="#FFFFFF" d="M382.828,264.918l-0.576-1.699l1.756,1.014L382.828,264.918 M386.397,263.753l-0.784-0.453
									l-0.59,0.343l-2.645-1.526l-1.192,0.692l0.835,2.415l0.926,0.534l1.846-1.072l0.76,0.438l1.015-0.59l-0.76-0.438
									L386.397,263.753"/>
								<polyline fill="#FFFFFF" points="388.725,263.281 387.639,262.654 386.63,263.24 387.716,263.867 388.725,263.281
									"/>
								<path fill="#FFFFFF" d="M392.492,261.091l-0.791-0.457l-1.827,1.062l0.103-0.97c0.043-0.409,0.021-0.708-0.056-0.885
									c-0.078-0.185-0.237-0.343-0.461-0.473c-0.396-0.228-0.849-0.327-1.338-0.294c-0.502,0.033-0.998,0.195-1.493,0.482
									c-0.229,0.133-0.444,0.28-0.634,0.442c-0.189,0.163-0.374,0.336-0.532,0.523l0.92,0.531
									c0.088-0.214,0.195-0.402,0.322-0.557c0.119-0.159,0.271-0.284,0.442-0.384c0.216-0.125,0.444-0.191,0.699-0.199
									c0.248-0.011,0.471,0.044,0.669,0.159c0.128,0.073,0.217,0.162,0.275,0.269c0.045,0.107,0.064,0.236,0.053,0.384
									l-0.162,1.662l0.791,0.457L392.492,261.091"/>
								<path fill="#FFFFFF" d="M395.035,258.238c-0.281-0.162-0.581-0.254-0.905-0.272c-0.325-0.019-0.669,0.032-1.024,0.151
									c0.184-0.182,0.266-0.354,0.246-0.521c-0.033-0.166-0.168-0.316-0.417-0.461c-0.357-0.206-0.759-0.284-1.21-0.229
									c-0.445,0.052-0.94,0.236-1.479,0.55c-0.203,0.117-0.388,0.246-0.571,0.383c-0.178,0.14-0.342,0.287-0.494,0.442
									l0.792,0.457c0.101-0.147,0.215-0.28,0.354-0.405s0.291-0.236,0.469-0.339c0.234-0.137,0.457-0.214,0.667-0.24
									c0.223-0.025,0.414,0.012,0.573,0.104c0.173,0.1,0.23,0.214,0.193,0.339c-0.051,0.126-0.209,0.27-0.476,0.424l-0.457,0.266
									l0.696,0.402l0.432-0.251c0.305-0.177,0.578-0.283,0.832-0.313c0.254-0.037,0.477,0.004,0.669,0.114
									c0.179,0.104,0.249,0.232,0.192,0.376c-0.05,0.147-0.215,0.303-0.5,0.469c-0.19,0.11-0.412,0.21-0.66,0.294
									c-0.254,0.082-0.527,0.159-0.826,0.215l0.83,0.479c0.279-0.081,0.54-0.173,0.794-0.276c0.247-0.106,0.482-0.221,0.698-0.347
									c0.603-0.35,0.957-0.682,1.058-0.991C395.604,258.751,395.45,258.478,395.035,258.238"/>
								<path fill="#CFD0D2" d="M217.154,162.41l-0.524-0.302c-0.21-0.122-0.402-0.195-0.574-0.214
									c-0.178-0.022-0.337,0.011-0.476,0.092c-0.121,0.07-0.178,0.155-0.165,0.243c0.007,0.092,0.097,0.181,0.25,0.269
									c0.186,0.107,0.408,0.163,0.675,0.155c0.261-0.004,0.497-0.059,0.7-0.177L217.154,162.41 M207.114,156.128l-0.632-0.365
									l-1.091,0.634l0.632,0.365c0.217,0.125,0.428,0.195,0.631,0.203c0.198,0.011,0.395-0.037,0.579-0.144
									c0.178-0.104,0.253-0.214,0.24-0.332C207.453,156.375,207.338,156.257,207.114,156.128 M213.308,159.704l-0.639-0.369
									l-1.091,0.634l0.639,0.369c0.217,0.125,0.421,0.192,0.625,0.199c0.204,0.015,0.395-0.037,0.578-0.144
									c0.178-0.103,0.26-0.21,0.247-0.328C213.646,159.951,213.525,159.83,213.308,159.704 M208.694,155.174l-0.6-0.347
									l-0.882,0.512l0.601,0.347c0.166,0.096,0.332,0.147,0.497,0.155c0.16,0.011,0.318-0.029,0.458-0.11
									c0.146-0.085,0.209-0.173,0.196-0.269C208.949,155.365,208.86,155.27,208.694,155.174 M214.881,158.746l-0.601-0.347
									l-0.881,0.512l0.6,0.347c0.172,0.099,0.338,0.151,0.503,0.159c0.153,0.007,0.312-0.033,0.451-0.114
									c0.146-0.085,0.209-0.173,0.202-0.266C215.143,158.941,215.053,158.845,214.881,158.746 M208.695,157.717l0.812-0.472
									l1.762,1.018l-0.812,0.472L208.695,157.717 M219.527,164.625c0.211,0.122,0.459,0.17,0.739,0.147
									c0.274-0.026,0.56-0.118,0.845-0.284l1.541-0.896l1.002,0.579l-3.121,1.813l-1.002-0.579l0.451-0.262
									c-0.337,0.019-0.63,0.003-0.885-0.048c-0.255-0.044-0.484-0.125-0.689-0.243c-0.364-0.21-0.524-0.435-0.494-0.675
									c0.024-0.236,0.252-0.479,0.677-0.727l1.902-1.105l1.016,0.586l-0.311,0.181c-0.171,0.1-0.387,0.218-0.646,0.369
									c-0.254,0.147-0.425,0.247-0.508,0.295c-0.253,0.147-0.425,0.254-0.526,0.328c-0.095,0.07-0.159,0.129-0.177,0.177
									c-0.019,0.063-0.018,0.122,0.021,0.181C219.387,164.522,219.444,164.578,219.527,164.625 M216.133,160.807l0.761-0.442
									c0.268,0.096,0.523,0.199,0.772,0.306c0.242,0.11,0.472,0.228,0.689,0.354c0.568,0.328,0.863,0.63,0.89,0.903
									c0.033,0.276-0.207,0.557-0.702,0.844l-1.782,1.036l-1.009-0.583l0.463-0.269c-0.331,0.029-0.617,0.025-0.872-0.026
									c-0.255-0.044-0.503-0.137-0.747-0.277c-0.325-0.188-0.492-0.395-0.506-0.623s0.125-0.427,0.429-0.604
									c0.361-0.21,0.762-0.295,1.189-0.247c0.426,0.048,0.905,0.229,1.447,0.542l0.594,0.343l0.076-0.044
									c0.159-0.092,0.209-0.196,0.158-0.313c-0.052-0.118-0.212-0.247-0.48-0.402c-0.21-0.122-0.434-0.229-0.664-0.31
									C216.611,160.914,216.375,160.851,216.133,160.807 M203.583,156.198l4.161-2.418l1.622,0.937
									c0.581,0.335,0.914,0.63,1.004,0.881c0.084,0.254-0.067,0.49-0.455,0.715c-0.196,0.114-0.418,0.191-0.654,0.217
									c-0.242,0.03-0.484,0.007-0.732-0.056c0.167,0.17,0.218,0.347,0.168,0.524c-0.056,0.181-0.214,0.347-0.475,0.498
									c-0.399,0.232-0.845,0.328-1.309,0.288c-0.472-0.044-0.981-0.229-1.537-0.549L203.583,156.198 M209.77,159.771l4.161-2.418
									l1.622,0.937c0.581,0.335,0.914,0.63,1.004,0.881c0.084,0.254-0.061,0.494-0.448,0.719
									c-0.197,0.114-0.425,0.188-0.661,0.214c-0.242,0.029-0.484,0.007-0.732-0.056c0.166,0.17,0.225,0.351,0.168,0.524
									c-0.056,0.181-0.214,0.346-0.475,0.498c-0.399,0.232-0.838,0.332-1.309,0.288c-0.472-0.044-0.981-0.229-1.537-0.549
									L209.77,159.771 M213.06,150.713l-14.138,0.626l-1.042,8.195l3.368-1.958l11.454,6.613l8.785,5.073l1.497-0.87l-0.243-0.14
									l6.146-3.572l0.242,0.14l0.799-0.465l-8.785-5.072l-11.454-6.613L213.06,150.713"/>
								<path fill="#FFFFFF" d="M205.392,156.397l1.091-0.634l0.632,0.365c0.224,0.129,0.339,0.247,0.358,0.361
									c0.014,0.118-0.062,0.229-0.24,0.332c-0.184,0.107-0.381,0.155-0.579,0.144c-0.203-0.007-0.414-0.078-0.631-0.203
									L205.392,156.397 M207.212,155.339l0.882-0.512l0.6,0.347c0.166,0.096,0.255,0.191,0.269,0.288
									c0.013,0.096-0.05,0.184-0.196,0.269c-0.139,0.081-0.298,0.122-0.458,0.11c-0.165-0.007-0.331-0.059-0.497-0.155
									L207.212,155.339 M209.366,154.717l-1.622-0.937l-4.161,2.418l1.794,1.036c0.556,0.321,1.065,0.505,1.537,0.549
									c0.464,0.041,0.91-0.055,1.309-0.288c0.26-0.151,0.418-0.317,0.475-0.498c0.05-0.177-0.002-0.354-0.168-0.524
									c0.248,0.063,0.49,0.085,0.732,0.056c0.236-0.026,0.458-0.103,0.654-0.217c0.387-0.225,0.539-0.461,0.455-0.715
									C210.279,155.347,209.947,155.052,209.366,154.717"/>
								<polyline fill="#FFFFFF" points="211.27,158.263 209.507,157.246 208.695,157.717 210.458,158.735 211.27,158.263
									"/>
								<path fill="#FFFFFF" d="M211.578,159.97l1.091-0.634l0.639,0.369c0.217,0.125,0.339,0.247,0.358,0.361
									c0.013,0.118-0.069,0.225-0.247,0.328c-0.184,0.107-0.375,0.159-0.578,0.144c-0.204-0.007-0.408-0.074-0.625-0.199
									L211.578,159.97 M213.399,158.912l0.881-0.512l0.601,0.347c0.172,0.099,0.262,0.195,0.275,0.291
									c0.007,0.092-0.056,0.181-0.202,0.266c-0.139,0.081-0.298,0.122-0.451,0.114c-0.166-0.008-0.331-0.06-0.503-0.159
									L213.399,158.912 M215.553,158.289l-1.622-0.937l-4.161,2.418l1.794,1.036c0.556,0.321,1.065,0.505,1.537,0.549
									c0.471,0.044,0.91-0.056,1.309-0.288c0.26-0.151,0.418-0.317,0.475-0.498c0.057-0.173-0.002-0.354-0.168-0.524
									c0.248,0.063,0.49,0.085,0.732,0.056c0.235-0.026,0.464-0.1,0.661-0.214c0.387-0.225,0.532-0.465,0.448-0.719
									C216.466,158.919,216.133,158.624,215.553,158.289"/>
								<path fill="#FFFFFF" d="M215.665,162.499c-0.153-0.088-0.243-0.177-0.25-0.269c-0.013-0.088,0.044-0.173,0.165-0.243
									c0.139-0.081,0.298-0.114,0.476-0.092c0.172,0.019,0.363,0.092,0.574,0.214l0.524,0.302l-0.114,0.066
									c-0.203,0.118-0.438,0.173-0.7,0.177C216.073,162.661,215.851,162.605,215.665,162.499 M218.355,161.024
									c-0.217-0.125-0.447-0.243-0.689-0.354c-0.249-0.107-0.504-0.21-0.772-0.306l-0.761,0.442
									c0.242,0.044,0.478,0.107,0.708,0.188c0.23,0.081,0.453,0.188,0.664,0.31c0.268,0.155,0.428,0.284,0.48,0.402
									c0.051,0.118,0.001,0.221-0.158,0.313l-0.076,0.044l-0.594-0.343c-0.542-0.313-1.021-0.494-1.447-0.542
									c-0.427-0.048-0.828,0.037-1.189,0.247c-0.304,0.177-0.443,0.376-0.429,0.604s0.181,0.435,0.506,0.623
									c0.243,0.14,0.491,0.232,0.747,0.277c0.254,0.051,0.541,0.055,0.872,0.026l-0.463,0.269l1.009,0.583l1.782-1.036
									c0.495-0.288,0.735-0.568,0.702-0.844C219.218,161.654,218.924,161.352,218.355,161.024"/>
								<path fill="#FFFFFF" d="M223.655,164.172l-1.002-0.579l-1.541,0.896c-0.285,0.166-0.571,0.258-0.845,0.284
									c-0.28,0.022-0.528-0.026-0.739-0.147c-0.083-0.048-0.141-0.103-0.166-0.162c-0.039-0.059-0.04-0.118-0.021-0.181
									c0.019-0.048,0.083-0.107,0.177-0.177c0.102-0.074,0.273-0.181,0.526-0.328c0.083-0.048,0.253-0.147,0.508-0.295
									c0.26-0.151,0.476-0.269,0.646-0.369l0.311-0.181l-1.016-0.586l-1.902,1.105c-0.425,0.247-0.653,0.491-0.677,0.727
									c-0.03,0.24,0.13,0.464,0.494,0.675c0.205,0.118,0.434,0.199,0.689,0.243c0.255,0.051,0.548,0.066,0.885,0.048l-0.451,0.262
									l1.002,0.579L223.655,164.172"/>
								<polyline fill="#FFFFFF" points="340.331,270.739 338.773,269.839 332.627,273.411 335.71,275.191 338.807,276.979
									340.361,276.076 338.822,275.188 340.352,274.3 338.812,273.411 340.348,272.52 338.803,271.627 340.331,270.739
									"/>
								<polyline fill="#FFFFFF" points="230.447,165.581 229.131,164.821 228.889,164.681 222.743,168.253 222.985,168.393
									225.82,170.03 228.923,171.821 230.477,170.918 228.938,170.03 230.467,169.142 228.922,168.249 230.45,167.361
									228.912,166.473 230.447,165.581 								"/>
								<polyline fill="#FFFFFF" points="196.297,176.662 194.732,175.758 188.586,179.331 191.67,181.111 194.773,182.903
									196.326,182 194.788,181.111 196.317,180.223 194.772,179.331 196.301,178.442 194.762,177.554 196.297,176.662 								"/>
								<polyline fill="#FFFFFF" points="226.782,182.778 225.224,181.878 219.084,185.447 222.161,187.224 225.264,189.015
									226.812,188.115 225.273,187.227 226.802,186.339 225.257,185.446 226.792,184.555 225.253,183.666 226.782,182.778
																	"/>
							</g>
						</g>
					</g>
				</g>
			</g>
		</g>
	</g>
</g>
</svg>
