<?xml version="1.0" encoding="utf-8"?>
<!-- Generator: Adobe Illustrator 16.0.0, SVG Export Plug-In . SVG Version: 6.00 Build 0)  -->
<!DOCTYPE svg PUBLIC "-//W3C//DTD SVG 1.1//EN" "http://www.w3.org/Graphics/SVG/1.1/DTD/svg11.dtd">
<svg version="1.1" id="Ebene_1" xmlns="http://www.w3.org/2000/svg" xmlns:xlink="http://www.w3.org/1999/xlink" x="0px" y="0px"
	 width="595.275px" height="419.527px" viewBox="0 0 595.275 419.527" enable-background="new 0 0 595.275 419.527"
	 xml:space="preserve">
<path id="E1.02" fill="#BED5E5" d="M238.392,246.259l-42.552-24.796l-75.053,44.439l42.554,24.796L238.392,246.259"/>
<polygon fill="#FFFFFF" points="319.666,-239.695 314.809,-239.695 314.809,-242.141 317.223,-242.141 317.223,-244.553
	319.637,-244.553 319.637,-246.967 322.051,-246.967 322.051,-249.381 324.494,-249.381 324.494,-239.695 "/>
<g>
	<path fill="#FFFFFF" d="M348.959-247.213c-0.002-0.365-0.035-0.702-0.117-1.02c-0.066-0.246-0.162-0.48-0.309-0.694
		c-0.217-0.322-0.555-0.576-0.938-0.719c-0.387-0.146-0.809-0.2-1.287-0.201c-0.424,0-0.805,0.044-1.158,0.153
		c-0.268,0.083-0.514,0.205-0.725,0.372c-0.318,0.25-0.541,0.588-0.664,0.953c-0.121,0.355-0.166,0.738-0.17,1.158l-0.812,6.458
		h1.715v2.822h1.385v-2.822h0.859v2.822h1.387v-2.822h1.723L348.959-247.213z M344.426-251.066v0.609V-251.066z M348.191-251.066
		v0.609V-251.066z M344.426-249.764c0.408,0,0.738-0.311,0.738-0.693c0-0.122-0.035-0.239-0.096-0.339
		c0.357,0.221,0.781,0.349,1.24,0.349c0.457,0,0.883-0.128,1.238-0.348c-0.059,0.1-0.094,0.216-0.094,0.338
		c0,0.383,0.33,0.693,0.738,0.693c0.406,0,0.738-0.311,0.738-0.693c0-0.384-0.332-0.692-0.738-0.692
		c-0.086,0-0.166,0.014-0.244,0.04c0.383-0.38,0.619-0.893,0.619-1.456c-0.004-1.172-1.012-2.119-2.258-2.119
		s-2.254,0.947-2.254,2.119c0,0.563,0.234,1.076,0.617,1.457c-0.076-0.026-0.16-0.041-0.246-0.041c-0.404,0-0.734,0.309-0.734,0.692
		C343.691-250.074,344.021-249.764,344.426-249.764"/>
	<g>
		<path fill="#FFFFFF" d="M338.412-250.445c1.246,0,2.254-0.95,2.254-2.12c0-1.171-1.008-2.119-2.254-2.119
			s-2.254,0.948-2.254,2.119C336.158-251.396,337.166-250.445,338.412-250.445 M338.412-249.723
			c-1.867,0.001-3.375,1.42-3.375,3.173v3.32h1.559v5.301h1.387v-5.301h0.859v5.301h1.385v-5.301h1.562v-3.32
			C341.789-248.303,340.279-249.722,338.412-249.723"/>
	</g>
</g>
<polygon fill="#FFFFFF" points="247.666,-23.695 242.809,-23.695 242.809,-26.141 245.223,-26.141 245.223,-28.553 247.637,-28.553
	247.637,-30.967 250.051,-30.967 250.051,-33.381 252.494,-33.381 252.494,-23.695 "/>
<g>
	<path fill="#FFFFFF" d="M276.959-31.213c-0.002-0.365-0.035-0.702-0.117-1.02c-0.066-0.246-0.162-0.48-0.309-0.694
		c-0.217-0.322-0.555-0.576-0.938-0.719c-0.387-0.146-0.809-0.2-1.287-0.201c-0.424,0-0.805,0.044-1.158,0.153
		c-0.268,0.083-0.514,0.205-0.725,0.372c-0.318,0.25-0.541,0.588-0.664,0.953c-0.121,0.355-0.166,0.738-0.17,1.158l-0.812,6.458
		h1.715v2.822h1.385v-2.822h0.859v2.822h1.387v-2.822h1.723L276.959-31.213z M272.426-35.066v0.609V-35.066z M276.191-35.066v0.609
		V-35.066z M272.426-33.764c0.408,0,0.738-0.311,0.738-0.693c0-0.122-0.035-0.239-0.096-0.339c0.357,0.221,0.781,0.349,1.24,0.349
		c0.457,0,0.883-0.128,1.238-0.348c-0.059,0.1-0.094,0.216-0.094,0.338c0,0.383,0.33,0.693,0.738,0.693
		c0.406,0,0.738-0.311,0.738-0.693c0-0.384-0.332-0.692-0.738-0.692c-0.086,0-0.166,0.014-0.244,0.04
		c0.383-0.38,0.619-0.893,0.619-1.456c-0.004-1.172-1.012-2.119-2.258-2.119s-2.254,0.947-2.254,2.119
		c0,0.563,0.234,1.076,0.617,1.457c-0.076-0.026-0.16-0.041-0.246-0.041c-0.404,0-0.734,0.309-0.734,0.692
		C271.691-34.074,272.021-33.764,272.426-33.764"/>
	<g>
		<path fill="#FFFFFF" d="M266.412-34.445c1.246,0,2.254-0.95,2.254-2.12c0-1.171-1.008-2.119-2.254-2.119s-2.254,0.948-2.254,2.119
			C264.158-35.396,265.166-34.445,266.412-34.445 M266.412-33.723c-1.867,0.001-3.375,1.42-3.375,3.173v3.32h1.559v5.301h1.387
			v-5.301h0.859v5.301h1.385v-5.301h1.562v-3.32C269.789-32.303,268.279-33.722,266.412-33.723"/>
	</g>
</g>
<g>
	<g enable-background="new    ">
		<g>
			<defs>
				<rect id="SVGID_1_" x="142.668" y="110.346" width="303.148" height="175.634"/>
			</defs>
			<clipPath id="SVGID_2_">
				<use xlink:href="#SVGID_1_"  overflow="visible"/>
			</clipPath>
			<g clip-path="url(#SVGID_2_)">
				<defs>
					<polygon id="SVGID_3_" points="142.669,204.099 303.996,110.346 445.816,192.227 284.49,285.98 					"/>
				</defs>
				<clipPath id="SVGID_4_">
					<use xlink:href="#SVGID_3_"  overflow="visible"/>
				</clipPath>
				<polygon clip-path="url(#SVGID_4_)" fill="#BFBFBF" points="363.142,240.273 319.193,214.9 311.916,219.13 267.969,193.758
					210.823,226.966 228.43,237.132 250.847,250.066 250.839,250.07 258.644,254.576 264.208,257.787 285.471,245.429
					292.751,249.632 271.49,261.988 276.129,264.664 307.139,246.643 312.26,249.599 329.738,259.685 349.845,248 355.863,244.501
									"/>
				<path clip-path="url(#SVGID_4_)" id="E1.01" fill="#BED5E5" d="M217.441,189.716c-0.522-0.302-0.948-0.487-1.257-0.554
					c-0.31-0.067-0.584-0.033-0.813,0.1c-0.234,0.136-0.285,0.292-0.175,0.475c0.115,0.179,0.444,0.421,0.967,0.723
					c0.528,0.304,0.947,0.494,1.263,0.563c0.316,0.063,0.584,0.033,0.819-0.103c0.228-0.132,0.284-0.292,0.168-0.47
					C218.291,190.268,217.97,190.022,217.441,189.716 M207.549,195.837l0.959,0.555l1.885-1.095l0.815,0.471l-2.957,1.719
					l-4.189-2.419l2.895-1.682l0.816,0.471l-1.821,1.058l0.782,0.451l1.711-0.995l0.817,0.471L207.549,195.837 M207.997,193.014
					l0.765-0.677l1.021-0.593l3.443,1.987l0.947-0.551l0.747,0.432l-2.911,1.692l-0.747-0.432l0.948-0.55l-2.707-1.562l-0.77,0.68
					L207.997,193.014 M214.523,192.583l1.006-0.584l1.086,0.627l-1.005,0.583L214.523,192.583 M215.095,191.086
					c-0.695-0.401-1.082-0.796-1.164-1.187c-0.078-0.389,0.156-0.744,0.704-1.062c0.548-0.319,1.16-0.454,1.831-0.411
					c0.676,0.046,1.359,0.269,2.055,0.669c0.695,0.402,1.08,0.796,1.163,1.188c0.078,0.388-0.155,0.744-0.704,1.062
					c-0.548,0.318-1.16,0.455-1.831,0.412C216.473,191.71,215.79,191.488,215.095,191.086 M217.252,187.637l0.769-0.68l1.017-0.59
					l3.441,1.987l0.947-0.551l0.747,0.432l-2.905,1.688l-0.748-0.431l0.949-0.551l-2.708-1.563l-0.775,0.684L217.252,187.637
					 M270.694,186.508l-49.037-28.312l-64.761,37.635l15.998,9.236l33.045,19.073L270.694,186.508"/>
				<polygon clip-path="url(#SVGID_4_)" fill="#EC7404" points="324.875,262.511 306.957,252.167 280.801,267.368 287.546,271.262
					298.723,277.708 				"/>
				<path clip-path="url(#SVGID_4_)" id="E1.03" fill="#BED5E5" d="M337.834,172.515c-0.522-0.303-0.947-0.487-1.258-0.554
					c-0.309-0.067-0.583-0.034-0.812,0.099c-0.229,0.133-0.286,0.292-0.171,0.471c0.111,0.182,0.438,0.424,0.962,0.726
					c0.527,0.307,0.948,0.495,1.268,0.561c0.312,0.067,0.585,0.033,0.813-0.099c0.229-0.133,0.285-0.292,0.169-0.471
					C338.685,173.064,338.363,172.82,337.834,172.515 M327.942,178.635l0.96,0.555l1.885-1.095l0.814,0.471l-2.956,1.718
					l-4.19-2.418l2.895-1.682l0.816,0.471l-1.821,1.059l0.782,0.451l1.712-0.995l0.815,0.471L327.942,178.635 M328.391,175.812
					l0.764-0.677l1.022-0.594l3.442,1.987l0.947-0.551l0.746,0.431l-2.912,1.693l-0.747-0.432l0.949-0.551l-2.707-1.562l-0.771,0.68
					L328.391,175.812 M334.918,175.38l1.005-0.583l1.087,0.627l-1.006,0.583L334.918,175.38 M335.488,173.885
					c-0.695-0.402-1.082-0.797-1.164-1.188c-0.076-0.388,0.156-0.743,0.704-1.061c0.548-0.318,1.16-0.455,1.831-0.412
					c0.676,0.046,1.357,0.268,2.054,0.67c0.695,0.401,1.081,0.796,1.163,1.188c0.078,0.388-0.156,0.744-0.703,1.061
					c-0.549,0.319-1.162,0.455-1.831,0.412C336.865,174.508,336.184,174.286,335.488,173.885 M341.39,170.262
					c0.36-0.123,0.697-0.173,1.022-0.156c0.322,0.02,0.627,0.11,0.906,0.273c0.414,0.237,0.57,0.513,0.477,0.822
					c-0.102,0.304-0.454,0.637-1.061,0.988c-0.217,0.125-0.445,0.239-0.695,0.345c-0.252,0.104-0.516,0.199-0.795,0.282
					l-0.834-0.482c0.311-0.06,0.584-0.132,0.83-0.215c0.25-0.087,0.469-0.185,0.662-0.299c0.28-0.163,0.457-0.319,0.502-0.465
					c0.057-0.146-0.014-0.271-0.198-0.378c-0.188-0.109-0.413-0.146-0.663-0.112c-0.254,0.032-0.533,0.136-0.836,0.311l-0.434,0.253
					l-0.695-0.402l0.457-0.266c0.268-0.154,0.423-0.299,0.473-0.42c0.045-0.126-0.018-0.243-0.19-0.341
					c-0.161-0.094-0.35-0.13-0.567-0.104c-0.212,0.023-0.44,0.104-0.676,0.239c-0.17,0.098-0.324,0.214-0.467,0.338
					c-0.137,0.125-0.257,0.262-0.348,0.408l-0.793-0.458c0.154-0.156,0.319-0.306,0.496-0.441c0.177-0.144,0.365-0.266,0.57-0.385
					c0.538-0.312,1.028-0.498,1.475-0.55c0.447-0.053,0.854,0.023,1.216,0.231c0.241,0.14,0.38,0.292,0.409,0.461
					C341.662,169.902,341.578,170.08,341.39,170.262 M445.818,192.227l-141.823-81.88l-77.178,44.85l51.003,29.448l2.925,1.688
					l-7.701,4.476l39.12,22.586l7.701-4.475l48.779,28.156L445.818,192.227"/>
				<polygon clip-path="url(#SVGID_4_)" fill="#FFFFFF" points="331.602,178.566 330.785,178.095 328.902,179.19 327.942,178.635
					329.654,177.64 328.839,177.169 327.127,178.164 326.346,177.713 328.166,176.655 327.35,176.184 324.457,177.866
					328.645,180.284 				"/>
				<polygon clip-path="url(#SVGID_4_)" fill="#FFFFFF" points="335.312,176.409 334.566,175.978 333.619,176.529 330.176,174.541
					329.154,175.135 328.391,175.812 329.125,176.237 329.896,175.557 332.603,177.119 331.654,177.67 332.402,178.102 				"/>
				<polygon clip-path="url(#SVGID_4_)" fill="#FFFFFF" points="337.008,175.424 335.922,174.797 334.918,175.381 336.004,176.007
									"/>
				<path clip-path="url(#SVGID_4_)" fill="#FFFFFF" d="M336.555,173.258c-0.523-0.302-0.85-0.544-0.961-0.727
					c-0.113-0.179-0.059-0.338,0.17-0.47c0.229-0.134,0.504-0.167,0.812-0.1c0.311,0.065,0.735,0.251,1.258,0.554
					c0.529,0.304,0.851,0.55,0.972,0.733c0.116,0.179,0.06,0.338-0.169,0.471c-0.229,0.132-0.502,0.166-0.812,0.1
					C337.504,173.752,337.083,173.562,336.555,173.258 M338.913,171.894c-0.696-0.401-1.378-0.624-2.054-0.671
					c-0.671-0.042-1.283,0.092-1.831,0.412c-0.548,0.319-0.78,0.674-0.705,1.062c0.083,0.391,0.469,0.786,1.163,1.188
					c0.697,0.401,1.379,0.623,2.056,0.67c0.669,0.042,1.281-0.093,1.831-0.412c0.547-0.317,0.78-0.673,0.703-1.061
					C339.994,172.69,339.607,172.295,338.913,171.894"/>
				<path clip-path="url(#SVGID_4_)" fill="#FFFFFF" d="M343.318,170.378c-0.281-0.163-0.584-0.252-0.906-0.271
					c-0.325-0.018-0.663,0.033-1.022,0.155c0.188-0.183,0.272-0.357,0.243-0.521c-0.03-0.169-0.168-0.322-0.409-0.46
					c-0.361-0.209-0.769-0.286-1.216-0.232c-0.446,0.053-0.938,0.238-1.475,0.55c-0.205,0.12-0.394,0.243-0.57,0.385
					c-0.177,0.135-0.342,0.285-0.496,0.441l0.793,0.457c0.091-0.146,0.211-0.281,0.348-0.408c0.143-0.121,0.296-0.238,0.467-0.337
					c0.234-0.136,0.463-0.216,0.676-0.239c0.216-0.026,0.406,0.011,0.567,0.103c0.173,0.099,0.235,0.215,0.19,0.341
					c-0.051,0.124-0.205,0.266-0.473,0.421l-0.457,0.268l0.695,0.4l0.434-0.25c0.303-0.178,0.584-0.28,0.834-0.313
					c0.253-0.034,0.477,0.002,0.665,0.112c0.185,0.106,0.255,0.232,0.198,0.378c-0.045,0.147-0.222,0.302-0.502,0.466
					c-0.194,0.113-0.412,0.211-0.664,0.299c-0.244,0.081-0.52,0.155-0.828,0.214l0.834,0.481c0.279-0.083,0.542-0.175,0.795-0.282
					c0.25-0.105,0.479-0.218,0.695-0.344c0.605-0.352,0.959-0.684,1.061-0.989C343.891,170.892,343.732,170.618,343.318,170.378"/>
				<polygon clip-path="url(#SVGID_4_)" fill="#FFFFFF" points="211.209,195.768 210.393,195.296 208.509,196.392 207.55,195.837
					209.262,194.842 208.446,194.371 206.733,195.366 205.953,194.915 207.774,193.857 206.958,193.387 204.063,195.068
					208.252,197.487 				"/>
				<polygon clip-path="url(#SVGID_4_)" fill="#FFFFFF" points="214.919,193.612 214.172,193.181 213.225,193.731 209.782,191.744
					208.762,192.337 207.998,193.014 208.733,193.439 209.502,192.759 212.208,194.322 211.262,194.872 212.008,195.304 				"/>
				<polygon clip-path="url(#SVGID_4_)" fill="#FFFFFF" points="216.615,192.626 215.529,191.999 214.524,192.583 215.61,193.21
									"/>
				<path clip-path="url(#SVGID_4_)" fill="#FFFFFF" d="M216.162,190.46c-0.523-0.302-0.851-0.544-0.966-0.723
					c-0.11-0.183-0.06-0.338,0.175-0.475c0.229-0.133,0.504-0.167,0.812-0.1c0.311,0.067,0.735,0.251,1.257,0.554
					c0.529,0.306,0.852,0.551,0.972,0.734c0.116,0.179,0.06,0.338-0.168,0.47c-0.234,0.136-0.503,0.166-0.819,0.103
					C217.11,190.954,216.69,190.764,216.162,190.46 M218.521,189.096c-0.696-0.4-1.379-0.623-2.055-0.669
					c-0.669-0.043-1.282,0.092-1.83,0.411c-0.548,0.318-0.781,0.673-0.704,1.062c0.082,0.391,0.468,0.786,1.164,1.187
					c0.695,0.402,1.378,0.624,2.054,0.671c0.67,0.043,1.282-0.093,1.83-0.412c0.549-0.318,0.782-0.674,0.704-1.062
					C219.602,189.892,219.215,189.498,218.521,189.096"/>
				<polygon clip-path="url(#SVGID_4_)" fill="#FFFFFF" points="224.173,188.234 223.426,187.802 222.48,188.353 219.037,186.366
					218.021,186.957 217.252,187.637 217.987,188.062 218.762,187.377 221.469,188.94 220.521,189.491 221.268,189.922 				"/>
				<path clip-path="url(#SVGID_4_)" fill="#BFBFBF" d="M261.024,264.402l-2.232-0.633l1.095,1.293L261.024,264.402 M265.7,259.98
					c-0.143-0.083-0.297-0.119-0.457-0.113c-0.167,0.01-0.333,0.061-0.504,0.16l-0.594,0.345l0.885,0.511l0.594-0.346
					c0.17-0.1,0.262-0.192,0.279-0.288C265.915,260.156,265.85,260.066,265.7,259.98 M267.591,260.878
					c-0.177-0.103-0.368-0.152-0.567-0.143c-0.202,0.01-0.408,0.077-0.624,0.203l-0.633,0.367l1.097,0.635l0.633-0.369
					c0.212-0.123,0.331-0.244,0.349-0.361C267.868,261.097,267.775,260.986,267.591,260.878 M271.17,258.785l-0.114-0.065
					l-0.521,0.302c-0.211,0.123-0.33,0.232-0.359,0.334c-0.04,0.104,0.013,0.193,0.15,0.273c0.132,0.076,0.27,0.109,0.425,0.1
					c0.16-0.008,0.315-0.057,0.462-0.143c0.188-0.11,0.279-0.243,0.273-0.393C271.475,259.041,271.377,258.905,271.17,258.785
					 M259.813,266.89l-2.643-3.317l1.278-0.743l5.731,1.522l-1.08,0.628l-1.026-0.289l-1.679,0.975l0.496,0.598L259.813,266.89
					 M262.168,263.131l1.747-1.015l0.816,0.471l-1.747,1.016L262.168,263.131 M266.985,260.125c0.303-0.097,0.602-0.129,0.91-0.097
					c0.311,0.033,0.592,0.123,0.855,0.275c0.409,0.236,0.577,0.484,0.497,0.756c-0.066,0.273-0.385,0.572-0.939,0.894l-1.781,1.036
					l-4.189-2.42l1.615-0.938c0.577-0.336,1.086-0.524,1.52-0.578c0.436-0.047,0.849,0.039,1.234,0.262
					c0.208,0.119,0.328,0.249,0.38,0.387C267.133,259.839,267.099,259.98,266.985,260.125 M267.534,258.862
					c0.16-0.153,0.335-0.302,0.519-0.441c0.193-0.14,0.395-0.274,0.61-0.401c0.561-0.324,1.086-0.498,1.555-0.511
					c0.47-0.021,0.962,0.12,1.463,0.407l1.793,1.035l-1.004,0.584l-0.467-0.268c0.054,0.189,0.049,0.357-0.03,0.504
					c-0.086,0.148-0.245,0.289-0.484,0.428c-0.326,0.189-0.68,0.288-1.07,0.295c-0.395,0.01-0.74-0.076-1.044-0.252
					c-0.368-0.213-0.512-0.441-0.434-0.687c0.079-0.246,0.388-0.524,0.929-0.839l0.587-0.342l-0.074-0.043
					c-0.162-0.094-0.339-0.123-0.54-0.094c-0.2,0.029-0.434,0.119-0.696,0.272c-0.211,0.123-0.388,0.252-0.531,0.388
					c-0.142,0.13-0.251,0.266-0.319,0.404L267.534,258.862 M273.083,255.537l0.998-0.58l3.144,1.814l-0.998,0.58l-0.455-0.262
					c0.03,0.196,0.008,0.369-0.071,0.516c-0.081,0.145-0.229,0.277-0.428,0.395c-0.365,0.212-0.748,0.309-1.161,0.288
					c-0.407-0.017-0.825-0.153-1.25-0.397l-1.919-1.109l1.004-0.584l0.316,0.184c0.172,0.1,0.378,0.225,0.638,0.375
					c0.253,0.146,0.426,0.246,0.511,0.295c0.253,0.146,0.443,0.248,0.563,0.305c0.126,0.061,0.23,0.094,0.31,0.1
					c0.109,0.017,0.212,0.017,0.315-0.002c0.098-0.018,0.194-0.055,0.28-0.104c0.206-0.119,0.29-0.263,0.244-0.422
					c-0.041-0.162-0.202-0.328-0.489-0.494L273.083,255.537 M292.751,249.632l-7.28-4.203l-21.264,12.357l-7.726,4.488l-2.914-1.681
					l0.049,7.56l13.052,0.004l-2.906-1.679l7.727-4.491L292.751,249.632"/>
				<path clip-path="url(#SVGID_4_)" fill="#FFFFFF" d="M259.887,265.062l-1.095-1.293l2.232,0.633L259.887,265.062z
					 M264.18,264.352l-5.731-1.522l-1.278,0.743l2.643,3.317l1.078-0.627l-0.496-0.598l1.679-0.975l1.026,0.289L264.18,264.352"/>
				<polygon clip-path="url(#SVGID_4_)" fill="#FFFFFF" points="264.731,262.587 263.914,262.117 262.168,263.13 262.984,263.603
									"/>
				<path clip-path="url(#SVGID_4_)" fill="#FFFFFF" d="M264.146,260.372l0.594-0.345c0.171-0.1,0.337-0.15,0.504-0.16
					c0.16-0.006,0.314,0.03,0.457,0.113c0.149,0.086,0.214,0.176,0.203,0.268c-0.017,0.097-0.108,0.189-0.279,0.289l-0.594,0.346
					L264.146,260.372 M265.767,261.306l0.633-0.367c0.216-0.126,0.422-0.193,0.624-0.203c0.2-0.01,0.39,0.04,0.567,0.143
					c0.185,0.107,0.277,0.219,0.255,0.332c-0.019,0.117-0.136,0.238-0.349,0.361l-0.633,0.369L265.767,261.306 M268.75,260.304
					c-0.264-0.152-0.545-0.242-0.855-0.275c-0.308-0.032-0.606,0-0.91,0.097c0.114-0.146,0.148-0.286,0.101-0.425
					c-0.051-0.136-0.173-0.266-0.38-0.385c-0.385-0.223-0.798-0.309-1.234-0.262c-0.434,0.054-0.942,0.242-1.52,0.578l-1.615,0.938
					l4.189,2.42l1.781-1.036c0.554-0.321,0.874-0.62,0.94-0.894C269.327,260.789,269.159,260.541,268.75,260.304"/>
				<path clip-path="url(#SVGID_4_)" fill="#FFFFFF" d="M270.327,259.628c-0.137-0.08-0.19-0.17-0.15-0.273
					c0.029-0.102,0.148-0.211,0.359-0.334l0.519-0.302l0.116,0.065c0.207,0.12,0.304,0.256,0.316,0.408
					c0.007,0.149-0.083,0.282-0.271,0.393c-0.148,0.086-0.303,0.135-0.463,0.143C270.597,259.738,270.458,259.705,270.327,259.628
					 M273.473,258.951l-1.793-1.035c-0.5-0.287-0.993-0.428-1.463-0.407c-0.468,0.013-0.994,0.187-1.555,0.511
					c-0.215,0.125-0.417,0.262-0.61,0.401c-0.183,0.14-0.359,0.288-0.519,0.441l0.764,0.44c0.068-0.139,0.177-0.274,0.319-0.404
					c0.143-0.136,0.319-0.265,0.531-0.388c0.262-0.153,0.497-0.243,0.696-0.272c0.2-0.029,0.378,0,0.54,0.094l0.074,0.043
					l-0.587,0.342c-0.542,0.314-0.851,0.593-0.929,0.839c-0.079,0.245,0.066,0.474,0.434,0.687c0.305,0.176,0.649,0.262,1.044,0.252
					c0.39-0.007,0.744-0.105,1.069-0.295c0.241-0.139,0.399-0.279,0.485-0.428c0.079-0.146,0.083-0.314,0.031-0.504l0.466,0.268
					L273.473,258.951"/>
				<path clip-path="url(#SVGID_4_)" fill="#FFFFFF" d="M277.224,256.771l-3.144-1.814l-1,0.58l1.553,0.896
					c0.287,0.166,0.448,0.332,0.489,0.494c0.046,0.159-0.039,0.303-0.244,0.422c-0.086,0.049-0.183,0.086-0.28,0.102
					c-0.103,0.021-0.207,0.021-0.315,0.004c-0.079-0.006-0.183-0.039-0.31-0.1c-0.121-0.057-0.311-0.158-0.562-0.305
					c-0.087-0.049-0.258-0.149-0.512-0.295c-0.259-0.15-0.466-0.275-0.638-0.375l-0.316-0.184l-1.004,0.584l1.919,1.109
					c0.425,0.244,0.843,0.381,1.25,0.397c0.413,0.021,0.796-0.076,1.161-0.288c0.199-0.117,0.347-0.25,0.428-0.395
					c0.079-0.146,0.1-0.319,0.072-0.516l0.454,0.262L277.224,256.771"/>
			</g>
		</g>
	</g>
	<g>
		<g>
			<g>
				<g enable-background="new    ">
					<defs>
						<polygon id="SVGID_5_" enable-background="new    " points="166.91,250.318 171.229,247.808 187.159,257.005 182.84,259.515
													"/>
					</defs>
					<clipPath id="SVGID_6_">
						<use xlink:href="#SVGID_5_"  overflow="visible"/>
					</clipPath>
					<g clip-path="url(#SVGID_6_)">
						<g>
							<g>
								<g>
									<polyline fill="#FFFFFF" points="174.072,249.537 171.154,247.852 166.993,250.27 169.968,251.988 170.78,251.516
										168.884,250.421 169.835,249.869 171.565,250.867 172.377,250.395 170.647,249.396 171.421,248.947 173.259,250.008
										174.072,249.537 									"/>
									<polyline fill="#FFFFFF" points="176.913,251.176 175.885,250.583 174.711,250.141 173.982,250.565 175.162,251.011
										172.472,252.574 171.521,252.025 170.779,252.456 173.709,254.148 174.451,253.716 173.493,253.164 176.913,251.176
																			"/>
									<polyline fill="#FFFFFF" points="176.493,254.505 175.477,253.919 174.398,254.546 175.414,255.132 176.493,254.505
																			"/>
									<path fill="#FFFFFF" d="M178.359,256.083c-0.23-0.133-0.288-0.291-0.175-0.476c0.12-0.181,0.443-0.428,0.963-0.73
										c0.521-0.302,0.939-0.486,1.25-0.556c0.312-0.063,0.585-0.03,0.815,0.103s0.289,0.291,0.174,0.469
										c-0.113,0.184-0.436,0.423-0.957,0.726c-0.52,0.303-0.939,0.494-1.257,0.561
										C178.863,256.25,178.589,256.216,178.359,256.083 M181.949,253.997c-0.556-0.32-1.167-0.453-1.841-0.409
										c-0.675,0.045-1.354,0.27-2.046,0.671c-0.691,0.402-1.071,0.793-1.146,1.184c-0.081,0.395,0.157,0.745,0.713,1.065
										c0.549,0.317,1.16,0.457,1.835,0.405c0.674-0.044,1.354-0.262,2.046-0.663c0.691-0.402,1.07-0.8,1.145-1.191
										C182.736,254.671,182.499,254.314,181.949,253.997"/>
									<path fill="#FFFFFF" d="M185.544,256.073c-0.23-0.133-0.485-0.251-0.759-0.365c-0.287-0.114-0.58-0.218-0.905-0.31
										l-0.914,0.53c0.363,0.048,0.688,0.111,0.956,0.185c0.273,0.077,0.49,0.158,0.663,0.258
										c0.217,0.126,0.339,0.262,0.346,0.406c0.014,0.147-0.081,0.276-0.271,0.387c-0.127,0.073-0.279,0.125-0.463,0.158
										c-0.178,0.029-0.401,0.041-0.662,0.029l-2.871-0.1l-0.787,0.457l3.046,1.759l0.787-0.457l-1.845-1.065l1.673,0.062
										c0.708,0.026,1.216,0.02,1.534-0.025c0.312-0.048,0.584-0.141,0.807-0.27c0.393-0.229,0.564-0.482,0.504-0.773
										C186.324,256.655,186.042,256.36,185.544,256.073"/>
								</g>
							</g>
						</g>
					</g>
				</g>
			</g>
		</g>
	</g>
	<g>
		<polygon fill="#EC7404" stroke="#FFFFFF" stroke-width="0.5" points="361.438,-18.524 364.85,-18.524 363.28,-6.748 		"/>
		<circle fill="#EC7404" cx="363.144" cy="-27.557" r="9.731"/>
		<polygon fill="none" stroke="#FFFFFF" stroke-width="0.5" points="367.014,-30.382 363.144,-35.057 359.274,-30.382
			361.228,-30.382 361.228,-25.26 365.061,-25.26 365.061,-30.382 		"/>
		<text transform="matrix(1 0 0 1 361.4766 -19.6763)" fill="#FFFFFF" font-family="'DejaVuSansCondensed-Bold'" font-size="5">€</text>
	</g>
	<g>
		<polygon fill="#EC7404" stroke="#FFFFFF" stroke-width="0.5" points="387.01,-18.524 390.423,-18.524 388.853,-6.748 		"/>
		<circle fill="#EC7404" cx="388.716" cy="-27.557" r="9.731"/>
		<polygon fill="none" stroke="#FFFFFF" stroke-width="0.5" points="392.586,-30.382 388.716,-35.057 384.847,-30.382
			386.8,-30.382 386.8,-25.26 390.633,-25.26 390.633,-30.382 		"/>
		<rect x="387.029" y="-23.999" fill="none" width="8" height="3.833"/>
		<text transform="matrix(1 0 0 1 387.0303 -20.2002)" fill="#FFFFFF" font-family="'DejaVuSansCondensed-Bold'" font-size="5">P</text>
	</g>
	<g>
		<polygon fill="#EC7404" stroke="#FFFFFF" stroke-width="0.5" points="412.582,-18.524 415.994,-18.524 414.425,-6.748 		"/>
		<circle fill="#EC7404" cx="414.288" cy="-27.557" r="9.731"/>
		<polygon fill="none" stroke="#FFFFFF" stroke-width="0.5" points="418.158,-30.382 414.288,-35.057 410.419,-30.382
			412.372,-30.382 412.372,-25.26 416.205,-25.26 416.205,-30.382 		"/>
		<rect x="409.42" y="-23.999" fill="none" width="8" height="3.833"/>
		<text transform="matrix(1 0 0 1 409.4209 -20.1992)" fill="#FFFFFF" font-family="'DejaVuSansCondensed-Bold'" font-size="5"> EC</text>
	</g>
	<g>
		<polygon fill="#EC7404" stroke="#FFFFFF" stroke-width="0.5" points="463.604,-18.547 467.018,-18.547 465.447,-6.771 		"/>
		<g>
			<circle fill="#EC7404" cx="465.311" cy="-27.557" r="9.731"/>
			<g>
				<g>
					<path fill="none" stroke="#FFFFFF" stroke-width="0.5" d="M469.798-23.637c0,0.312-0.255,0.567-0.567,0.567h-7.839
						c-0.312,0-0.567-0.255-0.567-0.567v-7.84c0-0.312,0.255-0.567,0.567-0.567h7.839c0.312,0,0.567,0.255,0.567,0.567V-23.637z"/>
				</g>
				<polygon fill="#FFFFFF" points="461.753,-27.531 464.446,-24.3 468.888,-31.031 464.209,-25.613 				"/>
			</g>
		</g>
	</g>
	<g>
		<polygon fill="#EC7404" stroke="#FFFFFF" stroke-width="0.5" points="489.464,-18.547 492.878,-18.547 491.308,-6.771 		"/>
		<circle fill="#EC7404" cx="491.171" cy="-27.557" r="9.731"/>
		<g>
			<g>
				<path fill="#EC7404" d="M495.547-25.703c0,0.312-0.255,0.567-0.567,0.567h-9.54c-0.312,0-0.567-0.255-0.567-0.567v-5.453
					c0-0.312,0.255-0.567,0.567-0.567h9.54c0.312,0,0.567,0.255,0.567,0.567V-25.703z"/>
				<path fill="none" stroke="#FFFFFF" stroke-width="0.5" d="M495.547-25.703c0,0.312-0.255,0.567-0.567,0.567h-9.54
					c-0.312,0-0.567-0.255-0.567-0.567v-5.453c0-0.312,0.255-0.567,0.567-0.567h9.54c0.312,0,0.567,0.255,0.567,0.567V-25.703z"/>
			</g>
			<g>
				<path fill="#EC7404" d="M497.471-23.779c0,0.312-0.255,0.567-0.567,0.567h-9.54c-0.312,0-0.567-0.255-0.567-0.567v-5.454
					c0-0.312,0.255-0.567,0.567-0.567h9.54c0.312,0,0.567,0.255,0.567,0.567V-23.779z"/>
				<path fill="none" stroke="#FFFFFF" stroke-width="0.5" d="M497.471-23.779c0,0.312-0.255,0.567-0.567,0.567h-9.54
					c-0.312,0-0.567-0.255-0.567-0.567v-5.454c0-0.312,0.255-0.567,0.567-0.567h9.54c0.312,0,0.567,0.255,0.567,0.567V-23.779z"/>
			</g>
		</g>
	</g>
	<g>
		<polygon fill="#EC7404" stroke="#FFFFFF" stroke-width="0.5" points="335.864,-18.524 339.277,-18.524 337.708,-6.748 		"/>
		<circle fill="#EC7404" cx="337.571" cy="-27.557" r="9.731"/>
		<g>
			<path fill="#FFFFFF" d="M334.442-25.867h6.294v-0.557h-6.294V-25.867z M334.442-24.171h6.294v-0.557h-6.294V-24.171z
				 M334.442-29.214h6.294v-0.558h-6.294V-29.214z M334.442-27.549h6.294v-0.557h-6.294V-27.549z M341.442-22.241h-7.744v-11.183
				h5.521v2.222h2.223V-22.241z M333.141-21.682 M339.778-33.354l1.594,1.592h-1.594V-33.354z M339.937-33.983h-6.796v12.301h8.86
				v-10.239L339.937-33.983z"/>
		</g>
	</g>
	<g>
		<polygon fill="#EC7404" stroke="#FFFFFF" stroke-width="0.5" points="310.291,-18.524 313.704,-18.524 312.134,-6.749 		"/>
		<circle fill="#EC7404" cx="311.998" cy="-27.557" r="9.731"/>
		<g>
			<g>
				<path fill="#FFFFFF" d="M317.055-28.279c-0.002-0.272-0.025-0.522-0.083-0.758c-0.046-0.183-0.114-0.358-0.217-0.517
					c-0.152-0.24-0.387-0.429-0.656-0.535c-0.269-0.108-0.564-0.149-0.898-0.149c-0.295,0-0.563,0.033-0.811,0.114
					c-0.185,0.062-0.357,0.153-0.505,0.277c-0.223,0.186-0.377,0.438-0.463,0.709c-0.086,0.264-0.118,0.55-0.119,0.862l-0.569,4.806
					h1.198v2.099h0.97v-2.099h0.6v2.099h0.97v-2.099h1.204L317.055-28.279z"/>
				<path fill="#FFFFFF" d="M308.681-30.684c0.872,0,1.576-0.707,1.576-1.577c0-0.871-0.704-1.577-1.576-1.577
					c-0.87,0-1.575,0.706-1.576,1.577C307.105-31.391,307.811-30.684,308.681-30.684 M308.681-30.146
					c-1.305,0.001-2.36,1.057-2.36,2.361v2.469h1.092v3.943h0.969v-3.943h0.6v3.943h0.97v-3.943h1.091v-2.469
					C311.041-29.09,309.985-30.146,308.681-30.146"/>
			</g>
			<circle fill="#FFFFFF" cx="315.094" cy="-32.263" r="1.584"/>
		</g>
	</g>
	<g>
		<polygon fill="#EC7404" stroke="#FFFFFF" stroke-width="0.5" points="305.416,248.583 308.829,248.583 307.259,260.359 		"/>
		<circle fill="#EC7404" cx="307.123" cy="239.55" r="9.731"/>
		<g>
			<g>
				<path fill="#FFFFFF" d="M312.18,238.829c-0.002-0.272-0.025-0.523-0.083-0.758c-0.046-0.184-0.114-0.358-0.217-0.518
					c-0.152-0.239-0.387-0.429-0.656-0.535c-0.269-0.107-0.564-0.148-0.898-0.148c-0.295,0-0.563,0.032-0.811,0.113
					c-0.185,0.062-0.357,0.152-0.505,0.277c-0.223,0.186-0.377,0.438-0.463,0.709c-0.086,0.264-0.118,0.549-0.119,0.861
					l-0.569,4.806h1.198v2.099h0.97v-2.099h0.6v2.099h0.97v-2.099h1.204L312.18,238.829z"/>
				<path fill="#FFFFFF" d="M303.806,236.423c0.872,0,1.576-0.706,1.576-1.577s-0.704-1.576-1.576-1.576
					c-0.87,0-1.575,0.705-1.576,1.576C302.23,235.717,302.936,236.423,303.806,236.423 M303.806,236.961
					c-1.305,0-2.36,1.057-2.36,2.36v2.47h1.092v3.943h0.969v-3.943h0.6v3.943h0.97v-3.943h1.091v-2.47
					C306.166,238.018,305.11,236.961,303.806,236.961"/>
			</g>
			<circle fill="#FFFFFF" cx="310.219" cy="234.844" r="1.584"/>
		</g>
	</g>
	<g>
		<polygon fill="#EC7404" stroke="#FFFFFF" stroke-width="0.5" points="438.154,-18.524 441.567,-18.524 439.998,-6.748 		"/>
		<circle fill="#EC7404" cx="439.861" cy="-27.557" r="9.731"/>
		<text transform="matrix(1 0 0 1 438.1016 -19.6763)" fill="#FFFFFF" font-family="'DejaVuSansCondensed-Bold'" font-size="5">€</text>
		<polygon fill="none" stroke="#FFFFFF" stroke-width="0.5" points="435.942,-29.935 439.812,-25.26 443.682,-29.935
			441.729,-29.935 441.729,-35.057 437.896,-35.057 437.896,-29.935 		"/>
	</g>
	<g>
		<g>
			<polygon fill="#EC7404" stroke="#FFFFFF" stroke-width="0.5" points="515.274,-18.368 518.687,-18.328 516.979,-6.571 			"/>
			<circle fill="#EC7404" cx="517.093" cy="-27.372" r="9.731"/>
		</g>
		<path fill="#FFFFFF" d="M517.398-24.411c-0.174,1.439-1.402,2.558-2.887,2.558c-1.605,0-2.91-1.305-2.91-2.91
			c0-0.9,0.412-1.709,1.057-2.243v-1.217c-1.232,0.663-2.072,1.965-2.072,3.46c0,2.164,1.762,3.926,3.926,3.926
			c1.641,0,3.051-1.014,3.635-2.449L517.398-24.411z"/>
		<path fill="#FFFFFF" d="M521.072-23.688l-0.811,0.56l-2.08-3.488l-3.998,0.025v-0.829h2.115v-0.889h-2.115v-2.055
			c0.494-0.188,0.846-0.664,0.846-1.225c0-0.725-0.588-1.313-1.311-1.313c-0.725,0-1.314,0.589-1.314,1.313
			c0,0.576,0.373,1.064,0.889,1.24v4.621l4.395,0.005l2.275,3.813l1.594-1.033L521.072-23.688z"/>
		<polygon fill="#FFFFFF" points="516.156,-32.331 516.941,-32.331 517.488,-30.025 518.033,-32.331 518.82,-32.331
			519.367,-30.025 519.912,-32.331 520.691,-32.331 519.943,-29.158 519,-29.158 518.424,-31.57 517.855,-29.158 516.91,-29.158
			"/>
		<path fill="#FFFFFF" d="M523.379-29.332c-0.148,0.077-0.307,0.135-0.471,0.176c-0.162,0.04-0.332,0.06-0.51,0.06
			c-0.527,0-0.945-0.148-1.254-0.443s-0.463-0.695-0.463-1.201c0-0.507,0.154-0.909,0.463-1.204s0.727-0.442,1.254-0.442
			c0.178,0,0.348,0.02,0.51,0.059c0.164,0.039,0.322,0.1,0.471,0.178v0.655c-0.15-0.104-0.301-0.179-0.447-0.228
			c-0.148-0.048-0.303-0.072-0.465-0.072c-0.293,0-0.521,0.094-0.689,0.281s-0.252,0.444-0.252,0.773
			c0,0.327,0.084,0.585,0.252,0.771s0.396,0.279,0.689,0.279c0.162,0,0.316-0.023,0.465-0.072c0.146-0.048,0.297-0.123,0.447-0.227
			V-29.332z"/>
	</g>
</g>
<g>
	<g>
		<g enable-background="new    ">
			<defs>
				<polygon id="SVGID_7_" enable-background="new    " points="240.556,215.027 247.387,211.057 254.257,215.024 247.426,218.994
									"/>
			</defs>
			<clipPath id="SVGID_8_">
				<use xlink:href="#SVGID_7_"  overflow="visible"/>
			</clipPath>
			<g clip-path="url(#SVGID_8_)">
				<g>
					<g>
						<g>
							<polyline fill="#FFFFFF" points="249.117,212.056 247.387,211.057 240.556,215.027 243.978,217.002 247.426,218.994
								249.15,217.991 247.439,217.003 249.14,216.015 247.422,215.024 249.122,214.036 247.411,213.047 249.117,212.056 							"/>
						</g>
					</g>
				</g>
			</g>
		</g>
	</g>
</g>
<g>
	<polygon fill="#EC7404" stroke="#FFFFFF" stroke-width="0.5" points="305.416,248.051 308.829,248.051 307.259,259.827 	"/>
	<circle fill="#EC7404" cx="306.845" cy="239.018" r="9.731"/>
	<g>
		<path fill="#FFFFFF" d="M307.261,241.516c-0.175,1.439-1.402,2.558-2.887,2.558c-1.606,0-2.91-1.305-2.91-2.91
			c0-0.9,0.411-1.709,1.057-2.243v-1.217c-1.233,0.663-2.073,1.965-2.073,3.46c0,2.164,1.762,3.926,3.927,3.926
			c1.641,0,3.05-1.014,3.635-2.449L307.261,241.516z"/>
		<path fill="#FFFFFF" d="M310.935,242.24l-0.811,0.56l-2.081-3.488l-3.998,0.025v-0.829h2.116v-0.889h-2.116v-2.055
			c0.495-0.188,0.846-0.664,0.846-1.225c0-0.725-0.587-1.313-1.311-1.313c-0.725,0-1.313,0.589-1.313,1.313
			c0,0.576,0.373,1.064,0.889,1.24v4.621l4.394,0.005l2.276,3.813l1.593-1.033L310.935,242.24z"/>
		<polygon fill="#FFFFFF" points="306.019,233.596 306.804,233.596 307.351,235.902 307.895,233.596 308.683,233.596
			309.229,235.902 309.774,233.596 310.553,233.596 309.805,236.769 308.861,236.769 308.286,234.357 307.717,236.769
			306.772,236.769 		"/>
		<path fill="#FFFFFF" d="M313.241,236.595c-0.149,0.077-0.308,0.135-0.471,0.176c-0.162,0.04-0.332,0.06-0.51,0.06
			c-0.528,0-0.946-0.148-1.254-0.443c-0.31-0.295-0.464-0.695-0.464-1.201c0-0.507,0.154-0.909,0.464-1.204
			c0.308-0.295,0.726-0.442,1.254-0.442c0.178,0,0.348,0.02,0.51,0.059c0.163,0.039,0.321,0.1,0.471,0.178v0.655
			c-0.151-0.104-0.302-0.179-0.448-0.228c-0.148-0.048-0.303-0.072-0.465-0.072c-0.293,0-0.521,0.094-0.689,0.281
			s-0.251,0.444-0.251,0.773c0,0.327,0.083,0.585,0.251,0.771s0.396,0.279,0.689,0.279c0.162,0,0.316-0.023,0.465-0.072
			c0.146-0.048,0.297-0.123,0.448-0.227V236.595z"/>
	</g>
</g>
<g>
	<polygon fill="#EC7404" points="257.061,236.276 260.475,236.276 258.904,248.052 	"/>
	<circle fill="#EC7404" cx="258.768" cy="227.266" r="9.731"/>
	<g>
		<g>
			<path fill="none" stroke="#FFFFFF" stroke-width="0.5" d="M263.255,233.061c0,0.312-0.255,0.567-0.566,0.567h-7.84
				c-0.312,0-0.567-0.256-0.567-0.567v-11.507c0-0.312,0.255-0.566,0.567-0.566h7.84c0.312,0,0.566,0.254,0.566,0.566V233.061z"/>
		</g>
	</g>
	<path fill="#FFFFFF" d="M258.768,225.638c0.743,0,1.342-0.602,1.342-1.342c0-0.742-0.599-1.342-1.342-1.342
		c-0.74,0-1.34,0.6-1.341,1.342C257.428,225.037,258.027,225.638,258.768,225.638 M258.768,226.096
		c-1.11,0.001-2.009,0.899-2.009,2.01v2.102h0.93v3.356h0.824v-3.356h0.511v3.356h0.825v-3.356h0.929v-2.102
		C260.777,226.996,259.879,226.097,258.768,226.096"/>
</g>
<path id="E2.11" fill="#BFBFBF" d="M134.446,253.102l-37.198-21.869l-17.357,10.344l37.2,21.869"/>
<path fill="#BFBFBF" d="M152.601,242.288l-37.198-21.869l-15.18,9.054l37.2,21.869"/>
<path fill="#BFBFBF" d="M172.712,230.757l-9.056-5.64l-17.357,10.344l8.692,5.111"/>
<path id="E2.12" fill="#BFBFBF" d="M162.046,224.3l-26.235-15.424l-17.357,10.344l25.872,14.896"/>
<path id="E2.13" fill="#BFBFBF" d="M192.342,219.209l-37.198-21.869l-17.357,10.344l37.2,21.869"/>
<g>
	<g>
		<g>
			<g enable-background="new    ">
				<defs>
					<polygon id="SVGID_9_" enable-background="new    " points="150.28,206.354 154.593,203.847 170.561,213.066 166.248,215.573
											"/>
				</defs>
				<clipPath id="SVGID_10_">
					<use xlink:href="#SVGID_9_"  overflow="visible"/>
				</clipPath>
				<g clip-path="url(#SVGID_10_)">
					<g>
						<g>
							<g>
								<polyline fill="#FFFFFF" points="157.429,205.572 154.517,203.891 150.356,206.309 153.331,208.027 154.143,207.555
									152.247,206.46 153.199,205.907 154.922,206.903 155.734,206.431 154.01,205.436 154.784,204.986 156.617,206.044
									157.429,205.572 								"/>
								<path fill="#FFFFFF" d="M159.586,206.729c-0.23-0.133-0.479-0.254-0.759-0.365c-0.281-0.118-0.581-0.218-0.899-0.313
									l-0.92,0.535c0.369,0.044,0.688,0.11,0.962,0.18c0.274,0.078,0.497,0.163,0.663,0.258c0.217,0.125,0.333,0.265,0.346,0.406
									c0.014,0.147-0.082,0.276-0.278,0.391c-0.127,0.074-0.279,0.125-0.458,0.155c-0.184,0.033-0.407,0.044-0.668,0.033
									l-2.864-0.103l-0.793,0.461l3.045,1.758l0.792-0.461l-1.845-1.065l1.674,0.063c0.707,0.025,1.216,0.018,1.533-0.026
									c0.312-0.048,0.579-0.136,0.807-0.269c0.394-0.229,0.564-0.483,0.499-0.771C160.372,207.308,160.09,207.021,159.586,206.729
									"/>
								<polyline fill="#FFFFFF" points="159.849,210.542 158.84,209.959 157.762,210.585 158.771,211.167 159.849,210.542
									"/>
								<polyline fill="#FFFFFF" points="165.882,210.453 164.854,209.859 163.681,209.409 162.951,209.833 164.131,210.287
									161.441,211.85 160.483,211.297 159.742,211.728 162.672,213.42 163.414,212.989 162.463,212.44 165.882,210.453
									"/>
								<path fill="#FFFFFF" d="M168.831,212.067c-0.198-0.114-0.421-0.228-0.657-0.327c-0.242-0.104-0.498-0.199-0.772-0.292
									l-0.787,0.458c0.255,0.059,0.491,0.129,0.701,0.206c0.224,0.077,0.421,0.17,0.593,0.269c0.236,0.137,0.377,0.27,0.416,0.395
									c0.039,0.126-0.018,0.232-0.176,0.324c-0.178,0.104-0.368,0.141-0.585,0.111c-0.223-0.026-0.465-0.122-0.733-0.276
									l-0.454-0.262l-0.691,0.401l0.428,0.247c0.306,0.177,0.486,0.339,0.55,0.486c0.052,0.147-0.011,0.273-0.202,0.384
									c-0.184,0.106-0.4,0.151-0.648,0.118c-0.255-0.03-0.523-0.133-0.804-0.295c-0.198-0.114-0.364-0.24-0.518-0.388
									c-0.147-0.144-0.269-0.302-0.372-0.479l-0.831,0.482c0.141,0.162,0.307,0.317,0.493,0.461
									c0.172,0.144,0.376,0.276,0.594,0.402c0.606,0.35,1.174,0.56,1.709,0.619c0.535,0.059,1.012-0.033,1.424-0.273
									c0.272-0.158,0.425-0.335,0.455-0.523c0.038-0.191-0.046-0.387-0.264-0.593c0.319,0.11,0.618,0.158,0.904,0.14
									c0.28-0.015,0.547-0.096,0.788-0.236c0.355-0.206,0.487-0.438,0.396-0.696C169.693,212.668,169.38,212.384,168.831,212.067"
									/>
							</g>
						</g>
					</g>
				</g>
			</g>
		</g>
	</g>
</g>
<g>
	<g>
		<g>
			<g enable-background="new    ">
				<defs>
					<polygon id="SVGID_11_" enable-background="new    " points="129.996,218.089 134.233,215.626 150.156,224.82 145.919,227.283
											"/>
				</defs>
				<clipPath id="SVGID_12_">
					<use xlink:href="#SVGID_11_"  overflow="visible"/>
				</clipPath>
				<g clip-path="url(#SVGID_12_)">
					<g>
						<g>
							<g>
								<polyline fill="#FFFFFF" points="137.068,217.352 134.156,215.671 129.996,218.089 132.971,219.807 133.782,219.335
									131.886,218.241 132.838,217.687 134.562,218.682 135.374,218.21 133.65,217.215 134.424,216.765 136.256,217.824
									137.068,217.352 								"/>
								<path fill="#FFFFFF" d="M139.226,218.509c-0.23-0.133-0.479-0.254-0.759-0.365c-0.282-0.117-0.581-0.217-0.906-0.31
									l-0.913,0.531c0.369,0.044,0.688,0.11,0.962,0.181c0.274,0.077,0.497,0.162,0.664,0.258
									c0.217,0.125,0.332,0.266,0.339,0.409c0.02,0.144-0.075,0.272-0.271,0.387c-0.127,0.074-0.28,0.126-0.458,0.155
									c-0.185,0.033-0.407,0.044-0.668,0.033l-2.864-0.104l-0.793,0.461l3.045,1.758l0.793-0.46l-1.845-1.065l1.674,0.062
									c0.7,0.029,1.215,0.019,1.533-0.025c0.312-0.049,0.579-0.137,0.807-0.27c0.387-0.225,0.563-0.482,0.499-0.771
									C140.011,219.088,139.73,218.8,139.226,218.509"/>
								<polyline fill="#FFFFFF" points="139.488,222.321 138.48,221.739 137.402,222.365 138.411,222.948 139.488,222.321
									"/>
								<polyline fill="#FFFFFF" points="145.521,222.233 144.493,221.639 143.32,221.189 142.584,221.617 143.77,222.067
									141.081,223.629 140.123,223.077 139.381,223.508 142.312,225.2 143.054,224.769 142.103,224.219 145.521,222.233
									"/>
								<path fill="#FFFFFF" d="M148.541,223.888c-0.224-0.13-0.479-0.255-0.759-0.365c-0.275-0.114-0.581-0.218-0.906-0.31
									l-0.913,0.53c0.375,0.049,0.688,0.111,0.968,0.185c0.268,0.073,0.491,0.159,0.657,0.255
									c0.217,0.125,0.333,0.265,0.346,0.412c0.013,0.141-0.076,0.273-0.272,0.388c-0.127,0.073-0.286,0.122-0.464,0.151
									c-0.184,0.033-0.407,0.044-0.662,0.036l-2.87-0.106l-0.793,0.46l3.045,1.759l0.793-0.461l-1.845-1.065l1.673,0.063
									c0.707,0.033,1.215,0.018,1.534-0.026c0.312-0.048,0.585-0.133,0.813-0.266c0.387-0.225,0.557-0.486,0.492-0.774
									C149.327,224.466,149.045,224.179,148.541,223.888"/>
							</g>
						</g>
					</g>
				</g>
			</g>
		</g>
	</g>
</g>
<g>
	<g>
		<g>
			<g enable-background="new    ">
				<defs>
					<polygon id="SVGID_13_" enable-background="new    " points="91.048,239.496 95.285,237.034 111.317,246.291 107.08,248.752
											"/>
				</defs>
				<clipPath id="SVGID_14_">
					<use xlink:href="#SVGID_13_"  overflow="visible"/>
				</clipPath>
				<g clip-path="url(#SVGID_14_)">
					<g>
						<g>
							<g>
								<polyline fill="#FFFFFF" points="98.127,238.762 95.209,237.078 91.048,239.496 94.03,241.217 94.842,240.746
									92.939,239.647 93.89,239.094 95.621,240.093 96.433,239.622 94.703,238.623 95.476,238.172 97.315,239.234 98.127,238.762
																	"/>
								<path fill="#FFFFFF" d="M100.284,239.92c-0.23-0.133-0.478-0.255-0.766-0.369c-0.274-0.114-0.574-0.214-0.899-0.313
									l-0.919,0.534c0.375,0.049,0.694,0.115,0.968,0.185c0.267,0.074,0.491,0.158,0.664,0.258
									c0.217,0.126,0.325,0.263,0.345,0.406c0.014,0.147-0.081,0.276-0.278,0.391c-0.126,0.073-0.279,0.125-0.457,0.154
									c-0.19,0.03-0.407,0.045-0.668,0.033l-2.864-0.103l-0.793,0.461l3.045,1.758l0.793-0.461l-1.845-1.065l1.674,0.062
									c0.7,0.03,1.215,0.019,1.527-0.028c0.318-0.045,0.584-0.133,0.813-0.266c0.393-0.229,0.558-0.487,0.499-0.771
									C101.064,240.495,100.782,240.208,100.284,239.92"/>
								<polyline fill="#FFFFFF" points="100.548,243.732 99.539,243.149 98.46,243.776 99.469,244.359 100.548,243.732 								"/>
								<polyline fill="#FFFFFF" points="106.574,243.639 105.552,243.049 104.379,242.6 103.649,243.024 104.823,243.473
									102.133,245.037 101.182,244.488 100.44,244.918 103.37,246.611 104.112,246.179 103.154,245.626 106.574,243.639
									"/>
								<polyline fill="#FFFFFF" points="110.29,245.785 109.262,245.191 108.088,244.742 107.358,245.166 108.539,245.619
									105.849,247.182 104.891,246.629 104.149,247.06 107.08,248.752 107.822,248.322 106.871,247.772 110.29,245.785
									"/>
							</g>
						</g>
					</g>
				</g>
			</g>
		</g>
	</g>
</g>
<g>
	<g>
		<g enable-background="new    ">
			<defs>
				<polygon id="SVGID_15_" enable-background="new    " points="109.095,226.34 115.92,222.374 122.79,226.339 115.964,230.306
									"/>
			</defs>
			<clipPath id="SVGID_16_">
				<use xlink:href="#SVGID_15_"  overflow="visible"/>
			</clipPath>
			<g clip-path="url(#SVGID_16_)">
				<g>
					<g>
						<g>
							<polyline fill="#FFFFFF" points="117.657,223.375 115.92,222.374 109.095,226.34 112.517,228.316 115.964,230.306
								117.69,229.303 115.979,228.316 117.679,227.328 115.968,226.339 117.668,225.352 115.957,224.364 117.657,223.375
								"/>
						</g>
					</g>
				</g>
			</g>
		</g>
	</g>
</g>
<g>
	<g>
		<g enable-background="new    ">
			<defs>
				<polygon id="SVGID_17_" enable-background="new    " points="91.26,224.15 106.521,215.281 114.291,219.767 99.03,228.637
					"/>
			</defs>
			<clipPath id="SVGID_18_">
				<use xlink:href="#SVGID_17_"  overflow="visible"/>
			</clipPath>
			<g clip-path="url(#SVGID_18_)">
				<g>
					<g>
						<g>
							<polyline fill="#CFD0D2" points="114.112,219.665 98.808,219.763 99.03,228.637 114.112,219.665 							"/>
						</g>
					</g>
				</g>
			</g>
		</g>
	</g>
</g>
</svg>
