<?xml version="1.0" encoding="utf-8"?>
<!-- Generator: Adobe Illustrator 16.0.0, SVG Export Plug-In . SVG Version: 6.00 Build 0)  -->
<!DOCTYPE svg PUBLIC "-//W3C//DTD SVG 1.1//EN" "http://www.w3.org/Graphics/SVG/1.1/DTD/svg11.dtd">
<svg version="1.1" xmlns="http://www.w3.org/2000/svg" xmlns:xlink="http://www.w3.org/1999/xlink" x="0px" y="0px"
	 width="595.275px" height="419.527px" viewBox="0 0 595.275 419.527" enable-background="new 0 0 595.275 419.527"
	 xml:space="preserve">
<g id="Ebene_2">
</g>
<g id="Ebene_1">
	<g>
		<g>
			<g enable-background="new    ">
				<defs>
					<polygon id="SVGID_1_" enable-background="new    " points="105.226,195.952 291.716,87.572 469.208,190.054 282.718,298.434
											"/>
				</defs>
				<clipPath id="SVGID_2_">
					<use xlink:href="#SVGID_1_"  overflow="visible"/>
				</clipPath>
				<g clip-path="url(#SVGID_2_)">
					<g>
						<g>
							<g>
								<path id="G1.11" fill="#CFD0D2" d="M220.737,147.092l0.736-0.428l1.167,0.446l1.028,0.594l-3.419,1.987l0.958,0.553l-0.742,0.431
									l-2.931-1.692l0.742-0.432l0.952,0.549l2.689-1.563L220.737,147.092 M226.157,150.222l0.735-0.428l1.174,0.45l1.028,0.593
									l-3.419,1.987l0.951,0.549l-0.742,0.432l-2.93-1.692l0.742-0.431l0.958,0.553l2.689-1.563L226.157,150.222 M229.873,152.367
									l0.736-0.427l1.167,0.446l1.028,0.594l-3.419,1.987l0.951,0.549l-0.742,0.431l-2.924-1.688l0.742-0.432l0.951,0.549
									l2.689-1.563L229.873,152.367 M233.583,154.509l0.736-0.428l1.167,0.446l1.028,0.593l-3.419,1.987l0.958,0.553l-0.743,0.431
									l-2.93-1.692l0.742-0.432l0.951,0.549l2.689-1.563L233.583,154.509 M214.903,147.561c-0.696-0.402-1.055-0.837-1.076-1.298
									c-0.022-0.461,0.3-0.885,0.96-1.268c0.672-0.391,1.41-0.575,2.212-0.56c0.802,0.015,1.561,0.232,2.282,0.648
									c0.281,0.162,0.523,0.332,0.728,0.509c0.205,0.177,0.358,0.361,0.487,0.553l-0.862,0.501
									c-0.103-0.214-0.231-0.405-0.398-0.575c-0.173-0.173-0.371-0.324-0.601-0.457c-0.434-0.251-0.88-0.376-1.351-0.369
									c-0.471,0.007-0.935,0.137-1.379,0.395c-0.438,0.254-0.665,0.52-0.676,0.785c-0.018,0.269,0.181,0.523,0.596,0.763
									c0.108,0.063,0.223,0.122,0.332,0.169c0.108,0.048,0.223,0.085,0.325,0.107l0.805-0.468l-0.658-0.379l0.717-0.417
									l1.686,0.973l-1.999,1.161c-0.401-0.078-0.777-0.185-1.128-0.313C215.542,147.892,215.21,147.737,214.903,147.561
									 M248.688,158.66l-39.776-22.966l-10.257,5.961l39.776,22.966L248.688,158.66"/>
								<path id="G1.10" fill="#BDD4E4" d="M269.462,135.226c-0.236-0.136-0.504-0.173-0.815-0.103c-0.312,0.062-0.724,0.25-1.244,0.553
									c-0.527,0.306-0.856,0.549-0.97,0.734c-0.12,0.181-0.062,0.339,0.174,0.475c0.23,0.133,0.498,0.163,0.815,0.096
									c0.312-0.07,0.737-0.258,1.263-0.564c0.52-0.302,0.843-0.542,0.951-0.723C269.756,135.513,269.691,135.358,269.462,135.226
									 M254.99,127.186l0.729-0.424l1.173,0.442l1.028,0.594l-3.419,1.987l0.958,0.553l-0.742,0.431l-2.931-1.692l0.742-0.431
									l0.952,0.549l2.69-1.563L254.99,127.186 M260.41,130.315l0.729-0.424l1.18,0.446l1.028,0.594l-3.419,1.987l0.951,0.549
									l-0.742,0.431l-2.931-1.692l0.742-0.431l0.958,0.553l2.689-1.563L260.41,130.315 M264.126,132.461l0.729-0.424l1.173,0.442
									l1.028,0.594l-3.419,1.987l0.951,0.549l-0.742,0.431l-2.924-1.688l0.742-0.431l0.951,0.549l2.69-1.563L264.126,132.461
									 M249.157,127.654c-0.696-0.402-1.055-0.837-1.076-1.297c-0.022-0.461,0.3-0.885,0.96-1.269
									c0.672-0.391,1.41-0.575,2.211-0.56c0.802,0.015,1.561,0.232,2.282,0.649c0.281,0.162,0.524,0.332,0.729,0.508
									c0.198,0.181,0.359,0.361,0.487,0.553l-0.863,0.501c-0.103-0.214-0.231-0.406-0.397-0.575
									c-0.173-0.173-0.371-0.324-0.601-0.457c-0.434-0.25-0.88-0.376-1.351-0.369c-0.471,0.007-0.935,0.136-1.379,0.395
									c-0.438,0.254-0.665,0.52-0.676,0.785c-0.018,0.269,0.181,0.523,0.596,0.763c0.108,0.062,0.223,0.121,0.332,0.169
									c0.108,0.048,0.223,0.084,0.318,0.11l0.812-0.472l-0.658-0.38l0.717-0.417l1.686,0.973l-1.998,1.161
									c-0.402-0.077-0.778-0.184-1.129-0.313C249.795,127.985,249.463,127.831,249.157,127.654 M265.878,137.309
									c-0.555-0.321-0.787-0.675-0.712-1.065c0.074-0.391,0.453-0.789,1.138-1.187c0.691-0.402,1.377-0.623,2.052-0.667
									c0.674-0.044,1.286,0.089,1.841,0.409c0.55,0.317,0.78,0.671,0.707,1.062c-0.074,0.391-0.46,0.786-1.151,1.188
									c-0.686,0.398-1.365,0.623-2.04,0.667C267.039,137.758,266.427,137.625,265.878,137.309 M303.963,126.537l-39.776-22.966
									l-52.738,30.649l39.776,22.966L303.963,126.537"/>
								<path id="G1.09" fill="#CFD0D2" d="M300.425,112.927c-0.23-0.133-0.504-0.166-0.81-0.1c-0.317,0.066-0.73,0.247-1.257,0.553
									c-0.52,0.302-0.843,0.549-0.957,0.734c-0.12,0.18-0.062,0.339,0.168,0.472c0.229,0.133,0.503,0.166,0.821,0.1
									c0.311-0.07,0.737-0.258,1.257-0.56c0.526-0.306,0.837-0.546,0.957-0.727C300.719,113.221,300.66,113.063,300.425,112.927
									 M304.102,114.983c-0.186-0.107-0.396-0.155-0.618-0.136c-0.216,0.015-0.445,0.096-0.686,0.236
									c-0.241,0.14-0.381,0.273-0.405,0.398c-0.025,0.125,0.059,0.247,0.244,0.354c0.191,0.111,0.395,0.155,0.611,0.14
									c0.216-0.015,0.444-0.096,0.686-0.236s0.381-0.273,0.405-0.398C304.37,115.212,304.293,115.094,304.102,114.983
									 M289.668,107.032l0.729-0.424l1.173,0.442l1.028,0.594l-3.419,1.987l0.958,0.553l-0.742,0.431l-2.931-1.692l0.742-0.431
									l0.951,0.549l2.689-1.563L289.668,107.032 M295.088,110.162l0.729-0.424l1.18,0.446l1.028,0.593l-3.419,1.987l0.951,0.549
									l-0.742,0.431l-2.93-1.692l0.742-0.431l0.958,0.553l2.689-1.563L295.088,110.162 M301.76,116.138
									c-0.428-0.247-0.646-0.52-0.66-0.815c-0.021-0.298,0.182-0.564,0.588-0.8c0.443-0.258,0.952-0.383,1.512-0.369
									c0.561,0.007,1.09,0.158,1.581,0.442c0.549,0.317,0.786,0.667,0.719,1.055c-0.067,0.379-0.435,0.771-1.107,1.161
									c-0.685,0.398-1.396,0.612-2.141,0.638c-0.745,0.026-1.42-0.136-2.033-0.49c-0.191-0.11-0.37-0.229-0.518-0.35
									c-0.153-0.118-0.287-0.247-0.402-0.38l0.773-0.45c0.09,0.147,0.199,0.277,0.314,0.395c0.115,0.111,0.256,0.214,0.409,0.302
									c0.318,0.184,0.656,0.276,1.013,0.276c0.363,0.004,0.726-0.088,1.106-0.273c-0.217-0.022-0.421-0.059-0.619-0.114
									C302.11,116.311,301.926,116.233,301.76,116.138 M283.835,107.5c-0.696-0.401-1.055-0.836-1.076-1.297
									c-0.022-0.461,0.3-0.885,0.96-1.268c0.672-0.391,1.409-0.575,2.212-0.561c0.795,0.019,1.56,0.232,2.282,0.649
									c0.281,0.162,0.523,0.332,0.722,0.512c0.205,0.177,0.365,0.358,0.493,0.549l-0.863,0.501
									c-0.103-0.214-0.231-0.405-0.398-0.575c-0.172-0.173-0.371-0.324-0.601-0.457c-0.434-0.25-0.886-0.372-1.351-0.369
									c-0.471,0.007-0.935,0.137-1.378,0.395c-0.438,0.254-0.666,0.52-0.683,0.789s0.188,0.52,0.603,0.759
									c0.108,0.062,0.224,0.122,0.332,0.169c0.108,0.048,0.223,0.085,0.319,0.111l0.812-0.472l-0.658-0.379l0.717-0.417
									l1.686,0.974l-1.998,1.161c-0.402-0.078-0.778-0.185-1.135-0.31C284.473,107.832,284.142,107.677,283.835,107.5
									 M296.84,115.009c-0.549-0.317-0.787-0.674-0.712-1.065c0.081-0.387,0.454-0.782,1.146-1.184
									c0.691-0.402,1.377-0.623,2.046-0.671c0.674-0.044,1.292,0.092,1.841,0.409c0.556,0.321,0.786,0.675,0.713,1.065
									c-0.074,0.391-0.461,0.785-1.152,1.187s-1.364,0.623-2.039,0.667C298.008,115.463,297.396,115.33,296.84,115.009
									 M318.92,117.844l-39.776-22.966l-12.42,7.218l39.776,22.966l7.435-4.32L318.92,117.844"/>
								<polyline fill="#CFD0D2" points="422.754,163.231 412.155,157.111 394.597,167.315 350.812,142.034 346.215,139.38
									326.441,127.963 316.488,122.216 251.242,160.135 240.985,166.096 212.872,182.434 181.739,200.526 194.375,207.822
									312.352,139.259 388.424,183.182 422.754,163.231 								"/>
								<polyline fill="#CFD0D2" points="350.379,134.001 341.989,129.158 337.809,131.587 346.198,136.431 350.379,134.001
																	"/>
								<polyline fill="#CFD0D2" points="361.219,127.702 344,117.759 328.979,126.489 335.255,130.112 341.973,126.209
									352.915,132.527 361.219,127.702 								"/>
								<polyline fill="#EC7405" points="368.369,131.831 363.772,129.176 348.752,137.906 353.349,140.56 368.369,131.831
									"/>
								<path id="G1.07" fill="#CFD0D2" d="M314.379,104.816c-0.229-0.133-0.503-0.166-0.809-0.1c-0.317,0.066-0.736,0.251-1.257,0.553
									c-0.521,0.303-0.843,0.55-0.956,0.734c-0.121,0.181-0.062,0.339,0.168,0.472c0.229,0.133,0.503,0.166,0.821,0.1
									c0.312-0.07,0.736-0.258,1.257-0.561s0.837-0.546,0.957-0.727C314.674,105.111,314.615,104.953,314.379,104.816
									 M303.623,98.922l0.729-0.424l1.173,0.442l1.028,0.594l-3.419,1.987l0.958,0.553l-0.742,0.431l-2.931-1.692l0.742-0.431
									l0.951,0.549l2.689-1.563L303.623,98.922 M309.044,102.052l0.729-0.424l1.18,0.447l1.027,0.593l-3.419,1.987l0.951,0.549
									l-0.742,0.431l-2.93-1.692l0.741-0.431l0.958,0.553l2.69-1.563L309.044,102.052 M316.347,106.107l0.793-0.461l3.154,1.821
									l-0.609,0.354l-5.187,1.121l-1.054-0.608l4.913-1.065L316.347,106.107 M297.79,99.39c-0.696-0.402-1.055-0.837-1.076-1.297
									c-0.022-0.461,0.3-0.885,0.96-1.269c0.672-0.391,1.409-0.575,2.212-0.56c0.795,0.019,1.56,0.232,2.281,0.649
									c0.281,0.162,0.524,0.332,0.722,0.512c0.205,0.177,0.365,0.358,0.493,0.549l-0.862,0.501
									c-0.103-0.214-0.237-0.401-0.397-0.575c-0.173-0.173-0.371-0.324-0.601-0.457c-0.435-0.25-0.887-0.373-1.352-0.369
									c-0.471,0.007-0.935,0.136-1.379,0.395c-0.438,0.254-0.665,0.52-0.683,0.789s0.187,0.52,0.603,0.76
									c0.108,0.062,0.223,0.122,0.332,0.169c0.108,0.048,0.223,0.084,0.318,0.11l0.812-0.472l-0.657-0.38l0.717-0.417l1.686,0.973
									l-1.998,1.162c-0.401-0.078-0.777-0.185-1.134-0.31C298.428,99.722,298.097,99.567,297.79,99.39 M310.795,106.899
									c-0.549-0.317-0.792-0.671-0.712-1.065c0.081-0.387,0.454-0.782,1.146-1.184c0.691-0.401,1.377-0.623,2.045-0.671
									c0.675-0.044,1.293,0.093,1.842,0.41c0.556,0.321,0.787,0.674,0.712,1.065c-0.074,0.391-0.46,0.786-1.151,1.188
									c-0.691,0.401-1.364,0.623-2.039,0.667C311.956,107.356,311.351,107.22,310.795,106.899 M331.492,110.538l-39.776-22.966
									l-10.035,5.832l39.775,22.966l7.529-4.375L331.492,110.538"/>
								<polyline fill="#EC7405" points="409.602,155.637 370.924,133.305 355.902,142.034 394.581,164.367 409.602,155.637
																	"/>
								<polyline fill="#CFD0D2" points="341.445,116.285 334.046,112.012 319.025,120.742 326.425,125.014 341.445,116.285
																	"/>
								<polyline fill="#CFD0D2" points="365.984,210.314 355.878,204.479 288.076,243.883 298.182,249.718 342.4,224.02
									352.654,229.94 363.12,223.857 352.867,217.938 365.984,210.314 								"/>
								<path id="G1.12" fill="#BDD4E4" d="M183.312,168.842l0.73-0.424l1.173,0.442l1.028,0.593l-3.419,1.987l0.958,0.553l-0.742,0.431
									l-2.931-1.692l0.742-0.431l0.952,0.549l2.69-1.563L183.312,168.842 M188.732,171.972l0.729-0.424l1.18,0.446l1.028,0.593
									l-3.419,1.987l0.951,0.549l-0.742,0.431l-2.931-1.692l0.742-0.431l0.958,0.553l2.69-1.563L188.732,171.972 M192.448,174.117
									l0.729-0.424l1.173,0.442l1.028,0.594l-3.419,1.987l0.951,0.549l-0.742,0.431l-2.924-1.688l0.742-0.431l0.951,0.549
									l2.69-1.563L192.448,174.117 M177.479,169.31c-0.696-0.402-1.055-0.837-1.076-1.297c-0.022-0.461,0.3-0.885,0.96-1.269
									c0.673-0.391,1.41-0.575,2.212-0.56c0.802,0.015,1.56,0.232,2.281,0.649c0.281,0.162,0.524,0.332,0.729,0.508
									c0.199,0.181,0.358,0.362,0.487,0.553l-0.863,0.501c-0.103-0.214-0.231-0.405-0.397-0.576
									c-0.173-0.173-0.371-0.324-0.601-0.457c-0.434-0.251-0.881-0.376-1.351-0.369c-0.471,0.007-0.935,0.136-1.379,0.395
									c-0.438,0.254-0.666,0.52-0.677,0.785c-0.018,0.269,0.181,0.523,0.596,0.763c0.108,0.062,0.223,0.122,0.332,0.169
									c0.109,0.048,0.224,0.084,0.319,0.11l0.812-0.472l-0.658-0.38l0.717-0.417l1.686,0.973l-1.998,1.161
									c-0.402-0.077-0.778-0.184-1.128-0.313C178.117,169.642,177.785,169.487,177.479,169.31 M195.82,176.24l0.913-0.531
									c0.325,0.092,0.625,0.199,0.905,0.31c0.281,0.11,0.536,0.236,0.766,0.369c0.498,0.288,0.78,0.575,0.839,0.866
									c0.053,0.287-0.111,0.545-0.499,0.771c-0.228,0.133-0.501,0.225-0.813,0.266c-0.312,0.047-0.827,0.059-1.534,0.033
									l-1.674-0.063l1.838,1.062l-0.787,0.457l-3.045-1.758l0.787-0.457l2.877,0.103c0.255,0.007,0.478-0.003,0.655-0.033
									c0.191-0.029,0.343-0.081,0.47-0.155c0.197-0.114,0.292-0.243,0.271-0.387c-0.014-0.147-0.129-0.28-0.353-0.409
									c-0.166-0.096-0.383-0.185-0.656-0.255C196.515,176.355,196.19,176.292,195.82,176.24 M235.894,166.096l-39.775-22.966
									l-56.708,32.957l39.776,22.966l24.809-14.417L235.894,166.096"/>
								<path id="G1.25" fill="#BDD4E4" d="M296.742,260.718l0.653-0.38l1.046,0.398l0.913,0.527l-3.038,1.766l0.849,0.49l-0.66,0.384
									l-2.605-1.504l0.66-0.384l0.849,0.49l2.392-1.39L296.742,260.718 M302.056,265.233l2.081-1.209l2.388,1.379l-0.704,0.409
									l-1.622-0.937l-0.571,0.332c0.097,0.033,0.186,0.062,0.269,0.104c0.083,0.033,0.166,0.073,0.249,0.121
									c0.453,0.262,0.69,0.531,0.724,0.808c0.021,0.276-0.169,0.534-0.568,0.767c-0.4,0.232-0.845,0.336-1.348,0.31
									c-0.509-0.029-1-0.181-1.492-0.464c-0.211-0.122-0.396-0.259-0.562-0.398c-0.173-0.144-0.313-0.299-0.436-0.465l0.748-0.435
									c0.09,0.185,0.2,0.343,0.321,0.486c0.121,0.137,0.27,0.251,0.429,0.343c0.236,0.137,0.472,0.206,0.714,0.222
									c0.248,0.011,0.471-0.037,0.667-0.151c0.197-0.114,0.278-0.243,0.259-0.387c-0.026-0.141-0.148-0.276-0.385-0.413
									c-0.134-0.077-0.299-0.151-0.49-0.226C302.533,265.363,302.304,265.297,302.056,265.233 M286.737,258.352
									c-0.62-0.357-0.933-0.744-0.955-1.154c-0.015-0.405,0.27-0.785,0.859-1.128c0.596-0.347,1.25-0.513,1.964-0.497
									c0.712,0.015,1.381,0.21,2.021,0.578c0.249,0.144,0.466,0.292,0.645,0.453c0.186,0.159,0.327,0.321,0.442,0.49l-0.768,0.446
									c-0.09-0.191-0.206-0.361-0.359-0.516c-0.147-0.151-0.326-0.284-0.53-0.402c-0.383-0.221-0.779-0.331-1.205-0.328
									c-0.414,0.004-0.82,0.122-1.213,0.351c-0.394,0.229-0.602,0.461-0.607,0.7c-0.018,0.24,0.155,0.465,0.526,0.679
									c0.095,0.055,0.197,0.106,0.293,0.147c0.102,0.044,0.198,0.077,0.287,0.1l0.723-0.42l-0.581-0.336l0.635-0.369l1.494,0.863
									l-1.776,1.032c-0.357-0.074-0.689-0.162-1.008-0.28C287.312,258.646,287.012,258.51,286.737,258.352 M291.629,257.92
									l0.812-0.472c0.286,0.085,0.554,0.173,0.803,0.272c0.243,0.104,0.473,0.214,0.677,0.332c0.44,0.254,0.696,0.513,0.743,0.767
									c0.059,0.255-0.093,0.483-0.442,0.687c-0.202,0.117-0.444,0.198-0.717,0.239c-0.28,0.037-0.732,0.048-1.362,0.021
									l-1.495-0.056l1.641,0.948l-0.698,0.405l-2.707-1.563l0.698-0.405l2.552,0.093c0.229,0.007,0.427-0.004,0.592-0.033
									c0.167-0.022,0.299-0.07,0.413-0.137c0.171-0.1,0.254-0.214,0.247-0.343c-0.021-0.129-0.117-0.251-0.314-0.365
									c-0.147-0.084-0.345-0.162-0.587-0.229S291.96,257.965,291.629,257.92 M299.751,262.609l0.812-0.472
									c0.287,0.085,0.555,0.173,0.803,0.272c0.242,0.104,0.473,0.214,0.67,0.328c0.447,0.258,0.697,0.513,0.749,0.771
									c0.06,0.254-0.093,0.483-0.441,0.686c-0.202,0.118-0.444,0.199-0.725,0.235c-0.273,0.041-0.725,0.053-1.355,0.026
									l-1.495-0.056l1.642,0.948l-0.698,0.405l-2.708-1.563l0.698-0.405l2.552,0.092c0.229,0.008,0.426-0.004,0.591-0.033
									c0.16-0.025,0.299-0.069,0.413-0.136c0.172-0.1,0.254-0.214,0.24-0.347c-0.014-0.126-0.109-0.247-0.308-0.361
									c-0.146-0.085-0.344-0.162-0.586-0.229S300.074,262.649,299.751,262.609 M320.507,265.555l-34.975-20.194l-16.156,9.39
									l34.975,20.193L320.507,265.555"/>
								<path id="G1.26" fill="#BDD4E4" d="M270.374,246.698c-0.166-0.096-0.351-0.136-0.541-0.121c-0.191,0.015-0.401,0.085-0.617,0.21
									s-0.33,0.243-0.354,0.354c-0.032,0.114,0.045,0.218,0.211,0.313c0.167,0.096,0.345,0.14,0.548,0.125
									c0.19-0.014,0.388-0.085,0.603-0.21s0.342-0.243,0.367-0.354C270.61,246.901,270.54,246.795,270.374,246.698
									 M263.542,241.549l0.653-0.38l1.045,0.398l0.913,0.526l-3.039,1.767l0.849,0.49l-0.659,0.383l-2.605-1.504l0.66-0.383
									l0.849,0.49l2.392-1.39L263.542,241.549 M253.537,239.183c-0.619-0.358-0.933-0.745-0.954-1.154
									c-0.015-0.405,0.27-0.785,0.859-1.128c0.596-0.347,1.25-0.513,1.964-0.498c0.712,0.015,1.381,0.21,2.02,0.579
									c0.249,0.144,0.466,0.291,0.646,0.453c0.186,0.159,0.327,0.321,0.442,0.49l-0.767,0.446
									c-0.09-0.191-0.206-0.361-0.359-0.516c-0.147-0.151-0.326-0.284-0.531-0.402c-0.383-0.222-0.778-0.332-1.205-0.328
									c-0.414,0.004-0.82,0.122-1.213,0.351c-0.394,0.229-0.602,0.461-0.607,0.7c-0.018,0.239,0.155,0.465,0.525,0.678
									c0.097,0.056,0.198,0.107,0.294,0.147c0.102,0.045,0.197,0.077,0.287,0.1l0.723-0.42l-0.581-0.335l0.634-0.369l1.494,0.862
									l-1.776,1.032c-0.351-0.069-0.688-0.162-1.007-0.279C254.112,239.478,253.812,239.341,253.537,239.183 M258.429,238.751
									l0.812-0.472c0.286,0.084,0.554,0.173,0.802,0.272c0.242,0.104,0.472,0.214,0.677,0.332c0.44,0.254,0.697,0.512,0.742,0.767
									c0.06,0.254-0.092,0.483-0.441,0.686c-0.202,0.118-0.444,0.199-0.717,0.24c-0.28,0.036-0.732,0.048-1.362,0.021
									l-1.489-0.052l1.635,0.944l-0.698,0.405l-2.707-1.563l0.698-0.405l2.552,0.092c0.229,0.008,0.427-0.004,0.592-0.033
									c0.166-0.022,0.298-0.069,0.413-0.136c0.172-0.1,0.254-0.214,0.247-0.344c-0.021-0.129-0.116-0.25-0.314-0.364
									c-0.146-0.085-0.344-0.162-0.586-0.229S258.76,238.795,258.429,238.751 M266.55,243.439l0.812-0.472
									c0.287,0.085,0.555,0.174,0.803,0.273c0.242,0.103,0.472,0.214,0.67,0.328c0.447,0.258,0.697,0.512,0.749,0.771
									c0.059,0.254-0.092,0.482-0.441,0.686c-0.203,0.117-0.444,0.199-0.725,0.235c-0.273,0.041-0.726,0.052-1.355,0.026
									l-1.495-0.056l1.641,0.947l-0.698,0.405l-2.707-1.562l0.698-0.405l2.552,0.092c0.229,0.008,0.427-0.004,0.592-0.033
									c0.159-0.025,0.298-0.069,0.413-0.136c0.171-0.1,0.253-0.215,0.241-0.348c-0.014-0.125-0.11-0.246-0.308-0.361
									c-0.147-0.084-0.344-0.161-0.586-0.228C267.163,243.536,266.875,243.48,266.55,243.439 M268.458,247.797
									c-0.479-0.275-0.69-0.59-0.635-0.933c0.062-0.339,0.391-0.686,0.987-1.031c0.609-0.354,1.244-0.546,1.905-0.568
									c0.656-0.025,1.261,0.118,1.803,0.431c0.173,0.1,0.327,0.203,0.454,0.313c0.135,0.107,0.255,0.222,0.365,0.344l-0.686,0.398
									c-0.083-0.138-0.18-0.252-0.282-0.354c-0.108-0.1-0.224-0.188-0.357-0.266c-0.288-0.166-0.588-0.251-0.905-0.251
									c-0.318,0.001-0.644,0.085-0.986,0.247c0.198,0.019,0.369,0.052,0.542,0.1c0.166,0.052,0.325,0.122,0.479,0.211
									c0.383,0.221,0.581,0.46,0.589,0.722c0.014,0.266-0.156,0.498-0.518,0.708c-0.4,0.232-0.845,0.343-1.341,0.328
									C269.371,248.185,268.899,248.052,268.458,247.797 M305.198,230.973l-25.43-14.683l-49.109,28.54l0.006,0.003
									l-20.317,11.808l20.188,11.656l9.534-5.54l5.235,3.022l21.517-12.504l18.699-10.867L305.198,230.973"/>
								<path id="G1.27" fill="#BDD4E4" d="M276.66,272.389l0.647-0.376l1.046,0.398l0.913,0.527l-3.039,1.767l0.849,0.489l-0.66,0.384
									l-2.605-1.504l0.66-0.384l0.849,0.49l2.392-1.39L276.66,272.389 M283.152,275.991l0.698-0.406l2.802,1.618l-0.54,0.313
									l-4.608,0.999l-0.932-0.538l4.373-0.951L283.152,275.991 M266.655,270.022c-0.62-0.357-0.94-0.74-0.961-1.15
									c-0.015-0.405,0.27-0.785,0.859-1.128c0.596-0.347,1.25-0.513,1.964-0.498c0.712,0.016,1.388,0.207,2.026,0.576
									c0.249,0.144,0.46,0.295,0.646,0.453c0.179,0.162,0.327,0.32,0.436,0.493l-0.762,0.442
									c-0.096-0.188-0.212-0.357-0.365-0.512c-0.147-0.151-0.32-0.288-0.524-0.406c-0.383-0.221-0.785-0.327-1.211-0.324
									c-0.414,0.004-0.82,0.122-1.213,0.351c-0.394,0.229-0.596,0.457-0.607,0.7c-0.018,0.24,0.161,0.461,0.532,0.675
									c0.095,0.056,0.197,0.107,0.287,0.151c0.102,0.044,0.198,0.077,0.293,0.096l0.716-0.416l-0.581-0.336l0.641-0.372
									l1.494,0.862l-1.782,1.036c-0.357-0.074-0.689-0.162-1.008-0.28C267.223,270.321,266.93,270.181,266.655,270.022
									 M271.54,269.595l0.812-0.472c0.286,0.085,0.554,0.173,0.803,0.272c0.25,0.1,0.479,0.211,0.683,0.329
									c0.44,0.254,0.69,0.516,0.743,0.767c0.052,0.258-0.1,0.486-0.449,0.688c-0.203,0.118-0.438,0.195-0.717,0.24
									c-0.28,0.037-0.732,0.048-1.362,0.021l-1.495-0.056l1.641,0.948l-0.698,0.405l-2.707-1.563l0.698-0.405l2.552,0.093
									c0.236,0.003,0.427-0.004,0.592-0.033c0.167-0.022,0.299-0.07,0.413-0.137c0.171-0.1,0.254-0.214,0.247-0.343
									c-0.015-0.133-0.117-0.251-0.314-0.365c-0.147-0.084-0.345-0.162-0.587-0.229S271.871,269.64,271.54,269.595
									 M279.662,274.284l0.812-0.472c0.287,0.084,0.554,0.173,0.803,0.272c0.249,0.1,0.479,0.21,0.677,0.324
									c0.447,0.258,0.69,0.517,0.749,0.771c0.053,0.258-0.099,0.487-0.448,0.689c-0.203,0.118-0.438,0.195-0.725,0.236
									c-0.273,0.04-0.725,0.052-1.355,0.025l-1.495-0.056l1.641,0.948l-0.698,0.405l-2.708-1.563l0.698-0.405l2.552,0.092
									c0.235,0.004,0.427-0.004,0.592-0.033c0.159-0.025,0.298-0.069,0.413-0.136c0.171-0.1,0.254-0.214,0.241-0.347
									c-0.008-0.129-0.11-0.247-0.308-0.361c-0.147-0.085-0.344-0.162-0.586-0.229
									C280.273,274.38,279.986,274.324,279.662,274.284 M301.813,276.419l-34.975-20.194l-18.979,11.029l34.975,20.194
									L301.813,276.419"/>
								<path id="G1.24" fill="#BDD4E4" d="M333.271,255.06l-2.602,0.291l1.054,0.608L333.271,255.06 M325.329,250.518l0.647-0.376l1.046,0.398
									l0.906,0.523l-3.038,1.766l0.849,0.49l-0.66,0.383l-2.599-1.5l0.66-0.383l0.843,0.486l2.392-1.39L325.329,250.518
									 M329.379,255.406l0.817-0.476l3.702-0.421l1.066,0.616l-2.335,1.356l0.53,0.307l-0.691,0.401l-0.529-0.307l-0.673,0.392
									l-0.907-0.524l0.673-0.391L329.379,255.406 M315.324,248.151c-0.619-0.357-0.939-0.741-0.961-1.15
									c-0.022-0.409,0.269-0.785,0.859-1.128c0.596-0.347,1.251-0.513,1.963-0.498c0.707,0.011,1.389,0.207,2.027,0.575
									c0.249,0.144,0.46,0.295,0.646,0.454c0.172,0.158,0.325,0.32,0.429,0.489l-0.762,0.442
									c-0.091-0.184-0.213-0.357-0.359-0.508c-0.147-0.151-0.32-0.288-0.531-0.409c-0.376-0.218-0.784-0.329-1.204-0.321
									c-0.413,0.004-0.826,0.118-1.219,0.347c-0.395,0.229-0.59,0.461-0.607,0.7c-0.019,0.24,0.167,0.465,0.532,0.675
									c0.102,0.059,0.203,0.11,0.3,0.151c0.089,0.044,0.191,0.073,0.286,0.1l0.717-0.417l-0.587-0.339l0.641-0.373l1.5,0.867
									l-1.782,1.035c-0.356-0.073-0.694-0.166-1.007-0.279C315.893,248.45,315.599,248.31,315.324,248.151 M320.209,247.724
									l0.812-0.472c0.281,0.081,0.556,0.173,0.805,0.272c0.248,0.1,0.472,0.206,0.676,0.324c0.447,0.259,0.69,0.516,0.749,0.771
									c0.052,0.258-0.1,0.486-0.448,0.689c-0.203,0.118-0.438,0.195-0.724,0.236c-0.274,0.04-0.732,0.048-1.355,0.025
									l-1.496-0.055l1.641,0.947l-0.697,0.405l-2.707-1.563l0.697-0.405l2.553,0.093c0.235,0.003,0.426-0.004,0.592-0.033
									c0.159-0.026,0.299-0.07,0.413-0.137c0.171-0.1,0.247-0.218,0.239-0.347c-0.007-0.129-0.116-0.251-0.307-0.361
									c-0.153-0.089-0.345-0.162-0.587-0.229C320.82,247.819,320.534,247.764,320.209,247.724 M328.324,252.409l0.812-0.472
									c0.287,0.084,0.562,0.176,0.81,0.275c0.249,0.101,0.473,0.207,0.677,0.325c0.446,0.258,0.69,0.516,0.749,0.771
									c0.046,0.254-0.1,0.486-0.448,0.689c-0.203,0.118-0.438,0.195-0.724,0.235c-0.273,0.041-0.731,0.049-1.355,0.026
									l-1.496-0.056l1.641,0.947l-0.697,0.405l-2.707-1.562l0.697-0.405l2.553,0.092c0.235,0.004,0.427-0.003,0.592-0.033
									c0.159-0.026,0.298-0.07,0.412-0.137c0.172-0.1,0.248-0.218,0.24-0.346c-0.007-0.129-0.115-0.251-0.307-0.361
									c-0.154-0.089-0.345-0.163-0.587-0.229C328.941,252.509,328.655,252.453,328.324,252.409 M349.939,248.45l-22.32-12.888
									l-26.89,15.627l22.321,12.887l13.441-7.812L349.939,248.45"/>
								<path id="G1.21" fill="#CFD0D2" d="M379.665,218.94l0.653-0.38l1.046,0.398l0.906,0.523l-3.038,1.766l0.849,0.49l-0.659,0.383l-2.6-1.5
									l0.66-0.384l0.843,0.487l2.392-1.39L379.665,218.94 M386.261,222.748l0.653-0.38l1.045,0.398l0.913,0.527l-3.038,1.766
									l0.85,0.49l-0.66,0.384l-2.604-1.504l0.659-0.384l0.849,0.49l2.392-1.39L386.261,222.748 M369.66,216.573
									c-0.619-0.357-0.939-0.741-0.954-1.153c-0.022-0.41,0.269-0.786,0.858-1.129c0.597-0.347,1.251-0.512,1.964-0.497
									c0.7,0.015,1.382,0.21,2.021,0.579c0.249,0.144,0.467,0.291,0.646,0.453c0.179,0.154,0.326,0.32,0.436,0.486l-0.768,0.446
									c-0.084-0.188-0.206-0.361-0.354-0.513c-0.146-0.151-0.326-0.283-0.537-0.405c-0.376-0.217-0.778-0.332-1.198-0.324
									c-0.412,0.004-0.826,0.118-1.219,0.347c-0.394,0.229-0.597,0.464-0.607,0.7c-0.018,0.239,0.161,0.468,0.525,0.679
									c0.103,0.059,0.204,0.109,0.3,0.15s0.192,0.074,0.287,0.1l0.724-0.42l-0.588-0.34l0.635-0.368l1.5,0.866l-1.775,1.032
									c-0.357-0.073-0.695-0.166-1.008-0.28S369.935,216.732,369.66,216.573 M374.552,216.143l0.812-0.473
									c0.28,0.081,0.555,0.174,0.804,0.273c0.242,0.104,0.466,0.21,0.67,0.328c0.447,0.258,0.696,0.512,0.749,0.771
									c0.059,0.254-0.093,0.482-0.442,0.686c-0.202,0.117-0.443,0.199-0.724,0.235c-0.28,0.044-0.731,0.048-1.355,0.026
									l-1.495-0.056l1.641,0.947l-0.698,0.406l-2.707-1.563l0.698-0.405l2.553,0.092c0.229,0.008,0.426-0.004,0.591-0.033
									c0.159-0.025,0.299-0.069,0.413-0.136c0.172-0.1,0.247-0.218,0.24-0.347c-0.014-0.126-0.116-0.251-0.308-0.361
									c-0.153-0.089-0.345-0.162-0.587-0.229S374.877,216.183,374.552,216.143 M382.666,220.828l0.812-0.473
									c0.287,0.085,0.561,0.177,0.81,0.276c0.243,0.104,0.465,0.21,0.67,0.328c0.446,0.258,0.696,0.513,0.749,0.771
									c0.053,0.251-0.093,0.483-0.441,0.686c-0.203,0.118-0.444,0.199-0.725,0.236c-0.279,0.044-0.731,0.048-1.355,0.025
									l-1.496-0.055l1.642,0.947l-0.698,0.405l-2.707-1.563l0.698-0.405l2.552,0.093c0.229,0.007,0.428-0.004,0.592-0.033
									c0.159-0.026,0.299-0.07,0.413-0.137c0.171-0.1,0.247-0.218,0.24-0.347c-0.013-0.125-0.116-0.25-0.308-0.36
									c-0.154-0.089-0.345-0.163-0.587-0.229S382.997,220.871,382.666,220.828 M398.224,220.389l-22.314-12.884l-17.951,10.433
									l22.314,12.884L398.224,220.389"/>
								<path id="G1.30" fill="#BDD4E4" d="M255.505,215.56c-0.204-0.118-0.446-0.147-0.719-0.092c-0.28,0.059-0.655,0.225-1.112,0.49
									c-0.469,0.272-0.754,0.49-0.855,0.652c-0.107,0.166-0.056,0.306,0.148,0.424c0.205,0.118,0.446,0.147,0.732,0.085
									c0.279-0.06,0.654-0.225,1.123-0.498c0.457-0.266,0.742-0.482,0.844-0.646C255.761,215.817,255.709,215.678,255.505,215.56
									 M247.469,211.198l0.647-0.375l1.045,0.39l0.913,0.527l-3.045,1.77l0.85,0.491l-0.66,0.383l-2.605-1.504l0.659-0.384
									l0.85,0.49l2.392-1.39L247.469,211.198 M237.458,208.828c-0.62-0.357-0.94-0.741-0.956-1.146
									c-0.015-0.413,0.263-0.789,0.853-1.132c0.596-0.346,1.251-0.512,1.964-0.498s1.388,0.207,2.033,0.579
									c0.242,0.14,0.459,0.295,0.639,0.45c0.185,0.159,0.326,0.32,0.441,0.49l-0.767,0.446c-0.097-0.188-0.212-0.357-0.359-0.509
									c-0.141-0.155-0.326-0.291-0.53-0.409c-0.383-0.221-0.785-0.328-1.198-0.324c-0.426,0.003-0.827,0.118-1.227,0.35
									c-0.387,0.225-0.589,0.461-0.607,0.701c-0.011,0.236,0.162,0.46,0.532,0.674c0.102,0.059,0.198,0.107,0.3,0.151
									c0.095,0.041,0.191,0.074,0.287,0.1l0.716-0.417l-0.587-0.339l0.641-0.372l1.494,0.862l-1.776,1.032
									c-0.357-0.066-0.688-0.162-1.007-0.28C238.032,209.123,237.732,208.986,237.458,208.828 M242.349,208.397l0.812-0.472
									c0.286,0.084,0.548,0.177,0.796,0.276c0.255,0.103,0.479,0.21,0.683,0.328c0.447,0.258,0.697,0.512,0.742,0.767
									c0.053,0.258-0.099,0.487-0.447,0.689c-0.197,0.115-0.438,0.196-0.711,0.236c-0.287,0.041-0.739,0.052-1.368,0.026
									l-1.483-0.055l1.635,0.943l-0.705,0.409l-2.701-1.559l0.704-0.409l2.546,0.088c0.229,0.008,0.426-0.004,0.591-0.025
									c0.166-0.03,0.299-0.078,0.407-0.14c0.177-0.104,0.26-0.218,0.247-0.343c-0.014-0.132-0.116-0.25-0.314-0.365
									c-0.147-0.085-0.344-0.162-0.58-0.225C242.96,208.5,242.673,208.445,242.349,208.397 M250.73,213.038l0.698-0.405
									c0.236,0.077,0.472,0.162,0.682,0.254c0.211,0.093,0.408,0.192,0.587,0.295c0.485,0.28,0.767,0.531,0.851,0.764
									c0.084,0.231-0.042,0.438-0.359,0.623c-0.215,0.125-0.45,0.195-0.699,0.206c-0.254,0.015-0.515-0.025-0.796-0.122
									c0.186,0.181,0.263,0.358,0.232,0.523c-0.025,0.17-0.164,0.325-0.411,0.469c-0.368,0.214-0.787,0.295-1.259,0.243
									c-0.477-0.056-0.981-0.236-1.523-0.55c-0.191-0.11-0.371-0.228-0.53-0.357c-0.16-0.129-0.307-0.265-0.429-0.409l0.736-0.428
									c0.09,0.155,0.199,0.299,0.327,0.425c0.135,0.129,0.282,0.243,0.454,0.343c0.255,0.147,0.498,0.235,0.72,0.262
									c0.223,0.025,0.42-0.008,0.579-0.1c0.171-0.1,0.228-0.214,0.176-0.347c-0.058-0.129-0.218-0.272-0.486-0.428l-0.383-0.221
									l0.615-0.357l0.402,0.231c0.242,0.141,0.459,0.222,0.65,0.243c0.198,0.026,0.369-0.007,0.521-0.096
									c0.14-0.081,0.196-0.181,0.157-0.291c-0.038-0.11-0.16-0.225-0.371-0.347c-0.154-0.088-0.326-0.173-0.523-0.243
									C251.164,213.148,250.954,213.086,250.73,213.038 M252.321,217.41c-0.491-0.284-0.704-0.597-0.635-0.947
									c0.068-0.343,0.409-0.696,1.018-1.051c0.616-0.357,1.225-0.557,1.817-0.597c0.604-0.041,1.146,0.081,1.637,0.364
									c0.492,0.284,0.704,0.598,0.629,0.944c-0.062,0.347-0.403,0.7-1.018,1.058c-0.609,0.354-1.219,0.553-1.817,0.59
									C253.354,217.815,252.813,217.694,252.321,217.41 M270.236,210.786l-23.572-13.61l-23.419,13.61l23.572,13.611
									L270.236,210.786"/>
								<path id="G1.23" fill="#CFD0D2" d="M348.584,237.004l0.652-0.38l1.046,0.397l0.907,0.524l-3.039,1.766l0.849,0.49l-0.659,0.383
									l-2.599-1.5l0.659-0.384l0.844,0.487l2.385-1.387L348.584,237.004 M338.578,234.637c-0.619-0.357-0.939-0.741-0.954-1.153
									c-0.022-0.41,0.269-0.786,0.858-1.129c0.597-0.347,1.252-0.512,1.964-0.497c0.7,0.015,1.383,0.21,2.021,0.578
									c0.25,0.145,0.467,0.292,0.646,0.454c0.178,0.154,0.325,0.32,0.435,0.486l-0.768,0.446
									c-0.084-0.188-0.206-0.361-0.353-0.513c-0.147-0.151-0.326-0.284-0.537-0.405c-0.376-0.218-0.778-0.332-1.198-0.324
									c-0.413,0.004-0.826,0.117-1.22,0.347c-0.394,0.229-0.596,0.464-0.607,0.7c-0.018,0.239,0.161,0.468,0.526,0.678
									c0.102,0.06,0.204,0.11,0.3,0.151c0.096,0.04,0.191,0.074,0.287,0.1l0.723-0.42l-0.588-0.34l0.635-0.368l1.5,0.866
									l-1.775,1.032c-0.357-0.073-0.695-0.166-1.007-0.28C339.152,234.932,338.853,234.795,338.578,234.637 M343.47,234.205
									l0.812-0.472c0.281,0.081,0.556,0.174,0.804,0.273c0.243,0.103,0.466,0.21,0.671,0.328c0.446,0.258,0.695,0.512,0.748,0.771
									c0.059,0.254-0.093,0.482-0.441,0.685c-0.203,0.118-0.444,0.2-0.725,0.236c-0.279,0.044-0.731,0.048-1.354,0.026
									l-1.496-0.056l1.641,0.947l-0.697,0.405l-2.707-1.562l0.697-0.405l2.553,0.092c0.229,0.007,0.427-0.004,0.585-0.029
									c0.166-0.029,0.306-0.074,0.42-0.14c0.171-0.1,0.247-0.218,0.239-0.347c-0.013-0.126-0.116-0.251-0.308-0.362
									c-0.152-0.088-0.345-0.162-0.587-0.229S343.795,234.246,343.47,234.205 M351.585,238.891l0.812-0.472
									c0.287,0.085,0.562,0.177,0.81,0.276c0.243,0.104,0.466,0.21,0.67,0.328c0.447,0.258,0.697,0.513,0.75,0.771
									c0.052,0.251-0.094,0.483-0.442,0.686c-0.203,0.118-0.444,0.199-0.724,0.236c-0.28,0.044-0.731,0.048-1.356,0.025
									l-1.495-0.056l1.641,0.948l-0.697,0.405l-2.707-1.563l0.697-0.405l2.552,0.092c0.229,0.008,0.428-0.003,0.586-0.029
									c0.165-0.029,0.305-0.073,0.419-0.14c0.172-0.1,0.247-0.218,0.24-0.347c-0.013-0.125-0.116-0.251-0.307-0.361
									c-0.154-0.089-0.345-0.162-0.588-0.229C352.203,238.99,351.915,238.935,351.585,238.891 M355.146,240.749l0.698-0.406
									c0.243,0.074,0.472,0.163,0.683,0.255c0.211,0.093,0.408,0.191,0.587,0.295c0.485,0.28,0.767,0.531,0.852,0.764
									c0.084,0.231-0.036,0.435-0.354,0.619c-0.216,0.125-0.45,0.195-0.705,0.21s-0.516-0.026-0.796-0.122
									c0.185,0.181,0.263,0.357,0.231,0.523c-0.023,0.17-0.163,0.324-0.41,0.469c-0.368,0.214-0.782,0.291-1.26,0.242
									c-0.477-0.055-0.981-0.235-1.523-0.548c-0.192-0.111-0.364-0.232-0.524-0.362c-0.165-0.125-0.307-0.266-0.435-0.405
									l0.735-0.428c0.09,0.155,0.206,0.295,0.327,0.425c0.135,0.129,0.288,0.239,0.461,0.339c0.255,0.147,0.497,0.235,0.713,0.265
									c0.224,0.026,0.42-0.007,0.585-0.103c0.165-0.097,0.222-0.21,0.17-0.343s-0.212-0.277-0.479-0.432l-0.383-0.222l0.608-0.354
									l0.402,0.232c0.243,0.14,0.46,0.221,0.651,0.243c0.197,0.025,0.368-0.008,0.521-0.096c0.146-0.085,0.196-0.181,0.157-0.291
									c-0.031-0.114-0.153-0.229-0.364-0.351c-0.153-0.089-0.332-0.17-0.529-0.239
									C355.58,240.859,355.369,240.797,355.146,240.749 M364.731,239.854l-22.314-12.885l-12.255,7.123l22.314,12.884
									L364.731,239.854"/>
								<path id="G1.22" fill="#CFD0D2" d="M363.812,232.547c-0.619-0.357-0.94-0.741-0.961-1.15c-0.016-0.413,0.27-0.785,0.859-1.128
									c0.596-0.347,1.25-0.513,1.963-0.498c0.707,0.012,1.389,0.207,2.027,0.575c0.249,0.144,0.46,0.295,0.646,0.454
									c0.179,0.154,0.326,0.32,0.435,0.486l-0.768,0.445c-0.084-0.188-0.212-0.357-0.359-0.509
									c-0.141-0.154-0.318-0.287-0.53-0.409c-0.383-0.221-0.783-0.327-1.197-0.323c-0.427,0.003-0.827,0.117-1.227,0.35
									c-0.387,0.225-0.59,0.461-0.607,0.7c-0.011,0.236,0.169,0.465,0.532,0.675c0.102,0.059,0.197,0.106,0.3,0.151
									c0.096,0.04,0.191,0.073,0.287,0.1l0.717-0.417l-0.588-0.339l0.641-0.372l1.501,0.866l-1.776,1.032
									c-0.363-0.07-0.694-0.167-1.007-0.28C364.387,232.842,364.087,232.705,363.812,232.547 M368.703,232.115l0.812-0.472
									c0.28,0.081,0.549,0.177,0.797,0.276c0.249,0.1,0.473,0.206,0.677,0.324c0.446,0.258,0.696,0.513,0.749,0.771
									c0.052,0.258-0.1,0.487-0.441,0.686c-0.203,0.118-0.444,0.199-0.725,0.236c-0.279,0.044-0.738,0.052-1.361,0.029
									l-1.49-0.059l1.641,0.947l-0.704,0.409l-2.706-1.563l0.703-0.409l2.553,0.093c0.229,0.007,0.427-0.004,0.586-0.03
									c0.165-0.029,0.305-0.073,0.412-0.136c0.178-0.104,0.254-0.222,0.24-0.347c-0.007-0.129-0.115-0.251-0.308-0.361
									c-0.153-0.089-0.345-0.162-0.587-0.229S369.022,232.159,368.703,232.115 M377.735,232.296l-12.061-6.964l-10.467,6.083
									l12.061,6.964L377.735,232.296"/>
								<polyline fill="#BDD4E4" points="277.214,214.814 272.79,212.261 258.474,220.58 262.898,223.135 277.214,214.814
									"/>
								<path id="G1.29" fill="#BDD4E4" d="M232.867,232.318c-0.166-0.096-0.351-0.137-0.542-0.122s-0.4,0.085-0.61,0.207
									c-0.215,0.125-0.336,0.247-0.36,0.356c-0.025,0.111,0.046,0.218,0.211,0.314c0.173,0.1,0.351,0.136,0.548,0.125
									c0.19-0.015,0.4-0.085,0.616-0.21c0.209-0.122,0.33-0.243,0.355-0.354C233.104,232.521,233.04,232.418,232.867,232.318
									 M224.863,228.034l0.654-0.38l1.04,0.395l0.913,0.527l-3.039,1.766l0.85,0.491l-0.66,0.383l-2.605-1.504l0.659-0.384
									l0.85,0.49l2.385-1.386L224.863,228.034 M214.852,225.664c-0.62-0.357-0.939-0.741-0.948-1.15
									c-0.021-0.409,0.263-0.789,0.853-1.132c0.596-0.347,1.25-0.512,1.964-0.497c0.706,0.019,1.382,0.21,2.026,0.582
									c0.243,0.141,0.466,0.291,0.639,0.45c0.186,0.158,0.327,0.32,0.442,0.49l-0.768,0.446c-0.089-0.192-0.205-0.362-0.353-0.513
									c-0.147-0.151-0.333-0.288-0.537-0.405c-0.383-0.222-0.778-0.332-1.198-0.325c-0.42,0.001-0.827,0.118-1.22,0.347
									c-0.394,0.229-0.596,0.465-0.607,0.7c-0.018,0.24,0.155,0.465,0.526,0.679c0.102,0.059,0.198,0.106,0.299,0.151
									c0.096,0.04,0.191,0.073,0.287,0.1l0.724-0.421l-0.588-0.339l0.635-0.369l1.494,0.863l-1.776,1.032
									c-0.351-0.07-0.688-0.162-1.007-0.28C215.426,225.959,215.126,225.822,214.852,225.664 M219.744,225.232l0.812-0.472
									c0.287,0.085,0.555,0.174,0.803,0.273c0.249,0.106,0.472,0.213,0.676,0.331c0.447,0.258,0.697,0.513,0.743,0.767
									c0.058,0.255-0.093,0.483-0.442,0.687c-0.203,0.117-0.444,0.198-0.718,0.239c-0.286,0.04-0.731,0.048-1.362,0.022
									l-1.489-0.053l1.634,0.944l-0.698,0.405l-2.701-1.56l0.698-0.405l2.546,0.089c0.229,0.007,0.426-0.004,0.591-0.026
									c0.166-0.029,0.299-0.077,0.413-0.144c0.171-0.1,0.253-0.214,0.246-0.343c-0.02-0.129-0.116-0.25-0.313-0.365
									c-0.147-0.084-0.345-0.162-0.58-0.225C220.361,225.332,220.074,225.277,219.744,225.232 M227.865,229.922l0.812-0.472
									c0.287,0.085,0.555,0.173,0.803,0.272c0.243,0.104,0.473,0.214,0.677,0.332c0.44,0.254,0.696,0.512,0.742,0.767
									c0.058,0.255-0.093,0.483-0.442,0.686c-0.203,0.118-0.444,0.199-0.718,0.239c-0.286,0.041-0.731,0.049-1.362,0.022
									l-1.489-0.052l1.634,0.943l-0.698,0.406l-2.707-1.563l0.698-0.405l2.552,0.092c0.229,0.008,0.426-0.003,0.585-0.029
									c0.172-0.025,0.305-0.073,0.419-0.14c0.171-0.1,0.254-0.214,0.246-0.343c-0.019-0.129-0.116-0.251-0.313-0.365
									c-0.147-0.085-0.344-0.162-0.586-0.229C228.476,230.018,228.196,229.966,227.865,229.922 M230.792,233.339
									c-0.376-0.217-0.575-0.457-0.589-0.722c-0.014-0.266,0.157-0.498,0.518-0.708c0.399-0.232,0.844-0.343,1.347-0.332
									s0.975,0.144,1.409,0.395c0.485,0.28,0.697,0.594,0.642,0.937c-0.068,0.343-0.391,0.686-0.987,1.032
									c-0.609,0.354-1.244,0.545-1.906,0.567s-1.261-0.118-1.803-0.432c-0.179-0.103-0.332-0.206-0.467-0.312
									c-0.134-0.107-0.249-0.219-0.345-0.34l0.679-0.395c0.083,0.129,0.179,0.243,0.275,0.343c0.109,0.1,0.23,0.191,0.365,0.27
									c0.287,0.166,0.586,0.251,0.905,0.25c0.318,0.001,0.648-0.081,0.985-0.247c-0.198-0.018-0.376-0.048-0.548-0.095
									C231.099,233.494,230.945,233.428,230.792,233.339 M251.258,229.899l-4.424-2.555l-26.125-15.085l-23.153,13.456
									l30.55,17.64L251.258,229.899"/>
								<path id="G1.28" fill="#BDD4E4" d="M209.664,245.898c-0.179-0.103-0.363-0.158-0.561-0.154c-0.19,0-0.375,0.056-0.559,0.162
									c-0.178,0.104-0.272,0.21-0.278,0.324c0.001,0.11,0.097,0.218,0.275,0.32c0.179,0.104,0.358,0.155,0.548,0.155
									c0.197-0.003,0.388-0.056,0.565-0.158c0.184-0.107,0.272-0.218,0.271-0.328
									C209.933,246.105,209.843,246.002,209.664,245.898 M211.18,245.018c-0.153-0.088-0.312-0.129-0.471-0.133
									c-0.166,0-0.312,0.041-0.458,0.126c-0.146,0.085-0.221,0.173-0.221,0.269c0.006,0.092,0.078,0.185,0.23,0.272
									c0.153,0.089,0.312,0.13,0.465,0.13c0.166-0.001,0.324-0.041,0.47-0.126s0.215-0.177,0.209-0.269
									C211.405,245.198,211.334,245.106,211.18,245.018 M203.087,240.689l0.647-0.376l1.045,0.392l0.913,0.526l-3.045,1.77
									l0.85,0.491l-0.66,0.383l-2.605-1.504l0.659-0.384l0.85,0.49l2.392-1.39L203.087,240.689 M193.076,238.319
									c-0.619-0.357-0.94-0.74-0.955-1.146c-0.015-0.413,0.263-0.789,0.853-1.132c0.596-0.346,1.251-0.512,1.964-0.497
									c0.713,0.015,1.388,0.206,2.033,0.579c0.243,0.14,0.459,0.294,0.639,0.449c0.185,0.158,0.326,0.32,0.442,0.49l-0.768,0.446
									c-0.096-0.188-0.212-0.358-0.359-0.509c-0.141-0.155-0.326-0.292-0.53-0.409c-0.383-0.222-0.785-0.328-1.198-0.324
									c-0.426,0.003-0.827,0.118-1.226,0.35c-0.387,0.225-0.59,0.461-0.607,0.7c-0.011,0.236,0.162,0.461,0.532,0.675
									c0.103,0.06,0.198,0.107,0.3,0.151c0.096,0.041,0.191,0.073,0.287,0.1l0.716-0.417l-0.587-0.339l0.641-0.372l1.494,0.862
									l-1.776,1.032c-0.357-0.066-0.688-0.162-1.007-0.28C193.65,238.614,193.351,238.478,193.076,238.319 M197.967,237.889
									l0.812-0.473c0.286,0.085,0.548,0.178,0.797,0.277c0.255,0.103,0.478,0.21,0.683,0.328c0.447,0.258,0.697,0.512,0.742,0.767
									c0.053,0.258-0.099,0.486-0.447,0.688c-0.197,0.114-0.438,0.196-0.711,0.236c-0.287,0.041-0.739,0.052-1.368,0.025
									l-1.484-0.055l1.635,0.943l-0.704,0.409l-2.701-1.56l0.704-0.409l2.546,0.089c0.229,0.008,0.426-0.004,0.591-0.025
									c0.166-0.03,0.299-0.078,0.407-0.141c0.178-0.103,0.26-0.217,0.247-0.343c-0.014-0.133-0.116-0.251-0.314-0.365
									c-0.147-0.085-0.345-0.162-0.58-0.225C198.579,237.991,198.292,237.937,197.967,237.889 M206.088,242.577l0.812-0.472
									c0.287,0.085,0.548,0.177,0.797,0.276c0.249,0.1,0.479,0.21,0.683,0.328c0.44,0.255,0.697,0.513,0.743,0.767
									c0.053,0.258-0.099,0.487-0.447,0.689c-0.197,0.114-0.439,0.195-0.712,0.235c-0.287,0.041-0.738,0.053-1.368,0.026
									l-1.483-0.055l1.634,0.943l-0.704,0.409l-2.707-1.563l0.704-0.409l2.553,0.093c0.229,0.007,0.426-0.004,0.584-0.029
									c0.172-0.026,0.306-0.074,0.413-0.137c0.177-0.104,0.26-0.218,0.247-0.343c-0.014-0.133-0.117-0.251-0.314-0.365
									c-0.147-0.085-0.344-0.162-0.586-0.229C206.693,242.677,206.413,242.625,206.088,242.577 M207.939,246.901
									c-0.485-0.28-0.754-0.546-0.819-0.796c-0.052-0.251,0.099-0.487,0.46-0.697c0.242-0.14,0.508-0.213,0.795-0.232
									c0.279-0.015,0.585,0.029,0.904,0.133c-0.153-0.17-0.225-0.328-0.2-0.476s0.145-0.283,0.354-0.405
									c0.311-0.181,0.673-0.25,1.062-0.21c0.401,0.04,0.828,0.191,1.281,0.453c0.454,0.262,0.71,0.505,0.787,0.733
									c0.071,0.232-0.055,0.439-0.365,0.62c-0.209,0.121-0.444,0.191-0.699,0.206c-0.254,0.015-0.528-0.025-0.821-0.114
									c0.179,0.185,0.256,0.361,0.232,0.523c-0.025,0.17-0.157,0.32-0.399,0.461c-0.361,0.21-0.761,0.302-1.201,0.269
									C208.884,247.336,208.425,247.182,207.939,246.901 M225.568,244.829l-30.55-17.639l-17.787,10.337l30.55,17.639
									L225.568,244.829"/>
								<polyline fill="#BDD4E4" points="260.36,224.609 255.936,222.056 249.371,225.871 253.795,228.425 260.36,224.609
									"/>
								<path fill="#FFFFFF" d="M302.167,96.913c-0.722-0.417-1.486-0.63-2.281-0.649c-0.803-0.015-1.54,0.169-2.212,0.56
									c-0.66,0.384-0.982,0.808-0.96,1.269c0.021,0.46,0.38,0.896,1.076,1.297c0.307,0.177,0.638,0.332,0.996,0.464
									c0.357,0.125,0.733,0.232,1.134,0.31l1.998-1.162l-1.686-0.973l-0.717,0.417l0.657,0.38l-0.812,0.472
									c-0.096-0.026-0.21-0.062-0.318-0.11c-0.109-0.048-0.224-0.107-0.332-0.169c-0.416-0.24-0.62-0.491-0.603-0.76
									s0.245-0.534,0.683-0.789c0.444-0.258,0.908-0.387,1.379-0.395c0.465-0.004,0.917,0.118,1.352,0.369
									c0.229,0.133,0.428,0.284,0.601,0.457c0.16,0.173,0.295,0.361,0.397,0.575l0.862-0.501
									c-0.128-0.191-0.288-0.372-0.493-0.549C302.691,97.245,302.448,97.075,302.167,96.913"/>
								<polyline fill="#FFFFFF" points="306.554,99.534 305.525,98.94 304.353,98.498 303.623,98.922 304.803,99.368
									302.113,100.931 301.162,100.382 300.42,100.813 303.351,102.505 304.093,102.074 303.135,101.521 306.554,99.534
									"/>
								<polyline fill="#FFFFFF" points="311.98,102.667 310.953,102.074 309.773,101.627 309.044,102.052 310.23,102.501
									307.54,104.064 306.582,103.512 305.841,103.943 308.771,105.635 309.513,105.204 308.562,104.654 311.98,102.667
									"/>
								<path fill="#FFFFFF" d="M311.525,106.476c-0.23-0.133-0.289-0.292-0.168-0.472c0.113-0.184,0.436-0.431,0.956-0.734
									c0.521-0.302,0.939-0.486,1.257-0.553c0.306-0.066,0.579-0.033,0.809,0.1c0.236,0.137,0.295,0.295,0.182,0.472
									c-0.12,0.181-0.437,0.424-0.957,0.727s-0.945,0.49-1.257,0.561C312.028,106.642,311.755,106.608,311.525,106.476
									 M315.115,104.389c-0.549-0.317-1.167-0.454-1.842-0.41c-0.668,0.048-1.354,0.27-2.045,0.671
									c-0.691,0.402-1.064,0.796-1.146,1.184c-0.08,0.395,0.163,0.749,0.712,1.065c0.556,0.321,1.161,0.457,1.842,0.409
									c0.675-0.044,1.348-0.266,2.039-0.667c0.691-0.402,1.077-0.796,1.151-1.188C315.902,105.063,315.671,104.71,315.115,104.389
									"/>
								<polyline fill="#FFFFFF" points="320.294,107.467 317.14,105.646 316.347,106.107 318.357,107.268 313.444,108.333
									314.498,108.941 319.685,107.821 320.294,107.467 								"/>
								<path fill="#FFFFFF" d="M288.212,105.023c-0.722-0.417-1.486-0.63-2.282-0.649c-0.803-0.015-1.54,0.169-2.212,0.561
									c-0.66,0.383-0.982,0.807-0.96,1.268c0.021,0.461,0.38,0.896,1.076,1.297c0.307,0.177,0.638,0.332,0.995,0.465
									c0.357,0.125,0.733,0.232,1.135,0.31l1.998-1.161l-1.686-0.974l-0.717,0.417l0.658,0.379l-0.812,0.472
									c-0.096-0.026-0.21-0.063-0.319-0.111c-0.108-0.048-0.223-0.107-0.332-0.169c-0.415-0.24-0.62-0.49-0.603-0.759
									s0.245-0.535,0.683-0.789c0.444-0.258,0.907-0.387,1.378-0.395c0.465-0.003,0.917,0.118,1.351,0.369
									c0.23,0.133,0.428,0.284,0.601,0.457c0.167,0.17,0.295,0.361,0.398,0.575l0.863-0.501c-0.128-0.191-0.288-0.372-0.493-0.549
									C288.736,105.355,288.493,105.185,288.212,105.023"/>
								<polyline fill="#FFFFFF" points="292.599,107.644 291.571,107.05 290.397,106.608 289.668,107.032 290.848,107.478
									288.158,109.041 287.207,108.492 286.465,108.923 289.396,110.615 290.138,110.184 289.18,109.631 292.599,107.644
									"/>
								<polyline fill="#FFFFFF" points="298.026,110.777 296.998,110.184 295.818,109.738 295.088,110.162 296.275,110.611
									293.585,112.175 292.627,111.622 291.886,112.053 294.816,113.745 295.558,113.313 294.607,112.765 298.026,110.777
																	"/>
								<path fill="#FFFFFF" d="M297.57,114.585c-0.23-0.133-0.289-0.292-0.168-0.472c0.113-0.185,0.437-0.432,0.957-0.734
									c0.526-0.306,0.939-0.486,1.257-0.553c0.306-0.066,0.579-0.033,0.81,0.1c0.235,0.136,0.294,0.294,0.181,0.472
									c-0.12,0.181-0.431,0.42-0.957,0.727c-0.52,0.302-0.946,0.49-1.257,0.56C298.074,114.751,297.8,114.718,297.57,114.585
									 M301.16,112.499c-0.549-0.317-1.167-0.454-1.841-0.409c-0.668,0.048-1.354,0.269-2.046,0.671
									c-0.691,0.401-1.064,0.796-1.146,1.184c-0.074,0.391,0.164,0.748,0.712,1.065c0.556,0.321,1.167,0.454,1.841,0.409
									c0.675-0.044,1.348-0.265,2.039-0.667s1.078-0.796,1.152-1.187C301.946,113.174,301.716,112.82,301.16,112.499"/>
								<path fill="#FFFFFF" d="M302.637,115.835c-0.186-0.107-0.27-0.229-0.244-0.354c0.024-0.125,0.164-0.258,0.405-0.398
									c0.24-0.14,0.47-0.221,0.686-0.236c0.223-0.019,0.433,0.029,0.618,0.136c0.191,0.111,0.269,0.229,0.237,0.358
									c-0.024,0.125-0.164,0.258-0.405,0.398s-0.47,0.221-0.686,0.236C303.031,115.99,302.828,115.946,302.637,115.835
									 M304.78,114.596c-0.491-0.284-1.021-0.435-1.581-0.442c-0.56-0.015-1.068,0.11-1.512,0.369
									c-0.406,0.236-0.608,0.501-0.588,0.8c0.015,0.295,0.232,0.568,0.66,0.815c0.166,0.096,0.351,0.173,0.535,0.229
									c0.198,0.055,0.402,0.092,0.619,0.114c-0.381,0.185-0.743,0.277-1.106,0.273c-0.356,0-0.694-0.092-1.013-0.276
									c-0.153-0.088-0.294-0.191-0.409-0.302c-0.115-0.118-0.225-0.247-0.314-0.395l-0.773,0.45
									c0.115,0.133,0.249,0.262,0.402,0.38c0.147,0.122,0.326,0.24,0.518,0.35c0.613,0.354,1.288,0.516,2.033,0.49
									c0.744-0.026,1.456-0.24,2.141-0.638c0.673-0.391,1.04-0.782,1.107-1.161C305.566,115.264,305.329,114.914,304.78,114.596"
									/>
								<path fill="#FFFFFF" d="M253.534,125.177c-0.721-0.417-1.48-0.634-2.282-0.649c-0.802-0.015-1.539,0.169-2.211,0.56
									c-0.66,0.383-0.982,0.808-0.96,1.269c0.021,0.46,0.38,0.896,1.076,1.297c0.307,0.177,0.638,0.332,1.001,0.461
									c0.351,0.129,0.727,0.236,1.129,0.313l1.998-1.161l-1.686-0.973l-0.717,0.417l0.658,0.38l-0.812,0.472
									c-0.096-0.026-0.21-0.062-0.318-0.11c-0.109-0.048-0.224-0.107-0.332-0.169c-0.416-0.24-0.614-0.495-0.596-0.763
									c0.011-0.266,0.239-0.531,0.676-0.785c0.444-0.258,0.908-0.388,1.379-0.395c0.471-0.007,0.917,0.118,1.351,0.369
									c0.23,0.133,0.428,0.284,0.601,0.457c0.166,0.169,0.294,0.361,0.397,0.575l0.863-0.501
									c-0.128-0.192-0.289-0.372-0.487-0.553C254.058,125.508,253.815,125.339,253.534,125.177"/>
								<polyline fill="#FFFFFF" points="257.921,127.798 256.893,127.204 255.719,126.762 254.99,127.186 256.17,127.632
									253.48,129.195 252.528,128.646 251.787,129.077 254.717,130.769 255.459,130.337 254.501,129.785 257.921,127.798
									"/>
								<polyline fill="#FFFFFF" points="263.348,130.931 262.32,130.337 261.14,129.892 260.41,130.315 261.597,130.765
									258.907,132.328 257.949,131.775 257.207,132.207 260.138,133.898 260.88,133.467 259.929,132.918 263.348,130.931
									"/>
								<polyline fill="#FFFFFF" points="267.057,133.073 266.029,132.479 264.855,132.037 264.126,132.461 265.306,132.907
									262.616,134.47 261.665,133.921 260.923,134.352 263.847,136.04 264.589,135.609 263.638,135.06 267.057,133.073
									"/>
								<path fill="#FFFFFF" d="M266.607,136.884c-0.236-0.136-0.294-0.294-0.174-0.475c0.114-0.185,0.443-0.428,0.97-0.734
									c0.52-0.302,0.932-0.49,1.244-0.553c0.311-0.07,0.579-0.033,0.815,0.103c0.229,0.133,0.294,0.288,0.175,0.468
									c-0.107,0.181-0.431,0.42-0.951,0.723c-0.526,0.306-0.952,0.494-1.263,0.564
									C267.105,137.047,266.837,137.017,266.607,136.884 M270.197,134.798c-0.555-0.32-1.167-0.453-1.841-0.409
									c-0.675,0.044-1.361,0.266-2.052,0.667c-0.685,0.398-1.064,0.796-1.138,1.187c-0.075,0.391,0.157,0.745,0.712,1.065
									c0.549,0.317,1.161,0.45,1.835,0.405c0.675-0.044,1.354-0.269,2.04-0.667c0.691-0.402,1.077-0.796,1.151-1.188
									C270.978,135.469,270.747,135.115,270.197,134.798"/>
								<path fill="#FFFFFF" d="M219.281,145.083c-0.721-0.417-1.48-0.634-2.282-0.648c-0.802-0.015-1.54,0.169-2.212,0.56
									c-0.66,0.383-0.982,0.807-0.96,1.268c0.021,0.461,0.38,0.896,1.076,1.298c0.307,0.177,0.639,0.332,1.002,0.46
									c0.351,0.129,0.727,0.236,1.128,0.313l1.999-1.161l-1.686-0.973l-0.717,0.417l0.658,0.379l-0.805,0.468
									c-0.103-0.022-0.217-0.059-0.325-0.107c-0.109-0.048-0.224-0.106-0.332-0.169c-0.416-0.24-0.614-0.494-0.596-0.763
									c0.011-0.265,0.239-0.531,0.676-0.785c0.444-0.258,0.908-0.387,1.379-0.395c0.471-0.007,0.917,0.118,1.351,0.369
									c0.23,0.132,0.428,0.284,0.601,0.457c0.167,0.17,0.295,0.361,0.398,0.575l0.862-0.501c-0.128-0.191-0.282-0.376-0.487-0.553
									C219.804,145.415,219.562,145.245,219.281,145.083"/>
								<polyline fill="#FFFFFF" points="223.667,147.704 222.639,147.11 221.473,146.665 220.737,147.092 221.917,147.538
									219.227,149.101 218.275,148.552 217.533,148.983 220.464,150.675 221.206,150.244 220.249,149.691 223.667,147.704
																	"/>
								<polyline fill="#FFFFFF" points="229.094,150.837 228.066,150.244 226.893,149.794 226.157,150.222 227.343,150.671
									224.654,152.234 223.696,151.682 222.954,152.113 225.884,153.805 226.626,153.374 225.675,152.824 229.094,150.837
																	"/>
								<polyline fill="#FFFFFF" points="232.804,152.979 231.775,152.386 230.609,151.94 229.873,152.367 231.053,152.813
									228.363,154.376 227.412,153.827 226.67,154.259 229.594,155.947 230.336,155.516 229.385,154.966 232.804,152.979
									"/>
								<polyline fill="#FFFFFF" points="236.513,155.121 235.485,154.528 234.318,154.082 233.583,154.509 234.762,154.955
									232.073,156.518 231.122,155.969 230.379,156.4 233.31,158.092 234.052,157.661 233.094,157.108 236.513,155.121
									"/>
								<path fill="#FFFFFF" d="M181.855,166.833c-0.722-0.417-1.479-0.634-2.281-0.649c-0.802-0.015-1.539,0.169-2.212,0.56
									c-0.66,0.384-0.982,0.808-0.96,1.269c0.021,0.46,0.38,0.896,1.076,1.297c0.307,0.177,0.638,0.332,1.002,0.46
									c0.351,0.129,0.727,0.236,1.128,0.313l1.998-1.161l-1.686-0.973l-0.717,0.417l0.658,0.38l-0.812,0.472
									c-0.096-0.026-0.21-0.062-0.319-0.11c-0.108-0.048-0.223-0.107-0.332-0.169c-0.415-0.24-0.614-0.494-0.596-0.763
									c0.011-0.266,0.239-0.531,0.677-0.785c0.444-0.258,0.908-0.388,1.379-0.395c0.47-0.008,0.917,0.118,1.351,0.369
									c0.23,0.133,0.428,0.284,0.601,0.457c0.166,0.17,0.294,0.362,0.397,0.576l0.863-0.501c-0.128-0.191-0.288-0.372-0.487-0.553
									C182.38,167.165,182.137,166.995,181.855,166.833"/>
								<polyline fill="#FFFFFF" points="186.243,169.454 185.215,168.86 184.042,168.418 183.312,168.842 184.492,169.288
									181.802,170.851 180.85,170.302 180.108,170.733 183.039,172.425 183.781,171.994 182.823,171.441 186.243,169.454
									"/>
								<polyline fill="#FFFFFF" points="191.669,172.587 190.642,171.994 189.461,171.548 188.732,171.972 189.918,172.421
									187.229,173.984 186.271,173.432 185.529,173.863 188.459,175.555 189.201,175.124 188.25,174.574 191.669,172.587
									"/>
								<polyline fill="#FFFFFF" points="195.379,174.729 194.351,174.135 193.178,173.693 192.448,174.117 193.628,174.563
									190.938,176.126 189.987,175.577 189.245,176.008 192.169,177.697 192.911,177.266 191.959,176.716 195.379,174.729
																	"/>
								<path fill="#FFFFFF" d="M198.404,176.388c-0.23-0.133-0.484-0.258-0.766-0.369c-0.28-0.111-0.58-0.218-0.905-0.31
									l-0.913,0.531c0.37,0.052,0.694,0.115,0.962,0.188c0.273,0.07,0.491,0.159,0.656,0.255c0.224,0.129,0.339,0.262,0.353,0.409
									c0.02,0.144-0.075,0.272-0.271,0.387c-0.126,0.074-0.279,0.125-0.47,0.155c-0.178,0.03-0.4,0.041-0.655,0.033l-2.877-0.103
									l-0.787,0.457l3.045,1.758l0.787-0.457l-1.838-1.062l1.674,0.063c0.707,0.025,1.222,0.014,1.534-0.033
									c0.312-0.041,0.585-0.133,0.813-0.266c0.387-0.225,0.551-0.483,0.499-0.771
									C199.185,176.963,198.902,176.676,198.404,176.388"/>
								<path fill="#FFFFFF" d="M241.353,206.631c-0.645-0.373-1.32-0.564-2.033-0.579s-1.368,0.151-1.964,0.498
									c-0.59,0.343-0.868,0.719-0.853,1.132c0.015,0.406,0.336,0.789,0.956,1.146c0.274,0.158,0.574,0.295,0.887,0.409
									c0.319,0.118,0.649,0.214,1.007,0.28l1.776-1.032l-1.494-0.862l-0.641,0.372l0.587,0.339l-0.716,0.417
									c-0.096-0.026-0.192-0.059-0.287-0.1c-0.103-0.044-0.198-0.092-0.3-0.151c-0.37-0.214-0.543-0.438-0.532-0.674
									c0.018-0.24,0.22-0.476,0.607-0.701c0.399-0.232,0.8-0.347,1.227-0.35c0.414-0.003,0.815,0.103,1.198,0.324
									c0.204,0.118,0.39,0.254,0.53,0.409c0.147,0.151,0.263,0.321,0.359,0.509l0.767-0.446c-0.115-0.17-0.256-0.332-0.441-0.49
									C241.812,206.926,241.595,206.771,241.353,206.631"/>
								<path fill="#FFFFFF" d="M244.641,208.53c-0.205-0.118-0.428-0.225-0.683-0.328c-0.249-0.1-0.51-0.192-0.796-0.276
									l-0.812,0.472c0.325,0.048,0.612,0.103,0.854,0.169c0.235,0.063,0.433,0.14,0.58,0.225c0.198,0.114,0.3,0.232,0.314,0.365
									c0.013,0.125-0.069,0.24-0.247,0.343c-0.107,0.062-0.241,0.11-0.407,0.14c-0.165,0.021-0.362,0.033-0.591,0.025
									l-2.546-0.088l-0.704,0.409l2.701,1.559l0.705-0.409l-1.635-0.943l1.483,0.055c0.629,0.026,1.081,0.015,1.368-0.026
									c0.273-0.04,0.515-0.122,0.711-0.236c0.348-0.202,0.5-0.431,0.447-0.689C245.337,209.042,245.087,208.788,244.641,208.53"/>
								<polyline fill="#FFFFFF" points="250.074,211.74 249.161,211.213 248.116,210.823 247.469,211.198 248.515,211.597
									246.123,212.986 245.273,212.496 244.614,212.88 247.219,214.384 247.879,214.001 247.029,213.51 250.074,211.74
									"/>
								<path fill="#FFFFFF" d="M252.698,213.182c-0.179-0.103-0.376-0.202-0.587-0.295c-0.21-0.092-0.446-0.177-0.682-0.254
									l-0.698,0.405c0.224,0.048,0.434,0.11,0.619,0.181c0.198,0.07,0.37,0.155,0.523,0.243c0.21,0.122,0.333,0.236,0.371,0.347
									c0.039,0.11-0.018,0.21-0.157,0.291c-0.152,0.089-0.324,0.122-0.521,0.096c-0.191-0.021-0.408-0.103-0.65-0.243
									l-0.402-0.231l-0.615,0.357l0.383,0.221c0.269,0.155,0.428,0.299,0.486,0.428c0.052,0.133-0.005,0.247-0.176,0.347
									c-0.158,0.092-0.356,0.125-0.579,0.1c-0.223-0.026-0.465-0.114-0.72-0.262c-0.172-0.1-0.319-0.214-0.454-0.343
									c-0.127-0.126-0.237-0.27-0.327-0.425l-0.736,0.428c0.122,0.145,0.269,0.28,0.429,0.409c0.16,0.13,0.339,0.247,0.53,0.357
									c0.542,0.313,1.046,0.494,1.523,0.55c0.472,0.052,0.891-0.029,1.259-0.243c0.247-0.144,0.386-0.299,0.411-0.469
									c0.031-0.165-0.047-0.343-0.232-0.523c0.281,0.097,0.542,0.137,0.796,0.122c0.249-0.011,0.484-0.081,0.699-0.206
									c0.317-0.185,0.443-0.392,0.359-0.623C253.465,213.713,253.183,213.462,252.698,213.182"/>
								<path fill="#FFFFFF" d="M252.968,217.034c-0.204-0.118-0.256-0.258-0.148-0.424c0.101-0.162,0.386-0.38,0.855-0.652
									c0.457-0.266,0.832-0.432,1.112-0.49c0.273-0.056,0.515-0.026,0.719,0.092c0.205,0.118,0.256,0.258,0.162,0.416
									c-0.102,0.163-0.387,0.38-0.844,0.646c-0.469,0.273-0.844,0.438-1.123,0.498
									C253.414,217.182,253.172,217.152,252.968,217.034 M256.158,215.18c-0.492-0.283-1.033-0.405-1.637-0.364
									c-0.592,0.04-1.201,0.239-1.817,0.597c-0.609,0.354-0.95,0.708-1.018,1.051c-0.069,0.351,0.144,0.663,0.635,0.947
									c0.492,0.284,1.033,0.405,1.631,0.361c0.598-0.037,1.208-0.236,1.817-0.59c0.615-0.357,0.957-0.711,1.018-1.058
									C256.862,215.777,256.65,215.464,256.158,215.18"/>
								<path fill="#FFFFFF" d="M218.747,223.467c-0.645-0.372-1.32-0.563-2.026-0.582c-0.713-0.015-1.368,0.15-1.964,0.497
									c-0.59,0.343-0.874,0.723-0.853,1.132c0.009,0.409,0.329,0.793,0.948,1.15c0.274,0.158,0.574,0.295,0.887,0.409
									c0.319,0.118,0.657,0.21,1.007,0.28l1.776-1.032l-1.494-0.863l-0.635,0.369l0.588,0.339l-0.724,0.421
									c-0.096-0.026-0.191-0.06-0.287-0.1c-0.102-0.045-0.197-0.093-0.299-0.151c-0.371-0.214-0.544-0.438-0.526-0.679
									c0.012-0.235,0.214-0.472,0.607-0.7c0.393-0.229,0.799-0.346,1.22-0.347c0.42-0.007,0.815,0.104,1.198,0.325
									c0.204,0.117,0.39,0.254,0.537,0.405c0.148,0.15,0.264,0.32,0.353,0.513l0.768-0.446c-0.116-0.17-0.257-0.332-0.442-0.49
									C219.213,223.758,218.99,223.607,218.747,223.467"/>
								<path fill="#FFFFFF" d="M222.035,225.365c-0.204-0.118-0.428-0.225-0.676-0.331c-0.249-0.1-0.517-0.188-0.803-0.273
									l-0.812,0.472c0.331,0.045,0.617,0.1,0.86,0.166c0.235,0.062,0.433,0.141,0.58,0.225c0.198,0.115,0.294,0.236,0.313,0.365
									c0.007,0.129-0.075,0.243-0.246,0.343c-0.114,0.066-0.248,0.114-0.413,0.144c-0.166,0.022-0.362,0.033-0.591,0.026
									l-2.546-0.089l-0.698,0.405l2.701,1.56l0.698-0.405l-1.634-0.944l1.489,0.053c0.63,0.025,1.076,0.018,1.362-0.022
									c0.274-0.041,0.515-0.122,0.718-0.239c0.349-0.203,0.5-0.432,0.442-0.687C222.732,225.878,222.482,225.623,222.035,225.365"
									/>
								<polyline fill="#FFFFFF" points="227.469,228.576 226.556,228.049 225.517,227.654 224.863,228.034 225.909,228.433
									223.524,229.818 222.674,229.328 222.015,229.712 224.62,231.216 225.28,230.833 224.43,230.342 227.469,228.576
									"/>
								<path fill="#FFFFFF" d="M230.157,230.055c-0.205-0.118-0.435-0.229-0.677-0.332c-0.248-0.1-0.516-0.188-0.803-0.272
									l-0.812,0.472c0.331,0.044,0.611,0.096,0.854,0.162c0.242,0.066,0.439,0.144,0.586,0.229
									c0.198,0.114,0.294,0.236,0.313,0.365c0.008,0.129-0.075,0.243-0.246,0.343c-0.114,0.066-0.247,0.114-0.419,0.14
									c-0.159,0.026-0.356,0.037-0.585,0.029l-2.552-0.092l-0.698,0.405l2.707,1.563l0.698-0.406l-1.634-0.943l1.489,0.052
									c0.63,0.026,1.076,0.019,1.362-0.022c0.273-0.04,0.515-0.121,0.718-0.239c0.349-0.202,0.5-0.431,0.442-0.686
									C230.853,230.566,230.597,230.309,230.157,230.055"/>
								<path fill="#FFFFFF" d="M231.567,233.074c-0.166-0.097-0.236-0.203-0.211-0.314c0.024-0.109,0.145-0.231,0.36-0.356
									c0.209-0.122,0.419-0.192,0.61-0.207s0.375,0.026,0.542,0.122c0.172,0.1,0.237,0.203,0.219,0.316
									c-0.025,0.111-0.146,0.232-0.355,0.354c-0.215,0.125-0.425,0.195-0.616,0.21C231.918,233.21,231.74,233.174,231.567,233.074
									 M233.477,231.972c-0.434-0.251-0.906-0.384-1.409-0.395s-0.948,0.1-1.347,0.332c-0.361,0.21-0.532,0.442-0.518,0.708
									c0.014,0.265,0.213,0.505,0.589,0.722c0.153,0.089,0.307,0.155,0.479,0.211c0.172,0.047,0.351,0.077,0.548,0.095
									c-0.337,0.166-0.667,0.248-0.985,0.247c-0.319,0.001-0.618-0.084-0.905-0.25c-0.134-0.078-0.256-0.17-0.365-0.27
									c-0.096-0.1-0.192-0.214-0.275-0.343l-0.679,0.395c0.096,0.121,0.21,0.232,0.345,0.34c0.135,0.106,0.288,0.21,0.467,0.312
									c0.542,0.313,1.142,0.454,1.803,0.432s1.297-0.214,1.906-0.567c0.596-0.347,0.919-0.689,0.987-1.032
									C234.173,232.565,233.962,232.252,233.477,231.972"/>
								<path fill="#FFFFFF" d="M196.971,236.123c-0.645-0.373-1.32-0.564-2.033-0.579c-0.713-0.015-1.368,0.151-1.964,0.497
									c-0.59,0.343-0.867,0.719-0.853,1.132c0.015,0.406,0.336,0.789,0.955,1.146c0.274,0.158,0.574,0.295,0.887,0.409
									c0.319,0.118,0.65,0.214,1.007,0.28l1.776-1.032l-1.494-0.862l-0.641,0.372l0.587,0.339l-0.716,0.417
									c-0.096-0.026-0.191-0.059-0.287-0.1c-0.103-0.044-0.198-0.092-0.3-0.151c-0.37-0.214-0.543-0.438-0.532-0.675
									c0.018-0.239,0.221-0.476,0.607-0.7c0.399-0.231,0.8-0.347,1.226-0.35c0.414-0.004,0.815,0.103,1.198,0.324
									c0.204,0.117,0.39,0.254,0.53,0.409c0.147,0.15,0.263,0.32,0.359,0.509l0.768-0.446c-0.116-0.17-0.257-0.332-0.442-0.49
									C197.43,236.417,197.213,236.263,196.971,236.123"/>
								<path fill="#FFFFFF" d="M200.259,238.021c-0.205-0.118-0.427-0.226-0.683-0.328c-0.249-0.1-0.511-0.192-0.797-0.277
									l-0.812,0.473c0.324,0.048,0.612,0.103,0.854,0.169c0.235,0.062,0.433,0.14,0.58,0.225c0.198,0.114,0.3,0.232,0.314,0.365
									c0.013,0.126-0.069,0.24-0.247,0.343c-0.107,0.062-0.241,0.11-0.407,0.141c-0.165,0.021-0.362,0.033-0.591,0.025
									l-2.546-0.089l-0.704,0.409l2.701,1.56l0.704-0.409l-1.635-0.943l1.484,0.055c0.629,0.026,1.081,0.016,1.368-0.025
									c0.272-0.04,0.514-0.122,0.711-0.236c0.348-0.202,0.5-0.431,0.447-0.688C200.956,238.533,200.706,238.279,200.259,238.021"
									/>
								<polyline fill="#FFFFFF" points="205.692,241.231 204.779,240.705 203.734,240.313 203.087,240.689 204.133,241.088
									201.741,242.478 200.892,241.987 200.232,242.371 202.837,243.875 203.497,243.492 202.647,243.001 205.692,241.231
																	"/>
								<path fill="#FFFFFF" d="M208.38,242.71c-0.204-0.118-0.434-0.229-0.683-0.328c-0.249-0.1-0.51-0.191-0.797-0.276
									l-0.812,0.472c0.325,0.048,0.605,0.1,0.848,0.166c0.242,0.066,0.439,0.144,0.586,0.229c0.198,0.114,0.3,0.232,0.314,0.365
									c0.013,0.125-0.07,0.239-0.247,0.343c-0.107,0.062-0.241,0.11-0.413,0.137c-0.158,0.025-0.356,0.036-0.584,0.029
									l-2.553-0.093l-0.704,0.409l2.707,1.563l0.704-0.409l-1.634-0.943l1.483,0.055c0.63,0.026,1.082,0.015,1.368-0.026
									c0.273-0.04,0.515-0.121,0.712-0.235c0.348-0.202,0.5-0.432,0.447-0.689C209.077,243.223,208.82,242.965,208.38,242.71"/>
								<path fill="#FFFFFF" d="M208.542,246.551c-0.179-0.103-0.274-0.21-0.275-0.32c0.006-0.114,0.101-0.221,0.278-0.324
									c0.184-0.106,0.368-0.162,0.559-0.162c0.198-0.004,0.382,0.052,0.561,0.154c0.179,0.104,0.269,0.207,0.263,0.321
									c0.001,0.11-0.088,0.221-0.271,0.328c-0.178,0.103-0.368,0.155-0.565,0.158
									C208.899,246.706,208.721,246.654,208.542,246.551 M210.261,245.552c-0.153-0.088-0.224-0.181-0.23-0.272
									c0-0.096,0.075-0.184,0.221-0.269c0.146-0.085,0.292-0.126,0.458-0.126c0.159,0.004,0.318,0.045,0.471,0.133
									c0.154,0.089,0.225,0.181,0.225,0.27c0.006,0.092-0.063,0.184-0.209,0.269s-0.304,0.125-0.47,0.126
									C210.573,245.682,210.414,245.641,210.261,245.552 M211.776,244.671c-0.453-0.262-0.88-0.413-1.281-0.453
									c-0.389-0.04-0.751,0.029-1.062,0.21c-0.209,0.122-0.329,0.258-0.354,0.405s0.046,0.306,0.2,0.476
									c-0.318-0.104-0.625-0.147-0.904-0.133c-0.287,0.02-0.553,0.093-0.795,0.232c-0.361,0.21-0.512,0.446-0.46,0.697
									c0.065,0.25,0.334,0.516,0.819,0.796s0.944,0.435,1.37,0.468c0.44,0.033,0.84-0.059,1.201-0.269
									c0.242-0.141,0.374-0.291,0.399-0.461c0.024-0.162-0.053-0.339-0.232-0.523c0.293,0.089,0.567,0.129,0.821,0.114
									c0.255-0.015,0.49-0.085,0.699-0.206c0.311-0.181,0.437-0.388,0.365-0.62C212.486,245.176,212.23,244.933,211.776,244.671"
									/>
								<path fill="#FFFFFF" d="M290.626,256.15c-0.639-0.368-1.309-0.563-2.021-0.578c-0.713-0.016-1.368,0.15-1.964,0.497
									c-0.59,0.343-0.875,0.723-0.859,1.128c0.021,0.41,0.335,0.797,0.955,1.154c0.275,0.158,0.575,0.295,0.887,0.409
									c0.319,0.118,0.65,0.206,1.008,0.28l1.776-1.032l-1.494-0.863l-0.635,0.369l0.581,0.336l-0.723,0.42
									c-0.089-0.022-0.186-0.056-0.287-0.1c-0.096-0.041-0.198-0.093-0.293-0.147c-0.371-0.214-0.543-0.438-0.526-0.679
									c0.005-0.239,0.213-0.472,0.607-0.7c0.393-0.229,0.8-0.347,1.213-0.351c0.426-0.003,0.822,0.107,1.205,0.328
									c0.204,0.118,0.383,0.251,0.53,0.402c0.153,0.154,0.269,0.324,0.359,0.516l0.768-0.446c-0.116-0.169-0.257-0.331-0.442-0.49
									C291.093,256.442,290.875,256.294,290.626,256.15"/>
								<path fill="#FFFFFF" d="M293.921,258.053c-0.204-0.118-0.434-0.229-0.677-0.332c-0.249-0.1-0.517-0.188-0.803-0.272
									l-0.812,0.472c0.331,0.045,0.612,0.096,0.854,0.162s0.44,0.145,0.587,0.229c0.197,0.114,0.293,0.236,0.314,0.365
									c0.007,0.129-0.076,0.243-0.247,0.343c-0.114,0.066-0.247,0.114-0.413,0.137c-0.165,0.029-0.362,0.04-0.592,0.033
									l-2.552-0.093l-0.698,0.405l2.707,1.563l0.698-0.405l-1.641-0.948l1.495,0.056c0.63,0.026,1.082,0.016,1.362-0.021
									c0.273-0.041,0.515-0.122,0.717-0.239c0.349-0.203,0.501-0.432,0.442-0.687
									C294.617,258.565,294.361,258.307,293.921,258.053"/>
								<polyline fill="#FFFFFF" points="299.354,261.264 298.442,260.736 297.396,260.338 296.742,260.718 297.801,261.116
									295.409,262.506 294.56,262.016 293.9,262.399 296.505,263.903 297.165,263.52 296.316,263.029 299.354,261.264 								"/>
								<path fill="#FFFFFF" d="M302.035,262.738c-0.197-0.114-0.428-0.225-0.67-0.328c-0.248-0.1-0.516-0.188-0.803-0.272
									l-0.812,0.472c0.323,0.04,0.611,0.096,0.854,0.162s0.439,0.144,0.586,0.229c0.198,0.114,0.294,0.235,0.308,0.361
									c0.014,0.133-0.068,0.247-0.24,0.347c-0.114,0.066-0.253,0.11-0.413,0.136c-0.165,0.029-0.362,0.041-0.591,0.033
									l-2.552-0.092l-0.698,0.405l2.708,1.563l0.698-0.405l-1.642-0.948l1.495,0.056c0.631,0.026,1.082,0.015,1.355-0.026
									c0.28-0.036,0.522-0.117,0.725-0.235c0.349-0.202,0.501-0.432,0.441-0.686C302.732,263.251,302.482,262.996,302.035,262.738
									"/>
								<path fill="#FFFFFF" d="M306.524,265.403l-2.388-1.379l-2.081,1.209c0.248,0.063,0.478,0.13,0.67,0.195
									c0.191,0.074,0.356,0.148,0.49,0.226c0.236,0.137,0.358,0.272,0.385,0.413c0.02,0.144-0.062,0.272-0.259,0.387
									c-0.196,0.114-0.419,0.162-0.667,0.151c-0.242-0.016-0.478-0.085-0.714-0.222c-0.159-0.092-0.308-0.206-0.429-0.343
									c-0.121-0.144-0.231-0.302-0.321-0.486l-0.748,0.435c0.122,0.166,0.263,0.321,0.436,0.465
									c0.166,0.14,0.351,0.276,0.562,0.398c0.492,0.283,0.983,0.435,1.492,0.464c0.503,0.026,0.947-0.077,1.348-0.31
									c0.399-0.232,0.589-0.49,0.568-0.767c-0.033-0.276-0.271-0.546-0.724-0.808c-0.083-0.048-0.166-0.088-0.249-0.121
									c-0.083-0.041-0.172-0.07-0.269-0.104l0.571-0.332l1.622,0.937L306.524,265.403"/>
								<path fill="#FFFFFF" d="M319.213,245.95c-0.639-0.368-1.32-0.564-2.027-0.575c-0.712-0.015-1.367,0.151-1.963,0.498
									c-0.591,0.343-0.882,0.719-0.859,1.128c0.021,0.409,0.342,0.793,0.961,1.15c0.274,0.158,0.568,0.299,0.881,0.413
									c0.312,0.113,0.65,0.206,1.007,0.279l1.782-1.035l-1.5-0.867l-0.641,0.373l0.587,0.339l-0.717,0.417
									c-0.095-0.026-0.197-0.056-0.286-0.1c-0.097-0.041-0.198-0.093-0.3-0.151c-0.365-0.21-0.551-0.435-0.532-0.675
									c0.018-0.239,0.213-0.472,0.607-0.7c0.393-0.229,0.806-0.343,1.219-0.347c0.42-0.008,0.828,0.104,1.204,0.321
									c0.211,0.121,0.384,0.258,0.531,0.409c0.146,0.15,0.269,0.324,0.359,0.508l0.762-0.442
									c-0.104-0.169-0.257-0.331-0.429-0.489C319.673,246.245,319.462,246.094,319.213,245.95"/>
								<path fill="#FFFFFF" d="M322.501,247.849c-0.204-0.118-0.428-0.225-0.676-0.324c-0.249-0.1-0.523-0.191-0.805-0.272
									l-0.812,0.472c0.325,0.04,0.611,0.096,0.854,0.162c0.242,0.066,0.434,0.14,0.587,0.229c0.19,0.11,0.3,0.232,0.307,0.361
									c0.008,0.129-0.068,0.247-0.239,0.347c-0.114,0.066-0.254,0.11-0.413,0.137c-0.166,0.029-0.356,0.036-0.592,0.033
									l-2.553-0.093l-0.697,0.405l2.707,1.563l0.697-0.405l-1.641-0.947l1.496,0.055c0.623,0.022,1.081,0.015,1.355-0.025
									c0.286-0.041,0.521-0.118,0.724-0.236c0.349-0.203,0.5-0.432,0.448-0.689C323.191,248.364,322.948,248.107,322.501,247.849"
									/>
								<polyline fill="#FFFFFF" points="327.929,251.063 327.022,250.54 325.977,250.142 325.329,250.518 326.375,250.916
									323.983,252.306 323.141,251.819 322.48,252.202 325.079,253.702 325.739,253.319 324.891,252.829 327.929,251.063
									"/>
								<path fill="#FFFFFF" d="M330.622,252.538c-0.204-0.118-0.428-0.225-0.677-0.325c-0.248-0.1-0.522-0.191-0.81-0.275
									l-0.812,0.472c0.331,0.044,0.617,0.1,0.86,0.165c0.242,0.066,0.433,0.141,0.587,0.229c0.191,0.11,0.3,0.232,0.307,0.361
									c0.008,0.128-0.068,0.246-0.24,0.346c-0.114,0.066-0.253,0.11-0.412,0.137c-0.165,0.03-0.356,0.037-0.592,0.033
									l-2.553-0.092l-0.697,0.405l2.707,1.562l0.697-0.405l-1.641-0.947l1.496,0.056c0.624,0.022,1.082,0.015,1.355-0.026
									c0.286-0.04,0.521-0.117,0.724-0.235c0.349-0.203,0.494-0.436,0.448-0.689C331.312,253.054,331.068,252.796,330.622,252.538
									"/>
								<path fill="#FFFFFF" d="M330.67,255.351l2.602-0.291l-1.548,0.899L330.67,255.351 M334.965,255.126l-1.066-0.616
									l-3.702,0.421l-0.817,0.476l1.653,0.954l-0.673,0.391l0.907,0.524l0.673-0.392l0.529,0.307l0.691-0.401l-0.53-0.307
									L334.965,255.126"/>
								<path fill="#FFFFFF" d="M342.467,232.436c-0.638-0.368-1.32-0.563-2.021-0.578c-0.712-0.015-1.367,0.15-1.964,0.497
									c-0.59,0.343-0.881,0.719-0.858,1.129c0.015,0.412,0.335,0.796,0.954,1.153c0.274,0.158,0.574,0.295,0.888,0.409
									c0.312,0.114,0.649,0.207,1.007,0.28l1.775-1.032l-1.5-0.866l-0.635,0.368l0.588,0.34l-0.723,0.42
									c-0.096-0.025-0.191-0.06-0.287-0.1c-0.096-0.041-0.198-0.092-0.3-0.151c-0.365-0.21-0.544-0.438-0.526-0.678
									c0.012-0.236,0.214-0.472,0.607-0.7c0.394-0.229,0.807-0.343,1.22-0.347c0.42-0.008,0.822,0.106,1.198,0.324
									c0.211,0.121,0.39,0.254,0.537,0.405c0.146,0.151,0.269,0.324,0.353,0.513l0.768-0.446
									c-0.109-0.166-0.257-0.332-0.435-0.486C342.934,232.728,342.717,232.58,342.467,232.436"/>
								<path fill="#FFFFFF" d="M345.756,234.335c-0.205-0.118-0.428-0.226-0.671-0.328c-0.248-0.1-0.522-0.192-0.804-0.273
									l-0.812,0.472c0.325,0.041,0.611,0.096,0.854,0.162s0.435,0.141,0.587,0.229c0.191,0.111,0.295,0.236,0.308,0.362
									c0.008,0.129-0.068,0.247-0.239,0.347c-0.114,0.065-0.254,0.11-0.42,0.14c-0.158,0.025-0.355,0.036-0.585,0.029
									l-2.553-0.092l-0.697,0.405l2.707,1.562l0.697-0.405l-1.641-0.947l1.496,0.056c0.623,0.021,1.075,0.018,1.354-0.026
									c0.28-0.036,0.521-0.118,0.725-0.236c0.349-0.202,0.5-0.431,0.441-0.685C346.451,234.847,346.202,234.593,345.756,234.335"
									/>
								<polyline fill="#FFFFFF" points="351.189,237.546 350.282,237.021 349.236,236.624 348.584,237.004 349.629,237.401
									347.244,238.788 346.4,238.301 345.741,238.685 348.34,240.185 348.999,239.802 348.15,239.312 351.189,237.546 								"/>
								<path fill="#FFFFFF" d="M353.876,239.023c-0.204-0.118-0.427-0.225-0.67-0.328c-0.248-0.1-0.522-0.191-0.81-0.276
									l-0.812,0.472c0.33,0.044,0.618,0.1,0.859,0.166c0.243,0.066,0.434,0.14,0.588,0.229c0.19,0.11,0.294,0.236,0.307,0.361
									c0.007,0.129-0.068,0.247-0.24,0.347c-0.114,0.066-0.254,0.11-0.419,0.14c-0.158,0.026-0.356,0.037-0.586,0.029
									l-2.552-0.092l-0.697,0.405l2.707,1.563l0.697-0.405l-1.641-0.948l1.495,0.056c0.625,0.022,1.076,0.019,1.356-0.025
									c0.279-0.037,0.521-0.118,0.724-0.236c0.349-0.202,0.494-0.435,0.442-0.686
									C354.573,239.536,354.323,239.281,353.876,239.023"/>
								<path fill="#FFFFFF" d="M357.113,240.893c-0.179-0.104-0.376-0.202-0.587-0.295c-0.211-0.092-0.439-0.181-0.683-0.255
									l-0.698,0.406c0.224,0.048,0.435,0.11,0.619,0.181c0.197,0.069,0.376,0.15,0.529,0.239c0.211,0.122,0.333,0.236,0.364,0.351
									c0.039,0.11-0.011,0.206-0.157,0.291c-0.152,0.088-0.323,0.121-0.521,0.096c-0.191-0.022-0.408-0.104-0.651-0.243
									l-0.402-0.232l-0.608,0.354l0.383,0.222c0.268,0.154,0.428,0.299,0.479,0.432s-0.005,0.246-0.17,0.343
									c-0.165,0.096-0.361,0.129-0.585,0.103c-0.216-0.029-0.458-0.117-0.713-0.265c-0.173-0.1-0.326-0.21-0.461-0.339
									c-0.121-0.13-0.237-0.27-0.327-0.425l-0.735,0.428c0.128,0.14,0.27,0.28,0.435,0.405c0.16,0.13,0.332,0.251,0.524,0.362
									c0.542,0.312,1.047,0.493,1.523,0.548c0.478,0.049,0.892-0.028,1.26-0.242c0.247-0.145,0.387-0.299,0.41-0.469
									c0.031-0.166-0.047-0.343-0.231-0.523c0.28,0.096,0.541,0.137,0.796,0.122s0.489-0.085,0.705-0.21
									c0.317-0.185,0.438-0.388,0.354-0.619C357.88,241.424,357.599,241.173,357.113,240.893"/>
								<path fill="#FFFFFF" d="M373.549,214.373c-0.639-0.369-1.32-0.564-2.021-0.579c-0.713-0.015-1.367,0.15-1.964,0.497
									c-0.59,0.343-0.881,0.719-0.858,1.129c0.015,0.412,0.335,0.796,0.954,1.153c0.274,0.159,0.574,0.295,0.887,0.409
									s0.65,0.207,1.008,0.28l1.775-1.032l-1.5-0.866l-0.635,0.368l0.588,0.34l-0.724,0.42c-0.095-0.025-0.191-0.059-0.287-0.1
									s-0.197-0.092-0.3-0.15c-0.364-0.211-0.543-0.439-0.525-0.679c0.011-0.236,0.214-0.472,0.607-0.7
									c0.393-0.229,0.807-0.343,1.219-0.347c0.42-0.008,0.822,0.107,1.198,0.324c0.211,0.122,0.391,0.254,0.537,0.405
									c0.147,0.151,0.27,0.324,0.354,0.513l0.768-0.446c-0.109-0.166-0.257-0.332-0.436-0.486
									C374.016,214.664,373.798,214.517,373.549,214.373"/>
								<path fill="#FFFFFF" d="M376.837,216.271c-0.204-0.118-0.428-0.225-0.67-0.328c-0.249-0.1-0.523-0.192-0.804-0.273
									l-0.812,0.473c0.325,0.04,0.611,0.096,0.854,0.162s0.434,0.14,0.587,0.229c0.191,0.11,0.294,0.235,0.308,0.361
									c0.007,0.129-0.068,0.247-0.24,0.347c-0.114,0.066-0.254,0.11-0.413,0.136c-0.165,0.029-0.362,0.041-0.591,0.033
									l-2.553-0.092l-0.698,0.405l2.707,1.563l0.698-0.406l-1.641-0.947l1.495,0.056c0.624,0.021,1.075,0.018,1.355-0.026
									c0.28-0.036,0.521-0.118,0.724-0.235c0.35-0.203,0.501-0.432,0.442-0.686C377.533,216.783,377.284,216.529,376.837,216.271"
									/>
								<polyline fill="#FFFFFF" points="382.271,219.482 381.364,218.959 380.318,218.561 379.665,218.94 380.717,219.335
									378.325,220.725 377.482,220.237 376.822,220.621 379.422,222.121 380.081,221.738 379.232,221.248 382.271,219.482
																	"/>
								<path fill="#FFFFFF" d="M384.958,220.96c-0.205-0.118-0.427-0.225-0.67-0.328c-0.249-0.1-0.522-0.191-0.81-0.276
									l-0.812,0.473c0.331,0.043,0.618,0.099,0.86,0.165s0.433,0.141,0.587,0.229c0.191,0.11,0.295,0.235,0.308,0.36
									c0.007,0.129-0.069,0.247-0.24,0.347c-0.114,0.066-0.254,0.11-0.413,0.137c-0.164,0.029-0.362,0.04-0.592,0.033
									l-2.552-0.093l-0.698,0.405l2.707,1.563l0.698-0.405l-1.642-0.947l1.496,0.055c0.624,0.022,1.076,0.019,1.355-0.025
									c0.28-0.037,0.521-0.118,0.725-0.236c0.349-0.202,0.494-0.435,0.441-0.686C385.654,221.473,385.404,221.218,384.958,220.96"
									/>
								<polyline fill="#FFFFFF" points="388.872,223.294 387.959,222.767 386.914,222.368 386.261,222.748 387.318,223.146
									384.927,224.536 384.078,224.046 383.419,224.43 386.023,225.934 386.684,225.55 385.834,225.06 388.872,223.294
									"/>
								<path fill="#FFFFFF" d="M367.701,230.346c-0.639-0.368-1.32-0.563-2.027-0.575c-0.713-0.015-1.367,0.151-1.963,0.498
									c-0.59,0.343-0.875,0.715-0.859,1.128c0.021,0.409,0.342,0.793,0.961,1.15c0.274,0.158,0.574,0.295,0.887,0.409
									c0.312,0.113,0.644,0.21,1.007,0.28l1.776-1.032l-1.501-0.866l-0.641,0.372l0.588,0.339l-0.717,0.417
									c-0.096-0.026-0.191-0.06-0.287-0.1c-0.103-0.045-0.198-0.093-0.3-0.151c-0.363-0.21-0.543-0.438-0.532-0.675
									c0.018-0.239,0.221-0.476,0.607-0.7c0.399-0.232,0.8-0.347,1.227-0.35c0.414-0.004,0.814,0.103,1.197,0.323
									c0.212,0.122,0.39,0.255,0.53,0.409c0.147,0.151,0.275,0.321,0.359,0.509l0.768-0.445c-0.108-0.166-0.256-0.332-0.435-0.486
									C368.161,230.641,367.95,230.489,367.701,230.346"/>
								<path fill="#FFFFFF" d="M370.989,232.244c-0.204-0.118-0.428-0.225-0.677-0.324c-0.248-0.1-0.517-0.195-0.797-0.276
									l-0.812,0.472c0.319,0.044,0.605,0.1,0.848,0.166s0.434,0.14,0.587,0.229c0.192,0.11,0.301,0.232,0.308,0.361
									c0.014,0.125-0.062,0.243-0.24,0.347c-0.107,0.062-0.247,0.106-0.412,0.136c-0.159,0.026-0.356,0.037-0.586,0.03
									l-2.553-0.093l-0.703,0.409l2.706,1.563l0.704-0.409l-1.641-0.947l1.49,0.059c0.623,0.022,1.082,0.015,1.361-0.029
									c0.28-0.037,0.521-0.118,0.725-0.236c0.342-0.198,0.493-0.428,0.441-0.686C371.686,232.757,371.436,232.502,370.989,232.244
									"/>
								<polyline fill="#CFD0D2" points="376.423,235.455 375.517,234.932 374.464,234.537 373.817,234.913 374.862,235.312
									372.472,236.701 371.629,236.215 370.969,236.598 373.567,238.099 374.228,237.715 373.378,237.225 376.423,235.455
																	"/>
								<path fill="#CFD0D2" d="M379.11,236.934c-0.204-0.118-0.428-0.225-0.677-0.324c-0.249-0.101-0.517-0.195-0.803-0.28
									l-0.812,0.472c0.325,0.048,0.611,0.104,0.854,0.17s0.435,0.14,0.588,0.229c0.19,0.11,0.3,0.232,0.307,0.361
									c0.014,0.125-0.069,0.239-0.246,0.342c-0.108,0.063-0.241,0.111-0.406,0.141c-0.159,0.026-0.356,0.037-0.585,0.029
									l-2.553-0.092l-0.704,0.409l2.706,1.562l0.704-0.409l-1.64-0.947l1.482,0.056c0.63,0.025,1.088,0.019,1.368-0.025
									c0.28-0.037,0.521-0.118,0.725-0.236c0.342-0.199,0.487-0.432,0.441-0.686C379.807,237.445,379.558,237.191,379.11,236.934"
									/>
								<path fill="#CFD0D2" d="M382.411,238.839c-0.204-0.118-0.435-0.229-0.683-0.328c-0.249-0.1-0.51-0.191-0.798-0.276
									l-0.812,0.472c0.324,0.048,0.605,0.101,0.848,0.167s0.439,0.143,0.587,0.228c0.198,0.114,0.3,0.232,0.313,0.365
									c0.014,0.125-0.068,0.239-0.246,0.343c-0.107,0.062-0.241,0.11-0.413,0.137c-0.159,0.025-0.356,0.037-0.585,0.029
									l-2.553-0.092l-0.704,0.409l2.707,1.563l0.704-0.41l-1.635-0.943l1.483,0.055c0.631,0.026,1.082,0.016,1.368-0.025
									c0.273-0.04,0.515-0.121,0.718-0.239c0.343-0.199,0.494-0.428,0.441-0.687C383.107,239.352,382.852,239.094,382.411,238.839
									"/>
								<path fill="#FFFFFF" d="M270.543,267.822c-0.639-0.369-1.314-0.561-2.026-0.576c-0.713-0.015-1.368,0.151-1.964,0.498
									c-0.59,0.343-0.875,0.723-0.859,1.128c0.021,0.41,0.342,0.793,0.961,1.15c0.275,0.158,0.568,0.299,0.88,0.413
									c0.319,0.118,0.65,0.206,1.008,0.28l1.782-1.036l-1.494-0.862l-0.641,0.372l0.581,0.336l-0.716,0.416
									c-0.095-0.019-0.192-0.052-0.293-0.096c-0.09-0.044-0.192-0.096-0.287-0.151c-0.371-0.214-0.55-0.435-0.532-0.675
									c0.011-0.243,0.213-0.472,0.607-0.7c0.393-0.229,0.8-0.347,1.213-0.351c0.426-0.003,0.828,0.104,1.211,0.324
									c0.205,0.118,0.377,0.255,0.524,0.406c0.153,0.154,0.269,0.324,0.365,0.512l0.762-0.442
									c-0.109-0.173-0.257-0.331-0.436-0.493C271.004,268.117,270.792,267.966,270.543,267.822"/>
								<path fill="#FFFFFF" d="M273.838,269.725c-0.205-0.118-0.434-0.229-0.683-0.329c-0.249-0.1-0.517-0.188-0.803-0.272
									l-0.812,0.472c0.331,0.045,0.612,0.096,0.854,0.162s0.44,0.145,0.587,0.229c0.197,0.114,0.299,0.232,0.314,0.365
									c0.007,0.129-0.076,0.243-0.247,0.343c-0.114,0.066-0.247,0.114-0.413,0.137c-0.165,0.029-0.356,0.036-0.592,0.033
									l-2.552-0.093l-0.698,0.405l2.707,1.563l0.698-0.405l-1.641-0.948l1.495,0.056c0.63,0.026,1.082,0.016,1.362-0.021
									c0.279-0.045,0.515-0.122,0.717-0.24c0.349-0.202,0.501-0.431,0.449-0.688C274.528,270.24,274.278,269.979,273.838,269.725"
									/>
								<polyline fill="#FFFFFF" points="279.266,272.938 278.353,272.411 277.307,272.013 276.66,272.389 277.712,272.791
									275.32,274.181 274.471,273.69 273.812,274.074 276.417,275.578 277.076,275.194 276.228,274.705 279.266,272.938
									"/>
								<path fill="#FFFFFF" d="M281.953,274.409c-0.198-0.114-0.428-0.225-0.677-0.324c-0.249-0.1-0.516-0.188-0.803-0.272
									l-0.812,0.472c0.324,0.04,0.612,0.096,0.854,0.162c0.242,0.066,0.439,0.144,0.586,0.229c0.198,0.114,0.3,0.232,0.308,0.361
									c0.013,0.133-0.069,0.247-0.241,0.347c-0.114,0.066-0.253,0.11-0.413,0.136c-0.165,0.029-0.356,0.037-0.592,0.033
									l-2.552-0.092l-0.698,0.405l2.708,1.563l0.698-0.405l-1.641-0.948l1.495,0.056c0.631,0.026,1.083,0.015,1.355-0.025
									c0.287-0.041,0.521-0.118,0.725-0.236c0.349-0.202,0.501-0.432,0.448-0.689C282.644,274.926,282.4,274.667,281.953,274.409"
									/>
								<polyline fill="#FFFFFF" points="286.652,277.203 283.85,275.585 283.152,275.991 284.946,277.026 280.573,277.978
									281.505,278.516 286.113,277.517 286.652,277.203 								"/>
								<path fill="#FFFFFF" d="M257.426,236.981c-0.639-0.369-1.308-0.564-2.02-0.579c-0.713-0.015-1.368,0.151-1.964,0.498
									c-0.59,0.343-0.874,0.723-0.859,1.128c0.021,0.409,0.335,0.796,0.954,1.154c0.274,0.158,0.575,0.295,0.887,0.409
									c0.319,0.117,0.656,0.21,1.007,0.279l1.776-1.032l-1.494-0.862l-0.634,0.369l0.581,0.335l-0.723,0.42
									c-0.09-0.022-0.186-0.055-0.287-0.1c-0.096-0.04-0.198-0.092-0.294-0.147c-0.37-0.213-0.543-0.438-0.525-0.678
									c0.005-0.239,0.213-0.472,0.607-0.7c0.393-0.229,0.8-0.347,1.213-0.351c0.426-0.004,0.822,0.106,1.205,0.328
									c0.205,0.118,0.383,0.251,0.531,0.402c0.153,0.154,0.269,0.324,0.359,0.516l0.767-0.446
									c-0.115-0.169-0.256-0.331-0.442-0.49C257.892,237.272,257.675,237.125,257.426,236.981"/>
								<path fill="#FFFFFF" d="M260.721,238.884c-0.205-0.118-0.435-0.229-0.677-0.332c-0.248-0.1-0.516-0.188-0.802-0.272
									l-0.812,0.472c0.331,0.044,0.612,0.096,0.854,0.162s0.439,0.144,0.586,0.229c0.198,0.114,0.294,0.235,0.314,0.364
									c0.007,0.13-0.075,0.244-0.247,0.344c-0.114,0.066-0.247,0.113-0.413,0.136c-0.165,0.029-0.362,0.041-0.592,0.033
									l-2.552-0.092l-0.698,0.405l2.707,1.563l0.698-0.405l-1.635-0.944l1.489,0.052c0.63,0.026,1.082,0.015,1.362-0.021
									c0.273-0.041,0.515-0.122,0.717-0.24c0.349-0.202,0.501-0.432,0.441-0.686C261.417,239.396,261.161,239.138,260.721,238.884
									"/>
								<polyline fill="#FFFFFF" points="266.154,242.094 265.241,241.567 264.196,241.169 263.542,241.549 264.602,241.947
									262.209,243.337 261.36,242.847 260.701,243.229 263.306,244.733 263.965,244.351 263.116,243.86 266.154,242.094
									"/>
								<path fill="#FFFFFF" d="M268.836,243.569c-0.198-0.114-0.428-0.226-0.67-0.328c-0.249-0.1-0.516-0.188-0.803-0.273
									l-0.812,0.472c0.325,0.041,0.613,0.097,0.854,0.163c0.242,0.066,0.439,0.144,0.586,0.228
									c0.198,0.115,0.294,0.236,0.308,0.361c0.013,0.133-0.069,0.248-0.241,0.348c-0.114,0.066-0.253,0.11-0.413,0.136
									c-0.165,0.029-0.362,0.041-0.592,0.033l-2.552-0.092l-0.698,0.405l2.707,1.562l0.698-0.405l-1.641-0.947l1.495,0.056
									c0.63,0.025,1.083,0.015,1.355-0.026c0.28-0.036,0.522-0.118,0.725-0.235c0.349-0.203,0.5-0.432,0.441-0.686
									C269.533,244.081,269.283,243.827,268.836,243.569"/>
								<path fill="#FFFFFF" d="M269.074,247.454c-0.166-0.096-0.243-0.199-0.211-0.313c0.024-0.11,0.138-0.229,0.354-0.354
									s0.426-0.195,0.617-0.21c0.19-0.015,0.375,0.025,0.541,0.121c0.166,0.097,0.236,0.203,0.218,0.317
									c-0.025,0.11-0.152,0.229-0.367,0.354s-0.413,0.196-0.603,0.21C269.418,247.594,269.24,247.55,269.074,247.454
									 M272.519,245.695c-0.542-0.312-1.147-0.456-1.803-0.431c-0.661,0.022-1.296,0.214-1.905,0.568
									c-0.596,0.346-0.926,0.692-0.987,1.031c-0.055,0.343,0.156,0.657,0.635,0.933c0.44,0.255,0.912,0.388,1.416,0.398
									c0.496,0.015,0.94-0.096,1.341-0.328c0.361-0.21,0.532-0.442,0.518-0.708c-0.008-0.262-0.206-0.501-0.589-0.722
									c-0.153-0.089-0.313-0.159-0.479-0.211c-0.173-0.048-0.344-0.081-0.542-0.1c0.342-0.162,0.667-0.246,0.986-0.247
									c0.317,0,0.618,0.085,0.905,0.251c0.133,0.077,0.249,0.166,0.357,0.266c0.103,0.103,0.199,0.217,0.282,0.354l0.686-0.398
									c-0.11-0.122-0.23-0.236-0.365-0.344C272.846,245.898,272.692,245.795,272.519,245.695"/>
								<polyline fill="#CFD0D2" points="403.471,176.724 393.347,182.607 390.454,184.288 403.513,184.288 403.471,176.724
																	"/>
								<polyline fill="#CFD0D2" points="214.61,198.458 204.48,204.346 201.594,206.023 214.652,206.023 214.61,198.458
									"/>
								<polyline fill="#CFD0D2" points="369.886,202.366 356.827,202.366 367.023,208.253 369.928,209.931 369.886,202.366
																	"/>
							</g>
						</g>
					</g>
				</g>
			</g>
		</g>
	</g>
	<g>
		<g>
			<g enable-background="new    ">
				<defs>
					<polygon id="SVGID_3_" enable-background="new    " points="311.393,232.375 317.539,228.803 323.72,232.371 317.573,235.943
											"/>
				</defs>
				<clipPath id="SVGID_4_">
					<use xlink:href="#SVGID_3_"  overflow="visible"/>
				</clipPath>
				<g clip-path="url(#SVGID_4_)">
					<g>
						<g>
							<g>
								<polyline fill="#FFFFFF" points="319.098,229.702 317.539,228.803 311.393,232.375 314.477,234.155 317.573,235.943
									319.127,235.04 317.589,234.151 319.117,233.264 317.572,232.371 319.101,231.482 317.562,230.595 319.098,229.702
									"/>
							</g>
						</g>
					</g>
				</g>
			</g>
		</g>
	</g>
	<g>
		<g>
			<g enable-background="new    ">
				<defs>
					<polygon id="SVGID_5_" enable-background="new    " points="203.943,190.307 210.089,186.735 216.276,190.307 210.13,193.879
											"/>
				</defs>
				<clipPath id="SVGID_6_">
					<use xlink:href="#SVGID_5_"  overflow="visible"/>
				</clipPath>
				<g clip-path="url(#SVGID_6_)">
					<g>
						<g>
							<g>
								<polyline fill="#FFFFFF" points="211.647,187.634 210.089,186.735 203.943,190.307 207.027,192.088 210.13,193.879
									211.684,192.976 210.139,192.084 211.667,191.195 210.129,190.307 211.657,189.418 210.112,188.526 211.647,187.634
																	"/>
							</g>
						</g>
					</g>
				</g>
			</g>
		</g>
	</g>
	<g>
		<g>
			<g enable-background="new    ">
				<defs>
					<polygon id="SVGID_7_" enable-background="new    " points="404.824,163.42 410.965,159.851 417.146,163.419 411.005,166.988
											"/>
				</defs>
				<clipPath id="SVGID_8_">
					<use xlink:href="#SVGID_7_"  overflow="visible"/>
				</clipPath>
				<g clip-path="url(#SVGID_8_)">
					<g>
						<g>
							<g>
								<polyline fill="#FFFFFF" points="412.523,160.751 410.965,159.851 404.824,163.42 407.908,165.2 411.005,166.988
									412.553,166.088 411.014,165.2 412.543,164.312 410.998,163.42 412.533,162.528 410.994,161.64 412.523,160.751 								"/>
							</g>
						</g>
					</g>
				</g>
			</g>
		</g>
	</g>
	<g>
		<polygon fill="#EC7404" stroke="#FFFFFF" stroke-width="0.5" points="312.837,-23.968 316.249,-23.968 314.68,-12.192 		"/>
		<circle fill="#EC7404" cx="314.543" cy="-33" r="9.731"/>
		<polygon fill="none" stroke="#FFFFFF" stroke-width="0.5" points="318.413,-35.826 314.543,-40.501 310.674,-35.826
			312.627,-35.826 312.627,-30.704 316.46,-30.704 316.46,-35.826 		"/>
		<text transform="matrix(1 0 0 1 312.875 -25.1201)" fill="#FFFFFF" font-family="'DejaVuSansCondensed-Bold'" font-size="5"></text>
	</g>
	<g>
		<polygon fill="#EC7404" stroke="#FFFFFF" stroke-width="0.5" points="338.409,-23.968 341.822,-23.968 340.252,-12.192 		"/>
		<circle fill="#EC7404" cx="340.116" cy="-33" r="9.731"/>
		<polygon fill="none" stroke="#FFFFFF" stroke-width="0.5" points="343.985,-35.826 340.115,-40.501 336.246,-35.826
			338.199,-35.826 338.199,-30.704 342.032,-30.704 342.032,-35.826 		"/>
		<rect x="338.429" y="-29.443" fill="none" width="8" height="3.833"/>
		<text transform="matrix(1 0 0 1 338.4287 -25.644)" fill="#FFFFFF" font-family="'DejaVuSansCondensed-Bold'" font-size="5">P</text>
	</g>
	<g>
		<polygon fill="#EC7404" stroke="#FFFFFF" stroke-width="0.5" points="363.981,-23.968 367.394,-23.968 365.824,-12.192 		"/>
		<circle fill="#EC7404" cx="365.688" cy="-33" r="9.731"/>
		<polygon fill="none" stroke="#FFFFFF" stroke-width="0.5" points="369.558,-35.826 365.688,-40.501 361.818,-35.826
			363.771,-35.826 363.771,-30.704 367.604,-30.704 367.604,-35.826 		"/>
		<rect x="360.819" y="-29.442" fill="none" width="8" height="3.833"/>
		<text transform="matrix(1 0 0 1 360.8193 -25.6431)" fill="#FFFFFF" font-family="'DejaVuSansCondensed-Bold'" font-size="5"> EC</text>
	</g>
	<g>
		<polygon fill="#EC7404" stroke="#FFFFFF" stroke-width="0.5" points="415.003,-23.991 418.417,-23.991 416.847,-12.215 		"/>
		<g>
			<circle fill="#EC7404" cx="416.71" cy="-33" r="9.731"/>
			<g>
				<g>
					<path fill="none" stroke="#FFFFFF" stroke-width="0.5" d="M421.197-29.081c0,0.312-0.255,0.567-0.567,0.567h-7.839
						c-0.312,0-0.567-0.255-0.567-0.567v-7.84c0-0.312,0.255-0.567,0.567-0.567h7.839c0.312,0,0.567,0.255,0.567,0.567V-29.081z"/>
				</g>
				<polygon fill="#FFFFFF" points="413.152,-32.975 415.846,-29.744 420.287,-36.475 415.608,-31.057 				"/>
			</g>
		</g>
	</g>
	<g>
		<polygon fill="#EC7404" stroke="#FFFFFF" stroke-width="0.5" points="440.863,-23.991 444.277,-23.991 442.707,-12.215 		"/>
		<circle fill="#EC7404" cx="442.571" cy="-33" r="9.731"/>
		<g>
			<g>
				<path fill="#EC7404" d="M446.946-31.146c0,0.312-0.255,0.567-0.567,0.567h-9.54c-0.312,0-0.567-0.255-0.567-0.567V-36.6
					c0-0.312,0.255-0.567,0.567-0.567h9.54c0.312,0,0.567,0.255,0.567,0.567V-31.146z"/>
				<path fill="none" stroke="#FFFFFF" stroke-width="0.5" d="M446.946-31.146c0,0.312-0.255,0.567-0.567,0.567h-9.54
					c-0.312,0-0.567-0.255-0.567-0.567V-36.6c0-0.312,0.255-0.567,0.567-0.567h9.54c0.312,0,0.567,0.255,0.567,0.567V-31.146z"/>
			</g>
			<g>
				<path fill="#EC7404" d="M448.87-29.223c0,0.312-0.255,0.567-0.567,0.567h-9.54c-0.312,0-0.567-0.255-0.567-0.567v-5.454
					c0-0.312,0.255-0.567,0.567-0.567h9.54c0.312,0,0.567,0.255,0.567,0.567V-29.223z"/>
				<path fill="none" stroke="#FFFFFF" stroke-width="0.5" d="M448.87-29.223c0,0.312-0.255,0.567-0.567,0.567h-9.54
					c-0.312,0-0.567-0.255-0.567-0.567v-5.454c0-0.312,0.255-0.567,0.567-0.567h9.54c0.312,0,0.567,0.255,0.567,0.567V-29.223z"/>
			</g>
		</g>
	</g>
	<g>
		<polygon fill="#EC7404" stroke="#FFFFFF" stroke-width="0.5" points="287.264,-23.968 290.677,-23.968 289.107,-12.192 		"/>
		<circle fill="#EC7404" cx="288.97" cy="-33" r="9.731"/>
		<g>
			<path fill="#FFFFFF" d="M285.842-31.311h6.294v-0.557h-6.294V-31.311z M285.842-29.615h6.294v-0.557h-6.294V-29.615z
				 M285.842-34.658h6.294v-0.558h-6.294V-34.658z M285.842-32.993h6.294v-0.557h-6.294V-32.993z M292.842-27.685h-7.744v-11.183
				h5.521v2.222h2.223V-27.685z M284.54-27.125 M291.178-38.797l1.594,1.592h-1.594V-38.797z M291.336-39.427h-6.796v12.301h8.86
				v-10.239L291.336-39.427z"/>
		</g>
	</g>
	<g>
		<polygon fill="#EC7404" stroke="#FFFFFF" stroke-width="0.5" points="261.69,-23.968 265.104,-23.968 263.533,-12.192 		"/>
		<circle fill="#EC7404" cx="263.397" cy="-33.001" r="9.731"/>
		<g>
			<g>
				<path fill="#FFFFFF" d="M268.454-33.723c-0.002-0.272-0.025-0.522-0.083-0.758c-0.046-0.183-0.114-0.358-0.217-0.517
					c-0.152-0.24-0.387-0.429-0.656-0.535c-0.269-0.108-0.564-0.149-0.898-0.149c-0.295,0-0.563,0.033-0.811,0.114
					c-0.185,0.062-0.357,0.153-0.505,0.277c-0.223,0.186-0.377,0.438-0.463,0.709c-0.086,0.264-0.118,0.55-0.119,0.862l-0.569,4.806
					h1.198v2.099h0.97v-2.099h0.6v2.099h0.97v-2.099h1.204L268.454-33.723z"/>
				<path fill="#FFFFFF" d="M260.08-36.128c0.872,0,1.576-0.707,1.576-1.577c0-0.871-0.704-1.577-1.576-1.577
					c-0.87,0-1.575,0.706-1.576,1.577C258.505-36.834,259.21-36.128,260.08-36.128 M260.08-35.59
					c-1.305,0.001-2.36,1.057-2.36,2.361v2.469h1.092v3.943h0.969v-3.943h0.6v3.943h0.97v-3.943h1.091v-2.469
					C262.44-34.534,261.385-35.589,260.08-35.59"/>
			</g>
			<circle fill="#FFFFFF" cx="266.494" cy="-37.707" r="1.584"/>
		</g>
	</g>
	<g>
		<polygon fill="#EC7404" stroke="#FFFFFF" stroke-width="0.5" points="389.554,-23.968 392.967,-23.968 391.397,-12.192 		"/>
		<circle fill="#EC7404" cx="391.26" cy="-33" r="9.731"/>
		<text transform="matrix(1 0 0 1 389.5 -25.1201)" fill="#FFFFFF" font-family="'DejaVuSansCondensed-Bold'" font-size="5"></text>
		<polygon fill="none" stroke="#FFFFFF" stroke-width="0.5" points="387.342,-35.379 391.212,-30.704 395.081,-35.379
			393.128,-35.379 393.128,-40.501 389.295,-40.501 389.295,-35.379 		"/>
	</g>
	<g>
		<polygon fill="#EC7404" stroke="#FFFFFF" stroke-width="0.5" points="382.655,136.086 386.068,136.086 384.498,147.862 		"/>
		<circle fill="#EC7404" cx="384.362" cy="127.053" r="9.731"/>
		<g>
			<g>
				<path fill="#FFFFFF" d="M389.419,126.331c-0.002-0.272-0.025-0.522-0.083-0.758c-0.046-0.183-0.114-0.358-0.217-0.517
					c-0.152-0.24-0.387-0.429-0.656-0.535c-0.269-0.108-0.564-0.149-0.898-0.149c-0.295,0-0.563,0.033-0.811,0.114
					c-0.185,0.062-0.357,0.153-0.505,0.277c-0.223,0.186-0.377,0.438-0.463,0.709c-0.086,0.264-0.118,0.55-0.119,0.862l-0.569,4.806
					h1.198v2.099h0.97v-2.099h0.6v2.099h0.97v-2.099h1.204L389.419,126.331z"/>
				<path fill="#FFFFFF" d="M381.045,123.926c0.872,0,1.576-0.707,1.576-1.577c0-0.871-0.704-1.577-1.576-1.577
					c-0.87,0-1.575,0.706-1.576,1.577C379.47,123.22,380.175,123.926,381.045,123.926 M381.045,124.464
					c-1.305,0.001-2.36,1.057-2.36,2.361v2.469h1.092v3.943h0.969v-3.943h0.6v3.943h0.97v-3.943h1.091v-2.469
					C383.405,125.521,382.35,124.465,381.045,124.464"/>
			</g>
			<circle fill="#FFFFFF" cx="387.458" cy="122.347" r="1.584"/>
		</g>
	</g>
	<g>
		<g>
			<polygon fill="#EC7404" stroke="#FFFFFF" stroke-width="0.5" points="466.202,-23.346 469.614,-23.305 467.907,-11.549 			"/>
			<circle fill="#EC7404" cx="468.021" cy="-32.349" r="9.731"/>
		</g>
		<path fill="#FFFFFF" d="M468.326-29.389c-0.174,1.439-1.402,2.558-2.887,2.558c-1.605,0-2.91-1.305-2.91-2.91
			c0-0.9,0.412-1.709,1.057-2.243v-1.217c-1.232,0.663-2.072,1.965-2.072,3.46c0,2.164,1.762,3.926,3.926,3.926
			c1.641,0,3.051-1.014,3.635-2.449L468.326-29.389z"/>
		<path fill="#FFFFFF" d="M472-28.665l-0.811,0.56l-2.08-3.488l-3.998,0.025v-0.829h2.115v-0.889h-2.115v-2.055
			c0.494-0.188,0.846-0.664,0.846-1.225c0-0.725-0.588-1.313-1.311-1.313c-0.725,0-1.314,0.589-1.314,1.313
			c0,0.576,0.373,1.064,0.889,1.24v4.621l4.395,0.005l2.275,3.813l1.594-1.033L472-28.665z"/>
		<polygon fill="#FFFFFF" points="467.084,-37.309 467.869,-37.309 468.416,-35.003 468.961,-37.309 469.748,-37.309
			470.295,-35.003 470.84,-37.309 471.619,-37.309 470.871,-34.136 469.928,-34.136 469.352,-36.548 468.783,-34.136
			467.838,-34.136 		"/>
		<path fill="#FFFFFF" d="M474.307-34.31c-0.148,0.077-0.307,0.135-0.471,0.176c-0.162,0.04-0.332,0.06-0.51,0.06
			c-0.527,0-0.945-0.148-1.254-0.443s-0.463-0.695-0.463-1.201c0-0.507,0.154-0.909,0.463-1.204s0.727-0.442,1.254-0.442
			c0.178,0,0.348,0.02,0.51,0.059c0.164,0.039,0.322,0.1,0.471,0.178v0.655c-0.15-0.104-0.301-0.179-0.447-0.228
			c-0.148-0.048-0.303-0.072-0.465-0.072c-0.293,0-0.521,0.094-0.689,0.281s-0.252,0.444-0.252,0.773
			c0,0.327,0.084,0.585,0.252,0.771s0.396,0.279,0.689,0.279c0.162,0,0.316-0.023,0.465-0.072c0.146-0.048,0.297-0.123,0.447-0.227
			V-34.31z"/>
	</g>
	<g>
		<g>
			<polygon fill="#EC7404" stroke="#FFFFFF" stroke-width="0.5" points="360,122.167 363.412,122.207 361.705,133.963 			"/>
			<circle fill="#EC7404" cx="361.818" cy="113.163" r="9.731"/>
		</g>
		<path fill="#FFFFFF" d="M362.124,116.124c-0.174,1.439-1.402,2.558-2.887,2.558c-1.605,0-2.91-1.305-2.91-2.91
			c0-0.9,0.412-1.709,1.057-2.243v-1.217c-1.232,0.663-2.072,1.965-2.072,3.46c0,2.164,1.762,3.926,3.926,3.926
			c1.641,0,3.051-1.014,3.635-2.449L362.124,116.124z"/>
		<path fill="#FFFFFF" d="M365.798,116.847l-0.811,0.56l-2.08-3.488l-3.998,0.025v-0.829h2.115v-0.889h-2.115v-2.055
			c0.494-0.188,0.846-0.664,0.846-1.225c0-0.725-0.588-1.313-1.311-1.313c-0.725,0-1.314,0.589-1.314,1.313
			c0,0.576,0.373,1.064,0.889,1.24v4.621l4.395,0.005l2.275,3.813l1.594-1.033L365.798,116.847z"/>
		<polygon fill="#FFFFFF" points="360.882,108.204 361.667,108.204 362.214,110.509 362.759,108.204 363.546,108.204
			364.093,110.509 364.638,108.204 365.417,108.204 364.669,111.376 363.726,111.376 363.149,108.964 362.581,111.376
			361.636,111.376 		"/>
		<path fill="#FFFFFF" d="M368.104,111.203c-0.148,0.077-0.307,0.135-0.471,0.176c-0.162,0.04-0.332,0.06-0.51,0.06
			c-0.527,0-0.945-0.148-1.254-0.443s-0.463-0.695-0.463-1.201c0-0.507,0.154-0.909,0.463-1.204s0.727-0.442,1.254-0.442
			c0.178,0,0.348,0.02,0.51,0.059c0.164,0.039,0.322,0.1,0.471,0.178v0.655c-0.15-0.104-0.301-0.179-0.447-0.228
			c-0.148-0.048-0.303-0.072-0.465-0.072c-0.293,0-0.521,0.094-0.689,0.281s-0.252,0.444-0.252,0.773
			c0,0.327,0.084,0.585,0.252,0.771s0.396,0.279,0.689,0.279c0.162,0,0.316-0.023,0.465-0.072c0.146-0.048,0.297-0.123,0.447-0.227
			V111.203z"/>
	</g>
</g>
</svg>
