<?xml version="1.0" encoding="utf-8"?>
<!-- Generator: Adobe Illustrator 16.0.0, SVG Export Plug-In . SVG Version: 6.00 Build 0)  -->
<!DOCTYPE svg PUBLIC "-//W3C//DTD SVG 1.1//EN" "http://www.w3.org/Graphics/SVG/1.1/DTD/svg11.dtd">
<svg version="1.1" id="Ebene_1" xmlns="http://www.w3.org/2000/svg" xmlns:xlink="http://www.w3.org/1999/xlink" x="0px" y="0px"
	 width="2383.939px" height="1683.78px" viewBox="0 0 2383.939 1683.78" enable-background="new 0 0 2383.939 1683.78"
	 xml:space="preserve">
<g>
	<g>
		<g enable-background="new    ">
			<defs>
				<polygon id="SVGID_1_" enable-background="new    " points="939.917,1004.002 1367.993,755.222 1473.812,816.32
					1045.735,1065.1 				"/>
			</defs>
			<clipPath id="SVGID_2_">
				<use xlink:href="#SVGID_1_"  overflow="visible"/>
			</clipPath>
			<g clip-path="url(#SVGID_2_)">
				<g>
					<g>
						<g>
							<polyline fill="#EE740B" points="1393.624,771.659 1368.061,756.899 1350.186,767.287 1368.835,778.055 1375.749,782.047
								1393.624,771.659 							"/>
							<polyline fill="#EDEDED" points="1395.038,770.837 1368.051,755.254 1347.354,767.283 1348.762,766.465 1350.186,767.287
								1368.061,756.899 1393.624,771.659 1375.749,782.047 1395.038,770.837 							"/>
							<polyline fill="#EE740B" points="1367.427,778.874 1348.777,768.105 1338.762,773.926 1357.41,784.694 1367.427,778.874
															"/>
							<polyline fill="#EDEDED" points="1368.835,778.055 1350.186,767.287 1348.762,766.465 1347.354,767.283 1337.337,773.104
								1338.762,773.926 1348.777,768.105 1367.427,778.874 1357.41,784.694 1357.424,784.702 1368.835,778.055 							"/>
							<path fill="#D0D0D0" d="M1400.852,792.793l2.88-1.674l2.859,1.651l2.843-1.652l2.866,1.655l2.842-1.651l2.86,1.652
								l2.842-1.652l2.898,1.674l-11.405,6.628l-5.727-3.307L1400.852,792.793 M1430.189,792.771l-35.142-20.29l-17.875,10.388
								l20.661,11.93l14.48,8.36L1430.189,792.771"/>
							<polyline fill="#EDEDED" points="1433.021,792.768 1395.038,770.837 1375.749,782.047 1377.173,782.869 1395.048,772.481
								1430.189,792.771 1412.314,803.159 1413.731,803.978 1433.021,792.768 							"/>
							<polyline fill="#D0D0D0" points="1410.906,803.978 1396.426,795.617 1383.58,803.082 1398.061,811.443 1410.906,803.978
															"/>
							<polyline fill="#EDEDED" points="1413.731,803.978 1412.314,803.159 1397.834,794.799 1396.426,795.617 1410.906,803.978
								1398.061,811.443 1399.479,812.261 1413.731,803.978 							"/>
							<path fill="#D0D0D0" d="M1189.449,928.773l2.88-1.674l2.866,1.655l2.842-1.651l2.859,1.651l2.842-1.651l2.861,1.651
								l2.842-1.651l2.898,1.674l-11.405,6.628l-5.727-3.307L1189.449,928.773 M1217.277,929.798l-26.962-15.567l-14.563,8.464
								l26.962,15.567L1217.277,929.798"/>
							<polyline fill="#EDEDED" points="1220.104,929.798 1208.631,923.174 1207.223,923.992 1190.315,914.23 1217.277,929.798
								1202.714,938.262 1204.131,939.081 1220.104,929.798 							"/>
							<polyline fill="#D0D0D0" points="1201.299,939.084 1174.337,923.517 1154.134,935.258 1181.096,950.825 1201.299,939.084
															"/>
							<polyline fill="#EDEDED" points="1204.131,939.081 1202.714,938.262 1175.752,922.694 1174.337,923.517 1201.299,939.084
								1181.096,950.825 1182.514,951.644 1204.131,939.081 							"/>
							<polyline fill="#D0D0D0" points="1179.688,951.644 1152.726,936.076 1122.304,953.756 1149.266,969.324 1179.688,951.644
															"/>
							<polyline fill="#EDEDED" points="1182.514,951.644 1181.096,950.825 1154.134,935.258 1152.726,936.076 1179.688,951.644
								1149.266,969.324 1150.684,970.143 1182.514,951.644 							"/>
							<polyline fill="#EE740B" points="1130.974,923.517 1106.022,909.11 1075.6,926.79 1100.552,941.196 1130.974,923.517
								"/>
							<polyline fill="#EDEDED" points="1106.014,907.474 1072.775,926.79 1074.183,925.972 1075.6,926.79 1106.022,909.11
								1130.974,923.517 1100.552,941.196 1130.974,923.517 1104.605,908.292 1106.014,907.474 							"/>
							<polyline fill="#D0D0D0" points="1108.363,947.338 1074.192,927.608 1046.231,943.858 1080.402,963.588 1108.363,947.338
															"/>
							<polyline fill="#EDEDED" points="1100.552,941.196 1075.6,926.79 1074.183,925.972 1072.775,926.79 1043.406,943.858
								1044.814,943.04 1046.231,943.858 1074.192,927.608 1108.363,947.338 1080.402,963.588 1108.363,947.338 1099.144,942.015
								1100.552,941.196 							"/>
							<path id="R82.8" fill="#BDD4E7" d="M1111.415,977.415c-0.3-0.173-0.613-0.258-0.932-0.258c-0.324,0.004-0.635,0.089-0.94,0.266
								s-0.449,0.357-0.455,0.545c0.001,0.186,0.149,0.365,0.449,0.539c0.293,0.169,0.605,0.255,0.924,0.254
								c0.324-0.004,0.629-0.092,0.934-0.269c0.304-0.177,0.462-0.358,0.461-0.542
								C1111.862,977.762,1111.708,977.585,1111.415,977.415 M1126.495,986.123c-0.3-0.174-0.613-0.259-0.931-0.258
								c-0.325,0.003-0.636,0.088-0.94,0.265c-0.305,0.177-0.45,0.357-0.455,0.546c0,0.185,0.148,0.365,0.448,0.538
								c0.294,0.17,0.605,0.255,0.924,0.254c0.325-0.004,0.629-0.092,0.935-0.269c0.304-0.177,0.462-0.357,0.461-0.542
								C1126.942,986.47,1126.789,986.292,1126.495,986.123 M1107.21,972.373l-0.677-0.392l-1.585,0.922l0.677,0.391
								c0.332,0.191,0.639,0.295,0.912,0.307c0.261,0.011,0.541-0.063,0.826-0.229c0.279-0.162,0.405-0.324,0.386-0.475
								C1107.722,972.741,1107.542,972.564,1107.21,972.373 M1113.933,975.952c-0.256-0.147-0.517-0.225-0.784-0.226
								c-0.274-0.003-0.521,0.066-0.762,0.207c-0.248,0.144-0.374,0.291-0.367,0.45c0.008,0.15,0.135,0.306,0.391,0.453
								c0.248,0.144,0.511,0.214,0.777,0.221c0.268,0,0.521-0.073,0.769-0.218c0.241-0.14,0.367-0.287,0.36-0.438
								C1114.31,976.243,1114.181,976.096,1113.933,975.952 M1129.013,984.659c-0.256-0.147-0.517-0.225-0.784-0.225
								c-0.274-0.004-0.522,0.066-0.763,0.206c-0.248,0.144-0.374,0.291-0.367,0.45c0.008,0.151,0.135,0.306,0.391,0.453
								c0.249,0.144,0.511,0.214,0.771,0.218c0.274,0.003,0.528-0.07,0.776-0.215c0.241-0.14,0.367-0.287,0.354-0.441
								C1129.39,984.95,1129.261,984.803,1129.013,984.659 M1118.405,984.648l1.598-0.929l1.5,0.866l-1.599,0.929L1118.405,984.648
								 M1099.921,973.976l6.165-3.583l2.439,1.409c0.817,0.472,1.285,0.896,1.395,1.274c0.11,0.381-0.136,0.737-0.726,1.08
								c-0.406,0.236-0.838,0.377-1.297,0.414c-0.458,0.036-0.954-0.022-1.47-0.182c0.166,0.155,0.25,0.336,0.25,0.535
								c-0.005,0.202-0.1,0.457-0.275,0.767l-0.882,1.519l-1.705-0.984l0.782-1.327c0.156-0.269,0.213-0.479,0.167-0.638
								c-0.045-0.15-0.199-0.306-0.46-0.457l-0.454-0.262l-2.334,1.356L1099.921,973.976 M1108.535,979.089
								c-0.804-0.464-1.259-0.91-1.357-1.327c-0.098-0.424,0.154-0.807,0.77-1.165c0.393-0.229,0.832-0.356,1.308-0.383
								c0.471-0.029,0.981,0.044,1.516,0.221c-0.262-0.283-0.372-0.545-0.328-0.792c0.043-0.247,0.239-0.472,0.588-0.675
								c0.521-0.303,1.111-0.424,1.768-0.354c0.668,0.069,1.382,0.32,2.136,0.756c0.753,0.435,1.189,0.84,1.306,1.224
								c0.116,0.383-0.085,0.729-0.605,1.032c-0.349,0.202-0.737,0.316-1.163,0.343c-0.426,0.025-0.885-0.041-1.376-0.191
								c0.308,0.309,0.437,0.604,0.387,0.877c-0.043,0.276-0.264,0.53-0.657,0.759c-0.615,0.358-1.276,0.506-2.002,0.453
								C1110.104,979.812,1109.339,979.554,1108.535,979.089 M1116.867,978.477l1.357-0.788c0.472,0.14,0.925,0.291,1.333,0.461
								c0.415,0.166,0.792,0.347,1.129,0.542c0.741,0.428,1.157,0.858,1.243,1.282c0.091,0.428-0.155,0.808-0.738,1.146
								c-0.337,0.195-0.737,0.325-1.201,0.395c-0.464,0.07-1.222,0.081-2.271,0.041l-2.476-0.093l2.726,1.574l-1.173,0.682
								l-4.507-2.603l1.174-0.682l4.251,0.155c0.382,0.015,0.706-0.004,0.979-0.052c0.268-0.044,0.502-0.122,0.687-0.229
								c0.292-0.169,0.424-0.356,0.403-0.574c-0.019-0.218-0.187-0.417-0.512-0.604c-0.249-0.144-0.581-0.27-0.976-0.38
								C1117.886,978.64,1117.416,978.551,1116.867,978.477 M1123.615,987.796c-0.805-0.464-1.259-0.91-1.357-1.327
								c-0.098-0.424,0.154-0.807,0.77-1.164c0.393-0.229,0.832-0.357,1.309-0.384c0.471-0.029,0.981,0.044,1.516,0.222
								c-0.263-0.284-0.372-0.546-0.329-0.793s0.239-0.472,0.588-0.675c0.521-0.302,1.112-0.424,1.768-0.354
								c0.669,0.069,1.382,0.32,2.136,0.756c0.754,0.435,1.189,0.84,1.306,1.224c0.116,0.384-0.085,0.729-0.605,1.032
								c-0.349,0.203-0.736,0.317-1.163,0.343c-0.427,0.025-0.885-0.04-1.376-0.191c0.308,0.309,0.436,0.604,0.387,0.877
								c-0.042,0.277-0.264,0.531-0.657,0.76c-0.615,0.357-1.277,0.505-2.002,0.453
								C1125.185,988.52,1124.419,988.261,1123.615,987.796 M1165.352,980.243l-44.456-25.669l-54.393,31.611l44.456,25.668
								L1165.352,980.243"/>
							<polyline fill="#EDEDED" points="1168.184,980.246 1150.684,970.143 1149.266,969.324 1122.304,953.756 1120.896,954.574
								1165.352,980.243 1110.959,1011.854 1112.383,1012.676 1168.184,980.246 							"/>
							<polyline fill="#D0D0D0" points="1078.994,964.406 1044.823,944.677 1019.799,959.219 1053.97,978.949 1078.994,964.406
															"/>
							<polyline fill="#EDEDED" points="1080.402,963.588 1046.231,943.858 1044.814,943.04 1043.406,943.858 1016.974,959.22
								1018.382,958.401 1019.799,959.219 1044.823,944.677 1078.994,964.406 1053.97,978.949 1080.402,963.588 							"/>
							<polyline fill="#D0D0D0" points="1052.562,979.768 1018.391,960.037 993.836,974.308 1028.007,994.038 1052.562,979.768
															"/>
							<polyline fill="#EDEDED" points="1053.97,978.949 1019.799,959.219 1018.382,958.401 1016.974,959.22 991.011,974.308
								992.419,973.49 993.836,974.308 1018.391,960.037 1052.562,979.768 1028.007,994.038 1053.97,978.949 							"/>
							<polyline fill="#D0D0D0" points="1109.551,1012.672 1065.095,987.004 1040.54,1001.274 1060.523,1012.812 1084.996,1026.942
								1109.551,1012.672 							"/>
							<polyline fill="#EDEDED" points="1112.383,1012.676 1110.959,1011.854 1066.503,986.186 1065.095,987.004 1109.551,1012.672
								1084.996,1026.942 1086.419,1027.765 1112.383,1012.676 							"/>
							<polyline fill="#D0D0D0" points="1059.116,1013.631 992.428,975.126 966.357,990.277 1033.045,1028.781 1059.116,1013.631
															"/>
							<path fill="#EDEDED" d="M966.357,990.277l26.071-15.151l66.688,38.505l-26.071,15.15L966.357,990.277 M1060.523,1012.812
								l-19.984-11.538l-1.408,0.817l-12.533-7.236l1.408-0.817l-34.171-19.73l-1.417-0.817l-1.408,0.817l-27.485,15.974
								l68.104,39.322L1060.523,1012.812"/>
							<polyline fill="#D0D0D0" points="1083.588,1027.761 1060.533,1014.449 1034.462,1029.601 1047.353,1037.043
								1057.518,1042.912 1083.588,1027.761 							"/>
							<polyline fill="#EDEDED" points="1086.419,1027.765 1084.996,1026.942 1060.523,1012.812 1031.631,1029.604
								1033.045,1028.781 1034.462,1029.601 1060.533,1014.449 1083.588,1027.761 1057.518,1042.912 1058.941,1043.734
								1086.419,1027.765 							"/>
							<path fill="#D0D0D0" d="M1034.344,1052.681l2.879-1.673l2.867,1.654l2.842-1.651l2.86,1.651l2.848-1.655l2.86,1.651
								l2.842-1.651l2.899,1.674l-11.412,6.632l-5.728-3.307L1034.344,1052.681 M1067.927,1050.561l-21.989-12.695l-22.201,12.902
								l21.988,12.695L1067.927,1050.561"/>
							<polyline fill="#EDEDED" points="1070.759,1050.558 1058.941,1043.734 1057.518,1042.912 1047.353,1037.043
								1045.938,1037.865 1067.927,1050.561 1045.726,1063.463 1023.737,1050.768 1022.329,1051.586 1020.905,1050.764
								1045.735,1065.101 1070.759,1050.558 							"/>
							<polyline fill="#D0D0D0" points="1044.515,1037.043 1033.048,1030.422 1010.847,1043.324 1022.313,1049.945
								1044.515,1037.043 							"/>
							<path fill="#EDEDED" d="M1010.847,1043.324l22.201-12.902l11.467,6.621l-22.201,12.902L1010.847,1043.324 M1047.353,1037.043
								l-12.891-7.442l-1.417-0.819l-1.414,0.822l-23.61,13.721l12.884,7.439l1.424,0.822l1.408-0.818l22.201-12.902
								L1047.353,1037.043"/>
							<polyline fill="#FFFFFF" points="1212.34,928.777 1209.441,927.104 1206.6,928.755 1203.738,927.104 1200.896,928.755
								1198.037,927.104 1195.195,928.755 1192.329,927.1 1189.449,928.773 1195.208,932.099 1200.935,935.405 1212.34,928.777
															"/>
							<polyline fill="#FFFFFF" points="1057.241,1052.681 1054.342,1051.007 1051.5,1052.658 1048.64,1051.007 1045.792,1052.662
								1042.932,1051.011 1040.09,1052.662 1037.223,1051.008 1034.344,1052.681 1040.102,1056.006 1045.829,1059.312
								1057.241,1052.681 							"/>
							<polyline fill="#FFFFFF" points="1423.742,792.797 1420.844,791.123 1418.002,792.775 1415.142,791.123 1412.3,792.774
								1409.434,791.119 1406.591,792.771 1403.731,791.12 1400.852,792.793 1406.61,796.118 1412.337,799.425 1423.742,792.797
															"/>
							<path fill="#FFFFFF" d="M1104.948,972.903l1.585-0.922l0.677,0.392c0.332,0.191,0.512,0.368,0.539,0.523
								c0.019,0.15-0.107,0.312-0.386,0.475c-0.286,0.166-0.565,0.24-0.826,0.229c-0.273-0.012-0.581-0.115-0.912-0.307
								L1104.948,972.903 M1108.525,971.802l-2.439-1.409l-6.165,3.583l1.596,0.922l2.334-1.356l0.454,0.262
								c0.261,0.151,0.415,0.307,0.46,0.457c0.045,0.158-0.011,0.369-0.167,0.638l-0.782,1.327l1.705,0.984l0.882-1.519
								c0.176-0.31,0.27-0.564,0.275-0.767c-0.001-0.199-0.085-0.38-0.25-0.535c0.516,0.159,1.013,0.218,1.47,0.182
								c0.458-0.037,0.891-0.178,1.297-0.414c0.59-0.343,0.835-0.699,0.726-1.08C1109.81,972.697,1109.342,972.273,1108.525,971.802
								"/>
							<path fill="#FFFFFF" d="M1109.537,978.507c-0.3-0.174-0.448-0.354-0.449-0.539c0.006-0.188,0.15-0.368,0.455-0.545
								s0.616-0.262,0.94-0.266c0.319,0,0.632,0.085,0.932,0.258c0.293,0.17,0.447,0.347,0.441,0.535
								c0.001,0.184-0.157,0.365-0.461,0.542c-0.305,0.177-0.61,0.265-0.934,0.269
								C1110.143,978.762,1109.831,978.676,1109.537,978.507 M1112.41,976.837c-0.256-0.147-0.383-0.303-0.391-0.453
								c-0.007-0.159,0.119-0.307,0.367-0.45c0.241-0.141,0.488-0.21,0.762-0.207c0.268,0.001,0.528,0.078,0.784,0.226
								c0.248,0.144,0.377,0.291,0.384,0.449c0.007,0.151-0.119,0.299-0.36,0.438c-0.248,0.145-0.501,0.218-0.769,0.218
								C1112.921,977.051,1112.658,976.98,1112.41,976.837 M1114.935,975.37c-0.754-0.436-1.467-0.687-2.136-0.756
								c-0.657-0.07-1.247,0.051-1.768,0.354c-0.349,0.203-0.545,0.428-0.588,0.675c-0.043,0.247,0.066,0.509,0.328,0.792
								c-0.535-0.177-1.044-0.25-1.516-0.221c-0.477,0.026-0.915,0.154-1.308,0.383c-0.616,0.358-0.868,0.741-0.77,1.165
								c0.098,0.417,0.553,0.863,1.357,1.327c0.804,0.465,1.569,0.723,2.289,0.777c0.726,0.053,1.387-0.095,2.002-0.453
								c0.394-0.229,0.614-0.482,0.657-0.759c0.05-0.273-0.079-0.568-0.387-0.877c0.491,0.15,0.95,0.217,1.376,0.191
								c0.426-0.026,0.814-0.141,1.163-0.343c0.521-0.303,0.722-0.649,0.605-1.032
								C1116.124,976.21,1115.688,975.805,1114.935,975.37"/>
							<path fill="#FFFFFF" d="M1120.687,978.691c-0.338-0.195-0.715-0.376-1.129-0.542c-0.408-0.17-0.861-0.321-1.333-0.461
								l-1.357,0.788c0.548,0.074,1.019,0.163,1.427,0.273c0.396,0.11,0.728,0.236,0.976,0.38c0.326,0.188,0.493,0.387,0.512,0.604
								c0.021,0.218-0.111,0.405-0.403,0.574c-0.185,0.107-0.419,0.186-0.687,0.229c-0.273,0.048-0.598,0.066-0.979,0.052
								l-4.251-0.155l-1.174,0.682l4.507,2.603l1.173-0.682l-2.726-1.574l2.476,0.093c1.05,0.04,1.808,0.029,2.271-0.041
								c0.464-0.069,0.864-0.199,1.201-0.395c0.583-0.339,0.829-0.719,0.738-1.146
								C1121.844,979.55,1121.427,979.119,1120.687,978.691"/>
							<polyline fill="#FFFFFF" points="1121.503,984.586 1120.003,983.72 1118.405,984.648 1119.904,985.515 1121.503,984.586
															"/>
							<path fill="#FFFFFF" d="M1124.617,987.214c-0.3-0.173-0.448-0.354-0.448-0.538c0.005-0.188,0.149-0.369,0.455-0.546
								c0.304-0.177,0.616-0.262,0.94-0.265c0.318-0.001,0.631,0.084,0.931,0.258c0.293,0.169,0.447,0.347,0.441,0.534
								c0.001,0.185-0.157,0.365-0.461,0.542c-0.305,0.177-0.61,0.265-0.935,0.269
								C1125.223,987.469,1124.911,987.384,1124.617,987.214 M1127.49,985.544c-0.256-0.147-0.383-0.302-0.391-0.453
								c-0.007-0.159,0.119-0.307,0.367-0.45c0.241-0.14,0.489-0.21,0.763-0.206c0.267,0,0.528,0.077,0.784,0.225
								c0.249,0.144,0.377,0.291,0.378,0.446c0.014,0.154-0.113,0.302-0.354,0.441c-0.248,0.145-0.502,0.218-0.776,0.215
								C1128.001,985.758,1127.739,985.688,1127.49,985.544 M1130.015,984.077c-0.754-0.436-1.467-0.687-2.136-0.756
								c-0.656-0.07-1.247,0.052-1.768,0.354c-0.349,0.203-0.545,0.428-0.588,0.675s0.066,0.509,0.329,0.793
								c-0.535-0.178-1.045-0.251-1.516-0.222c-0.477,0.026-0.916,0.155-1.309,0.384c-0.615,0.357-0.868,0.74-0.77,1.164
								c0.098,0.417,0.552,0.863,1.357,1.327c0.804,0.465,1.569,0.724,2.289,0.778c0.725,0.052,1.387-0.096,2.002-0.453
								c0.393-0.229,0.615-0.482,0.657-0.76c0.049-0.272-0.079-0.568-0.387-0.877c0.491,0.151,0.949,0.217,1.376,0.191
								c0.426-0.025,0.814-0.14,1.163-0.343c0.521-0.303,0.722-0.648,0.605-1.032
								C1131.204,984.917,1130.769,984.512,1130.015,984.077"/>
							<polyline fill="#D0D0D0" points="1178.887,907.632 1143.612,887.265 1107.431,908.292 1132.382,922.698 1142.706,928.659
								1178.887,907.632 							"/>
							<polyline fill="#EDEDED" points="1143.604,885.628 1106.014,907.474 1104.605,908.292 1130.974,923.517 1132.382,922.698
								1107.431,908.292 1143.612,887.265 1178.887,907.632 1142.706,928.659 1178.887,907.632 1163.985,899.027 1142.195,886.446
								1143.604,885.628 							"/>
							<polyline fill="#D0D0D0" points="1205.227,873.36 1186.32,862.444 1145.021,886.446 1163.976,897.391 1205.227,873.36
															"/>
							<polyline fill="#EDEDED" points="1186.312,860.808 1143.604,885.628 1142.195,886.446 1163.985,899.027 1162.568,898.209
								1163.272,897.8 1163.976,897.391 1145.021,886.446 1186.32,862.444 1205.227,873.36 1184.903,861.626 1186.312,860.808
															"/>
							<polyline fill="#D0D0D0" points="1222.473,863.314 1203.587,852.409 1187.729,861.626 1206.634,872.541 1222.473,863.314
															"/>
							<polyline fill="#EDEDED" points="1203.578,850.773 1186.312,860.808 1184.903,861.626 1205.227,873.36 1206.634,872.541
								1187.729,861.626 1203.587,852.409 1222.473,863.314 1202.17,851.592 1203.578,850.773 							"/>
							<polyline fill="#D0D0D0" points="1239.719,853.269 1220.854,842.375 1204.995,851.591 1223.88,862.495 1239.719,853.269
															"/>
							<polyline fill="#EDEDED" points="1220.851,840.735 1203.578,850.773 1202.17,851.592 1222.473,863.314 1223.88,862.495
								1204.995,851.591 1220.854,842.375 1239.719,853.269 1219.436,841.557 1220.851,840.735 							"/>
							<polyline fill="#D0D0D0" points="1274.395,833.069 1255.569,822.2 1222.268,841.553 1241.132,852.445 1274.395,833.069
															"/>
							<polyline fill="#EDEDED" points="1255.561,820.563 1220.851,840.735 1219.436,841.557 1239.719,853.269 1241.132,852.445
								1222.268,841.553 1255.569,822.2 1274.395,833.069 1254.152,821.381 1255.561,820.563 							"/>
							<polyline fill="#D0D0D0" points="1308.183,813.386 1289.397,802.54 1256.978,821.381 1275.801,832.25 1308.183,813.386
															"/>
							<polyline fill="#EDEDED" points="1289.389,800.903 1255.561,820.563 1254.152,821.381 1274.395,833.069 1275.801,832.25
								1256.978,821.381 1289.397,802.54 1308.183,813.386 1287.98,801.722 1289.389,800.903 							"/>
							<path id="R42.16" fill="#BDD4E7" d="M1310.024,800.501c-0.281-0.162-0.555-0.24-0.822-0.225c-0.268,0.015-0.565,0.122-0.896,0.313
								l-0.672,0.391l1.59,0.918l0.672-0.391c0.33-0.191,0.507-0.369,0.531-0.523
								C1310.446,800.826,1310.312,800.667,1310.024,800.501 M1317.649,798.349l-2.599-1.5l0.854,2.514L1317.649,798.349
								 M1339.617,785.951c-0.363-0.21-0.708-0.328-1.025-0.35c-0.319-0.029-0.624,0.044-0.903,0.207
								c-0.279,0.162-0.399,0.335-0.347,0.52c0.039,0.185,0.243,0.383,0.607,0.594c0.364,0.21,0.702,0.324,1.026,0.35
								c0.312,0.026,0.61-0.044,0.89-0.207s0.405-0.339,0.36-0.52C1340.18,786.357,1339.981,786.161,1339.617,785.951
								 M1311.79,801.051c0.261-0.1,0.572-0.147,0.922-0.144c0.344,0,0.79,0.051,1.318,0.158l2.625,0.516l-1.694,0.984l-2.293-0.457
								c-0.459-0.089-0.821-0.122-1.095-0.096c-0.268,0.022-0.534,0.111-0.794,0.262l-0.45,0.261l2.349,1.356l-1.586,0.922
								l-6.205-3.583l2.429-1.412c0.812-0.472,1.543-0.733,2.191-0.8c0.655-0.062,1.279,0.078,1.873,0.42
								c0.409,0.236,0.646,0.49,0.711,0.755C1312.162,800.465,1312.056,800.749,1311.79,801.051 M1314.704,799.816l-1.235-3.572
								l1.77-1.029l3.914,2.26l0.882-0.513l1.162,0.671l-0.882,0.512l1.13,0.653l-1.504,0.874l-1.13-0.652l-2.733,1.589
								L1314.704,799.816 M1323.974,795.967l2.716-1.578l1.174,0.678l-4.484,2.606l-1.175-0.678l0.254-2.462
								c0.018-0.225-0.015-0.413-0.093-0.567c-0.077-0.163-0.212-0.292-0.403-0.402c-0.287-0.166-0.618-0.247-0.994-0.236
								c-0.362,0.011-0.712,0.111-1.035,0.299c-0.247,0.144-0.47,0.332-0.652,0.564c-0.196,0.232-0.347,0.505-0.473,0.822
								l-1.36-0.786c0.234-0.276,0.5-0.534,0.785-0.774s0.596-0.457,0.932-0.652c0.742-0.432,1.479-0.667,2.211-0.715
								c0.737-0.052,1.4,0.096,1.981,0.431c0.339,0.195,0.569,0.432,0.691,0.701c0.115,0.265,0.144,0.708,0.077,1.309
								L1323.974,795.967 M1327.854,793.21l1.484-0.863l1.608,0.929l-1.484,0.863L1327.854,793.21 M1326.854,788.812l1.134-1.006
								l1.516-0.881l5.102,2.946l1.402-0.815l1.104,0.638l-4.313,2.507l-1.104-0.638l1.408-0.818l-4.01-2.315l-1.152,1.01
								L1326.854,788.812 M1336.048,786.043c0.044-0.188,0.138-0.361,0.283-0.52c0.146-0.166,0.343-0.317,0.596-0.464
								c0.628-0.365,1.32-0.553,2.078-0.564c0.757-0.011,1.438,0.155,2.046,0.505c0.664,0.384,0.979,0.815,0.949,1.298
								s-0.415,0.937-1.139,1.356c-0.805,0.468-1.695,0.667-2.682,0.612c-0.98-0.059-1.975-0.376-2.978-0.955
								c-1.028-0.594-1.572-1.209-1.646-1.847c-0.067-0.634,0.344-1.213,1.237-1.732c0.286-0.166,0.577-0.313,0.889-0.443
								c0.312-0.129,0.647-0.243,0.991-0.346l1.148,0.663c-0.381,0.082-0.725,0.17-1.011,0.27c-0.298,0.1-0.552,0.217-0.768,0.343
								c-0.476,0.276-0.709,0.567-0.714,0.874C1335.332,785.395,1335.568,785.715,1336.048,786.043 M1356.002,785.513
								l-18.713-10.805l-46.483,27.014l18.714,10.805L1356.002,785.513"/>
							<path fill="#EDEDED" d="M1290.806,801.722l46.483-27.014l18.713,10.805l-46.482,27.014L1290.806,801.722 M1357.424,784.702
								l-0.014-0.007l-18.648-10.768l-1.425-0.822l-0.057-0.033l-47.892,27.833l-1.408,0.818l20.202,11.665L1357.424,784.702"/>
							<polyline fill="#D0D0D0" points="1384.011,819.608 1352.655,801.504 1321.644,819.527 1352.998,837.631 1384.011,819.608
															"/>
							<polyline fill="#EDEDED" points="1385.428,820.427 1352.655,801.504 1384.011,819.608 1352.998,837.631 1354.416,838.449
								1385.428,820.427 							"/>
							<polyline fill="#D0D0D0" points="1351.59,838.449 1320.235,820.345 1304.732,829.355 1336.088,847.459 1351.59,838.449
															"/>
							<polyline fill="#EDEDED" points="1354.416,838.449 1352.998,837.631 1321.644,819.527 1320.235,820.345 1351.59,838.449
								1336.088,847.459 1337.505,848.277 1354.416,838.449 							"/>
							<polyline fill="#D0D0D0" points="1334.673,848.281 1303.318,830.177 1253.105,859.358 1284.46,877.463 1334.673,848.281
															"/>
							<polyline fill="#EDEDED" points="1337.505,848.277 1336.088,847.459 1304.732,829.355 1303.318,830.177 1334.673,848.281
								1284.46,877.463 1285.878,878.281 1337.505,848.277 							"/>
							<polyline fill="#D0D0D0" points="1283.046,878.284 1251.69,860.181 1235.833,869.396 1267.188,887.501 1283.046,878.284
															"/>
							<polyline fill="#EDEDED" points="1285.878,878.281 1284.46,877.463 1253.105,859.358 1251.69,860.181 1283.046,878.284
								1267.188,887.501 1268.605,888.319 1285.878,878.281 							"/>
							<polyline fill="#D0D0D0" points="1265.779,888.319 1234.425,870.215 1201.478,889.362 1232.833,907.466 1265.779,888.319
															"/>
							<polyline fill="#EDEDED" points="1268.605,888.319 1267.188,887.501 1235.833,869.396 1234.425,870.215 1265.779,888.319
								1232.833,907.466 1234.25,908.284 1268.605,888.319 							"/>
							<polyline fill="#D0D0D0" points="1395.002,794.795 1368.844,779.692 1165.394,898.209 1181.713,907.632 1142.715,930.296
								1132.391,924.335 1101.969,942.015 1111.194,947.342 1029.43,994.859 1039.122,1000.456 1190.307,912.594 1207.213,922.355
								1231.425,908.284 1198.652,889.362 1352.646,799.867 1385.419,818.79 1396.652,812.261 1380.748,803.078 1395.002,794.795
															"/>
							<path fill="#EDEDED" d="M1165.394,898.209l203.45-118.517l26.158,15.103l-14.254,8.283l15.904,9.183l-11.233,6.529
								l-32.772-18.923l-153.994,89.495l32.772,18.922l-24.212,14.071l-16.906-9.762l-151.185,87.862l-9.692-5.597l81.764-47.518
								l-9.226-5.327l30.422-17.68l10.324,5.961l38.998-22.664L1165.394,898.209 M1397.834,794.799l-20.661-11.93l-1.424-0.822
								l-6.914-3.992l-11.411,6.646l-49.241,28.685l-32.382,18.863l-1.406,0.819l-33.263,19.376l-1.413,0.823l-15.839,9.227
								l-1.407,0.819l-15.839,9.227l-1.407,0.819l-41.251,24.03l-0.703,0.409l-0.704,0.409l1.417,0.818l14.901,8.604l-36.181,21.027
								l-10.324-5.961l-1.408,0.818l-30.422,17.68l-1.408,0.818l9.219,5.323l-27.961,16.25l-26.432,15.361l-25.963,15.089
								l-1.408,0.817l12.533,7.236l1.408-0.817l24.555-14.271l1.408-0.818l54.393-31.611l1.408-0.818l30.422-17.68l1.409-0.818
								l20.203-11.741l1.415-0.822l14.563-8.464l16.907,9.762l1.408-0.818l25.619-14.89l-1.417-0.818l-31.355-18.104l32.947-19.147
								l1.408-0.818l15.857-9.216l1.415-0.822l50.213-29.182l1.414-0.822l15.503-9.01l1.408-0.818l31.012-18.023l32.772,18.923
								l14.051-8.166l-1.418-0.818l-14.48-8.361l12.846-7.465L1397.834,794.799"/>
							<path fill="#FFFFFF" d="M1307.635,800.98l0.672-0.391c0.33-0.191,0.628-0.298,0.896-0.313
								c0.268-0.015,0.541,0.063,0.822,0.225c0.287,0.166,0.422,0.325,0.403,0.483c-0.024,0.155-0.201,0.332-0.531,0.523
								l-0.672,0.391L1307.635,800.98 M1316.655,801.582l-2.625-0.516c-0.528-0.107-0.975-0.158-1.318-0.158
								c-0.35-0.004-0.661,0.044-0.922,0.144c0.266-0.302,0.372-0.586,0.301-0.855c-0.064-0.265-0.302-0.52-0.711-0.755
								c-0.594-0.343-1.218-0.483-1.873-0.42c-0.648,0.066-1.38,0.328-2.191,0.8l-2.429,1.412l6.205,3.583l1.586-0.922l-2.349-1.356
								l0.45-0.261c0.26-0.151,0.526-0.24,0.794-0.262c0.273-0.025,0.636,0.007,1.095,0.096l2.293,0.457L1316.655,801.582"/>
							<path fill="#FFFFFF" d="M1315.904,799.362l-0.854-2.514l2.599,1.5L1315.904,799.362 M1321.196,797.633l-1.162-0.671
								l-0.882,0.513l-3.914-2.26l-1.77,1.029l1.235,3.572l1.373,0.792l2.733-1.589l1.13,0.652l1.504-0.874l-1.13-0.653
								L1321.196,797.633"/>
							<path fill="#FFFFFF" d="M1327.863,795.067l-1.174-0.678l-2.716,1.578l0.151-1.441c0.066-0.601,0.038-1.043-0.077-1.309
								c-0.122-0.269-0.353-0.505-0.691-0.701c-0.581-0.335-1.244-0.483-1.981-0.431c-0.731,0.048-1.469,0.284-2.211,0.715
								c-0.336,0.195-0.646,0.413-0.932,0.652s-0.551,0.498-0.785,0.774l1.36,0.786c0.126-0.317,0.276-0.59,0.473-0.822
								c0.183-0.232,0.405-0.42,0.652-0.564c0.323-0.188,0.673-0.288,1.035-0.299c0.376-0.011,0.707,0.07,0.994,0.236
								c0.191,0.111,0.326,0.24,0.403,0.402c0.078,0.154,0.11,0.342,0.093,0.567l-0.254,2.462l1.175,0.678L1327.863,795.067"/>
							<polyline fill="#FFFFFF" points="1330.946,793.276 1329.338,792.347 1327.854,793.21 1329.462,794.139 1330.946,793.276
															"/>
							<polyline fill="#FFFFFF" points="1337.112,789.693 1336.008,789.055 1334.605,789.87 1329.504,786.924 1327.988,787.806
								1326.854,788.812 1327.94,789.438 1329.093,788.428 1333.103,790.744 1331.694,791.562 1332.799,792.2 1337.112,789.693
															"/>
							<path fill="#FFFFFF" d="M1337.949,786.921c-0.364-0.21-0.568-0.409-0.607-0.594c-0.053-0.185,0.067-0.357,0.347-0.52
								c0.279-0.163,0.584-0.236,0.903-0.207c0.317,0.022,0.662,0.14,1.025,0.35c0.364,0.21,0.562,0.406,0.608,0.593
								c0.045,0.181-0.081,0.358-0.36,0.52s-0.577,0.232-0.89,0.207C1338.651,787.245,1338.313,787.131,1337.949,786.921
								 M1341.051,785c-0.607-0.35-1.289-0.516-2.046-0.505c-0.758,0.011-1.45,0.199-2.078,0.564
								c-0.253,0.147-0.45,0.299-0.596,0.464c-0.146,0.159-0.239,0.332-0.283,0.52c-0.479-0.328-0.716-0.649-0.718-0.951
								c0.005-0.306,0.238-0.597,0.714-0.874c0.216-0.125,0.47-0.243,0.768-0.343c0.286-0.1,0.63-0.188,1.011-0.27l-1.148-0.663
								c-0.344,0.103-0.68,0.217-0.991,0.346c-0.312,0.129-0.603,0.277-0.889,0.443c-0.894,0.52-1.305,1.098-1.237,1.732
								c0.073,0.637,0.617,1.253,1.646,1.847c1.003,0.579,1.997,0.896,2.978,0.955c0.986,0.055,1.877-0.144,2.682-0.612
								c0.724-0.42,1.109-0.874,1.139-1.356S1341.715,785.384,1341.051,785"/>
						</g>
					</g>
				</g>
			</g>
		</g>
	</g>
</g>
<g>
	<polygon fill="#EC760A" stroke="#FFFFFF" stroke-width="0.5" points="1534.635,-23.429 1539.979,-23.429 1537.521,-4.986 	"/>
	<circle fill="#EC760A" cx="1537.307" cy="-37.574" r="15.24"/>
	<polygon fill="none" stroke="#FFFFFF" stroke-width="0.5" points="1543.367,-42 1537.307,-49.321 1531.247,-42 1534.306,-42
		1534.306,-33.979 1540.309,-33.979 1540.309,-42 	"/>

		<text transform="matrix(1 0 0 1 1534.6934 -25.2334)" fill="#FFFFFF" font-family="'DejaVuSansCondensed-Bold'" font-size="7.8303">€</text>
</g>
<g>
	<polygon fill="#EC760A" stroke="#FFFFFF" stroke-width="0.5" points="1574.683,-23.429 1580.027,-23.429 1577.568,-4.986 	"/>
	<circle fill="#EC760A" cx="1577.354" cy="-37.574" r="15.239"/>
	<polygon fill="none" stroke="#FFFFFF" stroke-width="0.5" points="1583.415,-42 1577.354,-49.321 1571.295,-42 1574.354,-42
		1574.354,-33.979 1580.356,-33.979 1580.356,-42 	"/>
	<rect x="1574.714" y="-32.003" fill="none" width="12.528" height="6.004"/>

		<text transform="matrix(1 0 0 1 1574.7139 -26.0542)" fill="#FFFFFF" font-family="'DejaVuSansCondensed-Bold'" font-size="7.8303">P</text>
</g>
<g>
	<polygon fill="#EC760A" stroke="#FFFFFF" stroke-width="0.5" points="1614.73,-23.429 1620.073,-23.429 1617.616,-4.986 	"/>
	<circle fill="#EC760A" cx="1617.402" cy="-37.574" r="15.24"/>
	<polygon fill="none" stroke="#FFFFFF" stroke-width="0.5" points="1623.463,-42 1617.402,-49.321 1611.343,-42 1614.401,-42
		1614.401,-33.979 1620.404,-33.979 1620.404,-42 	"/>
	<rect x="1609.778" y="-32.002" fill="none" width="12.528" height="6.003"/>

		<text transform="matrix(1 0 0 1 1609.7793 -26.0527)" fill="#FFFFFF" font-family="'DejaVuSansCondensed-Bold'" font-size="7.8303"> EC</text>
</g>
<g>
	<polygon fill="#EC760A" stroke="#FFFFFF" stroke-width="0.5" points="1694.633,-23.464 1699.979,-23.464 1697.52,-5.023 	"/>
	<g>
		<circle fill="#EC760A" cx="1697.307" cy="-37.574" r="15.239"/>
		<g>
			<g>
				<path fill="none" stroke="#FFFFFF" stroke-width="0.5" d="M1704.333-31.115c0,0.312-0.255,0.567-0.567,0.567h-12.918
					c-0.312,0-0.567-0.255-0.567-0.567v-12.919c0-0.312,0.255-0.567,0.567-0.567h12.918c0.312,0,0.567,0.255,0.567,0.567V-31.115z"
					/>
			</g>
			<polygon fill="#FFFFFF" points="1691.734,-37.534 1695.952,-32.475 1702.908,-43.016 1695.581,-34.531 			"/>
		</g>
	</g>
</g>
<g>
	<polygon fill="#EC760A" stroke="#FFFFFF" stroke-width="0.5" points="1735.131,-23.464 1740.479,-23.464 1738.019,-5.023 	"/>
	<circle fill="#EC760A" cx="1737.806" cy="-37.574" r="15.239"/>
	<g>
		<g>
			<path fill="#EC760A" d="M1744.658-34.351c0,0.312-0.255,0.567-0.566,0.567h-15.584c-0.312,0-0.567-0.255-0.567-0.567v-9.18
				c0-0.312,0.255-0.567,0.567-0.567h15.584c0.312,0,0.566,0.255,0.566,0.567V-34.351z"/>
			<path fill="none" stroke="#FFFFFF" stroke-width="0.5" d="M1744.658-34.351c0,0.312-0.255,0.567-0.566,0.567h-15.584
				c-0.312,0-0.567-0.255-0.567-0.567v-9.18c0-0.312,0.255-0.567,0.567-0.567h15.584c0.312,0,0.566,0.255,0.566,0.567V-34.351z"/>
		</g>
		<g>
			<path fill="#EC760A" d="M1747.671-31.338c0,0.312-0.255,0.567-0.567,0.567h-15.584c-0.312,0-0.566-0.255-0.566-0.567v-9.182
				c0-0.312,0.255-0.567,0.566-0.567h15.584c0.312,0,0.567,0.255,0.567,0.567V-31.338z"/>
			<path fill="none" stroke="#FFFFFF" stroke-width="0.5" d="M1747.671-31.338c0,0.312-0.255,0.567-0.567,0.567h-15.584
				c-0.312,0-0.566-0.255-0.566-0.567v-9.182c0-0.312,0.255-0.567,0.566-0.567h15.584c0.312,0,0.567,0.255,0.567,0.567V-31.338z"/>
		</g>
	</g>
</g>
<g>
	<polygon fill="#EC760A" stroke="#FFFFFF" stroke-width="0.5" points="1494.586,-23.429 1499.931,-23.429 1497.473,-4.986 	"/>
	<circle fill="#EC760A" cx="1497.258" cy="-37.574" r="15.239"/>
	<g>
		<path fill="#FFFFFF" d="M1492.359-34.928h9.856v-0.873h-9.856V-34.928z M1492.359-32.273h9.856v-0.872h-9.856V-32.273z
			 M1492.359-40.171h9.856v-0.872h-9.856V-40.171z M1492.359-37.563h9.856v-0.873h-9.856V-37.563z M1503.321-29.25h-12.128v-17.513
			h8.647v3.478h3.48V-29.25z M1490.32-28.374 M1500.715-46.652l2.496,2.493h-2.496V-46.652z M1500.963-47.639h-10.643v19.265h13.876
			V-44.41L1500.963-47.639z"/>
	</g>
</g>
<g>
	<polygon fill="#EC760A" stroke="#FFFFFF" stroke-width="0.5" points="1454.537,-23.429 1459.882,-23.429 1457.422,-4.988 	"/>
	<circle fill="#EC760A" cx="1457.209" cy="-37.576" r="15.24"/>
	<g>
		<g>
			<path fill="#FFFFFF" d="M1465.129-38.706c-0.003-0.427-0.04-0.82-0.13-1.187c-0.072-0.288-0.179-0.561-0.34-0.811
				c-0.238-0.375-0.605-0.671-1.028-0.838c-0.42-0.168-0.883-0.232-1.406-0.232c-0.462,0-0.883,0.05-1.27,0.177
				c-0.289,0.096-0.56,0.239-0.791,0.435c-0.348,0.291-0.59,0.685-0.725,1.11c-0.135,0.413-0.186,0.86-0.187,1.349l-0.892,7.526
				h1.877v3.287h1.518v-3.287h0.939v3.287h1.52v-3.287h1.885L1465.129-38.706z"/>
			<path fill="#FFFFFF" d="M1452.015-42.473c1.366,0,2.468-1.105,2.468-2.47s-1.102-2.468-2.468-2.468
				c-1.362,0-2.467,1.104-2.469,2.468C1449.548-43.578,1450.652-42.473,1452.015-42.473 M1452.015-41.63
				c-2.044,0-3.696,1.655-3.696,3.696v3.868h1.709v6.175h1.518v-6.175h0.939v6.175h1.519v-6.175h1.708v-3.868
				C1455.711-39.975,1454.058-41.63,1452.015-41.63"/>
		</g>
		<path fill="#FFFFFF" d="M1464.54-44.945c0,1.37-1.11,2.48-2.48,2.48c-1.374,0-2.482-1.11-2.482-2.48
			c0-1.371,1.108-2.481,2.482-2.481C1463.43-47.426,1464.54-46.316,1464.54-44.945z"/>
	</g>
</g>
<g>
	<polygon fill="#EC760A" stroke="#FFFFFF" stroke-width="0.5" points="1654.777,-23.429 1660.123,-23.429 1657.665,-4.986 	"/>
	<circle fill="#EC760A" cx="1657.45" cy="-37.574" r="15.239"/>

		<text transform="matrix(1 0 0 1 1654.6934 -25.2334)" fill="#FFFFFF" font-family="'DejaVuSansCondensed-Bold'" font-size="7.8303">€</text>
	<polygon fill="none" stroke="#FFFFFF" stroke-width="0.5" points="1651.313,-41.299 1657.375,-33.979 1663.434,-41.299
		1660.375,-41.299 1660.375,-49.321 1654.372,-49.321 1654.372,-41.299 	"/>
</g>
<g>
	<polygon fill="#EE7203" stroke="#FFFFFF" stroke-width="0.5" stroke-miterlimit="10" points="1776.337,-23.548 1781.684,-23.548
		1779.225,-5.106 	"/>
	<circle fill="#EE7203" cx="1779.011" cy="-37.658" r="15.239"/>
	<g>
		<g>
			<path fill="none" stroke="#FFFFFF" stroke-width="0.5" d="M1786.037-28.262c0,0.312-0.255,0.567-0.566,0.567h-12.92
				c-0.312,0-0.566-0.255-0.566-0.567v-18.662c0-0.312,0.255-0.567,0.566-0.567h12.92c0.312,0,0.566,0.255,0.566,0.567V-28.262z"/>
		</g>
	</g>
	<path fill="#FFFFFF" d="M1779.01-40.208c1.164,0,2.102-0.941,2.102-2.102s-0.938-2.102-2.102-2.102c-1.159,0-2.098,0.941-2.1,2.102
		C1776.912-41.149,1777.851-40.208,1779.01-40.208 M1779.01-39.49c-1.738,0-3.146,1.408-3.146,3.147v3.291h1.456v5.257h1.291v-5.257
		h0.799v5.257h1.293v-5.257h1.454v-3.291C1782.157-38.083,1780.75-39.49,1779.01-39.49"/>
</g>
<g>
	<polygon fill="#EC760A" stroke="#FFFFFF" stroke-width="0.5" points="1099.926,900.458 1105.271,900.458 1102.811,918.899 	"/>
	<circle fill="#EC760A" cx="1102.598" cy="886.312" r="15.24"/>
	<g>
		<g>
			<path fill="#FFFFFF" d="M1110.518,885.183c-0.003-0.428-0.04-0.82-0.13-1.188c-0.072-0.287-0.179-0.561-0.34-0.811
				c-0.238-0.375-0.605-0.672-1.028-0.838c-0.42-0.168-0.883-0.232-1.406-0.232c-0.462,0-0.883,0.051-1.27,0.178
				c-0.289,0.096-0.56,0.238-0.791,0.434c-0.348,0.291-0.59,0.686-0.725,1.11c-0.135,0.413-0.186,0.86-0.187,1.349l-0.892,7.526
				h1.877v3.286h1.518v-3.286h0.939v3.286h1.52v-3.286h1.885L1110.518,885.183z"/>
			<path fill="#FFFFFF" d="M1097.403,881.415c1.366,0,2.468-1.105,2.468-2.47s-1.102-2.468-2.468-2.468
				c-1.362,0-2.467,1.104-2.469,2.468C1094.937,880.31,1096.041,881.415,1097.403,881.415 M1097.403,882.258
				c-2.044,0-3.696,1.655-3.696,3.696v3.868h1.709v6.175h1.518v-6.175h0.939v6.175h1.519v-6.175h1.708v-3.868
				C1101.1,883.913,1099.446,882.258,1097.403,882.258"/>
		</g>
		<path fill="#FFFFFF" d="M1109.929,878.942c0,1.37-1.11,2.48-2.48,2.48c-1.374,0-2.482-1.11-2.482-2.48
			c0-1.371,1.108-2.48,2.482-2.48C1108.818,876.462,1109.929,877.571,1109.929,878.942z"/>
	</g>
</g>
<g>
	<polygon fill="#EC760A" stroke="#FFFFFF" stroke-width="0.5" points="1366.934,751.924 1372.278,751.924 1369.818,770.365 	"/>
	<circle fill="#EC760A" cx="1369.606" cy="737.777" r="15.24"/>
	<g>
		<g>
			<path fill="#FFFFFF" d="M1377.525,736.648c-0.003-0.428-0.04-0.82-0.13-1.188c-0.072-0.287-0.179-0.561-0.34-0.811
				c-0.238-0.375-0.605-0.672-1.028-0.838c-0.42-0.168-0.883-0.232-1.406-0.232c-0.462,0-0.883,0.051-1.27,0.178
				c-0.289,0.096-0.56,0.238-0.791,0.434c-0.348,0.291-0.59,0.686-0.725,1.11c-0.135,0.413-0.186,0.86-0.187,1.349l-0.892,7.526
				h1.877v3.286h1.518v-3.286h0.939v3.286h1.52v-3.286h1.885L1377.525,736.648z"/>
			<path fill="#FFFFFF" d="M1364.411,732.881c1.366,0,2.468-1.105,2.468-2.47s-1.102-2.468-2.468-2.468
				c-1.362,0-2.467,1.104-2.469,2.468C1361.944,731.775,1363.049,732.881,1364.411,732.881 M1364.411,733.724
				c-2.044,0-3.696,1.655-3.696,3.696v3.868h1.709v6.175h1.518v-6.175h0.939v6.175h1.519v-6.175h1.708v-3.868
				C1368.107,735.379,1366.454,733.724,1364.411,733.724"/>
		</g>
		<path fill="#FFFFFF" d="M1376.937,730.408c0,1.37-1.11,2.48-2.48,2.48c-1.374,0-2.482-1.11-2.482-2.48
			c0-1.371,1.108-2.48,2.482-2.48C1375.826,727.928,1376.937,729.037,1376.937,730.408z"/>
	</g>
</g>
<g>
	<polygon fill="#EE7203" stroke="#FFFFFF" stroke-width="0.5" stroke-miterlimit="10" points="1005.083,1034.468 1007.702,1029.807
		1022.575,1040.985 	"/>
	<circle fill="#EE7203" cx="993.599" cy="1025.745" r="15.239"/>
	<g>
		<g>
			<path fill="none" stroke="#FFFFFF" stroke-width="0.5" d="M1000.625,1035.142c0,0.312-0.255,0.566-0.566,0.566h-12.92
				c-0.312,0-0.566-0.255-0.566-0.566v-18.662c0-0.312,0.255-0.567,0.566-0.567h12.92c0.312,0,0.566,0.255,0.566,0.567V1035.142z"/>
		</g>
	</g>
	<path fill="#FFFFFF" d="M993.598,1023.196c1.164,0,2.102-0.941,2.102-2.103s-0.938-2.102-2.102-2.102
		c-1.159,0-2.098,0.94-2.1,2.102C991.5,1022.255,992.438,1023.196,993.598,1023.196 M993.598,1023.913
		c-1.738,0-3.146,1.408-3.146,3.147v3.291h1.456v5.257h1.291v-5.257h0.799v5.257h1.293v-5.257h1.454v-3.291
		C996.745,1025.321,995.338,1023.913,993.598,1023.913"/>
</g>
<g>
	<polygon fill="#EE7203" stroke="#FFFFFF" stroke-width="0.5" stroke-miterlimit="10" points="1416.88,807.201 1415.432,812.349
		1398.345,804.989 	"/>
	<circle fill="#EE7203" cx="1429.885" cy="813.745" r="15.239"/>
	<g>
		<g>
			<path fill="none" stroke="#FFFFFF" stroke-width="0.5" d="M1436.911,823.142c0,0.312-0.255,0.566-0.566,0.566h-12.92
				c-0.312,0-0.566-0.255-0.566-0.566v-18.662c0-0.312,0.255-0.567,0.566-0.567h12.92c0.312,0,0.566,0.255,0.566,0.567V823.142z"/>
		</g>
	</g>
	<path fill="#FFFFFF" d="M1429.884,811.196c1.164,0,2.102-0.941,2.102-2.103s-0.938-2.102-2.102-2.102
		c-1.159,0-2.098,0.94-2.1,2.102C1427.786,810.255,1428.725,811.196,1429.884,811.196 M1429.884,811.913
		c-1.738,0-3.146,1.408-3.146,3.147v3.291h1.456v5.257h1.291v-5.257h0.799v5.257h1.293v-5.257h1.454v-3.291
		C1433.031,813.321,1431.624,811.913,1429.884,811.913"/>
</g>
</svg>
