<?xml version="1.0" encoding="utf-8"?>
<!-- Generator: Adobe Illustrator 16.0.0, SVG Export Plug-In . SVG Version: 6.00 Build 0)  -->
<!DOCTYPE svg PUBLIC "-//W3C//DTD SVG 1.1//EN" "http://www.w3.org/Graphics/SVG/1.1/DTD/svg11.dtd">
<svg version="1.1" id="Ebene_1" xmlns="http://www.w3.org/2000/svg" xmlns:xlink="http://www.w3.org/1999/xlink" x="0px" y="0px"
	 width="841.89px" height="595.28px" viewBox="0 0 841.89 595.28" enable-background="new 0 0 841.89 595.28" xml:space="preserve">
<g>
	<polygon fill="#EE7203" stroke="#FFFFFF" stroke-width="0.5" points="482.1,-27.533 487.47,-27.533 485,-8.998 	"/>
	<circle fill="#EE7203" cx="484.785" cy="-41.75" r="15.316"/>
	<polygon fill="none" stroke="#FFFFFF" stroke-width="0.5" points="490.876,-46.197 484.785,-53.555 478.695,-46.197 
		481.77,-46.197 481.77,-38.135 487.802,-38.135 487.802,-46.197 	"/>
	<text transform="matrix(1 0 0 1 482.1592 -29.3472)" fill="#FFFFFF" font-family="'DejaVuSansCondensed-Bold'" font-size="7.8696">€</text>
</g>
<g>
	<polygon fill="#EE7203" stroke="#FFFFFF" stroke-width="0.5" points="522.349,-27.533 527.72,-27.533 525.249,-8.998 	"/>
	<circle fill="#EE7203" cx="525.034" cy="-41.75" r="15.315"/>
	<polygon fill="none" stroke="#FFFFFF" stroke-width="0.5" points="531.125,-46.197 525.033,-53.555 518.943,-46.197 
		522.018,-46.197 522.018,-38.135 528.051,-38.135 528.051,-46.197 	"/>
	<rect x="522.38" y="-36.15" fill="none" width="12.591" height="6.033"/>
	<text transform="matrix(1 0 0 1 522.3789 -30.1719)" fill="#FFFFFF" font-family="'DejaVuSansCondensed-Bold'" font-size="7.8696">P</text>
</g>
<g>
	<polygon fill="#EE7203" stroke="#FFFFFF" stroke-width="0.5" points="562.597,-27.533 567.967,-27.533 565.497,-8.998 	"/>
	<circle fill="#EE7203" cx="565.282" cy="-41.75" r="15.316"/>
	<polygon fill="none" stroke="#FFFFFF" stroke-width="0.5" points="571.373,-46.197 565.282,-53.555 559.192,-46.197 
		562.267,-46.197 562.267,-38.135 568.299,-38.135 568.299,-46.197 	"/>
	<rect x="557.62" y="-36.149" fill="none" width="12.592" height="6.032"/>
	<text transform="matrix(1 0 0 1 557.6201 -30.1714)" fill="#FFFFFF" font-family="'DejaVuSansCondensed-Bold'" font-size="7.8696"> EC</text>
</g>
<g>
	<polygon fill="#EE7203" stroke="#FFFFFF" stroke-width="0.5" points="642.9,-27.568 648.273,-27.568 645.802,-9.035 	"/>
	<g>
		<circle fill="#EE7203" cx="645.588" cy="-41.75" r="15.315"/>
		<g>
			<g>
				<path fill="none" stroke="#FFFFFF" stroke-width="0.5" d="M652.649-35.254c0,0.312-0.255,0.567-0.567,0.567h-12.99
					c-0.312,0-0.566-0.255-0.566-0.567v-12.99c0-0.312,0.255-0.567,0.566-0.567h12.99c0.312,0,0.567,0.255,0.567,0.567V-35.254z"/>
			</g>
			<polygon fill="#FFFFFF" points="639.987,-41.709 644.227,-36.625 651.217,-47.218 643.854,-38.691 			"/>
		</g>
	</g>
</g>
<g>
	<polygon fill="#EE7203" stroke="#FFFFFF" stroke-width="0.5" points="683.603,-27.568 688.976,-27.568 686.504,-9.035 	"/>
	<circle fill="#EE7203" cx="686.29" cy="-41.75" r="15.316"/>
	<g>
		<g>
			<path fill="#EE7203" d="M693.177-38.506c0,0.312-0.255,0.567-0.567,0.567h-15.668c-0.312,0-0.566-0.255-0.566-0.567v-9.234
				c0-0.312,0.255-0.567,0.566-0.567h15.668c0.312,0,0.567,0.255,0.567,0.567V-38.506z"/>
			<path fill="none" stroke="#FFFFFF" stroke-width="0.5" d="M693.177-38.506c0,0.312-0.255,0.567-0.567,0.567h-15.668
				c-0.312,0-0.566-0.255-0.566-0.567v-9.234c0-0.312,0.255-0.567,0.566-0.567h15.668c0.312,0,0.567,0.255,0.567,0.567V-38.506z"/>
		</g>
		<g>
			<path fill="#EE7203" d="M696.204-35.478c0,0.312-0.255,0.567-0.567,0.567h-15.666c-0.312,0-0.567-0.255-0.567-0.567v-9.234
				c0-0.312,0.255-0.567,0.567-0.567h15.666c0.312,0,0.567,0.255,0.567,0.567V-35.478z"/>
			<path fill="none" stroke="#FFFFFF" stroke-width="0.5" d="M696.204-35.478c0,0.312-0.255,0.567-0.567,0.567h-15.666
				c-0.312,0-0.567-0.255-0.567-0.567v-9.234c0-0.312,0.255-0.567,0.567-0.567h15.666c0.312,0,0.567,0.255,0.567,0.567V-35.478z"/>
		</g>
	</g>
</g>
<g>
	<polygon fill="#EE7203" stroke="#FFFFFF" stroke-width="0.5" points="441.85,-27.533 447.222,-27.533 444.752,-8.998 	"/>
	<circle fill="#EE7203" cx="444.536" cy="-41.75" r="15.316"/>
	<g>
		<path fill="#FFFFFF" d="M439.611-39.09h9.906v-0.877h-9.906V-39.09z M439.611-36.42h9.906v-0.877h-9.906V-36.42z M439.611-44.358
			h9.906v-0.877h-9.906V-44.358z M439.611-41.738h9.906v-0.877h-9.906V-41.738z M450.629-33.383H438.44v-17.601h8.69v3.497h3.498
			V-33.383z M437.562-32.503 M448.01-50.873l2.509,2.506h-2.509V-50.873z M448.259-51.864h-10.696v19.361h13.945v-16.116
			L448.259-51.864z"/>
	</g>
</g>
<g>
	<polygon fill="#EE7203" stroke="#FFFFFF" stroke-width="0.5" points="401.6,-27.533 406.971,-27.533 404.5,-9 	"/>
	<circle fill="#EE7203" cx="404.286" cy="-41.75" r="15.316"/>
	<g>
		<g>
			<path fill="#FFFFFF" d="M412.245-42.887c-0.003-0.428-0.04-0.822-0.131-1.193c-0.072-0.288-0.18-0.563-0.341-0.813
				c-0.24-0.377-0.608-0.676-1.033-0.842c-0.423-0.171-0.889-0.234-1.414-0.235c-0.464,0-0.887,0.052-1.276,0.179
				c-0.291,0.097-0.562,0.24-0.794,0.436c-0.351,0.292-0.593,0.688-0.729,1.116c-0.135,0.416-0.186,0.865-0.188,1.356l-0.896,7.563
				h1.886v3.304h1.526v-3.304h0.943v3.304h1.526v-3.304h1.895L412.245-42.887z"/>
			<path fill="#FFFFFF" d="M399.065-46.672c1.373,0,2.481-1.112,2.481-2.481c0-1.371-1.108-2.481-2.481-2.481
				c-1.37,0-2.479,1.11-2.481,2.481C396.586-47.784,397.695-46.672,399.065-46.672 M399.065-45.826
				c-2.054,0.001-3.715,1.663-3.715,3.716v3.886h1.718v6.207h1.524v-6.207h0.944v6.207h1.526v-6.207h1.717v-3.886
				C402.78-44.163,401.118-45.824,399.065-45.826"/>
		</g>
		<path fill="#FFFFFF" d="M411.653-49.157c0,1.376-1.116,2.494-2.493,2.494c-1.38,0-2.495-1.117-2.495-2.494
			s1.114-2.494,2.495-2.494C410.537-51.651,411.653-50.534,411.653-49.157z"/>
	</g>
</g>
<g>
	<polygon fill="#EE7203" stroke="#FFFFFF" stroke-width="0.5" points="602.846,-27.533 608.217,-27.533 605.747,-8.998 	"/>
	<circle fill="#EE7203" cx="605.531" cy="-41.75" r="15.315"/>
	<text transform="matrix(1 0 0 1 602.7598 -29.3472)" fill="#FFFFFF" font-family="'DejaVuSansCondensed-Bold'" font-size="7.8696">€</text>
	<polygon fill="none" stroke="#FFFFFF" stroke-width="0.5" points="599.364,-45.493 605.455,-38.135 611.545,-45.493 
		608.471,-45.493 608.471,-53.555 602.438,-53.555 602.438,-45.493 	"/>
</g>
<g>
	<g>
		<g enable-background="new    ">
			<defs>
				<polygon id="SVGID_1_" enable-background="new    " points="128.019,355.521 470.45,156.515 688.849,282.615 346.417,481.622 
									"/>
			</defs>
			<clipPath id="SVGID_2_">
				<use xlink:href="#SVGID_1_"  overflow="visible"/>
			</clipPath>
			<g clip-path="url(#SVGID_2_)">
				<g>
					<g>
						<g>
							<path fill="#BDD4E8" d="M443.849,193.729c-0.281-0.162-0.575-0.236-0.893-0.221c-0.318,0.007-0.636,0.103-0.94,0.28
								l-0.882,0.512l1.736,1.003l0.882-0.513c0.305-0.177,0.469-0.361,0.48-0.545C444.257,194.061,444.123,193.887,443.849,193.729
								 M459.897,185.644c-0.779-0.45-1.397-0.719-1.863-0.818c-0.459-0.103-0.866-0.051-1.208,0.148
								c-0.336,0.195-0.424,0.431-0.251,0.7s0.646,0.623,1.425,1.073c0.786,0.453,1.404,0.73,1.876,0.833
								c0.465,0.099,0.872,0.047,1.208-0.148c0.343-0.199,0.425-0.431,0.251-0.7C461.155,186.459,460.683,186.098,459.897,185.644
								 M438.387,194.558l2.639-1.534c0.786-0.457,1.561-0.708,2.331-0.748c0.77-0.041,1.477,0.125,2.128,0.501
								c0.651,0.376,0.94,0.785,0.872,1.231c-0.066,0.446-0.49,0.899-1.277,1.356l-1.047,0.608l2.152,1.242l-1.593,0.925
								L438.387,194.558 M450.609,190.769c0.526-0.181,1.022-0.254,1.513-0.229c0.484,0.029,0.931,0.162,1.345,0.401
								c0.613,0.354,0.845,0.76,0.694,1.217c-0.144,0.461-0.662,0.947-1.563,1.471c-0.316,0.185-0.66,0.354-1.027,0.509
								c-0.369,0.155-0.763,0.295-1.182,0.413l-1.232-0.711c0.451-0.085,0.858-0.196,1.227-0.321
								c0.368-0.125,0.698-0.273,0.978-0.435c0.425-0.247,0.679-0.476,0.753-0.689c0.075-0.214-0.021-0.402-0.296-0.561
								c-0.287-0.166-0.611-0.221-0.987-0.173c-0.381,0.052-0.788,0.207-1.238,0.468l-0.634,0.369l-1.034-0.597l0.666-0.387
								c0.399-0.232,0.634-0.442,0.709-0.627c0.068-0.188-0.027-0.354-0.283-0.501c-0.242-0.14-0.522-0.191-0.841-0.154
								c-0.318,0.037-0.654,0.151-1.003,0.354c-0.254,0.147-0.482,0.317-0.685,0.501c-0.203,0.185-0.374,0.387-0.525,0.601
								l-1.168-0.674c0.222-0.232,0.469-0.45,0.734-0.656c0.267-0.206,0.539-0.395,0.837-0.567c0.806-0.469,1.536-0.737,2.197-0.819
								c0.661-0.073,1.261,0.037,1.797,0.347c0.357,0.207,0.562,0.435,0.602,0.678C451.001,190.238,450.888,190.496,450.609,190.769
								 M455.156,190.138l1.484-0.863l1.608,0.929l-1.484,0.862L455.156,190.138 M456.421,187.679
								c-1.034-0.597-1.604-1.183-1.729-1.762c-0.111-0.579,0.229-1.102,1.042-1.574c0.812-0.472,1.721-0.674,2.714-0.608
								c0.999,0.07,2.013,0.398,3.048,0.996c1.027,0.594,1.598,1.18,1.715,1.755c0.124,0.579-0.223,1.106-1.035,1.578
								c-0.812,0.472-1.714,0.671-2.72,0.604C458.463,188.601,457.449,188.273,456.421,187.679 M460.044,182.319l1.134-1.006
								l1.516-0.881l5.102,2.945l1.401-0.814l1.104,0.638l-4.312,2.507l-1.105-0.638l1.408-0.818l-4.016-2.319l-1.146,1.014
								L460.044,182.319 M510.089,181.04l-39.636-22.885l-66.337,38.552l39.636,22.885L510.089,181.04"/>
							<polyline fill="#EDEDED" points="512.921,181.037 470.45,156.515 401.29,196.707 402.698,195.889 404.116,196.707 
								470.453,158.155 510.089,181.04 443.752,219.592 473.824,202.115 511.199,180.395 512.616,181.213 512.921,181.037 							
								"/>
							<path fill="#BDD4E8" d="M526.569,206.819l-0.887-0.512l-1.726,1.003l0.887,0.512c0.313,0.181,0.626,0.272,0.95,0.284
								c0.318,0.008,0.61-0.066,0.89-0.229c0.272-0.159,0.399-0.328,0.386-0.512C527.043,207.18,526.883,207,526.569,206.819
								 M541.84,215.431c-0.344-0.199-0.746-0.247-1.209-0.148c-0.458,0.096-1.08,0.369-1.848,0.815
								c-0.78,0.453-1.256,0.818-1.426,1.087c-0.177,0.273-0.093,0.505,0.252,0.704c0.339,0.195,0.746,0.247,1.217,0.144
								c0.464-0.1,1.086-0.38,1.865-0.833c0.768-0.446,1.243-0.803,1.407-1.069C542.27,215.862,542.185,215.629,541.84,215.431
								 M531.32,215.368l1.599-0.929l1.501,0.867l-1.599,0.929L531.32,215.368 M519.075,208.297l6.165-3.583l2.656,1.534
								c0.785,0.454,1.214,0.907,1.293,1.357c0.072,0.446-0.212,0.855-0.853,1.227c-0.646,0.376-1.358,0.546-2.128,0.505
								c-0.777-0.044-1.555-0.295-2.341-0.749l-1.06-0.612l-2.138,1.242L519.075,208.297 M530.21,209.112l1.167-0.678
								c0.402,0.136,0.784,0.276,1.142,0.431c0.351,0.151,0.677,0.317,0.977,0.491c0.805,0.464,1.277,0.892,1.413,1.271
								c0.143,0.383-0.06,0.73-0.586,1.036c-0.361,0.21-0.756,0.328-1.175,0.35c-0.414,0.026-0.866-0.044-1.325-0.207
								c0.308,0.302,0.437,0.597,0.387,0.877c-0.043,0.276-0.276,0.538-0.683,0.774c-0.615,0.358-1.314,0.491-2.104,0.402
								c-0.783-0.084-1.631-0.391-2.531-0.91c-0.319-0.185-0.613-0.384-0.882-0.598c-0.274-0.217-0.512-0.442-0.723-0.682
								l1.225-0.711c0.153,0.258,0.333,0.494,0.551,0.708c0.224,0.218,0.473,0.406,0.761,0.572c0.421,0.243,0.822,0.387,1.191,0.431
								c0.376,0.048,0.701-0.007,0.974-0.166c0.279-0.162,0.373-0.357,0.283-0.571c-0.084-0.218-0.353-0.461-0.8-0.719l-0.645-0.373
								l1.021-0.594l0.677,0.391c0.401,0.232,0.766,0.369,1.09,0.409c0.312,0.041,0.604-0.011,0.864-0.162
								c0.235-0.136,0.323-0.299,0.259-0.483c-0.059-0.188-0.264-0.379-0.614-0.582c-0.262-0.151-0.549-0.28-0.874-0.402
								C530.93,209.3,530.586,209.197,530.21,209.112 M536.531,218.516c-0.817-0.472-1.177-0.996-1.059-1.574
								c0.104-0.579,0.681-1.165,1.701-1.758c1.021-0.594,2.031-0.929,3.03-0.992c0.992-0.066,1.903,0.136,2.721,0.608
								c0.817,0.472,1.164,0.996,1.06,1.574c-0.111,0.575-0.681,1.165-1.702,1.759c-1.021,0.593-2.038,0.925-3.03,0.991
								C538.247,219.19,537.348,218.988,536.531,218.516 M544.858,217.908l1.356-0.789c0.479,0.137,0.926,0.292,1.34,0.457
								c0.408,0.17,0.784,0.35,1.123,0.546c0.74,0.427,1.163,0.855,1.241,1.283c0.092,0.428-0.154,0.807-0.738,1.146
								c-0.336,0.195-0.736,0.324-1.2,0.395s-1.221,0.081-2.271,0.041l-2.477-0.092l2.727,1.574l-1.167,0.678l-4.508-2.603
								l1.167-0.678l4.252,0.155c0.389,0.011,0.713-0.007,0.98-0.052c0.267-0.044,0.502-0.122,0.686-0.229
								c0.292-0.169,0.425-0.357,0.404-0.575c-0.021-0.218-0.187-0.417-0.513-0.605c-0.249-0.144-0.574-0.273-0.976-0.379
								C545.877,218.07,545.405,217.981,544.858,217.908 M588.519,226.67l-77.311-44.638l-34.558,20.083l77.311,44.638
								L588.519,226.67"/>
							<polyline fill="#EDEDED" points="589.927,225.852 512.616,181.213 511.199,180.395 473.824,202.115 475.232,201.297 
								476.65,202.115 511.208,182.032 588.519,226.67 553.961,246.753 589.927,225.852 							"/>
							<path fill="#BDD4E8" d="M601.409,250.031l-0.88-0.508l-1.726,1.003l0.88,0.508c0.313,0.181,0.626,0.273,0.951,0.284
								c0.317,0.007,0.616-0.062,0.896-0.225c0.272-0.158,0.393-0.332,0.379-0.516C601.883,250.392,601.723,250.211,601.409,250.031
								 M616.681,258.643c-0.345-0.199-0.746-0.247-1.21-0.148c-0.458,0.096-1.08,0.369-1.847,0.815
								c-0.78,0.454-1.257,0.818-1.427,1.087c-0.177,0.273-0.093,0.505,0.253,0.704c0.345,0.199,0.746,0.247,1.216,0.144
								c0.464-0.1,1.086-0.38,1.866-0.833c0.768-0.446,1.243-0.803,1.407-1.069C617.109,259.074,617.025,258.842,616.681,258.643
								 M606.167,258.583l1.599-0.929l1.494,0.862l-1.599,0.929L606.167,258.583 M593.915,251.509l6.166-3.583l2.655,1.534
								c0.792,0.457,1.221,0.911,1.294,1.357c0.072,0.446-0.212,0.855-0.853,1.227c-0.647,0.376-1.359,0.546-2.129,0.505
								c-0.771-0.041-1.549-0.291-2.34-0.749l-1.054-0.608l-2.138,1.242L593.915,251.509 M605.057,252.327l1.167-0.678
								c0.396,0.133,0.778,0.272,1.136,0.427c0.351,0.151,0.676,0.317,0.976,0.491c0.805,0.464,1.278,0.892,1.42,1.275
								c0.136,0.38-0.059,0.73-0.586,1.036c-0.361,0.21-0.756,0.328-1.175,0.35c-0.421,0.022-0.872-0.048-1.332-0.21
								c0.308,0.302,0.437,0.597,0.387,0.877c-0.042,0.277-0.276,0.538-0.683,0.774c-0.615,0.358-1.308,0.495-2.098,0.406
								c-0.789-0.088-1.638-0.395-2.538-0.914c-0.319-0.185-0.613-0.384-0.882-0.598c-0.268-0.213-0.511-0.442-0.723-0.682
								l1.225-0.711c0.153,0.258,0.333,0.494,0.558,0.711c0.217,0.214,0.467,0.402,0.754,0.568c0.422,0.243,0.823,0.387,1.199,0.435
								c0.369,0.044,0.693-0.011,0.966-0.169c0.279-0.162,0.38-0.354,0.283-0.572c-0.083-0.217-0.347-0.457-0.8-0.718l-0.639-0.369
								l1.021-0.594l0.671,0.387c0.402,0.232,0.766,0.369,1.09,0.409c0.319,0.044,0.604-0.011,0.864-0.162
								c0.235-0.137,0.324-0.299,0.26-0.483c-0.059-0.188-0.264-0.38-0.615-0.583c-0.255-0.147-0.548-0.28-0.867-0.398
								C605.771,252.512,605.426,252.409,605.057,252.327 M611.371,261.728c-0.817-0.472-1.176-0.996-1.059-1.574
								c0.111-0.575,0.682-1.165,1.702-1.758c1.021-0.594,2.037-0.925,3.03-0.992c0.992-0.066,1.903,0.136,2.721,0.608
								c0.817,0.472,1.164,0.995,1.059,1.574c-0.111,0.575-0.681,1.165-1.702,1.758c-1.021,0.594-2.037,0.926-3.03,0.992
								C613.087,262.403,612.188,262.2,611.371,261.728 M620.138,261.035l1.167-0.678c0.395,0.132,0.777,0.272,1.135,0.427
								c0.352,0.151,0.676,0.317,0.977,0.49c0.804,0.464,1.277,0.892,1.419,1.275c0.137,0.38-0.059,0.73-0.585,1.036
								c-0.361,0.21-0.756,0.328-1.176,0.35c-0.42,0.022-0.872-0.048-1.331-0.21c0.307,0.302,0.436,0.598,0.387,0.877
								c-0.043,0.277-0.276,0.539-0.683,0.774c-0.615,0.358-1.314,0.491-2.098,0.406c-0.79-0.088-1.639-0.395-2.539-0.915
								c-0.319-0.184-0.613-0.383-0.881-0.597c-0.269-0.214-0.512-0.442-0.724-0.682l1.225-0.711
								c0.154,0.258,0.334,0.494,0.558,0.712c0.218,0.214,0.467,0.401,0.754,0.567c0.422,0.243,0.823,0.387,1.199,0.435
								c0.369,0.044,0.693-0.011,0.967-0.169c0.279-0.162,0.38-0.354,0.283-0.571c-0.084-0.218-0.347-0.458-0.8-0.719l-0.639-0.368
								l1.021-0.594l0.67,0.387c0.402,0.232,0.766,0.369,1.091,0.41c0.318,0.044,0.604-0.011,0.864-0.162
								c0.235-0.137,0.323-0.299,0.259-0.483c-0.059-0.188-0.264-0.38-0.615-0.583c-0.255-0.147-0.548-0.28-0.867-0.398
								C620.851,261.219,620.506,261.116,620.138,261.035 M660.148,268.028l-70.212-40.54l-34.559,20.084l35.033,20.228
								l35.179,20.312L660.148,268.028"/>
							<polyline fill="#EDEDED" points="662.98,268.032 589.927,225.852 553.961,246.753 555.378,247.572 589.937,227.488 
								660.148,268.028 625.59,288.112 627.014,288.934 662.98,268.032 							"/>
							<path fill="#BDD4E8" d="M570.644,297.15c-0.274-0.158-0.573-0.235-0.892-0.221c-0.318,0.007-0.63,0.106-0.94,0.287
								l-0.875,0.509l1.73,0.999l0.875-0.509c0.312-0.181,0.481-0.361,0.493-0.545C571.054,297.482,570.926,297.313,570.644,297.15
								 M586.687,289.07c-0.772-0.446-1.391-0.722-1.856-0.822c-0.459-0.096-0.859-0.048-1.202,0.151
								c-0.336,0.195-0.424,0.431-0.257,0.697c0.174,0.27,0.652,0.626,1.425,1.072c0.786,0.454,1.411,0.734,1.876,0.834
								c0.465,0.099,0.872,0.048,1.209-0.147c0.342-0.199,0.423-0.432,0.25-0.701S587.472,289.523,586.687,289.07 M592.616,286.57
								l-2.592-1.497l0.848,2.51L592.616,286.57 M565.183,297.98l2.639-1.533c0.786-0.458,1.567-0.705,2.338-0.745
								c0.77-0.04,1.477,0.125,2.121,0.498c0.651,0.376,0.946,0.789,0.879,1.235c-0.067,0.446-0.497,0.896-1.284,1.354l-1.047,0.608
								l2.152,1.242l-1.592,0.926L565.183,297.98 M577.405,294.19c0.526-0.181,1.022-0.255,1.507-0.225
								c0.483,0.03,0.937,0.159,1.352,0.398c0.612,0.354,0.851,0.763,0.7,1.22s-0.675,0.947-1.569,1.467
								c-0.317,0.185-0.66,0.354-1.029,0.509c-0.368,0.155-0.762,0.295-1.175,0.417l-1.238-0.715
								c0.452-0.085,0.864-0.191,1.232-0.317c0.369-0.125,0.687-0.272,0.972-0.438c0.425-0.247,0.672-0.472,0.753-0.689
								c0.076-0.213-0.021-0.402-0.296-0.56c-0.28-0.162-0.612-0.222-0.987-0.166c-0.375,0.048-0.788,0.199-1.238,0.461
								l-0.634,0.369l-1.028-0.594l0.666-0.387c0.399-0.232,0.634-0.442,0.703-0.63c0.075-0.185-0.027-0.354-0.283-0.502
								c-0.236-0.136-0.517-0.188-0.841-0.155c-0.318,0.037-0.648,0.155-0.997,0.358c-0.254,0.147-0.488,0.313-0.69,0.498
								c-0.196,0.188-0.373,0.387-0.519,0.604l-1.175-0.678c0.222-0.232,0.469-0.45,0.734-0.656c0.26-0.203,0.545-0.391,0.844-0.564
								c0.799-0.464,1.528-0.741,2.196-0.818c0.655-0.078,1.261,0.037,1.791,0.343c0.363,0.21,0.562,0.435,0.608,0.682
								C577.803,293.663,577.684,293.917,577.405,294.19 M581.951,293.56l1.484-0.862l1.609,0.929l-1.484,0.863L581.951,293.56
								 M583.217,291.101c-1.028-0.593-1.604-1.183-1.722-1.758c-0.118-0.583,0.229-1.103,1.041-1.574
								c0.812-0.472,1.708-0.675,2.714-0.608c0.993,0.066,2.014,0.398,3.042,0.992c1.027,0.594,1.597,1.18,1.721,1.758
								c0.112,0.579-0.229,1.103-1.04,1.574c-0.812,0.472-1.715,0.671-2.715,0.608C585.258,292.022,584.245,291.695,583.217,291.101
								 M589.672,288.038l-1.235-3.572l1.77-1.029l3.914,2.26l0.875-0.509l1.162,0.671l-0.876,0.509l1.131,0.653l-1.503,0.874
								l-1.131-0.653l-2.734,1.589L589.672,288.038 M624.182,288.93l-35.179-20.312l-46.471,27.006l35.18,20.312L624.182,288.93"/>
							<polyline fill="#EDEDED" points="627.014,288.934 625.59,288.112 590.411,267.8 589.003,268.618 624.182,288.93 
								577.712,315.937 579.136,316.759 627.014,288.934 							"/>
							<path fill="#D0D0D0" d="M543.234,305.039l-0.881-0.508l-1.719,0.999l0.881,0.508c0.312,0.181,0.625,0.273,0.943,0.288
								c0.318,0.007,0.623-0.066,0.896-0.226c0.272-0.158,0.399-0.335,0.38-0.516C543.714,305.397,543.548,305.22,543.234,305.039
								 M558.505,313.65c-0.345-0.199-0.739-0.25-1.203-0.15s-1.079,0.368-1.854,0.818c-0.78,0.453-1.249,0.814-1.426,1.087
								c-0.171,0.27-0.087,0.502,0.258,0.701c0.339,0.194,0.746,0.247,1.211,0.147c0.47-0.104,1.086-0.38,1.866-0.834
								c0.773-0.449,1.242-0.803,1.413-1.072C558.94,314.078,558.851,313.85,558.505,313.65 M547.985,313.589l1.599-0.93l1.5,0.866
								l-1.599,0.929L547.985,313.589 M535.739,306.518l6.166-3.583l2.655,1.533c0.792,0.457,1.229,0.907,1.301,1.354
								c0.072,0.445-0.213,0.854-0.859,1.231c-0.646,0.375-1.353,0.541-2.122,0.501c-0.771-0.04-1.555-0.288-2.347-0.745
								l-1.053-0.607l-2.138,1.242L535.739,306.518 M559.875,317.33l3.47-2.017l3.978,2.297l-1.167,0.678l-2.7-1.56l-0.958,0.557
								c0.159,0.049,0.306,0.104,0.439,0.166c0.147,0.063,0.287,0.13,0.421,0.207c0.754,0.435,1.151,0.885,1.198,1.346
								c0.047,0.46-0.269,0.888-0.941,1.278c-0.666,0.388-1.415,0.558-2.25,0.517c-0.833-0.048-1.662-0.306-2.479-0.778
								c-0.352-0.202-0.664-0.42-0.939-0.659c-0.274-0.239-0.518-0.498-0.718-0.774l1.25-0.727c0.136,0.307,0.322,0.575,0.526,0.804
								c0.205,0.236,0.448,0.428,0.717,0.583c0.383,0.221,0.784,0.343,1.191,0.364c0.414,0.02,0.782-0.062,1.105-0.25
								c0.324-0.188,0.47-0.405,0.43-0.642c-0.033-0.24-0.25-0.469-0.634-0.689c-0.229-0.133-0.504-0.262-0.829-0.376
								C560.672,317.54,560.303,317.43,559.875,317.33 M546.881,307.336l1.167-0.679c0.402,0.13,0.778,0.273,1.136,0.429
								c0.351,0.15,0.683,0.312,0.982,0.486c0.805,0.464,1.278,0.892,1.407,1.275c0.143,0.384-0.054,0.726-0.586,1.035
								c-0.361,0.21-0.743,0.328-1.162,0.351c-0.427,0.025-0.872-0.048-1.338-0.206c0.307,0.302,0.442,0.594,0.393,0.873
								c-0.049,0.28-0.276,0.538-0.688,0.778c-0.609,0.354-1.315,0.49-2.098,0.405c-0.79-0.088-1.639-0.395-2.538-0.914
								c-0.319-0.185-0.613-0.384-0.883-0.598c-0.274-0.217-0.511-0.441-0.723-0.682l1.231-0.715
								c0.147,0.262,0.333,0.494,0.558,0.711c0.217,0.214,0.467,0.402,0.754,0.568c0.421,0.243,0.816,0.391,1.192,0.438
								c0.37,0.044,0.693-0.012,0.967-0.17c0.278-0.162,0.38-0.354,0.289-0.575c-0.084-0.217-0.353-0.453-0.806-0.715l-0.639-0.369
								l1.021-0.593l0.671,0.387c0.402,0.232,0.767,0.369,1.091,0.409c0.318,0.037,0.61-0.015,0.864-0.162
								c0.241-0.141,0.323-0.299,0.265-0.486c-0.064-0.185-0.27-0.376-0.62-0.579c-0.255-0.147-0.543-0.283-0.861-0.401
								C547.602,307.517,547.251,307.417,546.881,307.336 M553.196,316.736c-0.817-0.472-1.171-0.999-1.06-1.574
								c0.111-0.582,0.682-1.164,1.703-1.758c1.027-0.598,2.031-0.93,3.029-0.992c0.999-0.07,1.91,0.133,2.728,0.604
								c0.817,0.473,1.163,0.995,1.052,1.578c-0.11,0.575-0.674,1.161-1.702,1.758c-1.021,0.594-2.03,0.922-3.029,0.992
								C554.918,317.407,554.014,317.208,553.196,316.736 M576.304,316.755l-35.18-20.312l-16.65,9.677l35.179,20.312
								L576.304,316.755"/>
							<polyline fill="#EDEDED" points="579.136,316.759 577.712,315.937 542.532,295.625 541.124,296.443 576.304,316.755 
								559.652,326.432 561.076,327.254 579.136,316.759 							"/>
							<path fill="#D0D0D0" d="M543.092,329.605c-0.28-0.162-0.579-0.232-0.897-0.21c-0.318,0.029-0.655,0.144-1.017,0.354
								s-0.564,0.409-0.607,0.59c-0.037,0.185,0.078,0.361,0.358,0.523c0.281,0.163,0.588,0.229,0.905,0.207
								c0.318-0.022,0.661-0.141,1.022-0.351c0.362-0.21,0.558-0.405,0.602-0.594C543.495,329.941,543.373,329.768,543.092,329.605
								 M523.932,316.257l-0.881-0.508l-1.719,0.999l0.881,0.508c0.313,0.181,0.619,0.276,0.943,0.288
								c0.318,0.007,0.617-0.063,0.896-0.226c0.272-0.158,0.393-0.332,0.379-0.516C524.405,316.618,524.245,316.438,523.932,316.257
								 M539.203,324.869c-0.346-0.199-0.746-0.247-1.21-0.148c-0.458,0.096-1.079,0.369-1.848,0.815
								c-0.78,0.453-1.255,0.817-1.426,1.087c-0.177,0.273-0.093,0.505,0.252,0.704c0.339,0.195,0.746,0.247,1.217,0.144
								c0.464-0.099,1.086-0.379,1.866-0.833c0.768-0.446,1.243-0.804,1.407-1.068C539.632,325.3,539.548,325.067,539.203,324.869
								 M528.684,324.806l1.599-0.929l1.499,0.866l-1.598,0.929L528.684,324.806 M516.438,317.735l6.165-3.583l2.656,1.533
								c0.792,0.457,1.222,0.911,1.294,1.356c0.072,0.446-0.212,0.855-0.853,1.228c-0.647,0.376-1.359,0.546-2.129,0.506
								c-0.771-0.041-1.549-0.292-2.341-0.749l-1.053-0.607l-2.138,1.242L516.438,317.735 M539.915,331.431
								c-0.806-0.465-1.165-0.981-1.06-1.553c0.1-0.567,0.643-1.143,1.639-1.721c1.015-0.59,2.076-0.903,3.177-0.944
								c1.101-0.04,2.102,0.199,3.001,0.719c0.281,0.162,0.537,0.34,0.761,0.52c0.229,0.178,0.428,0.373,0.602,0.575l-1.136,0.66
								c-0.142-0.221-0.295-0.42-0.475-0.59c-0.173-0.166-0.371-0.317-0.588-0.442c-0.479-0.276-0.982-0.413-1.511-0.416
								c-0.528,0.003-1.074,0.136-1.639,0.413c0.318,0.029,0.618,0.085,0.898,0.165c0.286,0.085,0.548,0.199,0.803,0.347
								c0.633,0.365,0.959,0.767,0.98,1.206c0.021,0.438-0.269,0.836-0.865,1.183c-0.659,0.384-1.403,0.564-2.236,0.546
								C541.426,332.075,540.649,331.854,539.915,331.431 M527.578,318.554l1.167-0.679c0.396,0.133,0.779,0.273,1.136,0.428
								c0.351,0.151,0.677,0.317,0.977,0.49c0.805,0.465,1.278,0.893,1.413,1.272c0.144,0.383-0.06,0.729-0.586,1.035
								c-0.361,0.21-0.749,0.332-1.169,0.354c-0.42,0.021-0.871-0.048-1.331-0.21c0.308,0.302,0.437,0.597,0.387,0.877
								c-0.042,0.276-0.276,0.538-0.683,0.774c-0.615,0.357-1.314,0.49-2.098,0.405c-0.789-0.088-1.638-0.395-2.538-0.914
								c-0.319-0.185-0.613-0.384-0.882-0.598c-0.275-0.217-0.512-0.441-0.723-0.682l1.224-0.712
								c0.154,0.259,0.334,0.494,0.559,0.712c0.217,0.214,0.466,0.401,0.754,0.567c0.421,0.244,0.823,0.388,1.198,0.436
								c0.37,0.044,0.693-0.012,0.967-0.17c0.279-0.162,0.38-0.354,0.283-0.571c-0.084-0.218-0.347-0.457-0.8-0.719l-0.639-0.369
								l1.021-0.593l0.671,0.387c0.402,0.232,0.766,0.369,1.091,0.409c0.312,0.041,0.604-0.011,0.864-0.162
								c0.234-0.137,0.322-0.299,0.258-0.482c-0.059-0.188-0.263-0.38-0.614-0.583c-0.255-0.147-0.549-0.28-0.867-0.398
								C528.293,318.738,527.948,318.635,527.578,318.554 M533.894,327.954c-0.817-0.472-1.177-0.995-1.059-1.574
								c0.104-0.579,0.681-1.165,1.702-1.758c1.021-0.594,2.031-0.93,3.029-0.992c0.993-0.066,1.903,0.137,2.721,0.608
								c0.818,0.472,1.164,0.995,1.06,1.574c-0.111,0.575-0.682,1.164-1.702,1.758c-1.021,0.594-2.037,0.926-3.03,0.992
								C535.609,328.629,534.711,328.426,533.894,327.954 M558.245,327.25l-35.18-20.312l-25.246,14.672l35.179,20.312
								L558.245,327.25"/>
							<polyline fill="#EDEDED" points="561.076,327.254 559.652,326.432 524.474,306.12 523.065,306.938 558.245,327.25 
								532.998,341.922 534.422,342.744 561.076,327.254 							"/>
							<path fill="#BDD4E8" d="M463.862,359.207c-0.274-0.158-0.573-0.235-0.885-0.225c-0.325,0.011-0.63,0.107-0.941,0.288
								l-0.882,0.512l1.73,1l0.882-0.513c0.312-0.181,0.476-0.358,0.493-0.546C464.271,359.539,464.144,359.37,463.862,359.207
								 M479.911,351.123c-0.772-0.446-1.391-0.723-1.856-0.822c-0.459-0.096-0.858-0.048-1.201,0.151s-0.425,0.432-0.258,0.697
								c0.174,0.269,0.646,0.63,1.419,1.075c0.786,0.454,1.417,0.73,1.883,0.83c0.464,0.1,0.865,0.052,1.208-0.147
								c0.336-0.195,0.424-0.432,0.251-0.7C481.183,351.938,480.696,351.576,479.911,351.123 M458.407,360.033l2.639-1.533
								c0.78-0.454,1.562-0.7,2.338-0.745c0.77-0.04,1.477,0.125,2.121,0.498c0.651,0.376,0.946,0.788,0.88,1.234
								c-0.074,0.45-0.504,0.899-1.285,1.354l-1.053,0.612l2.151,1.242l-1.585,0.921L458.407,360.033 M470.63,356.244
								c0.521-0.178,1.022-0.255,1.507-0.226s0.93,0.162,1.345,0.402c0.613,0.354,0.851,0.763,0.701,1.22
								c-0.144,0.453-0.67,0.944-1.563,1.464c-0.317,0.185-0.66,0.354-1.028,0.508c-0.375,0.159-0.762,0.296-1.176,0.417
								l-1.237-0.715c0.45-0.085,0.857-0.188,1.226-0.313c0.375-0.129,0.692-0.276,0.978-0.442c0.419-0.243,0.672-0.472,0.747-0.686
								c0.082-0.218-0.016-0.405-0.29-0.564c-0.28-0.161-0.618-0.217-0.986-0.166c-0.375,0.049-0.795,0.203-1.238,0.461
								l-0.641,0.373l-1.028-0.594l0.672-0.391c0.4-0.232,0.635-0.442,0.704-0.631c0.068-0.181-0.028-0.354-0.284-0.501
								c-0.236-0.137-0.516-0.188-0.841-0.155c-0.317,0.037-0.647,0.155-0.997,0.358c-0.26,0.15-0.487,0.312-0.696,0.501
								c-0.196,0.188-0.373,0.387-0.519,0.604l-1.175-0.679c0.228-0.235,0.475-0.453,0.74-0.659c0.26-0.203,0.546-0.392,0.844-0.564
								c0.799-0.464,1.529-0.741,2.19-0.814c0.662-0.081,1.261,0.037,1.79,0.343c0.364,0.21,0.562,0.435,0.609,0.682
								C471.027,355.717,470.902,355.975,470.63,356.244 M475.17,355.616l1.49-0.865l1.609,0.929l-1.49,0.866L475.17,355.616
								 M476.442,353.154c-1.028-0.594-1.611-1.18-1.723-1.759c-0.124-0.578,0.229-1.102,1.042-1.573
								c0.812-0.473,1.708-0.675,2.713-0.608c0.994,0.066,2.014,0.397,3.042,0.991c1.027,0.594,1.597,1.18,1.722,1.759
								c0.111,0.578-0.229,1.102-1.041,1.574c-0.812,0.472-1.722,0.674-2.715,0.607
								C478.477,354.079,477.471,353.748,476.442,353.154 M479.378,347.846l4.644-2.698l0.899,0.52l2.902,4.461l-1.548,0.899
								l-2.754-4.229l-2.97,1.726L479.378,347.846 M531.584,342.744l-35.179-20.312l-79.315,46.095l5.925,3.421l20.194,11.66
								l9.061,5.231L531.584,342.744"/>
							<polyline fill="#EDEDED" points="534.422,342.744 532.998,341.922 497.819,321.61 496.405,322.432 531.584,342.744 
								452.27,388.839 453.692,389.66 534.422,342.744 							"/>
							<path fill="#BDD4E8" d="M416.349,414.434c-0.275-0.159-0.581-0.232-0.893-0.222c-0.312,0.012-0.63,0.107-0.94,0.287
								l-0.875,0.509l1.73,1l0.875-0.509c0.311-0.181,0.481-0.361,0.493-0.546C416.751,414.769,416.629,414.596,416.349,414.434
								 M432.391,406.354c-0.772-0.446-1.392-0.724-1.851-0.819c-0.465-0.099-0.865-0.052-1.208,0.147s-0.424,0.432-0.251,0.7
								c0.167,0.266,0.646,0.624,1.419,1.069c0.785,0.453,1.41,0.734,1.876,0.834c0.465,0.099,0.872,0.055,1.214-0.145
								c0.343-0.199,0.418-0.435,0.245-0.704C433.661,407.167,433.176,406.807,432.391,406.354 M436.669,402.202
								c-0.249-0.144-0.497-0.214-0.765-0.214c-0.267,0.007-0.528,0.077-0.775,0.221c-0.254,0.147-0.38,0.303-0.385,0.453
								c-0.006,0.159,0.122,0.307,0.364,0.446c0.25,0.145,0.498,0.214,0.771,0.21c0.268,0.001,0.528-0.077,0.782-0.225
								c0.247-0.144,0.373-0.291,0.378-0.449C437.04,402.489,436.918,402.346,436.669,402.202 M439.528,403.691
								c-0.306-0.177-0.618-0.27-0.937-0.27c-0.325-0.003-0.636,0.081-0.928,0.251c-0.298,0.173-0.443,0.354-0.437,0.542
								c0.001,0.185,0.155,0.368,0.461,0.545c0.308,0.178,0.619,0.262,0.943,0.266c0.318,0,0.63-0.085,0.929-0.258
								c0.291-0.17,0.437-0.351,0.436-0.534C439.988,404.045,439.836,403.868,439.528,403.691 M410.886,415.263l2.639-1.534
								c0.786-0.456,1.567-0.703,2.337-0.744c0.77-0.04,1.477,0.126,2.122,0.498c0.651,0.376,0.946,0.789,0.879,1.234
								c-0.067,0.446-0.498,0.896-1.284,1.354l-1.047,0.607l2.152,1.243l-1.592,0.925L410.886,415.263 M423.108,411.474
								c0.522-0.178,1.03-0.251,1.508-0.226c0.483,0.029,0.937,0.166,1.345,0.401c0.619,0.358,0.857,0.76,0.707,1.217
								c-0.15,0.458-0.676,0.947-1.57,1.468c-0.317,0.185-0.659,0.354-1.028,0.508c-0.367,0.155-0.762,0.296-1.174,0.417
								l-1.232-0.711c0.444-0.089,0.852-0.192,1.226-0.321c0.369-0.125,0.691-0.269,0.978-0.435
								c0.419-0.243,0.666-0.476,0.747-0.693c0.076-0.214-0.021-0.401-0.296-0.561c-0.28-0.162-0.611-0.221-0.986-0.165
								c-0.376,0.048-0.788,0.198-1.239,0.46l-0.634,0.369l-1.027-0.594l0.665-0.387c0.4-0.232,0.634-0.442,0.703-0.631
								c0.075-0.184-0.027-0.354-0.282-0.501c-0.236-0.137-0.518-0.188-0.841-0.154c-0.318,0.037-0.649,0.154-0.998,0.356
								c-0.254,0.147-0.488,0.313-0.685,0.502c-0.203,0.185-0.38,0.384-0.524,0.601l-1.175-0.679
								c0.221-0.231,0.468-0.449,0.734-0.655c0.26-0.203,0.545-0.391,0.843-0.564c0.799-0.464,1.53-0.74,2.198-0.818
								c0.655-0.077,1.26,0.037,1.79,0.343c0.364,0.211,0.562,0.435,0.607,0.683C423.507,410.945,423.388,411.2,423.108,411.474
								 M427.656,410.843l1.484-0.862l1.608,0.929l-1.484,0.862L427.656,410.843 M428.921,408.384
								c-1.028-0.594-1.604-1.184-1.722-1.758c-0.118-0.583,0.229-1.103,1.041-1.574c0.812-0.473,1.708-0.675,2.714-0.608
								c0.993,0.066,2.014,0.397,3.042,0.991c1.027,0.594,1.604,1.184,1.721,1.759c0.112,0.579-0.229,1.102-1.041,1.574
								c-0.812,0.472-1.714,0.671-2.714,0.608C430.969,409.31,429.949,408.978,428.921,408.384 M438.288,402.703
								c0.534-0.177,1.043-0.25,1.514-0.221c0.478,0.025,0.911,0.15,1.313,0.383c0.613,0.354,0.876,0.741,0.782,1.158
								c-0.087,0.42-0.536,0.858-1.335,1.323c-0.8,0.464-1.562,0.729-2.287,0.781c-0.725,0.06-1.394-0.092-2.007-0.446
								c-0.402-0.232-0.62-0.483-0.665-0.759c-0.053-0.273,0.072-0.568,0.376-0.878c-0.489,0.151-0.94,0.214-1.367,0.188
								c-0.426-0.026-0.814-0.141-1.166-0.343c-0.523-0.303-0.735-0.646-0.624-1.029c0.119-0.387,0.556-0.796,1.305-1.231
								c0.748-0.435,1.447-0.685,2.108-0.752c0.662-0.065,1.255,0.048,1.784,0.354c0.352,0.203,0.55,0.428,0.596,0.675
								S438.548,402.419,438.288,402.703 M476.431,404.421l-34.63-19.995l-31.634,18.385l-33.955,19.732l34.63,19.996
								L476.431,404.421"/>
							<polyline fill="#EDEDED" points="479.257,404.421 453.692,389.66 452.27,388.839 443.209,383.607 441.801,384.426 
								476.431,404.421 410.842,442.539 412.259,443.357 479.257,404.421 							"/>
							<path fill="#BDD4E8" d="M305.808,349.97l-0.881-0.509l-1.719,0.999l0.881,0.509c0.312,0.18,0.625,0.272,0.944,0.287
								c0.318,0.007,0.617-0.062,0.895-0.225c0.273-0.159,0.399-0.336,0.38-0.517C306.281,350.33,306.12,350.15,305.808,349.97
								 M321.079,358.581c-0.345-0.199-0.747-0.247-1.204-0.151c-0.464,0.1-1.086,0.372-1.854,0.818
								c-0.78,0.453-1.255,0.818-1.426,1.088c-0.17,0.269-0.093,0.505,0.252,0.704c0.345,0.199,0.752,0.243,1.216,0.144
								c0.464-0.1,1.086-0.38,1.867-0.833c0.767-0.446,1.243-0.804,1.413-1.073C321.507,359.012,321.424,358.779,321.079,358.581
								 M326.945,361.873c-0.274-0.159-0.58-0.226-0.905-0.207c-0.324,0.026-0.667,0.145-1.022,0.351
								c-0.362,0.21-0.564,0.409-0.601,0.593c-0.031,0.188,0.084,0.365,0.359,0.524c0.281,0.162,0.587,0.228,0.905,0.206
								c0.318-0.022,0.667-0.137,1.028-0.347c0.355-0.206,0.552-0.409,0.595-0.597C327.342,362.212,327.227,362.035,326.945,361.873
								 M310.565,358.521l1.598-0.929l1.494,0.862l-1.598,0.929L310.565,358.521 M298.313,351.447l6.166-3.583l2.656,1.533
								c0.792,0.458,1.221,0.911,1.293,1.356c0.079,0.443-0.211,0.855-0.853,1.229c-0.646,0.376-1.358,0.545-2.129,0.505
								c-0.771-0.041-1.547-0.292-2.339-0.749l-1.053-0.607l-2.138,1.242L298.313,351.447 M323.487,363.579
								c-0.639-0.368-0.966-0.771-0.987-1.209c-0.027-0.435,0.269-0.829,0.866-1.176c0.666-0.387,1.415-0.571,2.25-0.553
								c0.834,0.018,1.611,0.239,2.339,0.66c0.804,0.464,1.164,0.987,1.065,1.555c-0.105,0.572-0.649,1.147-1.639,1.722
								c-1.015,0.59-2.076,0.911-3.176,0.944c-1.101,0.04-2.102-0.199-3.008-0.723c-0.288-0.166-0.55-0.339-0.767-0.517
								c-0.225-0.18-0.422-0.368-0.596-0.563l1.142-0.664c0.135,0.218,0.289,0.409,0.468,0.579c0.173,0.166,0.371,0.317,0.601,0.45
								c0.473,0.272,0.982,0.412,1.505,0.412c0.534,0,1.074-0.136,1.646-0.409c-0.331-0.029-0.631-0.084-0.917-0.169
								C323.998,363.838,323.736,363.723,323.487,363.579 M309.455,352.266l1.167-0.678c0.401,0.129,0.777,0.272,1.135,0.428
								c0.351,0.15,0.676,0.316,0.976,0.49c0.805,0.465,1.285,0.889,1.414,1.271c0.142,0.384-0.053,0.733-0.58,1.039
								c-0.362,0.211-0.75,0.325-1.176,0.351c-0.419,0.022-0.866-0.052-1.331-0.21c0.307,0.303,0.442,0.594,0.393,0.874
								s-0.277,0.538-0.689,0.777c-0.615,0.357-1.314,0.49-2.097,0.405c-0.79-0.088-1.638-0.395-2.538-0.914
								c-0.319-0.185-0.613-0.384-0.882-0.597c-0.268-0.214-0.511-0.443-0.723-0.683l1.225-0.711
								c0.154,0.258,0.333,0.494,0.557,0.711c0.218,0.214,0.467,0.402,0.754,0.568c0.422,0.243,0.824,0.387,1.199,0.435
								c0.369,0.044,0.694-0.011,0.966-0.169c0.279-0.163,0.38-0.354,0.29-0.576c-0.09-0.213-0.352-0.453-0.806-0.715l-0.638-0.369
								l1.021-0.593l0.67,0.388c0.402,0.231,0.765,0.368,1.09,0.408c0.318,0.037,0.611-0.015,0.864-0.162
								c0.235-0.136,0.324-0.299,0.265-0.486c-0.065-0.185-0.269-0.376-0.621-0.579c-0.255-0.147-0.542-0.284-0.868-0.398
								C310.168,352.45,309.824,352.347,309.455,352.266 M315.77,361.666c-0.817-0.472-1.171-0.999-1.059-1.574
								c0.111-0.582,0.681-1.164,1.703-1.758c1.021-0.594,2.03-0.93,3.029-0.992c0.999-0.069,1.903,0.137,2.721,0.608
								c0.817,0.473,1.17,0.992,1.059,1.574c-0.112,0.575-0.681,1.165-1.702,1.758c-1.021,0.594-2.032,0.922-3.03,0.992
								C317.491,362.337,316.587,362.138,315.77,361.666 M371.485,361.773l-63.079-36.422l-50.099,29.115l63.079,36.422
								l32.243-18.738l-0.006-0.004l2.211-1.277L371.485,361.773"/>
							<polyline fill="#EDEDED" points="371.531,361.8 339.237,343.153 308.406,325.352 371.485,361.773 355.834,370.869 
								371.531,361.8 							"/>
							<path fill="#EE7203" d="M367.733,335.039l-0.881-0.508l-1.718,0.998l0.881,0.509c0.312,0.181,0.619,0.276,0.943,0.288
								c0.318,0.007,0.618-0.063,0.896-0.226c0.272-0.158,0.393-0.331,0.379-0.516C368.207,335.4,368.046,335.22,367.733,335.039
								 M388.929,347.072c-0.345-0.199-0.746-0.248-1.204-0.151c-0.464,0.1-1.085,0.372-1.853,0.818
								c-0.78,0.453-1.256,0.818-1.426,1.087c-0.17,0.27-0.093,0.505,0.252,0.704c0.339,0.196,0.753,0.243,1.217,0.144
								c0.464-0.099,1.085-0.379,1.866-0.833c0.768-0.446,1.243-0.803,1.413-1.072C389.358,347.503,389.274,347.271,388.929,347.072
								 M372.491,343.592l1.599-0.929l1.494,0.862l-1.598,0.929L372.491,343.592 M360.239,336.518l6.166-3.583l2.656,1.533
								c0.792,0.457,1.22,0.911,1.293,1.356c0.072,0.446-0.211,0.855-0.853,1.229c-0.647,0.375-1.359,0.545-2.129,0.505
								c-0.771-0.041-1.548-0.292-2.34-0.749l-1.053-0.607l-2.137,1.241L360.239,336.518 M380.594,342.729l1.085-0.631l1.741,0.66
								l1.526,0.881l-5.069,2.945l1.411,0.814l-1.097,0.638l-4.342-2.507l1.097-0.638l1.417,0.818l3.983-2.314L380.594,342.729
								 M371.381,337.336l1.167-0.678c0.402,0.129,0.778,0.272,1.136,0.428c0.351,0.15,0.676,0.316,0.976,0.489
								c0.805,0.465,1.284,0.889,1.42,1.275c0.136,0.38-0.06,0.73-0.586,1.036c-0.361,0.211-0.749,0.324-1.176,0.351
								c-0.42,0.022-0.865-0.052-1.331-0.21c0.307,0.302,0.436,0.597,0.393,0.873c-0.049,0.28-0.284,0.542-0.689,0.778
								c-0.615,0.357-1.308,0.494-2.098,0.405c-0.79-0.088-1.638-0.395-2.538-0.914c-0.319-0.185-0.613-0.383-0.882-0.598
								c-0.268-0.214-0.512-0.441-0.723-0.682l1.225-0.712c0.154,0.259,0.333,0.494,0.557,0.712
								c0.218,0.214,0.467,0.402,0.754,0.567c0.421,0.244,0.824,0.388,1.199,0.436c0.37,0.044,0.694-0.012,0.966-0.17
								c0.279-0.162,0.38-0.354,0.283-0.571c-0.084-0.218-0.347-0.457-0.8-0.719l-0.639-0.368l1.021-0.594l0.67,0.387
								c0.402,0.232,0.766,0.369,1.091,0.409c0.319,0.044,0.61-0.015,0.864-0.162c0.235-0.137,0.323-0.299,0.259-0.483
								c-0.059-0.188-0.264-0.379-0.615-0.582c-0.255-0.147-0.542-0.283-0.868-0.398
								C372.094,337.521,371.75,337.417,371.381,337.336 M383.621,350.157c-0.817-0.472-1.17-0.999-1.059-1.574
								c0.105-0.579,0.681-1.165,1.702-1.758c1.021-0.594,2.031-0.93,3.03-0.992c0.999-0.07,1.903,0.137,2.721,0.608
								c0.817,0.472,1.17,0.991,1.059,1.574c-0.111,0.575-0.681,1.165-1.702,1.759c-1.021,0.593-2.037,0.925-3.03,0.991
								C385.342,350.828,384.438,350.629,383.621,350.157 M406.386,341.49l-30.831-17.802l-33.493,19.465l30.831,17.802
								L406.386,341.49"/>
							<polyline fill="#EDEDED" points="406.533,341.575 375.556,323.688 406.386,341.49 372.894,360.955 342.063,343.153 
								340.655,343.972 339.237,343.153 371.531,361.8 406.533,341.575 							"/>
							<polyline fill="#D0D0D0" points="441.19,321.549 410.113,303.605 376.97,322.867 407.952,340.756 441.19,321.549 							"/>
							<polyline fill="#EDEDED" points="407.952,340.756 376.97,322.867 375.556,323.688 406.533,341.575 407.952,340.756 							
								"/>
							<polyline fill="#EE7203" points="459.754,310.823 445.075,302.349 427.975,312.287 442.603,320.733 459.754,310.823 							
								"/>
							<polyline fill="#EDEDED" points="442.603,320.733 427.975,312.287 426.566,313.105 425.148,312.287 441.19,321.549 
								442.603,320.733 							"/>
							<polyline fill="#EE7203" points="494.805,290.268 469.4,275.6 444.751,289.925 470.155,304.593 494.805,290.268 							"/>
							<path fill="#BDD4E8" d="M508.268,256.792c-0.281-0.162-0.58-0.232-0.905-0.207c-0.312,0.026-0.654,0.145-1.016,0.354
								s-0.559,0.405-0.608,0.589c-0.036,0.185,0.085,0.358,0.366,0.52s0.58,0.232,0.898,0.21c0.324-0.025,0.661-0.14,1.022-0.35
								s0.564-0.409,0.602-0.593C508.67,257.127,508.549,256.954,508.268,256.792 M489.101,243.447l-0.881-0.509l-1.719,0.999
								l0.881,0.509c0.312,0.18,0.625,0.272,0.943,0.287c0.318,0.008,0.623-0.066,0.896-0.225c0.272-0.159,0.398-0.335,0.379-0.516
								C489.58,243.805,489.414,243.627,489.101,243.447 M493.858,252l1.599-0.929l1.494,0.863l-1.599,0.929L493.858,252
								 M481.606,244.925l6.165-3.583l2.656,1.534c0.792,0.458,1.227,0.907,1.3,1.353c0.072,0.446-0.212,0.855-0.858,1.231
								c-0.647,0.376-1.353,0.542-2.123,0.501s-1.555-0.288-2.347-0.745l-1.053-0.608l-2.138,1.242L481.606,244.925
								 M501.968,251.133l1.078-0.626l1.741,0.66l1.525,0.881l-5.067,2.945l1.41,0.815l-1.097,0.638l-4.342-2.507l1.098-0.638
								l1.417,0.818l3.983-2.315L501.968,251.133 M505.083,258.62c-0.805-0.464-1.157-0.984-1.059-1.552
								c0.099-0.568,0.643-1.143,1.639-1.722c1.021-0.593,2.082-0.907,3.183-0.947c1.095-0.037,2.096,0.203,2.995,0.723
								c0.281,0.162,0.543,0.335,0.767,0.516c0.224,0.18,0.429,0.372,0.602,0.575l-1.142,0.664c-0.135-0.225-0.295-0.42-0.474-0.59
								c-0.167-0.169-0.372-0.317-0.589-0.442c-0.479-0.276-0.976-0.417-1.511-0.417c-0.521,0-1.074,0.137-1.633,0.41
								c0.318,0.029,0.618,0.084,0.892,0.169c0.287,0.084,0.549,0.199,0.804,0.346c0.633,0.365,0.959,0.767,0.98,1.206
								s-0.263,0.833-0.858,1.18c-0.666,0.387-1.41,0.568-2.243,0.549C506.602,259.262,505.817,259.044,505.083,258.62
								 M492.748,245.744l1.167-0.678c0.401,0.129,0.777,0.272,1.135,0.428c0.351,0.151,0.683,0.313,0.982,0.486
								c0.805,0.465,1.278,0.893,1.408,1.276c0.142,0.383-0.047,0.729-0.58,1.04c-0.361,0.21-0.749,0.324-1.169,0.346
								c-0.427,0.026-0.872-0.048-1.338-0.207c0.308,0.302,0.442,0.594,0.394,0.874c-0.05,0.28-0.277,0.538-0.689,0.778
								c-0.609,0.354-1.309,0.486-2.098,0.405c-0.79-0.088-1.638-0.395-2.538-0.915c-0.319-0.184-0.613-0.383-0.882-0.597
								s-0.512-0.442-0.723-0.682l1.23-0.715c0.147,0.262,0.333,0.494,0.558,0.711c0.218,0.214,0.467,0.402,0.754,0.568
								c0.422,0.244,0.817,0.391,1.192,0.438c0.369,0.044,0.693-0.011,0.967-0.169c0.279-0.162,0.38-0.354,0.289-0.575
								c-0.084-0.217-0.353-0.453-0.806-0.715l-0.639-0.369l1.021-0.594l0.671,0.387c0.402,0.232,0.766,0.369,1.09,0.409
								c0.318,0.037,0.611-0.015,0.865-0.162c0.24-0.14,0.322-0.298,0.265-0.487c-0.065-0.184-0.27-0.376-0.621-0.579
								c-0.255-0.147-0.543-0.284-0.861-0.402C493.468,245.924,493.117,245.825,492.748,245.744 M537.33,255.442l-45.312-26.162
								l-17.153-0.432l-7.517,4.369l-9.508,5.526l0.388,10.189l28.622,16.526l16.671,9.625l17.329,0.047l17.037-9.901
								L537.33,255.442"/>
							<polyline fill="#D0D0D0" points="518.864,276.285 502.693,276.237 485.442,266.277 470.809,274.781 496.213,289.45 
								518.864,276.285 							"/>
							<polyline fill="#EDEDED" points="520.851,275.131 503.521,275.084 486.851,265.458 485.442,266.277 502.693,276.237 
								518.864,276.285 496.213,289.45 470.809,274.781 469.4,275.6 494.805,290.268 520.851,275.131 							"/>
							<path fill="#D0D0D0" d="M408.442,383.493l3.375-1.961l3.358,1.938l3.33-1.935l3.352,1.936l3.336-1.939l3.353,1.936
								l3.329-1.936l3.397,1.961l-13.372,7.771l-6.704-3.871L408.442,383.493 M440.383,383.607l-18.776-10.842l-31.634,18.385
								l18.777,10.842L440.383,383.607"/>
							<polyline fill="#EDEDED" points="443.209,383.607 423.015,371.947 421.606,372.766 440.383,383.607 408.749,401.992 
								410.167,402.811 441.801,384.426 443.209,383.607 							"/>
							<polyline fill="#D0D0D0" points="366.45,379.553 355.047,372.969 322.804,391.707 354.594,410.062 366.988,402.858 
								366.73,391.817 366.729,391.817 366.45,379.553 							"/>
							<polyline fill="#EDEDED" points="366.45,379.553 353.629,372.15 321.387,390.889 322.804,391.707 355.047,372.969 
								366.45,379.553 							"/>
							<polyline fill="#D0D0D0" points="407.335,402.813 388.143,391.732 368.727,391.811 369.002,403.338 356.017,410.884 
								374.794,421.725 407.335,402.813 							"/>
							<polyline fill="#EDEDED" points="410.167,402.811 408.749,401.992 389.972,391.15 388.977,391.729 366.73,391.817 
								366.988,402.858 354.594,410.062 356.017,410.884 369.002,403.338 368.727,391.811 388.143,391.732 407.335,402.813 
								374.794,421.725 376.212,422.543 410.167,402.811 							"/>
							<polyline fill="#D0D0D0" points="587.586,267.8 475.242,202.934 445.169,220.411 465.925,232.395 474.063,227.666 
								492.878,228.145 539.301,254.949 539.914,265.694 470.164,306.23 443.343,290.743 435.598,295.245 446.483,301.53 
								462.586,310.827 356.455,372.15 368.439,379.07 368.708,390.652 388.13,390.571 420.183,371.943 414.264,368.526 
								587.586,267.8 							"/>
							<path fill="#EDEDED" d="M539.301,254.949l-46.423-26.804l-18.814-0.479l-8.139,4.729l1.424,0.822l7.517-4.369l17.153,0.432
								l45.312,26.162l0.558,9.788l-17.037,9.901l-26.046,15.137l-24.649,14.325l-25.404-14.668l-1.408,0.818l26.821,15.487
								l69.75-40.536L539.301,254.949 M590.411,267.8l-35.033-20.228l-1.417-0.819l-77.311-44.638l-1.418-0.818l-1.408,0.818
								l-30.072,17.477l1.417,0.818l30.073-17.477L587.586,267.8L414.264,368.526l5.918,3.417l-32.053,18.628l-19.422,0.081
								l-0.269-11.582l-11.984-6.92l106.131-61.323l-16.103-9.297l-1.408,0.818l14.679,8.475l-17.151,9.91l-1.412,0.815
								l-33.239,19.207l-1.418,0.819L371.531,361.8l-15.697,9.069l-2.211,1.277l0.006,0.004l12.821,7.402l0.278,12.265h0.001
								l22.247-0.089l0.995-0.578l31.634-18.385l1.408-0.818l-5.925-3.421l79.315-46.095l1.414-0.821l25.246-14.672l1.408-0.818
								l16.65-9.677l1.408-0.818l46.471-27.006L590.411,267.8"/>
							<path fill="#D0D0D0" d="M390.124,207.309l3.375-1.961l3.358,1.939l3.331-1.936l3.352,1.936l3.336-1.939l3.352,1.935
								l3.33-1.935l3.403,1.965l-13.372,7.771l-6.71-3.875L390.124,207.309 M442.344,220.411l-39.636-22.885l-16.701,9.707
								l39.635,22.885L442.344,220.411"/>
							<polyline fill="#EDEDED" points="443.752,219.592 404.116,196.707 402.698,195.889 401.29,196.707 383.181,207.232 
								384.589,206.414 386.006,207.232 402.708,197.525 442.344,220.411 425.642,230.117 443.752,219.592 							"/>
							<polyline fill="#D0D0D0" points="464.517,233.214 443.761,221.229 427.06,230.936 411.017,240.258 469.392,273.963 
								484.025,265.458 456.246,249.419 455.813,238.271 464.517,233.214 							"/>
							<polyline fill="#EDEDED" points="467.349,233.217 465.925,232.395 445.169,220.411 443.752,219.592 425.642,230.117 
								427.06,230.936 443.761,221.229 464.517,233.214 455.813,238.271 456.246,249.419 484.025,265.458 469.392,273.963 
								470.809,274.781 485.442,266.277 486.851,265.458 458.229,248.933 457.841,238.743 467.349,233.217 							"/>
							<polyline fill="#D0D0D0" points="424.233,230.936 384.598,208.05 130.845,355.521 346.408,479.985 409.434,443.357 
								255.482,354.467 308.397,323.715 340.646,342.335 410.104,301.969 426.557,311.469 443.658,301.53 432.772,295.245 
								467.983,274.782 408.191,240.258 424.233,230.936 							"/>
							<path fill="#EDEDED" d="M130.845,355.521L384.598,208.05l39.635,22.885l-16.042,9.323l59.792,34.523l-35.211,20.463
								l10.886,6.286l-17.102,9.938l-16.453-9.5l-69.458,40.366l-32.249-18.62l-52.915,30.752l153.952,88.891l-63.026,36.628
								L130.845,355.521 M427.06,230.936l-1.418-0.818l-39.635-22.885l-1.417-0.818l-1.408,0.818l-255.162,148.29l218.398,126.101
								l65.842-38.265l-1.417-0.818l-34.63-19.996l-1.418-0.818l-18.777-10.841l-1.423-0.822l-31.79-18.354l-1.417-0.818
								l-63.079-36.422l50.099-29.115l30.831,17.802l1.417,0.818l1.408-0.818l33.493-19.465l1.414-0.821l33.143-19.262l15.036,8.682
								l1.418,0.818l1.408-0.818l17.101-9.938l1.408-0.818l-10.886-6.286l7.745-4.501l1.408-0.818L469.4,275.6l1.408-0.818
								l-1.417-0.818l-58.375-33.705L427.06,230.936"/>
							<polyline fill="#FFFFFF" points="416.96,207.313 413.558,205.348 410.228,207.283 406.875,205.348 403.539,207.287 
								400.188,205.352 396.857,207.287 393.499,205.348 390.124,207.309 396.879,211.209 403.589,215.084 416.96,207.313 							
								"/>
							<polyline fill="#FFFFFF" points="435.272,383.493 431.875,381.532 428.546,383.468 425.193,381.532 421.857,383.472 
								418.505,381.536 415.175,383.471 411.817,381.532 408.442,383.493 415.197,387.394 421.901,391.265 435.272,383.493 							
								"/>
							<path fill="#FFFFFF" d="M441.134,194.3l0.882-0.512c0.305-0.177,0.622-0.273,0.94-0.28c0.317-0.015,0.611,0.059,0.893,0.221
								c0.274,0.159,0.408,0.332,0.384,0.516c-0.012,0.185-0.176,0.369-0.48,0.545l-0.882,0.513L441.134,194.3 M445.484,192.777
								c-0.651-0.376-1.358-0.542-2.128-0.501c-0.771,0.04-1.545,0.291-2.331,0.748l-2.639,1.534l6.205,3.583l1.593-0.925
								l-2.152-1.242l1.047-0.608c0.787-0.457,1.211-0.91,1.277-1.356C446.425,193.562,446.136,193.154,445.484,192.777"/>
							<path fill="#FFFFFF" d="M453.467,190.941c-0.414-0.239-0.86-0.372-1.345-0.401c-0.49-0.026-0.986,0.048-1.513,0.229
								c0.278-0.273,0.392-0.531,0.352-0.774c-0.039-0.243-0.244-0.472-0.602-0.678c-0.536-0.31-1.136-0.42-1.797-0.347
								c-0.661,0.082-1.392,0.35-2.197,0.819c-0.298,0.173-0.57,0.361-0.837,0.567c-0.266,0.207-0.513,0.424-0.734,0.656
								l1.168,0.674c0.151-0.213,0.322-0.416,0.525-0.601c0.202-0.184,0.431-0.354,0.685-0.501c0.349-0.203,0.685-0.317,1.003-0.354
								c0.318-0.037,0.599,0.014,0.841,0.154c0.256,0.147,0.352,0.313,0.283,0.501c-0.075,0.185-0.31,0.395-0.709,0.627
								l-0.666,0.387l1.034,0.597l0.634-0.369c0.45-0.261,0.857-0.416,1.238-0.468c0.376-0.048,0.7,0.007,0.987,0.173
								c0.275,0.159,0.371,0.347,0.296,0.561c-0.074,0.214-0.328,0.442-0.753,0.689c-0.279,0.162-0.609,0.31-0.978,0.435
								c-0.368,0.125-0.775,0.236-1.227,0.321l1.232,0.711c0.419-0.118,0.812-0.258,1.182-0.413
								c0.367-0.155,0.711-0.324,1.027-0.509c0.901-0.523,1.42-1.01,1.563-1.471C454.312,191.701,454.08,191.296,453.467,190.941"/>
							<polyline fill="#FFFFFF" points="458.249,190.205 456.641,189.275 455.156,190.138 456.765,191.067 458.249,190.205 							
								"/>
							<path fill="#FFFFFF" d="M458,186.747c-0.778-0.45-1.252-0.804-1.425-1.073s-0.085-0.505,0.251-0.7
								c0.342-0.199,0.749-0.251,1.208-0.148c0.466,0.1,1.084,0.369,1.863,0.818c0.785,0.454,1.258,0.815,1.438,1.088
								c0.174,0.269,0.092,0.501-0.251,0.7c-0.336,0.195-0.743,0.247-1.208,0.148C459.404,187.477,458.786,187.2,458,186.747
								 M461.496,184.73c-1.035-0.597-2.049-0.925-3.048-0.996c-0.993-0.066-1.902,0.137-2.714,0.608
								c-0.812,0.472-1.153,0.996-1.042,1.574c0.124,0.579,0.694,1.165,1.729,1.762c1.028,0.594,2.042,0.921,3.035,0.988
								c1.006,0.066,1.908-0.133,2.72-0.604c0.812-0.472,1.159-0.999,1.035-1.578C463.094,185.91,462.523,185.324,461.496,184.73"/>
							<polyline fill="#FFFFFF" points="470.301,183.2 469.196,182.562 467.795,183.377 462.693,180.432 461.178,181.313 
								460.044,182.319 461.129,182.946 462.275,181.932 466.291,184.251 464.883,185.069 465.988,185.707 470.301,183.2 							"/>
							<path fill="#FFFFFF" d="M523.957,207.31l1.726-1.003l0.887,0.512c0.313,0.181,0.474,0.361,0.5,0.546
								c0.014,0.184-0.113,0.354-0.386,0.512c-0.279,0.162-0.571,0.236-0.89,0.229c-0.324-0.011-0.637-0.103-0.95-0.284
								L523.957,207.31 M527.896,206.248l-2.656-1.534l-6.165,3.583l1.596,0.921l2.138-1.242l1.06,0.612
								c0.786,0.454,1.563,0.704,2.341,0.749c0.77,0.041,1.481-0.129,2.128-0.505c0.641-0.372,0.925-0.781,0.853-1.227
								C529.11,207.155,528.682,206.701,527.896,206.248"/>
							<path fill="#FFFFFF" d="M533.495,209.355c-0.3-0.173-0.626-0.339-0.977-0.491c-0.357-0.155-0.739-0.295-1.142-0.431
								l-1.167,0.678c0.376,0.085,0.72,0.188,1.039,0.306c0.325,0.122,0.612,0.25,0.874,0.402c0.351,0.203,0.556,0.394,0.614,0.582
								c0.064,0.185-0.023,0.347-0.259,0.483c-0.26,0.151-0.552,0.203-0.864,0.162c-0.324-0.041-0.688-0.177-1.09-0.409
								l-0.677-0.391l-1.021,0.594l0.645,0.373c0.447,0.258,0.716,0.501,0.8,0.719c0.09,0.214-0.004,0.409-0.283,0.571
								c-0.272,0.159-0.598,0.214-0.974,0.166c-0.369-0.044-0.771-0.188-1.191-0.431c-0.288-0.166-0.537-0.354-0.761-0.572
								c-0.218-0.214-0.397-0.45-0.551-0.708l-1.225,0.711c0.211,0.24,0.448,0.464,0.723,0.682c0.269,0.214,0.562,0.413,0.882,0.598
								c0.9,0.52,1.748,0.826,2.531,0.91c0.79,0.089,1.489-0.044,2.104-0.402c0.406-0.236,0.64-0.498,0.683-0.774
								c0.05-0.28-0.079-0.575-0.387-0.877c0.459,0.162,0.911,0.232,1.325,0.207c0.419-0.022,0.813-0.14,1.175-0.35
								c0.526-0.306,0.729-0.653,0.586-1.036C534.772,210.247,534.3,209.819,533.495,209.355"/>
							<polyline fill="#FFFFFF" points="534.42,215.305 532.919,214.438 531.32,215.368 532.821,216.234 534.42,215.305 							"/>
							<path fill="#FFFFFF" d="M537.609,217.889c-0.345-0.199-0.429-0.431-0.252-0.704c0.17-0.269,0.646-0.634,1.426-1.087
								c0.768-0.446,1.39-0.719,1.848-0.815c0.463-0.099,0.865-0.051,1.209,0.148c0.345,0.199,0.43,0.431,0.259,0.7
								c-0.164,0.266-0.64,0.623-1.407,1.069c-0.779,0.454-1.401,0.734-1.865,0.833
								C538.355,218.136,537.948,218.084,537.609,217.889 M542.925,214.8c-0.817-0.472-1.729-0.674-2.721-0.608
								c-0.999,0.062-2.009,0.398-3.03,0.992c-1.021,0.593-1.597,1.18-1.701,1.758c-0.118,0.579,0.241,1.102,1.059,1.574
								c0.816,0.472,1.716,0.674,2.721,0.608c0.992-0.066,2.009-0.398,3.03-0.991c1.021-0.594,1.591-1.184,1.702-1.759
								C544.089,215.795,543.742,215.272,542.925,214.8"/>
							<path fill="#FFFFFF" d="M548.678,218.122c-0.339-0.196-0.715-0.376-1.123-0.546c-0.414-0.166-0.861-0.32-1.34-0.457
								l-1.356,0.789c0.547,0.074,1.019,0.162,1.427,0.273c0.401,0.106,0.727,0.236,0.976,0.379
								c0.326,0.188,0.492,0.387,0.513,0.605c0.021,0.217-0.112,0.405-0.404,0.575c-0.184,0.107-0.419,0.185-0.686,0.229
								c-0.268,0.044-0.592,0.063-0.98,0.052l-4.252-0.155l-1.167,0.678l4.508,2.603l1.167-0.678l-2.727-1.574l2.477,0.092
								c1.051,0.041,1.808,0.03,2.271-0.041s0.864-0.199,1.2-0.395c0.584-0.339,0.83-0.719,0.738-1.146
								C549.841,218.977,549.418,218.549,548.678,218.122"/>
							<path fill="#FFFFFF" d="M598.804,250.525l1.726-1.003l0.88,0.508c0.313,0.181,0.474,0.361,0.5,0.546
								c0.014,0.184-0.106,0.357-0.379,0.516c-0.279,0.163-0.578,0.232-0.896,0.225c-0.325-0.011-0.638-0.103-0.951-0.284
								L598.804,250.525 M602.736,249.459l-2.655-1.534l-6.166,3.583l1.603,0.926l2.138-1.242l1.054,0.608
								c0.791,0.458,1.569,0.708,2.34,0.749c0.77,0.041,1.481-0.129,2.129-0.505c0.641-0.372,0.925-0.781,0.853-1.227
								C603.957,250.37,603.528,249.917,602.736,249.459"/>
							<path fill="#FFFFFF" d="M608.335,252.567c-0.3-0.173-0.625-0.339-0.976-0.491c-0.357-0.155-0.74-0.294-1.136-0.427
								l-1.167,0.678c0.369,0.082,0.714,0.185,1.039,0.307c0.319,0.118,0.612,0.25,0.867,0.398c0.352,0.203,0.557,0.394,0.615,0.583
								c0.064,0.184-0.024,0.346-0.26,0.483c-0.26,0.151-0.545,0.206-0.864,0.162c-0.324-0.04-0.688-0.176-1.09-0.409l-0.671-0.387
								l-1.021,0.594l0.639,0.369c0.453,0.262,0.717,0.501,0.8,0.718c0.097,0.218-0.004,0.41-0.283,0.572
								c-0.272,0.159-0.597,0.214-0.966,0.169c-0.376-0.048-0.777-0.191-1.199-0.435c-0.287-0.166-0.537-0.354-0.754-0.568
								c-0.225-0.217-0.404-0.453-0.558-0.711l-1.225,0.711c0.212,0.24,0.455,0.468,0.723,0.682
								c0.269,0.214,0.562,0.413,0.882,0.598c0.9,0.52,1.749,0.826,2.538,0.914c0.79,0.089,1.482-0.048,2.098-0.406
								c0.406-0.236,0.641-0.497,0.683-0.774c0.05-0.28-0.079-0.575-0.387-0.877c0.46,0.163,0.911,0.232,1.332,0.21
								c0.419-0.022,0.813-0.14,1.175-0.35c0.527-0.306,0.722-0.656,0.586-1.036C609.613,253.459,609.14,253.032,608.335,252.567"/>
							<polyline fill="#FFFFFF" points="609.26,258.517 607.766,257.654 606.167,258.583 607.661,259.446 609.26,258.517 							"/>
							<path fill="#FFFFFF" d="M612.45,261.101c-0.346-0.199-0.43-0.431-0.253-0.704c0.17-0.269,0.646-0.634,1.427-1.087
								c0.767-0.446,1.389-0.719,1.847-0.815c0.464-0.099,0.865-0.051,1.21,0.148s0.429,0.431,0.259,0.7
								c-0.164,0.266-0.64,0.623-1.407,1.069c-0.78,0.454-1.402,0.734-1.866,0.833C613.196,261.348,612.795,261.3,612.45,261.101
								 M617.766,258.012c-0.817-0.472-1.729-0.675-2.721-0.608c-0.993,0.066-2.009,0.398-3.03,0.992
								c-1.021,0.594-1.591,1.183-1.702,1.758c-0.117,0.579,0.241,1.102,1.059,1.574s1.716,0.675,2.721,0.608
								c0.993-0.066,2.009-0.398,3.03-0.992c1.021-0.593,1.591-1.183,1.702-1.758C618.93,259.007,618.583,258.484,617.766,258.012"
								/>
							<path fill="#FFFFFF" d="M623.416,261.274c-0.301-0.173-0.625-0.339-0.977-0.49c-0.357-0.155-0.74-0.295-1.135-0.427
								l-1.167,0.678c0.368,0.081,0.713,0.184,1.038,0.306c0.319,0.118,0.612,0.251,0.867,0.398
								c0.352,0.203,0.557,0.395,0.615,0.583c0.064,0.185-0.023,0.347-0.259,0.483c-0.26,0.151-0.546,0.206-0.864,0.162
								c-0.325-0.041-0.688-0.177-1.091-0.41l-0.67-0.387l-1.021,0.594l0.639,0.368c0.453,0.262,0.716,0.501,0.8,0.719
								c0.097,0.217-0.004,0.409-0.283,0.571c-0.273,0.159-0.598,0.214-0.967,0.169c-0.376-0.048-0.777-0.192-1.199-0.435
								c-0.287-0.166-0.536-0.354-0.754-0.567c-0.224-0.218-0.403-0.454-0.558-0.712l-1.225,0.711
								c0.212,0.24,0.455,0.468,0.724,0.682c0.268,0.214,0.562,0.413,0.881,0.597c0.9,0.52,1.749,0.826,2.539,0.915
								c0.783,0.085,1.482-0.048,2.098-0.406c0.406-0.236,0.64-0.498,0.683-0.774c0.049-0.28-0.08-0.575-0.387-0.877
								c0.459,0.163,0.911,0.233,1.331,0.21c0.42-0.022,0.814-0.14,1.176-0.35c0.526-0.306,0.722-0.656,0.585-1.036
								C624.693,262.167,624.22,261.739,623.416,261.274"/>
							<path fill="#FFFFFF" d="M303.208,350.46l1.719-0.999l0.881,0.509c0.312,0.181,0.473,0.36,0.5,0.545
								c0.02,0.181-0.106,0.357-0.38,0.517c-0.278,0.162-0.577,0.231-0.895,0.225c-0.318-0.015-0.631-0.107-0.944-0.287
								L303.208,350.46 M307.135,349.397l-2.656-1.533l-6.166,3.583l1.603,0.926l2.138-1.242l1.053,0.607
								c0.792,0.457,1.569,0.708,2.339,0.749c0.771,0.04,1.482-0.129,2.129-0.505c0.641-0.373,0.932-0.785,0.853-1.229
								C308.355,350.309,307.927,349.855,307.135,349.397"/>
							<path fill="#FFFFFF" d="M312.733,352.506c-0.3-0.174-0.625-0.34-0.976-0.49c-0.357-0.155-0.733-0.299-1.135-0.428
								l-1.167,0.678c0.37,0.081,0.714,0.185,1.039,0.306c0.325,0.114,0.613,0.251,0.868,0.398c0.352,0.203,0.556,0.395,0.621,0.579
								c0.059,0.188-0.03,0.351-0.265,0.486c-0.253,0.147-0.546,0.199-0.864,0.162c-0.325-0.04-0.688-0.177-1.09-0.408l-0.67-0.388
								l-1.021,0.593l0.638,0.369c0.454,0.262,0.716,0.502,0.806,0.715c0.09,0.222-0.01,0.413-0.29,0.576
								c-0.272,0.158-0.597,0.213-0.966,0.169c-0.375-0.048-0.777-0.191-1.199-0.435c-0.287-0.166-0.536-0.354-0.754-0.568
								c-0.224-0.217-0.403-0.453-0.557-0.711l-1.225,0.711c0.212,0.239,0.455,0.469,0.723,0.683
								c0.269,0.213,0.563,0.412,0.882,0.597c0.9,0.52,1.748,0.826,2.538,0.914c0.783,0.085,1.482-0.048,2.097-0.405
								c0.412-0.239,0.64-0.497,0.689-0.777s-0.086-0.571-0.393-0.874c0.465,0.158,0.912,0.232,1.331,0.21
								c0.426-0.025,0.814-0.14,1.176-0.351c0.527-0.306,0.722-0.655,0.58-1.039C314.018,353.395,313.538,352.971,312.733,352.506"
								/>
							<polyline fill="#FFFFFF" points="313.657,358.455 312.164,357.593 310.565,358.521 312.059,359.384 313.657,358.455 							
								"/>
							<path fill="#FFFFFF" d="M316.848,361.04c-0.345-0.199-0.422-0.436-0.252-0.704c0.17-0.27,0.646-0.635,1.426-1.088
								c0.768-0.446,1.39-0.719,1.854-0.818c0.457-0.096,0.859-0.048,1.204,0.151c0.345,0.198,0.428,0.431,0.265,0.696
								c-0.17,0.27-0.646,0.627-1.413,1.073c-0.781,0.453-1.402,0.733-1.867,0.833C317.6,361.283,317.192,361.239,316.848,361.04
								 M322.163,357.95c-0.817-0.472-1.722-0.678-2.721-0.608c-0.999,0.062-2.009,0.398-3.029,0.992
								c-1.021,0.594-1.591,1.176-1.703,1.758c-0.112,0.575,0.242,1.103,1.059,1.574s1.722,0.671,2.721,0.608
								c0.999-0.07,2.009-0.398,3.03-0.992c1.021-0.593,1.59-1.183,1.702-1.758C323.333,358.942,322.98,358.423,322.163,357.95"/>
							<path fill="#FFFFFF" d="M324.776,363.134c-0.275-0.159-0.39-0.336-0.359-0.524c0.037-0.184,0.239-0.383,0.601-0.593
								c0.355-0.206,0.699-0.324,1.022-0.351c0.325-0.019,0.63,0.048,0.905,0.207c0.281,0.162,0.396,0.339,0.359,0.523
								c-0.043,0.188-0.24,0.391-0.595,0.597c-0.361,0.21-0.71,0.324-1.028,0.347C325.363,363.361,325.057,363.296,324.776,363.134
								 M327.954,361.302c-0.728-0.421-1.505-0.643-2.339-0.66c-0.834-0.019-1.584,0.166-2.25,0.553
								c-0.597,0.347-0.893,0.741-0.866,1.176c0.021,0.438,0.349,0.841,0.987,1.209c0.249,0.144,0.511,0.259,0.791,0.34
								c0.287,0.085,0.586,0.14,0.917,0.169c-0.571,0.273-1.111,0.409-1.646,0.409c-0.522,0-1.032-0.14-1.505-0.412
								c-0.23-0.133-0.428-0.284-0.601-0.45c-0.179-0.17-0.333-0.361-0.468-0.579l-1.142,0.664c0.173,0.195,0.371,0.384,0.596,0.563
								c0.216,0.178,0.479,0.351,0.767,0.517c0.906,0.523,1.907,0.763,3.008,0.723c1.1-0.033,2.162-0.354,3.176-0.944
								c0.99-0.574,1.534-1.149,1.639-1.722C329.118,362.289,328.758,361.766,327.954,361.302"/>
							<path fill="#FFFFFF" d="M486.501,243.938l1.719-0.999l0.881,0.509c0.313,0.18,0.479,0.357,0.5,0.545
								c0.02,0.181-0.106,0.357-0.379,0.516c-0.273,0.158-0.578,0.232-0.896,0.225c-0.318-0.015-0.631-0.107-0.943-0.287
								L486.501,243.938 M490.428,242.875l-2.656-1.534l-6.165,3.583l1.603,0.925l2.138-1.242l1.053,0.608
								c0.792,0.457,1.576,0.704,2.347,0.745s1.476-0.125,2.123-0.501c0.646-0.376,0.931-0.785,0.858-1.231
								C491.654,243.782,491.22,243.333,490.428,242.875"/>
							<path fill="#FFFFFF" d="M496.032,245.979c-0.3-0.173-0.632-0.335-0.982-0.486c-0.357-0.155-0.733-0.299-1.135-0.428
								l-1.167,0.678c0.369,0.081,0.72,0.181,1.045,0.302c0.318,0.118,0.606,0.254,0.861,0.402c0.352,0.203,0.556,0.395,0.621,0.579
								c0.058,0.188-0.024,0.347-0.265,0.487c-0.254,0.147-0.547,0.199-0.865,0.162c-0.324-0.041-0.688-0.177-1.09-0.409
								l-0.671-0.387l-1.021,0.594l0.639,0.369c0.453,0.262,0.722,0.498,0.806,0.715c0.091,0.221-0.01,0.413-0.289,0.575
								c-0.273,0.159-0.598,0.214-0.967,0.169c-0.375-0.047-0.771-0.195-1.192-0.438c-0.287-0.166-0.536-0.354-0.754-0.568
								c-0.225-0.217-0.41-0.45-0.558-0.711l-1.23,0.715c0.211,0.24,0.454,0.468,0.723,0.682s0.562,0.413,0.882,0.597
								c0.9,0.52,1.748,0.826,2.538,0.915c0.789,0.081,1.488-0.052,2.098-0.405c0.412-0.24,0.64-0.498,0.689-0.778
								c0.049-0.28-0.086-0.572-0.394-0.874c0.466,0.159,0.911,0.232,1.338,0.207c0.42-0.022,0.808-0.136,1.169-0.346
								c0.533-0.31,0.722-0.656,0.58-1.04C497.311,246.872,496.837,246.444,496.032,245.979"/>
							<polyline fill="#FFFFFF" points="496.951,251.933 495.457,251.07 493.858,252 495.353,252.862 496.951,251.933 							"/>
							<polyline fill="#FFFFFF" points="506.312,252.047 504.787,251.167 503.046,250.507 501.968,251.133 503.715,251.804 
								499.731,254.119 498.314,253.301 497.217,253.938 501.559,256.445 502.655,255.808 501.245,254.993 506.312,252.047 							
								"/>
							<path fill="#FFFFFF" d="M506.104,258.049c-0.281-0.162-0.402-0.335-0.366-0.52c0.05-0.184,0.247-0.379,0.608-0.589
								s0.704-0.328,1.016-0.354c0.325-0.025,0.624,0.045,0.905,0.207s0.402,0.335,0.359,0.523c-0.037,0.184-0.24,0.383-0.602,0.593
								s-0.698,0.325-1.022,0.35C506.685,258.281,506.386,258.211,506.104,258.049 M511.841,255.122
								c-0.899-0.52-1.9-0.76-2.995-0.723c-1.101,0.041-2.162,0.354-3.183,0.947c-0.996,0.579-1.54,1.154-1.639,1.722
								c-0.099,0.567,0.254,1.087,1.059,1.552c0.734,0.424,1.519,0.642,2.353,0.667c0.833,0.019,1.577-0.162,2.243-0.549
								c0.596-0.347,0.88-0.741,0.858-1.18s-0.348-0.841-0.98-1.206c-0.255-0.147-0.517-0.262-0.804-0.346
								c-0.273-0.085-0.573-0.141-0.892-0.169c0.559-0.273,1.111-0.41,1.633-0.41c0.535,0,1.032,0.14,1.511,0.417
								c0.217,0.125,0.422,0.273,0.589,0.442c0.179,0.17,0.339,0.365,0.474,0.59l1.142-0.664c-0.173-0.203-0.378-0.395-0.602-0.575
								C512.384,255.458,512.122,255.284,511.841,255.122"/>
							<path fill="#FFFFFF" d="M567.937,297.726l0.875-0.509c0.311-0.181,0.622-0.28,0.94-0.287
								c0.318-0.015,0.617,0.062,0.892,0.221c0.282,0.163,0.41,0.332,0.392,0.52c-0.012,0.184-0.182,0.365-0.493,0.545l-0.875,0.509
								L567.937,297.726 M572.28,296.199c-0.645-0.372-1.352-0.538-2.121-0.498c-0.771,0.041-1.552,0.288-2.338,0.745l-2.639,1.533
								l6.206,3.583l1.592-0.926l-2.152-1.242l1.047-0.608c0.787-0.458,1.217-0.907,1.284-1.354
								C573.227,296.988,572.932,296.575,572.28,296.199"/>
							<path fill="#FFFFFF" d="M580.264,294.364c-0.415-0.24-0.868-0.369-1.352-0.398c-0.484-0.03-0.98,0.044-1.507,0.225
								c0.278-0.273,0.397-0.527,0.358-0.771c-0.046-0.247-0.245-0.472-0.608-0.682c-0.53-0.306-1.136-0.421-1.791-0.343
								c-0.668,0.078-1.397,0.354-2.196,0.818c-0.299,0.173-0.584,0.361-0.844,0.564c-0.266,0.207-0.513,0.424-0.734,0.656
								l1.175,0.678c0.146-0.217,0.322-0.417,0.519-0.604c0.202-0.184,0.437-0.35,0.69-0.498c0.349-0.203,0.679-0.321,0.997-0.358
								c0.324-0.033,0.604,0.019,0.841,0.155c0.256,0.148,0.358,0.317,0.283,0.502c-0.069,0.188-0.304,0.398-0.703,0.63
								l-0.666,0.387l1.028,0.594l0.634-0.369c0.45-0.262,0.863-0.413,1.238-0.461c0.375-0.056,0.707,0.004,0.987,0.166
								c0.274,0.158,0.372,0.347,0.296,0.56c-0.081,0.217-0.328,0.442-0.753,0.689c-0.285,0.166-0.603,0.313-0.972,0.438
								c-0.368,0.126-0.78,0.232-1.232,0.317l1.238,0.715c0.413-0.122,0.807-0.262,1.175-0.417c0.369-0.154,0.712-0.324,1.029-0.509
								c0.895-0.52,1.419-1.01,1.569-1.467S580.876,294.718,580.264,294.364"/>
							<polyline fill="#FFFFFF" points="585.045,293.626 583.436,292.697 581.951,293.56 583.561,294.489 585.045,293.626 							
								"/>
							<path fill="#FFFFFF" d="M584.796,290.168c-0.772-0.446-1.251-0.803-1.425-1.072c-0.167-0.266-0.079-0.501,0.257-0.697
								c0.343-0.199,0.743-0.247,1.202-0.151c0.466,0.1,1.084,0.376,1.856,0.822c0.785,0.454,1.271,0.815,1.444,1.084
								s0.092,0.501-0.25,0.701c-0.337,0.195-0.744,0.247-1.209,0.147C586.207,290.902,585.582,290.622,584.796,290.168
								 M588.292,288.152c-1.028-0.593-2.049-0.925-3.042-0.992c-1.006-0.066-1.901,0.137-2.714,0.608
								c-0.812,0.472-1.159,0.992-1.041,1.574c0.118,0.575,0.693,1.165,1.722,1.758c1.028,0.594,2.041,0.921,3.041,0.992
								c1,0.062,1.902-0.136,2.715-0.608c0.812-0.472,1.152-0.995,1.04-1.574C589.889,289.332,589.319,288.746,588.292,288.152"/>
							<path fill="#FFFFFF" d="M590.872,287.584l-0.848-2.51l2.592,1.497L590.872,287.584 M596.157,285.859l-1.162-0.671
								l-0.875,0.509l-3.914-2.26l-1.77,1.029l1.235,3.572l1.372,0.792l2.734-1.589l1.131,0.653l1.503-0.874l-1.131-0.653
								L596.157,285.859"/>
							<path fill="#FFFFFF" d="M413.64,415.008l0.875-0.509c0.311-0.18,0.628-0.275,0.94-0.287c0.312-0.011,0.618,0.062,0.893,0.222
								c0.28,0.162,0.402,0.335,0.39,0.52c-0.011,0.185-0.182,0.365-0.493,0.546l-0.875,0.509L413.64,415.008 M417.984,413.482
								c-0.645-0.372-1.352-0.538-2.122-0.498c-0.77,0.041-1.552,0.288-2.337,0.744l-2.639,1.534l6.206,3.583l1.592-0.925
								l-2.152-1.243l1.047-0.607c0.786-0.457,1.217-0.907,1.284-1.354C418.931,414.271,418.636,413.858,417.984,413.482"/>
							<path fill="#FFFFFF" d="M425.961,411.649c-0.408-0.235-0.861-0.372-1.345-0.401c-0.478-0.025-0.985,0.048-1.508,0.226
								c0.279-0.273,0.398-0.528,0.358-0.771c-0.045-0.248-0.243-0.472-0.607-0.683c-0.53-0.306-1.135-0.42-1.79-0.343
								c-0.668,0.078-1.399,0.354-2.198,0.818c-0.298,0.174-0.583,0.361-0.843,0.564c-0.266,0.206-0.514,0.424-0.734,0.655
								l1.175,0.679c0.145-0.217,0.321-0.416,0.524-0.601c0.196-0.188,0.431-0.354,0.685-0.502c0.349-0.202,0.679-0.319,0.998-0.356
								c0.324-0.033,0.605,0.018,0.841,0.154c0.255,0.147,0.357,0.317,0.282,0.501c-0.069,0.188-0.303,0.398-0.703,0.631
								l-0.665,0.387l1.027,0.594l0.634-0.369c0.451-0.262,0.863-0.412,1.239-0.46c0.375-0.056,0.706,0.003,0.986,0.165
								c0.275,0.159,0.372,0.347,0.296,0.561c-0.081,0.218-0.328,0.45-0.747,0.693c-0.286,0.166-0.608,0.31-0.978,0.435
								c-0.374,0.129-0.781,0.232-1.226,0.321l1.232,0.711c0.412-0.121,0.807-0.262,1.174-0.417
								c0.369-0.154,0.711-0.323,1.028-0.508c0.895-0.521,1.42-1.01,1.57-1.468C426.818,412.409,426.58,412.008,425.961,411.649"/>
							<polyline fill="#FFFFFF" points="430.749,410.909 429.141,409.98 427.656,410.843 429.265,411.771 430.749,410.909 							
								"/>
							<path fill="#FFFFFF" d="M430.5,407.451c-0.772-0.445-1.252-0.804-1.419-1.069c-0.173-0.269-0.092-0.501,0.251-0.7
								s0.743-0.246,1.208-0.147c0.459,0.096,1.078,0.373,1.851,0.819c0.785,0.453,1.271,0.813,1.444,1.083
								c0.173,0.27,0.098,0.505-0.245,0.704c-0.342,0.199-0.749,0.243-1.214,0.145C431.91,408.186,431.285,407.904,430.5,407.451
								 M433.996,405.435c-1.028-0.594-2.049-0.925-3.042-0.991c-1.006-0.066-1.902,0.136-2.714,0.608
								c-0.812,0.472-1.159,0.991-1.041,1.574c0.117,0.574,0.693,1.164,1.722,1.758s2.048,0.926,3.041,0.992
								c1,0.062,1.902-0.137,2.714-0.608c0.812-0.473,1.153-0.995,1.041-1.574C435.6,406.618,435.023,406.028,433.996,405.435"/>
							<path fill="#FFFFFF" d="M435.108,403.108c-0.242-0.14-0.37-0.287-0.364-0.446c0.005-0.15,0.131-0.306,0.385-0.453
								c0.247-0.144,0.509-0.214,0.775-0.221c0.268,0,0.516,0.07,0.765,0.214s0.371,0.287,0.371,0.442
								c-0.005,0.158-0.131,0.306-0.378,0.449c-0.254,0.147-0.515,0.226-0.782,0.225
								C435.606,403.322,435.358,403.253,435.108,403.108 M437.688,404.76c-0.306-0.177-0.46-0.36-0.461-0.545
								c-0.007-0.188,0.139-0.369,0.437-0.542c0.292-0.17,0.603-0.254,0.928-0.251c0.318,0,0.631,0.093,0.937,0.27
								c0.308,0.177,0.46,0.354,0.468,0.542c0.001,0.184-0.145,0.364-0.436,0.534c-0.299,0.173-0.61,0.258-0.929,0.258
								C438.308,405.021,437.996,404.938,437.688,404.76 M441.115,402.865c-0.402-0.232-0.836-0.357-1.313-0.383
								c-0.471-0.029-0.979,0.044-1.514,0.221c0.26-0.284,0.373-0.549,0.327-0.796s-0.244-0.472-0.596-0.675
								c-0.529-0.307-1.122-0.42-1.784-0.354c-0.661,0.067-1.36,0.317-2.108,0.752c-0.749,0.436-1.186,0.845-1.305,1.231
								c-0.111,0.384,0.101,0.727,0.624,1.029c0.352,0.202,0.74,0.316,1.166,0.343c0.427,0.025,0.878-0.037,1.367-0.188
								c-0.304,0.31-0.429,0.604-0.376,0.878c0.045,0.275,0.263,0.526,0.665,0.759c0.613,0.354,1.282,0.506,2.007,0.446
								c0.726-0.052,1.487-0.317,2.287-0.781c0.799-0.465,1.248-0.903,1.335-1.323C441.991,403.606,441.729,403.22,441.115,402.865"
								/>
							<path fill="#FFFFFF" d="M461.154,359.782l0.882-0.512c0.312-0.181,0.616-0.277,0.941-0.288
								c0.312-0.011,0.61,0.066,0.885,0.225c0.281,0.163,0.409,0.332,0.397,0.517c-0.018,0.188-0.182,0.365-0.493,0.546
								l-0.882,0.513L461.154,359.782 M465.505,358.253c-0.645-0.373-1.352-0.538-2.121-0.498c-0.776,0.045-1.558,0.291-2.338,0.745
								l-2.639,1.533l6.206,3.583l1.585-0.921l-2.151-1.242l1.053-0.612c0.781-0.454,1.211-0.903,1.285-1.354
								C466.451,359.041,466.156,358.629,465.505,358.253"/>
							<path fill="#FFFFFF" d="M473.481,356.421c-0.415-0.24-0.86-0.373-1.345-0.402s-0.986,0.048-1.507,0.226
								c0.272-0.27,0.397-0.527,0.353-0.768c-0.047-0.247-0.245-0.472-0.609-0.682c-0.529-0.306-1.128-0.424-1.79-0.343
								c-0.661,0.073-1.392,0.351-2.19,0.814c-0.298,0.173-0.584,0.361-0.844,0.564c-0.266,0.206-0.513,0.424-0.74,0.659
								l1.175,0.679c0.146-0.218,0.322-0.417,0.519-0.604c0.209-0.188,0.437-0.351,0.696-0.501c0.35-0.203,0.68-0.321,0.997-0.358
								c0.325-0.033,0.604,0.019,0.841,0.155c0.256,0.147,0.353,0.32,0.284,0.501c-0.069,0.188-0.304,0.398-0.704,0.631
								l-0.672,0.391l1.028,0.594l0.641-0.373c0.443-0.258,0.863-0.412,1.238-0.461c0.368-0.051,0.706,0.005,0.986,0.166
								c0.274,0.159,0.372,0.347,0.29,0.564c-0.075,0.214-0.328,0.442-0.747,0.686c-0.285,0.166-0.603,0.313-0.978,0.442
								c-0.368,0.126-0.775,0.229-1.226,0.313l1.237,0.715c0.414-0.121,0.801-0.258,1.176-0.417
								c0.368-0.154,0.711-0.323,1.028-0.508c0.894-0.52,1.42-1.011,1.563-1.464C474.332,357.184,474.095,356.774,473.481,356.421"
								/>
							<polyline fill="#FFFFFF" points="478.27,355.68 476.66,354.751 475.17,355.616 476.779,356.546 478.27,355.68 							"/>
							<path fill="#FFFFFF" d="M478.015,352.225c-0.772-0.445-1.245-0.807-1.419-1.075c-0.167-0.266-0.085-0.498,0.258-0.697
								s0.742-0.247,1.201-0.151c0.466,0.1,1.084,0.376,1.856,0.822c0.785,0.453,1.271,0.814,1.445,1.084
								c0.173,0.269,0.085,0.505-0.251,0.7c-0.343,0.199-0.744,0.247-1.208,0.147C479.432,352.955,478.801,352.679,478.015,352.225
								 M481.517,350.205c-1.028-0.594-2.048-0.925-3.042-0.991c-1.005-0.066-1.901,0.136-2.713,0.608
								c-0.812,0.472-1.166,0.995-1.042,1.573c0.111,0.579,0.694,1.165,1.723,1.759s2.034,0.925,3.04,0.991
								c0.993,0.066,1.902-0.136,2.715-0.607c0.812-0.473,1.152-0.996,1.041-1.574C483.113,351.385,482.544,350.799,481.517,350.205
								"/>
							<polyline fill="#FFFFFF" points="484.921,345.667 484.021,345.147 479.378,347.846 480.552,348.524 483.521,346.799 
								486.275,351.027 487.823,350.128 484.921,345.667 							"/>
							<path fill="#FFFFFF" d="M365.134,335.529l1.718-0.998l0.881,0.508c0.313,0.181,0.474,0.361,0.5,0.546
								c0.014,0.185-0.106,0.357-0.379,0.516c-0.279,0.162-0.578,0.232-0.896,0.226c-0.324-0.012-0.63-0.107-0.943-0.288
								L365.134,335.529 M369.061,334.468l-2.656-1.533l-6.166,3.583l1.603,0.925l2.137-1.241l1.053,0.607
								c0.792,0.457,1.569,0.708,2.34,0.749c0.77,0.04,1.482-0.13,2.129-0.505c0.641-0.373,0.925-0.782,0.853-1.229
								C370.281,335.379,369.853,334.925,369.061,334.468"/>
							<path fill="#FFFFFF" d="M374.659,337.575c-0.3-0.173-0.625-0.339-0.976-0.489c-0.357-0.155-0.734-0.299-1.136-0.428
								l-1.167,0.678c0.37,0.081,0.713,0.185,1.039,0.306c0.325,0.115,0.612,0.251,0.868,0.398c0.351,0.203,0.556,0.395,0.615,0.582
								c0.064,0.185-0.024,0.347-0.259,0.483c-0.254,0.147-0.545,0.206-0.864,0.162c-0.325-0.04-0.688-0.177-1.091-0.409
								l-0.67-0.387l-1.021,0.594l0.639,0.368c0.453,0.262,0.716,0.501,0.8,0.719c0.097,0.218-0.004,0.409-0.283,0.571
								c-0.272,0.158-0.597,0.214-0.966,0.17c-0.375-0.048-0.778-0.191-1.199-0.436c-0.287-0.165-0.536-0.354-0.754-0.567
								c-0.224-0.218-0.403-0.453-0.557-0.712l-1.225,0.712c0.211,0.24,0.455,0.468,0.723,0.682
								c0.269,0.215,0.563,0.413,0.882,0.598c0.9,0.52,1.749,0.826,2.538,0.914c0.79,0.089,1.482-0.048,2.098-0.405
								c0.406-0.236,0.64-0.498,0.689-0.778c0.043-0.276-0.086-0.571-0.393-0.873c0.465,0.158,0.911,0.232,1.331,0.21
								c0.427-0.026,0.814-0.14,1.176-0.351c0.526-0.306,0.722-0.656,0.586-1.036C375.943,338.464,375.464,338.04,374.659,337.575"
								/>
							<polyline fill="#FFFFFF" points="375.583,343.525 374.09,342.663 372.491,343.592 373.985,344.454 375.583,343.525 							
								"/>
							<polyline fill="#FFFFFF" points="384.946,343.64 383.42,342.759 381.679,342.099 380.594,342.729 382.348,343.396 
								378.364,345.711 376.947,344.893 375.85,345.53 380.191,348.037 381.288,347.399 379.877,346.585 384.946,343.64 							"/>
							<path fill="#FFFFFF" d="M384.698,349.53c-0.345-0.199-0.422-0.435-0.252-0.704c0.17-0.269,0.646-0.634,1.426-1.087
								c0.768-0.446,1.389-0.719,1.853-0.818c0.458-0.097,0.858-0.048,1.204,0.151s0.429,0.431,0.265,0.696
								c-0.17,0.27-0.646,0.626-1.413,1.072c-0.781,0.454-1.402,0.734-1.866,0.833C385.451,349.773,385.037,349.727,384.698,349.53
								 M390.014,346.441c-0.818-0.472-1.722-0.679-2.721-0.608c-0.999,0.062-2.009,0.398-3.03,0.992
								c-1.021,0.593-1.597,1.179-1.702,1.758c-0.111,0.575,0.242,1.103,1.059,1.574s1.722,0.671,2.721,0.608
								c0.993-0.066,2.009-0.398,3.03-0.991c1.021-0.594,1.591-1.184,1.702-1.759C391.185,347.433,390.832,346.913,390.014,346.441"
								/>
							<path fill="#FFFFFF" d="M540.635,305.53l1.719-0.999l0.881,0.508c0.313,0.181,0.479,0.358,0.5,0.546
								c0.02,0.181-0.107,0.357-0.38,0.516c-0.272,0.159-0.577,0.232-0.896,0.226c-0.318-0.015-0.631-0.107-0.943-0.288
								L540.635,305.53 M544.561,304.468l-2.655-1.533l-6.166,3.583l1.604,0.926l2.138-1.242l1.053,0.607
								c0.792,0.457,1.576,0.705,2.347,0.745c0.77,0.04,1.476-0.126,2.122-0.501c0.646-0.377,0.932-0.786,0.859-1.231
								C545.789,305.375,545.353,304.925,544.561,304.468"/>
							<path fill="#FFFFFF" d="M550.166,307.572c-0.3-0.174-0.632-0.336-0.982-0.486c-0.357-0.155-0.733-0.299-1.136-0.429
								l-1.167,0.679c0.37,0.081,0.721,0.181,1.046,0.303c0.318,0.118,0.606,0.254,0.861,0.401c0.351,0.203,0.556,0.395,0.62,0.579
								c0.059,0.188-0.023,0.346-0.265,0.486c-0.254,0.147-0.546,0.199-0.864,0.162c-0.324-0.04-0.688-0.177-1.091-0.409
								l-0.671-0.387l-1.021,0.593l0.639,0.369c0.453,0.262,0.722,0.498,0.806,0.715c0.091,0.222-0.011,0.413-0.289,0.575
								c-0.273,0.158-0.597,0.214-0.967,0.17c-0.376-0.048-0.771-0.195-1.192-0.438c-0.287-0.166-0.537-0.354-0.754-0.568
								c-0.225-0.217-0.41-0.449-0.558-0.711l-1.231,0.715c0.212,0.24,0.448,0.465,0.723,0.682c0.27,0.214,0.563,0.413,0.883,0.598
								c0.899,0.52,1.748,0.826,2.538,0.914c0.782,0.085,1.488-0.052,2.098-0.405c0.412-0.24,0.64-0.498,0.688-0.778
								c0.05-0.279-0.086-0.571-0.393-0.873c0.466,0.158,0.911,0.231,1.338,0.206c0.419-0.022,0.801-0.141,1.162-0.351
								c0.532-0.31,0.729-0.651,0.586-1.035C551.444,308.464,550.971,308.036,550.166,307.572"/>
							<polyline fill="#FFFFFF" points="551.084,313.525 549.584,312.659 547.985,313.589 549.485,314.454 551.084,313.525 							
								"/>
							<path fill="#FFFFFF" d="M554.28,316.106c-0.345-0.199-0.429-0.432-0.258-0.701c0.177-0.272,0.646-0.634,1.426-1.087
								c0.774-0.45,1.39-0.719,1.854-0.818s0.858-0.049,1.203,0.15c0.346,0.199,0.436,0.428,0.266,0.697
								c-0.171,0.27-0.64,0.623-1.413,1.072c-0.78,0.454-1.396,0.73-1.866,0.834C555.026,316.354,554.619,316.301,554.28,316.106
								 M559.597,313.017c-0.817-0.472-1.729-0.675-2.728-0.604c-0.998,0.062-2.002,0.395-3.029,0.992
								c-1.021,0.594-1.592,1.176-1.703,1.758c-0.111,0.575,0.242,1.103,1.06,1.574s1.722,0.671,2.721,0.608
								c0.999-0.07,2.008-0.398,3.029-0.992c1.028-0.597,1.592-1.183,1.702-1.758C560.76,314.012,560.414,313.489,559.597,313.017"
								/>
							<path fill="#FFFFFF" d="M567.322,317.61l-3.978-2.297l-3.47,2.017c0.428,0.1,0.797,0.21,1.109,0.324
								c0.325,0.114,0.6,0.243,0.829,0.376c0.384,0.221,0.601,0.449,0.634,0.689c0.04,0.236-0.105,0.453-0.43,0.642
								c-0.323,0.188-0.691,0.27-1.105,0.25c-0.407-0.021-0.809-0.144-1.191-0.364c-0.269-0.155-0.512-0.347-0.717-0.583
								c-0.204-0.229-0.391-0.497-0.526-0.804l-1.25,0.727c0.2,0.276,0.443,0.535,0.718,0.774c0.275,0.239,0.588,0.457,0.939,0.659
								c0.817,0.473,1.646,0.73,2.479,0.778c0.835,0.041,1.584-0.129,2.25-0.517c0.673-0.391,0.988-0.818,0.941-1.278
								c-0.047-0.461-0.444-0.911-1.198-1.346c-0.134-0.077-0.273-0.144-0.421-0.207c-0.134-0.062-0.28-0.117-0.439-0.166
								l0.958-0.557l2.7,1.56L567.322,317.61"/>
							<path fill="#FFFFFF" d="M521.332,316.748l1.719-0.999l0.881,0.508c0.313,0.181,0.474,0.361,0.5,0.546
								c0.014,0.184-0.106,0.357-0.379,0.516c-0.279,0.162-0.578,0.232-0.896,0.226c-0.324-0.012-0.63-0.107-0.943-0.288
								L521.332,316.748 M525.259,315.686l-2.656-1.533l-6.165,3.583l1.603,0.926l2.138-1.242l1.053,0.607
								c0.792,0.457,1.57,0.708,2.341,0.749c0.77,0.04,1.481-0.13,2.129-0.506c0.641-0.372,0.925-0.781,0.853-1.228
								C526.48,316.597,526.051,316.143,525.259,315.686"/>
							<path fill="#FFFFFF" d="M530.857,318.793c-0.3-0.173-0.626-0.339-0.977-0.49c-0.356-0.154-0.739-0.295-1.136-0.428
								l-1.167,0.679c0.37,0.081,0.715,0.185,1.04,0.306c0.318,0.118,0.612,0.251,0.867,0.398c0.352,0.203,0.556,0.395,0.614,0.583
								c0.064,0.184-0.023,0.346-0.258,0.482c-0.261,0.151-0.553,0.203-0.864,0.162c-0.325-0.04-0.688-0.177-1.091-0.409
								l-0.671-0.387l-1.021,0.593l0.639,0.369c0.453,0.262,0.716,0.501,0.8,0.719c0.097,0.218-0.004,0.409-0.283,0.571
								c-0.273,0.158-0.597,0.214-0.967,0.17c-0.375-0.048-0.777-0.191-1.198-0.436c-0.288-0.166-0.537-0.354-0.754-0.567
								c-0.225-0.218-0.404-0.453-0.559-0.712l-1.224,0.712c0.211,0.24,0.447,0.465,0.723,0.682
								c0.269,0.214,0.562,0.413,0.882,0.598c0.9,0.52,1.749,0.826,2.538,0.914c0.783,0.085,1.482-0.048,2.098-0.405
								c0.406-0.236,0.641-0.498,0.683-0.774c0.05-0.28-0.079-0.575-0.387-0.877c0.46,0.162,0.911,0.231,1.331,0.21
								c0.42-0.022,0.808-0.145,1.169-0.354c0.526-0.306,0.729-0.652,0.586-1.035C532.136,319.686,531.662,319.258,530.857,318.793"
								/>
							<polyline fill="#FFFFFF" points="531.781,324.743 530.282,323.877 528.684,324.806 530.184,325.672 531.781,324.743 							
								"/>
							<path fill="#FFFFFF" d="M534.972,327.327c-0.345-0.199-0.429-0.431-0.252-0.704c0.171-0.27,0.646-0.634,1.426-1.087
								c0.769-0.446,1.39-0.72,1.848-0.815c0.464-0.099,0.864-0.051,1.21,0.148c0.345,0.198,0.429,0.431,0.259,0.7
								c-0.164,0.265-0.64,0.622-1.407,1.068c-0.78,0.454-1.402,0.734-1.866,0.833C535.718,327.574,535.311,327.522,534.972,327.327
								 M540.287,324.238c-0.817-0.472-1.728-0.675-2.721-0.608c-0.998,0.062-2.008,0.398-3.029,0.992
								c-1.021,0.593-1.598,1.179-1.702,1.758c-0.118,0.579,0.241,1.103,1.059,1.574s1.716,0.675,2.721,0.608
								c0.993-0.066,2.009-0.398,3.03-0.992c1.021-0.594,1.591-1.183,1.702-1.758C541.451,325.233,541.105,324.71,540.287,324.238"
								/>
							<path fill="#FFFFFF" d="M540.929,330.862c-0.28-0.162-0.396-0.339-0.358-0.523c0.043-0.181,0.246-0.38,0.607-0.59
								s0.698-0.324,1.017-0.354c0.318-0.022,0.617,0.048,0.897,0.21c0.281,0.162,0.403,0.336,0.366,0.52
								c-0.044,0.188-0.239,0.384-0.602,0.594c-0.361,0.21-0.704,0.328-1.022,0.351C541.517,331.091,541.21,331.025,540.929,330.862
								 M546.672,327.932c-0.899-0.52-1.9-0.759-3.001-0.719c-1.101,0.041-2.162,0.354-3.177,0.944
								c-0.996,0.578-1.539,1.153-1.639,1.721c-0.105,0.571,0.254,1.088,1.06,1.553c0.734,0.424,1.511,0.645,2.352,0.667
								c0.833,0.019,1.577-0.162,2.236-0.546c0.597-0.347,0.887-0.744,0.865-1.183c-0.021-0.439-0.348-0.841-0.98-1.206
								c-0.255-0.147-0.517-0.262-0.803-0.347c-0.28-0.08-0.58-0.136-0.898-0.165c0.564-0.277,1.11-0.41,1.639-0.413
								c0.528,0.003,1.032,0.14,1.511,0.416c0.217,0.125,0.415,0.276,0.588,0.442c0.18,0.17,0.333,0.369,0.475,0.59l1.136-0.66
								c-0.174-0.202-0.372-0.397-0.602-0.575C547.209,328.271,546.953,328.094,546.672,327.932"/>
						</g>
					</g>
				</g>
			</g>
		</g>
	</g>
</g>
<g>
	<polygon fill="#EE7203" stroke="#FFFFFF" stroke-width="0.5" points="432.561,294.25 437.932,294.25 435.461,312.784 	"/>
	<circle fill="#EE7203" cx="435.246" cy="280.033" r="15.316"/>
	<g>
		<g>
			<path fill="#FFFFFF" d="M443.205,278.896c-0.003-0.428-0.039-0.822-0.131-1.193c-0.072-0.288-0.18-0.563-0.341-0.813
				c-0.239-0.377-0.608-0.676-1.032-0.842c-0.424-0.171-0.889-0.234-1.414-0.235c-0.465,0-0.887,0.052-1.276,0.179
				c-0.29,0.097-0.562,0.24-0.794,0.436c-0.352,0.292-0.594,0.688-0.729,1.116c-0.136,0.416-0.187,0.865-0.188,1.356l-0.896,7.563
				h1.886v3.304h1.526v-3.304h0.943v3.304h1.526v-3.304h1.896L443.205,278.896z"/>
			<path fill="#FFFFFF" d="M430.025,275.111c1.373,0,2.48-1.112,2.48-2.481c0-1.371-1.107-2.481-2.48-2.481
				c-1.369,0-2.479,1.11-2.48,2.481C427.547,274,428.656,275.111,430.025,275.111 M430.025,275.958
				c-2.054,0.001-3.715,1.663-3.715,3.716v3.886h1.719v6.207h1.523v-6.207h0.944v6.207h1.526v-6.207h1.717v-3.886
				C433.74,277.621,432.078,275.959,430.025,275.958"/>
		</g>
		<path fill="#FFFFFF" d="M442.613,272.626c0,1.376-1.115,2.494-2.492,2.494c-1.381,0-2.495-1.117-2.495-2.494
			s1.114-2.494,2.495-2.494C441.498,270.132,442.613,271.25,442.613,272.626z"/>
	</g>
</g>
<g>
	<polygon fill="#EE7203" stroke="#FFFFFF" stroke-width="0.5" points="463.198,275.648 468.57,275.648 466.099,294.182 	"/>
	<circle fill="#EE7203" cx="465.886" cy="261.431" r="15.316"/>
	<g>
		<g>
			<path fill="#FFFFFF" d="M473.845,260.294c-0.004-0.428-0.041-0.822-0.131-1.193c-0.072-0.288-0.18-0.563-0.342-0.813
				c-0.24-0.377-0.608-0.676-1.033-0.842c-0.422-0.171-0.889-0.234-1.414-0.235c-0.464,0-0.887,0.052-1.275,0.179
				c-0.291,0.097-0.562,0.24-0.795,0.436c-0.35,0.292-0.593,0.688-0.729,1.116c-0.135,0.416-0.186,0.865-0.188,1.356l-0.896,7.563
				h1.887v3.304h1.526v-3.304h0.943v3.304h1.526v-3.304h1.895L473.845,260.294z"/>
			<path fill="#FFFFFF" d="M460.664,256.509c1.372,0,2.481-1.112,2.481-2.481c0-1.371-1.109-2.481-2.481-2.481
				c-1.37,0-2.479,1.11-2.481,2.481C458.185,255.397,459.294,256.509,460.664,256.509 M460.664,257.355
				c-2.054,0.001-3.715,1.663-3.715,3.716v3.886h1.718v6.207h1.525v-6.207h0.943v6.207h1.526v-6.207h1.717v-3.886
				C464.379,259.019,462.718,257.357,460.664,257.355"/>
		</g>
		<circle fill="#FFFFFF" cx="470.759" cy="254.024" r="2.494"/>
	</g>
</g>
</svg>
