<?xml version="1.0" encoding="utf-8"?>
<!-- Generator: Adobe Illustrator 16.0.0, SVG Export Plug-In . SVG Version: 6.00 Build 0)  -->
<!DOCTYPE svg PUBLIC "-//W3C//DTD SVG 1.1//EN" "http://www.w3.org/Graphics/SVG/1.1/DTD/svg11.dtd">
<svg version="1.1" id="Ebene_1" xmlns="http://www.w3.org/2000/svg" xmlns:xlink="http://www.w3.org/1999/xlink" x="0px" y="0px"
	 width="595.275px" height="419.527px" viewBox="0 0 595.275 419.527" enable-background="new 0 0 595.275 419.527"
	 xml:space="preserve">
<g>
	<g>
		<g enable-background="new    ">
			<defs>
				<polygon id="SVGID_1_" enable-background="new    " points="66.724,154.557 170.759,94.096 497.612,282.818 393.577,343.279 
									"/>
			</defs>
			<clipPath id="SVGID_2_">
				<use xlink:href="#SVGID_1_"  overflow="visible"/>
			</clipPath>
			<g clip-path="url(#SVGID_2_)">
				<g>
					<g>
						<g>
							<polyline fill="#CFD0D2" points="326.121,194.986 312.713,187.244 279.938,206.292 249.911,188.955 237.891,195.94 
								194.386,170.821 206.406,163.835 160.756,137.478 154.832,140.921 158.126,142.823 150.889,147.029 147.594,145.127 
								142.043,148.353 187.693,174.71 231.198,199.83 233.344,201.068 261.225,217.167 228.076,236.431 241.484,244.173 
								274.633,224.909 287.613,232.403 294.476,236.366 426.478,312.582 431.235,309.817 433.17,308.693 445.349,301.615 
								411.191,281.892 399.012,288.97 301.168,232.476 313.188,225.491 293.346,214.034 326.121,194.986 							"/>
							<path fill="#BDD4E4" d="M192.042,132.018c-0.466-0.269-0.83-0.435-1.11-0.494c-0.281-0.059-0.522-0.03-0.725,0.088
								c-0.203,0.118-0.253,0.258-0.15,0.42c0.103,0.163,0.384,0.376,0.85,0.646c0.472,0.272,0.849,0.438,1.129,0.498
								c0.28,0.059,0.522,0.029,0.725-0.088c0.203-0.118,0.253-0.258,0.15-0.42C192.809,132.505,192.515,132.291,192.042,132.018
								 M194.613,129.755c-0.217-0.125-0.421-0.192-0.611-0.207c-0.198-0.019-0.376,0.025-0.541,0.122
								c-0.165,0.096-0.24,0.199-0.214,0.317c0.026,0.11,0.148,0.225,0.365,0.35c0.217,0.125,0.421,0.199,0.612,0.214
								c0.197,0.011,0.375-0.034,0.54-0.129c0.165-0.096,0.241-0.199,0.215-0.31C194.952,130.002,194.831,129.88,194.613,129.755
								 M199.31,128.616l-0.102-0.059l-0.463,0.269c-0.184,0.107-0.292,0.207-0.322,0.299c-0.025,0.088,0.02,0.173,0.141,0.243
								c0.115,0.066,0.236,0.092,0.382,0.088c0.14-0.007,0.273-0.048,0.406-0.125c0.171-0.1,0.247-0.217,0.24-0.354
								C199.585,128.84,199.495,128.723,199.31,128.616 M179.852,136.951l2.576-1.497l0.728,0.42l-1.624,0.944l0.69,0.398
								l1.528-0.889l0.728,0.42l-1.529,0.888l1.577,0.911l-0.952,0.553L179.852,136.951 M183.449,135.067l0.684-0.604l0.907-0.527
								l3.058,1.766l0.844-0.49l0.664,0.383l-2.588,1.504l-0.664-0.383l0.843-0.49l-2.407-1.39l-0.69,0.608L183.449,135.067
								 M189.353,134.625l0.894-0.52l0.964,0.557l-0.895,0.52L189.353,134.625 M189.962,133.235
								c-0.619-0.358-0.958-0.708-1.037-1.055c-0.065-0.346,0.136-0.663,0.625-0.947c0.488-0.284,1.035-0.401,1.627-0.361
								c0.605,0.041,1.21,0.236,1.83,0.594c0.619,0.357,0.958,0.708,1.031,1.058c0.071,0.343-0.13,0.66-0.619,0.943
								c-0.488,0.284-1.035,0.402-1.633,0.365C191.187,133.788,190.582,133.592,189.962,133.235 M192.762,130.912
								c-0.402-0.232-0.595-0.49-0.577-0.781c0.011-0.288,0.239-0.561,0.676-0.815c0.482-0.28,1.023-0.401,1.608-0.365
								c0.592,0.033,1.191,0.225,1.792,0.571c0.613,0.354,0.939,0.726,0.986,1.106c0.041,0.384-0.206,0.734-0.745,1.047
								c-0.171,0.1-0.349,0.188-0.54,0.262c-0.184,0.078-0.381,0.147-0.584,0.207l-0.689-0.398c0.229-0.044,0.426-0.1,0.604-0.159
								c0.172-0.062,0.331-0.133,0.463-0.21c0.286-0.166,0.431-0.339,0.43-0.523c-0.001-0.185-0.148-0.373-0.429-0.572
								c-0.031,0.115-0.088,0.222-0.177,0.317c-0.082,0.1-0.203,0.192-0.349,0.277c-0.38,0.221-0.793,0.335-1.251,0.343
								C193.527,131.222,193.119,131.119,192.762,130.912 M196.071,128.686c0.146-0.136,0.31-0.269,0.475-0.394
								c0.165-0.125,0.342-0.244,0.533-0.354c0.501-0.292,0.965-0.442,1.385-0.458c0.42-0.015,0.86,0.107,1.307,0.365l1.589,0.918
								l-0.894,0.52l-0.415-0.24c0.052,0.17,0.04,0.317-0.036,0.45c-0.069,0.129-0.202,0.258-0.417,0.384
								c-0.285,0.166-0.609,0.25-0.953,0.258c-0.356,0.008-0.663-0.066-0.93-0.221c-0.326-0.188-0.455-0.395-0.386-0.612
								c0.069-0.217,0.347-0.468,0.823-0.745l0.526-0.306l-0.07-0.041c-0.141-0.081-0.3-0.107-0.471-0.081
								c-0.185,0.026-0.388,0.107-0.623,0.244c-0.19,0.11-0.349,0.225-0.475,0.343c-0.121,0.114-0.215,0.235-0.284,0.365
								L196.071,128.686 M216.944,131.948l-23.413-13.518l-30.32,17.621l23.412,13.518L216.944,131.948"/>
							<path fill="#BDD4E4" d="M155.155,173.428c-0.466-0.27-0.837-0.431-1.11-0.495c-0.28-0.059-0.522-0.029-0.725,0.089
								c-0.209,0.122-0.26,0.262-0.151,0.42c0.103,0.163,0.384,0.376,0.85,0.646c0.472,0.273,0.849,0.438,1.129,0.498
								c0.274,0.062,0.516,0.033,0.725-0.088c0.203-0.118,0.253-0.258,0.144-0.417C155.914,173.918,155.627,173.7,155.155,173.428
								 M157.572,171.024c-0.147-0.085-0.307-0.125-0.466-0.129c-0.159,0.003-0.312,0.048-0.463,0.136
								c-0.153,0.089-0.228,0.177-0.228,0.273c-0.005,0.092,0.071,0.18,0.218,0.265s0.3,0.129,0.459,0.125
								c0.166,0,0.317-0.044,0.47-0.133c0.152-0.088,0.228-0.177,0.227-0.272C157.789,171.201,157.719,171.108,157.572,171.024
								 M159.282,171.917c-0.185-0.107-0.376-0.159-0.567-0.159c-0.19,0-0.375,0.047-0.552,0.151
								c-0.178,0.103-0.266,0.214-0.265,0.324c0.006,0.115,0.103,0.221,0.282,0.325c0.185,0.107,0.37,0.163,0.561,0.162
								c0.19,0,0.381-0.052,0.559-0.155c0.177-0.104,0.259-0.21,0.258-0.32C159.558,172.133,159.467,172.023,159.282,171.917
								 M142.963,178.36l2.569-1.493l0.728,0.42l-1.618,0.94l0.689,0.398l1.522-0.885l0.728,0.42l-1.522,0.885l1.577,0.911
								l-0.951,0.553L142.963,178.36 M146.561,176.477l0.679-0.602l0.907-0.527l3.059,1.766l0.843-0.49l0.664,0.384l-2.588,1.504
								l-0.664-0.383l0.844-0.491l-2.407-1.39l-0.685,0.605L146.561,176.477 M152.465,176.034l0.888-0.516l0.964,0.557l-0.888,0.516
								L152.465,176.034 M153.068,174.647c-0.62-0.357-0.959-0.708-1.031-1.058c-0.065-0.347,0.137-0.664,0.625-0.948
								c0.481-0.28,1.028-0.398,1.627-0.361c0.604,0.041,1.21,0.236,1.83,0.594c0.619,0.357,0.958,0.708,1.03,1.058
								c0.065,0.346-0.137,0.664-0.618,0.943c-0.489,0.284-1.036,0.402-1.634,0.365
								C154.292,175.201,153.687,175.005,153.068,174.647 M158.541,171.326c0.318-0.103,0.616-0.151,0.91-0.136
								c0.286,0.019,0.547,0.096,0.784,0.232c0.37,0.214,0.531,0.446,0.469,0.696c-0.05,0.251-0.315,0.516-0.797,0.796
								c-0.482,0.28-0.939,0.435-1.372,0.464c-0.433,0.037-0.834-0.055-1.205-0.269c-0.236-0.136-0.371-0.287-0.403-0.454
								c-0.033-0.166,0.049-0.338,0.226-0.523c-0.292,0.089-0.566,0.129-0.827,0.111c-0.254-0.015-0.484-0.081-0.695-0.203
								c-0.319-0.185-0.435-0.391-0.373-0.62c0.069-0.232,0.328-0.479,0.779-0.741c0.45-0.262,0.876-0.413,1.27-0.45
								c0.401-0.041,0.751,0.03,1.071,0.214c0.21,0.122,0.326,0.254,0.352,0.402C158.762,170.998,158.693,171.157,158.541,171.326
								 M195.399,182.437l-56.185-32.44l-30.32,17.621l56.185,32.44L195.399,182.437"/>
							<path fill="#BDD4E4" d="M216.732,146.273c-0.466-0.269-0.836-0.438-1.11-0.494c-0.281-0.059-0.522-0.03-0.725,0.088
								c-0.203,0.118-0.253,0.258-0.151,0.42c0.097,0.159,0.384,0.376,0.851,0.645c0.466,0.27,0.842,0.435,1.123,0.494
								c0.287,0.062,0.528,0.033,0.731-0.085c0.203-0.118,0.253-0.258,0.144-0.423C217.492,146.756,217.198,146.542,216.732,146.273
								 M219.303,144.01c-0.217-0.125-0.428-0.195-0.618-0.21c-0.191-0.015-0.375,0.026-0.541,0.122
								c-0.165,0.096-0.234,0.203-0.214,0.317c0.026,0.11,0.154,0.229,0.371,0.354c0.217,0.125,0.415,0.195,0.612,0.214
								c0.198,0.011,0.375-0.033,0.54-0.129c0.166-0.096,0.241-0.199,0.215-0.31C219.635,144.253,219.52,144.136,219.303,144.01
								 M204.541,151.206l2.576-1.497l0.722,0.417l-1.624,0.944l0.696,0.401l1.529-0.888l0.728,0.42l-1.529,0.888l1.577,0.911
								l-0.952,0.553L204.541,151.206 M208.138,149.322l0.684-0.605l0.907-0.527l3.059,1.766l0.843-0.49l0.664,0.383l-2.588,1.504
								l-0.664-0.383l0.843-0.49l-2.407-1.39l-0.69,0.608L208.138,149.322 M214.042,148.88l0.894-0.52l0.964,0.556l-0.894,0.52
								L214.042,148.88 M214.651,147.49c-0.62-0.357-0.965-0.711-1.037-1.054c-0.072-0.351,0.136-0.664,0.625-0.948
								c0.488-0.284,1.028-0.405,1.627-0.361c0.598,0.037,1.21,0.236,1.83,0.594c0.613,0.354,0.958,0.708,1.024,1.054
								c0.078,0.347-0.13,0.66-0.618,0.944c-0.489,0.284-1.029,0.405-1.633,0.365C215.876,148.043,215.264,147.844,214.651,147.49
								 M217.445,145.164c-0.396-0.229-0.595-0.49-0.577-0.781c0.017-0.284,0.245-0.557,0.683-0.811
								c0.482-0.28,1.022-0.402,1.608-0.365c0.592,0.033,1.191,0.225,1.785,0.567c0.62,0.358,0.939,0.727,0.992,1.11
								c0.041,0.383-0.212,0.73-0.751,1.043c-0.171,0.1-0.349,0.188-0.533,0.266c-0.184,0.078-0.381,0.147-0.584,0.207L219.378,146
								c0.222-0.048,0.425-0.099,0.597-0.162c0.178-0.059,0.336-0.129,0.469-0.207c0.286-0.166,0.425-0.342,0.424-0.527
								c0.005-0.181-0.142-0.369-0.423-0.568c-0.031,0.114-0.094,0.218-0.176,0.317c-0.082,0.1-0.203,0.192-0.349,0.277
								c-0.38,0.221-0.8,0.332-1.251,0.343C218.216,145.478,217.809,145.374,217.445,145.164 M239.501,144.972l-20.431-11.796
								l-30.32,17.621l20.431,11.796L239.501,144.972"/>
							<path fill="#BDD4E4" d="M239.289,159.297c-0.466-0.269-0.83-0.435-1.11-0.494c-0.281-0.059-0.522-0.03-0.725,0.088
								c-0.203,0.118-0.253,0.258-0.15,0.42c0.103,0.162,0.384,0.376,0.85,0.645c0.472,0.272,0.849,0.438,1.129,0.498
								c0.28,0.059,0.522,0.029,0.725-0.088c0.203-0.118,0.253-0.258,0.15-0.42C240.055,159.784,239.761,159.57,239.289,159.297
								 M241.859,157.034c-0.217-0.125-0.421-0.191-0.612-0.207c-0.197-0.018-0.375,0.026-0.541,0.122
								c-0.165,0.096-0.24,0.199-0.215,0.317c0.027,0.111,0.148,0.225,0.365,0.351c0.217,0.125,0.421,0.199,0.612,0.214
								c0.198,0.011,0.375-0.033,0.541-0.129c0.165-0.096,0.241-0.199,0.214-0.31C242.198,157.281,242.077,157.16,241.859,157.034
								 M246.675,155.552c-0.268-0.155-0.523-0.244-0.759-0.262c-0.236-0.026-0.452,0.019-0.642,0.129
								c-0.19,0.111-0.266,0.236-0.227,0.376c0.039,0.141,0.186,0.284,0.454,0.438c0.262,0.151,0.517,0.24,0.759,0.262
								c0.242,0.022,0.458-0.022,0.648-0.133c0.19-0.111,0.266-0.236,0.221-0.373C247.091,155.851,246.937,155.704,246.675,155.552
								 M227.097,164.23l2.576-1.497l0.728,0.421l-1.624,0.943l0.689,0.398l1.529-0.889l0.728,0.42l-1.529,0.888l1.577,0.911
								l-0.952,0.553L227.097,164.23 M230.695,162.346l0.684-0.604l0.907-0.527l3.059,1.766l0.843-0.49l0.664,0.384l-2.588,1.504
								l-0.664-0.383l0.843-0.49l-2.407-1.39l-0.69,0.608L230.695,162.346 M236.599,161.904l0.894-0.52l0.964,0.557l-0.895,0.52
								L236.599,161.904 M237.208,160.514c-0.619-0.357-0.958-0.708-1.037-1.054c-0.066-0.347,0.136-0.664,0.625-0.948
								c0.488-0.284,1.035-0.402,1.627-0.361c0.605,0.041,1.21,0.236,1.83,0.593c0.619,0.357,0.958,0.708,1.03,1.058
								c0.072,0.343-0.13,0.66-0.618,0.943c-0.489,0.284-1.035,0.402-1.634,0.365C238.433,161.067,237.827,160.872,237.208,160.514
								 M240.008,158.191c-0.402-0.232-0.595-0.49-0.577-0.781c0.011-0.288,0.239-0.561,0.676-0.815
								c0.482-0.28,1.022-0.402,1.608-0.365c0.592,0.033,1.191,0.225,1.792,0.571c0.613,0.354,0.939,0.727,0.986,1.106
								c0.041,0.383-0.206,0.733-0.745,1.047c-0.171,0.1-0.349,0.188-0.54,0.262c-0.184,0.078-0.381,0.147-0.584,0.207l-0.689-0.398
								c0.229-0.044,0.426-0.1,0.604-0.159c0.171-0.062,0.331-0.133,0.463-0.21c0.286-0.166,0.431-0.339,0.43-0.523
								c-0.001-0.185-0.148-0.373-0.429-0.571c-0.032,0.114-0.088,0.221-0.177,0.317c-0.082,0.1-0.203,0.192-0.349,0.276
								c-0.38,0.221-0.793,0.335-1.251,0.343C240.773,158.501,240.365,158.398,240.008,158.191 M242.124,155.312l0.888-0.516
								l1.5,0.866c-0.045-0.166-0.033-0.313,0.042-0.446c0.07-0.129,0.203-0.25,0.399-0.365c0.342-0.199,0.762-0.28,1.252-0.254
								c0.49,0.033,0.956,0.17,1.39,0.42c0.428,0.247,0.665,0.516,0.724,0.8c0.053,0.288-0.086,0.531-0.429,0.73
								c-0.197,0.114-0.413,0.188-0.635,0.229c-0.229,0.044-0.483,0.052-0.764,0.03l0.402,0.232l-0.888,0.516L242.124,155.312
								 M260.289,156.975l-18.656-10.771l-30.321,17.621l18.656,10.771L260.289,156.975"/>
							<path fill="#BDD4E4" d="M200.274,199.479c-0.466-0.27-0.843-0.435-1.11-0.494c-0.28-0.059-0.522-0.03-0.725,0.088
								c-0.209,0.122-0.259,0.262-0.15,0.42c0.097,0.159,0.384,0.376,0.85,0.645c0.466,0.269,0.843,0.435,1.13,0.498
								c0.274,0.062,0.516,0.033,0.725-0.088c0.203-0.118,0.253-0.258,0.143-0.417C201.028,199.966,200.74,199.749,200.274,199.479
								 M188.083,204.412l2.569-1.493l0.721,0.417l-1.618,0.94l0.696,0.402l1.522-0.885l0.728,0.42l-1.522,0.885l1.577,0.911
								l-0.951,0.553L188.083,204.412 M191.681,202.528l0.678-0.602l0.907-0.527l3.058,1.766l0.843-0.49l0.664,0.384l-2.588,1.504
								l-0.664-0.383l0.844-0.491l-2.407-1.39l-0.685,0.605L191.681,202.528 M197.585,202.085l0.888-0.516l0.964,0.556l-0.888,0.516
								L197.585,202.085 M198.188,200.699c-0.619-0.357-0.965-0.711-1.031-1.058c-0.072-0.35,0.136-0.664,0.625-0.948
								c0.482-0.28,1.022-0.402,1.627-0.361c0.599,0.037,1.211,0.236,1.83,0.594c0.613,0.354,0.958,0.708,1.024,1.054
								c0.072,0.35-0.136,0.664-0.618,0.944c-0.488,0.284-1.029,0.406-1.634,0.365C199.412,201.252,198.801,201.053,198.188,200.699
								 M199.799,197.603l2.791-1.622l0.536,0.31l1.74,2.68l-0.926,0.538l-1.656-2.537l-1.783,1.036L199.799,197.603
								 M225.624,199.889l-27.703-15.995l-30.32,17.621l27.703,15.995L225.624,199.889"/>
							<path fill="#BDD4E4" d="M222.193,212.134c-0.466-0.269-0.836-0.431-1.11-0.494c-0.28-0.059-0.522-0.029-0.725,0.089
								c-0.209,0.122-0.259,0.262-0.15,0.42c0.103,0.163,0.383,0.377,0.85,0.646c0.473,0.273,0.849,0.438,1.129,0.498
								c0.274,0.062,0.516,0.033,0.726-0.089c0.203-0.118,0.253-0.258,0.143-0.416C222.953,212.625,222.666,212.408,222.193,212.134
								 M226.257,210.564c-0.224-0.129-0.421-0.199-0.612-0.213c-0.191-0.016-0.375,0.025-0.547,0.125
								c-0.165,0.096-0.234,0.202-0.208,0.313c0.026,0.11,0.142,0.229,0.365,0.357c0.217,0.125,0.42,0.191,0.612,0.206
								c0.191,0.015,0.375-0.025,0.54-0.121c0.171-0.1,0.241-0.207,0.215-0.317S226.474,210.69,226.257,210.564 M210.002,217.067
								l2.569-1.493l0.728,0.42l-1.618,0.941l0.689,0.397l1.522-0.885l0.728,0.421l-1.522,0.885l1.577,0.91l-0.951,0.553
								L210.002,217.067 M213.599,215.183l0.678-0.601l0.907-0.527l3.058,1.766l0.843-0.49l0.664,0.384l-2.588,1.504l-0.664-0.383
								l0.844-0.491l-2.407-1.39l-0.684,0.605L213.599,215.183 M219.503,214.741l0.888-0.516l0.964,0.557l-0.888,0.516
								L219.503,214.741 M220.106,213.355c-0.619-0.357-0.959-0.708-1.031-1.058c-0.065-0.347,0.136-0.664,0.625-0.948
								c0.482-0.279,1.029-0.397,1.627-0.361c0.604,0.041,1.211,0.236,1.83,0.594s0.958,0.708,1.03,1.059
								c0.065,0.346-0.136,0.663-0.618,0.943c-0.489,0.284-1.036,0.402-1.634,0.365
								C221.331,213.908,220.726,213.712,220.106,213.355 M224.119,210.616c0.025-0.11,0.075-0.214,0.17-0.312
								c0.089-0.097,0.203-0.192,0.349-0.277c0.381-0.221,0.8-0.332,1.251-0.335c0.458-0.007,0.86,0.092,1.224,0.302
								c0.396,0.229,0.588,0.487,0.57,0.778c-0.017,0.291-0.245,0.564-0.676,0.814c-0.482,0.28-1.022,0.401-1.608,0.365
								c-0.592-0.033-1.192-0.225-1.792-0.571c-0.613-0.354-0.939-0.727-0.986-1.106c-0.041-0.383,0.2-0.73,0.739-1.043
								c0.171-0.1,0.349-0.188,0.533-0.266c0.19-0.074,0.388-0.144,0.597-0.207l0.69,0.398c-0.235,0.048-0.432,0.103-0.61,0.162
								c-0.178,0.059-0.324,0.129-0.458,0.207c-0.286,0.166-0.43,0.339-0.429,0.523C223.684,210.232,223.831,210.42,224.119,210.616
								 M240.73,208.611l-12.36-7.137l-30.32,17.621l12.36,7.137L240.73,208.611"/>
							<path fill="#BDD4E4" d="M237.305,220.861c-0.466-0.27-0.843-0.436-1.11-0.494c-0.28-0.06-0.522-0.03-0.725,0.088
								c-0.209,0.122-0.259,0.262-0.15,0.421c0.096,0.158,0.384,0.376,0.85,0.645c0.466,0.27,0.843,0.436,1.13,0.498
								c0.274,0.062,0.516,0.033,0.725-0.089c0.203-0.118,0.253-0.258,0.144-0.416C238.059,221.347,237.771,221.129,237.305,220.861
								 M225.114,225.792l2.569-1.493l0.721,0.417l-1.618,0.94l0.696,0.401l1.522-0.885l0.728,0.421l-1.522,0.885l1.577,0.91
								l-0.951,0.553L225.114,225.792 M228.711,223.91l0.678-0.602l0.907-0.527l3.058,1.766l0.843-0.49l0.664,0.384l-2.588,1.504
								l-0.664-0.384l0.844-0.49l-2.407-1.39l-0.685,0.605L228.711,223.91 M234.615,223.466l0.888-0.516l0.964,0.557l-0.888,0.516
								L234.615,223.466 M235.219,222.081c-0.62-0.357-0.966-0.712-1.031-1.058c-0.072-0.351,0.137-0.664,0.625-0.947
								c0.482-0.28,1.022-0.402,1.627-0.361c0.598,0.036,1.211,0.235,1.83,0.593c0.613,0.354,0.958,0.708,1.024,1.055
								c0.072,0.351-0.136,0.663-0.618,0.943c-0.489,0.284-1.029,0.406-1.634,0.365
								C236.443,222.634,235.831,222.434,235.219,222.081 M238.49,218.833l0.575,0.332c0.057-0.055,0.114-0.104,0.177-0.154
								c0.07-0.048,0.139-0.096,0.215-0.141c0.45-0.262,0.914-0.405,1.392-0.416c0.483-0.015,0.917,0.096,1.326,0.331
								c0.402,0.232,0.582,0.49,0.539,0.781c-0.05,0.288-0.315,0.576-0.803,0.859c-0.209,0.122-0.431,0.229-0.679,0.328
								c-0.248,0.092-0.514,0.181-0.8,0.251l-0.76-0.439c0.318-0.051,0.597-0.11,0.839-0.184c0.235-0.07,0.438-0.151,0.604-0.247
								c0.229-0.133,0.354-0.272,0.373-0.416c0.019-0.145-0.071-0.27-0.263-0.38c-0.198-0.114-0.414-0.166-0.663-0.155
								c-0.248,0.011-0.489,0.085-0.718,0.218c-0.14,0.081-0.267,0.177-0.386,0.291c-0.12,0.106-0.228,0.235-0.335,0.387
								l-2.094-1.209l2.372-1.378l0.702,0.405L238.49,218.833 M255.204,216.967l-11.466-6.62l-30.32,17.621l11.467,6.62
								L255.204,216.967"/>
							<path fill="#BDD4E4" d="M248.167,176.395l2.576-1.497l0.728,0.42l-1.624,0.944l0.69,0.398l1.529-0.889l0.728,0.42
								l-1.529,0.888l1.577,0.911l-0.952,0.553L248.167,176.395 M251.765,174.511l0.684-0.604l0.907-0.527l3.059,1.766l0.843-0.49
								l0.664,0.383l-2.588,1.504l-0.664-0.383l0.843-0.49l-2.407-1.39l-0.69,0.608L251.765,174.511 M257.668,174.069l0.894-0.52
								l0.964,0.557l-0.894,0.52L257.668,174.069 M256.921,171.514l0.678-0.601l0.907-0.527l3.059,1.766l0.844-0.491l0.664,0.384
								l-2.588,1.504l-0.664-0.384l0.843-0.49l-2.407-1.39l-0.684,0.604L256.921,171.514 M264.031,170.674l1.624-0.944l0.703,0.406
								l-2.689,1.563l-0.703-0.406l0.151-1.478c0.012-0.133-0.008-0.247-0.053-0.347c-0.045-0.092-0.128-0.169-0.243-0.236
								c-0.172-0.1-0.37-0.147-0.592-0.144c-0.223,0.011-0.433,0.066-0.629,0.181c-0.146,0.084-0.279,0.199-0.393,0.339
								c-0.107,0.137-0.202,0.302-0.277,0.494l-0.817-0.472c0.146-0.166,0.297-0.32,0.469-0.464
								c0.171-0.144,0.361-0.276,0.564-0.395c0.438-0.254,0.889-0.398,1.328-0.424c0.439-0.033,0.834,0.055,1.185,0.258
								c0.205,0.118,0.339,0.254,0.416,0.416c0.064,0.163,0.085,0.424,0.043,0.789L264.031,170.674 M282.705,169.918l-20.22-11.675
								l-30.32,17.621l20.22,11.675L282.705,169.918"/>
							<path fill="#BDD4E4" d="M272.428,190.404l2.576-1.497l0.728,0.42l-1.624,0.944l0.69,0.398l1.528-0.888l0.728,0.42
								l-1.529,0.889l1.577,0.91l-0.951,0.553L272.428,190.404 M276.026,188.52l0.684-0.605l0.907-0.527l3.058,1.766l0.844-0.49
								l0.664,0.383l-2.588,1.504l-0.664-0.383l0.843-0.49l-2.407-1.39l-0.69,0.608L276.026,188.52 M281.929,188.077l0.894-0.52
								l0.964,0.557l-0.894,0.52L281.929,188.077 M281.183,185.523l0.678-0.601l0.907-0.527l3.058,1.766l0.844-0.49l0.664,0.383
								l-2.588,1.504l-0.664-0.383l0.843-0.49l-2.407-1.39l-0.684,0.604L281.183,185.523 M287.891,183.407
								c0.312-0.107,0.61-0.155,0.903-0.133c0.293,0.015,0.56,0.096,0.809,0.24c0.364,0.21,0.506,0.453,0.418,0.726
								c-0.094,0.276-0.404,0.567-0.943,0.881c-0.19,0.111-0.394,0.214-0.615,0.306c-0.223,0.092-0.458,0.177-0.699,0.25
								l-0.741-0.428c0.267-0.051,0.508-0.118,0.73-0.195c0.223-0.07,0.419-0.162,0.584-0.258c0.253-0.147,0.406-0.288,0.45-0.417
								c0.05-0.125-0.008-0.24-0.174-0.335c-0.172-0.1-0.37-0.133-0.593-0.1c-0.229,0.029-0.476,0.122-0.743,0.276l-0.38,0.221
								l-0.62-0.357l0.4-0.232c0.241-0.141,0.38-0.266,0.424-0.373c0.044-0.115-0.014-0.214-0.173-0.306
								c-0.141-0.081-0.307-0.11-0.504-0.092c-0.19,0.022-0.388,0.092-0.597,0.214c-0.152,0.088-0.291,0.192-0.412,0.299
								c-0.12,0.114-0.228,0.236-0.31,0.365l-0.708-0.409c0.132-0.136,0.285-0.269,0.443-0.391c0.152-0.125,0.323-0.24,0.501-0.343
								c0.482-0.28,0.92-0.439,1.321-0.487c0.4-0.048,0.751,0.022,1.07,0.207c0.217,0.125,0.345,0.258,0.371,0.405
								S288.056,183.245,287.891,183.407 M309.521,185.401l-24.689-14.255l-30.321,17.621l24.689,14.255L309.521,185.401"/>
							<path fill="#BDD4E4" d="M407.952,261.473l-1.559-0.899l0.512,1.508L407.952,261.473 M392.352,267.818l2.575-1.496l0.728,0.42
								l-1.623,0.943l0.695,0.402l1.529-0.889l0.721,0.416l-1.528,0.889l1.584,0.914l-0.952,0.554L392.352,267.818 M395.949,265.934
								l0.685-0.604l0.906-0.527l3.064,1.77l0.844-0.49l0.665,0.384l-2.589,1.504l-0.664-0.384l0.844-0.49l-2.407-1.39l-0.689,0.608
								L395.949,265.934 M401.853,265.492l0.895-0.52l0.971,0.561l-0.895,0.52L401.853,265.492 M401.106,262.937l0.678-0.601
								l0.907-0.527l3.063,1.77l0.845-0.49l0.664,0.383l-2.589,1.505l-0.664-0.384l0.844-0.49l-2.406-1.39l-0.685,0.604
								L401.106,262.937 M406.182,262.355l-0.737-2.146l1.06-0.616l2.349,1.356l0.526-0.306l0.696,0.402l-0.526,0.306l0.684,0.395
								l-0.901,0.523l-0.683-0.395l-1.643,0.955L406.182,262.355 M441.413,261.554l-82.093-47.399l-10.643-6.145l-20.112-11.612
								l-30.32,17.622l20.112,11.611l-12.001,6.975l92.735,53.545L441.413,261.554"/>
							<path fill="#CFD0D2" d="M436.991,285.42l2.575-1.497l0.729,0.421l-1.624,0.943l0.689,0.398l1.528-0.889l0.729,0.421
								l-1.529,0.888l1.577,0.911l-0.952,0.553L436.991,285.42 M440.589,283.537l0.684-0.604l0.907-0.527l3.059,1.766l0.844-0.49
								l0.664,0.384l-2.588,1.504l-0.664-0.383l0.844-0.49l-2.407-1.391l-0.69,0.608L440.589,283.537 M446.493,283.094l0.894-0.52
								l0.964,0.557l-0.895,0.52L446.493,283.094 M445.746,280.54l0.678-0.601l0.906-0.527l3.059,1.766l0.844-0.49l0.664,0.384
								l-2.588,1.504l-0.664-0.384l0.844-0.49l-2.407-1.39l-0.685,0.604L445.746,280.54 M450.374,278.457l0.581,0.336
								c0.051-0.052,0.107-0.107,0.171-0.151c0.063-0.052,0.133-0.1,0.215-0.147c0.45-0.262,0.914-0.398,1.392-0.416
								c0.478-0.012,0.917,0.095,1.326,0.331c0.402,0.232,0.574,0.494,0.532,0.785c-0.043,0.292-0.315,0.575-0.798,0.855
								c-0.209,0.121-0.437,0.232-0.678,0.328c-0.248,0.1-0.516,0.181-0.802,0.251l-0.759-0.438
								c0.324-0.048,0.597-0.111,0.832-0.182c0.248-0.069,0.444-0.154,0.604-0.247c0.229-0.133,0.355-0.272,0.373-0.416
								c0.019-0.144-0.064-0.272-0.257-0.384c-0.198-0.114-0.421-0.162-0.669-0.151c-0.248,0.012-0.482,0.089-0.711,0.222
								c-0.14,0.081-0.273,0.173-0.388,0.284c-0.12,0.114-0.234,0.239-0.335,0.387l-2.094-1.209l2.372-1.379l0.703,0.405
								L450.374,278.457 M477.966,282.66l-34.158-19.723l-30.32,17.621l34.158,19.723L477.966,282.66"/>
							<polyline fill="#EC7405" points="282.951,232.989 274.249,227.964 243.929,245.585 252.631,250.61 282.951,232.989 							
								"/>
							<path fill="#BDD4E4" d="M289.436,250.96c-0.466-0.27-0.836-0.432-1.11-0.495c-0.28-0.059-0.521-0.029-0.725,0.089
								c-0.209,0.122-0.26,0.262-0.151,0.42c0.103,0.163,0.384,0.377,0.85,0.646c0.473,0.273,0.849,0.438,1.129,0.497
								c0.275,0.063,0.516,0.033,0.726-0.088c0.203-0.118,0.253-0.258,0.143-0.416C290.195,251.451,289.908,251.233,289.436,250.96
								 M277.244,255.892l2.569-1.493l0.729,0.421l-1.618,0.94l0.689,0.397l1.522-0.885l0.728,0.42l-1.522,0.885l1.578,0.911
								l-0.951,0.553L277.244,255.892 M280.842,254.009l0.678-0.602l0.907-0.527l3.058,1.766l0.843-0.49l0.665,0.384l-2.588,1.504
								l-0.665-0.384l0.844-0.49l-2.407-1.39l-0.678,0.608L280.842,254.009 M286.745,253.566l0.888-0.516l0.964,0.557l-0.888,0.516
								L286.745,253.566 M287.349,252.18c-0.619-0.357-0.959-0.708-1.031-1.058c-0.066-0.347,0.143-0.66,0.631-0.944
								c0.482-0.28,1.022-0.401,1.621-0.364c0.604,0.04,1.21,0.235,1.83,0.593c0.619,0.357,0.958,0.708,1.03,1.058
								c0.066,0.348-0.136,0.664-0.618,0.944c-0.489,0.284-1.035,0.402-1.634,0.365C288.573,252.733,287.968,252.538,287.349,252.18
								 M293.103,250.175l1.631-0.948l0.702,0.405l-2.689,1.563l-0.703-0.405l0.15-1.479c0.012-0.133-0.007-0.247-0.059-0.343
								c-0.045-0.092-0.122-0.173-0.237-0.239c-0.172-0.1-0.37-0.147-0.599-0.141c-0.216,0.008-0.432,0.066-0.622,0.178
								c-0.146,0.084-0.279,0.198-0.393,0.339c-0.114,0.14-0.209,0.306-0.277,0.493l-0.817-0.472
								c0.139-0.162,0.297-0.32,0.467-0.464c0.171-0.145,0.362-0.27,0.565-0.387c0.444-0.259,0.882-0.402,1.328-0.432
								c0.439-0.033,0.833,0.055,1.185,0.258c0.204,0.118,0.339,0.255,0.41,0.421c0.071,0.157,0.084,0.423,0.049,0.784
								L293.103,250.175 M321.495,255.244l-35.83-20.688l-30.32,17.621l35.83,20.688L321.495,255.244"/>
							<path fill="#BDD4E4" d="M333.17,276.211c-0.466-0.269-0.836-0.431-1.11-0.494c-0.279-0.059-0.521-0.029-0.725,0.089
								c-0.21,0.121-0.259,0.262-0.15,0.42c0.103,0.163,0.384,0.377,0.85,0.646c0.473,0.272,0.85,0.438,1.13,0.497
								c0.274,0.063,0.516,0.033,0.725-0.088c0.203-0.118,0.254-0.258,0.144-0.416C333.93,276.703,333.643,276.484,333.17,276.211
								 M320.979,281.144l2.569-1.493l0.728,0.42l-1.618,0.94l0.688,0.398l1.522-0.885l0.729,0.42l-1.522,0.885l1.577,0.911
								l-0.951,0.553L320.979,281.144 M324.576,279.261l0.679-0.602l0.907-0.527l3.058,1.766l0.843-0.49l0.664,0.384l-2.588,1.504
								l-0.664-0.384l0.844-0.49l-2.406-1.39l-0.678,0.608L324.576,279.261 M330.48,278.818l0.888-0.516l0.964,0.557l-0.889,0.516
								L330.48,278.818 M331.084,277.432c-0.62-0.357-0.959-0.708-1.032-1.059c-0.065-0.346,0.144-0.659,0.632-0.943
								c0.481-0.28,1.022-0.401,1.621-0.365c0.604,0.041,1.211,0.236,1.83,0.594s0.958,0.708,1.03,1.058
								c0.065,0.347-0.137,0.664-0.618,0.944c-0.489,0.284-1.036,0.401-1.635,0.365C332.309,277.985,331.703,277.79,331.084,277.432
								 M333.108,274.302l0.684-0.604l0.901-0.523l3.058,1.766l0.844-0.49l0.664,0.383l-2.588,1.504l-0.664-0.383l0.843-0.49
								l-2.406-1.39l-0.678,0.608L333.108,274.302 M423.648,314.226l-99.676-57.552l-30.32,17.62l99.677,57.553L423.648,314.226"/>
							<polyline fill="#CFD0D2" points="239.38,245.906 224.894,237.542 224.935,245.906 239.38,245.906 							"/>
							<polyline fill="#CFD0D2" points="328.969,185.445 314.536,185.445 329.022,193.81 328.969,185.445 							"/>
							<path fill="#CFD0D2" d="M140.877,137.75l-0.518-0.298c-0.21-0.122-0.408-0.192-0.579-0.21
								c-0.179-0.022-0.331,0.007-0.471,0.089c-0.127,0.073-0.185,0.151-0.171,0.247c0.013,0.089,0.097,0.181,0.243,0.266
								c0.192,0.111,0.421,0.162,0.682,0.159c0.261-0.004,0.496-0.066,0.699-0.185L140.877,137.75 M137.038,135.048l-0.639-0.369
								l-1.091,0.634l0.638,0.369c0.217,0.125,0.422,0.191,0.619,0.203c0.204,0.007,0.395-0.037,0.579-0.144
								c0.184-0.107,0.26-0.217,0.24-0.332C137.363,135.295,137.255,135.173,137.038,135.048 M132.125,130.632l-2.23,0.63
								l1.143,0.66L132.125,130.632 M138.61,134.09l-0.6-0.347l-0.882,0.512l0.601,0.347c0.166,0.096,0.332,0.155,0.491,0.159
								c0.166,0.007,0.318-0.03,0.464-0.114c0.146-0.085,0.209-0.174,0.196-0.269C138.872,134.285,138.776,134.186,138.61,134.09
								 M132.425,133.062l0.812-0.472l1.762,1.017l-0.812,0.472L132.425,133.062 M143.257,139.97
								c0.21,0.121,0.453,0.173,0.733,0.143c0.28-0.022,0.566-0.114,0.851-0.28l1.542-0.896l1.002,0.579l-3.122,1.814l-1.002-0.579
								l0.451-0.262c-0.337,0.018-0.63,0.003-0.891-0.044c-0.249-0.048-0.484-0.133-0.688-0.25
								c-0.358-0.207-0.531-0.431-0.494-0.667c0.03-0.239,0.258-0.482,0.677-0.726l1.909-1.11l1.009,0.583l-0.317,0.185
								c-0.166,0.096-0.381,0.221-0.635,0.369c-0.26,0.144-0.431,0.243-0.52,0.294c-0.248,0.144-0.425,0.255-0.52,0.325
								c-0.102,0.074-0.152,0.133-0.171,0.181c-0.025,0.059-0.019,0.122,0.007,0.181
								C143.116,139.867,143.174,139.922,143.257,139.97 M139.863,136.151l0.755-0.439c0.274,0.092,0.529,0.195,0.772,0.306
								c0.242,0.11,0.478,0.225,0.695,0.35c0.562,0.325,0.855,0.627,0.89,0.903c0.027,0.273-0.207,0.557-0.708,0.848l-1.776,1.032
								l-1.016-0.586l0.457-0.266c-0.318,0.029-0.61,0.022-0.865-0.022c-0.249-0.048-0.497-0.14-0.74-0.28
								c-0.326-0.188-0.492-0.395-0.513-0.619c-0.014-0.229,0.131-0.432,0.429-0.604c0.368-0.214,0.763-0.295,1.189-0.248
								c0.42,0.044,0.912,0.225,1.454,0.539l0.587,0.339l0.076-0.044c0.159-0.093,0.209-0.195,0.164-0.31
								c-0.059-0.114-0.211-0.247-0.479-0.402c-0.217-0.125-0.434-0.228-0.664-0.31C140.34,136.257,140.104,136.195,139.863,136.151
								 M126.744,131.215l5.713-1.523l1.283,0.741l-2.61,3.314l-1.085-0.627l0.493-0.59l-1.686-0.973l-1.023,0.284L126.744,131.215
								 M133.499,135.115l4.161-2.418l1.622,0.936c0.581,0.335,0.914,0.63,0.998,0.885c0.09,0.251-0.061,0.487-0.447,0.711
								c-0.203,0.118-0.419,0.192-0.655,0.218c-0.242,0.029-0.49,0.011-0.732-0.056c0.161,0.173,0.219,0.347,0.163,0.527
								c-0.05,0.177-0.208,0.343-0.469,0.495c-0.406,0.236-0.838,0.332-1.309,0.288c-0.471-0.044-0.981-0.229-1.537-0.549
								L133.499,135.115 M131.841,124.303l-13.058,0l0.042,7.564l2.892-1.681l25.876,14.941l3.295,1.902l7.238-4.207l-3.294-1.902
								l-25.877-14.941L131.841,124.303"/>
							<polyline fill="#EC7405" points="247.166,187.37 208.858,165.251 199.312,170.799 237.619,192.917 247.166,187.37 							"/>
							<polyline fill="#FFFFFF" points="183.155,135.874 182.427,135.454 179.852,136.951 183.573,139.1 184.525,138.547 
								182.948,137.636 184.477,136.748 183.749,136.328 182.221,137.216 181.531,136.818 183.155,135.874 							"/>
							<polyline fill="#FFFFFF" points="189.606,135.594 188.942,135.211 188.099,135.701 185.041,133.935 184.133,134.462 
								183.449,135.067 184.101,135.443 184.791,134.835 187.198,136.225 186.354,136.715 187.018,137.098 189.606,135.594 							
								"/>
							<polyline fill="#FFFFFF" points="191.211,134.662 190.247,134.105 189.353,134.625 190.316,135.181 191.211,134.662 							
								"/>
							<path fill="#FFFFFF" d="M190.907,132.678c-0.466-0.27-0.747-0.483-0.85-0.646c-0.103-0.162-0.053-0.302,0.15-0.42
								c0.203-0.118,0.444-0.147,0.725-0.088c0.28,0.059,0.644,0.225,1.11,0.494c0.472,0.273,0.767,0.487,0.869,0.649
								c0.103,0.163,0.052,0.302-0.15,0.42c-0.203,0.118-0.444,0.147-0.725,0.088C191.756,133.117,191.379,132.951,190.907,132.678
								 M193.007,131.465c-0.62-0.357-1.225-0.553-1.83-0.594c-0.592-0.04-1.139,0.078-1.627,0.361
								c-0.488,0.284-0.69,0.601-0.625,0.947c0.078,0.347,0.417,0.697,1.037,1.055c0.62,0.357,1.225,0.553,1.824,0.597
								c0.598,0.037,1.145-0.081,1.633-0.365c0.488-0.284,0.69-0.601,0.619-0.943C193.965,132.173,193.626,131.823,193.007,131.465"
								/>
							<path fill="#FFFFFF" d="M193.611,130.337c-0.217-0.125-0.338-0.24-0.365-0.35c-0.026-0.118,0.049-0.222,0.214-0.317
								c0.165-0.096,0.343-0.14,0.541-0.122c0.19,0.015,0.395,0.081,0.611,0.207c0.217,0.125,0.339,0.247,0.365,0.357
								c0.026,0.111-0.05,0.213-0.215,0.31c-0.165,0.096-0.343,0.14-0.54,0.129C194.032,130.536,193.828,130.462,193.611,130.337
								 M196.261,129.522c-0.601-0.347-1.199-0.538-1.792-0.571c-0.585-0.037-1.126,0.084-1.608,0.365
								c-0.438,0.254-0.665,0.527-0.676,0.815c-0.018,0.291,0.175,0.549,0.577,0.781c0.357,0.207,0.765,0.31,1.217,0.306
								c0.458-0.007,0.872-0.122,1.251-0.343c0.146-0.085,0.267-0.177,0.349-0.277c0.089-0.095,0.146-0.202,0.177-0.317
								c0.281,0.199,0.428,0.387,0.429,0.572c0.001,0.184-0.144,0.357-0.43,0.523c-0.133,0.077-0.292,0.147-0.463,0.21
								c-0.178,0.059-0.375,0.114-0.604,0.159l0.689,0.398c0.203-0.059,0.4-0.129,0.584-0.207c0.19-0.074,0.368-0.162,0.54-0.262
								c0.539-0.313,0.785-0.663,0.745-1.047C197.2,130.249,196.874,129.876,196.261,129.522"/>
							<path fill="#FFFFFF" d="M198.563,129.368c-0.121-0.07-0.167-0.155-0.141-0.243c0.031-0.092,0.139-0.192,0.322-0.299
								l0.463-0.269l0.102,0.059c0.185,0.107,0.275,0.225,0.282,0.361c0.007,0.136-0.069,0.254-0.24,0.354
								c-0.133,0.078-0.267,0.118-0.406,0.125C198.799,129.46,198.678,129.434,198.563,129.368 M201.36,128.763l-1.589-0.918
								c-0.447-0.258-0.887-0.38-1.307-0.365c-0.42,0.015-0.884,0.166-1.385,0.458c-0.19,0.11-0.368,0.229-0.533,0.354
								c-0.165,0.125-0.33,0.258-0.475,0.394l0.684,0.395c0.069-0.129,0.164-0.25,0.284-0.365c0.126-0.118,0.285-0.232,0.475-0.343
								c0.234-0.137,0.438-0.218,0.623-0.244c0.171-0.026,0.331,0,0.471,0.081l0.07,0.041l-0.526,0.306
								c-0.476,0.276-0.754,0.527-0.823,0.745c-0.069,0.217,0.06,0.424,0.386,0.612c0.268,0.155,0.574,0.229,0.93,0.221
								c0.344-0.007,0.668-0.092,0.953-0.258c0.216-0.125,0.349-0.254,0.417-0.384c0.076-0.132,0.088-0.28,0.036-0.45l0.415,0.24
								L201.36,128.763"/>
							<polyline fill="#FFFFFF" points="207.838,150.125 207.116,149.709 204.541,151.206 208.263,153.355 209.214,152.802 
								207.637,151.892 209.166,151.003 208.438,150.583 206.91,151.471 206.214,151.07 207.838,150.125 							"/>
							<polyline fill="#FFFFFF" points="214.295,149.849 213.631,149.466 212.788,149.956 209.729,148.19 208.822,148.717 
								208.138,149.322 208.79,149.698 209.48,149.09 211.887,150.48 211.043,150.97 211.708,151.354 214.295,149.849 							"/>
							<polyline fill="#FFFFFF" points="215.9,148.917 214.936,148.36 214.042,148.88 215.006,149.437 215.9,148.917 							"/>
							<path fill="#FFFFFF" d="M215.597,146.933c-0.466-0.269-0.754-0.486-0.851-0.645c-0.103-0.162-0.052-0.302,0.151-0.42
								c0.203-0.118,0.444-0.147,0.725-0.088c0.274,0.055,0.644,0.225,1.11,0.494c0.466,0.269,0.76,0.483,0.862,0.646
								c0.109,0.166,0.059,0.306-0.144,0.423c-0.203,0.118-0.445,0.147-0.731,0.085
								C216.439,147.368,216.062,147.203,215.597,146.933 M217.696,145.721c-0.62-0.358-1.231-0.557-1.83-0.594
								c-0.599-0.044-1.139,0.078-1.627,0.361c-0.489,0.284-0.697,0.597-0.625,0.948c0.072,0.343,0.417,0.696,1.037,1.054
								c0.613,0.354,1.225,0.553,1.817,0.594c0.604,0.041,1.145-0.081,1.633-0.365c0.488-0.284,0.696-0.597,0.618-0.944
								C218.654,146.428,218.309,146.075,217.696,145.721"/>
							<path fill="#FFFFFF" d="M218.301,144.592c-0.217-0.125-0.345-0.243-0.371-0.354c-0.02-0.114,0.049-0.222,0.214-0.317
								c0.166-0.096,0.35-0.136,0.541-0.122c0.19,0.015,0.401,0.085,0.618,0.21s0.332,0.243,0.365,0.357
								c0.026,0.111-0.049,0.214-0.215,0.31c-0.165,0.096-0.342,0.14-0.54,0.129C218.715,144.788,218.518,144.718,218.301,144.592
								 M220.943,143.774c-0.594-0.343-1.193-0.534-1.785-0.567c-0.585-0.037-1.125,0.084-1.608,0.365
								c-0.438,0.254-0.666,0.527-0.683,0.811c-0.018,0.291,0.181,0.553,0.577,0.781c0.364,0.21,0.771,0.314,1.224,0.31
								c0.452-0.011,0.871-0.122,1.251-0.343c0.146-0.085,0.267-0.177,0.349-0.277c0.082-0.099,0.145-0.203,0.176-0.317
								c0.281,0.199,0.429,0.387,0.423,0.568c0.001,0.185-0.138,0.361-0.424,0.527c-0.133,0.078-0.292,0.148-0.469,0.207
								c-0.172,0.063-0.375,0.114-0.597,0.162l0.689,0.398c0.204-0.059,0.4-0.129,0.584-0.207c0.185-0.078,0.362-0.166,0.533-0.266
								c0.539-0.313,0.792-0.66,0.751-1.043C221.883,144.5,221.563,144.132,220.943,143.774"/>
							<polyline fill="#FFFFFF" points="230.401,163.154 229.673,162.733 227.097,164.23 230.819,166.379 231.771,165.826 
								230.194,164.916 231.723,164.027 230.995,163.607 229.466,164.496 228.777,164.097 230.401,163.154 							"/>
							<polyline fill="#FFFFFF" points="236.852,162.874 236.188,162.49 235.345,162.98 232.286,161.214 231.379,161.742 
								230.695,162.346 231.347,162.722 232.037,162.114 234.443,163.504 233.6,163.994 234.264,164.377 236.852,162.874 							"/>
							<polyline fill="#FFFFFF" points="238.457,161.941 237.493,161.384 236.599,161.904 237.562,162.46 238.457,161.941 							
								"/>
							<path fill="#FFFFFF" d="M238.153,159.958c-0.466-0.269-0.747-0.483-0.85-0.645c-0.103-0.163-0.053-0.303,0.15-0.42
								c0.203-0.118,0.444-0.147,0.725-0.088c0.28,0.059,0.644,0.225,1.11,0.494c0.472,0.273,0.767,0.487,0.869,0.649
								c0.103,0.162,0.052,0.302-0.15,0.42c-0.203,0.118-0.445,0.147-0.725,0.088C239.002,160.396,238.625,160.23,238.153,159.958
								 M240.253,158.745c-0.62-0.357-1.225-0.553-1.83-0.593c-0.592-0.041-1.139,0.077-1.627,0.361
								c-0.488,0.284-0.69,0.601-0.625,0.948c0.078,0.346,0.417,0.697,1.037,1.054s1.225,0.553,1.823,0.597
								c0.599,0.037,1.145-0.081,1.634-0.365c0.488-0.284,0.69-0.601,0.618-0.943C241.211,159.452,240.872,159.102,240.253,158.745"
								/>
							<path fill="#FFFFFF" d="M240.857,157.617c-0.217-0.125-0.338-0.24-0.365-0.351c-0.025-0.118,0.05-0.221,0.215-0.317
								c0.165-0.096,0.343-0.14,0.541-0.122c0.191,0.015,0.395,0.081,0.612,0.207s0.339,0.247,0.365,0.357
								c0.026,0.111-0.049,0.214-0.214,0.31c-0.165,0.096-0.343,0.14-0.541,0.129C241.278,157.815,241.074,157.742,240.857,157.617
								 M243.507,156.802c-0.601-0.346-1.2-0.538-1.792-0.571c-0.585-0.037-1.125,0.084-1.608,0.365
								c-0.438,0.254-0.666,0.527-0.676,0.815c-0.018,0.291,0.175,0.549,0.577,0.781c0.357,0.207,0.765,0.31,1.217,0.306
								c0.458-0.007,0.872-0.122,1.251-0.343c0.146-0.084,0.267-0.177,0.349-0.276c0.089-0.096,0.145-0.203,0.177-0.317
								c0.281,0.199,0.428,0.387,0.429,0.571c0.001,0.184-0.144,0.357-0.43,0.523c-0.133,0.077-0.292,0.147-0.463,0.21
								c-0.178,0.059-0.375,0.114-0.604,0.159l0.689,0.398c0.203-0.059,0.4-0.129,0.584-0.207c0.191-0.074,0.368-0.162,0.54-0.262
								c0.539-0.313,0.786-0.664,0.745-1.047C244.446,157.528,244.12,157.156,243.507,156.802"/>
							<path fill="#FFFFFF" d="M245.501,156.234c-0.268-0.154-0.415-0.298-0.454-0.438c-0.039-0.14,0.037-0.265,0.227-0.376
								c0.19-0.11,0.406-0.155,0.642-0.129c0.235,0.018,0.491,0.107,0.759,0.262c0.262,0.151,0.416,0.298,0.454,0.438
								c0.045,0.137-0.031,0.262-0.221,0.373c-0.19,0.11-0.406,0.155-0.648,0.133C246.019,156.474,245.764,156.385,245.501,156.234
								 M247.595,155.018c-0.434-0.25-0.899-0.387-1.39-0.42c-0.49-0.025-0.91,0.056-1.252,0.254
								c-0.197,0.115-0.33,0.236-0.399,0.365c-0.075,0.133-0.087,0.281-0.042,0.446l-1.5-0.866l-0.888,0.516l3.881,2.241
								l0.888-0.516l-0.402-0.232c0.28,0.022,0.535,0.015,0.764-0.03c0.222-0.041,0.438-0.114,0.635-0.229
								c0.343-0.199,0.481-0.442,0.429-0.73C248.26,155.534,248.023,155.265,247.595,155.018"/>
							<polyline fill="#FFFFFF" points="251.47,175.318 250.742,174.898 248.167,176.395 251.889,178.544 252.84,177.991 
								251.263,177.081 252.792,176.192 252.064,175.772 250.536,176.661 249.846,176.262 251.47,175.318 							"/>
							<polyline fill="#FFFFFF" points="257.921,175.039 257.257,174.655 256.414,175.146 253.355,173.379 252.448,173.907 
								251.765,174.511 252.416,174.887 253.106,174.279 255.513,175.669 254.669,176.159 255.333,176.542 257.921,175.039 							
								"/>
							<polyline fill="#FFFFFF" points="259.526,174.106 258.562,173.549 257.668,174.069 258.632,174.625 259.526,174.106 							
								"/>
							<polyline fill="#FFFFFF" points="263.072,172.045 262.408,171.662 261.564,172.152 258.506,170.386 257.599,170.914 
								256.921,171.514 257.573,171.89 258.257,171.286 260.664,172.675 259.82,173.166 260.484,173.549 263.072,172.045 							"/>
							<path fill="#FFFFFF" d="M266.358,170.136l-0.703-0.406l-1.624,0.944l0.085-0.863c0.042-0.365,0.021-0.626-0.043-0.789
								c-0.077-0.162-0.211-0.298-0.416-0.416c-0.351-0.203-0.746-0.292-1.185-0.258c-0.439,0.026-0.89,0.169-1.328,0.424
								c-0.203,0.118-0.393,0.251-0.564,0.395c-0.171,0.144-0.323,0.299-0.469,0.464l0.817,0.472
								c0.075-0.192,0.17-0.357,0.277-0.494c0.114-0.14,0.247-0.254,0.393-0.339c0.197-0.115,0.407-0.17,0.629-0.181
								c0.223-0.004,0.42,0.044,0.592,0.144c0.115,0.066,0.198,0.144,0.243,0.236c0.045,0.1,0.065,0.214,0.053,0.347l-0.151,1.478
								l0.703,0.406L266.358,170.136"/>
							<polyline fill="#FFFFFF" points="275.731,189.327 275.004,188.907 272.428,190.404 276.15,192.553 277.102,192 
								275.525,191.089 277.054,190.201 276.326,189.781 274.797,190.669 274.107,190.271 275.731,189.327 							"/>
							<polyline fill="#FFFFFF" points="282.183,189.047 281.519,188.664 280.675,189.154 277.617,187.388 276.71,187.915 
								276.026,188.52 276.677,188.896 277.367,188.288 279.774,189.677 278.931,190.167 279.595,190.551 282.183,189.047 							
								"/>
							<polyline fill="#FFFFFF" points="283.787,188.114 282.823,187.558 281.929,188.077 282.893,188.634 283.787,188.114 							
								"/>
							<polyline fill="#FFFFFF" points="287.333,186.053 286.67,185.67 285.826,186.161 282.768,184.395 281.861,184.922 
								281.183,185.523 281.834,185.899 282.518,185.294 284.925,186.684 284.082,187.174 284.746,187.557 287.333,186.053 							
								"/>
							<path fill="#FFFFFF" d="M289.604,183.514c-0.249-0.144-0.516-0.225-0.809-0.24c-0.293-0.022-0.592,0.026-0.903,0.133
								c0.165-0.162,0.24-0.317,0.214-0.465s-0.154-0.28-0.371-0.405c-0.319-0.184-0.67-0.254-1.07-0.207
								c-0.401,0.048-0.839,0.207-1.321,0.487c-0.178,0.103-0.349,0.217-0.501,0.343c-0.158,0.122-0.311,0.254-0.443,0.391
								l0.708,0.409c0.082-0.129,0.189-0.251,0.31-0.365c0.121-0.107,0.26-0.21,0.412-0.299c0.209-0.122,0.407-0.191,0.597-0.214
								c0.197-0.018,0.363,0.011,0.504,0.092c0.159,0.092,0.217,0.191,0.173,0.306c-0.044,0.107-0.183,0.232-0.424,0.373l-0.4,0.232
								l0.62,0.357l0.38-0.221c0.267-0.155,0.514-0.247,0.743-0.276c0.223-0.033,0.42,0,0.593,0.1
								c0.166,0.096,0.224,0.21,0.174,0.335c-0.044,0.129-0.196,0.269-0.45,0.417c-0.165,0.096-0.362,0.188-0.584,0.258
								c-0.222,0.078-0.463,0.144-0.73,0.195l0.741,0.428c0.241-0.073,0.476-0.158,0.699-0.25c0.222-0.092,0.425-0.195,0.615-0.306
								c0.54-0.313,0.85-0.604,0.943-0.881C290.109,183.967,289.968,183.724,289.604,183.514"/>
							<polyline fill="#FFFFFF" points="146.261,177.287 145.533,176.867 142.963,178.36 146.686,180.509 147.637,179.957 
								146.06,179.046 147.582,178.161 146.854,177.741 145.332,178.625 144.643,178.228 146.261,177.287 							"/>
							<polyline fill="#FFFFFF" points="152.711,177.007 152.047,176.624 151.205,177.114 148.146,175.348 147.239,175.875 
								146.561,176.477 147.212,176.853 147.896,176.248 150.304,177.637 149.459,178.128 150.124,178.511 152.711,177.007 							
								"/>
							<polyline fill="#FFFFFF" points="154.316,176.074 153.353,175.518 152.465,176.034 153.429,176.59 154.316,176.074 							
								"/>
							<path fill="#FFFFFF" d="M154.019,174.087c-0.466-0.269-0.747-0.483-0.85-0.646c-0.109-0.158-0.059-0.298,0.151-0.42
								c0.203-0.118,0.444-0.147,0.725-0.089c0.273,0.063,0.644,0.225,1.11,0.495c0.472,0.272,0.759,0.49,0.862,0.652
								c0.109,0.158,0.06,0.298-0.144,0.417c-0.209,0.122-0.451,0.151-0.725,0.088C154.868,174.526,154.491,174.36,154.019,174.087
								 M156.119,172.875c-0.62-0.358-1.226-0.553-1.83-0.594c-0.599-0.037-1.146,0.082-1.627,0.361
								c-0.489,0.284-0.691,0.601-0.625,0.948c0.072,0.35,0.412,0.7,1.031,1.058c0.619,0.358,1.225,0.553,1.829,0.594
								c0.598,0.037,1.146-0.081,1.634-0.365c0.481-0.28,0.684-0.597,0.618-0.943C157.077,173.583,156.738,173.232,156.119,172.875"
								/>
							<path fill="#FFFFFF" d="M156.633,171.569c-0.147-0.085-0.224-0.173-0.218-0.265c0-0.096,0.075-0.184,0.228-0.273
								c0.152-0.088,0.305-0.133,0.463-0.136c0.159,0.004,0.319,0.044,0.466,0.129c0.146,0.084,0.217,0.177,0.217,0.266
								c0.001,0.096-0.075,0.184-0.227,0.272c-0.153,0.089-0.305,0.133-0.47,0.133C156.933,171.699,156.78,171.654,156.633,171.569
								 M158.179,172.558c-0.179-0.104-0.275-0.21-0.282-0.325c-0.001-0.11,0.087-0.221,0.265-0.324
								c0.178-0.104,0.362-0.151,0.552-0.151c0.191,0,0.382,0.051,0.567,0.159c0.185,0.106,0.275,0.217,0.275,0.328
								c0.001,0.11-0.081,0.217-0.258,0.32c-0.178,0.103-0.369,0.155-0.559,0.155C158.549,172.72,158.364,172.665,158.179,172.558
								 M160.234,171.422c-0.236-0.137-0.498-0.214-0.784-0.232c-0.293-0.015-0.592,0.033-0.91,0.136
								c0.152-0.169,0.221-0.328,0.188-0.479c-0.026-0.147-0.141-0.28-0.352-0.402c-0.319-0.184-0.67-0.254-1.071-0.214
								c-0.394,0.037-0.819,0.188-1.27,0.45c-0.451,0.262-0.71,0.509-0.779,0.741c-0.062,0.229,0.053,0.435,0.373,0.62
								c0.211,0.122,0.44,0.188,0.695,0.203c0.261,0.019,0.534-0.022,0.827-0.111c-0.177,0.185-0.259,0.358-0.226,0.523
								c0.033,0.167,0.167,0.317,0.403,0.454c0.37,0.214,0.771,0.306,1.205,0.269c0.433-0.029,0.89-0.184,1.372-0.464
								c0.482-0.28,0.748-0.545,0.797-0.796C160.765,171.868,160.604,171.636,160.234,171.422"/>
							<polyline fill="#FFFFFF" points="191.374,203.335 190.653,202.918 188.083,204.412 191.806,206.561 192.757,206.008 
								191.18,205.098 192.702,204.213 191.975,203.792 190.452,204.677 189.756,204.275 191.374,203.335 							"/>
							<polyline fill="#FFFFFF" points="197.832,203.059 197.167,202.675 196.324,203.166 193.266,201.4 192.359,201.927 
								191.681,202.528 192.332,202.904 193.017,202.299 195.423,203.689 194.58,204.18 195.244,204.563 197.832,203.059 							"/>
							<polyline fill="#FFFFFF" points="199.437,202.126 198.473,201.57 197.585,202.085 198.549,202.642 199.437,202.126 							
								"/>
							<path fill="#FFFFFF" d="M199.139,200.139c-0.466-0.269-0.753-0.486-0.85-0.645c-0.109-0.159-0.059-0.299,0.15-0.42
								c0.203-0.118,0.445-0.147,0.725-0.088c0.267,0.059,0.644,0.225,1.11,0.494c0.466,0.269,0.753,0.487,0.862,0.652
								c0.11,0.158,0.06,0.298-0.143,0.417c-0.209,0.122-0.451,0.151-0.725,0.088C199.981,200.574,199.605,200.408,199.139,200.139
								 M201.239,198.926c-0.619-0.358-1.231-0.557-1.83-0.594c-0.605-0.041-1.145,0.082-1.627,0.361
								c-0.489,0.284-0.697,0.598-0.625,0.948c0.066,0.347,0.412,0.7,1.031,1.058c0.613,0.354,1.225,0.553,1.823,0.59
								c0.604,0.041,1.146-0.081,1.634-0.365c0.482-0.28,0.69-0.594,0.618-0.944C202.197,199.634,201.852,199.28,201.239,198.926"/>
							<polyline fill="#FFFFFF" points="203.126,196.291 202.59,195.981 199.799,197.603 200.501,198.008 202.284,196.972 
								203.94,199.509 204.866,198.971 203.126,196.291 							"/>
							<polyline fill="#FFFFFF" points="213.299,215.994 212.571,215.574 210.002,217.067 213.724,219.216 214.675,218.664 
								213.098,217.753 214.621,216.869 213.893,216.448 212.37,217.333 211.681,216.935 213.299,215.994 							"/>
							<polyline fill="#FFFFFF" points="219.75,215.714 219.086,215.331 218.243,215.821 215.185,214.055 214.277,214.583 
								213.599,215.183 214.25,215.56 214.935,214.955 217.342,216.344 216.498,216.835 217.162,217.218 219.75,215.714 							"/>
							<polyline fill="#FFFFFF" points="221.355,214.782 220.391,214.225 219.503,214.741 220.467,215.297 221.355,214.782 							
								"/>
							<path fill="#FFFFFF" d="M221.057,212.794c-0.466-0.269-0.747-0.482-0.85-0.646c-0.109-0.158-0.059-0.298,0.15-0.42
								c0.203-0.118,0.445-0.147,0.725-0.089c0.273,0.063,0.644,0.226,1.11,0.494c0.473,0.273,0.76,0.491,0.862,0.653
								c0.11,0.158,0.06,0.298-0.143,0.416c-0.209,0.122-0.451,0.151-0.726,0.089C221.906,213.233,221.53,213.068,221.057,212.794
								 M223.157,211.582c-0.619-0.357-1.226-0.553-1.83-0.594c-0.598-0.036-1.145,0.082-1.627,0.361
								c-0.489,0.284-0.69,0.602-0.625,0.948c0.072,0.35,0.412,0.7,1.031,1.058c0.62,0.357,1.225,0.553,1.83,0.594
								c0.598,0.037,1.145-0.081,1.634-0.365c0.482-0.28,0.684-0.598,0.618-0.943C224.115,212.29,223.776,211.939,223.157,211.582"
								/>
							<path fill="#FFFFFF" d="M225.255,211.147c-0.224-0.129-0.339-0.247-0.365-0.357c-0.026-0.111,0.043-0.218,0.208-0.313
								c0.172-0.1,0.356-0.141,0.547-0.125c0.191,0.014,0.388,0.084,0.612,0.213c0.217,0.126,0.339,0.24,0.365,0.351
								s-0.043,0.218-0.215,0.317c-0.165,0.096-0.349,0.136-0.54,0.121C225.675,211.338,225.472,211.272,225.255,211.147
								 M227.113,209.993c-0.364-0.21-0.766-0.31-1.224-0.302c-0.451,0.003-0.871,0.114-1.251,0.335
								c-0.146,0.085-0.26,0.18-0.349,0.277c-0.095,0.099-0.145,0.202-0.17,0.312c-0.288-0.195-0.435-0.383-0.436-0.568
								c-0.001-0.184,0.144-0.357,0.429-0.523c0.134-0.078,0.279-0.147,0.458-0.207c0.178-0.059,0.375-0.114,0.61-0.162l-0.69-0.398
								c-0.209,0.063-0.407,0.133-0.597,0.207c-0.184,0.077-0.362,0.166-0.533,0.266c-0.539,0.313-0.779,0.66-0.739,1.043
								c0.047,0.38,0.373,0.752,0.986,1.106c0.6,0.347,1.2,0.538,1.792,0.571c0.586,0.036,1.125-0.085,1.608-0.365
								c0.431-0.25,0.659-0.523,0.676-0.814C227.701,210.48,227.508,210.222,227.113,209.993"/>
							<polyline fill="#FFFFFF" points="228.405,224.716 227.684,224.299 225.114,225.792 228.836,227.942 229.787,227.389 
								228.21,226.479 229.733,225.594 229.005,225.173 227.482,226.058 226.787,225.657 228.405,224.716 							"/>
							<polyline fill="#FFFFFF" points="234.862,224.44 234.198,224.056 233.355,224.546 230.297,222.781 229.39,223.308 
								228.711,223.91 229.363,224.286 230.047,223.68 232.454,225.07 231.61,225.56 232.274,225.944 234.862,224.44 							"/>
							<polyline fill="#FFFFFF" points="236.467,223.507 235.503,222.951 234.615,223.466 235.579,224.023 236.467,223.507 							
								"/>
							<path fill="#FFFFFF" d="M236.169,221.52c-0.466-0.269-0.753-0.486-0.85-0.645c-0.109-0.159-0.059-0.299,0.15-0.421
								c0.203-0.118,0.445-0.147,0.725-0.088c0.267,0.059,0.644,0.225,1.11,0.494c0.466,0.269,0.753,0.486,0.863,0.652
								c0.109,0.158,0.059,0.298-0.144,0.416c-0.209,0.122-0.451,0.151-0.725,0.089C237.012,221.956,236.636,221.79,236.169,221.52
								 M238.27,220.307c-0.619-0.357-1.232-0.557-1.83-0.593c-0.604-0.041-1.145,0.081-1.627,0.361
								c-0.488,0.283-0.697,0.597-0.625,0.947c0.065,0.346,0.412,0.7,1.031,1.058c0.612,0.354,1.225,0.554,1.823,0.59
								c0.604,0.041,1.145-0.081,1.634-0.365c0.482-0.28,0.69-0.593,0.618-0.943C239.228,221.015,238.882,220.662,238.27,220.307"/>
							<path fill="#FFFFFF" d="M242.175,218.785c-0.408-0.235-0.842-0.346-1.326-0.331c-0.478,0.011-0.941,0.154-1.392,0.416
								c-0.076,0.045-0.146,0.093-0.215,0.141c-0.063,0.051-0.121,0.1-0.177,0.154l-0.575-0.332l1.611-0.936l-0.702-0.405
								l-2.372,1.378l2.094,1.209c0.107-0.151,0.215-0.28,0.335-0.387c0.12-0.114,0.247-0.21,0.386-0.291
								c0.229-0.133,0.47-0.207,0.718-0.218c0.249-0.011,0.465,0.041,0.663,0.155c0.192,0.11,0.282,0.235,0.263,0.38
								c-0.018,0.144-0.144,0.283-0.373,0.416c-0.166,0.096-0.369,0.177-0.604,0.247c-0.242,0.073-0.521,0.133-0.839,0.184
								l0.76,0.439c0.286-0.07,0.553-0.159,0.8-0.251c0.248-0.1,0.47-0.206,0.679-0.328c0.488-0.283,0.753-0.571,0.803-0.859
								C242.756,219.275,242.577,219.017,242.175,218.785"/>
							<polyline fill="#FFFFFF" points="280.542,254.82 279.813,254.399 277.244,255.892 280.967,258.042 281.918,257.489 
								280.34,256.578 281.863,255.693 281.135,255.273 279.613,256.158 278.924,255.76 280.542,254.82 							"/>
							<polyline fill="#FFFFFF" points="286.993,254.54 286.328,254.156 285.485,254.646 282.427,252.88 281.52,253.408 
								280.842,254.009 281.499,254.388 282.177,253.78 284.584,255.169 283.74,255.66 284.405,256.043 286.993,254.54 							"/>
							<polyline fill="#FFFFFF" points="288.598,253.607 287.633,253.05 286.745,253.566 287.71,254.123 288.598,253.607 							"/>
							<path fill="#FFFFFF" d="M288.3,251.62c-0.466-0.269-0.747-0.482-0.85-0.646c-0.109-0.158-0.058-0.298,0.151-0.42
								c0.203-0.118,0.444-0.147,0.725-0.089c0.274,0.063,0.644,0.226,1.11,0.495c0.473,0.272,0.76,0.49,0.862,0.652
								c0.11,0.158,0.06,0.298-0.143,0.416c-0.209,0.121-0.451,0.151-0.726,0.088C289.149,252.058,288.772,251.893,288.3,251.62
								 M290.4,250.407c-0.62-0.357-1.225-0.553-1.83-0.593c-0.599-0.037-1.139,0.084-1.621,0.364
								c-0.488,0.284-0.697,0.598-0.631,0.944c0.072,0.35,0.412,0.7,1.031,1.058c0.62,0.357,1.225,0.553,1.829,0.594
								c0.599,0.037,1.145-0.081,1.634-0.365c0.482-0.28,0.685-0.597,0.618-0.944C291.358,251.115,291.019,250.764,290.4,250.407"/>
							<path fill="#FFFFFF" d="M295.436,249.632l-0.702-0.405l-1.631,0.948l0.091-0.867c0.036-0.361,0.022-0.627-0.049-0.784
								c-0.071-0.166-0.206-0.303-0.41-0.421c-0.352-0.203-0.746-0.291-1.185-0.258c-0.445,0.029-0.884,0.173-1.328,0.432
								c-0.203,0.117-0.394,0.242-0.565,0.387c-0.17,0.144-0.328,0.302-0.467,0.464l0.817,0.472
								c0.068-0.188,0.163-0.354,0.277-0.493c0.114-0.141,0.247-0.255,0.393-0.339c0.19-0.111,0.406-0.17,0.622-0.178
								c0.229-0.007,0.427,0.041,0.599,0.141c0.115,0.066,0.192,0.147,0.237,0.239c0.052,0.096,0.071,0.21,0.059,0.343l-0.15,1.479
								l0.703,0.405L295.436,249.632"/>
							<polyline fill="#FFFFFF" points="324.276,280.071 323.549,279.651 320.979,281.144 324.701,283.293 325.652,282.741 
								324.075,281.83 325.598,280.945 324.869,280.525 323.347,281.41 322.658,281.011 324.276,280.071 							"/>
							<polyline fill="#FFFFFF" points="330.727,279.792 330.062,279.408 329.22,279.898 326.162,278.132 325.255,278.66 
								324.576,279.261 325.234,279.64 325.912,279.032 328.318,280.421 327.475,280.912 328.139,281.295 330.727,279.792 							
								"/>
							<polyline fill="#FFFFFF" points="332.332,278.859 331.368,278.302 330.48,278.818 331.443,279.375 332.332,278.859 							
								"/>
							<path fill="#FFFFFF" d="M332.034,276.872c-0.466-0.269-0.747-0.482-0.85-0.646c-0.108-0.158-0.06-0.299,0.15-0.42
								c0.203-0.118,0.445-0.147,0.725-0.089c0.274,0.063,0.645,0.226,1.11,0.494c0.473,0.272,0.76,0.491,0.862,0.653
								c0.11,0.158,0.06,0.298-0.144,0.416c-0.209,0.121-0.45,0.151-0.725,0.088C332.884,277.31,332.507,277.144,332.034,276.872
								 M334.135,275.659c-0.619-0.357-1.226-0.553-1.83-0.594c-0.599-0.036-1.14,0.085-1.621,0.365
								c-0.488,0.284-0.697,0.598-0.632,0.943c0.073,0.351,0.412,0.701,1.032,1.059c0.619,0.357,1.225,0.553,1.828,0.594
								c0.599,0.036,1.146-0.081,1.635-0.365c0.481-0.28,0.684-0.598,0.618-0.944C335.093,276.367,334.754,276.016,334.135,275.659"
								/>
							<polyline fill="#FFFFFF" points="339.259,274.833 338.595,274.45 337.751,274.94 334.693,273.174 333.792,273.698 
								333.108,274.302 333.766,274.682 334.443,274.074 336.85,275.463 336.007,275.954 336.671,276.336 339.259,274.833 							
								"/>
							<polyline fill="#FFFFFF" points="440.295,284.344 439.566,283.923 436.991,285.42 440.713,287.57 441.665,287.017 
								440.088,286.106 441.617,285.218 440.889,284.797 439.36,285.686 438.671,285.288 440.295,284.344 							"/>
							<polyline fill="#FFFFFF" points="446.746,284.064 446.082,283.68 445.238,284.17 442.18,282.405 441.272,282.932 
								440.589,283.537 441.24,283.913 441.931,283.304 444.338,284.695 443.494,285.185 444.158,285.568 446.746,284.064 							
								"/>
							<polyline fill="#FFFFFF" points="448.351,283.131 447.387,282.575 446.493,283.094 447.456,283.651 448.351,283.131 							
								"/>
							<polyline fill="#FFFFFF" points="451.896,281.071 451.232,280.687 450.389,281.177 447.33,279.412 446.424,279.939 
								445.746,280.54 446.396,280.916 447.081,280.311 449.488,281.701 448.645,282.191 449.309,282.575 451.896,281.071 							
								"/>
							<path fill="#FFFFFF" d="M454.059,278.409c-0.409-0.236-0.849-0.343-1.326-0.331c-0.478,0.018-0.941,0.154-1.392,0.416
								c-0.082,0.048-0.151,0.096-0.215,0.147c-0.063,0.044-0.12,0.1-0.171,0.151l-0.581-0.336l1.611-0.937l-0.703-0.405
								l-2.372,1.379l2.094,1.209c0.101-0.147,0.215-0.272,0.335-0.387c0.114-0.111,0.248-0.203,0.388-0.284
								c0.229-0.133,0.463-0.21,0.711-0.222c0.248-0.011,0.471,0.037,0.669,0.151c0.192,0.111,0.275,0.24,0.257,0.384
								c-0.018,0.144-0.145,0.283-0.373,0.416c-0.159,0.093-0.355,0.178-0.604,0.247c-0.235,0.07-0.508,0.134-0.832,0.182
								l0.759,0.438c0.286-0.07,0.554-0.151,0.802-0.251c0.241-0.096,0.469-0.207,0.678-0.328c0.482-0.28,0.755-0.563,0.798-0.855
								C454.633,278.903,454.461,278.641,454.059,278.409"/>
							<polyline fill="#FFFFFF" points="395.654,266.742 394.927,266.322 392.352,267.818 396.08,269.971 397.032,269.417 
								395.448,268.503 396.977,267.615 396.256,267.199 394.727,268.087 394.031,267.685 395.654,266.742 							"/>
							<polyline fill="#FFFFFF" points="402.113,266.465 401.448,266.082 400.604,266.572 397.54,264.802 396.634,265.33 
								395.949,265.934 396.607,266.314 397.297,265.706 399.704,267.095 398.86,267.585 399.524,267.969 402.113,266.465 							
								"/>
							<polyline fill="#FFFFFF" points="403.718,265.533 402.747,264.972 401.853,265.492 402.823,266.052 403.718,265.533 							
								"/>
							<polyline fill="#FFFFFF" points="407.264,263.471 406.6,263.088 405.755,263.579 402.691,261.809 401.784,262.336 
								401.106,262.937 401.764,263.317 402.448,262.712 404.854,264.102 404.011,264.592 404.675,264.976 407.264,263.471 							
								"/>
							<path fill="#FFFFFF" d="M406.905,262.082l-0.512-1.508l1.559,0.899L406.905,262.082 M410.075,261.046l-0.696-0.402
								l-0.526,0.306l-2.349-1.356l-1.06,0.616l0.737,2.146l0.824,0.476l1.643-0.955l0.683,0.395l0.901-0.523l-0.684-0.395
								L410.075,261.046"/>
							<polyline fill="#CFD0D2" points="446.071,304.383 431.679,312.748 446.111,312.748 446.071,304.383 							"/>
							<path fill="#FFFFFF" d="M129.895,131.262l2.23-0.63l-1.087,1.29L129.895,131.262 M133.74,130.433l-1.283-0.741l-5.713,1.523
								l1.085,0.626l1.023-0.284l1.686,0.973l-0.493,0.59l1.085,0.627L133.74,130.433"/>
							<polyline fill="#FFFFFF" points="134.999,133.607 133.237,132.59 132.425,133.062 134.188,134.079 134.999,133.607 							
								"/>
							<path fill="#FFFFFF" d="M135.308,135.314l1.091-0.634l0.639,0.369c0.217,0.125,0.326,0.247,0.345,0.361
								c0.02,0.114-0.056,0.225-0.24,0.332c-0.184,0.107-0.375,0.151-0.579,0.144c-0.197-0.011-0.401-0.077-0.619-0.203
								L135.308,135.314 M137.128,134.256l0.882-0.512l0.6,0.347c0.166,0.096,0.262,0.195,0.269,0.288
								c0.014,0.095-0.05,0.184-0.196,0.269c-0.146,0.084-0.298,0.121-0.464,0.114c-0.159-0.004-0.325-0.063-0.491-0.159
								L137.128,134.256 M139.282,133.633l-1.622-0.936l-4.161,2.418l1.794,1.036c0.556,0.321,1.066,0.505,1.537,0.549
								c0.471,0.044,0.903-0.052,1.309-0.288c0.26-0.151,0.419-0.317,0.469-0.495c0.056-0.18-0.002-0.354-0.163-0.527
								c0.242,0.066,0.491,0.085,0.732,0.056c0.235-0.026,0.452-0.1,0.655-0.218c0.387-0.225,0.538-0.46,0.447-0.711
								C140.196,134.263,139.863,133.968,139.282,133.633"/>
							<path fill="#FFFFFF" d="M139.382,137.843c-0.146-0.085-0.23-0.177-0.243-0.266c-0.014-0.096,0.044-0.173,0.171-0.247
								c0.14-0.082,0.292-0.111,0.471-0.089c0.171,0.019,0.369,0.089,0.579,0.21l0.518,0.298l-0.114,0.066
								c-0.203,0.118-0.438,0.181-0.699,0.185C139.803,138.005,139.574,137.954,139.382,137.843 M142.085,136.368
								c-0.217-0.125-0.453-0.24-0.695-0.35c-0.243-0.111-0.498-0.214-0.772-0.306l-0.755,0.439
								c0.242,0.044,0.478,0.106,0.708,0.188c0.229,0.082,0.447,0.185,0.664,0.31c0.268,0.155,0.421,0.288,0.479,0.402
								c0.045,0.114-0.005,0.217-0.164,0.31l-0.076,0.044l-0.587-0.339c-0.542-0.313-1.034-0.494-1.454-0.539
								c-0.426-0.047-0.821,0.033-1.189,0.248c-0.298,0.173-0.443,0.375-0.429,0.604c0.021,0.225,0.187,0.431,0.513,0.619
								c0.243,0.14,0.491,0.232,0.74,0.28c0.255,0.044,0.547,0.051,0.865,0.022l-0.457,0.266l1.016,0.586l1.776-1.032
								c0.501-0.291,0.735-0.575,0.708-0.848C142.94,136.995,142.646,136.693,142.085,136.368"/>
							<path fill="#FFFFFF" d="M147.385,139.516l-1.002-0.579l-1.542,0.896c-0.285,0.166-0.571,0.258-0.851,0.28
								c-0.28,0.03-0.522-0.022-0.733-0.143c-0.083-0.048-0.141-0.104-0.179-0.163c-0.026-0.059-0.032-0.122-0.007-0.181
								c0.019-0.048,0.07-0.107,0.171-0.181c0.095-0.07,0.272-0.181,0.52-0.325c0.089-0.051,0.26-0.151,0.52-0.294
								c0.254-0.147,0.469-0.273,0.635-0.369l0.317-0.185l-1.009-0.583l-1.909,1.11c-0.419,0.244-0.647,0.487-0.677,0.726
								c-0.037,0.236,0.136,0.461,0.494,0.667c0.204,0.118,0.44,0.203,0.688,0.25c0.261,0.048,0.554,0.062,0.891,0.044l-0.451,0.262
								l1.002,0.579L147.385,139.516"/>
						</g>
					</g>
				</g>
			</g>
		</g>
	</g>
</g>
<g>
	<g>
		<g enable-background="new    ">
			<defs>
				<polygon id="SVGID_3_" enable-background="new    " points="411.386,297.02 418.211,293.053 425.081,297.019 418.256,300.986 
									"/>
			</defs>
			<clipPath id="SVGID_4_">
				<use xlink:href="#SVGID_3_"  overflow="visible"/>
			</clipPath>
			<g clip-path="url(#SVGID_4_)">
				<g>
					<g>
						<g>
							<polyline fill="#FFFFFF" points="419.941,294.052 418.211,293.053 411.386,297.02 414.808,298.996 418.256,300.986 
								419.981,299.984 418.27,298.996 419.97,298.007 418.253,297.016 419.952,296.028 418.242,295.041 419.941,294.052 							"/>
						</g>
					</g>
				</g>
			</g>
		</g>
	</g>
</g>
<g>
	<g>
		<g enable-background="new    ">
			<defs>
				<polygon id="SVGID_5_" enable-background="new    " points="242.834,200.431 249.66,196.464 256.53,200.431 249.705,204.397 
									"/>
			</defs>
			<clipPath id="SVGID_6_">
				<use xlink:href="#SVGID_5_"  overflow="visible"/>
			</clipPath>
			<g clip-path="url(#SVGID_6_)">
				<g>
					<g>
						<g>
							<polyline fill="#FFFFFF" points="251.39,197.463 249.66,196.464 242.834,200.431 246.256,202.407 249.705,204.397 
								251.43,203.395 249.718,202.407 251.418,201.418 249.702,200.427 251.401,199.439 249.69,198.451 251.39,197.463 							"/>
						</g>
					</g>
				</g>
			</g>
		</g>
	</g>
</g>
<g>
	<polygon fill="#EC7404" stroke="#FFFFFF" stroke-width="0.5" points="312.837,-23.968 316.249,-23.968 314.68,-12.192 	"/>
	<circle fill="#EC7404" cx="314.543" cy="-33" r="9.731"/>
	<polygon fill="none" stroke="#FFFFFF" stroke-width="0.5" points="318.413,-35.826 314.543,-40.501 310.674,-35.826 
		312.627,-35.826 312.627,-30.704 316.46,-30.704 316.46,-35.826 	"/>
	<text transform="matrix(1 0 0 1 312.876 -25.1196)" fill="#FFFFFF" font-family="'DejaVuSansCondensed-Bold'" font-size="5"></text>
</g>
<g>
	<polygon fill="#EC7404" stroke="#FFFFFF" stroke-width="0.5" points="338.409,-23.968 341.822,-23.968 340.252,-12.192 	"/>
	<circle fill="#EC7404" cx="340.116" cy="-33" r="9.731"/>
	<polygon fill="none" stroke="#FFFFFF" stroke-width="0.5" points="343.985,-35.826 340.115,-40.501 336.246,-35.826 
		338.199,-35.826 338.199,-30.704 342.032,-30.704 342.032,-35.826 	"/>
	<rect x="338.429" y="-29.443" fill="none" width="8" height="3.833"/>
	<text transform="matrix(1 0 0 1 338.4297 -25.6436)" fill="#FFFFFF" font-family="'DejaVuSansCondensed-Bold'" font-size="5">P</text>
</g>
<g>
	<polygon fill="#EC7404" stroke="#FFFFFF" stroke-width="0.5" points="363.981,-23.968 367.394,-23.968 365.824,-12.192 	"/>
	<circle fill="#EC7404" cx="365.688" cy="-33" r="9.731"/>
	<polygon fill="none" stroke="#FFFFFF" stroke-width="0.5" points="369.558,-35.826 365.688,-40.501 361.818,-35.826 
		363.771,-35.826 363.771,-30.704 367.604,-30.704 367.604,-35.826 	"/>
	<rect x="360.819" y="-29.442" fill="none" width="8" height="3.833"/>
	<text transform="matrix(1 0 0 1 360.8203 -25.6436)" fill="#FFFFFF" font-family="'DejaVuSansCondensed-Bold'" font-size="5"> EC</text>
</g>
<g>
	<polygon fill="#EC7404" stroke="#FFFFFF" stroke-width="0.5" points="415.003,-23.991 418.417,-23.991 416.847,-12.215 	"/>
	<g>
		<circle fill="#EC7404" cx="416.71" cy="-33" r="9.731"/>
		<g>
			<g>
				<path fill="none" stroke="#FFFFFF" stroke-width="0.5" d="M421.197-29.081c0,0.312-0.255,0.567-0.567,0.567h-7.839
					c-0.312,0-0.567-0.255-0.567-0.567v-7.84c0-0.312,0.255-0.567,0.567-0.567h7.839c0.312,0,0.567,0.255,0.567,0.567V-29.081z"/>
			</g>
			<polygon fill="#FFFFFF" points="413.152,-32.975 415.846,-29.744 420.287,-36.475 415.608,-31.057 			"/>
		</g>
	</g>
</g>
<g>
	<polygon fill="#EC7404" stroke="#FFFFFF" stroke-width="0.5" points="440.863,-23.991 444.277,-23.991 442.707,-12.215 	"/>
	<circle fill="#EC7404" cx="442.571" cy="-33" r="9.731"/>
	<g>
		<g>
			<path fill="#EC7404" d="M446.946-31.146c0,0.312-0.255,0.567-0.567,0.567h-9.54c-0.312,0-0.567-0.255-0.567-0.567V-36.6
				c0-0.312,0.255-0.567,0.567-0.567h9.54c0.312,0,0.567,0.255,0.567,0.567V-31.146z"/>
			<path fill="none" stroke="#FFFFFF" stroke-width="0.5" d="M446.946-31.146c0,0.312-0.255,0.567-0.567,0.567h-9.54
				c-0.312,0-0.567-0.255-0.567-0.567V-36.6c0-0.312,0.255-0.567,0.567-0.567h9.54c0.312,0,0.567,0.255,0.567,0.567V-31.146z"/>
		</g>
		<g>
			<path fill="#EC7404" d="M448.87-29.223c0,0.312-0.255,0.567-0.567,0.567h-9.54c-0.312,0-0.567-0.255-0.567-0.567v-5.454
				c0-0.312,0.255-0.567,0.567-0.567h9.54c0.312,0,0.567,0.255,0.567,0.567V-29.223z"/>
			<path fill="none" stroke="#FFFFFF" stroke-width="0.5" d="M448.87-29.223c0,0.312-0.255,0.567-0.567,0.567h-9.54
				c-0.312,0-0.567-0.255-0.567-0.567v-5.454c0-0.312,0.255-0.567,0.567-0.567h9.54c0.312,0,0.567,0.255,0.567,0.567V-29.223z"/>
		</g>
	</g>
</g>
<g>
	<polygon fill="#EC7404" stroke="#FFFFFF" stroke-width="0.5" points="287.264,-23.968 290.677,-23.968 289.107,-12.192 	"/>
	<circle fill="#EC7404" cx="288.97" cy="-33" r="9.731"/>
	<g>
		<path fill="#FFFFFF" d="M285.842-31.311h6.294v-0.557h-6.294V-31.311z M285.842-29.615h6.294v-0.557h-6.294V-29.615z
			 M285.842-34.658h6.294v-0.558h-6.294V-34.658z M285.842-32.993h6.294v-0.557h-6.294V-32.993z M292.842-27.685h-7.744v-11.183
			h5.521v2.222h2.223V-27.685z M284.54-27.125 M291.178-38.797l1.594,1.592h-1.594V-38.797z M291.336-39.427h-6.796v12.301h8.86
			v-10.239L291.336-39.427z"/>
	</g>
</g>
<g>
	<polygon fill="#EC7404" stroke="#FFFFFF" stroke-width="0.5" points="261.69,-23.968 265.104,-23.968 263.533,-12.192 	"/>
	<circle fill="#EC7404" cx="263.397" cy="-33.001" r="9.731"/>
	<g>
		<g>
			<path fill="#FFFFFF" d="M268.454-33.723c-0.002-0.272-0.025-0.522-0.083-0.758c-0.046-0.183-0.114-0.358-0.217-0.517
				c-0.152-0.24-0.387-0.429-0.656-0.535c-0.269-0.108-0.564-0.149-0.898-0.149c-0.295,0-0.563,0.033-0.811,0.114
				c-0.185,0.062-0.357,0.153-0.505,0.277c-0.223,0.186-0.377,0.438-0.463,0.709c-0.086,0.264-0.118,0.55-0.119,0.862l-0.569,4.806
				h1.198v2.099h0.97v-2.099h0.6v2.099h0.97v-2.099h1.204L268.454-33.723z"/>
			<path fill="#FFFFFF" d="M260.08-36.128c0.872,0,1.576-0.707,1.576-1.577c0-0.871-0.704-1.577-1.576-1.577
				c-0.87,0-1.575,0.706-1.576,1.577C258.505-36.834,259.21-36.128,260.08-36.128 M260.08-35.59c-1.305,0.001-2.36,1.057-2.36,2.361
				v2.469h1.092v3.943h0.969v-3.943h0.6v3.943h0.97v-3.943h1.091v-2.469C262.44-34.534,261.385-35.589,260.08-35.59"/>
		</g>
		<circle fill="#FFFFFF" cx="266.494" cy="-37.707" r="1.584"/>
	</g>
</g>
<g>
	<polygon fill="#EC7404" stroke="#FFFFFF" stroke-width="0.5" points="389.554,-23.968 392.967,-23.968 391.397,-12.192 	"/>
	<circle fill="#EC7404" cx="391.26" cy="-33" r="9.731"/>
	<text transform="matrix(1 0 0 1 389.501 -25.1196)" fill="#FFFFFF" font-family="'DejaVuSansCondensed-Bold'" font-size="5"></text>
	<polygon fill="none" stroke="#FFFFFF" stroke-width="0.5" points="387.342,-35.379 391.212,-30.704 395.081,-35.379 
		393.128,-35.379 393.128,-40.501 389.295,-40.501 389.295,-35.379 	"/>
</g>
<g>
	<polygon fill="#EC7404" stroke="#FFFFFF" stroke-width="0.5" points="219.081,167.22 222.494,167.22 220.923,178.996 	"/>
	<circle fill="#EC7404" cx="220.788" cy="158.187" r="9.731"/>
	<g>
		<g>
			<path fill="#FFFFFF" d="M225.844,157.465c-0.002-0.272-0.025-0.522-0.083-0.758c-0.046-0.183-0.114-0.358-0.217-0.517
				c-0.152-0.24-0.387-0.429-0.656-0.535c-0.269-0.108-0.564-0.149-0.898-0.149c-0.295,0-0.563,0.033-0.811,0.114
				c-0.185,0.062-0.357,0.153-0.505,0.277c-0.223,0.186-0.377,0.438-0.463,0.709c-0.086,0.264-0.118,0.55-0.119,0.862l-0.569,4.806
				h1.198v2.099h0.97v-2.099h0.6v2.099h0.97v-2.099h1.204L225.844,157.465z"/>
			<path fill="#FFFFFF" d="M217.47,155.06c0.872,0,1.576-0.707,1.576-1.577c0-0.871-0.704-1.577-1.576-1.577
				c-0.87,0-1.575,0.706-1.576,1.577C215.895,154.354,216.6,155.06,217.47,155.06 M217.47,155.598
				c-1.305,0.001-2.36,1.057-2.36,2.361v2.469h1.092v3.943h0.969v-3.943h0.6v3.943h0.97v-3.943h1.091v-2.469
				C219.831,156.654,218.775,155.599,217.47,155.598"/>
		</g>
		<circle fill="#FFFFFF" cx="223.884" cy="153.481" r="1.584"/>
	</g>
</g>
<g>
	<polygon fill="#EC7404" points="298.088,213.576 301.502,213.576 299.932,225.352 	"/>
	<circle fill="#EC7404" cx="299.795" cy="204.566" r="9.731"/>
	<g>
		<g>
			<path fill="none" stroke="#FFFFFF" stroke-width="0.5" d="M304.282,210.361c0,0.312-0.255,0.567-0.566,0.567h-7.84
				c-0.312,0-0.567-0.256-0.567-0.567v-11.507c0-0.312,0.255-0.566,0.567-0.566h7.84c0.312,0,0.566,0.254,0.566,0.566V210.361z"/>
		</g>
	</g>
	<path fill="#FFFFFF" d="M299.795,202.938c0.743,0,1.342-0.602,1.342-1.342c0-0.742-0.599-1.342-1.342-1.342
		c-0.74,0-1.34,0.6-1.341,1.342C298.455,202.336,299.055,202.938,299.795,202.938 M299.795,203.396
		c-1.11,0.001-2.009,0.899-2.009,2.01v2.102h0.93v3.356h0.824v-3.356h0.511v3.356h0.825v-3.356h0.929v-2.102
		C301.805,204.295,300.906,203.397,299.795,203.396"/>
</g>
<g>
	<g>
		<polygon fill="#EC7404" stroke="#FFFFFF" stroke-width="0.5" points="466.538,-24.126 469.95,-24.086 468.243,-12.329 		"/>
		<circle fill="#EC7404" cx="468.356" cy="-33.129" r="9.731"/>
	</g>
	<path fill="#FFFFFF" d="M468.662-30.169c-0.174,1.439-1.402,2.558-2.887,2.558c-1.605,0-2.91-1.305-2.91-2.91
		c0-0.9,0.412-1.709,1.057-2.243v-1.217c-1.232,0.663-2.072,1.965-2.072,3.46c0,2.164,1.762,3.926,3.926,3.926
		c1.641,0,3.051-1.014,3.635-2.449L468.662-30.169z"/>
	<path fill="#FFFFFF" d="M472.336-29.445l-0.811,0.56l-2.08-3.488l-3.998,0.025v-0.829h2.115v-0.889h-2.115v-2.055
		c0.494-0.188,0.846-0.664,0.846-1.225c0-0.725-0.588-1.313-1.311-1.313c-0.725,0-1.314,0.589-1.314,1.313
		c0,0.576,0.373,1.064,0.889,1.24v4.621l4.395,0.005l2.275,3.813l1.594-1.033L472.336-29.445z"/>
	<polygon fill="#FFFFFF" points="467.42,-38.089 468.205,-38.089 468.752,-35.783 469.297,-38.089 470.084,-38.089 470.631,-35.783 
		471.176,-38.089 471.955,-38.089 471.207,-34.916 470.264,-34.916 469.688,-37.328 469.119,-34.916 468.174,-34.916 	"/>
	<path fill="#FFFFFF" d="M474.643-35.09c-0.148,0.077-0.307,0.135-0.471,0.176c-0.162,0.04-0.332,0.06-0.51,0.06
		c-0.527,0-0.945-0.148-1.254-0.443s-0.463-0.695-0.463-1.201c0-0.507,0.154-0.909,0.463-1.204s0.727-0.442,1.254-0.442
		c0.178,0,0.348,0.02,0.51,0.059c0.164,0.039,0.322,0.1,0.471,0.178v0.655c-0.15-0.104-0.301-0.179-0.447-0.228
		c-0.148-0.048-0.303-0.072-0.465-0.072c-0.293,0-0.521,0.094-0.689,0.281s-0.252,0.444-0.252,0.773
		c0,0.327,0.084,0.585,0.252,0.771s0.396,0.279,0.689,0.279c0.162,0,0.316-0.023,0.465-0.072c0.146-0.048,0.297-0.123,0.447-0.227
		V-35.09z"/>
</g>
<g>
	<g>
		<polygon fill="#EC7404" stroke="#FFFFFF" stroke-width="0.5" points="270.854,222.934 274.267,222.974 272.56,234.731 		"/>
		<circle fill="#EC7404" cx="272.673" cy="213.931" r="9.731"/>
	</g>
	<path fill="#FFFFFF" d="M272.979,216.891c-0.174,1.439-1.402,2.558-2.887,2.558c-1.605,0-2.91-1.305-2.91-2.91
		c0-0.9,0.412-1.709,1.057-2.243v-1.217c-1.232,0.663-2.072,1.965-2.072,3.46c0,2.164,1.762,3.926,3.926,3.926
		c1.641,0,3.051-1.014,3.635-2.449L272.979,216.891z"/>
	<path fill="#FFFFFF" d="M276.652,217.615l-0.811,0.56l-2.08-3.488l-3.998,0.025v-0.829h2.115v-0.889h-2.115v-2.055
		c0.494-0.188,0.846-0.664,0.846-1.225c0-0.725-0.588-1.313-1.311-1.313c-0.725,0-1.314,0.589-1.314,1.313
		c0,0.576,0.373,1.064,0.889,1.24v4.621l4.395,0.005l2.275,3.813l1.594-1.033L276.652,217.615z"/>
	<polygon fill="#FFFFFF" points="271.736,208.971 272.521,208.971 273.068,211.277 273.613,208.971 274.4,208.971 274.947,211.277 
		275.492,208.971 276.271,208.971 275.523,212.144 274.58,212.144 274.004,209.732 273.436,212.144 272.49,212.144 	"/>
	<path fill="#FFFFFF" d="M278.959,211.97c-0.148,0.077-0.307,0.135-0.471,0.176c-0.162,0.04-0.332,0.06-0.51,0.06
		c-0.527,0-0.945-0.148-1.254-0.443s-0.463-0.695-0.463-1.201c0-0.507,0.154-0.909,0.463-1.204s0.727-0.442,1.254-0.442
		c0.178,0,0.348,0.02,0.51,0.059c0.164,0.039,0.322,0.1,0.471,0.178v0.655c-0.15-0.104-0.301-0.179-0.447-0.228
		c-0.148-0.048-0.303-0.072-0.465-0.072c-0.293,0-0.521,0.094-0.689,0.281s-0.252,0.444-0.252,0.773
		c0,0.327,0.084,0.585,0.252,0.771s0.396,0.279,0.689,0.279c0.162,0,0.316-0.023,0.465-0.072c0.146-0.048,0.297-0.123,0.447-0.227
		V211.97z"/>
</g>
</svg>
