<?xml version="1.0" encoding="utf-8"?>
<!-- Generator: Adobe Illustrator 16.0.0, SVG Export Plug-In . SVG Version: 6.00 Build 0)  -->
<!DOCTYPE svg PUBLIC "-//W3C//DTD SVG 1.1//EN" "http://www.w3.org/Graphics/SVG/1.1/DTD/svg11.dtd">
<svg version="1.1" xmlns="http://www.w3.org/2000/svg" xmlns:xlink="http://www.w3.org/1999/xlink" x="0px" y="0px"
	 width="595.275px" height="419.527px" viewBox="0 0 595.275 419.527" enable-background="new 0 0 595.275 419.527"
	 xml:space="preserve">
<g id="Ebene_3">
</g>
<g id="Ebene_1">
	<g>
		<g>
			<g enable-background="new    ">
				<defs>
					<polygon id="SVGID_1_" enable-background="new    " points="215.286,169.396 324.935,105.673 435.765,169.665 326.116,233.388 
											"/>
				</defs>
				<clipPath id="SVGID_2_">
					<use xlink:href="#SVGID_1_"  overflow="visible"/>
				</clipPath>
				<g clip-path="url(#SVGID_2_)">
					<g>
						<g>
							<g>
								<path fill="#EC7405" d="M342.029,128.691l-1.558-0.899l0.512,1.507L342.029,128.691 M346.955,125.259
									c-0.466-0.269-0.836-0.431-1.11-0.494c-0.28-0.059-0.516-0.025-0.719,0.092c-0.202,0.118-0.259,0.254-0.156,0.417
									s0.384,0.376,0.851,0.645c0.473,0.273,0.849,0.439,1.129,0.498c0.28,0.059,0.522,0.03,0.725-0.088
									c0.203-0.118,0.253-0.258,0.15-0.42C347.715,125.749,347.428,125.532,346.955,125.259 M350.924,123.744
									c-0.217-0.125-0.427-0.195-0.618-0.21c-0.19-0.015-0.369,0.029-0.54,0.129c-0.165,0.096-0.24,0.199-0.215,0.31
									c0.026,0.111,0.154,0.229,0.371,0.354s0.421,0.199,0.612,0.214c0.19,0.015,0.369-0.03,0.534-0.125
									c0.171-0.1,0.246-0.203,0.221-0.313C351.263,123.991,351.142,123.869,350.924,123.744 M335.132,129.978l0.958-0.557
									l3.729,2.153l-0.958,0.557l-1.584-0.915l-1.402,0.815l1.584,0.914l-0.957,0.557l-3.729-2.153l0.958-0.557l1.424,0.822
									l1.401-0.814L335.132,129.978 M340.266,129.568l-0.744-2.142l1.065-0.619l2.35,1.356l0.527-0.306l0.695,0.402l-0.526,0.306
									l0.684,0.395l-0.907,0.527l-0.684-0.395l-1.637,0.951L340.266,129.568 M344.367,127.806l0.894-0.52l0.971,0.56l-0.895,0.52
									L344.367,127.806 M344.881,126.479c-0.619-0.357-0.971-0.708-1.036-1.054c-0.072-0.351,0.136-0.664,0.624-0.947
									c0.482-0.28,1.022-0.402,1.627-0.361c0.599,0.037,1.211,0.236,1.83,0.593c0.613,0.354,0.959,0.708,1.024,1.054
									c0.072,0.351-0.137,0.664-0.619,0.944c-0.488,0.284-1.028,0.406-1.633,0.365C346.1,127.036,345.494,126.833,344.881,126.479
									 M348.78,123.799c0.024-0.11,0.087-0.214,0.17-0.313c0.089-0.096,0.209-0.188,0.354-0.272
									c0.381-0.221,0.794-0.335,1.252-0.343c0.452-0.004,0.866,0.096,1.224,0.302c0.402,0.232,0.588,0.494,0.564,0.782
									c-0.018,0.291-0.239,0.56-0.677,0.814c-0.482,0.28-1.021,0.402-1.607,0.365c-0.592-0.033-1.186-0.229-1.785-0.575
									c-0.613-0.354-0.946-0.723-0.993-1.103c-0.04-0.383,0.212-0.73,0.745-1.04c0.172-0.1,0.349-0.188,0.533-0.265
									c0.19-0.081,0.388-0.151,0.598-0.207l0.683,0.394c-0.223,0.048-0.432,0.104-0.61,0.163
									c-0.165,0.059-0.323,0.129-0.456,0.207c-0.279,0.162-0.425,0.335-0.424,0.52
									C348.352,123.412,348.492,123.604,348.78,123.799 M357.234,124.33l-0.128-0.074l-8.39-4.844l-0.127-0.073l-0.273,0.158
									l-20.305,11.8l-0.272,0.159l0.128,0.073l8.389,4.844l0.128,0.074l0.273-0.159l20.305-11.8L357.234,124.33"/>
								<path fill="#EC7405" d="M309.892,114.955l15.229-8.851l14.908,8.607l-15.229,8.851L309.892,114.955 M340.57,114.708
									l-0.269-0.155l-14.908-8.608l-0.274-0.158l-0.272,0.158l-15.229,8.851l-0.273,0.159l0.274,0.158l14.908,8.608l0.269,0.155
									l0.272-0.159l15.23-8.851L340.57,114.708"/>
								<polyline fill="#EC7405" points="340.029,114.712 325.121,106.104 309.892,114.955 324.8,123.563 340.029,114.712 								
									"/>
								<path fill="#BDD4E4" d="M364.005,197.862l-2.602,0.292l1.054,0.608L364.005,197.862 M363.028,200.679l0.964-0.561
									l0.894,0.516l-0.964,0.56L363.028,200.679 M357.382,194.766l1.417,0.818l1.414-0.822l0.965,0.557l-3.704,2.153l-0.965-0.557
									l1.573-0.914l-1.418-0.818l-1.572,0.914l-0.958-0.553l3.704-2.153l0.958,0.553L357.382,194.766 M360.118,198.213
									l0.818-0.476l3.695-0.424l1.066,0.616l-2.335,1.356l0.536,0.31l-0.69,0.402l-0.537-0.31l-0.678,0.395l-0.907-0.524
									l0.679-0.394L360.118,198.213 M367.638,200.012l0.646-0.376l1.053,0.395l0.913,0.527l-3.045,1.769l0.85,0.49l-0.66,0.383
									l-2.604-1.504l0.659-0.383l0.85,0.49l2.392-1.39L367.638,200.012 M369.65,202.629l2.087-1.213l2.382,1.375l-0.704,0.409
									l-1.622-0.937l-0.57,0.332c0.096,0.033,0.179,0.066,0.268,0.103c0.09,0.038,0.172,0.078,0.249,0.122
									c0.453,0.261,0.696,0.534,0.717,0.811c0.033,0.276-0.155,0.534-0.555,0.767c-0.4,0.232-0.857,0.335-1.354,0.306
									c-0.502-0.026-1-0.181-1.492-0.464c-0.21-0.122-0.396-0.251-0.562-0.398c-0.166-0.14-0.308-0.295-0.429-0.461l0.748-0.435
									c0.084,0.181,0.187,0.343,0.314,0.482c0.121,0.137,0.262,0.254,0.429,0.351c0.229,0.133,0.472,0.207,0.721,0.218
									c0.248,0.011,0.464-0.041,0.66-0.155c0.19-0.11,0.285-0.24,0.26-0.379c-0.021-0.144-0.148-0.284-0.379-0.417
									c-0.141-0.082-0.307-0.155-0.504-0.225C370.129,202.751,369.905,202.688,369.65,202.629 M384.023,199.735l-0.269-0.155
									l-20.06-11.582l-0.275-0.159l-0.152,0.088l-17.855,10.377l-0.159,0.092l0.275,0.159l20.06,11.583l0.269,0.155l0.158-0.092
									l17.856-10.377L384.023,199.735"/>
								<path fill="#BDD4E4" d="M384.829,185.76l-2.601,0.291l1.053,0.608L384.829,185.76 M393.11,190.541l-2.602,0.291l1.054,0.608
									L393.11,190.541 M383.859,188.573l0.957-0.557l0.895,0.516l-0.958,0.557L383.859,188.573 M378.213,182.66l1.417,0.818
									l1.408-0.818l0.965,0.557l-3.698,2.149l-0.965-0.557l1.566-0.91l-1.417-0.818l-1.566,0.91l-0.958-0.553l3.698-2.149
									l0.958,0.553L378.213,182.66 M380.943,186.11l0.817-0.475l3.696-0.424l1.066,0.615l-2.335,1.357l0.536,0.31l-0.691,0.402
									l-0.536-0.31l-0.672,0.391l-0.907-0.523l0.673-0.391L380.943,186.11 M388.462,187.909l0.653-0.38l1.047,0.398l0.913,0.527
									l-3.038,1.766l0.849,0.49l-0.66,0.384l-2.604-1.504l0.659-0.383l0.85,0.491l2.392-1.39L388.462,187.909 M389.224,190.891
									l0.818-0.475l3.695-0.424l1.072,0.619l-2.334,1.356l0.53,0.306l-0.691,0.402l-0.53-0.306l-0.673,0.391l-0.913-0.527
									l0.673-0.391L389.224,190.891 M405.171,187.445l-0.268-0.155l-20.061-11.583l-0.274-0.159l-0.14,0.081l-18.751,10.896
									l-0.14,0.082l0.275,0.159l20.06,11.583l0.269,0.155l0.14-0.081l18.75-10.897L405.171,187.445"/>
								<path fill="#CFD0D2" d="M229.454,170.83c-0.172-0.1-0.357-0.155-0.567-0.158c-0.204-0.008-0.413,0.033-0.623,0.125
									l1.162,0.671c0.171-0.1,0.253-0.206,0.259-0.328C229.69,171.025,229.613,170.922,229.454,170.83 M238.813,176.234
									c-0.172-0.1-0.358-0.155-0.567-0.159c-0.203-0.007-0.414,0.033-0.623,0.125l1.162,0.671c0.172-0.1,0.253-0.207,0.266-0.324
									C239.05,176.43,238.973,176.326,238.813,176.234 M248.122,181.609c-0.172-0.099-0.357-0.154-0.567-0.158
									c-0.203-0.007-0.413,0.033-0.623,0.125l1.162,0.671c0.171-0.1,0.253-0.207,0.259-0.329
									C248.358,181.805,248.282,181.701,248.122,181.609 M226.602,168.309l-0.409-0.236l-0.946,0.549l0.409,0.236
									c0.198,0.115,0.383,0.177,0.536,0.184c0.166,0.007,0.331-0.037,0.502-0.136s0.247-0.196,0.227-0.288
									C226.915,168.526,226.799,168.423,226.602,168.309 M243.826,179.254l0.635-0.369l2.433,1.405l-0.622,0.361l-2.991,0.037
									l1.469,0.848l-0.635,0.369l-2.496-1.441l0.622-0.361l2.991-0.037L243.826,179.254 M257.46,188.912
									c0.192,0.111,0.402,0.152,0.65,0.133c0.255-0.022,0.503-0.107,0.756-0.254l1.37-0.796l0.894,0.516l-2.779,1.615
									l-0.894-0.516l0.4-0.232c-0.293,0.014-0.555,0.003-0.783-0.041c-0.224-0.04-0.427-0.114-0.613-0.221
									c-0.318-0.184-0.473-0.383-0.442-0.593c0.024-0.214,0.227-0.428,0.601-0.646l1.7-0.988l0.9,0.52l-0.279,0.163
									c-0.152,0.088-0.342,0.199-0.571,0.324c-0.229,0.133-0.38,0.221-0.456,0.265c-0.223,0.129-0.381,0.229-0.463,0.292
									c-0.088,0.066-0.139,0.118-0.158,0.158l0.007,0.159C257.333,188.824,257.384,188.868,257.46,188.912 M227.183,172.209
									c-0.504-0.292-0.767-0.59-0.794-0.9c-0.027-0.31,0.194-0.601,0.65-0.866c0.457-0.266,0.946-0.395,1.487-0.384
									c0.535,0.007,1.038,0.151,1.517,0.428c0.44,0.254,0.659,0.534,0.661,0.837c0.008,0.306-0.22,0.586-0.657,0.84l-0.254,0.147
									l-2.087-1.206c-0.184,0.137-0.259,0.269-0.239,0.406c0.026,0.132,0.16,0.269,0.39,0.402c0.191,0.11,0.409,0.206,0.664,0.287
									c0.243,0.081,0.536,0.147,0.854,0.207l-0.678,0.394c-0.293-0.074-0.562-0.162-0.816-0.258
									C227.624,172.441,227.394,172.331,227.183,172.209 M230.401,174.067c-0.505-0.292-0.768-0.59-0.801-0.903
									c-0.021-0.313,0.188-0.604,0.644-0.87c0.463-0.27,0.965-0.391,1.5-0.376c0.547,0.015,1.063,0.166,1.568,0.458
									c0.146,0.084,0.281,0.176,0.396,0.272c0.115,0.096,0.224,0.203,0.313,0.313l-0.724,0.42
									c-0.039-0.118-0.097-0.225-0.18-0.317c-0.09-0.096-0.199-0.18-0.327-0.254c-0.249-0.144-0.516-0.217-0.796-0.21
									c-0.286,0.004-0.56,0.081-0.819,0.232c-0.253,0.147-0.387,0.306-0.392,0.472c-0.012,0.162,0.116,0.317,0.365,0.46
									c0.141,0.082,0.293,0.148,0.452,0.196c0.173,0.048,0.351,0.077,0.536,0.096l-0.724,0.42
									c-0.191-0.052-0.37-0.111-0.542-0.181C230.707,174.229,230.548,174.151,230.401,174.067 M236.543,177.613
									c-0.504-0.292-0.767-0.59-0.794-0.899c-0.027-0.31,0.194-0.601,0.65-0.866c0.457-0.266,0.953-0.391,1.487-0.384
									c0.535,0.007,1.038,0.151,1.523,0.432c0.434,0.25,0.652,0.53,0.661,0.836c0.001,0.302-0.22,0.586-0.657,0.84l-0.254,0.148
									l-2.088-1.206c-0.19,0.133-0.266,0.265-0.246,0.402c0.033,0.136,0.161,0.269,0.391,0.402
									c0.191,0.11,0.409,0.206,0.664,0.287c0.249,0.085,0.536,0.147,0.854,0.207l-0.679,0.394
									c-0.293-0.074-0.561-0.162-0.816-0.258C236.99,177.849,236.76,177.738,236.543,177.613 M241.699,177.761
									c0.292-0.015,0.56,0,0.789,0.044c0.223,0.041,0.427,0.114,0.612,0.221c0.326,0.188,0.473,0.383,0.442,0.594
									c-0.03,0.21-0.232,0.423-0.613,0.645l-1.688,0.98l-0.894-0.516l0.273-0.159l1.021-0.593c0.241-0.14,0.399-0.24,0.476-0.298
									c0.083-0.056,0.134-0.107,0.146-0.151l-0.007-0.159c-0.026-0.052-0.078-0.103-0.154-0.147
									c-0.185-0.107-0.407-0.148-0.656-0.129c-0.248,0.026-0.502,0.107-0.755,0.254l-1.364,0.793l-0.888-0.513l2.779-1.615
									l0.887,0.512L241.699,177.761 M245.852,182.988c-0.504-0.291-0.767-0.59-0.794-0.899c-0.027-0.31,0.194-0.601,0.65-0.866
									c0.457-0.266,0.946-0.395,1.487-0.383c0.535,0.007,1.038,0.151,1.517,0.427c0.44,0.254,0.659,0.535,0.667,0.84
									c0.001,0.303-0.226,0.583-0.664,0.837l-0.254,0.148l-2.082-1.202c-0.19,0.132-0.266,0.265-0.246,0.401
									c0.026,0.133,0.161,0.269,0.391,0.402c0.192,0.111,0.409,0.207,0.664,0.288c0.242,0.081,0.535,0.147,0.854,0.207
									l-0.679,0.395c-0.293-0.074-0.562-0.162-0.816-0.258C246.292,183.22,246.062,183.109,245.852,182.988 M251.007,183.135
									c0.293-0.014,0.561,0,0.783,0.041c0.229,0.044,0.434,0.118,0.619,0.225c0.319,0.184,0.473,0.383,0.442,0.593
									c-0.031,0.21-0.233,0.424-0.613,0.645l-1.688,0.981l-0.9-0.52l0.273-0.159l1.021-0.593c0.242-0.14,0.406-0.236,0.482-0.295
									c0.076-0.059,0.127-0.111,0.146-0.151l-0.007-0.159c-0.026-0.051-0.078-0.103-0.154-0.147
									c-0.185-0.107-0.407-0.147-0.656-0.129c-0.254,0.022-0.502,0.107-0.756,0.254l-1.364,0.793l-0.894-0.516l2.779-1.615
									l0.894,0.516L251.007,183.135 M256.523,186.379c0.292-0.037,0.56-0.037,0.79,0c0.236,0.033,0.453,0.114,0.663,0.236
									l0.096,0.056c0.026,0.021,0.071,0.055,0.134,0.1l-0.806,0.468c-0.039-0.066-0.09-0.125-0.147-0.181
									c-0.058-0.055-0.134-0.107-0.211-0.151c-0.23-0.133-0.473-0.191-0.746-0.18c-0.267,0.015-0.541,0.099-0.813,0.258
									l-1.281,0.745l-0.894-0.516l2.779-1.615l0.894,0.516L256.523,186.379 M263.86,190.623c0.28-0.037,0.553-0.034,0.796,0.003
									c0.242,0.037,0.458,0.111,0.644,0.218c0.319,0.185,0.473,0.383,0.442,0.594c-0.031,0.21-0.233,0.423-0.614,0.645
									l-1.688,0.981l-0.894-0.516l1.447-0.841l0.069-0.041l0.101-0.051c0.197-0.115,0.311-0.218,0.342-0.303
									s-0.02-0.166-0.147-0.239c-0.173-0.1-0.371-0.133-0.605-0.107c-0.229,0.029-0.483,0.118-0.743,0.269l-1.364,0.793l-0.9-0.52
									l1.447-0.841c0.311-0.181,0.482-0.31,0.519-0.391c0.032-0.084-0.014-0.162-0.154-0.243c-0.172-0.1-0.37-0.133-0.605-0.107
									c-0.234,0.025-0.482,0.118-0.742,0.269l-1.364,0.793l-0.894-0.517l2.778-1.615l0.895,0.517l-0.406,0.236
									c0.26-0.026,0.509-0.022,0.725,0.014c0.229,0.037,0.42,0.104,0.593,0.203c0.191,0.111,0.32,0.236,0.371,0.376
									C263.966,190.339,263.948,190.482,263.86,190.623 M252.905,184.496l0.634-0.369l0.447,0.258l0.787-0.457l0.894,0.516
									l-0.787,0.457l0.919,0.531l-0.634,0.369l-0.919-0.531l-1.18,0.686c-0.127,0.074-0.19,0.14-0.184,0.195
									c0.007,0.055,0.083,0.129,0.237,0.217l0.46,0.266l-0.635,0.369l-0.766-0.442c-0.352-0.203-0.53-0.395-0.531-0.564
									c-0.001-0.17,0.176-0.354,0.525-0.557l1.18-0.686L252.905,184.496 M222.228,169.267l3.698-2.149l1.468,0.848
									c0.485,0.28,0.767,0.539,0.838,0.763c0.059,0.225-0.086,0.442-0.442,0.649c-0.241,0.14-0.501,0.225-0.781,0.247
									c-0.268,0.022-0.566-0.011-0.879-0.11c0.102,0.096,0.147,0.203,0.147,0.321c0.001,0.125-0.055,0.276-0.156,0.461
									l-0.536,0.91l-1.021-0.59l0.467-0.796c0.094-0.158,0.125-0.287,0.106-0.379c-0.032-0.092-0.122-0.188-0.275-0.276
									l-0.274-0.159l-1.402,0.815L222.228,169.267 M231.843,174.819l3.857-2.242l0.894,0.516l-1.485,0.863
									c0.292-0.015,0.561,0,0.783,0.041c0.229,0.044,0.433,0.118,0.619,0.225c0.319,0.185,0.473,0.383,0.442,0.594
									c-0.031,0.21-0.233,0.423-0.614,0.645l-1.688,0.981l-0.894-0.516l0.273-0.159l1.015-0.59
									c0.248-0.144,0.406-0.243,0.482-0.302c0.076-0.059,0.133-0.107,0.146-0.151l-0.007-0.159
									c-0.026-0.052-0.077-0.103-0.154-0.147c-0.185-0.107-0.408-0.147-0.656-0.129c-0.248,0.026-0.502,0.107-0.756,0.254
									l-1.364,0.793L231.843,174.819 M309.276,139.182l-21.069-12.165l-54.234,31.519l0.006,0.003l-18.415,10.702l-0.272,0.158
									l0.964,0.557l109.726,63.354l19.557-11.365l-89.628-51.75L309.276,139.182"/>
								<path fill="#CFD0D2" d="M420.082,173.757l-1.559-0.9l0.512,1.508L420.082,173.757 M413.184,175.043l0.958-0.557l3.729,2.153
									l-0.958,0.557l-1.583-0.914l-1.401,0.815l1.583,0.914l-0.958,0.556l-3.729-2.152l0.958-0.557l1.424,0.822l1.401-0.814
									L413.184,175.043 M418.317,174.634l-0.744-2.142l1.065-0.62l2.351,1.357l0.526-0.306l0.695,0.402l-0.526,0.306l0.683,0.394
									l-0.907,0.527l-0.683-0.395l-1.637,0.951L418.317,174.634 M422.419,172.873l0.895-0.52l0.97,0.56l-0.895,0.52
									L422.419,172.873 M421.57,170.376l0.678-0.601l0.907-0.527l3.065,1.77l0.843-0.49l0.664,0.383l-2.588,1.504l-0.664-0.383
									l0.844-0.49l-2.407-1.39l-0.684,0.605L421.57,170.376 M428.178,168.32c0.311-0.107,0.616-0.151,0.903-0.133
									c0.292,0.015,0.56,0.096,0.81,0.24c0.37,0.214,0.512,0.457,0.424,0.729c-0.095,0.276-0.404,0.568-0.943,0.881
									c-0.19,0.111-0.399,0.21-0.616,0.306c-0.222,0.092-0.456,0.177-0.711,0.25l-0.741-0.427
									c0.273-0.056,0.522-0.118,0.737-0.192c0.224-0.077,0.413-0.166,0.585-0.265c0.254-0.147,0.405-0.28,0.455-0.413
									c0.044-0.129-0.014-0.243-0.18-0.339c-0.166-0.095-0.363-0.129-0.593-0.099c-0.229,0.029-0.47,0.125-0.736,0.28l-0.38,0.221
									l-0.62-0.358l0.399-0.232c0.241-0.14,0.381-0.266,0.418-0.376c0.044-0.115-0.013-0.214-0.167-0.303
									c-0.146-0.085-0.312-0.114-0.503-0.092c-0.19,0.022-0.388,0.092-0.598,0.214c-0.151,0.088-0.297,0.188-0.418,0.302
									c-0.12,0.107-0.228,0.229-0.316,0.361l-0.702-0.405c0.134-0.144,0.285-0.276,0.443-0.398
									c0.159-0.121,0.33-0.236,0.508-0.339c0.476-0.276,0.914-0.442,1.314-0.49c0.394-0.044,0.75,0.022,1.069,0.207
									c0.218,0.125,0.34,0.262,0.365,0.409C428.411,168.006,428.342,168.157,428.178,168.32 M435.758,169.669l-0.07-0.041
									l-9.213-5.32l-0.07-0.04l-0.272,0.158l-20.304,11.8l-0.273,0.159l0.07,0.04l9.213,5.32l0.07,0.041l0.272-0.159l20.305-11.8
									L435.758,169.669"/>
								<path fill="#BDD4E4" d="M409.151,167.446l-1.559-0.9l0.512,1.508L409.151,167.446 M402.253,168.732l0.958-0.557l3.723,2.149
									l-0.958,0.557l-1.577-0.911l-1.401,0.814l1.577,0.911l-0.958,0.557l-3.723-2.149l0.958-0.557l1.417,0.818l1.402-0.814
									L402.253,168.732 M407.388,168.323l-0.745-2.142l1.065-0.62l2.351,1.357l0.526-0.306l0.695,0.402l-0.526,0.306l0.677,0.391
									l-0.907,0.527l-0.677-0.391l-1.637,0.951L407.388,168.323 M411.488,166.562l0.895-0.52l0.963,0.557l-0.894,0.52
									L411.488,166.562 M410.64,164.065l0.678-0.601l0.907-0.527l3.059,1.766l0.844-0.49l0.664,0.383l-2.588,1.504l-0.664-0.383
									l0.844-0.49l-2.407-1.39l-0.684,0.605L410.64,164.065 M417.643,163.288l1.631-0.948l0.701,0.405l-2.689,1.563l-0.701-0.405
									l0.15-1.479c0.006-0.136-0.008-0.247-0.06-0.343c-0.044-0.092-0.121-0.173-0.236-0.239c-0.173-0.1-0.37-0.148-0.599-0.14
									c-0.224,0.003-0.427,0.062-0.624,0.177c-0.146,0.085-0.278,0.199-0.392,0.339c-0.114,0.14-0.202,0.302-0.277,0.494
									l-0.817-0.472c0.146-0.166,0.297-0.321,0.469-0.464c0.171-0.144,0.36-0.276,0.557-0.391c0.444-0.258,0.89-0.398,1.328-0.432
									c0.445-0.029,0.841,0.059,1.191,0.262c0.205,0.118,0.339,0.254,0.416,0.417c0.064,0.163,0.086,0.424,0.043,0.789
									L417.643,163.288 M424.56,163.203l-0.07-0.041l-9.296-5.367l-0.07-0.041l-0.272,0.159l-20.305,11.8l-0.273,0.159
									l0.071,0.041l9.295,5.367l0.071,0.041l0.272-0.158l20.305-11.8L424.56,163.203"/>
								<path fill="#BDD4E4" d="M397.735,160.855l-1.558-0.9l0.512,1.508L397.735,160.855 M390.838,162.141l0.958-0.557l3.729,2.153
									l-0.958,0.557l-1.583-0.914l-1.402,0.815l1.583,0.914l-0.957,0.557l-3.729-2.152l0.957-0.557l1.424,0.822l1.402-0.814
									L390.838,162.141 M395.971,161.732l-0.743-2.142l1.065-0.62l2.35,1.357l0.526-0.306l0.696,0.402l-0.527,0.306l0.684,0.394
									l-0.907,0.527l-0.683-0.395l-1.637,0.951L395.971,161.732 M400.072,159.97l0.895-0.52l0.97,0.56l-0.894,0.52L400.072,159.97
									 M399.225,157.474l0.678-0.601l0.907-0.527l3.064,1.77l0.844-0.49l0.664,0.383l-2.589,1.504l-0.663-0.383l0.844-0.49
									l-2.407-1.39l-0.684,0.605L399.225,157.474 M402.498,155.572l0.684-0.605l0.907-0.527l3.064,1.77l0.844-0.49l0.664,0.383
									l-2.588,1.504l-0.664-0.383l0.844-0.49l-2.407-1.39l-0.69,0.609L402.498,155.572 M413.138,156.608l-0.07-0.041l-9.168-5.293
									l-0.07-0.041l-0.272,0.158l-20.305,11.8l-0.273,0.159l0.07,0.041l9.169,5.293l0.069,0.041l0.273-0.159l20.305-11.8
									L413.138,156.608"/>
								<path fill="#BDD4E4" d="M386.166,154.175l-1.557-0.899l0.511,1.508L386.166,154.175 M394.371,148.837
									c-0.466-0.27-0.836-0.432-1.116-0.491c-0.273-0.062-0.515-0.033-0.718,0.085c-0.21,0.122-0.26,0.262-0.157,0.424
									c0.109,0.159,0.39,0.373,0.856,0.642c0.466,0.269,0.843,0.435,1.122,0.501c0.281,0.059,0.522,0.029,0.731-0.092
									c0.203-0.118,0.247-0.254,0.145-0.417C395.125,149.324,394.837,149.106,394.371,148.837 M379.269,155.461l0.958-0.557
									l3.723,2.149l-0.958,0.557l-1.577-0.911l-1.402,0.814l1.578,0.911l-0.958,0.557l-3.723-2.149l0.958-0.557l1.418,0.818
									l1.401-0.814L379.269,155.461 M384.402,155.052l-0.744-2.142l1.066-0.62l2.349,1.356l0.526-0.306l0.696,0.402l-0.526,0.306
									l0.677,0.391l-0.907,0.527l-0.677-0.391l-1.636,0.951L384.402,155.052 M388.503,153.29l0.895-0.52l0.965,0.557l-0.895,0.52
									L388.503,153.29 M387.656,150.794l0.678-0.601l0.907-0.527l3.058,1.766l0.844-0.49l0.664,0.383l-2.588,1.504l-0.664-0.384
									l0.843-0.49l-2.406-1.39l-0.685,0.605L387.656,150.794 M392.285,150.057c-0.62-0.357-0.965-0.711-1.031-1.058
									c-0.072-0.343,0.137-0.664,0.625-0.948c0.481-0.28,1.028-0.398,1.627-0.361c0.592,0.041,1.204,0.239,1.823,0.597
									c0.62,0.357,0.959,0.708,1.037,1.054c0.065,0.347-0.143,0.66-0.625,0.94c-0.488,0.284-1.034,0.409-1.627,0.368
									C393.51,150.61,392.904,150.415,392.285,150.057 M401.773,150.046l-0.064-0.037l-9.206-5.316l-0.07-0.04l-0.272,0.158
									l-20.305,11.8l-0.273,0.159l0.07,0.04l9.206,5.316l0.064,0.037l0.273-0.159l20.305-11.8L401.773,150.046"/>
								<path fill="#CFD0D2" d="M374.993,147.724l-1.558-0.899l0.512,1.508L374.993,147.724 M379.919,144.292
									c-0.466-0.27-0.836-0.432-1.11-0.494c-0.28-0.059-0.521-0.029-0.725,0.088c-0.203,0.118-0.253,0.258-0.15,0.42
									c0.103,0.163,0.384,0.376,0.851,0.646c0.465,0.269,0.842,0.435,1.128,0.498c0.281,0.059,0.522,0.029,0.726-0.088
									c0.203-0.118,0.253-0.258,0.15-0.42C380.673,144.778,380.385,144.561,379.919,144.292 M382.389,142.087
									c-0.217-0.125-0.422-0.192-0.618-0.21c-0.191-0.015-0.369,0.029-0.534,0.125c-0.172,0.099-0.247,0.203-0.221,0.313
									c0.032,0.114,0.147,0.232,0.364,0.357c0.218,0.125,0.428,0.195,0.618,0.21c0.191,0.015,0.369-0.03,0.54-0.129
									c0.165-0.096,0.241-0.199,0.216-0.31C382.727,142.334,382.605,142.213,382.389,142.087 M368.096,149.01l0.958-0.557
									l3.723,2.149l-0.958,0.557l-1.578-0.911l-1.401,0.814l1.577,0.911l-0.957,0.557l-3.723-2.149l0.958-0.557l1.417,0.818
									l1.402-0.814L368.096,149.01 M373.229,148.601l-0.744-2.142l1.065-0.62l2.35,1.356l0.526-0.306l0.696,0.402l-0.526,0.306
									l0.677,0.391l-0.907,0.527l-0.677-0.391l-1.637,0.951L373.229,148.601 M377.33,146.839l0.895-0.52l0.965,0.557l-0.895,0.52
									L377.33,146.839 M377.839,145.508c-0.62-0.358-0.972-0.708-1.037-1.054c-0.065-0.347,0.136-0.664,0.624-0.948
									c0.482-0.28,1.029-0.398,1.628-0.361c0.599,0.037,1.21,0.236,1.829,0.593c0.62,0.358,0.959,0.708,1.031,1.058
									c0.065,0.347-0.144,0.66-0.625,0.94c-0.488,0.284-1.028,0.406-1.627,0.369C379.058,146.065,378.458,145.866,377.839,145.508
									 M380.53,143.249c-0.402-0.232-0.595-0.498-0.57-0.785c0.011-0.288,0.238-0.561,0.67-0.811
									c0.482-0.28,1.022-0.402,1.614-0.369s1.185,0.229,1.785,0.575c0.613,0.354,0.946,0.723,0.986,1.106
									c0.046,0.38-0.206,0.727-0.745,1.04c-0.172,0.1-0.355,0.192-0.533,0.266c-0.185,0.078-0.381,0.147-0.584,0.207l-0.689-0.398
									c0.229-0.044,0.425-0.1,0.604-0.159c0.171-0.062,0.323-0.128,0.463-0.21c0.279-0.162,0.425-0.335,0.424-0.52
									s-0.142-0.376-0.424-0.575c-0.03,0.115-0.088,0.221-0.176,0.317c-0.082,0.1-0.203,0.192-0.349,0.276
									c-0.381,0.221-0.793,0.336-1.252,0.343C381.303,143.555,380.889,143.455,380.53,143.249 M390.523,143.551l-0.07-0.041
									l-9.086-5.246l-0.069-0.041l-0.272,0.158l-20.305,11.8l-0.273,0.159l0.07,0.041l9.086,5.246l0.069,0.041l0.273-0.159
									l20.305-11.8L390.523,143.551"/>
								<path fill="#CFD0D2" d="M363.897,141.317l-1.559-0.9l0.512,1.508L363.897,141.317 M368.822,137.885
									c-0.466-0.269-0.836-0.431-1.109-0.494c-0.28-0.059-0.516-0.025-0.719,0.093c-0.203,0.118-0.26,0.254-0.157,0.416
									c0.104,0.163,0.385,0.376,0.851,0.645c0.472,0.273,0.849,0.439,1.129,0.498c0.28,0.059,0.522,0.03,0.725-0.088
									c0.203-0.118,0.253-0.258,0.15-0.42C369.583,138.375,369.295,138.157,368.822,137.885 M371.139,135.54
									c-0.146-0.085-0.3-0.129-0.459-0.125c-0.165,0-0.317,0.044-0.464,0.129c-0.151,0.088-0.229,0.184-0.233,0.276
									c0,0.096,0.07,0.181,0.218,0.265c0.146,0.085,0.3,0.129,0.465,0.129c0.159-0.004,0.318-0.052,0.471-0.14
									c0.146-0.084,0.221-0.173,0.228-0.265C371.362,135.713,371.285,135.625,371.139,135.54 M372.855,136.436
									c-0.186-0.106-0.377-0.158-0.567-0.166c-0.19,0-0.375,0.055-0.546,0.155c-0.185,0.107-0.272,0.21-0.266,0.324
									c0,0.111,0.09,0.222,0.275,0.328c0.179,0.104,0.369,0.155,0.561,0.155c0.197,0.004,0.375-0.048,0.559-0.155
									c0.172-0.1,0.267-0.206,0.26-0.321C373.124,136.649,373.034,136.539,372.855,136.436 M356.999,142.603l0.958-0.557
									l3.729,2.153l-0.958,0.557l-1.584-0.915l-1.401,0.815l1.583,0.915l-0.957,0.556l-3.729-2.153l0.958-0.557l1.424,0.822
									l1.402-0.814L356.999,142.603 M362.133,142.194l-0.744-2.142l1.065-0.62l2.351,1.357l0.526-0.306l0.695,0.402l-0.526,0.306
									l0.684,0.395l-0.907,0.527l-0.684-0.395l-1.637,0.951L362.133,142.194 M366.234,140.432l0.895-0.52l0.971,0.56l-0.895,0.52
									L366.234,140.432 M366.742,139.102c-0.613-0.354-0.965-0.704-1.037-1.055c-0.065-0.347,0.143-0.66,0.631-0.944
									c0.482-0.28,1.022-0.402,1.621-0.365c0.605,0.041,1.217,0.24,1.83,0.594c0.618,0.357,0.965,0.711,1.03,1.058
									c0.071,0.35-0.137,0.664-0.618,0.944c-0.488,0.284-1.029,0.405-1.634,0.365
									C367.968,139.662,367.361,139.458,366.742,139.102 M372.107,135.842c0.324-0.106,0.63-0.151,0.91-0.136
									c0.285,0.019,0.547,0.096,0.783,0.232c0.37,0.213,0.531,0.446,0.475,0.7c-0.056,0.247-0.321,0.513-0.797,0.789
									c-0.482,0.28-0.945,0.438-1.372,0.472c-0.438,0.033-0.841-0.059-1.211-0.272c-0.236-0.137-0.37-0.288-0.403-0.454
									c-0.026-0.162,0.049-0.339,0.232-0.527c-0.299,0.092-0.565,0.129-0.82,0.114c-0.255-0.015-0.49-0.084-0.701-0.206
									c-0.312-0.181-0.441-0.387-0.373-0.62c0.076-0.229,0.329-0.472,0.785-0.737c0.444-0.258,0.87-0.409,1.258-0.45
									c0.4-0.041,0.758,0.026,1.077,0.21c0.21,0.122,0.326,0.261,0.353,0.409C372.329,135.515,372.266,135.669,372.107,135.842
									 M379.324,137.085l-0.069-0.041l-9.162-5.29l-0.077-0.044l-0.272,0.158l-20.305,11.8l-0.272,0.159l0.076,0.044l9.162,5.29
									l0.07,0.041l0.272-0.159l20.305-11.8L379.324,137.085"/>
								<path fill="#BDD4E4" d="M352.884,134.958l-1.558-0.899l0.511,1.507L352.884,134.958 M357.81,131.526
									c-0.467-0.269-0.837-0.432-1.111-0.494c-0.279-0.059-0.515-0.026-0.718,0.092c-0.203,0.118-0.26,0.254-0.157,0.416
									c0.104,0.163,0.385,0.376,0.851,0.646c0.473,0.273,0.849,0.438,1.129,0.498s0.528,0.033,0.731-0.084
									c0.203-0.118,0.247-0.262,0.144-0.424C358.569,132.016,358.282,131.799,357.81,131.526 M345.986,136.245l0.958-0.557
									l3.729,2.153l-0.958,0.557l-1.584-0.915l-1.401,0.814l1.583,0.915l-0.957,0.557l-3.729-2.153l0.957-0.557l1.424,0.822
									l1.402-0.814L345.986,136.245 M351.119,135.835l-0.743-2.142l1.065-0.619l2.35,1.356l0.526-0.306l0.696,0.402l-0.527,0.306
									l0.684,0.394l-0.907,0.527l-0.683-0.395l-1.637,0.951L351.119,135.835 M355.221,134.073l0.895-0.52l0.97,0.561l-0.894,0.52
									L355.221,134.073 M355.735,132.746c-0.62-0.358-0.972-0.708-1.043-1.058c-0.066-0.347,0.143-0.66,0.631-0.943
									c0.481-0.28,1.021-0.402,1.621-0.365c0.604,0.041,1.216,0.239,1.835,0.597c0.613,0.354,0.959,0.708,1.024,1.054
									c0.072,0.35-0.137,0.664-0.618,0.944c-0.488,0.284-1.028,0.405-1.634,0.365C356.954,133.302,356.348,133.1,355.735,132.746
									 M357.232,129.708l2.791-1.622l0.543,0.313l1.746,2.677l-0.933,0.542l-1.656-2.536l-1.782,1.036L357.232,129.708
									 M368.113,130.604l-0.064-0.038l-8.771-5.065l-0.07-0.041l-0.267,0.155l-20.305,11.8l-0.272,0.159l0.07,0.041l8.771,5.065
									l0.064,0.037l0.273-0.159l20.305-11.8L368.113,130.604"/>
								<polyline fill="#FFFFFF" points="382.003,183.216 381.038,182.66 379.63,183.478 378.213,182.66 379.621,181.841 
									378.663,181.289 374.965,183.438 375.923,183.99 377.489,183.08 378.906,183.898 377.34,184.809 378.305,185.366 
									382.003,183.216 								"/>
								<path fill="#FFFFFF" d="M382.229,186.051l2.601-0.291l-1.548,0.899L382.229,186.051 M386.523,185.826l-1.066-0.615
									l-3.696,0.424l-0.817,0.475l1.647,0.952l-0.673,0.391l0.907,0.523l0.672-0.391l0.536,0.31l0.691-0.402l-0.536-0.31
									L386.523,185.826"/>
								<polyline fill="#FFFFFF" points="385.711,188.532 384.816,188.016 383.859,188.573 384.753,189.089 385.711,188.532 
																	"/>
								<polyline fill="#FFFFFF" points="391.075,188.455 390.162,187.928 389.115,187.529 388.462,187.909 389.521,188.307 
									387.13,189.697 386.28,189.207 385.621,189.59 388.226,191.094 388.886,190.71 388.037,190.221 391.075,188.455 								"/>
								<path fill="#FFFFFF" d="M390.509,190.832l2.602-0.291l-1.548,0.899L390.509,190.832 M394.81,190.611l-1.072-0.619
									l-3.695,0.424l-0.818,0.475l1.647,0.951l-0.673,0.391l0.913,0.527l0.673-0.391l0.53,0.306l0.691-0.402l-0.53-0.306
									L394.81,190.611"/>
								<polyline fill="#FFFFFF" points="361.178,195.319 360.213,194.762 358.799,195.584 357.382,194.766 358.796,193.944 
									357.838,193.391 354.134,195.544 355.092,196.097 356.664,195.183 358.082,196.001 356.509,196.915 357.474,197.472 
									361.178,195.319 								"/>
								<path fill="#FFFFFF" d="M361.403,198.154l2.602-0.292l-1.548,0.9L361.403,198.154 M365.698,197.929l-1.066-0.616
									l-3.695,0.424l-0.818,0.476l1.647,0.951l-0.679,0.394l0.907,0.524l0.678-0.395l0.537,0.31l0.69-0.402l-0.536-0.31
									L365.698,197.929"/>
								<polyline fill="#FFFFFF" points="364.886,200.635 363.992,200.119 363.028,200.679 363.922,201.195 364.886,200.635 
																	"/>
								<polyline fill="#FFFFFF" points="370.25,200.558 369.337,200.03 368.284,199.635 367.638,200.012 368.69,200.414 
									366.299,201.803 365.449,201.313 364.79,201.696 367.395,203.2 368.055,202.817 367.205,202.327 370.25,200.558 								"/>
								<path fill="#FFFFFF" d="M374.119,202.792l-2.382-1.375l-2.087,1.213c0.255,0.059,0.479,0.122,0.663,0.192
									c0.197,0.07,0.363,0.144,0.504,0.225c0.23,0.132,0.358,0.272,0.379,0.417c0.025,0.14-0.069,0.269-0.26,0.379
									c-0.196,0.114-0.412,0.166-0.66,0.155c-0.249-0.011-0.491-0.085-0.721-0.218c-0.167-0.096-0.308-0.214-0.429-0.351
									c-0.128-0.14-0.23-0.302-0.314-0.482l-0.748,0.435c0.121,0.166,0.263,0.321,0.429,0.461
									c0.166,0.147,0.352,0.276,0.562,0.398c0.492,0.284,0.99,0.438,1.492,0.464c0.497,0.029,0.954-0.074,1.354-0.306
									c0.399-0.232,0.588-0.49,0.555-0.767c-0.021-0.277-0.264-0.55-0.717-0.811c-0.077-0.044-0.159-0.084-0.249-0.122
									c-0.089-0.037-0.172-0.07-0.268-0.103l0.57-0.332l1.622,0.937L374.119,202.792"/>
								<path fill="#CFD0D2" d="M274.337,169.591l51.259-29.79l51.588,29.786l-51.26,29.79L274.337,169.591 M346.311,118.03
									l-0.269-0.155l-3.192-1.843l-0.274-0.159l-0.267,0.155l-25.475,14.805l-17.187-9.924l-0.269-0.155l-0.272,0.159
									l-8.722,5.069l-0.273,0.158l0.269,0.155l14.78,8.534l2.682,1.548l5.472,3.159l-38.846,22.576l-13.955,8.11l-0.273,0.159
									l0.275,0.159l33.838,19.538l19.792,11.428l14.047,8.11l0.006-0.003l19.211,11.092l0.269,0.155l0.267-0.155l8.03-4.667
									l0.272-0.158l-0.269-0.155l-18.942-10.937l7.339-4.265l0.272-0.159l-0.268-0.155l-3.135-1.81l42.873-24.917l22.614,13.057
									l6.179-3.59l-60.979-35.209l-28.456-16.438l22.569-13.116L346.311,118.03"/>
								<polyline fill="#FFFFFF" points="339.819,131.574 336.09,129.421 335.132,129.978 336.556,130.8 335.154,131.614 
									333.73,130.792 332.772,131.349 336.502,133.501 337.459,132.945 335.875,132.031 337.277,131.216 338.861,132.13 
									339.819,131.574 								"/>
								<path fill="#FFFFFF" d="M340.983,129.299l-0.512-1.507l1.558,0.899L340.983,129.299 M344.159,128.259l-0.695-0.402
									l-0.527,0.306l-2.35-1.356l-1.065,0.619l0.744,2.142l0.823,0.475l1.637-0.951l0.684,0.395l0.907-0.527l-0.684-0.395
									L344.159,128.259"/>
								<polyline fill="#FFFFFF" points="346.231,127.847 345.261,127.287 344.367,127.806 345.337,128.367 346.231,127.847 
																	"/>
								<path fill="#FFFFFF" d="M345.82,125.918c-0.467-0.269-0.748-0.483-0.851-0.645s-0.046-0.299,0.156-0.417
									c0.203-0.118,0.438-0.151,0.719-0.092c0.274,0.063,0.645,0.225,1.11,0.494c0.473,0.273,0.76,0.49,0.869,0.649
									c0.103,0.162,0.053,0.302-0.15,0.42c-0.202,0.118-0.444,0.147-0.725,0.088C346.669,126.357,346.293,126.191,345.82,125.918
									 M347.926,124.709c-0.619-0.357-1.231-0.557-1.83-0.593c-0.604-0.041-1.145,0.081-1.627,0.361
									c-0.488,0.284-0.696,0.597-0.624,0.947c0.065,0.347,0.417,0.697,1.036,1.054c0.613,0.354,1.219,0.557,1.817,0.593
									c0.604,0.041,1.145-0.081,1.633-0.365c0.482-0.28,0.691-0.593,0.619-0.944C348.885,125.417,348.539,125.063,347.926,124.709
									"/>
								<path fill="#FFFFFF" d="M349.922,124.326c-0.217-0.125-0.345-0.243-0.371-0.354c-0.025-0.11,0.05-0.214,0.215-0.31
									c0.171-0.1,0.35-0.144,0.54-0.129c0.191,0.015,0.401,0.084,0.618,0.21c0.218,0.125,0.339,0.247,0.365,0.357
									c0.025,0.111-0.05,0.214-0.221,0.313c-0.165,0.096-0.344,0.14-0.534,0.125C350.343,124.525,350.139,124.452,349.922,124.326
									 M351.78,123.172c-0.357-0.207-0.771-0.306-1.224-0.302c-0.458,0.007-0.871,0.122-1.252,0.343
									c-0.146,0.085-0.266,0.177-0.354,0.272c-0.083,0.1-0.146,0.203-0.17,0.313c-0.288-0.195-0.429-0.387-0.43-0.571
									c-0.001-0.184,0.145-0.357,0.424-0.52c0.133-0.078,0.291-0.147,0.456-0.207c0.179-0.059,0.388-0.114,0.61-0.163
									l-0.683-0.394c-0.21,0.055-0.407,0.125-0.598,0.207c-0.185,0.077-0.361,0.166-0.533,0.265
									c-0.533,0.31-0.785,0.656-0.745,1.04c0.047,0.38,0.38,0.749,0.993,1.103c0.6,0.346,1.193,0.542,1.785,0.575
									c0.586,0.037,1.125-0.084,1.607-0.365c0.438-0.254,0.659-0.523,0.677-0.814C352.368,123.667,352.183,123.405,351.78,123.172
									"/>
								<polyline fill="#FFFFFF" points="350.673,137.84 346.944,135.688 345.986,136.245 347.41,137.066 346.008,137.881 
									344.584,137.059 343.627,137.616 347.355,139.769 348.312,139.212 346.729,138.297 348.131,137.483 349.715,138.397 
									350.673,137.84 								"/>
								<path fill="#FFFFFF" d="M351.837,135.566l-0.511-1.507l1.558,0.899L351.837,135.566 M355.014,134.526l-0.696-0.402
									l-0.526,0.306l-2.35-1.356l-1.065,0.619l0.743,2.142l0.824,0.476l1.637-0.951l0.683,0.395l0.907-0.527l-0.684-0.394
									L355.014,134.526"/>
								<polyline fill="#FFFFFF" points="357.085,134.114 356.115,133.553 355.221,134.073 356.191,134.633 357.085,134.114 
																	"/>
								<path fill="#FFFFFF" d="M356.674,132.186c-0.466-0.269-0.747-0.483-0.851-0.646c-0.103-0.162-0.046-0.298,0.157-0.416
									c0.203-0.118,0.438-0.151,0.718-0.092c0.274,0.062,0.645,0.225,1.111,0.494c0.473,0.273,0.76,0.49,0.868,0.648
									c0.104,0.163,0.06,0.306-0.144,0.424c-0.203,0.118-0.451,0.144-0.731,0.084S357.146,132.458,356.674,132.186
									 M358.779,130.977c-0.619-0.358-1.23-0.557-1.835-0.597c-0.6-0.037-1.14,0.085-1.621,0.365
									c-0.488,0.284-0.697,0.597-0.631,0.943c0.071,0.35,0.423,0.7,1.043,1.058c0.612,0.354,1.219,0.556,1.816,0.593
									c0.605,0.041,1.146-0.081,1.634-0.365c0.481-0.28,0.69-0.594,0.618-0.944C359.738,131.684,359.393,131.331,358.779,130.977"
									/>
								<polyline fill="#FFFFFF" points="360.566,128.399 360.023,128.086 357.232,129.708 357.941,130.118 359.724,129.082 
									361.38,131.618 362.312,131.076 360.566,128.399 								"/>
								<polyline fill="#FFFFFF" points="361.687,144.2 357.957,142.046 356.999,142.603 358.424,143.426 357.021,144.24 
									355.598,143.418 354.64,143.975 358.369,146.127 359.326,145.571 357.743,144.657 359.145,143.842 360.729,144.756 
									361.687,144.2 								"/>
								<path fill="#FFFFFF" d="M362.851,141.925l-0.512-1.508l1.559,0.9L362.851,141.925 M366.026,140.885l-0.695-0.402
									l-0.526,0.306l-2.351-1.357l-1.065,0.62l0.744,2.142l0.823,0.475l1.637-0.951l0.684,0.395l0.907-0.527l-0.684-0.395
									L366.026,140.885"/>
								<polyline fill="#FFFFFF" points="368.1,140.473 367.129,139.913 366.234,140.432 367.205,140.993 368.1,140.473 								"/>
								<path fill="#FFFFFF" d="M367.688,138.544c-0.466-0.269-0.747-0.482-0.851-0.645c-0.103-0.162-0.046-0.298,0.157-0.416
									c0.203-0.118,0.438-0.151,0.719-0.093c0.273,0.063,0.644,0.225,1.109,0.494c0.473,0.272,0.761,0.49,0.869,0.649
									c0.103,0.162,0.053,0.302-0.15,0.42c-0.202,0.118-0.444,0.147-0.725,0.088C368.536,138.983,368.159,138.817,367.688,138.544
									 M369.787,137.332c-0.613-0.354-1.225-0.553-1.83-0.594c-0.599-0.037-1.139,0.085-1.621,0.365
									c-0.488,0.284-0.696,0.597-0.631,0.944c0.072,0.351,0.424,0.701,1.037,1.055c0.619,0.357,1.226,0.56,1.823,0.597
									c0.604,0.041,1.146-0.081,1.634-0.365c0.481-0.28,0.689-0.594,0.618-0.944C370.752,138.043,370.405,137.689,369.787,137.332
									"/>
								<path fill="#FFFFFF" d="M370.2,136.085c-0.147-0.084-0.218-0.169-0.218-0.265c0.005-0.092,0.082-0.188,0.233-0.276
									c0.146-0.085,0.299-0.129,0.464-0.129c0.159-0.004,0.312,0.04,0.459,0.125s0.224,0.173,0.225,0.27
									c-0.007,0.092-0.082,0.181-0.228,0.265c-0.152,0.088-0.312,0.136-0.471,0.14C370.5,136.215,370.347,136.17,370.2,136.085
									 M371.752,137.077c-0.186-0.106-0.275-0.217-0.275-0.328c-0.007-0.114,0.081-0.217,0.266-0.324
									c0.171-0.1,0.355-0.155,0.546-0.155c0.19,0.007,0.382,0.059,0.567,0.166c0.179,0.104,0.269,0.214,0.275,0.321
									c0.007,0.115-0.088,0.221-0.26,0.321c-0.184,0.107-0.361,0.159-0.559,0.155
									C372.121,137.232,371.931,137.181,371.752,137.077 M373.801,135.938c-0.236-0.136-0.498-0.214-0.783-0.232
									c-0.28-0.015-0.586,0.03-0.91,0.136c0.158-0.173,0.222-0.328,0.195-0.475c-0.026-0.148-0.143-0.288-0.353-0.409
									c-0.319-0.185-0.677-0.251-1.077-0.21c-0.388,0.041-0.813,0.192-1.258,0.45c-0.456,0.266-0.709,0.509-0.785,0.737
									c-0.068,0.232,0.061,0.438,0.373,0.62c0.211,0.122,0.446,0.191,0.701,0.206c0.255,0.015,0.521-0.022,0.82-0.114
									c-0.184,0.188-0.259,0.365-0.232,0.527c0.033,0.166,0.167,0.317,0.403,0.454c0.37,0.213,0.772,0.306,1.211,0.272
									c0.427-0.033,0.89-0.191,1.372-0.472c0.476-0.276,0.741-0.542,0.797-0.789C374.332,136.384,374.171,136.152,373.801,135.938
									"/>
								<polyline fill="#FFFFFF" points="372.776,150.603 369.054,148.454 368.096,149.01 369.514,149.829 368.111,150.644 
									366.694,149.825 365.736,150.382 369.459,152.531 370.416,151.974 368.839,151.063 370.24,150.249 371.818,151.16 
									372.776,150.603 								"/>
								<path fill="#FFFFFF" d="M373.947,148.332l-0.512-1.508l1.558,0.899L373.947,148.332 M377.123,147.292l-0.696-0.402
									l-0.526,0.306l-2.35-1.356l-1.065,0.62l0.744,2.142l0.823,0.476l1.637-0.951l0.677,0.391l0.907-0.527l-0.677-0.391
									L377.123,147.292"/>
								<polyline fill="#FFFFFF" points="379.189,146.876 378.225,146.319 377.33,146.839 378.295,147.396 379.189,146.876 								
									"/>
								<path fill="#FFFFFF" d="M378.784,144.952c-0.467-0.269-0.748-0.483-0.851-0.646c-0.103-0.162-0.053-0.302,0.15-0.42
									c0.203-0.118,0.444-0.147,0.725-0.088c0.274,0.062,0.645,0.225,1.11,0.494c0.466,0.269,0.754,0.486,0.869,0.648
									c0.103,0.163,0.053,0.302-0.15,0.42c-0.203,0.118-0.444,0.147-0.726,0.088C379.626,145.387,379.249,145.221,378.784,144.952
									 M380.883,143.739c-0.619-0.357-1.23-0.557-1.829-0.593c-0.599-0.037-1.146,0.081-1.628,0.361
									c-0.488,0.284-0.689,0.601-0.624,0.948c0.065,0.346,0.417,0.696,1.037,1.054c0.619,0.357,1.219,0.557,1.823,0.597
									c0.599,0.037,1.139-0.085,1.627-0.369c0.481-0.28,0.69-0.593,0.625-0.94C381.842,144.447,381.503,144.097,380.883,143.739"
									/>
								<path fill="#FFFFFF" d="M381.38,142.673c-0.217-0.125-0.332-0.244-0.364-0.357c-0.026-0.111,0.049-0.214,0.221-0.313
									c0.165-0.096,0.343-0.14,0.534-0.125c0.196,0.019,0.401,0.085,0.618,0.21s0.338,0.247,0.365,0.357
									c0.025,0.111-0.051,0.213-0.216,0.31c-0.171,0.1-0.349,0.144-0.54,0.129C381.808,142.869,381.598,142.799,381.38,142.673
									 M384.029,141.858c-0.601-0.346-1.193-0.542-1.785-0.575s-1.132,0.089-1.614,0.369c-0.432,0.25-0.659,0.523-0.67,0.811
									c-0.024,0.288,0.168,0.553,0.57,0.785c0.358,0.207,0.772,0.306,1.224,0.302c0.459-0.007,0.871-0.122,1.252-0.343
									c0.146-0.084,0.267-0.176,0.349-0.276c0.088-0.096,0.146-0.202,0.176-0.317c0.282,0.199,0.423,0.391,0.424,0.575
									s-0.145,0.357-0.424,0.52c-0.14,0.082-0.292,0.147-0.463,0.21c-0.179,0.06-0.375,0.115-0.604,0.159l0.689,0.398
									c0.203-0.059,0.399-0.129,0.584-0.207c0.178-0.073,0.361-0.166,0.533-0.266c0.539-0.313,0.791-0.66,0.745-1.04
									C384.976,142.582,384.643,142.212,384.029,141.858"/>
								<polyline fill="#FFFFFF" points="383.949,157.054 380.227,154.905 379.269,155.461 380.687,156.28 379.285,157.095 
									377.867,156.276 376.909,156.833 380.632,158.982 381.59,158.425 380.012,157.515 381.414,156.7 382.991,157.611 
									383.949,157.054 								"/>
								<path fill="#FFFFFF" d="M385.12,154.783l-0.511-1.508l1.557,0.899L385.12,154.783 M388.296,153.744l-0.696-0.402
									l-0.526,0.306l-2.349-1.356l-1.066,0.62l0.744,2.142l0.824,0.476l1.636-0.951l0.677,0.391l0.907-0.527l-0.677-0.391
									L388.296,153.744"/>
								<polyline fill="#FFFFFF" points="390.362,153.327 389.397,152.771 388.503,153.29 389.468,153.847 390.362,153.327 								
									"/>
								<polyline fill="#FFFFFF" points="393.807,151.325 393.143,150.942 392.299,151.432 389.241,149.667 388.334,150.193 
									387.656,150.794 388.307,151.171 388.991,150.566 391.397,151.956 390.555,152.446 391.219,152.83 393.807,151.325 								
									"/>
								<path fill="#FFFFFF" d="M393.236,149.497c-0.467-0.269-0.747-0.483-0.856-0.642c-0.103-0.162-0.053-0.302,0.157-0.424
									c0.203-0.118,0.444-0.147,0.718-0.085c0.28,0.059,0.65,0.221,1.116,0.491c0.466,0.269,0.754,0.486,0.863,0.652
									c0.103,0.163,0.059,0.299-0.145,0.417c-0.209,0.121-0.45,0.151-0.731,0.092
									C394.079,149.932,393.702,149.766,393.236,149.497 M395.329,148.288c-0.619-0.358-1.231-0.557-1.823-0.597
									c-0.599-0.037-1.146,0.081-1.627,0.361c-0.488,0.284-0.697,0.604-0.625,0.948c0.066,0.346,0.411,0.7,1.031,1.058
									c0.619,0.358,1.225,0.553,1.829,0.593c0.593,0.041,1.139-0.084,1.627-0.368c0.482-0.28,0.69-0.593,0.625-0.94
									C396.288,148.996,395.949,148.646,395.329,148.288"/>
								<polyline fill="#FFFFFF" points="395.524,163.737 391.796,161.584 390.838,162.141 392.262,162.963 390.859,163.778 
									389.436,162.956 388.479,163.513 392.207,165.665 393.164,165.108 391.581,164.195 392.983,163.38 394.566,164.294 
									395.524,163.737 								"/>
								<path fill="#FFFFFF" d="M396.689,161.463l-0.512-1.508l1.558,0.9L396.689,161.463 M399.865,160.423l-0.696-0.402
									l-0.526,0.306l-2.35-1.357l-1.065,0.62l0.743,2.142l0.824,0.476l1.637-0.951l0.683,0.395l0.907-0.527l-0.684-0.394
									L399.865,160.423"/>
								<polyline fill="#FFFFFF" points="401.937,160.01 400.967,159.45 400.072,159.97 401.043,160.53 401.937,160.01 								"/>
								<polyline fill="#FFFFFF" points="405.382,158.009 404.718,157.625 403.874,158.116 400.81,156.346 399.902,156.873 
									399.225,157.474 399.883,157.854 400.566,157.249 402.974,158.639 402.13,159.129 402.793,159.513 405.382,158.009 								
									"/>
								<polyline fill="#FFFFFF" points="408.661,156.103 407.997,155.72 407.153,156.21 404.089,154.44 403.182,154.967 
									402.498,155.572 403.155,155.952 403.846,155.343 406.253,156.733 405.409,157.224 406.073,157.607 408.661,156.103 
																	"/>
								<polyline fill="#FFFFFF" points="406.934,170.325 403.211,168.176 402.253,168.732 403.671,169.551 402.269,170.365 
									400.852,169.547 399.894,170.104 403.616,172.253 404.574,171.696 402.997,170.786 404.398,169.971 405.976,170.882 
									406.934,170.325 								"/>
								<path fill="#FFFFFF" d="M408.104,168.054l-0.512-1.508l1.559,0.9L408.104,168.054 M411.28,167.015l-0.695-0.402
									l-0.526,0.306l-2.351-1.357l-1.065,0.62l0.745,2.142l0.822,0.476l1.637-0.951l0.677,0.391l0.907-0.527l-0.677-0.391
									L411.28,167.015"/>
								<polyline fill="#FFFFFF" points="413.346,166.598 412.383,166.042 411.488,166.562 412.452,167.118 413.346,166.598 
																	"/>
								<polyline fill="#FFFFFF" points="416.791,164.596 416.127,164.213 415.283,164.703 412.225,162.938 411.317,163.464 
									410.64,164.065 411.292,164.442 411.976,163.837 414.383,165.227 413.539,165.717 414.203,166.1 416.791,164.596 								
									"/>
								<path fill="#FFFFFF" d="M419.975,162.746l-0.701-0.405l-1.631,0.948l0.091-0.867c0.043-0.365,0.021-0.626-0.043-0.789
									c-0.077-0.162-0.211-0.298-0.416-0.417c-0.351-0.203-0.746-0.291-1.191-0.262c-0.438,0.034-0.884,0.173-1.328,0.432
									c-0.196,0.114-0.386,0.247-0.557,0.391c-0.172,0.144-0.323,0.298-0.469,0.464l0.817,0.472
									c0.075-0.191,0.163-0.354,0.277-0.494c0.113-0.14,0.246-0.254,0.392-0.339c0.197-0.114,0.4-0.173,0.624-0.177
									c0.229-0.008,0.426,0.041,0.599,0.14c0.115,0.066,0.192,0.147,0.236,0.239c0.052,0.096,0.065,0.207,0.06,0.343l-0.15,1.479
									l0.701,0.405L419.975,162.746"/>
								<polyline fill="#FFFFFF" points="417.87,176.64 414.142,174.487 413.184,175.043 414.607,175.866 413.206,176.68 
									411.782,175.858 410.824,176.415 414.553,178.567 415.511,178.011 413.928,177.097 415.329,176.282 416.912,177.196 
									417.87,176.64 								"/>
								<path fill="#FFFFFF" d="M419.035,174.365l-0.512-1.508l1.559,0.9L419.035,174.365 M422.211,173.326l-0.695-0.402
									l-0.526,0.306l-2.351-1.357l-1.065,0.62l0.744,2.142l0.823,0.476l1.637-0.951l0.683,0.395l0.907-0.527l-0.683-0.394
									L422.211,173.326"/>
								<polyline fill="#FFFFFF" points="424.283,172.913 423.313,172.353 422.419,172.873 423.389,173.433 424.283,172.913 
																	"/>
								<polyline fill="#FFFFFF" points="427.728,170.911 427.063,170.528 426.221,171.018 423.155,169.249 422.248,169.775 
									421.57,170.376 422.229,170.757 422.912,170.151 425.319,171.542 424.476,172.032 425.14,172.415 427.728,170.911 								
									"/>
								<path fill="#FFFFFF" d="M429.891,168.427c-0.25-0.144-0.518-0.225-0.81-0.24c-0.287-0.019-0.593,0.026-0.903,0.133
									c0.164-0.163,0.233-0.313,0.207-0.461c-0.025-0.146-0.147-0.283-0.365-0.409c-0.319-0.185-0.676-0.251-1.069-0.207
									c-0.4,0.048-0.839,0.214-1.314,0.49c-0.178,0.103-0.349,0.218-0.508,0.339c-0.158,0.122-0.31,0.255-0.443,0.398l0.702,0.405
									c0.089-0.132,0.196-0.254,0.316-0.361c0.121-0.114,0.267-0.214,0.418-0.302c0.21-0.122,0.407-0.191,0.598-0.214
									c0.191-0.022,0.356,0.007,0.503,0.092c0.154,0.089,0.211,0.188,0.167,0.303c-0.037,0.11-0.177,0.236-0.418,0.376
									l-0.399,0.232l0.62,0.358l0.38-0.221c0.267-0.155,0.508-0.251,0.736-0.28c0.229-0.03,0.427,0.004,0.593,0.099
									c0.166,0.096,0.224,0.21,0.18,0.339c-0.05,0.133-0.201,0.266-0.455,0.413c-0.172,0.1-0.361,0.188-0.585,0.265
									c-0.215,0.074-0.464,0.136-0.737,0.192l0.741,0.427c0.255-0.073,0.489-0.158,0.711-0.25
									c0.217-0.096,0.426-0.195,0.616-0.306c0.539-0.313,0.849-0.605,0.943-0.881
									C430.402,168.884,430.261,168.641,429.891,168.427"/>
								<polyline fill="#CFD0D2" points="363.317,211.458 346.66,201.84 341.592,204.786 358.249,214.403 363.317,211.458 								
									"/>
								<polyline fill="#CFD0D2" points="322.396,124.96 307.487,116.353 301.911,119.593 316.819,128.201 322.396,124.96 								
									"/>
								<path fill="#FFFFFF" d="M225.247,168.622l0.946-0.549l0.409,0.236c0.198,0.114,0.313,0.217,0.319,0.31
									c0.02,0.092-0.056,0.188-0.227,0.288s-0.336,0.144-0.502,0.136c-0.152-0.007-0.338-0.069-0.536-0.184L225.247,168.622
									 M227.395,167.966l-1.468-0.848l-3.698,2.149l0.958,0.553l1.402-0.815l0.274,0.159c0.153,0.088,0.243,0.184,0.275,0.276
									c0.02,0.092-0.012,0.221-0.106,0.379l-0.467,0.796l1.021,0.59l0.536-0.91c0.101-0.185,0.158-0.336,0.156-0.461
									c0-0.118-0.045-0.225-0.147-0.321c0.312,0.099,0.611,0.132,0.879,0.11c0.279-0.022,0.54-0.107,0.781-0.247
									c0.356-0.207,0.5-0.424,0.442-0.649C228.161,168.504,227.88,168.246,227.395,167.966"/>
								<path fill="#FFFFFF" d="M228.264,170.797c0.209-0.092,0.419-0.133,0.623-0.125c0.21,0.003,0.395,0.059,0.567,0.158
									c0.16,0.092,0.236,0.195,0.231,0.31c-0.006,0.122-0.087,0.229-0.259,0.328L228.264,170.797 M230.043,170.487
									c-0.479-0.276-0.982-0.42-1.517-0.428c-0.541-0.011-1.03,0.118-1.487,0.384c-0.456,0.265-0.677,0.556-0.65,0.866
									c0.027,0.31,0.29,0.608,0.794,0.9c0.21,0.122,0.44,0.232,0.696,0.335c0.254,0.096,0.522,0.184,0.816,0.258l0.678-0.394
									c-0.318-0.06-0.611-0.126-0.854-0.207c-0.255-0.081-0.472-0.177-0.664-0.287c-0.23-0.133-0.364-0.27-0.39-0.402
									c-0.02-0.137,0.056-0.269,0.239-0.406l2.087,1.206l0.254-0.147c0.438-0.254,0.665-0.535,0.657-0.84
									C230.702,171.021,230.484,170.742,230.043,170.487"/>
								<path fill="#FFFFFF" d="M233.312,172.375c-0.505-0.292-1.021-0.443-1.568-0.458c-0.535-0.015-1.037,0.107-1.5,0.376
									c-0.457,0.265-0.665,0.556-0.644,0.87c0.033,0.313,0.296,0.612,0.801,0.903c0.146,0.084,0.306,0.162,0.472,0.229
									c0.172,0.07,0.351,0.129,0.542,0.181l0.724-0.42c-0.186-0.019-0.363-0.048-0.536-0.096
									c-0.159-0.048-0.312-0.114-0.452-0.196c-0.249-0.144-0.377-0.298-0.365-0.46c0.005-0.166,0.138-0.324,0.392-0.472
									c0.26-0.151,0.533-0.229,0.819-0.232c0.28-0.007,0.547,0.066,0.796,0.21c0.128,0.074,0.237,0.158,0.327,0.254
									c0.083,0.092,0.141,0.199,0.18,0.317l0.724-0.42c-0.09-0.111-0.199-0.218-0.313-0.313
									C233.594,172.551,233.459,172.459,233.312,172.375"/>
								<path fill="#FFFFFF" d="M236.594,173.093l-0.894-0.516l-3.857,2.242l0.895,0.516l1.364-0.793
									c0.253-0.147,0.508-0.228,0.756-0.254c0.248-0.019,0.471,0.022,0.656,0.129c0.077,0.044,0.128,0.096,0.154,0.147
									l0.007,0.159c-0.012,0.044-0.069,0.092-0.146,0.151c-0.076,0.059-0.234,0.158-0.482,0.302l-1.015,0.59l-0.273,0.159
									l0.894,0.516l1.688-0.981c0.381-0.221,0.583-0.435,0.614-0.645c0.031-0.21-0.123-0.409-0.442-0.594
									c-0.186-0.107-0.389-0.181-0.619-0.225c-0.223-0.041-0.491-0.056-0.783-0.041L236.594,173.093"/>
								<path fill="#FFFFFF" d="M237.623,176.201c0.209-0.092,0.42-0.133,0.623-0.125c0.209,0.004,0.395,0.059,0.567,0.159
									c0.159,0.092,0.236,0.195,0.237,0.313c-0.013,0.118-0.094,0.225-0.266,0.324L237.623,176.201 M239.41,175.896
									c-0.485-0.28-0.988-0.424-1.523-0.432c-0.534-0.007-1.03,0.118-1.487,0.384c-0.456,0.265-0.677,0.556-0.65,0.866
									c0.027,0.31,0.29,0.608,0.794,0.899c0.217,0.125,0.447,0.235,0.695,0.335c0.255,0.096,0.523,0.185,0.816,0.258l0.679-0.394
									c-0.318-0.06-0.605-0.122-0.854-0.207c-0.255-0.081-0.472-0.177-0.664-0.287c-0.23-0.133-0.357-0.266-0.391-0.402
									c-0.02-0.137,0.056-0.269,0.246-0.402l2.088,1.206l0.254-0.148c0.438-0.254,0.659-0.538,0.657-0.84
									C240.062,176.426,239.844,176.146,239.41,175.896"/>
								<path fill="#FFFFFF" d="M243.1,178.026c-0.185-0.107-0.389-0.181-0.612-0.221c-0.229-0.044-0.497-0.059-0.789-0.044
									l0.406-0.236l-0.887-0.512l-2.779,1.615l0.888,0.513l1.364-0.793c0.253-0.147,0.507-0.229,0.755-0.254
									c0.249-0.019,0.471,0.022,0.656,0.129c0.077,0.044,0.128,0.095,0.154,0.147l0.007,0.159
									c-0.012,0.044-0.063,0.096-0.146,0.151c-0.076,0.059-0.234,0.158-0.476,0.298l-1.021,0.593l-0.273,0.159l0.894,0.516
									l1.688-0.98c0.381-0.222,0.583-0.435,0.613-0.645C243.573,178.409,243.426,178.214,243.1,178.026"/>
								<polyline fill="#FFFFFF" points="246.893,180.29 244.46,178.885 243.826,179.254 245.23,180.064 242.24,180.102 
									241.618,180.463 244.114,181.904 244.749,181.535 243.28,180.688 246.271,180.65 246.893,180.29 								"/>
								<path fill="#FFFFFF" d="M246.932,181.576c0.209-0.092,0.419-0.132,0.623-0.125c0.21,0.004,0.395,0.059,0.567,0.158
									c0.16,0.092,0.236,0.196,0.231,0.31c-0.006,0.122-0.087,0.229-0.259,0.329L246.932,181.576 M248.712,181.266
									c-0.479-0.276-0.982-0.42-1.517-0.427c-0.541-0.011-1.03,0.118-1.487,0.383c-0.457,0.265-0.678,0.556-0.65,0.866
									c0.027,0.31,0.29,0.608,0.794,0.899c0.211,0.122,0.44,0.232,0.696,0.335c0.254,0.096,0.522,0.185,0.816,0.258l0.679-0.395
									c-0.318-0.059-0.611-0.125-0.854-0.207c-0.255-0.081-0.472-0.177-0.664-0.288c-0.229-0.133-0.364-0.269-0.391-0.402
									c-0.02-0.136,0.056-0.269,0.246-0.401l2.082,1.202l0.254-0.148c0.438-0.254,0.665-0.534,0.664-0.837
									C249.371,181.801,249.152,181.521,248.712,181.266"/>
								<path fill="#FFFFFF" d="M252.409,183.401c-0.185-0.107-0.389-0.181-0.619-0.225c-0.222-0.041-0.49-0.055-0.783-0.041
									l0.406-0.236l-0.894-0.516l-2.779,1.615l0.894,0.516l1.364-0.793c0.253-0.147,0.501-0.232,0.756-0.254
									c0.249-0.018,0.471,0.022,0.656,0.129c0.077,0.044,0.128,0.096,0.154,0.147l0.007,0.159
									c-0.019,0.041-0.069,0.093-0.146,0.151c-0.076,0.059-0.24,0.155-0.482,0.295l-1.021,0.593l-0.273,0.159l0.9,0.52
									l1.688-0.981c0.38-0.221,0.583-0.435,0.613-0.645C252.882,183.784,252.728,183.585,252.409,183.401"/>
								<path fill="#FFFFFF" d="M255.667,184.444l-0.894-0.516l-0.787,0.457l-0.447-0.258l-0.634,0.369l0.447,0.258l-1.18,0.686
									c-0.349,0.203-0.526,0.387-0.525,0.557c0.001,0.169,0.18,0.361,0.531,0.564l0.766,0.442l0.635-0.369l-0.46-0.266
									c-0.153-0.088-0.23-0.162-0.237-0.217c-0.006-0.055,0.057-0.122,0.184-0.195l1.18-0.686l0.919,0.531l0.634-0.369
									l-0.919-0.531L255.667,184.444"/>
								<path fill="#FFFFFF" d="M258.072,186.671l-0.096-0.056c-0.21-0.122-0.427-0.203-0.663-0.236
									c-0.229-0.037-0.497-0.037-0.79,0l0.457-0.266l-0.894-0.516l-2.779,1.615l0.894,0.516l1.281-0.745
									c0.272-0.159,0.546-0.243,0.813-0.258c0.273-0.011,0.516,0.047,0.746,0.18c0.077,0.044,0.153,0.096,0.211,0.151
									c0.057,0.056,0.108,0.114,0.147,0.181l0.806-0.468C258.143,186.726,258.098,186.692,258.072,186.671"/>
								<path fill="#FFFFFF" d="M261.131,188.51l-0.894-0.516l-1.37,0.796c-0.253,0.147-0.501,0.232-0.756,0.254
									c-0.248,0.019-0.458-0.022-0.65-0.133c-0.076-0.044-0.127-0.088-0.16-0.143l-0.007-0.159
									c0.019-0.04,0.069-0.092,0.158-0.158c0.082-0.062,0.241-0.162,0.463-0.292c0.076-0.044,0.228-0.132,0.456-0.265
									c0.229-0.125,0.419-0.236,0.571-0.324l0.279-0.163l-0.9-0.52l-1.7,0.988c-0.374,0.218-0.576,0.431-0.601,0.646
									c-0.031,0.21,0.124,0.409,0.442,0.593c0.186,0.107,0.389,0.181,0.613,0.221c0.229,0.044,0.49,0.055,0.783,0.041l-0.4,0.232
									l0.894,0.516L261.131,188.51"/>
								<path fill="#FFFFFF" d="M265.299,190.844c-0.185-0.107-0.401-0.181-0.644-0.218c-0.243-0.037-0.516-0.041-0.796-0.003
									c0.088-0.141,0.106-0.284,0.048-0.42c-0.051-0.141-0.18-0.266-0.371-0.376c-0.173-0.1-0.364-0.166-0.593-0.203
									c-0.216-0.036-0.465-0.04-0.725-0.014l0.406-0.236l-0.895-0.517l-2.778,1.615l0.894,0.517l1.364-0.793
									c0.26-0.151,0.508-0.244,0.742-0.269c0.236-0.026,0.433,0.007,0.605,0.107c0.14,0.081,0.186,0.158,0.154,0.243
									c-0.037,0.082-0.208,0.21-0.519,0.391l-1.447,0.841l0.9,0.52l1.364-0.793c0.26-0.151,0.515-0.239,0.743-0.269
									c0.235-0.026,0.433,0.007,0.605,0.107c0.127,0.074,0.179,0.154,0.147,0.239s-0.145,0.188-0.342,0.303l-0.101,0.051
									l-0.069,0.041l-1.447,0.841l0.894,0.516l1.688-0.981c0.381-0.221,0.583-0.435,0.614-0.645
									C265.772,191.227,265.619,191.028,265.299,190.844"/>
							</g>
						</g>
					</g>
				</g>
			</g>
		</g>
	</g>
	<g>
		<g>
			<g enable-background="new    ">
				<defs>
					<polygon id="SVGID_3_" enable-background="new    " points="294.338,126.805 300.484,123.233 306.665,126.802 300.519,130.374 
											"/>
				</defs>
				<clipPath id="SVGID_4_">
					<use xlink:href="#SVGID_3_"  overflow="visible"/>
				</clipPath>
				<g clip-path="url(#SVGID_4_)">
					<g>
						<g>
							<g>
								<polyline fill="#FFFFFF" points="302.042,124.132 300.484,123.233 294.338,126.805 297.416,128.582 300.519,130.374 
									302.072,129.47 300.533,128.582 302.062,127.693 300.517,126.801 302.052,125.909 300.514,125.021 302.042,124.132 								
									"/>
							</g>
						</g>
					</g>
				</g>
			</g>
		</g>
	</g>
	<g>
		<g>
			<g enable-background="new    ">
				<defs>
					<polygon id="SVGID_5_" enable-background="new    " points="340.175,214.798 346.321,211.226 352.502,214.794 346.355,218.366 
											"/>
				</defs>
				<clipPath id="SVGID_6_">
					<use xlink:href="#SVGID_5_"  overflow="visible"/>
				</clipPath>
				<g clip-path="url(#SVGID_6_)">
					<g>
						<g>
							<g>
								<polyline fill="#FFFFFF" points="347.879,212.125 346.321,211.226 340.175,214.798 343.259,216.578 346.355,218.366 
									347.909,217.463 346.37,216.575 347.899,215.687 346.361,214.798 347.896,213.905 346.35,213.014 347.879,212.125 								
									"/>
							</g>
						</g>
					</g>
				</g>
			</g>
		</g>
	</g>
	<g>
		<polygon fill="#EC7404" stroke="#FFFFFF" stroke-width="0.5" points="312.837,-23.968 316.249,-23.968 314.68,-12.192 		"/>
		<circle fill="#EC7404" cx="314.543" cy="-33" r="9.731"/>
		<polygon fill="none" stroke="#FFFFFF" stroke-width="0.5" points="318.413,-35.826 314.543,-40.501 310.674,-35.826 
			312.627,-35.826 312.627,-30.704 316.46,-30.704 316.46,-35.826 		"/>
		<text transform="matrix(1 0 0 1 312.875 -25.1201)" fill="#FFFFFF" font-family="'DejaVuSansCondensed-Bold'" font-size="5"></text>
	</g>
	<g>
		<polygon fill="#EC7404" stroke="#FFFFFF" stroke-width="0.5" points="338.409,-23.968 341.822,-23.968 340.252,-12.192 		"/>
		<circle fill="#EC7404" cx="340.116" cy="-33" r="9.731"/>
		<polygon fill="none" stroke="#FFFFFF" stroke-width="0.5" points="343.985,-35.826 340.115,-40.501 336.246,-35.826 
			338.199,-35.826 338.199,-30.704 342.032,-30.704 342.032,-35.826 		"/>
		<rect x="338.429" y="-29.443" fill="none" width="8" height="3.833"/>
		<text transform="matrix(1 0 0 1 338.4287 -25.644)" fill="#FFFFFF" font-family="'DejaVuSansCondensed-Bold'" font-size="5">P</text>
	</g>
	<g>
		<polygon fill="#EC7404" stroke="#FFFFFF" stroke-width="0.5" points="363.981,-23.968 367.394,-23.968 365.824,-12.192 		"/>
		<circle fill="#EC7404" cx="365.688" cy="-33" r="9.731"/>
		<polygon fill="none" stroke="#FFFFFF" stroke-width="0.5" points="369.558,-35.826 365.688,-40.501 361.818,-35.826 
			363.771,-35.826 363.771,-30.704 367.604,-30.704 367.604,-35.826 		"/>
		<rect x="360.819" y="-29.442" fill="none" width="8" height="3.833"/>
		<text transform="matrix(1 0 0 1 360.8193 -25.6431)" fill="#FFFFFF" font-family="'DejaVuSansCondensed-Bold'" font-size="5"> EC</text>
	</g>
	<g>
		<polygon fill="#EC7404" stroke="#FFFFFF" stroke-width="0.5" points="415.003,-23.991 418.417,-23.991 416.847,-12.215 		"/>
		<g>
			<circle fill="#EC7404" cx="416.71" cy="-33" r="9.731"/>
			<g>
				<g>
					<path fill="none" stroke="#FFFFFF" stroke-width="0.5" d="M421.197-29.081c0,0.312-0.255,0.567-0.567,0.567h-7.839
						c-0.312,0-0.567-0.255-0.567-0.567v-7.84c0-0.312,0.255-0.567,0.567-0.567h7.839c0.312,0,0.567,0.255,0.567,0.567V-29.081z"/>
				</g>
				<polygon fill="#FFFFFF" points="413.152,-32.975 415.846,-29.744 420.287,-36.475 415.608,-31.057 				"/>
			</g>
		</g>
	</g>
	<g>
		<polygon fill="#EC7404" stroke="#FFFFFF" stroke-width="0.5" points="440.863,-23.991 444.277,-23.991 442.707,-12.215 		"/>
		<circle fill="#EC7404" cx="442.571" cy="-33" r="9.731"/>
		<g>
			<g>
				<path fill="#EC7404" d="M446.946-31.146c0,0.312-0.255,0.567-0.567,0.567h-9.54c-0.312,0-0.567-0.255-0.567-0.567V-36.6
					c0-0.312,0.255-0.567,0.567-0.567h9.54c0.312,0,0.567,0.255,0.567,0.567V-31.146z"/>
				<path fill="none" stroke="#FFFFFF" stroke-width="0.5" d="M446.946-31.146c0,0.312-0.255,0.567-0.567,0.567h-9.54
					c-0.312,0-0.567-0.255-0.567-0.567V-36.6c0-0.312,0.255-0.567,0.567-0.567h9.54c0.312,0,0.567,0.255,0.567,0.567V-31.146z"/>
			</g>
			<g>
				<path fill="#EC7404" d="M448.87-29.223c0,0.312-0.255,0.567-0.567,0.567h-9.54c-0.312,0-0.567-0.255-0.567-0.567v-5.454
					c0-0.312,0.255-0.567,0.567-0.567h9.54c0.312,0,0.567,0.255,0.567,0.567V-29.223z"/>
				<path fill="none" stroke="#FFFFFF" stroke-width="0.5" d="M448.87-29.223c0,0.312-0.255,0.567-0.567,0.567h-9.54
					c-0.312,0-0.567-0.255-0.567-0.567v-5.454c0-0.312,0.255-0.567,0.567-0.567h9.54c0.312,0,0.567,0.255,0.567,0.567V-29.223z"/>
			</g>
		</g>
	</g>
	<g>
		<polygon fill="#EC7404" stroke="#FFFFFF" stroke-width="0.5" points="347.446,111.747 350.859,111.747 349.29,123.522 		"/>
		<circle fill="#EC7404" cx="349.153" cy="102.714" r="9.731"/>
		<g>
			<path fill="#FFFFFF" d="M346.024,104.403h6.294v-0.557h-6.294V104.403z M346.024,106.1h6.294v-0.557h-6.294V106.1z
				 M346.024,101.057h6.294v-0.558h-6.294V101.057z M346.024,102.721h6.294v-0.557h-6.294V102.721z M353.024,108.03h-7.744V96.847
				h5.521v2.222h2.223V108.03z M344.723,108.589 M351.36,96.917l1.594,1.592h-1.594V96.917z M351.519,96.288h-6.796v12.301h8.86
				V98.35L351.519,96.288z"/>
		</g>
	</g>
	<g>
		<polygon fill="#EC7404" stroke="#FFFFFF" stroke-width="0.5" points="261.69,-23.968 265.104,-23.968 263.533,-12.192 		"/>
		<circle fill="#EC7404" cx="263.397" cy="-33.001" r="9.731"/>
		<g>
			<g>
				<path fill="#FFFFFF" d="M268.454-33.723c-0.002-0.272-0.025-0.522-0.083-0.758c-0.046-0.183-0.114-0.358-0.217-0.517
					c-0.152-0.24-0.387-0.429-0.656-0.535c-0.269-0.108-0.564-0.149-0.898-0.149c-0.295,0-0.563,0.033-0.811,0.114
					c-0.185,0.062-0.357,0.153-0.505,0.277c-0.223,0.186-0.377,0.438-0.463,0.709c-0.086,0.264-0.118,0.55-0.119,0.862l-0.569,4.806
					h1.198v2.099h0.97v-2.099h0.6v2.099h0.97v-2.099h1.204L268.454-33.723z"/>
				<path fill="#FFFFFF" d="M260.08-36.128c0.872,0,1.576-0.707,1.576-1.577c0-0.871-0.704-1.577-1.576-1.577
					c-0.87,0-1.575,0.706-1.576,1.577C258.505-36.834,259.21-36.128,260.08-36.128 M260.08-35.59
					c-1.305,0.001-2.36,1.057-2.36,2.361v2.469h1.092v3.943h0.969v-3.943h0.6v3.943h0.97v-3.943h1.091v-2.469
					C262.44-34.534,261.385-35.589,260.08-35.59"/>
			</g>
			<circle fill="#FFFFFF" cx="266.494" cy="-37.707" r="1.584"/>
		</g>
	</g>
	<g>
		<polygon fill="#EC7404" stroke="#FFFFFF" stroke-width="0.5" points="389.554,-23.968 392.967,-23.968 391.397,-12.192 		"/>
		<circle fill="#EC7404" cx="391.26" cy="-33" r="9.731"/>
		<text transform="matrix(1 0 0 1 389.5 -25.1201)" fill="#FFFFFF" font-family="'DejaVuSansCondensed-Bold'" font-size="5"></text>
		<polygon fill="none" stroke="#FFFFFF" stroke-width="0.5" points="387.342,-35.379 391.212,-30.704 395.081,-35.379 
			393.128,-35.379 393.128,-40.501 389.295,-40.501 389.295,-35.379 		"/>
	</g>
	<g>
		<polygon fill="#EC7404" stroke="#FFFFFF" stroke-width="0.5" points="323.357,102.365 326.771,102.365 325.2,114.141 		"/>
		<circle fill="#EC7404" cx="325.064" cy="93.332" r="9.731"/>
		<g>
			<g>
				<path fill="#FFFFFF" d="M330.121,92.61c-0.002-0.272-0.025-0.522-0.083-0.758c-0.046-0.183-0.114-0.358-0.217-0.517
					c-0.152-0.24-0.387-0.429-0.656-0.535c-0.269-0.108-0.564-0.149-0.898-0.149c-0.295,0-0.563,0.033-0.811,0.114
					c-0.185,0.062-0.357,0.153-0.505,0.277c-0.223,0.186-0.377,0.438-0.463,0.709c-0.086,0.264-0.118,0.55-0.119,0.862l-0.569,4.806
					h1.198v2.099h0.97v-2.099h0.6v2.099h0.97v-2.099h1.204L330.121,92.61z"/>
				<path fill="#FFFFFF" d="M321.747,90.205c0.872,0,1.576-0.707,1.576-1.577c0-0.871-0.704-1.577-1.576-1.577
					c-0.87,0-1.575,0.706-1.576,1.577C320.172,89.499,320.877,90.205,321.747,90.205 M321.747,90.743
					c-1.305,0.001-2.36,1.057-2.36,2.361v2.469h1.092v3.943h0.969v-3.943h0.6v3.943h0.97v-3.943h1.091v-2.469
					C324.107,91.799,323.052,90.744,321.747,90.743"/>
			</g>
			<circle fill="#FFFFFF" cx="328.161" cy="88.626" r="1.584"/>
		</g>
	</g>
	<g>
		<polygon fill="#EC7404" points="294.311,112.193 297.725,112.193 296.154,123.969 		"/>
		<circle fill="#EC7404" cx="296.018" cy="103.183" r="9.731"/>
		<g>
			<g>
				<path fill="none" stroke="#FFFFFF" stroke-width="0.5" d="M300.505,108.978c0,0.312-0.255,0.567-0.566,0.567h-7.84
					c-0.312,0-0.567-0.255-0.567-0.567V97.471c0-0.312,0.255-0.567,0.567-0.567h7.84c0.312,0,0.566,0.255,0.566,0.567V108.978z"/>
			</g>
		</g>
		<path fill="#FFFFFF" d="M296.018,101.555c0.743,0,1.342-0.601,1.342-1.342s-0.599-1.342-1.342-1.342
			c-0.74,0-1.34,0.601-1.341,1.342C294.678,100.954,295.277,101.555,296.018,101.555 M296.018,102.013
			c-1.11,0-2.009,0.899-2.009,2.01v2.102h0.93v3.357h0.824v-3.357h0.511v3.357h0.825v-3.357h0.929v-2.102
			C298.027,102.912,297.129,102.014,296.018,102.013"/>
	</g>
</g>
</svg>
