<?xml version="1.0" encoding="utf-8"?>
<!-- Generator: Adobe Illustrator 16.0.0, SVG Export Plug-In . SVG Version: 6.00 Build 0)  -->
<!DOCTYPE svg PUBLIC "-//W3C//DTD SVG 1.1//EN" "http://www.w3.org/Graphics/SVG/1.1/DTD/svg11.dtd">
<svg version="1.1" xmlns="http://www.w3.org/2000/svg" xmlns:xlink="http://www.w3.org/1999/xlink" x="0px" y="0px"
	 width="595.275px" height="419.527px" viewBox="0 0 595.275 419.527" enable-background="new 0 0 595.275 419.527"
	 xml:space="preserve">
<g id="Ebene_3">
</g>
<g id="Ebene_1">
	<g>
		<g>
			<g enable-background="new    ">
				<defs>
					<polygon id="SVGID_1_" enable-background="new    " points="212.008,166.044 329.262,97.901 439.358,161.47 322.104,229.613 
											"/>
				</defs>
				<clipPath id="SVGID_2_">
					<use xlink:href="#SVGID_1_"  overflow="visible"/>
				</clipPath>
				<g clip-path="url(#SVGID_2_)">
					<g>
						<g>
							<g>
								<polyline fill="#EC7405" points="325.851,117.148 310.949,108.544 306.015,111.412 320.916,120.016 325.851,117.148 
																	"/>
								<polyline fill="#EC7405" points="336.013,111.242 321.111,102.638 313.493,107.066 328.395,115.67 336.013,111.242 								
									"/>
								<path fill="#EC7405" d="M340.568,119.091l0.952-0.553l3.729,2.153l-0.952,0.553l-1.583-0.915l-1.408,0.819l1.583,0.914
									l-0.951,0.553l-3.729-2.153l0.951-0.553l1.424,0.822l1.408-0.818L340.568,119.091 M345.819,118.029
									c0.312-0.107,0.616-0.151,0.902-0.133c0.293,0.015,0.562,0.096,0.811,0.239c0.37,0.214,0.511,0.458,0.418,0.734
									c-0.088,0.273-0.398,0.564-0.938,0.877c-0.19,0.11-0.399,0.21-0.616,0.306c-0.222,0.092-0.457,0.177-0.711,0.251
									l-0.74-0.428c0.273-0.055,0.515-0.114,0.737-0.191c0.222-0.078,0.419-0.163,0.59-0.262c0.254-0.148,0.399-0.284,0.449-0.417
									c0.044-0.129-0.02-0.239-0.187-0.335c-0.166-0.096-0.356-0.132-0.586-0.103c-0.229,0.029-0.47,0.125-0.736,0.28
									l-0.387,0.225l-0.619-0.357l0.405-0.236c0.235-0.136,0.381-0.266,0.418-0.376c0.044-0.114-0.014-0.213-0.167-0.302
									c-0.146-0.085-0.312-0.115-0.503-0.092c-0.191,0.022-0.394,0.096-0.597,0.214c-0.158,0.092-0.299,0.188-0.419,0.302
									c-0.126,0.11-0.228,0.229-0.316,0.361l-0.702-0.405c0.133-0.144,0.278-0.273,0.443-0.398
									c0.158-0.122,0.323-0.232,0.508-0.339c0.475-0.276,0.913-0.442,1.314-0.49c0.394-0.044,0.751,0.022,1.07,0.207
									c0.223,0.129,0.338,0.262,0.365,0.409C346.053,117.716,345.984,117.867,345.819,118.029 M350.695,119.412l-0.268-0.155
									l-5.843-3.373l-0.274-0.159l-0.266,0.155l-13.753,7.992l-0.266,0.155l0.268,0.155l5.849,3.377l0.268,0.155l0.267-0.155
									l13.753-7.992L350.695,119.412"/>
								<polyline fill="#CFD0D2" points="318.379,121.491 303.477,112.887 297.901,116.127 312.803,124.731 318.379,121.491 
																	"/>
								<polyline fill="#CFD0D2" points="359.307,207.992 342.649,198.374 337.575,201.323 354.232,210.941 359.307,207.992 
																	"/>
								<path fill="#CFD0D2" d="M269.78,166.125l51.798-30.103l52.137,30.104l-51.798,30.103L269.78,166.125 M341.766,114.564
									l-3.192-1.843l-25.747,14.963l-17.462-10.083l-8.722,5.069l14.78,8.534l2.682,1.548l5.746,3.317l-39.118,22.734
									l-13.955,8.11l33.833,19.534l19.798,11.432l14.04,8.106l19.211,11.092l8.03-4.667l-19.211-11.092l7.612-4.424l-3.404-1.965
									l49.059-28.511l-38.097-21.997l-20.328-11.737l6.552-3.808l-8.396-4.848L341.766,114.564"/>
								<path fill="#BDD4E4" d="M245.762,159.202c-0.217-0.125-0.428-0.195-0.619-0.209c-0.19-0.015-0.369,0.029-0.533,0.125
									c-0.171,0.1-0.241,0.199-0.221,0.313c0.026,0.11,0.154,0.228,0.371,0.354c0.217,0.125,0.421,0.199,0.612,0.214
									c0.197,0.011,0.369-0.029,0.54-0.129c0.165-0.096,0.241-0.199,0.214-0.31C246.101,159.45,245.979,159.328,245.762,159.202
									 M231.486,164.555l0.958-0.557l3.722,2.149l-0.958,0.557l-1.577-0.91l-1.408,0.818l1.577,0.911l-0.951,0.553l-3.722-2.149
									l0.951-0.553l1.417,0.818l1.408-0.818L231.486,164.555 M236.736,163.494c0.312-0.107,0.616-0.151,0.903-0.133
									c0.292,0.015,0.56,0.097,0.809,0.24c0.371,0.214,0.512,0.457,0.424,0.73c-0.094,0.276-0.404,0.567-0.943,0.881
									c-0.19,0.11-0.4,0.21-0.615,0.306c-0.223,0.092-0.457,0.177-0.706,0.248l-0.741-0.428c0.268-0.052,0.509-0.118,0.731-0.188
									c0.222-0.078,0.413-0.166,0.584-0.266c0.254-0.147,0.412-0.284,0.456-0.413c0.044-0.129-0.014-0.243-0.18-0.339
									c-0.166-0.096-0.363-0.129-0.592-0.1c-0.229,0.029-0.477,0.122-0.743,0.276l-0.38,0.221l-0.613-0.354l0.4-0.232
									c0.241-0.14,0.38-0.266,0.417-0.376c0.044-0.114-0.014-0.214-0.167-0.302c-0.147-0.085-0.312-0.115-0.503-0.092
									c-0.191,0.022-0.394,0.088-0.603,0.21c-0.153,0.089-0.292,0.192-0.412,0.306c-0.121,0.107-0.228,0.229-0.31,0.357
									l-0.702-0.405c0.126-0.14,0.278-0.273,0.437-0.395c0.159-0.122,0.33-0.236,0.507-0.339c0.482-0.281,0.914-0.443,1.314-0.491
									c0.401-0.048,0.751,0.022,1.07,0.207c0.217,0.125,0.339,0.262,0.365,0.409C236.971,163.18,236.901,163.331,236.736,163.494
									 M239.205,163.265l0.894-0.52l0.964,0.557l-0.894,0.52L239.205,163.265 M238.356,160.769l0.678-0.601l0.907-0.527
									l3.064,1.77l0.844-0.49l0.657,0.379l-2.588,1.504l-0.658-0.379l0.843-0.49l-2.407-1.39l-0.684,0.604L238.356,160.769
									 M243.618,159.258c0.024-0.11,0.087-0.214,0.169-0.313c0.088-0.096,0.209-0.188,0.361-0.276
									c0.375-0.218,0.788-0.332,1.246-0.339c0.458-0.007,0.866,0.096,1.224,0.302c0.402,0.232,0.588,0.494,0.571,0.778
									c-0.018,0.291-0.245,0.564-0.683,0.818c-0.482,0.28-1.016,0.398-1.608,0.365c-0.585-0.037-1.185-0.229-1.785-0.575
									c-0.613-0.354-0.946-0.722-0.986-1.106c-0.047-0.379,0.199-0.729,0.732-1.04c0.17-0.099,0.354-0.184,0.545-0.265
									c0.184-0.078,0.38-0.147,0.591-0.21l0.689,0.398c-0.229,0.052-0.432,0.104-0.609,0.163
									c-0.172,0.062-0.331,0.133-0.457,0.207c-0.286,0.166-0.431,0.339-0.43,0.523
									C243.189,158.871,243.33,159.062,243.618,159.258 M265.641,158.804l-20.654-11.925l-32.979,19.166l20.648,11.922
									l19.791-11.494l1.776-1.033L265.641,158.804"/>
								<path fill="#BDD4E4" d="M387.249,152.187c-0.179-0.103-0.369-0.154-0.561-0.155c-0.191,0-0.375,0.056-0.559,0.163
									c-0.185,0.107-0.279,0.213-0.279,0.324c0.002,0.111,0.091,0.221,0.27,0.324c0.179,0.104,0.364,0.151,0.555,0.151
									c0.19,0,0.381-0.052,0.565-0.159c0.184-0.107,0.272-0.218,0.271-0.328C387.512,152.397,387.428,152.291,387.249,152.187
									 M385.414,149.438c-0.211-0.122-0.453-0.151-0.732-0.092c-0.267,0.059-0.643,0.225-1.105,0.494s-0.747,0.487-0.861,0.649
									c-0.101,0.163-0.049,0.302,0.162,0.424c0.204,0.118,0.439,0.144,0.72,0.085c0.286-0.062,0.66-0.229,1.123-0.498
									s0.749-0.487,0.843-0.645C385.67,149.695,385.618,149.556,385.414,149.438 M388.759,151.31
									c-0.153-0.088-0.307-0.132-0.466-0.136c-0.164,0-0.317,0.044-0.457,0.125c-0.152,0.088-0.228,0.177-0.222,0.269
									c0.001,0.096,0.078,0.184,0.231,0.273c0.153,0.088,0.306,0.133,0.472,0.133c0.152,0,0.312-0.041,0.464-0.129
									c0.146-0.084,0.209-0.173,0.215-0.265C388.988,151.487,388.912,151.398,388.759,151.31 M379.355,149.548l0.958-0.557
									l0.895,0.517l-0.958,0.557L379.355,149.548 M375.235,144.516l1.417,0.818l1.408-0.818l0.959,0.553l-3.698,2.149
									l-0.958-0.553l1.566-0.911l-1.418-0.818l-1.566,0.911l-0.964-0.557l3.698-2.149l0.964,0.556L375.235,144.516
									 M378.947,145.939l0.698-0.406c0.241,0.081,0.466,0.166,0.682,0.254c0.217,0.096,0.409,0.192,0.588,0.295
									c0.485,0.28,0.766,0.538,0.851,0.763c0.084,0.232-0.035,0.442-0.353,0.627c-0.216,0.125-0.451,0.195-0.706,0.21
									c-0.248,0.011-0.521-0.03-0.797-0.129c0.187,0.188,0.264,0.358,0.239,0.528c-0.031,0.165-0.17,0.32-0.418,0.464
									c-0.367,0.214-0.786,0.295-1.258,0.244s-0.981-0.236-1.524-0.549c-0.191-0.11-0.371-0.229-0.529-0.357
									c-0.161-0.129-0.308-0.266-0.43-0.409l0.736-0.428c0.09,0.155,0.199,0.299,0.333,0.428c0.135,0.129,0.282,0.243,0.454,0.342
									c0.255,0.147,0.491,0.233,0.714,0.258c0.224,0.026,0.414-0.004,0.578-0.1c0.172-0.1,0.229-0.214,0.184-0.343
									c-0.059-0.129-0.219-0.273-0.493-0.431l-0.383-0.221l0.615-0.358l0.402,0.232c0.242,0.14,0.459,0.221,0.656,0.247
									c0.191,0.022,0.363-0.011,0.516-0.1c0.14-0.081,0.196-0.181,0.164-0.288c-0.039-0.11-0.167-0.229-0.378-0.35
									c-0.153-0.088-0.325-0.166-0.517-0.24C379.375,146.053,379.17,145.994,378.947,145.939 M382.229,151.288
									c-0.492-0.284-0.703-0.597-0.636-0.948c0.062-0.347,0.404-0.7,1.013-1.054c0.615-0.357,1.225-0.557,1.823-0.594
									c0.604-0.04,1.146,0.081,1.638,0.365c0.484,0.28,0.696,0.593,0.629,0.943c-0.062,0.347-0.409,0.697-1.024,1.055
									c-0.609,0.354-1.213,0.557-1.812,0.593C383.256,151.689,382.714,151.568,382.229,151.288 M385.523,153.19
									c-0.485-0.28-0.753-0.545-0.812-0.792c-0.059-0.254,0.093-0.483,0.461-0.697c0.241-0.14,0.502-0.217,0.781-0.232
									c0.287-0.018,0.592,0.026,0.911,0.129c-0.16-0.166-0.225-0.328-0.2-0.476c0.024-0.147,0.145-0.284,0.354-0.405
									c0.312-0.181,0.668-0.247,1.069-0.206c0.394,0.037,0.821,0.188,1.274,0.449c0.454,0.262,0.716,0.509,0.78,0.737
									c0.078,0.229-0.048,0.435-0.358,0.616c-0.21,0.122-0.445,0.192-0.699,0.207c-0.255,0.015-0.535-0.022-0.821-0.114
									c0.179,0.184,0.257,0.361,0.231,0.531c-0.024,0.163-0.157,0.313-0.398,0.454c-0.367,0.214-0.762,0.302-1.201,0.269
									C386.468,153.625,386.009,153.47,385.523,153.19 M408.586,153.146l-35.536-20.519l-20.305,11.8l35.536,20.519
									L408.586,153.146"/>
								<path fill="#BDD4E4" d="M268.486,143.052l0.958-0.557l3.722,2.149l-0.958,0.557l-1.577-0.911l-1.402,0.814l1.577,0.911
									l-0.958,0.557l-3.722-2.149l0.958-0.557l1.417,0.818l1.402-0.815L268.486,143.052 M273.736,141.991
									c0.312-0.107,0.616-0.151,0.909-0.137c0.287,0.019,0.554,0.1,0.803,0.244c0.371,0.214,0.512,0.457,0.424,0.73
									s-0.404,0.567-0.943,0.881c-0.19,0.111-0.4,0.21-0.616,0.306c-0.222,0.092-0.457,0.177-0.705,0.247l-0.741-0.428
									c0.267-0.052,0.508-0.118,0.737-0.192c0.216-0.074,0.413-0.166,0.578-0.261c0.253-0.147,0.412-0.284,0.456-0.413
									s-0.014-0.244-0.18-0.339s-0.363-0.129-0.593-0.1c-0.222,0.026-0.476,0.122-0.743,0.277l-0.38,0.221l-0.613-0.354
									l0.399-0.232c0.241-0.14,0.38-0.266,0.424-0.38c0.038-0.11-0.021-0.21-0.173-0.298c-0.147-0.085-0.313-0.114-0.503-0.092
									c-0.191,0.022-0.395,0.089-0.604,0.21c-0.152,0.088-0.292,0.191-0.405,0.302c-0.127,0.11-0.234,0.232-0.316,0.361
									l-0.702-0.405c0.133-0.144,0.278-0.273,0.437-0.395c0.159-0.122,0.33-0.236,0.507-0.339c0.482-0.28,0.92-0.446,1.314-0.49
									c0.401-0.048,0.758,0.018,1.077,0.203c0.217,0.125,0.339,0.262,0.365,0.409
									C273.976,141.674,273.901,141.828,273.736,141.991 M276.21,141.759l0.888-0.517l0.964,0.557l-0.888,0.517L276.21,141.759
									 M275.356,139.267l0.684-0.605l0.907-0.527l3.065,1.77l0.837-0.486l0.657,0.379l-2.581,1.5l-0.658-0.38l0.837-0.486
									l-2.407-1.39l-0.684,0.604L275.356,139.267 M278.223,137.394l2.785-1.618l0.542,0.313l1.74,2.672l-0.926,0.539l-1.649-2.533
									l-1.783,1.036L278.223,137.394 M304.753,136.074l-20.655-11.926l-36.575,21.256l20.654,11.926L304.753,136.074"/>
								<path fill="#BDD4E4" d="M355.112,129.626c-0.466-0.269-0.837-0.431-1.116-0.49c-0.274-0.063-0.516-0.033-0.726,0.088
									c-0.203,0.118-0.253,0.258-0.15,0.42c0.103,0.162,0.391,0.372,0.856,0.641c0.473,0.273,0.843,0.442,1.123,0.501
									s0.522,0.03,0.726-0.088c0.202-0.118,0.252-0.258,0.149-0.42C355.872,130.117,355.585,129.899,355.112,129.626
									 M344.799,133.468l0.958-0.557l3.722,2.149l-0.958,0.557l-1.576-0.91l-1.402,0.814l1.577,0.911l-0.958,0.557l-3.723-2.149
									l0.958-0.557l1.424,0.822l1.402-0.815L344.799,133.468 M350.049,132.406c0.312-0.107,0.616-0.151,0.91-0.137
									c0.286,0.019,0.554,0.1,0.803,0.244c0.37,0.213,0.505,0.453,0.424,0.729c-0.087,0.273-0.403,0.568-0.942,0.881
									c-0.19,0.11-0.4,0.21-0.616,0.306c-0.223,0.092-0.463,0.174-0.705,0.248l-0.74-0.428c0.267-0.051,0.509-0.118,0.736-0.192
									c0.217-0.074,0.413-0.166,0.579-0.262c0.253-0.147,0.411-0.284,0.455-0.413s-0.015-0.243-0.181-0.339
									c-0.165-0.096-0.363-0.129-0.592-0.1c-0.223,0.025-0.477,0.122-0.743,0.276l-0.38,0.221l-0.613-0.354l0.399-0.232
									c0.241-0.14,0.38-0.265,0.418-0.376c0.044-0.114-0.014-0.214-0.168-0.303c-0.146-0.084-0.312-0.114-0.503-0.092
									c-0.197,0.019-0.394,0.089-0.604,0.21c-0.152,0.088-0.291,0.192-0.405,0.302c-0.127,0.111-0.233,0.232-0.316,0.361
									l-0.702-0.405c0.133-0.144,0.278-0.273,0.437-0.395c0.159-0.122,0.33-0.236,0.508-0.339c0.481-0.28,0.921-0.446,1.314-0.49
									c0.401-0.047,0.758,0.019,1.076,0.203c0.218,0.126,0.34,0.262,0.365,0.409C350.289,132.089,350.214,132.244,350.049,132.406
									 M352.523,132.174l0.889-0.516l0.963,0.556l-0.888,0.516L352.523,132.174 M353.025,130.847
									c-0.62-0.358-0.959-0.708-1.03-1.058c-0.072-0.343,0.143-0.66,0.624-0.94c0.488-0.284,1.029-0.405,1.628-0.369
									c0.598,0.044,1.203,0.24,1.822,0.597c0.62,0.357,0.966,0.712,1.038,1.055c0.071,0.35-0.137,0.663-0.625,0.947
									c-0.482,0.28-1.029,0.405-1.627,0.361C354.257,131.403,353.645,131.204,353.025,130.847 M354.535,127.809l2.785-1.618
									l0.543,0.313l1.739,2.672l-0.927,0.538l-1.649-2.532l-1.782,1.036L354.535,127.809 M370.49,131.149l-17.775-10.264
									l-20.305,11.8l17.775,10.263L370.49,131.149"/>
								<path fill="#BDD4E4" d="M373.158,188.181c-0.466-0.269-0.843-0.435-1.123-0.494c-0.268-0.059-0.51-0.03-0.719,0.092
									c-0.203,0.118-0.253,0.258-0.156,0.417c0.103,0.162,0.396,0.376,0.862,0.645c0.466,0.27,0.836,0.439,1.116,0.498
									c0.287,0.062,0.529,0.033,0.732-0.085c0.203-0.118,0.252-0.258,0.144-0.424C373.911,188.668,373.624,188.45,373.158,188.181
									 M359.571,193.925l0.951-0.553l3.723,2.149l-0.952,0.553l-1.582-0.914l-1.408,0.818l1.582,0.914l-0.951,0.553l-3.723-2.149
									l0.952-0.553l1.417,0.818l1.408-0.818L359.571,193.925 M364.809,192.863c0.318-0.111,0.623-0.155,0.91-0.136
									c0.286,0.019,0.561,0.096,0.81,0.24c0.37,0.214,0.512,0.458,0.418,0.733c-0.088,0.273-0.404,0.568-0.938,0.877
									c-0.19,0.111-0.394,0.214-0.615,0.306c-0.229,0.096-0.457,0.177-0.712,0.25l-0.74-0.428
									c0.267-0.052,0.516-0.114,0.737-0.191c0.223-0.078,0.419-0.162,0.591-0.262c0.253-0.147,0.398-0.284,0.449-0.417
									c0.044-0.129-0.021-0.239-0.181-0.332c-0.172-0.099-0.369-0.133-0.592-0.107c-0.223,0.033-0.471,0.125-0.743,0.284
									l-0.381,0.221l-0.619-0.357l0.406-0.236c0.234-0.136,0.374-0.261,0.418-0.376c0.037-0.111-0.014-0.214-0.168-0.303
									c-0.14-0.081-0.312-0.114-0.503-0.092c-0.19,0.022-0.394,0.096-0.597,0.214c-0.159,0.092-0.298,0.188-0.419,0.302
									c-0.126,0.11-0.228,0.229-0.315,0.361l-0.703-0.406c0.14-0.14,0.279-0.273,0.443-0.398c0.159-0.121,0.323-0.232,0.502-0.335
									c0.481-0.28,0.92-0.446,1.32-0.494c0.394-0.044,0.758,0.025,1.076,0.209c0.218,0.125,0.34,0.262,0.359,0.406
									C365.049,192.546,364.98,192.697,364.809,192.863 M367.29,192.635l0.895-0.52l0.964,0.556l-0.895,0.52L367.29,192.635
									 M366.442,190.139l0.677-0.601l0.907-0.527l3.059,1.766l0.844-0.49l0.664,0.383l-2.588,1.504l-0.664-0.383l0.844-0.491
									l-2.407-1.39l-0.684,0.605L366.442,190.139 M371.071,189.402c-0.619-0.358-0.966-0.712-1.03-1.059
									c-0.078-0.346,0.136-0.663,0.618-0.943c0.488-0.284,1.028-0.406,1.633-0.365c0.593,0.041,1.205,0.24,1.824,0.598
									c0.612,0.354,0.958,0.708,1.03,1.05c0.072,0.35-0.137,0.664-0.625,0.948c-0.481,0.28-1.028,0.405-1.627,0.361
									C372.296,189.954,371.684,189.755,371.071,189.402 M392.717,188.576l-20.066-11.586l-30.867,17.938l20.067,11.586
									L392.717,188.576"/>
								<path fill="#BDD4E4" d="M406.669,168.706c-0.466-0.269-0.843-0.435-1.116-0.498c-0.273-0.055-0.516-0.026-0.719,0.092
									c-0.209,0.122-0.259,0.262-0.156,0.417c0.103,0.162,0.391,0.38,0.855,0.648c0.467,0.269,0.843,0.435,1.123,0.494
									c0.28,0.066,0.522,0.037,0.732-0.084c0.203-0.118,0.252-0.259,0.144-0.424C407.423,169.192,407.135,168.975,406.669,168.706
									 M409.139,166.501c-0.217-0.125-0.428-0.195-0.618-0.21c-0.191-0.015-0.375,0.026-0.547,0.125
									c-0.165,0.096-0.234,0.203-0.208,0.313c0.026,0.111,0.147,0.232,0.364,0.358c0.218,0.125,0.422,0.191,0.612,0.206
									c0.191,0.015,0.376-0.025,0.54-0.121c0.172-0.1,0.241-0.207,0.215-0.317C409.471,166.745,409.355,166.627,409.139,166.501
									 M396.362,172.543l0.951-0.553l3.723,2.149l-0.952,0.553l-1.583-0.914l-1.408,0.819l1.583,0.914l-0.951,0.553l-3.723-2.149
									l0.952-0.553l1.417,0.818l1.408-0.818L396.362,172.543 M401.6,171.482c0.317-0.111,0.623-0.155,0.91-0.136
									c0.286,0.019,0.56,0.096,0.81,0.24c0.37,0.213,0.512,0.457,0.417,0.733c-0.088,0.272-0.403,0.568-0.937,0.877
									c-0.19,0.11-0.394,0.213-0.616,0.306c-0.229,0.096-0.456,0.177-0.711,0.25l-0.741-0.427
									c0.268-0.052,0.516-0.114,0.737-0.192c0.223-0.077,0.42-0.162,0.591-0.262c0.254-0.147,0.399-0.284,0.443-0.413
									c0.05-0.133-0.014-0.243-0.174-0.336c-0.172-0.099-0.37-0.132-0.593-0.106c-0.223,0.033-0.47,0.125-0.742,0.284
									l-0.381,0.221l-0.619-0.357l0.405-0.236c0.235-0.136,0.374-0.261,0.418-0.376c0.037-0.11-0.014-0.213-0.167-0.302
									c-0.141-0.081-0.312-0.114-0.503-0.092c-0.19,0.022-0.395,0.096-0.598,0.214c-0.158,0.092-0.298,0.188-0.418,0.303
									c-0.127,0.11-0.228,0.229-0.316,0.361l-0.702-0.406c0.14-0.14,0.278-0.272,0.437-0.394c0.166-0.125,0.33-0.236,0.508-0.339
									c0.481-0.28,0.92-0.445,1.321-0.494c0.394-0.044,0.757,0.026,1.076,0.21c0.217,0.125,0.339,0.262,0.358,0.405
									C401.84,171.165,401.771,171.316,401.6,171.482 M404.081,171.253l0.895-0.52l0.964,0.557l-0.896,0.52L404.081,171.253
									 M404.589,169.923c-0.619-0.357-0.972-0.708-1.037-1.055c-0.071-0.35,0.136-0.664,0.625-0.947
									c0.481-0.28,1.022-0.402,1.627-0.361c0.598,0.037,1.211,0.236,1.83,0.594c0.612,0.354,0.958,0.708,1.024,1.054
									c0.071,0.35-0.137,0.664-0.619,0.944c-0.488,0.284-1.028,0.405-1.633,0.365
									C405.807,170.479,405.201,170.276,404.589,169.923 M407.274,167.659c-0.402-0.232-0.588-0.494-0.577-0.782
									c0.023-0.288,0.251-0.56,0.683-0.811c0.481-0.28,1.017-0.405,1.614-0.368c0.592,0.033,1.186,0.229,1.779,0.571
									c0.619,0.357,0.945,0.723,0.986,1.106c0.053,0.383-0.2,0.729-0.739,1.043c-0.171,0.1-0.355,0.192-0.54,0.269
									c-0.184,0.078-0.374,0.144-0.577,0.203l-0.69-0.398c0.224-0.048,0.427-0.099,0.599-0.162c0.177-0.059,0.33-0.125,0.47-0.206
									c0.278-0.163,0.418-0.339,0.416-0.524c0-0.184-0.136-0.373-0.423-0.567c-0.024,0.11-0.088,0.213-0.17,0.313
									c-0.089,0.096-0.203,0.192-0.354,0.28c-0.375,0.217-0.794,0.328-1.252,0.335
									C408.052,167.969,407.638,167.869,407.274,167.659 M431.207,166.207l-20.066-11.587l-35.953,20.895l20.066,11.586
									L431.207,166.207"/>
								<path fill="#BDD4E4" d="M295.365,195.985l-1.558-0.899l0.512,1.508L295.365,195.985 M281.757,201.172l0.951-0.553
									l3.722,2.149l-0.951,0.553l-1.577-0.911l-1.408,0.818l1.577,0.911l-0.958,0.557l-3.722-2.148l0.958-0.557l1.417,0.818
									l1.408-0.818L281.757,201.172 M287.001,200.114c0.317-0.111,0.616-0.151,0.908-0.136c0.287,0.018,0.561,0.096,0.81,0.24
									c0.37,0.213,0.499,0.457,0.418,0.733c-0.087,0.273-0.404,0.568-0.943,0.881c-0.184,0.107-0.4,0.21-0.616,0.306
									c-0.222,0.092-0.463,0.173-0.704,0.247l-0.741-0.428c0.267-0.051,0.508-0.118,0.737-0.191
									c0.222-0.078,0.413-0.166,0.584-0.266c0.254-0.148,0.405-0.281,0.449-0.41c0.05-0.132-0.014-0.243-0.18-0.339
									c-0.166-0.095-0.363-0.128-0.585-0.103c-0.229,0.029-0.477,0.122-0.75,0.28l-0.381,0.221l-0.613-0.354l0.399-0.232
									c0.242-0.14,0.381-0.266,0.425-0.38c0.038-0.11-0.02-0.21-0.173-0.298c-0.146-0.085-0.312-0.115-0.498-0.096
									c-0.197,0.019-0.4,0.092-0.61,0.214c-0.152,0.088-0.285,0.188-0.405,0.302c-0.127,0.111-0.228,0.229-0.316,0.361
									l-0.702-0.405c0.132-0.144,0.278-0.272,0.437-0.395c0.165-0.125,0.329-0.236,0.507-0.339c0.482-0.28,0.92-0.446,1.314-0.49
									c0.401-0.047,0.758,0.019,1.077,0.203c0.217,0.125,0.338,0.262,0.365,0.409C287.24,199.797,287.166,199.952,287.001,200.114
									 M289.475,199.882l0.888-0.516l0.964,0.556l-0.888,0.516L289.475,199.882 M288.621,197.39l0.684-0.604l0.907-0.527
									l3.058,1.766l0.844-0.49l0.664,0.383l-2.588,1.504l-0.664-0.383l0.843-0.49l-2.407-1.39l-0.684,0.611L288.621,197.39
									 M293.601,196.863l-0.744-2.142l1.065-0.619l2.349,1.356l0.526-0.306l0.696,0.402l-0.526,0.306l0.676,0.391l-0.907,0.527
									l-0.676-0.39l-1.636,0.951L293.601,196.863 M307.87,199.355l-19.798-11.432l-19.023,11.055l19.799,11.432L307.87,199.355"/>
								<path fill="#BDD4E4" d="M314.607,216.024l0.958-0.557l0.894,0.517l-0.958,0.557L314.607,216.024 M310.487,210.993
									l1.417,0.819l1.408-0.819l0.958,0.553l-3.698,2.148l-0.957-0.553l1.566-0.91l-1.418-0.818l-1.566,0.91l-0.958-0.553
									l3.698-2.149l0.958,0.553L310.487,210.993 M319.211,215.36l0.653-0.379l1.046,0.398l0.913,0.527l-3.038,1.766l0.849,0.49
									l-0.659,0.383l-2.605-1.504l0.659-0.383l0.85,0.49l2.392-1.391L319.211,215.36 M314.192,212.419l0.704-0.409
									c0.243,0.081,0.466,0.166,0.676,0.258c0.218,0.097,0.415,0.188,0.594,0.292c0.485,0.28,0.767,0.538,0.845,0.767
									c0.084,0.232-0.029,0.438-0.347,0.623c-0.216,0.126-0.451,0.195-0.705,0.21c-0.255,0.015-0.522-0.029-0.803-0.125
									c0.192,0.185,0.264,0.357,0.238,0.527c-0.03,0.166-0.163,0.324-0.41,0.468c-0.362,0.21-0.788,0.287-1.26,0.236
									c-0.477-0.049-0.98-0.236-1.523-0.55c-0.186-0.107-0.37-0.229-0.531-0.357c-0.159-0.129-0.3-0.262-0.434-0.405l0.735-0.428
									c0.09,0.154,0.205,0.295,0.339,0.424c0.128,0.133,0.282,0.243,0.455,0.343c0.255,0.147,0.49,0.232,0.714,0.259
									c0.223,0.032,0.413-0.004,0.578-0.101c0.164-0.096,0.228-0.214,0.177-0.339c-0.052-0.133-0.212-0.276-0.486-0.435
									l-0.383-0.222l0.615-0.357l0.401,0.232c0.242,0.14,0.46,0.221,0.651,0.251c0.19,0.021,0.361-0.012,0.515-0.101
									c0.146-0.084,0.195-0.18,0.164-0.287c-0.032-0.114-0.161-0.232-0.372-0.354c-0.152-0.089-0.325-0.166-0.517-0.24
									C314.626,212.53,314.422,212.471,314.192,212.419 M322.474,217.201l0.704-0.409c0.242,0.08,0.465,0.165,0.683,0.261
									c0.21,0.093,0.407,0.185,0.593,0.292c0.479,0.276,0.761,0.534,0.845,0.767c0.078,0.229-0.036,0.435-0.353,0.619
									c-0.217,0.125-0.451,0.195-0.706,0.21s-0.515-0.025-0.802-0.125c0.192,0.185,0.269,0.361,0.238,0.527
									c-0.024,0.169-0.164,0.324-0.411,0.468c-0.362,0.21-0.781,0.291-1.259,0.236c-0.478-0.049-0.975-0.232-1.518-0.546
									c-0.191-0.11-0.371-0.229-0.53-0.357c-0.16-0.129-0.307-0.266-0.441-0.409l0.735-0.428c0.091,0.154,0.205,0.295,0.34,0.424
									c0.128,0.133,0.281,0.243,0.454,0.343c0.256,0.147,0.491,0.232,0.721,0.262c0.216,0.029,0.407-0.007,0.572-0.103
									c0.164-0.096,0.233-0.211,0.177-0.34c-0.053-0.133-0.213-0.276-0.487-0.435l-0.383-0.222l0.615-0.357l0.409,0.236
									c0.236,0.137,0.453,0.217,0.644,0.247c0.191,0.021,0.369-0.008,0.521-0.097c0.146-0.084,0.196-0.18,0.157-0.291
									c-0.032-0.114-0.16-0.232-0.364-0.35c-0.16-0.093-0.332-0.17-0.523-0.243C322.906,217.312,322.703,217.252,322.474,217.201
									 M341.128,218.558l-30.71-17.732l-19.023,11.055l30.71,17.732L341.128,218.558"/>
								<path fill="#BDD4E4" d="M259.062,183.953l0.958-0.557l0.894,0.516l-0.958,0.557L259.062,183.953 M254.941,178.921
									l1.417,0.818l1.408-0.818l0.958,0.553l-3.698,2.149l-0.958-0.553l1.567-0.911l-1.417-0.818l-1.566,0.911l-0.964-0.557
									l3.698-2.149l0.964,0.557L254.941,178.921 M263.665,183.289l0.653-0.379l1.046,0.398l0.913,0.527l-3.039,1.766l0.849,0.49
									l-0.66,0.383l-2.605-1.504l0.66-0.383l0.849,0.491l2.392-1.39L263.665,183.289 M265.678,185.899l2.081-1.209l2.388,1.378
									l-0.704,0.409l-1.621-0.936l-0.571,0.332c0.095,0.033,0.185,0.062,0.268,0.103c0.089,0.038,0.172,0.077,0.249,0.122
									c0.453,0.261,0.696,0.534,0.724,0.808c0.026,0.28-0.163,0.53-0.569,0.766c-0.4,0.232-0.844,0.335-1.347,0.31
									c-0.504-0.026-0.994-0.185-1.485-0.468c-0.21-0.122-0.396-0.25-0.568-0.395c-0.167-0.14-0.314-0.298-0.436-0.464
									l0.754-0.438c0.084,0.188,0.193,0.346,0.321,0.486c0.115,0.141,0.263,0.254,0.429,0.351c0.23,0.133,0.472,0.207,0.719,0.217
									c0.243,0.015,0.465-0.04,0.655-0.151c0.197-0.114,0.285-0.24,0.265-0.384c-0.026-0.14-0.154-0.279-0.384-0.412
									c-0.141-0.082-0.306-0.155-0.497-0.229C266.156,186.029,265.939,185.962,265.678,185.899 M258.646,180.348l0.704-0.409
									c0.243,0.081,0.466,0.166,0.676,0.258c0.217,0.096,0.415,0.188,0.593,0.292c0.485,0.28,0.767,0.539,0.844,0.767
									c0.084,0.232-0.029,0.439-0.346,0.623c-0.216,0.125-0.451,0.196-0.705,0.21c-0.255,0.015-0.522-0.029-0.803-0.125
									c0.192,0.184,0.263,0.357,0.238,0.527c-0.031,0.166-0.169,0.321-0.417,0.464c-0.362,0.21-0.781,0.291-1.253,0.239
									c-0.477-0.048-0.98-0.236-1.524-0.549c-0.191-0.11-0.371-0.229-0.53-0.357s-0.3-0.262-0.435-0.405l0.736-0.428
									c0.09,0.155,0.205,0.295,0.339,0.424c0.128,0.133,0.282,0.243,0.454,0.343c0.255,0.147,0.491,0.232,0.713,0.258
									c0.217,0.029,0.414-0.004,0.579-0.1c0.164-0.096,0.228-0.214,0.176-0.339c-0.051-0.132-0.211-0.276-0.487-0.435
									l-0.383-0.221l0.615-0.358l0.402,0.232c0.243,0.14,0.46,0.221,0.65,0.25c0.191,0.022,0.363-0.011,0.516-0.1
									c0.146-0.085,0.202-0.177,0.164-0.287c-0.04-0.119-0.161-0.232-0.372-0.354c-0.153-0.088-0.326-0.166-0.517-0.24
									C259.08,180.458,258.876,180.399,258.646,180.348 M285.518,186.448l-31.278-18.06l-19.023,11.056l31.285,18.063l9.515-5.529
									L285.518,186.448"/>
								<polyline fill="#FFFFFF" points="236.166,166.147 232.444,163.999 231.486,164.555 232.903,165.374 231.495,166.192 
									230.078,165.374 229.126,165.926 232.849,168.076 233.8,167.523 232.223,166.612 233.631,165.794 235.208,166.704 
									236.166,166.147 								"/>
								<path fill="#FFFFFF" d="M238.449,163.601c-0.249-0.144-0.517-0.225-0.809-0.24c-0.287-0.018-0.592,0.026-0.903,0.133
									c0.165-0.163,0.234-0.313,0.207-0.461c-0.026-0.147-0.147-0.284-0.365-0.409c-0.319-0.184-0.669-0.254-1.07-0.207
									c-0.4,0.048-0.832,0.21-1.314,0.491c-0.178,0.103-0.349,0.217-0.507,0.339c-0.158,0.122-0.31,0.254-0.437,0.395l0.702,0.405
									c0.082-0.129,0.189-0.25,0.31-0.357c0.12-0.114,0.259-0.217,0.412-0.306c0.209-0.122,0.412-0.188,0.603-0.21
									c0.191-0.022,0.356,0.007,0.503,0.092c0.153,0.088,0.211,0.188,0.167,0.302c-0.038,0.11-0.177,0.236-0.417,0.376l-0.4,0.232
									l0.613,0.354l0.38-0.221c0.267-0.155,0.514-0.247,0.743-0.276c0.229-0.03,0.426,0.003,0.592,0.1
									c0.166,0.096,0.225,0.21,0.18,0.339c-0.044,0.129-0.202,0.266-0.456,0.413c-0.172,0.1-0.362,0.188-0.584,0.266
									c-0.222,0.07-0.463,0.136-0.731,0.188l0.741,0.428c0.249-0.07,0.483-0.155,0.706-0.248c0.215-0.096,0.425-0.195,0.615-0.306
									c0.54-0.313,0.85-0.604,0.943-0.881C238.961,164.058,238.819,163.814,238.449,163.601"/>
								<polyline fill="#FFFFFF" points="241.062,163.302 240.099,162.745 239.205,163.265 240.168,163.822 241.062,163.302 
																	"/>
								<polyline fill="#FFFFFF" points="244.507,161.3 243.85,160.92 243.006,161.411 239.941,159.641 239.034,160.168 
									238.356,160.769 239.015,161.149 239.698,160.544 242.105,161.935 241.262,162.424 241.919,162.804 244.507,161.3 								
									"/>
								<path fill="#FFFFFF" d="M244.76,159.785c-0.217-0.125-0.345-0.243-0.371-0.354c-0.02-0.114,0.05-0.214,0.221-0.313
									c0.165-0.096,0.343-0.14,0.533-0.125c0.191,0.015,0.402,0.084,0.619,0.209c0.217,0.125,0.338,0.248,0.364,0.358
									c0.027,0.11-0.049,0.214-0.214,0.31c-0.171,0.1-0.343,0.14-0.54,0.129C245.181,159.984,244.977,159.91,244.76,159.785
									 M246.618,158.631c-0.357-0.207-0.765-0.31-1.224-0.302c-0.458,0.007-0.871,0.121-1.246,0.339
									c-0.152,0.088-0.272,0.181-0.361,0.276c-0.083,0.1-0.146,0.203-0.169,0.313c-0.288-0.196-0.429-0.387-0.43-0.571
									c0-0.185,0.144-0.357,0.43-0.523c0.126-0.074,0.285-0.144,0.457-0.207c0.177-0.059,0.381-0.11,0.609-0.163l-0.689-0.398
									c-0.21,0.063-0.407,0.133-0.591,0.21c-0.191,0.081-0.375,0.166-0.545,0.265c-0.534,0.31-0.779,0.66-0.732,1.04
									c0.04,0.384,0.373,0.752,0.986,1.106c0.6,0.347,1.199,0.539,1.785,0.575c0.592,0.033,1.126-0.085,1.608-0.365
									c0.438-0.254,0.665-0.527,0.683-0.818C247.206,159.125,247.02,158.863,246.618,158.631"/>
								<polyline fill="#FFFFFF" points="273.166,144.645 269.443,142.496 268.486,143.052 269.903,143.871 268.501,144.686 
									267.084,143.867 266.126,144.424 269.848,146.573 270.806,146.016 269.229,145.105 270.631,144.291 272.208,145.202 
									273.166,144.645 								"/>
								<path fill="#FFFFFF" d="M275.449,142.098c-0.249-0.144-0.517-0.225-0.803-0.244c-0.293-0.014-0.598,0.03-0.909,0.137
									c0.165-0.163,0.24-0.317,0.213-0.464c-0.026-0.147-0.147-0.284-0.365-0.409c-0.319-0.185-0.676-0.251-1.077-0.203
									c-0.394,0.044-0.832,0.21-1.314,0.49c-0.177,0.103-0.349,0.217-0.507,0.339c-0.158,0.122-0.304,0.25-0.437,0.395
									l0.702,0.405c0.082-0.129,0.189-0.25,0.316-0.361c0.113-0.111,0.253-0.214,0.405-0.302c0.209-0.122,0.413-0.188,0.604-0.21
									c0.19-0.022,0.356,0.007,0.503,0.092c0.153,0.088,0.211,0.188,0.173,0.298c-0.044,0.114-0.183,0.24-0.424,0.38l-0.399,0.232
									l0.613,0.354l0.38-0.221c0.267-0.155,0.521-0.251,0.743-0.277c0.229-0.029,0.427,0.004,0.593,0.1s0.224,0.21,0.18,0.339
									s-0.202,0.266-0.456,0.413c-0.165,0.096-0.362,0.188-0.578,0.261c-0.229,0.074-0.47,0.14-0.737,0.192l0.741,0.428
									c0.248-0.07,0.482-0.155,0.705-0.247c0.216-0.096,0.425-0.195,0.616-0.306c0.539-0.313,0.856-0.608,0.943-0.881
									S275.819,142.312,275.449,142.098"/>
								<polyline fill="#FFFFFF" points="278.063,141.799 277.099,141.242 276.21,141.759 277.175,142.315 278.063,141.799 								
									"/>
								<polyline fill="#FFFFFF" points="281.507,139.797 280.85,139.418 280.012,139.904 276.947,138.135 276.041,138.662 
									275.356,139.267 276.015,139.646 276.698,139.042 279.105,140.432 278.268,140.918 278.926,141.298 281.507,139.797 
																	"/>
								<polyline fill="#FFFFFF" points="281.55,136.089 281.007,135.775 278.223,137.394 278.931,137.803 280.714,136.767 
									282.363,139.3 283.29,138.761 281.55,136.089 								"/>
								<polyline fill="#FFFFFF" points="364.245,195.521 360.522,193.372 359.571,193.925 360.988,194.743 359.58,195.562 
									358.163,194.743 357.211,195.296 360.934,197.445 361.885,196.892 360.303,195.978 361.711,195.16 363.293,196.074 
									364.245,195.521 								"/>
								<path fill="#FFFFFF" d="M366.528,192.966c-0.249-0.144-0.523-0.221-0.81-0.24c-0.287-0.019-0.592,0.025-0.91,0.136
									c0.172-0.166,0.24-0.317,0.215-0.464c-0.02-0.144-0.142-0.28-0.359-0.406c-0.318-0.184-0.683-0.254-1.076-0.209
									c-0.4,0.048-0.839,0.213-1.32,0.494c-0.179,0.104-0.343,0.214-0.502,0.335c-0.164,0.125-0.304,0.258-0.443,0.398
									l0.703,0.406c0.088-0.133,0.189-0.251,0.315-0.361c0.121-0.114,0.26-0.21,0.419-0.302c0.203-0.118,0.406-0.191,0.597-0.214
									c0.191-0.022,0.363,0.011,0.503,0.092c0.154,0.089,0.205,0.192,0.168,0.303c-0.044,0.115-0.184,0.24-0.418,0.376
									l-0.406,0.236l0.619,0.357l0.381-0.221c0.272-0.159,0.521-0.251,0.743-0.284c0.223-0.026,0.42,0.008,0.592,0.107
									c0.16,0.092,0.225,0.203,0.181,0.332c-0.051,0.133-0.196,0.27-0.449,0.417c-0.172,0.1-0.368,0.184-0.591,0.262
									c-0.222,0.077-0.471,0.14-0.737,0.191l0.74,0.428c0.255-0.073,0.483-0.155,0.712-0.25c0.222-0.092,0.425-0.195,0.615-0.306
									c0.533-0.31,0.85-0.604,0.938-0.877C367.04,193.424,366.898,193.18,366.528,192.966"/>
								<polyline fill="#FFFFFF" points="369.148,192.671 368.185,192.115 367.29,192.635 368.254,193.191 369.148,192.671 								
									"/>
								<polyline fill="#FFFFFF" points="372.593,190.669 371.929,190.286 371.085,190.776 368.026,189.011 367.119,189.538 
									366.442,190.139 367.094,190.515 367.777,189.91 370.185,191.3 369.341,191.791 370.005,192.174 372.593,190.669 								
									"/>
								<path fill="#FFFFFF" d="M372.022,188.841c-0.466-0.269-0.76-0.482-0.862-0.645c-0.097-0.159-0.047-0.299,0.156-0.417
									c0.209-0.122,0.451-0.151,0.719-0.092c0.28,0.059,0.657,0.225,1.123,0.494s0.753,0.487,0.856,0.649
									c0.108,0.166,0.06,0.306-0.144,0.424c-0.203,0.118-0.445,0.147-0.732,0.085C372.858,189.28,372.488,189.11,372.022,188.841
									 M374.116,187.632c-0.619-0.358-1.231-0.557-1.824-0.598c-0.604-0.041-1.145,0.082-1.633,0.365
									c-0.482,0.28-0.696,0.597-0.618,0.943c0.064,0.347,0.411,0.701,1.03,1.059c0.612,0.354,1.225,0.552,1.823,0.589
									c0.599,0.044,1.146-0.081,1.627-0.361c0.488-0.284,0.697-0.598,0.625-0.948C375.074,188.34,374.729,187.986,374.116,187.632
									"/>
								<polyline fill="#FFFFFF" points="401.036,174.14 397.313,171.99 396.362,172.543 397.779,173.362 396.371,174.18 
									394.954,173.362 394.002,173.915 397.725,176.064 398.676,175.511 397.093,174.597 398.501,173.778 400.084,174.692 
									401.036,174.14 								"/>
								<path fill="#FFFFFF" d="M403.319,171.585c-0.25-0.144-0.523-0.221-0.81-0.24c-0.287-0.019-0.593,0.025-0.91,0.136
									c0.171-0.166,0.24-0.317,0.214-0.465c-0.02-0.143-0.142-0.28-0.358-0.405c-0.319-0.184-0.683-0.254-1.076-0.21
									c-0.401,0.048-0.84,0.214-1.321,0.494c-0.178,0.104-0.342,0.214-0.508,0.339c-0.158,0.122-0.297,0.254-0.437,0.394
									l0.702,0.406c0.089-0.132,0.189-0.25,0.316-0.361c0.12-0.114,0.26-0.21,0.418-0.303c0.203-0.118,0.407-0.191,0.598-0.214
									c0.19-0.021,0.362,0.012,0.503,0.092c0.153,0.089,0.204,0.192,0.167,0.302c-0.044,0.115-0.183,0.24-0.418,0.376
									l-0.405,0.236l0.619,0.357l0.381-0.221c0.272-0.159,0.52-0.251,0.742-0.284c0.223-0.026,0.421,0.007,0.593,0.106
									c0.16,0.093,0.224,0.203,0.174,0.336c-0.044,0.129-0.189,0.266-0.443,0.413c-0.171,0.1-0.368,0.185-0.591,0.262
									c-0.222,0.078-0.47,0.14-0.737,0.192l0.741,0.427c0.255-0.073,0.482-0.155,0.711-0.25c0.223-0.092,0.426-0.195,0.616-0.306
									c0.533-0.31,0.849-0.605,0.937-0.877C403.831,172.042,403.689,171.799,403.319,171.585"/>
								<polyline fill="#FFFFFF" points="405.939,171.29 404.976,170.733 404.081,171.253 405.044,171.81 405.939,171.29 								
									"/>
								<path fill="#FFFFFF" d="M405.533,169.366c-0.465-0.269-0.753-0.487-0.855-0.648c-0.103-0.155-0.053-0.295,0.156-0.417
									c0.203-0.118,0.445-0.147,0.719-0.092c0.273,0.062,0.65,0.229,1.116,0.498s0.754,0.486,0.863,0.645
									c0.108,0.166,0.06,0.306-0.144,0.424c-0.21,0.122-0.452,0.15-0.732,0.084C406.376,169.801,406,169.635,405.533,169.366
									 M407.634,168.153c-0.619-0.357-1.232-0.557-1.83-0.594c-0.604-0.041-1.146,0.081-1.627,0.361
									c-0.489,0.284-0.696,0.597-0.625,0.947c0.065,0.347,0.418,0.697,1.037,1.055c0.612,0.354,1.218,0.556,1.817,0.593
									c0.604,0.041,1.145-0.081,1.633-0.365c0.482-0.28,0.69-0.594,0.619-0.944C408.592,168.861,408.246,168.507,407.634,168.153"
									/>
								<path fill="#FFFFFF" d="M408.13,167.088c-0.217-0.126-0.338-0.247-0.364-0.358c-0.026-0.11,0.043-0.217,0.208-0.313
									c0.172-0.1,0.355-0.14,0.547-0.125c0.19,0.015,0.401,0.084,0.618,0.21s0.332,0.244,0.358,0.354
									c0.026,0.111-0.043,0.218-0.215,0.317c-0.164,0.096-0.349,0.136-0.54,0.121C408.552,167.279,408.348,167.213,408.13,167.088
									 M410.773,166.27c-0.594-0.343-1.188-0.538-1.779-0.571c-0.598-0.037-1.133,0.088-1.614,0.368
									c-0.432,0.251-0.659,0.523-0.683,0.811c-0.011,0.288,0.175,0.549,0.577,0.782c0.363,0.21,0.777,0.31,1.224,0.302
									c0.458-0.007,0.877-0.118,1.252-0.335c0.151-0.088,0.266-0.185,0.354-0.28c0.082-0.1,0.146-0.203,0.17-0.313
									c0.287,0.195,0.423,0.383,0.423,0.567c0.002,0.185-0.138,0.361-0.416,0.524c-0.14,0.081-0.293,0.147-0.47,0.206
									c-0.172,0.063-0.375,0.114-0.599,0.162l0.69,0.398c0.203-0.06,0.394-0.125,0.577-0.203c0.185-0.077,0.369-0.169,0.54-0.269
									c0.539-0.313,0.792-0.66,0.739-1.043C411.719,166.992,411.393,166.627,410.773,166.27"/>
								<polyline fill="#FFFFFF" points="345.249,120.691 341.521,118.538 340.568,119.091 341.992,119.913 340.584,120.731 
									339.16,119.909 338.209,120.462 341.938,122.615 342.889,122.062 341.306,121.148 342.714,120.329 344.297,121.244 
									345.249,120.691 								"/>
								<path fill="#FFFFFF" d="M347.532,118.136c-0.249-0.144-0.518-0.225-0.811-0.239c-0.286-0.019-0.591,0.026-0.902,0.133
									c0.165-0.162,0.233-0.313,0.208-0.461c-0.027-0.147-0.143-0.28-0.365-0.409c-0.319-0.185-0.677-0.25-1.07-0.207
									c-0.401,0.048-0.84,0.214-1.314,0.49c-0.185,0.107-0.35,0.218-0.508,0.339c-0.165,0.125-0.311,0.254-0.443,0.398
									l0.702,0.405c0.089-0.133,0.19-0.251,0.316-0.361c0.12-0.114,0.261-0.21,0.419-0.302c0.203-0.118,0.405-0.192,0.597-0.214
									c0.19-0.022,0.356,0.007,0.503,0.092c0.153,0.088,0.211,0.188,0.167,0.302c-0.037,0.111-0.183,0.24-0.418,0.376
									l-0.405,0.236l0.619,0.357l0.387-0.225c0.267-0.155,0.508-0.251,0.736-0.28c0.229-0.029,0.42,0.007,0.586,0.103
									c0.167,0.096,0.23,0.207,0.187,0.335c-0.05,0.133-0.195,0.269-0.449,0.417c-0.171,0.099-0.368,0.184-0.59,0.262
									c-0.223,0.077-0.464,0.136-0.737,0.191l0.74,0.428c0.254-0.074,0.489-0.159,0.711-0.251
									c0.217-0.096,0.426-0.195,0.616-0.306c0.539-0.313,0.85-0.604,0.938-0.877C348.043,118.593,347.902,118.35,347.532,118.136"
									/>
								<polyline fill="#EC7405" points="350.152,117.841 349.182,117.281 348.287,117.801 349.258,118.361 350.152,117.841 
																	"/>
								<path fill="#EC7405" d="M349.74,115.913c-0.466-0.269-0.747-0.483-0.85-0.645c-0.104-0.162-0.047-0.298,0.156-0.417
									s0.438-0.151,0.719-0.092s0.645,0.225,1.11,0.494c0.473,0.273,0.761,0.491,0.869,0.649c0.103,0.163,0.059,0.306-0.145,0.424
									c-0.203,0.118-0.451,0.144-0.731,0.084C350.59,116.352,350.213,116.186,349.74,115.913 M351.847,114.704
									c-0.619-0.358-1.231-0.557-1.83-0.594c-0.599-0.044-1.146,0.081-1.627,0.361c-0.488,0.284-0.697,0.597-0.625,0.947
									c0.072,0.343,0.417,0.697,1.037,1.055c0.612,0.354,1.226,0.553,1.816,0.593c0.605,0.041,1.146-0.081,1.634-0.365
									c0.482-0.28,0.697-0.597,0.618-0.944C352.805,115.412,352.459,115.058,351.847,114.704"/>
								<path fill="#EC7405" d="M353.843,114.32c-0.218-0.125-0.346-0.243-0.371-0.354c-0.026-0.11,0.05-0.214,0.214-0.31
									c0.172-0.1,0.35-0.144,0.541-0.129c0.19,0.015,0.401,0.085,0.618,0.21s0.339,0.247,0.365,0.357
									c0.025,0.111-0.05,0.214-0.222,0.313c-0.165,0.096-0.343,0.14-0.533,0.125C354.264,114.52,354.06,114.446,353.843,114.32
									 M355.701,113.167c-0.358-0.207-0.772-0.306-1.225-0.302c-0.458,0.007-0.871,0.122-1.251,0.342
									c-0.146,0.085-0.267,0.177-0.355,0.273c-0.082,0.1-0.145,0.203-0.17,0.313c-0.287-0.195-0.428-0.387-0.43-0.571
									c-0.001-0.185,0.145-0.357,0.424-0.52c0.133-0.077,0.292-0.147,0.457-0.207c0.178-0.059,0.388-0.114,0.609-0.162
									l-0.683-0.394c-0.21,0.055-0.406,0.125-0.597,0.206c-0.185,0.078-0.362,0.166-0.533,0.266
									c-0.532,0.31-0.785,0.656-0.745,1.04c0.047,0.38,0.38,0.749,0.992,1.102c0.601,0.347,1.193,0.542,1.785,0.575
									c0.586,0.037,1.126-0.085,1.608-0.365c0.438-0.254,0.658-0.523,0.676-0.815
									C356.289,113.661,356.103,113.399,355.701,113.167"/>
								<polyline fill="#FFFFFF" points="349.479,135.06 345.757,132.911 344.799,133.468 346.223,134.29 344.82,135.104 
									343.396,134.282 342.438,134.839 346.161,136.988 347.119,136.432 345.542,135.521 346.944,134.707 348.521,135.617 
									349.479,135.06 								"/>
								<path fill="#FFFFFF" d="M351.762,132.513c-0.249-0.144-0.517-0.225-0.803-0.244c-0.294-0.015-0.598,0.03-0.91,0.137
									c0.165-0.163,0.24-0.317,0.214-0.465c-0.025-0.147-0.147-0.283-0.365-0.409c-0.318-0.184-0.675-0.25-1.076-0.203
									c-0.394,0.044-0.833,0.21-1.314,0.49c-0.178,0.104-0.349,0.218-0.508,0.339c-0.158,0.122-0.304,0.251-0.437,0.395
									l0.702,0.405c0.083-0.129,0.189-0.25,0.316-0.361c0.114-0.11,0.253-0.214,0.405-0.302c0.21-0.122,0.406-0.192,0.604-0.21
									c0.191-0.021,0.357,0.008,0.503,0.092c0.154,0.089,0.212,0.188,0.168,0.303c-0.038,0.111-0.177,0.236-0.418,0.376
									l-0.399,0.232l0.613,0.354l0.38-0.221c0.267-0.155,0.521-0.251,0.743-0.276c0.229-0.029,0.427,0.004,0.592,0.1
									c0.166,0.096,0.225,0.21,0.181,0.339s-0.202,0.266-0.455,0.413c-0.166,0.096-0.362,0.188-0.579,0.262
									c-0.228,0.074-0.47,0.141-0.736,0.192l0.74,0.428c0.242-0.074,0.482-0.155,0.705-0.248c0.216-0.096,0.426-0.195,0.616-0.306
									c0.539-0.313,0.855-0.608,0.942-0.881C352.267,132.966,352.132,132.727,351.762,132.513"/>
								<polyline fill="#FFFFFF" points="354.375,132.214 353.412,131.658 352.523,132.174 353.487,132.73 354.375,132.214 								
									"/>
								<path fill="#FFFFFF" d="M353.977,130.286c-0.466-0.269-0.754-0.479-0.856-0.641c-0.103-0.163-0.053-0.302,0.15-0.42
									c0.21-0.122,0.451-0.151,0.726-0.088c0.279,0.059,0.65,0.221,1.116,0.49c0.473,0.273,0.76,0.49,0.862,0.653
									c0.103,0.162,0.053,0.302-0.149,0.42c-0.203,0.118-0.445,0.147-0.726,0.088S354.449,130.559,353.977,130.286
									 M356.069,129.077c-0.619-0.357-1.225-0.553-1.822-0.597c-0.599-0.037-1.14,0.085-1.628,0.369
									c-0.481,0.28-0.696,0.597-0.624,0.94c0.071,0.35,0.41,0.7,1.03,1.058c0.619,0.357,1.231,0.557,1.83,0.594
									c0.598,0.044,1.145-0.081,1.627-0.361c0.488-0.284,0.696-0.597,0.625-0.947
									C357.035,129.789,356.689,129.435,356.069,129.077"/>
								<polyline fill="#FFFFFF" points="357.863,126.504 357.32,126.191 354.535,127.809 355.244,128.218 357.026,127.183 
									358.676,129.715 359.603,129.177 357.863,126.504 								"/>
								<polyline fill="#FFFFFF" points="258.725,179.474 257.767,178.921 256.358,179.739 254.941,178.921 256.349,178.103 
									255.385,177.546 251.687,179.695 252.651,180.252 254.218,179.341 255.635,180.16 254.068,181.07 255.026,181.623 
									258.725,179.474 								"/>
								<path fill="#FFFFFF" d="M260.62,180.488c-0.179-0.103-0.376-0.195-0.593-0.292c-0.21-0.092-0.434-0.177-0.676-0.258
									l-0.704,0.409c0.229,0.052,0.434,0.111,0.631,0.181c0.191,0.074,0.364,0.151,0.517,0.24c0.21,0.122,0.332,0.235,0.372,0.354
									c0.038,0.11-0.019,0.202-0.164,0.287c-0.153,0.089-0.324,0.122-0.516,0.1c-0.19-0.03-0.408-0.11-0.65-0.25l-0.402-0.232
									l-0.615,0.358l0.383,0.221c0.275,0.159,0.436,0.302,0.487,0.435c0.052,0.125-0.012,0.244-0.176,0.339
									c-0.166,0.096-0.362,0.129-0.579,0.1c-0.222-0.026-0.458-0.111-0.713-0.258c-0.172-0.1-0.326-0.21-0.454-0.343
									c-0.135-0.128-0.25-0.269-0.339-0.424l-0.736,0.428c0.134,0.144,0.275,0.276,0.435,0.405s0.339,0.247,0.53,0.357
									c0.543,0.313,1.047,0.501,1.524,0.549c0.472,0.052,0.891-0.029,1.253-0.239c0.247-0.144,0.386-0.299,0.417-0.464
									c0.025-0.17-0.046-0.343-0.238-0.527c0.28,0.096,0.548,0.14,0.803,0.125c0.254-0.014,0.489-0.084,0.705-0.21
									c0.317-0.184,0.431-0.391,0.346-0.623C261.387,181.026,261.105,180.768,260.62,180.488"/>
								<polyline fill="#FFFFFF" points="260.914,183.912 260.02,183.396 259.062,183.953 259.956,184.469 260.914,183.912 								
									"/>
								<polyline fill="#FFFFFF" points="266.278,183.835 265.365,183.308 264.318,182.91 263.665,183.289 264.724,183.688 
									262.332,185.078 261.483,184.587 260.823,184.97 263.428,186.475 264.088,186.091 263.239,185.601 266.278,183.835 								
									"/>
								<path fill="#FFFFFF" d="M270.146,186.069l-2.388-1.378l-2.081,1.209c0.261,0.062,0.478,0.129,0.669,0.195
									c0.191,0.074,0.356,0.147,0.497,0.229c0.23,0.133,0.358,0.272,0.384,0.412c0.02,0.144-0.068,0.27-0.265,0.384
									c-0.19,0.111-0.413,0.166-0.655,0.151c-0.247-0.011-0.489-0.084-0.719-0.217c-0.166-0.096-0.314-0.21-0.429-0.351
									c-0.127-0.14-0.237-0.298-0.321-0.486l-0.754,0.438c0.122,0.166,0.269,0.324,0.436,0.464
									c0.172,0.144,0.358,0.273,0.568,0.395c0.491,0.284,0.981,0.442,1.485,0.468c0.502,0.025,0.947-0.078,1.347-0.31
									c0.406-0.236,0.595-0.486,0.569-0.766c-0.027-0.273-0.271-0.546-0.724-0.808c-0.077-0.045-0.16-0.084-0.249-0.122
									c-0.083-0.04-0.172-0.07-0.268-0.103l0.571-0.332l1.621,0.936L270.146,186.069"/>
								<polyline fill="#FFFFFF" points="314.271,211.546 313.312,210.993 311.904,211.812 310.487,210.993 311.896,210.174 
									310.938,209.621 307.239,211.771 308.197,212.323 309.764,211.413 311.182,212.231 309.615,213.142 310.572,213.694 
									314.271,211.546 								"/>
								<path fill="#FFFFFF" d="M316.166,212.56c-0.179-0.104-0.376-0.195-0.594-0.292c-0.21-0.092-0.433-0.177-0.676-0.258
									l-0.704,0.409c0.229,0.052,0.434,0.111,0.631,0.181c0.191,0.074,0.364,0.151,0.517,0.24c0.211,0.121,0.34,0.239,0.372,0.354
									c0.031,0.107-0.019,0.203-0.164,0.287c-0.153,0.089-0.324,0.122-0.515,0.101c-0.191-0.03-0.409-0.111-0.651-0.251
									l-0.401-0.232l-0.615,0.357l0.383,0.222c0.274,0.158,0.435,0.302,0.486,0.435c0.051,0.125-0.013,0.243-0.177,0.339
									c-0.165,0.097-0.355,0.133-0.578,0.101c-0.224-0.026-0.459-0.111-0.714-0.259c-0.173-0.1-0.327-0.21-0.455-0.343
									c-0.134-0.129-0.249-0.27-0.339-0.424l-0.735,0.428c0.134,0.144,0.274,0.276,0.434,0.405
									c0.161,0.129,0.346,0.25,0.531,0.357c0.543,0.313,1.047,0.501,1.523,0.55c0.472,0.051,0.897-0.026,1.26-0.236
									c0.247-0.144,0.38-0.302,0.41-0.468c0.025-0.17-0.046-0.343-0.238-0.527c0.28,0.096,0.548,0.14,0.803,0.125
									c0.254-0.015,0.489-0.084,0.705-0.21c0.317-0.185,0.431-0.391,0.347-0.623C316.933,213.098,316.651,212.84,316.166,212.56"
									/>
								<polyline fill="#FFFFFF" points="316.459,215.984 315.565,215.468 314.607,216.024 315.501,216.541 316.459,215.984 
																	"/>
								<polyline fill="#FFFFFF" points="321.823,215.907 320.91,215.38 319.864,214.981 319.211,215.36 320.27,215.759 
									317.878,217.149 317.028,216.659 316.369,217.042 318.975,218.546 319.634,218.163 318.785,217.673 321.823,215.907 
																	"/>
								<path fill="#FFFFFF" d="M324.453,217.345c-0.186-0.107-0.383-0.199-0.593-0.292c-0.218-0.096-0.44-0.181-0.683-0.261
									l-0.704,0.409c0.229,0.051,0.433,0.11,0.631,0.181c0.191,0.073,0.363,0.15,0.523,0.243c0.204,0.117,0.332,0.235,0.364,0.35
									c0.039,0.111-0.011,0.207-0.157,0.291c-0.152,0.089-0.33,0.118-0.521,0.097c-0.19-0.03-0.407-0.11-0.644-0.247l-0.409-0.236
									l-0.615,0.357l0.383,0.222c0.274,0.158,0.435,0.302,0.487,0.435c0.057,0.129-0.013,0.244-0.177,0.34
									c-0.165,0.096-0.356,0.132-0.572,0.103c-0.229-0.029-0.465-0.114-0.721-0.262c-0.173-0.1-0.326-0.21-0.454-0.343
									c-0.135-0.129-0.249-0.27-0.34-0.424l-0.735,0.428c0.135,0.144,0.281,0.28,0.441,0.409c0.159,0.129,0.339,0.247,0.53,0.357
									c0.543,0.313,1.04,0.497,1.518,0.546c0.478,0.055,0.896-0.026,1.259-0.236c0.247-0.144,0.387-0.299,0.411-0.468
									c0.03-0.166-0.046-0.343-0.238-0.527c0.287,0.1,0.547,0.14,0.802,0.125s0.489-0.085,0.706-0.21
									c0.316-0.185,0.431-0.391,0.353-0.619C325.214,217.879,324.933,217.621,324.453,217.345"/>
								<polyline fill="#FFFFFF" points="379.02,145.069 378.061,144.516 376.652,145.334 375.235,144.516 376.644,143.697 
									375.68,143.141 371.981,145.29 372.945,145.847 374.512,144.936 375.93,145.754 374.363,146.665 375.321,147.218 
									379.02,145.069 								"/>
								<path fill="#FFFFFF" d="M380.915,146.083c-0.179-0.104-0.371-0.2-0.588-0.295c-0.216-0.088-0.44-0.173-0.682-0.254
									l-0.698,0.406c0.223,0.055,0.428,0.114,0.625,0.184c0.191,0.074,0.363,0.151,0.517,0.24c0.211,0.122,0.339,0.24,0.378,0.35
									c0.032,0.107-0.024,0.207-0.164,0.288c-0.152,0.088-0.324,0.122-0.516,0.1c-0.197-0.026-0.414-0.107-0.656-0.247
									l-0.402-0.232l-0.615,0.358l0.383,0.221c0.274,0.158,0.435,0.302,0.493,0.431c0.045,0.129-0.012,0.243-0.184,0.343
									c-0.164,0.096-0.354,0.125-0.578,0.1c-0.223-0.025-0.459-0.111-0.714-0.258c-0.172-0.099-0.319-0.213-0.454-0.342
									c-0.134-0.129-0.243-0.273-0.333-0.428l-0.736,0.428c0.122,0.144,0.269,0.28,0.43,0.409
									c0.158,0.129,0.338,0.247,0.529,0.357c0.543,0.313,1.053,0.498,1.524,0.549s0.891-0.03,1.258-0.244
									c0.248-0.144,0.387-0.299,0.418-0.464c0.024-0.17-0.053-0.34-0.239-0.528c0.275,0.1,0.549,0.14,0.797,0.129
									c0.255-0.015,0.49-0.084,0.706-0.21c0.317-0.185,0.437-0.395,0.353-0.627C381.681,146.621,381.4,146.363,380.915,146.083"/>
								<polyline fill="#FFFFFF" points="381.208,149.508 380.313,148.991 379.355,149.548 380.25,150.064 381.208,149.508 								
									"/>
								<path fill="#FFFFFF" d="M382.877,150.912c-0.211-0.122-0.263-0.261-0.162-0.424c0.114-0.162,0.398-0.38,0.861-0.649
									s0.839-0.435,1.105-0.494c0.279-0.059,0.521-0.029,0.732,0.092c0.204,0.118,0.256,0.258,0.148,0.417
									c-0.094,0.158-0.38,0.376-0.843,0.645s-0.837,0.435-1.123,0.498C383.316,151.056,383.081,151.03,382.877,150.912
									 M386.067,149.058c-0.492-0.284-1.033-0.405-1.638-0.365c-0.599,0.037-1.208,0.236-1.823,0.594
									c-0.608,0.354-0.951,0.708-1.013,1.054c-0.067,0.351,0.144,0.664,0.636,0.948c0.484,0.28,1.026,0.401,1.631,0.361
									c0.599-0.037,1.202-0.239,1.812-0.593c0.615-0.357,0.962-0.708,1.024-1.055
									C386.764,149.651,386.552,149.337,386.067,149.058"/>
								<path fill="#FFFFFF" d="M386.12,152.843c-0.179-0.103-0.268-0.213-0.27-0.324c0-0.111,0.095-0.217,0.279-0.324
									c0.184-0.107,0.367-0.163,0.559-0.163c0.191,0,0.382,0.052,0.561,0.155c0.179,0.104,0.263,0.21,0.263,0.321
									c0.001,0.11-0.088,0.221-0.271,0.328c-0.185,0.107-0.375,0.158-0.565,0.159C386.484,152.995,386.299,152.947,386.12,152.843
									 M387.846,151.841c-0.153-0.089-0.23-0.177-0.231-0.273c-0.006-0.092,0.069-0.181,0.222-0.269
									c0.14-0.081,0.293-0.125,0.457-0.125c0.159,0.004,0.312,0.048,0.466,0.136c0.153,0.089,0.229,0.177,0.237,0.27
									c-0.006,0.092-0.069,0.181-0.215,0.265c-0.152,0.088-0.312,0.129-0.464,0.129
									C388.151,151.974,387.999,151.929,387.846,151.841 M389.361,150.959c-0.453-0.261-0.881-0.413-1.274-0.449
									c-0.401-0.041-0.758,0.025-1.069,0.206c-0.209,0.122-0.329,0.258-0.354,0.405c-0.024,0.148,0.04,0.31,0.2,0.476
									c-0.319-0.104-0.624-0.147-0.911-0.129c-0.279,0.015-0.54,0.092-0.781,0.232c-0.368,0.214-0.52,0.442-0.461,0.697
									c0.06,0.247,0.327,0.513,0.812,0.792c0.485,0.28,0.944,0.435,1.371,0.468c0.439,0.033,0.834-0.055,1.201-0.269
									c0.241-0.14,0.374-0.291,0.398-0.454c0.025-0.169-0.053-0.347-0.231-0.531c0.286,0.092,0.566,0.129,0.821,0.114
									c0.254-0.015,0.489-0.084,0.699-0.207c0.311-0.181,0.437-0.387,0.358-0.616
									C390.077,151.468,389.815,151.222,389.361,150.959"/>
								<polyline fill="#FFFFFF" points="286.43,202.769 282.708,200.62 281.757,201.172 283.173,201.99 281.765,202.809 
									280.349,201.991 279.39,202.548 283.112,204.696 284.07,204.14 282.493,203.229 283.901,202.411 285.479,203.321 
									286.43,202.769 								"/>
								<path fill="#FFFFFF" d="M288.719,200.218c-0.249-0.144-0.523-0.222-0.81-0.24c-0.292-0.015-0.591,0.025-0.908,0.136
									c0.165-0.162,0.239-0.317,0.213-0.464c-0.026-0.147-0.148-0.284-0.365-0.409c-0.319-0.184-0.676-0.25-1.077-0.203
									c-0.394,0.044-0.832,0.21-1.314,0.49c-0.178,0.104-0.342,0.214-0.507,0.339c-0.159,0.122-0.304,0.251-0.437,0.395
									l0.702,0.405c0.088-0.133,0.188-0.25,0.316-0.361c0.12-0.114,0.253-0.214,0.405-0.302c0.209-0.122,0.413-0.195,0.61-0.214
									c0.185-0.019,0.351,0.011,0.498,0.096c0.153,0.088,0.211,0.188,0.173,0.298c-0.043,0.114-0.183,0.24-0.425,0.38
									l-0.399,0.232l0.613,0.354l0.381-0.221c0.272-0.158,0.52-0.251,0.75-0.28c0.222-0.026,0.42,0.007,0.585,0.103
									c0.167,0.096,0.23,0.207,0.18,0.339c-0.044,0.129-0.195,0.262-0.449,0.41c-0.171,0.1-0.362,0.188-0.584,0.266
									c-0.229,0.074-0.47,0.14-0.737,0.191l0.741,0.428c0.241-0.074,0.482-0.155,0.704-0.247c0.216-0.096,0.433-0.199,0.616-0.306
									c0.539-0.313,0.856-0.608,0.943-0.881C289.218,200.675,289.089,200.431,288.719,200.218"/>
								<polyline fill="#FFFFFF" points="291.327,199.922 290.363,199.366 289.475,199.882 290.438,200.438 291.327,199.922 
																	"/>
								<polyline fill="#FFFFFF" points="294.777,197.917 294.114,197.534 293.27,198.024 290.212,196.258 289.305,196.786 
									288.621,197.39 289.279,197.77 289.962,197.158 292.369,198.548 291.526,199.038 292.189,199.421 294.777,197.917 								
									"/>
								<path fill="#FFFFFF" d="M294.318,196.594l-0.512-1.508l1.558,0.899L294.318,196.594 M297.495,195.554l-0.696-0.402
									l-0.526,0.306l-2.349-1.356l-1.065,0.619l0.744,2.142l0.824,0.476l1.636-0.951l0.676,0.39l0.907-0.527l-0.676-0.391
									L297.495,195.554"/>
							</g>
						</g>
					</g>
				</g>
			</g>
		</g>
	</g>
	<g>
		<g>
			<g enable-background="new    ">
				<defs>
					<polygon id="SVGID_3_" enable-background="new    " points="289.848,123.203 295.994,119.631 302.181,123.203 296.035,126.775 
											"/>
				</defs>
				<clipPath id="SVGID_4_">
					<use xlink:href="#SVGID_3_"  overflow="visible"/>
				</clipPath>
				<g clip-path="url(#SVGID_4_)">
					<g>
						<g>
							<g>
								<polyline fill="#FFFFFF" points="297.559,120.534 295.994,119.631 289.848,123.203 292.932,124.983 296.035,126.775 
									297.588,125.872 296.05,124.984 297.579,124.095 296.034,123.203 297.562,122.314 296.023,121.426 297.559,120.534 								
									"/>
							</g>
						</g>
					</g>
				</g>
			</g>
		</g>
	</g>
	<g>
		<g>
			<g enable-background="new    ">
				<defs>
					<polygon id="SVGID_5_" enable-background="new    " points="336.593,212.099 342.739,208.526 348.92,212.095 342.773,215.667 
											"/>
				</defs>
				<clipPath id="SVGID_6_">
					<use xlink:href="#SVGID_5_"  overflow="visible"/>
				</clipPath>
				<g clip-path="url(#SVGID_6_)">
					<g>
						<g>
							<g>
								<polyline fill="#FFFFFF" points="344.297,209.425 342.739,208.526 336.593,212.099 339.67,213.875 342.773,215.667 
									344.327,214.764 342.789,213.875 344.317,212.986 342.771,212.095 344.307,211.202 342.769,210.313 344.297,209.425 
																	"/>
							</g>
						</g>
					</g>
				</g>
			</g>
		</g>
	</g>
	<g>
		<polygon fill="#EC7404" stroke="#FFFFFF" stroke-width="0.5" points="312.837,-23.968 316.249,-23.968 314.68,-12.192 		"/>
		<circle fill="#EC7404" cx="314.543" cy="-33" r="9.731"/>
		<polygon fill="none" stroke="#FFFFFF" stroke-width="0.5" points="318.413,-35.826 314.543,-40.501 310.674,-35.826 
			312.627,-35.826 312.627,-30.704 316.46,-30.704 316.46,-35.826 		"/>
		<text transform="matrix(1 0 0 1 312.875 -25.1201)" fill="#FFFFFF" font-family="'DejaVuSansCondensed-Bold'" font-size="5"></text>
	</g>
	<g>
		<polygon fill="#EC7404" stroke="#FFFFFF" stroke-width="0.5" points="338.409,-23.968 341.822,-23.968 340.252,-12.192 		"/>
		<circle fill="#EC7404" cx="340.116" cy="-33" r="9.731"/>
		<polygon fill="none" stroke="#FFFFFF" stroke-width="0.5" points="343.985,-35.826 340.115,-40.501 336.246,-35.826 
			338.199,-35.826 338.199,-30.704 342.032,-30.704 342.032,-35.826 		"/>
		<rect x="338.429" y="-29.443" fill="none" width="8" height="3.833"/>
		<text transform="matrix(1 0 0 1 338.4287 -25.644)" fill="#FFFFFF" font-family="'DejaVuSansCondensed-Bold'" font-size="5">P</text>
	</g>
	<g>
		<polygon fill="#EC7404" stroke="#FFFFFF" stroke-width="0.5" points="363.981,-23.968 367.394,-23.968 365.824,-12.192 		"/>
		<circle fill="#EC7404" cx="365.688" cy="-33" r="9.731"/>
		<polygon fill="none" stroke="#FFFFFF" stroke-width="0.5" points="369.558,-35.826 365.688,-40.501 361.818,-35.826 
			363.771,-35.826 363.771,-30.704 367.604,-30.704 367.604,-35.826 		"/>
		<rect x="360.819" y="-29.442" fill="none" width="8" height="3.833"/>
		<text transform="matrix(1 0 0 1 360.8193 -25.6431)" fill="#FFFFFF" font-family="'DejaVuSansCondensed-Bold'" font-size="5"> EC</text>
	</g>
	<g>
		<polygon fill="#EC7404" stroke="#FFFFFF" stroke-width="0.5" points="415.003,-23.991 418.417,-23.991 416.847,-12.215 		"/>
		<g>
			<circle fill="#EC7404" cx="416.71" cy="-33" r="9.731"/>
			<g>
				<g>
					<path fill="none" stroke="#FFFFFF" stroke-width="0.5" d="M421.197-29.081c0,0.312-0.255,0.567-0.567,0.567h-7.839
						c-0.312,0-0.567-0.255-0.567-0.567v-7.84c0-0.312,0.255-0.567,0.567-0.567h7.839c0.312,0,0.567,0.255,0.567,0.567V-29.081z"/>
				</g>
				<polygon fill="#FFFFFF" points="413.152,-32.975 415.846,-29.744 420.287,-36.475 415.608,-31.057 				"/>
			</g>
		</g>
	</g>
	<g>
		<polygon fill="#EC7404" stroke="#FFFFFF" stroke-width="0.5" points="440.863,-23.991 444.277,-23.991 442.707,-12.215 		"/>
		<circle fill="#EC7404" cx="442.571" cy="-33" r="9.731"/>
		<g>
			<g>
				<path fill="#EC7404" d="M446.946-31.146c0,0.312-0.255,0.567-0.567,0.567h-9.54c-0.312,0-0.567-0.255-0.567-0.567V-36.6
					c0-0.312,0.255-0.567,0.567-0.567h9.54c0.312,0,0.567,0.255,0.567,0.567V-31.146z"/>
				<path fill="none" stroke="#FFFFFF" stroke-width="0.5" d="M446.946-31.146c0,0.312-0.255,0.567-0.567,0.567h-9.54
					c-0.312,0-0.567-0.255-0.567-0.567V-36.6c0-0.312,0.255-0.567,0.567-0.567h9.54c0.312,0,0.567,0.255,0.567,0.567V-31.146z"/>
			</g>
			<g>
				<path fill="#EC7404" d="M448.87-29.223c0,0.312-0.255,0.567-0.567,0.567h-9.54c-0.312,0-0.567-0.255-0.567-0.567v-5.454
					c0-0.312,0.255-0.567,0.567-0.567h9.54c0.312,0,0.567,0.255,0.567,0.567V-29.223z"/>
				<path fill="none" stroke="#FFFFFF" stroke-width="0.5" d="M448.87-29.223c0,0.312-0.255,0.567-0.567,0.567h-9.54
					c-0.312,0-0.567-0.255-0.567-0.567v-5.454c0-0.312,0.255-0.567,0.567-0.567h9.54c0.312,0,0.567,0.255,0.567,0.567V-29.223z"/>
			</g>
		</g>
	</g>
	<g>
		<polygon fill="#EC7404" stroke="#FFFFFF" stroke-width="0.5" points="287.264,-23.968 290.677,-23.968 289.107,-12.192 		"/>
		<circle fill="#EC7404" cx="288.97" cy="-33" r="9.731"/>
		<g>
			<path fill="#FFFFFF" d="M285.842-31.311h6.294v-0.557h-6.294V-31.311z M285.842-29.615h6.294v-0.557h-6.294V-29.615z
				 M285.842-34.658h6.294v-0.558h-6.294V-34.658z M285.842-32.993h6.294v-0.557h-6.294V-32.993z M292.842-27.685h-7.744v-11.183
				h5.521v2.222h2.223V-27.685z M284.54-27.125 M291.178-38.797l1.594,1.592h-1.594V-38.797z M291.336-39.427h-6.796v12.301h8.86
				v-10.239L291.336-39.427z"/>
		</g>
	</g>
	<g>
		<polygon fill="#EC7404" stroke="#FFFFFF" stroke-width="0.5" points="261.69,-23.968 265.104,-23.968 263.533,-12.192 		"/>
		<circle fill="#EC7404" cx="263.397" cy="-33.001" r="9.731"/>
		<g>
			<g>
				<path fill="#FFFFFF" d="M268.454-33.723c-0.002-0.272-0.025-0.522-0.083-0.758c-0.046-0.183-0.114-0.358-0.217-0.517
					c-0.152-0.24-0.387-0.429-0.656-0.535c-0.269-0.108-0.564-0.149-0.898-0.149c-0.295,0-0.563,0.033-0.811,0.114
					c-0.185,0.062-0.357,0.153-0.505,0.277c-0.223,0.186-0.377,0.438-0.463,0.709c-0.086,0.264-0.118,0.55-0.119,0.862l-0.569,4.806
					h1.198v2.099h0.97v-2.099h0.6v2.099h0.97v-2.099h1.204L268.454-33.723z"/>
				<path fill="#FFFFFF" d="M260.08-36.128c0.872,0,1.576-0.707,1.576-1.577c0-0.871-0.704-1.577-1.576-1.577
					c-0.87,0-1.575,0.706-1.576,1.577C258.505-36.834,259.21-36.128,260.08-36.128 M260.08-35.59
					c-1.305,0.001-2.36,1.057-2.36,2.361v2.469h1.092v3.943h0.969v-3.943h0.6v3.943h0.97v-3.943h1.091v-2.469
					C262.44-34.534,261.385-35.589,260.08-35.59"/>
			</g>
			<circle fill="#FFFFFF" cx="266.494" cy="-37.707" r="1.584"/>
		</g>
	</g>
	<g>
		<polygon fill="#EC7404" stroke="#FFFFFF" stroke-width="0.5" points="389.554,-23.968 392.967,-23.968 391.397,-12.192 		"/>
		<circle fill="#EC7404" cx="391.26" cy="-33" r="9.731"/>
		<text transform="matrix(1 0 0 1 389.5 -25.1201)" fill="#FFFFFF" font-family="'DejaVuSansCondensed-Bold'" font-size="5"></text>
		<polygon fill="none" stroke="#FFFFFF" stroke-width="0.5" points="387.342,-35.379 391.212,-30.704 395.081,-35.379 
			393.128,-35.379 393.128,-40.501 389.295,-40.501 389.295,-35.379 		"/>
	</g>
	<g>
		<polygon fill="#EC7404" stroke="#FFFFFF" stroke-width="0.5" points="329.07,98.697 332.483,98.697 330.913,110.473 		"/>
		<circle fill="#EC7404" cx="330.777" cy="89.664" r="9.731"/>
		<g>
			<g>
				<path fill="#FFFFFF" d="M335.834,88.942c-0.002-0.272-0.025-0.522-0.083-0.758c-0.046-0.183-0.114-0.358-0.217-0.517
					c-0.152-0.24-0.387-0.429-0.656-0.535c-0.269-0.108-0.564-0.149-0.898-0.149c-0.295,0-0.563,0.033-0.811,0.114
					c-0.185,0.062-0.357,0.153-0.505,0.277c-0.223,0.186-0.377,0.438-0.463,0.709c-0.086,0.264-0.118,0.55-0.119,0.862l-0.569,4.806
					h1.198v2.099h0.97V93.75h0.6v2.099h0.97V93.75h1.204L335.834,88.942z"/>
				<path fill="#FFFFFF" d="M327.46,86.537c0.872,0,1.576-0.707,1.576-1.577c0-0.871-0.704-1.577-1.576-1.577
					c-0.87,0-1.575,0.706-1.576,1.577C325.885,85.831,326.59,86.537,327.46,86.537 M327.46,87.075
					c-1.305,0.001-2.36,1.057-2.36,2.361v2.469h1.092v3.943h0.969v-3.943h0.6v3.943h0.97v-3.943h1.091v-2.469
					C329.82,88.131,328.765,87.076,327.46,87.075"/>
			</g>
			<circle fill="#FFFFFF" cx="333.874" cy="84.958" r="1.584"/>
		</g>
	</g>
	<g>
		<polygon fill="#EC7404" stroke="#FFFFFF" stroke-width="0.5" points="307.878,99.19 311.291,99.19 309.722,110.966 		"/>
		<circle fill="#EC7404" cx="309.584" cy="90.157" r="9.731"/>
		<g>
			<path fill="#FFFFFF" d="M306.456,91.847h6.294V91.29h-6.294V91.847z M306.456,93.543h6.294v-0.557h-6.294V93.543z M306.456,88.5
				h6.294v-0.558h-6.294V88.5z M306.456,90.165h6.294v-0.557h-6.294V90.165z M313.456,95.473h-7.744V84.29h5.521v2.222h2.223V95.473
				z M305.154,96.032 M311.792,84.36l1.594,1.592h-1.594V84.36z M311.95,83.731h-6.796v12.301h8.86V85.793L311.95,83.731z"/>
		</g>
	</g>
	<g>
		<g>
			<polygon fill="#EC7404" stroke="#FFFFFF" stroke-width="0.5" points="321.631,141.128 318.44,139.916 324.095,129.467 			"/>
			<circle fill="#EC7404" cx="316.824" cy="148.965" r="9.731"/>
		</g>
		<polygon fill="none" stroke="#FFFFFF" stroke-width="0.5" points="320.663,145.924 316.793,141.249 312.924,145.924 
			314.877,145.924 314.877,151.046 318.71,151.046 318.71,145.924 		"/>
		<text transform="matrix(1 0 0 1 315.125 156.6299)" fill="#FFFFFF" font-family="'DejaVuSansCondensed-Bold'" font-size="5"></text>
	</g>
	<g>
		<g>
			<polygon fill="#EC7404" stroke="#FFFFFF" stroke-width="0.5" points="334.481,137.439 331.664,139.365 326.317,128.756 			"/>
			<circle fill="#EC7404" cx="338.168" cy="145.861" r="9.731"/>
		</g>
		<polygon fill="none" stroke="#FFFFFF" stroke-width="0.5" points="341.985,142.924 338.115,138.249 334.246,142.924 
			336.199,142.924 336.199,148.046 340.032,148.046 340.032,142.924 		"/>
		<rect x="336.429" y="149.307" fill="none" width="8" height="3.833"/>
		<text transform="matrix(1 0 0 1 336.4287 153.106)" fill="#FFFFFF" font-family="'DejaVuSansCondensed-Bold'" font-size="5">P</text>
	</g>
	<g>
		<polygon fill="#EC7404" points="289.311,109.193 292.725,109.193 291.154,120.969 		"/>
		<circle fill="#EC7404" cx="291.018" cy="100.183" r="9.731"/>
		<g>
			<g>
				<path fill="none" stroke="#FFFFFF" stroke-width="0.5" d="M295.505,105.978c0,0.312-0.255,0.567-0.566,0.567h-7.84
					c-0.312,0-0.567-0.255-0.567-0.567V94.471c0-0.312,0.255-0.567,0.567-0.567h7.84c0.312,0,0.566,0.255,0.566,0.567V105.978z"/>
			</g>
		</g>
		<path fill="#FFFFFF" d="M291.018,98.555c0.743,0,1.342-0.601,1.342-1.342s-0.599-1.342-1.342-1.342
			c-0.74,0-1.34,0.601-1.341,1.342C289.678,97.954,290.277,98.555,291.018,98.555 M291.018,99.013c-1.11,0-2.009,0.899-2.009,2.01
			v2.102h0.93v3.357h0.824v-3.357h0.511v3.357h0.825v-3.357h0.929v-2.102C293.027,99.912,292.129,99.014,291.018,99.013"/>
	</g>
</g>
</svg>
