<?xml version="1.0" encoding="utf-8"?>
<!-- Generator: Adobe Illustrator 16.0.0, SVG Export Plug-In . SVG Version: 6.00 Build 0)  -->
<!DOCTYPE svg PUBLIC "-//W3C//DTD SVG 1.1//EN" "http://www.w3.org/Graphics/SVG/1.1/DTD/svg11.dtd">
<svg version="1.1" xmlns="http://www.w3.org/2000/svg" xmlns:xlink="http://www.w3.org/1999/xlink" x="0px" y="0px"
	 width="595.275px" height="419.527px" viewBox="0 0 595.275 419.527" enable-background="new 0 0 595.275 419.527"
	 xml:space="preserve">
<g id="Ebene_3">
</g>
<g id="Ebene_1">
	<g>
		<rect x="-48.442" y="50.715" fill="#93117E" width="34.016" height="51.736"/>
		<rect x="-48.442" y="90.953" fill="#005C95" width="34.016" height="50.214"/>
		<rect x="-48.442" y="131.063" fill="#828995" width="34.016" height="48.946"/>
		<rect x="-48.442" y="168.891" fill="#00B6E8" width="33.554" height="52.243"/>
		<rect x="-48.442" y="210.015" fill="#B1C800" width="34.016" height="48.947"/>
		<rect x="-48.442" y="248.858" fill="#57AB27" width="34.016" height="50.214"/>
		<rect x="-48.442" y="287.319" fill="#EC7404" width="33.554" height="52.244"/>
		<rect x="-48.442" y="328.403" fill="#A78BBC" width="33.554" height="52.243"/>
	</g>
	<polygon fill="#EC7404" points="-59.667,41.637 -69.925,31.378 -80.185,41.637 -75.631,41.637 -75.631,193.334 -64.22,193.334 
		-64.22,41.637 	"/>
	<text transform="matrix(0 -1 1 0 -66.7695 103.9072)" fill="#FFFFFF" font-family="'DejaVuSans-Bold'" font-size="9">Textbaustein</text>
	<rect x="78.686" y="451.253" fill="#A78BBC" width="34.273" height="53.545"/>
	<text transform="matrix(0 -1 1 0 100.9214 490.665)" fill="#FFFFFF" font-family="'DejaVuSans-Bold'" font-size="9">A1.10</text>
	<polygon fill="#C6C7C8" points="155.022,449.43 144.764,459.688 155.022,469.948 155.022,465.395 200.72,465.395 200.72,453.983 
		155.022,453.983 	"/>
	<text transform="matrix(1 0 0 1 151.4219 462.8467)" fill="#FFFFFF" font-family="'DejaVuSans-Bold'" font-size="9">B-Bau</text>
	<g>
		<g>
			<g enable-background="new    ">
				<defs>
					<polygon id="SVGID_1_" enable-background="new    " points="208.886,179.701 330.111,109.25 442.48,174.13 321.255,244.581 
											"/>
				</defs>
				<clipPath id="SVGID_2_">
					<use xlink:href="#SVGID_1_"  overflow="visible"/>
				</clipPath>
				<g clip-path="url(#SVGID_2_)">
					<g>
						<g>
							<g>
								<polyline fill="#EC7405" points="347.898,119.52 330.111,109.25 316.854,116.954 334.642,127.225 347.898,119.52 								
									"/>
								<path fill="#CFD0D2" d="M353.949,129.392c-0.467-0.269-0.837-0.431-1.11-0.494c-0.28-0.059-0.516-0.026-0.719,0.092
									c-0.21,0.122-0.266,0.258-0.163,0.42c0.108,0.159,0.39,0.372,0.856,0.642c0.473,0.272,0.849,0.438,1.122,0.501
									c0.281,0.059,0.522,0.03,0.732-0.092c0.203-0.118,0.253-0.258,0.144-0.417C354.709,129.882,354.422,129.665,353.949,129.392
									 M356.265,127.047c-0.147-0.084-0.306-0.125-0.465-0.122c-0.159-0.003-0.312,0.041-0.464,0.129
									c-0.152,0.088-0.223,0.181-0.229,0.273c0.001,0.096,0.071,0.181,0.219,0.266c0.146,0.084,0.3,0.129,0.465,0.129
									c0.159-0.003,0.312-0.048,0.464-0.136c0.152-0.089,0.229-0.177,0.228-0.266
									C356.482,127.225,356.411,127.132,356.265,127.047 M357.981,127.943c-0.185-0.107-0.376-0.158-0.573-0.162
									c-0.191,0-0.369,0.051-0.547,0.155c-0.178,0.103-0.272,0.21-0.266,0.324c0.001,0.111,0.097,0.217,0.282,0.324
									c0.179,0.104,0.363,0.159,0.555,0.159c0.197,0.004,0.382-0.052,0.559-0.155c0.178-0.103,0.267-0.207,0.26-0.321
									C358.25,128.157,358.16,128.046,357.981,127.943 M343.642,133.229l0.951-0.553l3.729,2.153l-0.951,0.553l-1.583-0.914
									l-1.408,0.818l1.583,0.914l-0.958,0.557l-3.729-2.153l0.958-0.557l1.424,0.822l1.408-0.818L343.642,133.229
									 M349.287,133.447l1.631-0.948l0.708,0.409l-2.689,1.563l-0.708-0.409l0.15-1.478c0.012-0.132-0.008-0.247-0.053-0.339
									c-0.052-0.096-0.128-0.177-0.243-0.243c-0.173-0.1-0.376-0.144-0.599-0.14c-0.217,0.007-0.427,0.07-0.616,0.18
									c-0.152,0.088-0.286,0.196-0.393,0.339c-0.114,0.14-0.215,0.302-0.29,0.494l-0.818-0.472
									c0.146-0.166,0.305-0.324,0.481-0.464c0.171-0.144,0.355-0.273,0.559-0.391c0.443-0.258,0.882-0.402,1.327-0.432
									c0.439-0.026,0.834,0.056,1.186,0.258c0.204,0.118,0.345,0.258,0.409,0.42c0.077,0.162,0.085,0.424,0.056,0.789
									L349.287,133.447 M351.36,131.939l0.888-0.516l0.971,0.56l-0.889,0.516L351.36,131.939 M351.861,130.612
									c-0.612-0.354-0.958-0.708-1.03-1.058c-0.065-0.346,0.143-0.66,0.632-0.943c0.481-0.28,1.021-0.402,1.62-0.365
									c0.604,0.041,1.211,0.244,1.823,0.597c0.619,0.357,0.972,0.708,1.037,1.054c0.072,0.35-0.137,0.664-0.618,0.944
									c-0.488,0.284-1.029,0.406-1.634,0.365C353.093,131.169,352.481,130.97,351.861,130.612 M357.233,127.35
									c0.318-0.103,0.623-0.147,0.903-0.132c0.293,0.015,0.554,0.092,0.79,0.229c0.37,0.214,0.531,0.446,0.476,0.7
									c-0.056,0.247-0.322,0.513-0.805,0.792c-0.481,0.28-0.938,0.435-1.371,0.472c-0.433,0.029-0.841-0.059-1.211-0.273
									c-0.236-0.136-0.364-0.291-0.397-0.457c-0.026-0.162,0.05-0.339,0.227-0.523c-0.292,0.088-0.565,0.129-0.82,0.114
									s-0.491-0.085-0.701-0.207c-0.313-0.181-0.435-0.391-0.373-0.619c0.075-0.229,0.335-0.476,0.785-0.737
									s0.87-0.41,1.264-0.454c0.401-0.041,0.752,0.029,1.071,0.214c0.21,0.122,0.332,0.258,0.358,0.405
									C357.454,127.021,357.386,127.18,357.233,127.35 M363.068,128.279l-7.208-4.162l-17.577,10.215l7.208,4.162L363.068,128.279
									"/>
								<polyline fill="#EC7405" points="332.408,128.522 314.621,118.252 305.835,123.357 323.623,133.628 332.408,128.522 
																	"/>
								<path fill="#CFD0D2" d="M366.371,132.78c-0.467-0.269-0.843-0.435-1.116-0.49c-0.274-0.063-0.516-0.033-0.726,0.088
									c-0.203,0.118-0.253,0.258-0.149,0.42c0.096,0.158,0.39,0.372,0.855,0.641c0.467,0.27,0.837,0.439,1.123,0.501
									c0.28,0.059,0.521,0.029,0.725-0.088c0.203-0.118,0.253-0.258,0.15-0.42C367.125,133.267,366.837,133.049,366.371,132.78
									 M352.784,138.523l0.951-0.553l3.723,2.149l-0.951,0.553l-1.577-0.91l-1.408,0.818l1.577,0.911l-0.952,0.553l-3.722-2.149
									l0.951-0.553l1.418,0.819l1.407-0.818L352.784,138.523 M358.424,138.737l1.63-0.948l0.709,0.409l-2.689,1.563l-0.709-0.409
									l0.151-1.478c0.012-0.133-0.008-0.247-0.053-0.339c-0.046-0.092-0.122-0.173-0.237-0.24c-0.172-0.1-0.37-0.147-0.599-0.141
									c-0.223,0.004-0.433,0.066-0.623,0.177c-0.146,0.085-0.278,0.199-0.393,0.339c-0.114,0.14-0.208,0.306-0.277,0.494
									l-0.816-0.472c0.133-0.166,0.297-0.321,0.468-0.464s0.354-0.273,0.558-0.391c0.444-0.258,0.883-0.402,1.328-0.432
									s0.841,0.059,1.191,0.262c0.205,0.118,0.339,0.254,0.41,0.42c0.07,0.159,0.085,0.424,0.049,0.785L358.424,138.737
									 M360.503,137.233l0.895-0.52l0.964,0.557l-0.895,0.52L360.503,137.233 M359.655,134.737l0.678-0.601l0.906-0.527
									l3.059,1.766l0.845-0.491l0.663,0.383l-2.588,1.504l-0.664-0.383l0.844-0.491l-2.407-1.39l-0.684,0.604L359.655,134.737
									 M364.284,134c-0.619-0.358-0.965-0.711-1.03-1.058c-0.079-0.346,0.136-0.663,0.618-0.943
									c0.488-0.284,1.028-0.406,1.634-0.365c0.592,0.041,1.203,0.24,1.822,0.597c0.613,0.354,0.959,0.708,1.031,1.051
									c0.072,0.35-0.137,0.664-0.625,0.948c-0.481,0.28-1.028,0.405-1.627,0.361C365.509,134.553,364.897,134.354,364.284,134
									 M371.688,133.255l-6.372-3.679l-17.577,10.215l6.372,3.679L371.688,133.255"/>
								<path fill="#CFD0D2" d="M388.973,159.403l0.951-0.553l3.729,2.153l-0.951,0.553l-1.584-0.914l-1.408,0.818l1.583,0.914
									l-0.957,0.557l-3.729-2.152l0.957-0.557l1.424,0.822l1.408-0.818L388.973,159.403 M394.618,159.621l1.63-0.948l0.709,0.409
									l-2.689,1.563l-0.709-0.409l0.151-1.479c0.012-0.132-0.009-0.247-0.053-0.339c-0.052-0.096-0.129-0.177-0.237-0.24
									c-0.179-0.103-0.383-0.147-0.599-0.14c-0.223,0.004-0.433,0.066-0.623,0.177c-0.152,0.089-0.279,0.199-0.393,0.339
									s-0.208,0.306-0.29,0.494l-0.817-0.472c0.146-0.166,0.311-0.321,0.481-0.464s0.354-0.273,0.558-0.391
									c0.444-0.258,0.882-0.402,1.328-0.431c0.439-0.026,0.84,0.059,1.185,0.258c0.204,0.118,0.346,0.258,0.41,0.42
									c0.077,0.162,0.092,0.427,0.056,0.789L394.618,159.621 M396.697,158.117l0.889-0.516l0.963,0.556l-0.888,0.516
									L396.697,158.117 M395.843,155.624l0.678-0.608l0.907-0.527l3.064,1.77l0.844-0.49l0.664,0.383l-2.588,1.504l-0.664-0.383
									l0.844-0.49l-2.407-1.39l-0.69,0.608L395.843,155.624 M402.443,153.563c0.317-0.11,0.623-0.155,0.91-0.136
									c0.286,0.018,0.561,0.096,0.809,0.239c0.371,0.214,0.506,0.461,0.418,0.734c-0.088,0.272-0.403,0.568-0.943,0.881
									c-0.184,0.107-0.387,0.21-0.615,0.306c-0.223,0.092-0.451,0.173-0.705,0.247l-0.74-0.428
									c0.267-0.051,0.515-0.114,0.736-0.191c0.223-0.077,0.42-0.162,0.591-0.262c0.254-0.147,0.399-0.284,0.443-0.413
									c0.05-0.133-0.014-0.243-0.174-0.335c-0.173-0.1-0.37-0.133-0.593-0.107c-0.223,0.033-0.47,0.125-0.742,0.284l-0.381,0.221
									l-0.619-0.357l0.399-0.232c0.241-0.14,0.381-0.266,0.424-0.38c0.038-0.111-0.015-0.214-0.167-0.302
									c-0.141-0.081-0.312-0.114-0.504-0.092c-0.19,0.022-0.394,0.096-0.603,0.218c-0.152,0.088-0.292,0.185-0.412,0.298
									c-0.127,0.111-0.228,0.229-0.316,0.361l-0.702-0.406c0.14-0.14,0.278-0.272,0.437-0.395c0.165-0.125,0.33-0.235,0.508-0.339
									c0.482-0.28,0.92-0.446,1.321-0.494c0.394-0.044,0.757,0.026,1.076,0.21c0.217,0.125,0.339,0.262,0.358,0.405
									C402.684,153.247,402.608,153.401,402.443,153.563 M409.421,155.042l-9.271-5.353l-4.396,2.555l-13.181,7.66l9.271,5.353
									l13.181-7.66L409.421,155.042"/>
								<path fill="#CFD0D2" d="M362.584,144.167l0.952-0.553l3.722,2.149l-0.951,0.553l-1.577-0.911l-1.408,0.818l1.577,0.911
									l-0.958,0.557l-3.722-2.149l0.957-0.557l1.418,0.818l1.408-0.818L362.584,144.167 M368.23,144.385l1.63-0.948l0.702,0.406
									l-2.689,1.563L367.171,145l0.151-1.478c0.006-0.136-0.008-0.247-0.06-0.343c-0.045-0.092-0.121-0.173-0.236-0.24
									c-0.173-0.1-0.377-0.144-0.599-0.14c-0.224,0.003-0.434,0.066-0.623,0.177c-0.152,0.088-0.279,0.199-0.394,0.339
									c-0.112,0.141-0.208,0.306-0.283,0.498l-0.816-0.472c0.145-0.167,0.303-0.325,0.475-0.469
									c0.171-0.144,0.354-0.272,0.558-0.391c0.443-0.258,0.888-0.398,1.327-0.431c0.439-0.026,0.841,0.059,1.191,0.262
									c0.205,0.118,0.339,0.254,0.41,0.42c0.071,0.159,0.085,0.424,0.049,0.786L368.23,144.385 M370.304,142.877l0.888-0.516
									l0.964,0.557l-0.888,0.516L370.304,142.877 M369.449,140.385l0.684-0.604l0.907-0.527l3.059,1.766l0.844-0.49l0.664,0.383
									l-2.589,1.504l-0.663-0.383l0.844-0.49l-2.407-1.39l-0.69,0.608L369.449,140.385 M372.729,138.479l0.678-0.601l0.907-0.527
									l3.059,1.766l0.843-0.49l0.664,0.383l-2.588,1.504l-0.664-0.383l0.844-0.491l-2.407-1.39l-0.684,0.604L372.729,138.479
									 M383.486,140.068l-9.552-5.515l-8.785,5.106l-8.792,5.109l9.552,5.515L383.486,140.068"/>
								<polyline fill="#CFD0D2" points="366.85,218.083 347.045,206.648 336.579,212.73 356.384,224.166 366.85,218.083 								
									"/>
								<path fill="#CFD0D2" d="M412.566,160.004l-1.558-0.899l0.511,1.508L412.566,160.004 M398.952,165.195l0.958-0.557
									l3.721,2.149l-0.958,0.557l-1.576-0.911l-1.408,0.818l1.577,0.91l-0.952,0.553l-3.722-2.149l0.952-0.553l1.417,0.818
									l1.407-0.818L398.952,165.195 M404.598,165.404l1.623-0.943l0.709,0.409l-2.689,1.562l-0.709-0.409l0.157-1.474
									c0.006-0.137-0.007-0.247-0.053-0.347c-0.044-0.092-0.128-0.169-0.242-0.236c-0.173-0.1-0.37-0.147-0.593-0.144
									c-0.229,0.007-0.434,0.066-0.63,0.18c-0.146,0.085-0.278,0.199-0.392,0.34c-0.107,0.136-0.202,0.302-0.278,0.494
									l-0.816-0.472c0.145-0.167,0.297-0.321,0.468-0.465c0.172-0.144,0.361-0.276,0.564-0.395
									c0.438-0.254,0.889-0.398,1.321-0.428c0.445-0.029,0.841,0.059,1.191,0.262c0.204,0.118,0.339,0.255,0.416,0.417
									c0.064,0.162,0.085,0.424,0.043,0.789L404.598,165.404 M406.67,163.904l0.895-0.52l0.964,0.556l-0.895,0.52L406.67,163.904
									 M405.822,161.409l0.685-0.604l0.9-0.523l3.058,1.766l0.844-0.491l0.664,0.383l-2.588,1.504l-0.664-0.383l0.844-0.49
									l-2.406-1.39l-0.685,0.604L405.822,161.409 M410.796,160.885l-0.737-2.146l1.06-0.616l2.349,1.356l0.527-0.306l0.696,0.402
									l-0.527,0.306l0.677,0.391l-0.9,0.523l-0.677-0.391l-1.643,0.955L410.796,160.885 M417.759,159.856l-6.091-3.517
									l-17.583,10.219l6.091,3.517L417.759,159.856"/>
								<path fill="#CFD0D2" d="M375.992,151.909l0.951-0.553l3.723,2.149l-0.951,0.553l-1.577-0.91l-1.408,0.818l1.577,0.911
									l-0.958,0.556l-3.723-2.149l0.958-0.557l1.418,0.818l1.408-0.818L375.992,151.909 M381.639,152.126l1.63-0.947l0.702,0.406
									l-2.689,1.563l-0.702-0.406l0.151-1.478c0.005-0.136-0.009-0.247-0.061-0.343c-0.044-0.092-0.121-0.173-0.236-0.24
									c-0.172-0.099-0.376-0.144-0.599-0.14s-0.433,0.066-0.622,0.177c-0.152,0.089-0.279,0.199-0.394,0.339
									s-0.208,0.306-0.283,0.498l-0.817-0.472c0.146-0.166,0.304-0.325,0.475-0.469c0.171-0.144,0.355-0.272,0.559-0.39
									c0.443-0.258,0.888-0.398,1.327-0.431c0.438-0.026,0.84,0.059,1.19,0.261c0.205,0.118,0.34,0.255,0.411,0.42
									c0.07,0.158,0.084,0.424,0.048,0.785L381.639,152.126 M383.711,150.618l0.888-0.516l0.965,0.557l-0.889,0.516
									L383.711,150.618 M382.857,148.126l0.684-0.604l0.907-0.527l3.058,1.766l0.844-0.49l0.664,0.383l-2.588,1.504l-0.664-0.384
									l0.844-0.49l-2.407-1.39l-0.69,0.608L382.857,148.126 M389.865,147.345l1.63-0.947l0.703,0.406l-2.689,1.563l-0.703-0.406
									l0.151-1.478c0.006-0.137-0.008-0.247-0.06-0.343c-0.045-0.092-0.122-0.173-0.236-0.24c-0.172-0.099-0.37-0.147-0.6-0.14
									c-0.222,0.004-0.432,0.066-0.622,0.177c-0.152,0.088-0.279,0.199-0.393,0.339c-0.114,0.14-0.209,0.306-0.277,0.494
									l-0.817-0.472c0.14-0.162,0.298-0.32,0.468-0.465c0.172-0.144,0.355-0.272,0.559-0.39c0.444-0.258,0.889-0.398,1.328-0.431
									c0.444-0.03,0.84,0.059,1.19,0.261c0.205,0.118,0.339,0.255,0.41,0.42c0.07,0.158,0.085,0.424,0.049,0.785L389.865,147.345
									 M397.902,148.392l-12.169-7.026l-17.583,10.219l12.169,7.026L397.902,148.392"/>
								<path fill="#BDD4E4" d="M254.44,189.02l0.951-0.553l3.723,2.149l-0.951,0.553l-1.577-0.911l-1.408,0.819l1.577,0.911
									l-0.958,0.557l-3.723-2.149l0.958-0.557l1.417,0.818l1.408-0.818L254.44,189.02 M260.08,189.233l1.63-0.947l0.708,0.409
									l-2.689,1.563l-0.709-0.409l0.151-1.479c0.012-0.132-0.008-0.247-0.053-0.339s-0.128-0.17-0.243-0.236
									c-0.172-0.1-0.37-0.147-0.593-0.144c-0.223,0.004-0.432,0.066-0.623,0.177c-0.152,0.088-0.278,0.199-0.392,0.339
									s-0.208,0.306-0.284,0.498l-0.817-0.472c0.139-0.169,0.304-0.325,0.475-0.468c0.17-0.144,0.354-0.272,0.558-0.391
									c0.444-0.258,0.882-0.402,1.328-0.431c0.438-0.026,0.84,0.059,1.191,0.261c0.198,0.114,0.333,0.258,0.41,0.421
									c0.071,0.158,0.085,0.424,0.042,0.788L260.08,189.233 M262.158,187.729l0.889-0.517l0.964,0.557l-0.889,0.516
									L262.158,187.729 M261.305,185.237l0.685-0.604l0.906-0.527l3.058,1.766l0.838-0.487l0.664,0.384l-2.582,1.5l-0.664-0.383
									l0.837-0.487l-2.407-1.39l-0.684,0.604L261.305,185.237 M264.171,183.365l2.791-1.622l0.536,0.31l1.74,2.68l-0.927,0.538
									l-1.656-2.537l-1.783,1.036L264.171,183.365 M274.243,183.044l-6.736-3.889l-20.374,11.841l6.735,3.889L274.243,183.044"/>
								<polyline fill="#BDD4E4" points="319.126,196.348 306.203,188.887 300.481,192.212 313.404,199.673 319.126,196.348 
																	"/>
								<path fill="#BDD4E4" d="M389.149,191.018c-0.191-0.11-0.401-0.159-0.618-0.151c-0.21,0.011-0.433,0.081-0.66,0.214
									l-0.793,0.461l1.181,0.682l0.793-0.46c0.229-0.133,0.35-0.262,0.361-0.387C389.432,191.253,389.348,191.132,389.149,191.018
									 M391.67,192.216c-0.242-0.14-0.49-0.203-0.758-0.188c-0.261,0.011-0.541,0.099-0.833,0.269l-0.843,0.49l1.462,0.844
									l0.844-0.49c0.285-0.166,0.443-0.324,0.468-0.479C392.027,192.503,391.919,192.359,391.67,192.216 M398.842,187.611
									c-0.396-0.229-0.777-0.361-1.142-0.395c-0.35-0.033-0.674,0.03-0.96,0.196c-0.285,0.166-0.398,0.357-0.34,0.568
									c0.059,0.21,0.282,0.427,0.678,0.656c0.396,0.229,0.779,0.361,1.142,0.395c0.363,0.033,0.693-0.033,0.979-0.199
									c0.285-0.166,0.393-0.354,0.327-0.561C399.475,188.064,399.244,187.844,398.842,187.611 M408.153,182.2
									c-0.401-0.232-0.791-0.361-1.153-0.395c-0.369-0.037-0.694,0.033-0.985,0.203c-0.292,0.17-0.418,0.362-0.354,0.575
									c0.059,0.21,0.283,0.436,0.685,0.667c0.402,0.232,0.791,0.361,1.161,0.398c0.362,0.033,0.699-0.037,0.991-0.207
									s0.405-0.361,0.347-0.571C408.78,182.657,408.556,182.432,408.153,182.2 M420.748,174.348
									c-0.255-0.147-0.535-0.221-0.835-0.225c-0.305-0.007-0.578,0.062-0.813,0.199c-0.26,0.151-0.393,0.317-0.404,0.494
									c-0.024,0.177,0.091,0.354,0.321,0.539L420.748,174.348 M390.869,191.209c0.394-0.125,0.795-0.166,1.208-0.125
									c0.414,0.041,0.79,0.162,1.142,0.365c0.536,0.31,0.755,0.649,0.661,1.014c-0.1,0.361-0.511,0.755-1.254,1.187l-2.372,1.379
									l-5.586-3.226l2.144-1.246c0.773-0.45,1.447-0.708,2.026-0.771c0.584-0.066,1.133,0.052,1.649,0.351
									c0.269,0.154,0.435,0.324,0.5,0.509C391.052,190.83,391.008,191.018,390.869,191.209 M389.791,188.551l1.332-0.774
									l1.092,0.63l-1.332,0.774L389.791,188.551 M391.426,189.495l1.332-0.774l4.188,2.418l-1.332,0.774L391.426,189.495
									 M392.018,187.257l1.332-0.774l2.248,1.297c-0.065-0.25-0.041-0.471,0.066-0.667c0.106-0.195,0.31-0.38,0.601-0.549
									c0.508-0.295,1.138-0.424,1.876-0.379c0.738,0.044,1.433,0.254,2.078,0.626c0.65,0.376,1.01,0.774,1.088,1.202
									c0.086,0.431-0.135,0.796-0.643,1.091c-0.292,0.169-0.609,0.288-0.946,0.35c-0.344,0.059-0.725,0.074-1.151,0.041
									l0.606,0.35l-1.332,0.774L392.018,187.257 M280.92,174.289l49.255-28.625l49.582,28.628l-9.071,5.271l8.429,4.866
									l-16.321,9.485l-8.428-4.866l-23.863,13.868l-9.129-5.271l-7.955,4.623l-17.417-10.057l7.955-4.623L280.92,174.289
									 M397.086,184.312l1.332-0.774l5.823,3.362l-1.333,0.774L397.086,184.312 M399.319,183.014l1.325-0.77l1.092,0.63
									l-1.325,0.771L399.319,183.014 M400.953,183.958l1.326-0.771l4.188,2.418l-1.326,0.771L400.953,183.958 M404.963,184.054
									c-0.683-0.394-1.022-0.825-1.006-1.286c0.01-0.458,0.383-0.896,1.1-1.312s1.467-0.631,2.262-0.641
									c0.79-0.008,1.535,0.188,2.218,0.582c0.69,0.398,1.03,0.83,1.013,1.283c-0.016,0.46-0.376,0.899-1.093,1.316
									s-1.479,0.63-2.269,0.638C406.398,184.647,405.653,184.452,404.963,184.054 M406.959,179.085l1.326-0.771l1.193,0.689
									l1.376-0.8l0.958,0.553l-1.376,0.8l1.774,1.025c0.191,0.11,0.37,0.162,0.517,0.158c0.14-0.007,0.331-0.073,0.559-0.206
									l0.686-0.398l0.957,0.553l-1.142,0.664c-0.526,0.306-1.01,0.46-1.448,0.457c-0.438,0.004-0.923-0.151-1.453-0.457
									l-1.775-1.025l-0.666,0.387l-0.958-0.553l0.666-0.387L406.959,179.085 M409.651,177.009l1.333-0.774l2.247,1.297
									c-0.053-0.258-0.016-0.486,0.099-0.686c0.106-0.195,0.297-0.373,0.569-0.531c0.481-0.28,0.997-0.409,1.544-0.38
									c0.541,0.026,1.103,0.203,1.664,0.527l2.554,1.475l-1.339,0.777l-0.414-0.239l-1.533-0.885
									c-0.363-0.21-0.625-0.354-0.777-0.42c-0.154-0.074-0.288-0.114-0.39-0.129c-0.134-0.018-0.274-0.019-0.414,0.003
									c-0.14,0.03-0.267,0.074-0.381,0.141c-0.272,0.158-0.386,0.35-0.328,0.567c0.059,0.217,0.276,0.431,0.659,0.652l2.062,1.191
									l-1.332,0.774L409.651,177.009 M418.106,176.416c-0.684-0.394-1.017-0.822-0.993-1.286c0.016-0.468,0.389-0.907,1.105-1.324
									c0.653-0.379,1.378-0.571,2.167-0.571c0.782,0.003,1.509,0.195,2.174,0.579l0.383,0.221l-3.108,1.806
									c0.345,0.162,0.694,0.232,1.039,0.21c0.355-0.022,0.699-0.133,1.048-0.336c0.279-0.162,0.525-0.35,0.741-0.571
									c0.209-0.217,0.385-0.468,0.518-0.745l1.035,0.598c-0.189,0.25-0.418,0.487-0.671,0.701
									c-0.254,0.221-0.539,0.424-0.85,0.604c-0.755,0.438-1.53,0.667-2.339,0.686
									C419.554,177.009,418.803,176.818,418.106,176.416 M425.406,171.974l4.455,0.037l-1.611,0.936l-3.373-0.066l1.749,1.01
									l-1.332,0.774l-5.823-3.362l1.333-0.774l3.166,1.829l-0.003-1.773l1.547-0.899L425.406,171.974 M442.479,174.13
									l-22.474-12.976L400.19,172.67l-10.586-6.112l0.007-0.004l-9.271-5.353l-0.006,0.003l-16.664-9.622l0.006-0.004
									l-9.551-5.515l-8.619-4.977l-0.007,0.004l-11.703-6.757l19.816-11.516l-3.466-2.002l-19.531,11.351l-20.096,11.679
									l-6.69-3.864l-17.025,9.895l-13.344-7.705l-21.123,12.275l20.035,11.568l-9.769,5.677l-12.28,7.137l6.646,3.837
									l10.517-6.112l11.237,6.488l-22.607,13.138l74.451,42.988l23.585-13.707l-22.053-12.732l14.932-8.678l22.053,12.732
									L442.479,174.13"/>
								<polyline fill="#BDD4E4" points="374.642,184.427 368.461,180.857 356.593,187.755 362.779,191.32 374.642,184.427 								
									"/>
								<path fill="#BDD4E4" d="M262.265,165.862c-0.205-0.118-0.446-0.148-0.726-0.089c-0.279,0.059-0.647,0.221-1.111,0.491
									c-0.469,0.272-0.754,0.49-0.856,0.652c-0.101,0.162-0.048,0.302,0.156,0.42c0.204,0.118,0.446,0.147,0.725,0.089
									c0.274-0.063,0.648-0.229,1.118-0.501c0.463-0.269,0.742-0.483,0.849-0.642C262.521,166.12,262.469,165.979,262.265,165.862
									 M252.906,164.066l0.958-0.557l0.9,0.52l-0.958,0.557L252.906,164.066 M248.786,159.034l1.417,0.818l1.408-0.818
									l0.964,0.557l-3.698,2.149l-0.964-0.557l1.567-0.911l-1.417-0.818l-1.567,0.911l-0.958-0.553l3.698-2.149l0.958,0.553
									L248.786,159.034 M252.237,160.513l0.812-0.472c0.287,0.084,0.555,0.173,0.803,0.272s0.479,0.21,0.683,0.328
									c0.44,0.254,0.69,0.516,0.736,0.771c0.059,0.254-0.093,0.483-0.441,0.686c-0.203,0.118-0.438,0.195-0.718,0.24
									c-0.279,0.037-0.731,0.048-1.361,0.022l-1.489-0.052l1.634,0.944l-0.698,0.406l-2.707-1.563l0.698-0.406l2.553,0.092
									c0.229,0.007,0.426-0.003,0.598-0.029c0.159-0.026,0.292-0.074,0.407-0.14c0.171-0.1,0.253-0.214,0.246-0.343
									c-0.02-0.129-0.116-0.251-0.314-0.365c-0.146-0.084-0.345-0.162-0.587-0.229
									C252.855,160.612,252.569,160.557,252.237,160.513 M257.224,163.392l0.812-0.472c0.281,0.081,0.555,0.173,0.804,0.273
									c0.249,0.099,0.472,0.207,0.676,0.324c0.447,0.258,0.691,0.516,0.743,0.774c0.059,0.255-0.092,0.483-0.441,0.686
									c-0.203,0.118-0.438,0.195-0.725,0.236c-0.273,0.041-0.731,0.048-1.355,0.026l-1.496-0.056l1.641,0.948l-0.698,0.405
									l-2.708-1.563l0.698-0.406l2.552,0.092c0.229,0.008,0.426-0.003,0.592-0.033c0.158-0.026,0.298-0.07,0.413-0.137
									c0.171-0.1,0.253-0.214,0.24-0.346c-0.014-0.125-0.116-0.251-0.308-0.362c-0.147-0.084-0.344-0.162-0.586-0.229
									C257.835,163.488,257.549,163.432,257.224,163.392 M259.081,167.712c-0.492-0.284-0.704-0.597-0.642-0.943
									c0.068-0.35,0.41-0.697,1.025-1.055c0.615-0.357,1.212-0.556,1.816-0.597c0.598-0.037,1.146,0.081,1.638,0.365
									c0.485,0.28,0.691,0.597,0.629,0.944c-0.068,0.35-0.403,0.7-1.019,1.058s-1.219,0.553-1.824,0.594
									C260.107,168.114,259.566,167.992,259.081,167.712 M267.898,166.02l-17.794-10.274l-7.536,4.379l17.794,10.274
									L267.898,166.02"/>
								<path fill="#BDD4E4" d="M245.525,175.494c-0.166-0.096-0.351-0.137-0.542-0.122c-0.197,0.011-0.4,0.084-0.61,0.207
									c-0.216,0.125-0.342,0.243-0.361,0.357c-0.025,0.111,0.045,0.218,0.211,0.313s0.351,0.137,0.542,0.122
									c0.198-0.011,0.4-0.084,0.616-0.21c0.209-0.122,0.336-0.239,0.354-0.354C245.762,175.697,245.691,175.59,245.525,175.494
									 M236.205,173.772l0.958-0.557l0.9,0.52l-0.958,0.557L236.205,173.772 M232.078,168.744l1.417,0.818l1.415-0.822
									l0.964,0.557l-3.698,2.149l-0.964-0.557l1.567-0.911l-1.417-0.818l-1.567,0.911l-0.958-0.553l3.698-2.149l0.958,0.553
									L232.078,168.744 M240.815,173.113l0.653-0.38l1.046,0.398l0.907,0.523l-3.045,1.77l0.85,0.49l-0.653,0.38l-2.605-1.504
									l0.653-0.379l0.849,0.49l2.392-1.39L240.815,173.113 M235.536,170.219l0.812-0.472c0.287,0.085,0.555,0.173,0.804,0.272
									c0.242,0.104,0.472,0.214,0.676,0.333c0.44,0.254,0.697,0.512,0.743,0.767c0.053,0.258-0.092,0.482-0.441,0.685
									c-0.203,0.118-0.445,0.2-0.717,0.24c-0.287,0.041-0.732,0.048-1.369,0.026l-1.482-0.056l1.634,0.944l-0.698,0.405
									l-2.707-1.563l0.698-0.405l2.553,0.092c0.229,0.008,0.426-0.003,0.591-0.025c0.166-0.03,0.299-0.078,0.406-0.14
									c0.178-0.103,0.26-0.218,0.253-0.347c-0.02-0.129-0.116-0.25-0.314-0.365c-0.147-0.085-0.345-0.163-0.587-0.229
									C236.147,170.322,235.867,170.263,235.536,170.219 M243.45,176.515c-0.383-0.221-0.582-0.46-0.589-0.723
									c-0.015-0.265,0.156-0.498,0.517-0.708c0.4-0.232,0.845-0.343,1.348-0.332c0.502,0.011,0.968,0.14,1.408,0.395
									c0.485,0.28,0.697,0.593,0.636,0.932c-0.062,0.347-0.385,0.689-0.98,1.036c-0.609,0.354-1.251,0.542-1.906,0.567
									c-0.662,0.022-1.267-0.122-1.81-0.435c-0.172-0.099-0.326-0.202-0.46-0.309c-0.134-0.107-0.256-0.221-0.358-0.339
									l0.685-0.398c0.084,0.129,0.18,0.243,0.282,0.346c0.102,0.104,0.23,0.192,0.364,0.27c0.287,0.166,0.587,0.25,0.905,0.25
									s0.642-0.085,0.985-0.247c-0.198-0.019-0.382-0.052-0.554-0.1C243.756,176.67,243.597,176.6,243.45,176.515
									 M258.332,171.572l-17.788-10.271l-22.347,12.987l17.788,10.27l20.482-11.903L258.332,171.572"/>
								<path fill="#BDD4E4" d="M246.907,183.7c-0.147-0.085-0.299-0.129-0.465-0.129c-0.153,0-0.312,0.048-0.458,0.133
									c-0.152,0.088-0.228,0.177-0.228,0.272c-0.005,0.092,0.064,0.185,0.211,0.269c0.147,0.085,0.307,0.125,0.465,0.122
									c0.166,0,0.318-0.044,0.47-0.133c0.146-0.085,0.228-0.177,0.221-0.27C247.131,183.873,247.054,183.785,246.907,183.7
									 M248.618,184.592c-0.185-0.107-0.37-0.162-0.561-0.162c-0.19,0-0.375,0.048-0.553,0.151
									c-0.178,0.104-0.267,0.214-0.266,0.325c0.007,0.114,0.097,0.225,0.275,0.328c0.186,0.107,0.377,0.159,0.567,0.159
									c0.191,0,0.382-0.051,0.56-0.155c0.177-0.103,0.26-0.21,0.259-0.321C248.898,184.806,248.803,184.699,248.618,184.592
									 M241.155,186.096l0.684-0.604l0.901-0.523l3.058,1.766l0.844-0.49l0.664,0.383l-2.588,1.504l-0.664-0.383l0.843-0.49
									l-2.407-1.39l-0.684,0.604L241.155,186.096 M247.883,183.999c0.311-0.107,0.617-0.151,0.903-0.132
									c0.28,0.015,0.548,0.096,0.785,0.232c0.37,0.214,0.53,0.446,0.474,0.693c-0.056,0.254-0.329,0.516-0.804,0.792
									c-0.481,0.28-0.933,0.438-1.371,0.472c-0.427,0.033-0.834-0.056-1.204-0.269c-0.236-0.137-0.377-0.292-0.398-0.457
									c-0.032-0.166,0.043-0.343,0.227-0.524c-0.293,0.089-0.573,0.126-0.828,0.111c-0.254-0.014-0.484-0.081-0.701-0.206
									c-0.313-0.181-0.428-0.388-0.366-0.616c0.069-0.232,0.329-0.479,0.779-0.741c0.444-0.258,0.87-0.409,1.271-0.45
									c0.394-0.044,0.751,0.029,1.063,0.21c0.217,0.125,0.333,0.258,0.359,0.406C248.097,183.667,248.034,183.829,247.883,183.999
									 M254.736,183.965l-6.646-3.837l-9.851,5.732l4.246,2.452l0.413-0.24l0.964,0.557l-0.413,0.24l1.43,0.826L254.736,183.965"
									/>
								<polyline fill="#FFFFFF" points="403.631,166.787 399.91,164.638 398.952,165.195 400.368,166.013 398.961,166.831 
									397.544,166.013 396.592,166.566 400.313,168.715 401.266,168.162 399.688,167.251 401.097,166.433 402.673,167.344 
									403.631,166.787 								"/>
								<path fill="#FFFFFF" d="M406.93,164.87l-0.709-0.409l-1.623,0.943l0.091-0.858c0.042-0.365,0.021-0.627-0.043-0.789
									c-0.077-0.162-0.212-0.299-0.416-0.417c-0.351-0.203-0.746-0.291-1.191-0.262c-0.433,0.03-0.884,0.173-1.321,0.428
									c-0.203,0.118-0.393,0.251-0.564,0.395c-0.171,0.144-0.323,0.298-0.468,0.465l0.816,0.472
									c0.076-0.192,0.171-0.357,0.278-0.494c0.113-0.141,0.246-0.255,0.392-0.34c0.196-0.114,0.4-0.173,0.63-0.18
									c0.223-0.004,0.42,0.044,0.593,0.144c0.114,0.066,0.198,0.144,0.242,0.236c0.046,0.1,0.059,0.21,0.053,0.347l-0.157,1.474
									l0.709,0.409L406.93,164.87"/>
								<polyline fill="#FFFFFF" points="408.528,163.941 407.564,163.385 406.67,163.904 407.634,164.461 408.528,163.941 								
									"/>
								<polyline fill="#FFFFFF" points="411.973,161.939 411.309,161.556 410.465,162.046 407.407,160.281 406.507,160.804 
									405.822,161.409 406.474,161.785 407.158,161.18 409.564,162.57 408.721,163.06 409.385,163.443 411.973,161.939 								
									"/>
								<path fill="#FFFFFF" d="M411.52,160.612l-0.511-1.508l1.558,0.899L411.52,160.612 M414.69,159.577l-0.696-0.402
									l-0.527,0.306l-2.349-1.356l-1.06,0.616l0.737,2.146l0.824,0.476l1.643-0.955l0.677,0.391l0.9-0.523l-0.677-0.391
									L414.69,159.577"/>
								<polyline fill="#FFFFFF" points="393.652,161.003 389.924,158.85 388.973,159.403 390.396,160.225 388.987,161.043 
									387.563,160.222 386.606,160.778 390.335,162.931 391.292,162.374 389.709,161.46 391.117,160.642 392.701,161.556 
									393.652,161.003 								"/>
								<path fill="#FFFFFF" d="M396.957,159.082l-0.709-0.409l-1.63,0.948l0.098-0.863c0.036-0.361,0.021-0.626-0.056-0.789
									c-0.064-0.163-0.206-0.303-0.41-0.42c-0.345-0.199-0.745-0.284-1.185-0.258c-0.446,0.029-0.884,0.173-1.328,0.431
									c-0.203,0.118-0.387,0.247-0.558,0.391s-0.336,0.299-0.481,0.464l0.817,0.472c0.082-0.188,0.177-0.354,0.29-0.494
									s0.24-0.25,0.393-0.339c0.19-0.11,0.4-0.173,0.623-0.177c0.216-0.007,0.42,0.037,0.599,0.14
									c0.108,0.062,0.186,0.144,0.237,0.24c0.044,0.092,0.064,0.207,0.053,0.339l-0.151,1.479l0.709,0.409L396.957,159.082"/>
								<polyline fill="#FFFFFF" points="398.549,158.157 397.586,157.601 396.697,158.117 397.661,158.673 398.549,158.157 
																	"/>
								<polyline fill="#FFFFFF" points="402,156.151 401.336,155.769 400.492,156.259 397.428,154.489 396.521,155.016 
									395.843,155.624 396.494,156 397.185,155.392 399.592,156.782 398.748,157.272 399.412,157.656 402,156.151 								"/>
								<path fill="#FFFFFF" d="M404.162,153.667c-0.248-0.144-0.522-0.221-0.809-0.239c-0.287-0.019-0.593,0.025-0.91,0.136
									c0.165-0.162,0.24-0.317,0.214-0.464c-0.02-0.144-0.142-0.28-0.358-0.405c-0.319-0.185-0.683-0.254-1.076-0.21
									c-0.401,0.048-0.839,0.214-1.321,0.494c-0.178,0.104-0.343,0.214-0.508,0.339c-0.158,0.122-0.297,0.255-0.437,0.395
									l0.702,0.406c0.089-0.132,0.189-0.25,0.316-0.361c0.12-0.114,0.26-0.21,0.412-0.298c0.209-0.122,0.412-0.196,0.603-0.218
									c0.191-0.022,0.363,0.011,0.504,0.092c0.152,0.088,0.205,0.191,0.167,0.302c-0.043,0.114-0.183,0.24-0.424,0.38
									l-0.399,0.232l0.619,0.357l0.381-0.221c0.272-0.159,0.52-0.251,0.742-0.284c0.223-0.026,0.42,0.007,0.593,0.107
									c0.16,0.092,0.224,0.203,0.174,0.335c-0.044,0.129-0.189,0.266-0.443,0.413c-0.171,0.1-0.368,0.185-0.591,0.262
									c-0.222,0.078-0.47,0.14-0.736,0.191l0.74,0.428c0.254-0.074,0.482-0.155,0.705-0.247c0.229-0.096,0.432-0.199,0.615-0.306
									c0.54-0.313,0.855-0.608,0.943-0.881C404.668,154.128,404.533,153.881,404.162,153.667"/>
								<polyline fill="#FFFFFF" points="380.666,153.505 376.943,151.355 375.992,151.909 377.41,152.727 376.002,153.545 
									374.584,152.727 373.626,153.284 377.349,155.433 378.307,154.876 376.729,153.966 378.138,153.147 379.715,154.058 
									380.666,153.505 								"/>
								<path fill="#FFFFFF" d="M383.971,151.584l-0.702-0.406l-1.63,0.947l0.09-0.866c0.036-0.361,0.022-0.627-0.048-0.785
									c-0.071-0.166-0.206-0.302-0.411-0.42c-0.351-0.203-0.752-0.288-1.19-0.261c-0.439,0.033-0.884,0.173-1.327,0.431
									c-0.203,0.118-0.388,0.247-0.559,0.39c-0.171,0.144-0.329,0.303-0.475,0.469l0.817,0.472
									c0.075-0.192,0.169-0.357,0.283-0.498s0.241-0.25,0.394-0.339c0.189-0.11,0.399-0.173,0.622-0.177s0.427,0.041,0.599,0.14
									c0.115,0.066,0.192,0.148,0.236,0.24c0.052,0.096,0.065,0.207,0.061,0.343l-0.151,1.478l0.702,0.406L383.971,151.584"/>
								<polyline fill="#FFFFFF" points="385.563,150.659 384.599,150.102 383.711,150.618 384.675,151.175 385.563,150.659 
																	"/>
								<polyline fill="#FFFFFF" points="389.014,148.653 388.35,148.27 387.506,148.76 384.448,146.995 383.541,147.522 
									382.857,148.126 383.508,148.502 384.198,147.894 386.605,149.284 385.762,149.774 386.426,150.158 389.014,148.653 
																	"/>
								<path fill="#FFFFFF" d="M392.198,146.803l-0.703-0.406l-1.63,0.947l0.091-0.866c0.036-0.361,0.021-0.627-0.049-0.785
									c-0.071-0.166-0.205-0.303-0.41-0.42c-0.351-0.203-0.746-0.291-1.19-0.261c-0.439,0.033-0.884,0.173-1.328,0.431
									c-0.203,0.118-0.387,0.247-0.559,0.39c-0.17,0.145-0.328,0.303-0.468,0.465l0.817,0.472
									c0.068-0.188,0.163-0.354,0.277-0.494c0.113-0.14,0.24-0.251,0.393-0.339c0.19-0.11,0.4-0.173,0.622-0.177
									c0.229-0.007,0.428,0.041,0.6,0.14c0.114,0.066,0.191,0.148,0.236,0.24c0.052,0.096,0.065,0.207,0.06,0.343l-0.151,1.478
									l0.703,0.406L392.198,146.803"/>
								<polyline fill="#FFFFFF" points="367.258,145.763 363.536,143.614 362.584,144.167 364.002,144.985 362.594,145.804 
									361.176,144.985 360.219,145.542 363.94,147.691 364.898,147.135 363.321,146.224 364.729,145.406 366.307,146.316 
									367.258,145.763 								"/>
								<path fill="#FFFFFF" d="M370.562,143.843l-0.702-0.406l-1.63,0.948l0.091-0.866c0.036-0.361,0.022-0.627-0.049-0.786
									c-0.071-0.166-0.205-0.302-0.41-0.42c-0.351-0.203-0.752-0.288-1.191-0.262c-0.439,0.033-0.884,0.173-1.327,0.431
									c-0.203,0.118-0.387,0.247-0.558,0.391c-0.172,0.144-0.33,0.302-0.475,0.469l0.816,0.472
									c0.075-0.192,0.171-0.357,0.283-0.498c0.114-0.14,0.241-0.25,0.394-0.339c0.189-0.111,0.399-0.173,0.623-0.177
									c0.222-0.004,0.426,0.04,0.599,0.14c0.115,0.066,0.191,0.147,0.236,0.24c0.052,0.096,0.065,0.207,0.06,0.343L367.171,145
									l0.702,0.406L370.562,143.843"/>
								<polyline fill="#FFFFFF" points="372.155,142.917 371.191,142.361 370.304,142.877 371.268,143.434 372.155,142.917 
																	"/>
								<polyline fill="#FFFFFF" points="375.606,140.912 374.942,140.529 374.099,141.019 371.04,139.253 370.133,139.78 
									369.449,140.385 370.101,140.761 370.791,140.152 373.198,141.542 372.354,142.033 373.018,142.416 375.606,140.912 
																	"/>
								<polyline fill="#FFFFFF" points="378.879,139.01 378.215,138.627 377.372,139.117 374.313,137.351 373.406,137.878 
									372.729,138.479 373.38,138.855 374.063,138.25 376.471,139.64 375.627,140.131 376.291,140.514 378.879,139.01 								"/>
								<polyline fill="#FFFFFF" points="357.458,140.12 353.735,137.97 352.784,138.523 354.201,139.342 352.794,140.16 
									351.376,139.341 350.425,139.895 354.146,142.044 355.099,141.491 353.521,140.58 354.93,139.762 356.507,140.672 
									357.458,140.12 								"/>
								<path fill="#FFFFFF" d="M360.763,138.199l-0.709-0.409l-1.63,0.948l0.098-0.863c0.036-0.361,0.021-0.626-0.049-0.785
									c-0.071-0.166-0.205-0.302-0.41-0.42c-0.351-0.203-0.746-0.291-1.191-0.262s-0.884,0.173-1.328,0.432
									c-0.203,0.118-0.387,0.247-0.558,0.391s-0.335,0.299-0.468,0.464l0.816,0.472c0.069-0.188,0.163-0.354,0.277-0.494
									c0.114-0.141,0.247-0.254,0.393-0.339c0.19-0.111,0.4-0.173,0.623-0.177c0.229-0.007,0.427,0.041,0.599,0.141
									c0.115,0.066,0.191,0.147,0.237,0.24c0.045,0.092,0.064,0.206,0.053,0.339l-0.151,1.478l0.709,0.409L360.763,138.199"/>
								<polyline fill="#FFFFFF" points="362.361,137.27 361.397,136.713 360.503,137.233 361.467,137.79 362.361,137.27 								
									"/>
								<polyline fill="#FFFFFF" points="365.806,135.268 365.143,134.885 364.298,135.375 361.239,133.609 360.333,134.136 
									359.655,134.737 360.307,135.113 360.99,134.509 363.397,135.898 362.554,136.389 363.218,136.772 365.806,135.268 								
									"/>
								<path fill="#FFFFFF" d="M365.235,133.439c-0.466-0.269-0.76-0.483-0.855-0.641c-0.104-0.163-0.054-0.302,0.149-0.42
									c0.21-0.122,0.451-0.151,0.726-0.088c0.273,0.055,0.649,0.221,1.116,0.49c0.466,0.269,0.754,0.487,0.862,0.653
									c0.103,0.162,0.053,0.302-0.15,0.42c-0.203,0.118-0.444,0.147-0.725,0.088C366.072,133.878,365.702,133.709,365.235,133.439
									 M367.328,132.23c-0.619-0.357-1.23-0.557-1.822-0.597c-0.605-0.041-1.146,0.082-1.634,0.365
									c-0.482,0.28-0.697,0.597-0.618,0.943c0.065,0.347,0.411,0.7,1.03,1.058c0.613,0.354,1.225,0.553,1.823,0.59
									c0.599,0.044,1.146-0.081,1.627-0.361c0.488-0.284,0.697-0.598,0.625-0.948C368.287,132.938,367.941,132.584,367.328,132.23
									"/>
								<polyline fill="#FFFFFF" points="348.321,134.83 344.593,132.677 343.642,133.229 345.065,134.052 343.657,134.87 
									342.233,134.048 341.275,134.604 345.004,136.757 345.962,136.201 344.379,135.287 345.787,134.468 347.37,135.382 
									348.321,134.83 								"/>
								<path fill="#FFFFFF" d="M351.626,132.909l-0.708-0.409l-1.631,0.948l0.098-0.863c0.029-0.365,0.021-0.627-0.056-0.789
									c-0.064-0.162-0.205-0.302-0.409-0.42c-0.352-0.203-0.746-0.284-1.186-0.258c-0.445,0.03-0.884,0.173-1.327,0.432
									c-0.203,0.118-0.388,0.247-0.559,0.391c-0.177,0.14-0.335,0.299-0.481,0.464l0.818,0.472
									c0.075-0.192,0.176-0.354,0.29-0.494c0.106-0.144,0.24-0.251,0.393-0.339c0.189-0.11,0.399-0.173,0.616-0.18
									c0.223-0.004,0.426,0.04,0.599,0.14c0.115,0.066,0.191,0.147,0.243,0.243c0.045,0.092,0.064,0.207,0.053,0.339l-0.15,1.478
									l0.708,0.409L351.626,132.909"/>
								<polyline fill="#FFFFFF" points="353.219,131.983 352.248,131.423 351.36,131.939 352.33,132.5 353.219,131.983 								"/>
								<path fill="#FFFFFF" d="M352.813,130.052c-0.467-0.27-0.748-0.483-0.856-0.642c-0.103-0.163-0.047-0.299,0.163-0.42
									c0.203-0.118,0.438-0.151,0.719-0.092c0.273,0.063,0.644,0.225,1.11,0.494c0.473,0.273,0.76,0.49,0.862,0.652
									c0.109,0.159,0.06,0.299-0.144,0.417c-0.21,0.122-0.451,0.151-0.732,0.092C353.662,130.491,353.286,130.325,352.813,130.052
									 M354.906,128.843c-0.612-0.354-1.219-0.557-1.823-0.597c-0.599-0.037-1.139,0.085-1.62,0.365
									c-0.489,0.284-0.697,0.597-0.632,0.943c0.072,0.35,0.418,0.704,1.03,1.058c0.62,0.357,1.231,0.557,1.83,0.594
									c0.604,0.041,1.146-0.082,1.634-0.365c0.481-0.28,0.69-0.594,0.618-0.944C355.878,129.55,355.525,129.2,354.906,128.843"/>
								<path fill="#FFFFFF" d="M355.326,127.593c-0.147-0.085-0.218-0.17-0.219-0.266c0.006-0.092,0.076-0.185,0.229-0.273
									c0.151-0.088,0.305-0.132,0.464-0.129c0.159-0.003,0.317,0.037,0.465,0.122c0.146,0.085,0.218,0.177,0.218,0.273
									c0.001,0.088-0.075,0.177-0.228,0.266c-0.152,0.088-0.305,0.133-0.464,0.136
									C355.626,127.722,355.473,127.678,355.326,127.593 M356.878,128.584c-0.186-0.107-0.281-0.213-0.282-0.324
									c-0.007-0.114,0.088-0.221,0.266-0.324c0.178-0.104,0.355-0.155,0.547-0.155c0.197,0.004,0.389,0.055,0.573,0.162
									c0.179,0.103,0.269,0.214,0.27,0.324c0.007,0.114-0.082,0.218-0.26,0.321c-0.177,0.103-0.361,0.159-0.559,0.155
									C357.241,128.743,357.057,128.688,356.878,128.584 M358.927,127.446c-0.236-0.137-0.497-0.214-0.79-0.229
									c-0.28-0.015-0.585,0.029-0.903,0.132c0.152-0.169,0.221-0.328,0.195-0.476c-0.026-0.147-0.148-0.284-0.358-0.405
									c-0.319-0.185-0.67-0.254-1.071-0.214c-0.394,0.044-0.813,0.192-1.264,0.454s-0.71,0.509-0.785,0.737
									c-0.062,0.228,0.06,0.438,0.373,0.619c0.21,0.122,0.446,0.192,0.701,0.207s0.528-0.026,0.82-0.114
									c-0.177,0.184-0.253,0.361-0.227,0.523c0.033,0.166,0.161,0.321,0.397,0.457c0.37,0.214,0.778,0.302,1.211,0.273
									c0.433-0.037,0.89-0.192,1.371-0.472c0.482-0.28,0.749-0.545,0.805-0.792C359.458,127.892,359.297,127.66,358.927,127.446"
									/>
								<polyline fill="#FFFFFF" points="259.114,190.616 255.392,188.467 254.44,189.02 255.858,189.838 254.45,190.656 
									253.032,189.838 252.074,190.395 255.797,192.544 256.755,191.987 255.178,191.077 256.586,190.258 258.163,191.169 
									259.114,190.616 								"/>
								<path fill="#FFFFFF" d="M262.418,188.695l-0.708-0.409l-1.63,0.947l0.09-0.859c0.042-0.364,0.029-0.63-0.042-0.788
									c-0.077-0.163-0.211-0.307-0.41-0.421c-0.351-0.203-0.753-0.287-1.191-0.261c-0.445,0.029-0.884,0.173-1.328,0.431
									c-0.203,0.118-0.387,0.247-0.558,0.391c-0.171,0.144-0.336,0.299-0.475,0.468l0.817,0.472
									c0.076-0.191,0.17-0.357,0.284-0.498s0.24-0.25,0.392-0.339c0.191-0.111,0.4-0.173,0.623-0.177
									c0.223-0.003,0.42,0.044,0.593,0.144c0.115,0.066,0.198,0.144,0.243,0.236s0.065,0.207,0.053,0.339l-0.151,1.479
									l0.709,0.409L262.418,188.695"/>
								<polyline fill="#FFFFFF" points="264.011,187.77 263.047,187.213 262.158,187.729 263.123,188.286 264.011,187.77 								
									"/>
								<polyline fill="#FFFFFF" points="267.456,185.769 266.792,185.385 265.954,185.872 262.896,184.106 261.989,184.633 
									261.305,185.237 261.956,185.613 262.64,185.009 265.047,186.398 264.21,186.885 264.874,187.269 267.456,185.769 								
									"/>
								<polyline fill="#FFFFFF" points="267.498,182.052 266.962,181.743 264.171,183.365 264.873,183.77 266.656,182.734 
									268.312,185.271 269.238,184.732 267.498,182.052 								"/>
								<path fill="#FFFFFF" d="M387.078,191.541l0.793-0.461c0.228-0.133,0.45-0.203,0.66-0.214
									c0.217-0.007,0.427,0.041,0.618,0.151c0.198,0.114,0.282,0.236,0.264,0.357c-0.012,0.125-0.133,0.254-0.361,0.387
									l-0.793,0.46L387.078,191.541 M389.236,192.787l0.843-0.49c0.292-0.17,0.572-0.258,0.833-0.269
									c0.268-0.015,0.516,0.048,0.758,0.188c0.249,0.144,0.357,0.287,0.34,0.446c-0.024,0.155-0.183,0.313-0.468,0.479
									l-0.844,0.49L389.236,192.787 M393.219,191.449c-0.352-0.203-0.728-0.324-1.142-0.365c-0.413-0.041-0.814,0-1.208,0.125
									c0.139-0.192,0.183-0.38,0.118-0.564c-0.065-0.185-0.231-0.354-0.5-0.509c-0.517-0.299-1.065-0.417-1.649-0.351
									c-0.579,0.063-1.253,0.321-2.026,0.771l-2.144,1.246l5.586,3.226l2.372-1.379c0.743-0.431,1.154-0.825,1.254-1.187
									C393.974,192.098,393.755,191.758,393.219,191.449"/>
								<path fill="#FFFFFF" d="M392.215,188.408l-1.092-0.63l-1.332,0.774l1.092,0.63L392.215,188.408 M396.946,191.139
									l-4.188-2.418l-1.332,0.774l4.188,2.418L396.946,191.139"/>
								<path fill="#FFFFFF" d="M397.078,188.636c-0.396-0.229-0.619-0.446-0.678-0.656c-0.059-0.211,0.055-0.402,0.34-0.568
									c0.286-0.166,0.61-0.229,0.96-0.196c0.364,0.034,0.746,0.166,1.142,0.395c0.402,0.232,0.633,0.453,0.685,0.66
									c0.065,0.207-0.042,0.395-0.327,0.561c-0.286,0.166-0.616,0.232-0.979,0.199
									C397.857,188.998,397.475,188.865,397.078,188.636 M400.219,186.812c-0.646-0.373-1.34-0.583-2.078-0.626
									c-0.738-0.044-1.368,0.084-1.876,0.379c-0.291,0.169-0.494,0.354-0.601,0.549c-0.107,0.196-0.132,0.417-0.066,0.667
									l-2.248-1.297l-1.332,0.774l5.823,3.362l1.332-0.774l-0.606-0.35c0.427,0.033,0.808,0.019,1.151-0.041
									c0.337-0.062,0.654-0.181,0.946-0.35c0.508-0.295,0.729-0.66,0.643-1.091C401.229,187.585,400.869,187.188,400.219,186.812"
									/>
								<polyline fill="#FFFFFF" points="404.241,186.9 398.418,183.538 397.086,184.312 402.908,187.674 404.241,186.9 								"/>
								<path fill="#FFFFFF" d="M401.736,182.874l-1.092-0.63l-1.325,0.77l1.092,0.63L401.736,182.874 M406.468,185.606
									l-4.188-2.418l-1.326,0.771l4.188,2.418L406.468,185.606"/>
								<path fill="#FFFFFF" d="M406.346,183.25c-0.401-0.232-0.626-0.458-0.685-0.667c-0.064-0.213,0.062-0.405,0.354-0.575
									c0.291-0.169,0.616-0.239,0.985-0.203c0.362,0.033,0.752,0.163,1.153,0.395c0.402,0.232,0.627,0.457,0.691,0.671
									c0.059,0.21-0.055,0.401-0.347,0.571s-0.629,0.24-0.991,0.207C407.137,183.611,406.748,183.482,406.346,183.25
									 M409.536,181.396c-0.683-0.394-1.428-0.59-2.218-0.582c-0.795,0.01-1.545,0.225-2.262,0.641s-1.09,0.855-1.1,1.312
									c-0.017,0.461,0.323,0.892,1.006,1.286c0.69,0.398,1.436,0.594,2.225,0.579c0.789-0.007,1.552-0.221,2.269-0.638
									s1.077-0.855,1.093-1.316C410.566,182.226,410.227,181.794,409.536,181.396"/>
								<path fill="#FFFFFF" d="M411.812,178.757l-0.958-0.553l-1.376,0.8l-1.193-0.689l-1.326,0.771l1.193,0.689l-0.666,0.387
									l0.958,0.553l0.666-0.387l1.775,1.025c0.53,0.306,1.015,0.461,1.453,0.457c0.438,0.003,0.922-0.151,1.448-0.457l1.142-0.664
									l-0.957-0.553l-0.686,0.398c-0.228,0.133-0.419,0.199-0.559,0.206c-0.146,0.004-0.325-0.048-0.517-0.158l-1.774-1.025
									L411.812,178.757"/>
								<path fill="#FFFFFF" d="M419.661,177.938l-2.554-1.475c-0.562-0.324-1.123-0.501-1.664-0.527
									c-0.547-0.029-1.062,0.1-1.544,0.38c-0.272,0.158-0.463,0.335-0.569,0.531c-0.114,0.199-0.151,0.428-0.099,0.686
									l-2.247-1.297l-1.333,0.774l5.823,3.362l1.332-0.774l-2.062-1.191c-0.383-0.221-0.601-0.435-0.659-0.652
									c-0.058-0.217,0.056-0.409,0.328-0.567c0.114-0.066,0.241-0.111,0.381-0.141c0.14-0.022,0.28-0.021,0.414-0.003
									c0.102,0.015,0.235,0.055,0.39,0.129c0.152,0.066,0.414,0.21,0.777,0.42l1.533,0.885l0.414,0.239L419.661,177.938"/>
								<path fill="#FFFFFF" d="M419.017,175.354c-0.23-0.185-0.346-0.362-0.321-0.539c0.012-0.177,0.145-0.343,0.404-0.494
									c0.235-0.136,0.509-0.206,0.813-0.199c0.3,0.003,0.58,0.077,0.835,0.225L419.017,175.354 M422.942,174.035l-0.383-0.221
									c-0.665-0.384-1.392-0.576-2.174-0.579c-0.789,0-1.514,0.192-2.167,0.571c-0.717,0.417-1.09,0.855-1.105,1.324
									c-0.023,0.464,0.31,0.892,0.993,1.286c0.696,0.402,1.447,0.594,2.249,0.572c0.809-0.019,1.584-0.247,2.339-0.686
									c0.311-0.181,0.596-0.383,0.85-0.604c0.253-0.214,0.481-0.45,0.671-0.701l-1.035-0.598
									c-0.133,0.277-0.309,0.528-0.518,0.745c-0.216,0.221-0.462,0.409-0.741,0.571c-0.349,0.203-0.692,0.313-1.048,0.336
									c-0.345,0.021-0.694-0.048-1.039-0.21L422.942,174.035"/>
								<polyline fill="#FFFFFF" points="429.861,172.011 425.406,171.974 425.514,169.685 423.967,170.583 423.97,172.357 
									420.804,170.528 419.471,171.303 425.294,174.665 426.626,173.891 424.877,172.88 428.25,172.947 429.861,172.011 								
									"/>
								<polyline fill="#FFFFFF" points="235.874,169.297 234.91,168.741 233.496,169.562 232.078,168.744 233.493,167.922 
									232.535,167.37 228.837,169.519 229.794,170.071 231.361,169.161 232.779,169.979 231.212,170.89 232.176,171.447 
									235.874,169.297 								"/>
								<path fill="#FFFFFF" d="M237.827,170.352c-0.204-0.118-0.434-0.229-0.676-0.333c-0.249-0.099-0.517-0.188-0.804-0.272
									l-0.812,0.472c0.332,0.044,0.612,0.103,0.854,0.162c0.242,0.066,0.44,0.144,0.587,0.229
									c0.198,0.114,0.294,0.236,0.314,0.365c0.007,0.129-0.075,0.244-0.253,0.347c-0.107,0.062-0.241,0.11-0.406,0.14
									c-0.166,0.022-0.363,0.033-0.591,0.025l-2.553-0.092l-0.698,0.405l2.707,1.563l0.698-0.405l-1.634-0.944l1.482,0.056
									c0.637,0.021,1.082,0.015,1.369-0.026c0.272-0.04,0.514-0.122,0.717-0.24c0.349-0.203,0.494-0.427,0.441-0.685
									C238.524,170.864,238.268,170.606,237.827,170.352"/>
								<polyline fill="#FFFFFF" points="238.063,173.736 237.163,173.216 236.205,173.772 237.105,174.292 238.063,173.736 
																	"/>
								<polyline fill="#FFFFFF" points="243.421,173.655 242.514,173.131 241.468,172.733 240.815,173.113 241.861,173.511 
									239.469,174.901 238.62,174.411 237.967,174.79 240.572,176.294 241.225,175.915 240.375,175.424 243.421,173.655 								
									"/>
								<path fill="#FFFFFF" d="M244.224,176.25c-0.166-0.096-0.237-0.203-0.211-0.313c0.019-0.114,0.145-0.232,0.361-0.357
									c0.209-0.122,0.413-0.196,0.61-0.207c0.19-0.015,0.375,0.026,0.542,0.122s0.237,0.203,0.212,0.313
									c-0.018,0.114-0.145,0.232-0.354,0.354c-0.216,0.126-0.418,0.199-0.616,0.21C244.575,176.387,244.39,176.346,244.224,176.25
									 M246.134,175.148c-0.44-0.254-0.906-0.384-1.408-0.395c-0.503-0.011-0.948,0.099-1.348,0.332
									c-0.361,0.21-0.532,0.442-0.517,0.708c0.007,0.262,0.207,0.501,0.589,0.723c0.147,0.084,0.306,0.155,0.472,0.207
									c0.172,0.048,0.356,0.081,0.554,0.1c-0.343,0.162-0.667,0.247-0.985,0.247s-0.618-0.085-0.905-0.25
									c-0.134-0.078-0.262-0.166-0.364-0.27c-0.103-0.103-0.198-0.217-0.282-0.346l-0.685,0.398
									c0.102,0.118,0.224,0.232,0.358,0.339c0.134,0.107,0.288,0.21,0.46,0.309c0.543,0.313,1.148,0.458,1.81,0.435
									c0.655-0.025,1.297-0.213,1.906-0.567c0.596-0.347,0.918-0.689,0.98-1.036C246.831,175.741,246.619,175.428,246.134,175.148
									"/>
								<polyline fill="#FFFFFF" points="252.576,159.591 251.612,159.034 250.204,159.853 248.786,159.034 250.194,158.216 
									249.237,157.663 245.539,159.812 246.496,160.365 248.063,159.455 249.48,160.273 247.914,161.184 248.878,161.74 
									252.576,159.591 								"/>
								<path fill="#FFFFFF" d="M254.535,160.642c-0.204-0.118-0.434-0.229-0.683-0.328s-0.517-0.188-0.803-0.272l-0.812,0.472
									c0.332,0.044,0.618,0.1,0.854,0.162c0.242,0.066,0.44,0.144,0.587,0.229c0.198,0.114,0.294,0.236,0.314,0.365
									c0.007,0.129-0.075,0.243-0.246,0.343c-0.114,0.066-0.248,0.114-0.407,0.14c-0.172,0.026-0.369,0.037-0.598,0.029
									l-2.553-0.092l-0.698,0.406l2.707,1.563l0.698-0.406l-1.634-0.944l1.489,0.052c0.63,0.026,1.082,0.015,1.361-0.022
									c0.28-0.044,0.515-0.122,0.718-0.24c0.349-0.203,0.5-0.431,0.441-0.686C255.226,161.158,254.976,160.896,254.535,160.642"/>
								<polyline fill="#FFFFFF" points="254.765,164.029 253.864,163.509 252.906,164.066 253.807,164.586 254.765,164.029 
																	"/>
								<path fill="#FFFFFF" d="M259.515,163.517c-0.204-0.118-0.427-0.225-0.676-0.324c-0.249-0.1-0.523-0.192-0.804-0.273
									l-0.812,0.472c0.325,0.041,0.611,0.096,0.854,0.162c0.242,0.066,0.439,0.144,0.586,0.229
									c0.191,0.111,0.294,0.236,0.308,0.362c0.014,0.132-0.068,0.247-0.24,0.346c-0.114,0.066-0.254,0.11-0.413,0.137
									c-0.166,0.029-0.363,0.041-0.592,0.033l-2.552-0.092l-0.698,0.406l2.708,1.563l0.698-0.405l-1.641-0.948l1.496,0.056
									c0.624,0.022,1.082,0.015,1.355-0.026c0.287-0.041,0.521-0.118,0.725-0.236c0.349-0.203,0.5-0.431,0.441-0.686
									C260.206,164.033,259.962,163.775,259.515,163.517"/>
								<path fill="#FFFFFF" d="M259.728,167.336c-0.204-0.118-0.256-0.258-0.156-0.42c0.102-0.162,0.387-0.38,0.856-0.652
									c0.463-0.27,0.832-0.432,1.111-0.491c0.28-0.059,0.521-0.029,0.726,0.089c0.204,0.118,0.256,0.258,0.155,0.42
									c-0.107,0.159-0.386,0.373-0.849,0.642c-0.469,0.273-0.844,0.438-1.118,0.501
									C260.174,167.483,259.932,167.454,259.728,167.336 M262.918,165.482c-0.492-0.284-1.04-0.402-1.638-0.365
									c-0.604,0.041-1.201,0.239-1.816,0.597c-0.615,0.358-0.957,0.705-1.025,1.055c-0.062,0.347,0.15,0.66,0.642,0.943
									c0.485,0.28,1.026,0.402,1.624,0.365c0.605-0.041,1.208-0.236,1.824-0.594s0.95-0.708,1.019-1.058
									C263.609,166.079,263.404,165.762,262.918,165.482"/>
								<polyline fill="#BDD4E4" points="237.448,192.356 233.726,190.207 232.775,190.759 234.192,191.578 232.784,192.396 
									231.367,191.578 230.415,192.131 234.137,194.28 235.089,193.727 233.512,192.816 234.92,191.998 236.497,192.909 
									237.448,192.356 								"/>
								<path fill="#BDD4E4" d="M242.263,189.558l-0.702-0.405l-1.624,0.943l0.085-0.862c0.042-0.365,0.021-0.626-0.043-0.789
									c-0.078-0.162-0.211-0.298-0.416-0.416c-0.351-0.203-0.746-0.292-1.191-0.262c-0.433,0.03-0.884,0.173-1.321,0.428
									c-0.203,0.118-0.387,0.247-0.564,0.394c-0.171,0.145-0.33,0.295-0.468,0.465l0.817,0.472
									c0.075-0.191,0.169-0.357,0.283-0.497c0.107-0.137,0.241-0.251,0.387-0.336c0.196-0.114,0.4-0.173,0.629-0.181
									c0.223-0.004,0.42,0.044,0.593,0.144c0.115,0.066,0.198,0.144,0.243,0.236c0.045,0.099,0.058,0.21,0.052,0.347l-0.151,1.478
									l0.703,0.406L242.263,189.558"/>
								<polyline fill="#FFFFFF" points="243.862,188.629 242.897,188.072 242.484,188.312 242.002,188.592 242.967,189.148 
									243.449,188.869 243.862,188.629 								"/>
								<polyline fill="#FFFFFF" points="247.306,186.627 246.642,186.244 245.798,186.734 242.74,184.968 241.839,185.492 
									241.155,186.096 241.806,186.472 242.49,185.868 244.897,187.258 244.054,187.748 244.718,188.131 247.306,186.627 								
									"/>
								<path fill="#FFFFFF" d="M245.968,184.246c-0.147-0.084-0.217-0.177-0.211-0.269c0-0.096,0.075-0.184,0.228-0.272
									c0.146-0.085,0.305-0.133,0.458-0.133c0.166,0,0.318,0.044,0.465,0.129c0.147,0.084,0.224,0.173,0.218,0.265
									c0.007,0.092-0.075,0.185-0.221,0.27c-0.152,0.088-0.305,0.133-0.47,0.133C246.275,184.371,246.115,184.331,245.968,184.246
									 M247.514,185.233c-0.179-0.103-0.268-0.213-0.275-0.328c-0.001-0.111,0.088-0.221,0.266-0.325
									c0.178-0.103,0.362-0.151,0.553-0.151c0.191,0,0.376,0.055,0.561,0.162c0.186,0.107,0.281,0.214,0.282,0.324
									c0.001,0.111-0.082,0.218-0.259,0.321c-0.178,0.104-0.369,0.155-0.56,0.155
									C247.891,185.392,247.699,185.341,247.514,185.233 M249.57,184.098c-0.236-0.136-0.505-0.217-0.785-0.232
									c-0.286-0.019-0.592,0.025-0.903,0.132c0.151-0.169,0.214-0.332,0.188-0.479c-0.026-0.147-0.142-0.28-0.359-0.406
									c-0.312-0.181-0.669-0.254-1.063-0.21c-0.401,0.041-0.827,0.192-1.271,0.45c-0.45,0.262-0.71,0.509-0.779,0.741
									c-0.062,0.228,0.053,0.435,0.366,0.616c0.217,0.125,0.447,0.192,0.701,0.206c0.255,0.015,0.535-0.022,0.828-0.111
									c-0.184,0.181-0.259,0.358-0.227,0.524c0.021,0.166,0.162,0.32,0.398,0.457c0.37,0.213,0.777,0.302,1.204,0.269
									c0.438-0.033,0.89-0.192,1.371-0.472c0.476-0.276,0.749-0.539,0.804-0.792C250.1,184.544,249.94,184.312,249.57,184.098"/>
								<path fill="#CFD0D2" d="M301.581,138.686l-11.096-6.407l-14.792,8.597l11.096,6.407L301.581,138.686 M321.104,135.091
									l-17.787-10.271l-10.6,6.16l17.788,10.271L321.104,135.091"/>
							</g>
						</g>
					</g>
				</g>
			</g>
		</g>
	</g>
	<g>
		<g>
			<g enable-background="new    ">
				<defs>
					<polygon id="SVGID_3_" enable-background="new    " points="297.442,131.134 303.589,127.562 309.77,131.13 303.623,134.702 
											"/>
				</defs>
				<clipPath id="SVGID_4_">
					<use xlink:href="#SVGID_3_"  overflow="visible"/>
				</clipPath>
				<g clip-path="url(#SVGID_4_)">
					<g>
						<g>
							<g>
								<polyline fill="#FFFFFF" points="305.147,128.461 303.589,127.562 297.442,131.134 300.52,132.911 303.623,134.702 
									305.177,133.799 303.639,132.911 305.167,132.022 303.622,131.13 305.15,130.242 303.612,129.354 305.147,128.461 								
									"/>
							</g>
						</g>
					</g>
				</g>
			</g>
		</g>
	</g>
	<g>
		<g>
			<g enable-background="new    ">
				<defs>
					<polygon id="SVGID_5_" enable-background="new    " points="280.343,141.034 286.489,137.462 292.669,141.03 286.523,144.603 
											"/>
				</defs>
				<clipPath id="SVGID_6_">
					<use xlink:href="#SVGID_5_"  overflow="visible"/>
				</clipPath>
				<g clip-path="url(#SVGID_6_)">
					<g>
						<g>
							<g>
								<polyline fill="#FFFFFF" points="288.047,138.361 286.489,137.462 280.343,141.034 283.42,142.811 286.523,144.603 
									288.077,143.699 286.538,142.811 288.067,141.922 286.522,141.03 288.051,140.142 286.512,139.253 288.047,138.361 								
									"/>
							</g>
						</g>
					</g>
				</g>
			</g>
		</g>
	</g>
	<g>
		<g>
			<g enable-background="new    ">
				<defs>
					<polygon id="SVGID_7_" enable-background="new    " points="349.636,217.532 355.781,213.96 361.968,217.532 355.822,221.104 
											"/>
				</defs>
				<clipPath id="SVGID_8_">
					<use xlink:href="#SVGID_7_"  overflow="visible"/>
				</clipPath>
				<g clip-path="url(#SVGID_8_)">
					<g>
						<g>
							<g>
								<polyline fill="#FFFFFF" points="357.346,214.863 355.781,213.96 349.636,217.532 352.719,219.312 355.822,221.104 
									357.376,220.201 355.837,219.312 357.366,218.424 355.821,217.532 357.35,216.644 355.812,215.756 357.346,214.863 								
									"/>
							</g>
						</g>
					</g>
				</g>
			</g>
		</g>
	</g>
	<g>
		<polygon fill="#EC7404" stroke="#FFFFFF" stroke-width="0.5" points="312.837,-23.968 316.249,-23.968 314.68,-12.192 		"/>
		<circle fill="#EC7404" cx="314.543" cy="-33" r="9.731"/>
		<polygon fill="none" stroke="#FFFFFF" stroke-width="0.5" points="318.413,-35.826 314.543,-40.501 310.674,-35.826 
			312.627,-35.826 312.627,-30.704 316.46,-30.704 316.46,-35.826 		"/>
		<text transform="matrix(1 0 0 1 312.875 -25.1201)" fill="#FFFFFF" font-family="'DejaVuSansCondensed-Bold'" font-size="5"></text>
	</g>
	<g>
		<polygon fill="#EC7404" stroke="#FFFFFF" stroke-width="0.5" points="338.409,-23.968 341.822,-23.968 340.252,-12.192 		"/>
		<circle fill="#EC7404" cx="340.116" cy="-33" r="9.731"/>
		<polygon fill="none" stroke="#FFFFFF" stroke-width="0.5" points="343.985,-35.826 340.115,-40.501 336.246,-35.826 
			338.199,-35.826 338.199,-30.704 342.032,-30.704 342.032,-35.826 		"/>
		<rect x="338.429" y="-29.443" fill="none" width="8" height="3.833"/>
		<text transform="matrix(1 0 0 1 338.4287 -25.644)" fill="#FFFFFF" font-family="'DejaVuSansCondensed-Bold'" font-size="5">P</text>
	</g>
	<g>
		<polygon fill="#EC7404" stroke="#FFFFFF" stroke-width="0.5" points="363.981,-23.968 367.394,-23.968 365.824,-12.192 		"/>
		<circle fill="#EC7404" cx="365.688" cy="-33" r="9.731"/>
		<polygon fill="none" stroke="#FFFFFF" stroke-width="0.5" points="369.558,-35.826 365.688,-40.501 361.818,-35.826 
			363.771,-35.826 363.771,-30.704 367.604,-30.704 367.604,-35.826 		"/>
		<rect x="360.819" y="-29.442" fill="none" width="8" height="3.833"/>
		<text transform="matrix(1 0 0 1 360.8193 -25.6431)" fill="#FFFFFF" font-family="'DejaVuSansCondensed-Bold'" font-size="5"> EC</text>
	</g>
	<g>
		<polygon fill="#EC7404" stroke="#FFFFFF" stroke-width="0.5" points="415.003,-23.991 418.417,-23.991 416.847,-12.215 		"/>
		<g>
			<circle fill="#EC7404" cx="416.71" cy="-33" r="9.731"/>
			<g>
				<g>
					<path fill="none" stroke="#FFFFFF" stroke-width="0.5" d="M421.197-29.081c0,0.312-0.255,0.567-0.567,0.567h-7.839
						c-0.312,0-0.567-0.255-0.567-0.567v-7.84c0-0.312,0.255-0.567,0.567-0.567h7.839c0.312,0,0.567,0.255,0.567,0.567V-29.081z"/>
				</g>
				<polygon fill="#FFFFFF" points="413.152,-32.975 415.846,-29.744 420.287,-36.475 415.608,-31.057 				"/>
			</g>
		</g>
	</g>
	<g>
		<polygon fill="#EC7404" stroke="#FFFFFF" stroke-width="0.5" points="286.369,167.744 286.169,171.152 274.505,168.899 		"/>
		<circle fill="#EC7404" cx="295.28" cy="169.645" r="9.731"/>
		<g>
			<g>
				<path fill="#EC7404" d="M299.655,171.499c0,0.312-0.255,0.567-0.567,0.567h-9.54c-0.312,0-0.567-0.255-0.567-0.567v-5.453
					c0-0.312,0.255-0.567,0.567-0.567h9.54c0.312,0,0.567,0.255,0.567,0.567V171.499z"/>
				<path fill="none" stroke="#FFFFFF" stroke-width="0.5" d="M299.655,171.499c0,0.312-0.255,0.567-0.567,0.567h-9.54
					c-0.312,0-0.567-0.255-0.567-0.567v-5.453c0-0.312,0.255-0.567,0.567-0.567h9.54c0.312,0,0.567,0.255,0.567,0.567V171.499z"/>
			</g>
			<g>
				<path fill="#EC7404" d="M301.579,173.423c0,0.312-0.255,0.567-0.567,0.567h-9.54c-0.312,0-0.567-0.255-0.567-0.567v-5.454
					c0-0.312,0.255-0.567,0.567-0.567h9.54c0.312,0,0.567,0.255,0.567,0.567V173.423z"/>
				<path fill="none" stroke="#FFFFFF" stroke-width="0.5" d="M301.579,173.423c0,0.312-0.255,0.567-0.567,0.567h-9.54
					c-0.312,0-0.567-0.255-0.567-0.567v-5.454c0-0.312,0.255-0.567,0.567-0.567h9.54c0.312,0,0.567,0.255,0.567,0.567V173.423z"/>
			</g>
		</g>
	</g>
	<g>
		<polygon fill="#EC7404" stroke="#FFFFFF" stroke-width="0.5" points="287.264,-23.968 290.677,-23.968 289.107,-12.192 		"/>
		<circle fill="#EC7404" cx="288.97" cy="-33" r="9.731"/>
		<g>
			<path fill="#FFFFFF" d="M285.842-31.311h6.294v-0.557h-6.294V-31.311z M285.842-29.615h6.294v-0.557h-6.294V-29.615z
				 M285.842-34.658h6.294v-0.558h-6.294V-34.658z M285.842-32.993h6.294v-0.557h-6.294V-32.993z M292.842-27.685h-7.744v-11.183
				h5.521v2.222h2.223V-27.685z M284.54-27.125 M291.178-38.797l1.594,1.592h-1.594V-38.797z M291.336-39.427h-6.796v12.301h8.86
				v-10.239L291.336-39.427z"/>
		</g>
	</g>
	<g>
		<polygon fill="#EC7404" stroke="#FFFFFF" stroke-width="0.5" points="261.69,-23.968 265.104,-23.968 263.533,-12.192 		"/>
		<circle fill="#EC7404" cx="263.397" cy="-33.001" r="9.731"/>
		<g>
			<g>
				<path fill="#FFFFFF" d="M268.454-33.723c-0.002-0.272-0.025-0.522-0.083-0.758c-0.046-0.183-0.114-0.358-0.217-0.517
					c-0.152-0.24-0.387-0.429-0.656-0.535c-0.269-0.108-0.564-0.149-0.898-0.149c-0.295,0-0.563,0.033-0.811,0.114
					c-0.185,0.062-0.357,0.153-0.505,0.277c-0.223,0.186-0.377,0.438-0.463,0.709c-0.086,0.264-0.118,0.55-0.119,0.862l-0.569,4.806
					h1.198v2.099h0.97v-2.099h0.6v2.099h0.97v-2.099h1.204L268.454-33.723z"/>
				<path fill="#FFFFFF" d="M260.08-36.128c0.872,0,1.576-0.707,1.576-1.577c0-0.871-0.704-1.577-1.576-1.577
					c-0.87,0-1.575,0.706-1.576,1.577C258.505-36.834,259.21-36.128,260.08-36.128 M260.08-35.59
					c-1.305,0.001-2.36,1.057-2.36,2.361v2.469h1.092v3.943h0.969v-3.943h0.6v3.943h0.97v-3.943h1.091v-2.469
					C262.44-34.534,261.385-35.589,260.08-35.59"/>
			</g>
			<circle fill="#FFFFFF" cx="266.494" cy="-37.707" r="1.584"/>
		</g>
	</g>
	<g>
		<polygon fill="#EC7404" stroke="#FFFFFF" stroke-width="0.5" points="389.554,-23.968 392.967,-23.968 391.397,-12.192 		"/>
		<circle fill="#EC7404" cx="391.26" cy="-33" r="9.731"/>
		<text transform="matrix(1 0 0 1 389.5 -25.1201)" fill="#FFFFFF" font-family="'DejaVuSansCondensed-Bold'" font-size="5"></text>
		<polygon fill="none" stroke="#FFFFFF" stroke-width="0.5" points="387.342,-35.379 391.212,-30.704 395.081,-35.379 
			393.128,-35.379 393.128,-40.501 389.295,-40.501 389.295,-35.379 		"/>
	</g>
	<g>
		<polygon fill="#EC7404" stroke="#FFFFFF" stroke-width="0.5" points="261.609,142.867 264.908,143.74 260.375,154.722 		"/>
		<circle fill="#EC7404" cx="265.571" cy="134.572" r="9.731"/>
	</g>
	<polygon fill="none" stroke="#FFFFFF" stroke-width="0.5" points="269.357,131.228 265.487,126.553 261.618,131.228 
		263.571,131.228 263.571,136.35 267.404,136.35 267.404,131.228 	"/>
	<text transform="matrix(1 0 0 1 263.8184 141.9346)" fill="#FFFFFF" font-family="'DejaVuSansCondensed-Bold'" font-size="5"></text>
	<g>
		<polygon fill="#EC7404" stroke="#FFFFFF" stroke-width="0.5" points="316.672,111.463 320.085,111.463 318.516,123.239 		"/>
		<circle fill="#EC7404" cx="318.378" cy="102.43" r="9.731"/>
		<g>
			<path fill="#FFFFFF" d="M315.25,104.12h6.294v-0.557h-6.294V104.12z M315.25,105.816h6.294v-0.557h-6.294V105.816z
				 M315.25,100.773h6.294v-0.558h-6.294V100.773z M315.25,102.438h6.294v-0.557h-6.294V102.438z M322.25,107.746h-7.744V96.563
				h5.521v2.222h2.223V107.746z M313.948,108.305 M320.586,96.633l1.594,1.592h-1.594V96.633z M320.744,96.004h-6.796v12.301h8.86
				V98.066L320.744,96.004z"/>
		</g>
	</g>
	<g>
		<polygon fill="#EC7404" stroke="#FFFFFF" stroke-width="0.5" points="336.369,105.115 339.782,105.115 338.212,116.89 		"/>
		<circle fill="#EC7404" cx="338.076" cy="96.082" r="9.731"/>
		<g>
			<g>
				<path fill="#FFFFFF" d="M343.133,95.359c-0.002-0.272-0.025-0.522-0.083-0.758c-0.046-0.183-0.114-0.358-0.217-0.517
					c-0.152-0.24-0.387-0.429-0.656-0.535c-0.269-0.108-0.564-0.149-0.898-0.149c-0.295,0-0.563,0.033-0.811,0.114
					c-0.185,0.062-0.357,0.153-0.505,0.277c-0.223,0.186-0.377,0.438-0.463,0.709c-0.086,0.264-0.118,0.55-0.119,0.862l-0.569,4.806
					h1.198v2.099h0.97v-2.099h0.6v2.099h0.97v-2.099h1.204L343.133,95.359z"/>
				<path fill="#FFFFFF" d="M334.759,92.955c0.872,0,1.576-0.707,1.576-1.577c0-0.871-0.704-1.577-1.576-1.577
					c-0.87,0-1.575,0.706-1.576,1.577C333.184,92.248,333.889,92.955,334.759,92.955 M334.759,93.492
					c-1.305,0.001-2.36,1.057-2.36,2.361v2.469h1.092v3.943h0.969v-3.943h0.6v3.943h0.97v-3.943h1.091v-2.469
					C337.119,94.549,336.063,93.493,334.759,93.492"/>
			</g>
			<circle fill="#FFFFFF" cx="341.172" cy="91.375" r="1.584"/>
		</g>
	</g>
	<g>
		<polygon fill="#EC7404" stroke="#FFFFFF" stroke-width="0.5" points="274.067,151.132 275.045,154.4 263.312,156.269 		"/>
		<circle fill="#EC7404" cx="283.209" cy="150.18" r="9.731"/>
	</g>
	<polygon fill="none" stroke="#FFFFFF" stroke-width="0.5" points="287.107,147.068 283.237,142.394 279.368,147.068 
		281.321,147.068 281.321,152.19 285.154,152.19 285.154,147.068 	"/>
	<rect x="278.369" y="153.452" fill="none" width="8" height="3.833"/>
	<text transform="matrix(1 0 0 1 278.3687 157.2515)" fill="#FFFFFF" font-family="'DejaVuSansCondensed-Bold'" font-size="5"> EC</text>
	<g>
		<polygon fill="#EC7404" stroke="#FFFFFF" stroke-width="0.5" points="245.956,147.161 248.645,145.059 254.663,155.302 		"/>
		<circle fill="#EC7404" cx="241.579" cy="138.786" r="9.731"/>
		<text transform="matrix(1 0 0 1 239.8179 146.666)" fill="#FFFFFF" font-family="'DejaVuSansCondensed-Bold'" font-size="5"></text>
		<polygon fill="none" stroke="#FFFFFF" stroke-width="0.5" points="237.66,136.408 241.53,141.083 245.399,136.408 
			243.446,136.408 243.446,131.286 239.613,131.286 239.613,136.408 		"/>
	</g>
	<g>
		<polygon fill="#EC7404" points="298.088,120.243 301.502,120.243 299.932,132.019 		"/>
		<circle fill="#EC7404" cx="299.795" cy="111.233" r="9.731"/>
		<g>
			<g>
				<path fill="none" stroke="#FFFFFF" stroke-width="0.5" d="M304.282,117.028c0,0.312-0.255,0.567-0.566,0.567h-7.84
					c-0.312,0-0.567-0.256-0.567-0.567v-11.507c0-0.312,0.255-0.566,0.567-0.566h7.84c0.312,0,0.566,0.254,0.566,0.566V117.028z"/>
			</g>
		</g>
		<path fill="#FFFFFF" d="M299.795,109.605c0.743,0,1.342-0.602,1.342-1.342c0-0.742-0.599-1.342-1.342-1.342
			c-0.74,0-1.34,0.6-1.341,1.342C298.455,109.003,299.055,109.605,299.795,109.605 M299.795,110.063
			c-1.11,0.001-2.009,0.899-2.009,2.01v2.102h0.93v3.356h0.824v-3.356h0.511v3.356h0.825v-3.356h0.929v-2.102
			C301.805,110.962,300.906,110.064,299.795,110.063"/>
	</g>
</g>
</svg>
