<?xml version="1.0" encoding="utf-8"?>
<!-- Generator: Adobe Illustrator 16.0.0, SVG Export Plug-In . SVG Version: 6.00 Build 0)  -->
<!DOCTYPE svg PUBLIC "-//W3C//DTD SVG 1.1//EN" "http://www.w3.org/Graphics/SVG/1.1/DTD/svg11.dtd">
<svg version="1.1" id="Ebene_1" xmlns="http://www.w3.org/2000/svg" xmlns:xlink="http://www.w3.org/1999/xlink" x="0px" y="0px"
	 width="2383.939px" height="1683.78px" viewBox="0 0 2383.939 1683.78" enable-background="new 0 0 2383.939 1683.78"
	 xml:space="preserve">
<g>
	<polygon fill="#EC760A" stroke="#FFFFFF" stroke-width="0.5" points="1256.086,-26.381 1261.43,-26.381 1258.972,-7.938 	"/>
	<circle fill="#EC760A" cx="1258.758" cy="-40.526" r="15.24"/>
	<polygon fill="none" stroke="#FFFFFF" stroke-width="0.5" points="1264.818,-44.952 1258.758,-52.272 1252.698,-44.952
		1255.757,-44.952 1255.757,-36.93 1261.76,-36.93 1261.76,-44.952 	"/>

		<text transform="matrix(1 0 0 1 1256.1445 -28.1851)" fill="#FFFFFF" font-family="'DejaVuSansCondensed-Bold'" font-size="7.8303">€</text>
</g>
<g>
	<polygon fill="#EC760A" stroke="#FFFFFF" stroke-width="0.5" points="1296.134,-26.381 1301.479,-26.381 1299.02,-7.938 	"/>
	<circle fill="#EC760A" cx="1298.806" cy="-40.526" r="15.239"/>
	<polygon fill="none" stroke="#FFFFFF" stroke-width="0.5" points="1304.866,-44.952 1298.806,-52.272 1292.746,-44.952
		1295.805,-44.952 1295.805,-36.93 1301.808,-36.93 1301.808,-44.952 	"/>
	<rect x="1296.165" y="-34.955" fill="none" width="12.528" height="6.004"/>
	<text transform="matrix(1 0 0 1 1296.165 -29.0059)" fill="#FFFFFF" font-family="'DejaVuSansCondensed-Bold'" font-size="7.8303">P</text>
</g>
<g>
	<polygon fill="#EC760A" stroke="#FFFFFF" stroke-width="0.5" points="1336.182,-26.381 1341.524,-26.381 1339.067,-7.938 	"/>
	<circle fill="#EC760A" cx="1338.853" cy="-40.526" r="15.24"/>
	<polygon fill="none" stroke="#FFFFFF" stroke-width="0.5" points="1344.914,-44.952 1338.854,-52.272 1332.794,-44.952
		1335.853,-44.952 1335.853,-36.93 1341.855,-36.93 1341.855,-44.952 	"/>
	<rect x="1331.229" y="-34.954" fill="none" width="12.528" height="6.003"/>

		<text transform="matrix(1 0 0 1 1331.2305 -29.0044)" fill="#FFFFFF" font-family="'DejaVuSansCondensed-Bold'" font-size="7.8303"> EC</text>
</g>
<g>
	<polygon fill="#EC760A" stroke="#FFFFFF" stroke-width="0.5" points="1416.084,-26.416 1421.431,-26.416 1418.971,-7.975 	"/>
	<g>
		<circle fill="#EC760A" cx="1418.758" cy="-40.526" r="15.239"/>
		<g>
			<g>
				<path fill="none" stroke="#FFFFFF" stroke-width="0.5" d="M1425.784-34.067c0,0.312-0.255,0.567-0.567,0.567h-12.918
					c-0.312,0-0.567-0.255-0.567-0.567v-12.919c0-0.312,0.255-0.567,0.567-0.567h12.918c0.312,0,0.567,0.255,0.567,0.567V-34.067z"
					/>
			</g>
			<polygon fill="#FFFFFF" points="1413.186,-40.486 1417.403,-35.427 1424.359,-45.967 1417.032,-37.482 			"/>
		</g>
	</g>
</g>
<g>
	<polygon fill="#EC760A" stroke="#FFFFFF" stroke-width="0.5" points="1456.582,-26.416 1461.93,-26.416 1459.47,-7.975 	"/>
	<circle fill="#EC760A" cx="1459.257" cy="-40.526" r="15.239"/>
	<g>
		<g>
			<path fill="#EC760A" d="M1466.109-37.303c0,0.312-0.255,0.567-0.566,0.567h-15.584c-0.312,0-0.567-0.255-0.567-0.567v-9.18
				c0-0.312,0.255-0.567,0.567-0.567h15.584c0.312,0,0.566,0.255,0.566,0.567V-37.303z"/>
			<path fill="none" stroke="#FFFFFF" stroke-width="0.5" d="M1466.109-37.303c0,0.312-0.255,0.567-0.566,0.567h-15.584
				c-0.312,0-0.567-0.255-0.567-0.567v-9.18c0-0.312,0.255-0.567,0.567-0.567h15.584c0.312,0,0.566,0.255,0.566,0.567V-37.303z"/>
		</g>
		<g>
			<path fill="#EC760A" d="M1469.122-34.29c0,0.312-0.255,0.567-0.567,0.567h-15.584c-0.312,0-0.566-0.255-0.566-0.567v-9.182
				c0-0.312,0.255-0.567,0.566-0.567h15.584c0.312,0,0.567,0.255,0.567,0.567V-34.29z"/>
			<path fill="none" stroke="#FFFFFF" stroke-width="0.5" d="M1469.122-34.29c0,0.312-0.255,0.567-0.567,0.567h-15.584
				c-0.312,0-0.566-0.255-0.566-0.567v-9.182c0-0.312,0.255-0.567,0.566-0.567h15.584c0.312,0,0.567,0.255,0.567,0.567V-34.29z"/>
		</g>
	</g>
</g>
<g>
	<polygon fill="#EC760A" stroke="#FFFFFF" stroke-width="0.5" points="1216.037,-26.381 1221.382,-26.381 1218.924,-7.938 	"/>
	<circle fill="#EC760A" cx="1218.709" cy="-40.526" r="15.239"/>
	<g>
		<path fill="#FFFFFF" d="M1213.811-37.88h9.856v-0.873h-9.856V-37.88z M1213.811-35.225h9.856v-0.872h-9.856V-35.225z
			 M1213.811-43.123h9.856v-0.872h-9.856V-43.123z M1213.811-40.515h9.856v-0.873h-9.856V-40.515z M1224.772-32.201h-12.128v-17.513
			h8.647v3.478h3.48V-32.201z M1211.771-31.325 M1222.166-49.604l2.496,2.493h-2.496V-49.604z M1222.414-50.59h-10.643v19.265
			h13.876v-16.037L1222.414-50.59z"/>
	</g>
</g>
<g>
	<polygon fill="#EC760A" stroke="#FFFFFF" stroke-width="0.5" points="1175.988,-26.381 1181.333,-26.381 1178.874,-7.94 	"/>
	<circle fill="#EC760A" cx="1178.661" cy="-40.527" r="15.24"/>
	<g>
		<g>
			<path fill="#FFFFFF" d="M1186.58-41.657c-0.003-0.427-0.04-0.82-0.13-1.187c-0.072-0.288-0.179-0.561-0.34-0.811
				c-0.238-0.375-0.605-0.671-1.028-0.838c-0.42-0.168-0.884-0.232-1.407-0.232c-0.462,0-0.883,0.05-1.27,0.177
				c-0.289,0.096-0.56,0.239-0.791,0.435c-0.349,0.291-0.59,0.685-0.725,1.11c-0.135,0.413-0.185,0.86-0.187,1.349l-0.892,7.526
				h1.876v3.287h1.519v-3.287h0.939v3.287h1.519v-3.287h1.885L1186.58-41.657z"/>
			<path fill="#FFFFFF" d="M1173.466-45.424c1.366,0,2.468-1.105,2.468-2.47s-1.103-2.468-2.468-2.468
				c-1.363,0-2.467,1.104-2.469,2.468C1170.999-46.53,1172.103-45.424,1173.466-45.424 M1173.466-44.582
				c-2.043,0-3.696,1.655-3.696,3.696v3.868h1.709v6.175h1.517v-6.175h0.939v6.175h1.519v-6.175h1.708v-3.868
				C1177.162-42.927,1175.509-44.582,1173.466-44.582"/>
		</g>
		<path fill="#FFFFFF" d="M1185.991-47.897c0,1.37-1.11,2.48-2.48,2.48c-1.374,0-2.482-1.11-2.482-2.48
			c0-1.371,1.109-2.481,2.482-2.481C1184.881-50.378,1185.991-49.268,1185.991-47.897z"/>
	</g>
</g>
<g>
	<polygon fill="#EC760A" stroke="#FFFFFF" stroke-width="0.5" points="1376.229,-26.381 1381.574,-26.381 1379.116,-7.938 	"/>
	<circle fill="#EC760A" cx="1378.901" cy="-40.526" r="15.239"/>

		<text transform="matrix(1 0 0 1 1376.1445 -28.1851)" fill="#FFFFFF" font-family="'DejaVuSansCondensed-Bold'" font-size="7.8303">€</text>
	<polygon fill="none" stroke="#FFFFFF" stroke-width="0.5" points="1372.765,-44.251 1378.826,-36.93 1384.885,-44.251
		1381.826,-44.251 1381.826,-52.272 1375.823,-52.272 1375.823,-44.251 	"/>
</g>
<g>
	<g>
		<g enable-background="new    ">
			<defs>
				<polygon id="SVGID_1_" enable-background="new    " points="847.642,1051.821 1275.713,803.045 1381.531,864.144
					953.46,1112.92 				"/>
			</defs>
			<clipPath id="SVGID_2_">
				<use xlink:href="#SVGID_1_"  overflow="visible"/>
			</clipPath>
			<g clip-path="url(#SVGID_2_)">
				<g>
					<g>
						<g>
							<polyline fill="#EE740B" points="1301.351,819.479 1275.78,804.715 1257.898,815.107 1276.548,825.875 1283.469,829.871
								1301.351,819.479 							"/>
							<polyline fill="#EDEDED" points="1302.759,818.66 1275.771,803.078 1255.072,815.107 1256.481,814.289 1257.898,815.107
								1275.78,804.715 1301.351,819.479 1283.469,829.871 1302.759,818.66 							"/>
							<polyline fill="#EE740B" points="1275.14,826.693 1256.49,815.925 1246.475,821.746 1265.124,832.514 1275.14,826.693
															"/>
							<polyline fill="#EDEDED" points="1276.548,825.875 1257.898,815.107 1256.481,814.289 1255.072,815.107 1243.648,821.746
								1244.031,821.967 1245.439,821.149 1246.475,821.746 1256.49,815.925 1275.14,826.693 1265.124,832.514 1276.548,825.875
															"/>
							<path fill="#D0D0D0" d="M1308.571,840.617l2.88-1.673l2.859,1.651l2.842-1.652l2.861,1.652l2.848-1.655l2.86,1.651
								l2.842-1.651l2.898,1.674l-11.411,6.632l-5.728-3.307L1308.571,840.617 M1337.915,840.591l-35.147-20.293l-17.882,10.392
								l20.661,11.929l14.486,8.364L1337.915,840.591"/>
							<polyline fill="#EDEDED" points="1340.74,840.591 1302.759,818.66 1283.469,829.871 1284.886,830.689 1302.768,820.297
								1337.915,840.591 1320.033,850.982 1321.451,851.801 1340.74,840.591 							"/>
							<polyline fill="#D0D0D0" points="1264.072,833.538 1245.449,822.786 1197.291,850.772 1227.235,868.062 1260.486,848.738
								1264.072,833.538 							"/>
							<polyline fill="#EDEDED" points="1265.124,832.514 1246.475,821.746 1245.439,821.149 1244.031,821.967 1195.874,849.954
								1197.291,850.772 1245.449,822.786 1264.072,833.538 1264.185,833.06 1265.124,832.514 							"/>
							<polyline fill="#D0D0D0" points="1225.827,868.881 1195.442,851.337 1094.187,910.183 1115.938,922.742 1123.443,918.381
								1139.826,918.86 1225.827,868.881 							"/>
							<polyline fill="#EDEDED" points="1227.235,868.062 1197.291,850.772 1195.874,849.954 1195.434,849.7 1091.36,910.183
								1092.769,909.364 1094.187,910.183 1195.442,851.337 1225.827,868.881 1139.826,918.86 1227.235,868.062 							"/>
							<polyline fill="#D0D0D0" points="1292.079,867.229 1271.737,855.484 1238.702,874.683 1259.043,886.428 1292.079,867.229
															"/>
							<polyline fill="#EDEDED" points="1293.496,868.047 1271.737,855.484 1292.079,867.229 1259.043,886.428 1260.461,887.246
								1293.496,868.047 							"/>
							<polyline fill="#D0D0D0" points="1257.635,887.246 1237.294,875.501 1205.724,893.849 1226.064,905.594 1257.635,887.246
															"/>
							<polyline fill="#EDEDED" points="1260.461,887.246 1259.043,886.428 1238.702,874.683 1237.294,875.501 1257.635,887.246
								1226.064,905.594 1227.482,906.412 1260.461,887.246 							"/>
							<polyline fill="#D0D0D0" points="1129.311,932.095 1092.778,911.001 1074.357,921.706 1110.891,942.8 1129.311,932.095
															"/>
							<polyline fill="#EDEDED" points="1115.938,922.742 1094.187,910.183 1092.769,909.364 1091.36,910.183 1071.532,921.706
								1072.94,920.888 1074.357,921.706 1092.778,911.001 1129.311,932.095 1110.891,942.8 1129.311,932.095 1114.53,923.561
								1115.938,922.742 							"/>
							<polyline fill="#D0D0D0" points="1109.482,943.618 1072.949,922.524 1052.746,934.266 1077.691,948.669 1089.279,955.359
								1109.482,943.618 							"/>
							<polyline fill="#EDEDED" points="1110.891,942.8 1074.357,921.706 1072.94,920.888 1071.532,921.706 1049.92,934.266
								1051.329,933.447 1052.746,934.266 1072.949,922.524 1109.482,943.618 1089.279,955.359 1110.891,942.8 							"/>
							<polyline fill="#D0D0D0" points="1318.625,851.801 1304.139,843.437 1291.293,850.902 1305.78,859.267 1318.625,851.801
															"/>
							<polyline fill="#EDEDED" points="1321.451,851.801 1320.033,850.982 1305.547,842.618 1304.139,843.437 1318.625,851.801
								1305.78,859.267 1307.197,860.085 1321.451,851.801 							"/>
							<polyline fill="#D0D0D0" points="1076.283,949.487 1051.338,935.084 1023.498,951.264 1048.442,965.667 1076.283,949.487
															"/>
							<polyline fill="#EDEDED" points="1077.691,948.669 1052.746,934.266 1051.329,933.447 1049.92,934.266 1020.666,951.268
								1022.08,950.445 1023.498,951.264 1051.338,935.084 1076.283,949.487 1048.442,965.667 1077.691,948.669 							"/>
							<path fill="#D0D0D0" d="M1097.169,976.597l2.879-1.674l2.861,1.652l2.842-1.652l2.86,1.651l2.841-1.65l2.867,1.654
								l2.848-1.654l2.893,1.67l-11.411,6.631l-5.721-3.303L1097.169,976.597 M1124.997,977.614l-26.956-15.563l-14.57,8.467
								l26.956,15.564L1124.997,977.614"/>
							<polyline fill="#EDEDED" points="1127.823,977.614 1116.356,970.994 1114.948,971.812 1098.041,962.051 1124.997,977.614
								1110.427,986.082 1111.844,986.9 1127.823,977.614 							"/>
							<polyline fill="#D0D0D0" points="1109.019,986.9 1082.063,971.336 1061.86,983.078 1088.815,998.642 1109.019,986.9
								"/>
							<polyline fill="#EDEDED" points="1111.844,986.9 1110.427,986.082 1083.471,970.518 1082.063,971.336 1109.019,986.9
								1088.815,998.642 1090.233,999.46 1111.844,986.9 							"/>
							<polyline fill="#D0D0D0" points="1087.407,999.46 1060.452,983.896 1030.023,1001.58 1056.979,1017.144 1087.407,999.46
															"/>
							<polyline fill="#EDEDED" points="1090.233,999.46 1088.815,998.642 1061.86,983.078 1060.452,983.896 1087.407,999.46
								1056.979,1017.144 1058.396,1017.962 1090.233,999.46 							"/>
							<polyline fill="#EE740B" points="1047.028,966.489 1022.083,952.086 1015.156,956.111 1040.101,970.515 1047.028,966.489
															"/>
							<polyline fill="#EDEDED" points="1048.442,965.667 1023.498,951.264 1022.08,950.445 1020.666,951.268 1012.331,956.111
								1013.739,955.293 1015.156,956.111 1022.083,952.086 1047.028,966.489 1040.101,970.515 1048.442,965.667 							"/>
							<polyline fill="#EE740B" points="1038.693,971.333 1013.748,956.93 983.32,974.613 1008.265,989.017 1038.693,971.333
															"/>
							<polyline fill="#EDEDED" points="1040.101,970.515 1015.156,956.111 1013.739,955.293 1012.331,956.111 980.494,974.613
								981.902,973.795 983.32,974.613 1013.748,956.93 1038.693,971.333 1008.265,989.017 1040.101,970.515 							"/>
							<path id="R83.6" fill="#BDD4E7" d="M981.736,990.668c-0.3-0.173-0.605-0.262-0.931-0.258c-0.325,0.004-0.635,0.088-0.94,0.266
								c-0.304,0.177-0.45,0.357-0.455,0.545c0,0.185,0.148,0.365,0.448,0.538c0.3,0.174,0.606,0.255,0.925,0.255
								c0.324-0.004,0.629-0.093,0.934-0.27c0.305-0.177,0.463-0.357,0.462-0.542C982.184,991.015,982.036,990.841,981.736,990.668
								 M997.217,999.275c-0.274-0.158-0.574-0.229-0.892-0.206c-0.324,0.025-0.661,0.141-1.022,0.351
								c-0.362,0.21-0.564,0.408-0.601,0.593c-0.044,0.188,0.078,0.361,0.352,0.521c0.288,0.166,0.587,0.235,0.912,0.209
								c0.318-0.021,0.661-0.14,1.022-0.35c0.361-0.21,0.558-0.405,0.601-0.594C997.626,999.615,997.505,999.441,997.217,999.275
								 M977.533,985.625l-0.677-0.391l-1.586,0.922l0.677,0.391c0.332,0.191,0.638,0.295,0.911,0.306
								c0.268,0.015,0.541-0.062,0.826-0.229c0.279-0.162,0.413-0.321,0.386-0.476S977.865,985.816,977.533,985.625
								 M984.255,989.204c-0.256-0.147-0.51-0.221-0.785-0.225c-0.267,0-0.521,0.066-0.762,0.206
								c-0.247,0.145-0.368,0.296-0.366,0.45c0.014,0.154,0.135,0.306,0.391,0.453c0.249,0.145,0.511,0.214,0.777,0.222
								c0.267,0,0.528-0.07,0.775-0.214c0.241-0.141,0.361-0.292,0.36-0.446C984.632,989.496,984.504,989.349,984.255,989.204
								 M988.732,997.904l1.599-0.929l1.494,0.862l-1.599,0.929L988.732,997.904 M970.243,987.229l6.166-3.583l2.445,1.412
								c0.817,0.472,1.278,0.892,1.388,1.271c0.111,0.38-0.129,0.741-0.719,1.084c-0.406,0.236-0.844,0.372-1.302,0.409
								s-0.954-0.022-1.471-0.181c0.166,0.154,0.25,0.335,0.251,0.534c-0.005,0.203-0.099,0.457-0.276,0.767l-0.882,1.52
								l-1.705-0.984l0.782-1.327c0.158-0.27,0.214-0.479,0.168-0.638c-0.045-0.151-0.199-0.307-0.46-0.458l-0.453-0.262
								l-2.335,1.357L970.243,987.229 M994.045,1001.104c-0.804-0.465-1.164-0.98-1.064-1.549c0.098-0.575,0.649-1.146,1.639-1.722
								c1.021-0.593,2.076-0.91,3.176-0.951c1.101-0.04,2.102,0.199,3.002,0.719c0.287,0.166,0.536,0.34,0.76,0.52
								c0.223,0.182,0.428,0.373,0.601,0.576l-1.142,0.663c-0.135-0.225-0.295-0.42-0.462-0.59
								c-0.179-0.169-0.371-0.316-0.594-0.445c-0.479-0.277-0.982-0.413-1.511-0.41c-0.528-0.003-1.074,0.137-1.633,0.409
								c0.312,0.026,0.611,0.081,0.898,0.166c0.274,0.085,0.548,0.199,0.797,0.343c0.632,0.365,0.966,0.771,0.98,1.213
								c0.021,0.439-0.269,0.83-0.865,1.176c-0.66,0.384-1.41,0.568-2.237,0.546
								C995.557,1001.749,994.773,1001.524,994.045,1001.104 M978.863,992.338c-0.804-0.464-1.258-0.903-1.363-1.323
								c-0.091-0.421,0.155-0.808,0.77-1.165c0.394-0.229,0.832-0.357,1.309-0.384c0.477-0.025,0.98,0.045,1.516,0.222
								c-0.262-0.284-0.372-0.546-0.329-0.793c0.043-0.247,0.239-0.472,0.588-0.675c0.52-0.302,1.111-0.424,1.779-0.354
								c0.662,0.066,1.37,0.321,2.124,0.756s1.188,0.841,1.305,1.224c0.123,0.387-0.079,0.727-0.605,1.032
								c-0.349,0.203-0.736,0.317-1.163,0.343s-0.885-0.04-1.376-0.191c0.307,0.31,0.436,0.604,0.393,0.881
								c-0.049,0.272-0.271,0.527-0.664,0.756c-0.615,0.357-1.276,0.505-2.002,0.453
								C980.426,993.063,979.667,992.803,978.863,992.338 M987.628,991.645l1.161-0.674c0.402,0.129,0.784,0.269,1.142,0.424
								c0.351,0.15,0.676,0.316,0.977,0.49c0.805,0.464,1.277,0.893,1.42,1.275c0.13,0.383-0.06,0.729-0.586,1.036
								c-0.361,0.21-0.755,0.327-1.175,0.35c-0.42,0.022-0.872-0.048-1.338-0.206c0.314,0.299,0.443,0.593,0.394,0.873
								c-0.049,0.281-0.277,0.538-0.689,0.778c-0.609,0.354-1.309,0.486-2.091,0.401c-0.79-0.088-1.638-0.394-2.539-0.914
								c-0.319-0.184-0.613-0.383-0.881-0.597c-0.268-0.214-0.512-0.442-0.723-0.683l1.224-0.711
								c0.154,0.258,0.334,0.493,0.558,0.711c0.217,0.214,0.466,0.402,0.754,0.568c0.421,0.243,0.823,0.387,1.199,0.435
								c0.37,0.044,0.694-0.011,0.966-0.17c0.279-0.162,0.374-0.35,0.283-0.571c-0.084-0.217-0.353-0.453-0.806-0.715l-0.638-0.369
								l1.027-0.597l0.67,0.387c0.402,0.232,0.766,0.369,1.084,0.413c0.325,0.04,0.611-0.015,0.871-0.166
								c0.235-0.137,0.323-0.299,0.258-0.482c-0.058-0.188-0.263-0.38-0.614-0.583c-0.255-0.147-0.549-0.28-0.868-0.397
								C988.342,991.829,987.998,991.726,987.628,991.645 M1016.082,995.162l-34.17-19.73l-27.96,16.25l34.17,19.729
								L1016.082,995.162"/>
							<polyline fill="#EDEDED" points="1008.265,989.017 983.32,974.613 981.902,973.795 980.494,974.613 951.125,991.682
								952.534,990.863 953.951,991.682 981.912,975.432 1016.082,995.162 988.122,1011.411 1016.082,995.162 1006.856,989.835
								1008.265,989.017 							"/>
							<path id="R83.8" fill="#BDD4E7" d="M1030.214,1018.659c-0.3-0.174-0.605-0.263-0.93-0.259c-0.325,0.004-0.636,0.089-0.94,0.266
								s-0.45,0.357-0.455,0.546c0,0.185,0.148,0.365,0.448,0.538c0.294,0.17,0.606,0.254,0.925,0.254
								c0.318-0.007,0.629-0.092,0.934-0.269c0.305-0.178,0.457-0.361,0.461-0.542
								C1030.663,1019.005,1030.508,1018.828,1030.214,1018.659 M1045.295,1027.366c-0.3-0.173-0.606-0.263-0.93-0.258
								c-0.325,0.003-0.636,0.088-0.94,0.265c-0.304,0.178-0.45,0.357-0.455,0.546c0,0.185,0.147,0.365,0.447,0.538
								c0.294,0.17,0.606,0.255,0.925,0.254c0.317-0.007,0.629-0.092,0.933-0.269c0.305-0.177,0.457-0.361,0.462-0.542
								C1045.743,1027.713,1045.588,1027.535,1045.295,1027.366 M1026.005,1013.612l-0.67-0.388l-1.586,0.922l0.67,0.387
								c0.339,0.195,0.645,0.299,0.912,0.307c0.268,0.015,0.548-0.06,0.833-0.225c0.279-0.163,0.406-0.325,0.38-0.479
								C1026.523,1013.984,1026.344,1013.808,1026.005,1013.612 M1032.733,1017.195c-0.255-0.147-0.516-0.225-0.784-0.225
								c-0.273-0.004-0.527,0.062-0.769,0.202c-0.247,0.144-0.367,0.296-0.36,0.453c0.008,0.151,0.135,0.307,0.391,0.454
								c0.249,0.144,0.511,0.214,0.771,0.217c0.273,0.004,0.528-0.069,0.775-0.213c0.242-0.141,0.367-0.288,0.361-0.446
								C1033.11,1017.486,1032.982,1017.339,1032.733,1017.195 M1047.813,1025.902c-0.256-0.147-0.517-0.225-0.784-0.225
								c-0.273-0.004-0.527,0.062-0.769,0.203c-0.248,0.144-0.368,0.295-0.36,0.453c0.007,0.15,0.135,0.306,0.391,0.453
								c0.249,0.144,0.511,0.214,0.771,0.218c0.273,0.004,0.527-0.07,0.774-0.214c0.242-0.141,0.368-0.287,0.361-0.446
								C1048.19,1026.193,1048.062,1026.046,1047.813,1025.902 M1037.205,1025.892l1.599-0.929l1.494,0.862l-1.599,0.929
								L1037.205,1025.892 M1018.715,1015.216l6.166-3.583l2.445,1.412c0.817,0.472,1.285,0.896,1.394,1.275
								c0.104,0.376-0.136,0.737-0.726,1.08c-0.406,0.235-0.838,0.376-1.296,0.412c-0.458,0.037-0.954-0.021-1.477-0.184
								c0.172,0.158,0.25,0.335,0.25,0.534c0.001,0.206-0.093,0.461-0.269,0.771l-0.883,1.519l-1.705-0.984l0.775-1.33
								c0.164-0.266,0.214-0.479,0.175-0.635c-0.051-0.154-0.198-0.306-0.46-0.457l-0.454-0.262l-2.334,1.356L1018.715,1015.216
								 M1027.341,1020.329c-0.811-0.469-1.265-0.907-1.363-1.324c-0.098-0.424,0.155-0.808,0.77-1.164
								c0.394-0.229,0.833-0.358,1.303-0.388c0.477-0.025,0.986,0.048,1.522,0.225c-0.262-0.283-0.378-0.549-0.335-0.796
								s0.239-0.472,0.588-0.675c0.52-0.302,1.118-0.42,1.78-0.354s1.37,0.32,2.13,0.76c0.747,0.431,1.188,0.84,1.305,1.224
								c0.117,0.383-0.079,0.727-0.604,1.032c-0.349,0.202-0.737,0.316-1.163,0.343c-0.433,0.021-0.885-0.041-1.376-0.192
								c0.308,0.311,0.437,0.604,0.387,0.878c-0.043,0.276-0.264,0.53-0.658,0.76c-0.615,0.357-1.276,0.505-2.002,0.453
								C1028.905,1021.055,1028.146,1020.793,1027.341,1020.329 M1036.1,1019.632l1.161-0.675c0.408,0.133,0.791,0.273,1.142,0.424
								c0.357,0.155,0.683,0.321,0.982,0.494c0.805,0.465,1.271,0.889,1.414,1.271c0.136,0.388-0.06,0.73-0.586,1.036
								c-0.361,0.21-0.755,0.328-1.175,0.351c-0.42,0.022-0.865-0.045-1.338-0.206c0.32,0.302,0.45,0.597,0.399,0.877
								c-0.049,0.28-0.276,0.538-0.689,0.777c-0.609,0.354-1.309,0.487-2.098,0.398c-0.79-0.089-1.632-0.391-2.538-0.914
								c-0.319-0.185-0.613-0.384-0.881-0.597c-0.269-0.215-0.505-0.439-0.716-0.679l1.224-0.712
								c0.147,0.255,0.334,0.494,0.552,0.708c0.217,0.214,0.473,0.405,0.76,0.571c0.421,0.244,0.823,0.387,1.193,0.432
								c0.376,0.048,0.693-0.012,0.966-0.17c0.28-0.162,0.374-0.35,0.29-0.567s-0.359-0.457-0.812-0.719l-0.639-0.369l1.028-0.597
								l0.676,0.391c0.403,0.232,0.76,0.365,1.078,0.409c0.325,0.04,0.611-0.015,0.871-0.166c0.234-0.137,0.329-0.295,0.264-0.479
								c-0.058-0.188-0.269-0.384-0.614-0.583c-0.262-0.151-0.555-0.284-0.874-0.402
								C1036.82,1019.82,1036.476,1019.717,1036.1,1019.632 M1042.421,1029.036c-0.81-0.468-1.264-0.907-1.362-1.323
								c-0.098-0.424,0.155-0.808,0.77-1.165c0.394-0.229,0.832-0.357,1.303-0.388c0.478-0.025,0.986,0.049,1.522,0.226
								c-0.263-0.284-0.379-0.55-0.335-0.797c0.042-0.247,0.239-0.472,0.588-0.675c0.52-0.302,1.117-0.42,1.779-0.354
								s1.37,0.32,2.13,0.76c0.747,0.432,1.188,0.841,1.305,1.224c0.117,0.384-0.079,0.727-0.604,1.032
								c-0.349,0.203-0.736,0.317-1.163,0.343c-0.432,0.022-0.885-0.04-1.375-0.191c0.307,0.31,0.436,0.604,0.387,0.877
								c-0.043,0.276-0.265,0.531-0.658,0.76c-0.615,0.357-1.276,0.505-2.002,0.453
								C1043.985,1029.762,1043.226,1029.501,1042.421,1029.036 M1073.071,1028.066l-44.456-25.668l-27.961,16.249l44.456,25.669
								L1073.071,1028.066"/>
							<polyline fill="#EDEDED" points="1075.896,1028.066 1058.396,1017.962 1056.979,1017.144 1030.023,1001.58
								1028.615,1002.398 1073.071,1028.066 1045.11,1044.316 1046.528,1045.135 1075.896,1028.066 							"/>
							<polyline fill="#D0D0D0" points="1043.702,1045.135 999.246,1019.466 974.229,1034.005 1018.685,1059.674 1043.702,1045.135
															"/>
							<polyline fill="#EDEDED" points="1046.528,1045.135 1045.11,1044.316 1000.654,1018.647 999.246,1019.466 1043.702,1045.135
								1018.685,1059.674 1020.102,1060.492 1046.528,1045.135 							"/>
							<polyline fill="#D0D0D0" points="986.713,1012.229 952.543,992.5 927.525,1007.039 961.695,1026.769 986.713,1012.229
															"/>
							<polyline fill="#EDEDED" points="988.122,1011.411 953.951,991.682 952.534,990.863 951.125,991.682 924.693,1007.043
								926.107,1006.221 927.525,1007.039 952.543,992.5 986.713,1012.229 961.695,1026.769 988.122,1011.411 							"/>
							<path id="R83.4" fill="#BDD4E7" d="M927.705,1022.068c-0.3-0.173-0.612-0.258-0.937-0.254c-0.318,0-0.636,0.089-0.94,0.266
								c-0.298,0.173-0.45,0.357-0.449,0.541c-0.005,0.188,0.148,0.365,0.448,0.539c0.3,0.173,0.6,0.258,0.925,0.254
								c0.318,0,0.629-0.092,0.927-0.266c0.304-0.177,0.463-0.357,0.468-0.545C928.146,1022.419,928.005,1022.242,927.705,1022.068
								 M945.051,1029.659l-4.332,0.482l1.756,1.014L945.051,1029.659 M923.496,1017.029l-0.677-0.391l-1.58,0.918l0.677,0.391
								c0.332,0.191,0.638,0.295,0.906,0.31c0.273,0.011,0.546-0.066,0.831-0.232c0.28-0.162,0.407-0.316,0.386-0.476
								C924.013,1017.395,923.828,1017.221,923.496,1017.029 M930.223,1020.605c-0.255-0.147-0.516-0.218-0.784-0.225
								c-0.267-0.001-0.528,0.069-0.769,0.21c-0.247,0.144-0.36,0.291-0.36,0.445c0.007,0.159,0.135,0.307,0.391,0.454
								c0.249,0.144,0.504,0.218,0.778,0.221c0.268,0,0.521-0.066,0.769-0.21c0.248-0.144,0.361-0.291,0.36-0.446
								C930.601,1020.896,930.472,1020.749,930.223,1020.605 M934.701,1029.305l1.599-0.929l1.494,0.862l-1.599,0.93
								L934.701,1029.305 M916.211,1018.629l6.166-3.583l2.445,1.412c0.817,0.472,1.272,0.896,1.382,1.275
								c0.11,0.38-0.123,0.737-0.713,1.08c-0.413,0.24-0.844,0.372-1.309,0.413c-0.458,0.037-0.948-0.026-1.472-0.181
								c0.167,0.154,0.257,0.332,0.252,0.534c0,0.199-0.093,0.454-0.27,0.764l-0.883,1.519l-1.705-0.984l0.775-1.323
								c0.158-0.27,0.214-0.479,0.168-0.638c-0.039-0.155-0.193-0.31-0.454-0.461l-0.454-0.262l-2.334,1.356L916.211,1018.629
								 M938.57,1030.237l1.364-0.792l6.162-0.704l1.781,1.028l-3.888,2.26l0.888,0.513l-1.154,0.671l-0.888-0.513l-1.123,0.652
								l-1.513-0.873l1.123-0.653L938.57,1030.237 M924.825,1023.742c-0.805-0.464-1.252-0.907-1.357-1.327
								c-0.097-0.416,0.155-0.808,0.764-1.161c0.4-0.232,0.838-0.361,1.315-0.387c0.478-0.026,0.974,0.048,1.51,0.225
								c-0.263-0.284-0.366-0.55-0.329-0.793c0.043-0.247,0.239-0.472,0.587-0.674c0.527-0.307,1.112-0.425,1.78-0.354
								c0.662,0.066,1.37,0.321,2.124,0.756s1.188,0.841,1.305,1.224c0.129,0.384-0.078,0.727-0.605,1.033
								c-0.348,0.202-0.736,0.316-1.162,0.342c-0.42,0.022-0.885-0.04-1.376-0.191c0.307,0.31,0.442,0.601,0.399,0.877
								c-0.05,0.273-0.271,0.527-0.671,0.76c-0.608,0.354-1.275,0.505-1.995,0.45
								C926.395,1024.465,925.629,1024.207,924.825,1023.742 M933.59,1023.05l1.167-0.679c0.401,0.129,0.778,0.272,1.135,0.428
								c0.351,0.151,0.676,0.316,0.976,0.49c0.805,0.465,1.285,0.889,1.42,1.275c0.136,0.38-0.06,0.73-0.586,1.036
								c-0.361,0.21-0.75,0.324-1.175,0.35c-0.42,0.022-0.866-0.052-1.332-0.21c0.308,0.303,0.443,0.594,0.393,0.874
								c-0.049,0.28-0.277,0.538-0.689,0.777c-0.609,0.354-1.315,0.49-2.098,0.406c-0.789-0.089-1.638-0.395-2.538-0.915
								c-0.319-0.184-0.613-0.383-0.881-0.597c-0.268-0.214-0.512-0.442-0.723-0.683l1.23-0.715
								c0.147,0.262,0.327,0.498,0.551,0.715c0.224,0.211,0.473,0.398,0.76,0.564c0.421,0.243,0.816,0.391,1.192,0.438
								c0.369,0.045,0.694-0.011,0.967-0.169c0.279-0.162,0.38-0.354,0.29-0.576c-0.091-0.213-0.353-0.453-0.806-0.715l-0.639-0.368
								l1.021-0.594l0.67,0.387c0.402,0.232,0.766,0.369,1.09,0.409c0.325,0.041,0.611-0.015,0.865-0.162
								c0.235-0.136,0.323-0.299,0.264-0.486c-0.064-0.185-0.269-0.376-0.62-0.578c-0.255-0.147-0.542-0.284-0.862-0.402
								C934.305,1023.233,933.96,1023.131,933.59,1023.05 M960.281,1027.591l-34.17-19.729l-24.548,14.267l34.17,19.729
								L960.281,1027.591"/>
							<polyline fill="#EDEDED" points="961.695,1026.769 927.525,1007.039 926.107,1006.221 924.693,1007.043 898.737,1022.128
								900.145,1021.31 901.562,1022.128 926.111,1007.861 960.281,1027.591 935.733,1041.857 961.695,1026.769 							"/>
							<polyline fill="#D0D0D0" points="1017.27,1060.496 972.814,1034.827 948.266,1049.094 968.243,1060.629 992.722,1074.762
								1017.27,1060.496 							"/>
							<polyline fill="#EDEDED" points="1020.102,1060.492 1018.685,1059.674 974.229,1034.005 972.814,1034.827 1017.27,1060.496
								992.722,1074.762 994.139,1075.58 1020.102,1060.492 							"/>
							<polyline fill="#D0D0D0" points="966.835,1061.447 900.154,1022.946 874.077,1038.101 940.758,1076.602 966.835,1061.447
															"/>
							<path fill="#EDEDED" d="M874.077,1038.101l26.077-15.154l66.681,38.501l-26.077,15.154L874.077,1038.101 M968.243,1060.629
								l-19.978-11.535l-1.408,0.818l-12.533-7.236l1.408-0.818l-34.17-19.729l-1.417-0.818l-1.408,0.818l-27.485,15.973
								l68.099,39.319L968.243,1060.629"/>
							<polyline fill="#D0D0D0" points="991.313,1075.58 968.252,1062.266 942.176,1077.42 955.066,1084.863 965.237,1090.735
								991.313,1075.58 							"/>
							<polyline fill="#EDEDED" points="994.139,1075.58 992.722,1074.762 968.243,1060.629 939.35,1077.42 940.758,1076.602
								942.176,1077.42 968.252,1062.266 991.313,1075.58 965.237,1090.735 966.654,1091.554 994.139,1075.58 							"/>
							<path fill="#D0D0D0" d="M941.357,1100.5l3.584-2.082l2.86,1.651l2.842-1.651l2.867,1.654l2.848-1.654l2.86,1.651l2.841-1.651
								l3.607,2.083l-12.115,7.04L941.357,1100.5 M975.646,1098.377l-21.989-12.695l-22.201,12.902l21.989,12.695L975.646,1098.377"
								/>
							<polyline fill="#EDEDED" points="978.479,1098.381 966.654,1091.554 965.237,1090.735 955.066,1084.863 953.658,1085.682
								975.646,1098.377 953.445,1111.279 931.457,1098.584 930.048,1099.402 928.631,1098.584 953.46,1112.92 978.479,1098.381
															"/>
							<polyline fill="#D0D0D0" points="952.24,1084.863 940.768,1078.238 918.566,1091.141 930.039,1097.766 952.24,1084.863
															"/>
							<path fill="#EDEDED" d="M918.566,1091.141l22.201-12.902l11.473,6.625l-22.201,12.902L918.566,1091.141 M955.066,1084.863
								l-12.89-7.443l-1.417-0.818l-1.408,0.818l-23.609,13.721l12.89,7.443l1.417,0.818l1.408-0.818l22.201-12.902
								L955.066,1084.863"/>
							<polyline fill="#D0D0D0" points="1302.721,842.618 1276.563,827.515 1266.078,833.609 1262.373,849.283 1140.622,920.04
								1124.232,919.564 1117.356,923.561 1132.137,932.095 1089.288,956.996 1077.7,950.306 1009.682,989.835 1018.908,995.162
								937.15,1042.676 946.842,1048.271 1148.302,931.191 1143.456,928.394 1271.729,853.848 1293.487,866.41 1304.372,860.085
								1288.468,850.902 1302.721,842.618 							"/>
							<path fill="#EDEDED" d="M1117.356,923.561l6.876-3.996l16.39,0.476l121.751-70.757l3.705-15.674l10.485-6.094l26.157,15.103
								l-14.253,8.284l15.904,9.183l-10.885,6.325l-21.759-12.562l-128.272,74.546l4.846,2.798l-201.459,117.08l-9.692-5.596
								l81.757-47.514l-9.226-5.327l68.018-39.529l11.588,6.69l42.849-24.901L1117.356,923.561 M1305.547,842.618l-20.661-11.929
								l-1.417-0.818l-6.921-3.996l-11.424,6.639l-0.939,0.545l-0.112,0.479l-3.586,15.2l-33.251,19.324l-87.409,50.798
								l-16.383-0.479l-7.504,4.361l-1.408,0.818l14.78,8.534l-18.42,10.705l-21.612,12.56l-11.588-6.69l-29.249,16.998
								l-8.341,4.848l-31.836,18.502l-1.408,0.818l9.226,5.327l-27.96,16.249l-26.426,15.357l-25.962,15.089l-1.408,0.818
								l12.533,7.236l1.408-0.818l24.548-14.267l1.415-0.822l25.018-14.539l1.408-0.818l27.961-16.249l1.408-0.818l30.428-17.684
								l1.408-0.818l20.203-11.742l1.408-0.818l14.57-8.467l-1.423-0.822l51.684-30.037l-4.846-2.798l60.851-35.363l1.417,0.818
								l31.57-18.348l1.408-0.818l33.035-19.198l21.759,12.562l13.701-7.962l-1.417-0.818l-14.487-8.364l12.846-7.466
								L1305.547,842.618"/>
							<path id="R43.25" fill="#BDD4E7" d="M1172.887,925.78c-0.281-0.162-0.555-0.24-0.822-0.226c-0.267,0.016-0.565,0.122-0.895,0.313
								l-0.673,0.391l1.59,0.918l0.672-0.391c0.33-0.191,0.507-0.368,0.532-0.523C1173.31,926.104,1173.174,925.946,1172.887,925.78
								 M1180.512,923.627l-2.598-1.5l0.854,2.514L1180.512,923.627 M1174.653,926.329c0.261-0.1,0.572-0.147,0.922-0.144
								c0.344,0,0.789,0.052,1.318,0.158l2.625,0.517l-1.694,0.984l-2.293-0.458c-0.459-0.088-0.822-0.121-1.096-0.096
								c-0.267,0.022-0.534,0.111-0.794,0.262l-0.45,0.262l2.35,1.356l-1.586,0.922l-6.206-3.583l2.429-1.412
								c0.812-0.472,1.542-0.74,2.191-0.8c0.655-0.062,1.28,0.077,1.874,0.42c0.409,0.236,0.646,0.491,0.71,0.756
								C1175.025,925.743,1174.919,926.027,1174.653,926.329 M1177.567,925.094l-1.236-3.571l1.77-1.028l3.914,2.26l0.882-0.513
								l1.162,0.671l-0.882,0.513l1.13,0.652l-1.503,0.873l-1.13-0.652l-2.734,1.589L1177.567,925.094 M1186.17,919.118
								c0.521-0.177,1.022-0.254,1.507-0.225c0.483,0.029,0.93,0.162,1.345,0.401c0.613,0.354,0.857,0.76,0.707,1.217
								c-0.15,0.457-0.676,0.947-1.57,1.468c-0.317,0.185-0.659,0.354-1.028,0.509c-0.369,0.154-0.762,0.295-1.175,0.416
								l-1.239-0.715c0.451-0.085,0.852-0.191,1.227-0.32c0.368-0.126,0.692-0.27,0.978-0.436c0.418-0.243,0.671-0.472,0.753-0.689
								c0.075-0.214-0.021-0.401-0.295-0.561c-0.281-0.162-0.612-0.221-0.994-0.169c-0.375,0.048-0.782,0.202-1.232,0.464
								l-0.634,0.369l-1.028-0.594l0.666-0.387c0.399-0.232,0.634-0.442,0.703-0.631c0.069-0.188-0.027-0.354-0.283-0.501
								c-0.243-0.141-0.517-0.188-0.841-0.155c-0.318,0.037-0.648,0.155-0.997,0.357c-0.254,0.148-0.488,0.313-0.691,0.498
								c-0.203,0.185-0.373,0.387-0.518,0.604l-1.175-0.679c0.221-0.231,0.468-0.449,0.734-0.655
								c0.26-0.203,0.539-0.395,0.837-0.567c0.799-0.465,1.536-0.738,2.204-0.815c0.655-0.077,1.253,0.033,1.791,0.343
								c0.363,0.21,0.562,0.435,0.602,0.679C1186.567,918.592,1186.448,918.846,1186.17,919.118 M1190.716,918.488l1.485-0.862
								l1.609,0.929l-1.485,0.862L1190.716,918.488 M1195.933,915.959l2.716-1.577l1.175,0.678l-4.479,2.603l-1.174-0.678
								l0.247-2.459c0.018-0.225-0.016-0.413-0.086-0.571c-0.084-0.159-0.218-0.288-0.409-0.398
								c-0.287-0.166-0.619-0.247-0.988-0.239c-0.369,0.015-0.719,0.114-1.035,0.298c-0.254,0.147-0.47,0.332-0.659,0.568
								c-0.189,0.229-0.347,0.505-0.472,0.821l-1.36-0.785c0.24-0.279,0.5-0.534,0.784-0.773c0.292-0.243,0.602-0.461,0.938-0.656
								c0.736-0.428,1.472-0.663,2.21-0.715c0.732-0.048,1.395,0.1,1.976,0.435c0.338,0.195,0.575,0.428,0.691,0.7
								c0.115,0.266,0.15,0.704,0.077,1.309L1195.933,915.959 M1197.69,910.471l0.964,0.557c0.082-0.093,0.178-0.178,0.292-0.259
								c0.101-0.081,0.215-0.162,0.349-0.239c0.748-0.435,1.529-0.667,2.324-0.693c0.79-0.021,1.529,0.162,2.206,0.553
								c0.67,0.388,0.972,0.819,0.897,1.306c-0.08,0.483-0.522,0.962-1.328,1.43c-0.355,0.207-0.729,0.388-1.143,0.546
								c-0.412,0.158-0.857,0.299-1.334,0.413l-1.258-0.727c0.535-0.081,0.992-0.184,1.393-0.298c0.4-0.122,0.73-0.262,0.996-0.417
								c0.388-0.225,0.59-0.454,0.627-0.689c0.03-0.239-0.111-0.453-0.437-0.642c-0.326-0.188-0.702-0.272-1.108-0.25
								c-0.414,0.018-0.802,0.14-1.188,0.364c-0.229,0.133-0.45,0.292-0.641,0.476c-0.202,0.185-0.392,0.398-0.562,0.646
								l-3.492-2.017l3.952-2.297l1.174,0.679L1197.69,910.471 M1224.65,906.415l-20.341-11.745l-58.028,33.724l4.852,2.802
								l-51.685,30.037l15.489,8.942L1224.65,906.415"/>
							<path fill="#EDEDED" d="M1146.282,928.394l58.028-33.724l20.341,11.745l-109.712,63.76l-15.489-8.942l51.685-30.037
								L1146.282,928.394 M1227.482,906.412l-1.418-0.818l-20.341-11.745l-1.417-0.818l-60.851,35.363l4.846,2.798l-51.684,30.037
								l1.423,0.822l16.907,9.762l1.408-0.818L1227.482,906.412"/>
							<polyline fill="#FFFFFF" points="1120.06,976.594 1117.167,974.924 1114.319,976.578 1111.452,974.924 1108.611,976.574
								1105.751,974.923 1102.909,976.575 1100.048,974.923 1097.169,976.597 1102.928,979.922 1108.648,983.225 1120.06,976.594
															"/>
							<polyline fill="#FFFFFF" points="964.254,1100.501 962.064,1099.236 959.222,1100.888 956.362,1099.236 953.514,1100.892
								950.647,1099.236 947.806,1100.888 944.946,1099.236 942.776,1100.497 953.553,1106.72 964.254,1100.501 							"/>
							<path fill="#EDEDED" d="M942.776,1100.497l2.169-1.261l2.86,1.651l2.841-1.651l2.867,1.655l2.848-1.655l2.86,1.651
								l2.842-1.651l2.19,1.265l-10.701,6.219L942.776,1100.497 M965.667,1100.501l-3.607-2.083l-2.841,1.651l-2.86-1.651
								l-2.848,1.654l-2.867-1.654l-2.842,1.651l-2.86-1.651l-3.584,2.082l12.195,7.041L965.667,1100.501"/>
							<polyline fill="#FFFFFF" points="1331.462,840.613 1328.563,838.939 1325.722,840.591 1322.861,838.939 1320.014,840.595
								1317.152,838.943 1314.311,840.595 1311.451,838.943 1308.571,840.617 1314.323,843.938 1320.051,847.245 1331.462,840.613
															"/>
							<path fill="#FFFFFF" d="M921.239,1017.557l1.58-0.918l0.677,0.391c0.332,0.191,0.518,0.365,0.544,0.52
								c0.021,0.159-0.106,0.313-0.386,0.476c-0.285,0.166-0.558,0.243-0.831,0.232c-0.268-0.015-0.574-0.118-0.906-0.31
								L921.239,1017.557 M924.822,1016.458l-2.445-1.412l-6.166,3.583l1.596,0.922l2.334-1.356l0.454,0.262
								c0.261,0.151,0.415,0.306,0.454,0.461c0.045,0.158-0.011,0.368-0.168,0.638l-0.775,1.323l1.705,0.984l0.883-1.519
								c0.176-0.31,0.27-0.564,0.27-0.764c0.005-0.202-0.085-0.38-0.252-0.534c0.523,0.154,1.014,0.218,1.472,0.181
								c0.464-0.041,0.896-0.173,1.309-0.413c0.59-0.343,0.823-0.7,0.713-1.08C926.094,1017.354,925.64,1016.93,924.822,1016.458"/>
							<path fill="#FFFFFF" d="M925.827,1023.16c-0.3-0.174-0.454-0.351-0.448-0.539c-0.001-0.184,0.151-0.368,0.449-0.541
								c0.304-0.177,0.623-0.266,0.94-0.266c0.325-0.004,0.637,0.081,0.937,0.254c0.3,0.174,0.441,0.351,0.442,0.535
								c-0.005,0.188-0.164,0.368-0.468,0.545c-0.298,0.174-0.609,0.266-0.927,0.266
								C926.427,1023.418,926.127,1023.333,925.827,1023.16 M928.701,1021.49c-0.255-0.147-0.383-0.295-0.391-0.454
								c0-0.154,0.113-0.302,0.36-0.445c0.241-0.141,0.502-0.211,0.769-0.21c0.268,0.007,0.529,0.077,0.784,0.225
								c0.249,0.144,0.377,0.291,0.384,0.449c0.001,0.155-0.112,0.303-0.36,0.446c-0.247,0.144-0.501,0.21-0.769,0.21
								C929.205,1021.708,928.95,1021.634,928.701,1021.49 M931.219,1020.026c-0.753-0.435-1.461-0.689-2.124-0.756
								c-0.668-0.07-1.253,0.048-1.78,0.354c-0.348,0.202-0.544,0.427-0.587,0.674c-0.037,0.243,0.066,0.509,0.329,0.793
								c-0.536-0.177-1.032-0.251-1.51-0.225c-0.477,0.025-0.915,0.154-1.315,0.387c-0.609,0.354-0.861,0.745-0.764,1.161
								c0.104,0.42,0.552,0.863,1.357,1.327c0.804,0.465,1.57,0.723,2.289,0.778c0.72,0.055,1.387-0.097,1.995-0.45
								c0.4-0.232,0.621-0.486,0.671-0.76c0.043-0.276-0.093-0.567-0.399-0.877c0.491,0.151,0.956,0.214,1.376,0.191
								c0.426-0.025,0.814-0.14,1.162-0.342c0.527-0.307,0.734-0.649,0.605-1.033
								C932.407,1020.867,931.973,1020.461,931.219,1020.026"/>
							<path fill="#FFFFFF" d="M936.869,1023.289c-0.3-0.174-0.625-0.339-0.976-0.49c-0.357-0.155-0.734-0.299-1.135-0.428
								l-1.167,0.679c0.37,0.081,0.714,0.184,1.045,0.302c0.319,0.118,0.606,0.255,0.862,0.402c0.351,0.202,0.556,0.394,0.62,0.578
								c0.059,0.188-0.029,0.351-0.264,0.486c-0.254,0.147-0.54,0.203-0.865,0.162c-0.325-0.04-0.688-0.177-1.09-0.409l-0.67-0.387
								l-1.021,0.594l0.639,0.368c0.453,0.262,0.715,0.502,0.806,0.715c0.09,0.222-0.011,0.414-0.29,0.576
								c-0.273,0.158-0.598,0.214-0.967,0.169c-0.376-0.048-0.771-0.195-1.192-0.438c-0.288-0.166-0.537-0.354-0.76-0.564
								c-0.225-0.217-0.404-0.453-0.551-0.715l-1.23,0.715c0.211,0.24,0.455,0.469,0.723,0.683c0.269,0.214,0.562,0.413,0.881,0.597
								c0.9,0.521,1.749,0.826,2.538,0.915c0.783,0.084,1.489-0.052,2.098-0.406c0.412-0.239,0.64-0.497,0.689-0.777
								c0.05-0.28-0.085-0.571-0.393-0.874c0.466,0.158,0.911,0.232,1.332,0.21c0.426-0.025,0.814-0.14,1.175-0.35
								c0.526-0.306,0.722-0.656,0.586-1.036C938.154,1024.178,937.674,1023.754,936.869,1023.289"/>
							<polyline fill="#FFFFFF" points="937.794,1029.238 936.3,1028.376 934.701,1029.305 936.195,1030.168 937.794,1029.238
															"/>
							<path fill="#FFFFFF" d="M940.72,1030.142l4.332-0.482l-2.576,1.496L940.72,1030.142 M947.877,1029.77l-1.781-1.028
								l-6.162,0.704l-1.364,0.792l2.751,1.589l-1.123,0.653l1.513,0.873l1.123-0.652l0.888,0.513l1.154-0.671l-0.888-0.513
								L947.877,1029.77"/>
							<path fill="#FFFFFF" d="M975.271,986.156l1.586-0.922l0.677,0.391c0.332,0.191,0.512,0.369,0.538,0.523
								s-0.107,0.313-0.386,0.476c-0.285,0.166-0.558,0.243-0.826,0.229c-0.273-0.011-0.58-0.114-0.911-0.306L975.271,986.156
								 M978.854,985.058l-2.445-1.412l-6.166,3.583l1.596,0.922l2.335-1.357l0.453,0.262c0.262,0.151,0.416,0.307,0.46,0.458
								c0.045,0.158-0.011,0.368-0.168,0.638l-0.782,1.327l1.705,0.984l0.882-1.52c0.177-0.31,0.271-0.563,0.276-0.767
								c-0.001-0.199-0.085-0.38-0.251-0.534c0.517,0.158,1.013,0.218,1.471,0.181s0.896-0.173,1.302-0.409
								c0.59-0.343,0.83-0.704,0.719-1.084C980.132,985.949,979.671,985.529,978.854,985.058"/>
							<path fill="#FFFFFF" d="M979.858,991.759c-0.3-0.173-0.447-0.354-0.448-0.538c0.005-0.188,0.15-0.368,0.455-0.545
								c0.305-0.178,0.616-0.262,0.94-0.266c0.325-0.004,0.631,0.085,0.931,0.258s0.448,0.347,0.442,0.534
								c0.001,0.185-0.157,0.365-0.462,0.542c-0.304,0.177-0.609,0.266-0.934,0.27C980.465,992.014,980.159,991.933,979.858,991.759
								 M982.732,990.089c-0.256-0.147-0.377-0.299-0.391-0.453c-0.001-0.154,0.119-0.306,0.366-0.45
								c0.241-0.14,0.496-0.206,0.762-0.206c0.274,0.004,0.529,0.077,0.785,0.225c0.249,0.145,0.377,0.292,0.391,0.446
								c0,0.154-0.119,0.306-0.36,0.446c-0.248,0.144-0.508,0.214-0.775,0.214C983.243,990.303,982.981,990.233,982.732,990.089
								 M985.257,988.622c-0.753-0.435-1.461-0.689-2.124-0.756c-0.668-0.07-1.26,0.052-1.779,0.354
								c-0.349,0.203-0.545,0.428-0.588,0.675c-0.043,0.247,0.066,0.509,0.329,0.793c-0.536-0.177-1.039-0.247-1.516-0.222
								c-0.477,0.026-0.916,0.155-1.309,0.384c-0.615,0.357-0.861,0.744-0.77,1.165c0.104,0.42,0.559,0.859,1.363,1.323
								c0.804,0.465,1.563,0.726,2.283,0.781c0.726,0.052,1.387-0.096,2.002-0.453c0.394-0.229,0.615-0.483,0.664-0.756
								c0.043-0.276-0.086-0.571-0.393-0.881c0.491,0.151,0.95,0.217,1.376,0.191s0.814-0.14,1.163-0.343
								c0.526-0.306,0.728-0.646,0.605-1.032C986.445,989.463,986.01,989.057,985.257,988.622"/>
							<path fill="#FFFFFF" d="M990.907,991.885c-0.3-0.174-0.626-0.34-0.977-0.49c-0.357-0.155-0.74-0.295-1.142-0.424
								l-1.161,0.674c0.37,0.081,0.714,0.185,1.04,0.307c0.319,0.117,0.612,0.25,0.868,0.397c0.351,0.203,0.556,0.395,0.614,0.583
								c0.064,0.184-0.023,0.346-0.258,0.482c-0.26,0.151-0.546,0.206-0.871,0.166c-0.318-0.044-0.682-0.181-1.084-0.413
								l-0.67-0.387l-1.027,0.597l0.638,0.369c0.454,0.262,0.722,0.498,0.806,0.715c0.09,0.222-0.004,0.409-0.283,0.571
								c-0.272,0.159-0.597,0.214-0.966,0.17c-0.376-0.048-0.778-0.191-1.199-0.435c-0.288-0.166-0.537-0.354-0.754-0.568
								c-0.224-0.218-0.404-0.453-0.558-0.711l-1.224,0.711c0.211,0.24,0.455,0.469,0.723,0.683
								c0.269,0.214,0.562,0.413,0.881,0.597c0.9,0.521,1.749,0.826,2.539,0.914c0.783,0.085,1.482-0.048,2.091-0.401
								c0.412-0.24,0.64-0.497,0.689-0.778c0.05-0.28-0.079-0.574-0.394-0.873c0.466,0.158,0.918,0.229,1.338,0.206
								c0.42-0.022,0.814-0.14,1.175-0.35c0.526-0.307,0.716-0.653,0.586-1.036C992.185,992.777,991.712,992.349,990.907,991.885"/>
							<polyline fill="#FFFFFF" points="991.825,997.838 990.332,996.976 988.732,997.904 990.227,998.767 991.825,997.838
								"/>
							<path fill="#FFFFFF" d="M995.054,1000.533c-0.274-0.159-0.396-0.332-0.352-0.521c0.037-0.185,0.239-0.383,0.601-0.593
								c0.361-0.21,0.698-0.325,1.022-0.351c0.318-0.022,0.618,0.048,0.892,0.206c0.288,0.166,0.409,0.34,0.372,0.523
								c-0.043,0.188-0.24,0.384-0.601,0.594c-0.362,0.21-0.705,0.328-1.022,0.35
								C995.641,1000.769,995.341,1000.699,995.054,1000.533 M1000.797,997.602c-0.9-0.52-1.901-0.759-3.002-0.719
								c-1.101,0.041-2.155,0.358-3.176,0.951c-0.99,0.576-1.541,1.146-1.639,1.722c-0.099,0.568,0.26,1.084,1.064,1.549
								c0.728,0.42,1.512,0.645,2.347,0.663c0.827,0.022,1.577-0.162,2.237-0.546c0.596-0.346,0.886-0.736,0.865-1.176
								c-0.015-0.442-0.348-0.848-0.98-1.213c-0.249-0.144-0.523-0.258-0.797-0.343c-0.287-0.085-0.586-0.14-0.898-0.166
								c0.559-0.272,1.105-0.412,1.633-0.409c0.528-0.003,1.032,0.133,1.511,0.41c0.223,0.129,0.415,0.276,0.594,0.445
								c0.167,0.17,0.327,0.365,0.462,0.59l1.142-0.663c-0.173-0.203-0.378-0.395-0.601-0.576
								C1001.333,997.941,1001.084,997.768,1000.797,997.602"/>
							<path fill="#FFFFFF" d="M1023.749,1014.146l1.586-0.922l0.67,0.388c0.339,0.195,0.518,0.372,0.538,0.523
								c0.026,0.154-0.101,0.316-0.38,0.479c-0.285,0.165-0.564,0.239-0.833,0.225c-0.267-0.008-0.573-0.111-0.912-0.307
								L1023.749,1014.146 M1027.326,1013.045l-2.445-1.412l-6.166,3.583l1.603,0.925l2.334-1.356l0.454,0.262
								c0.262,0.151,0.409,0.303,0.46,0.457c0.039,0.155-0.011,0.369-0.175,0.635l-0.775,1.33l1.705,0.984l0.883-1.519
								c0.176-0.31,0.271-0.564,0.269-0.771c-0.001-0.199-0.078-0.376-0.25-0.534c0.522,0.162,1.019,0.221,1.477,0.184
								c0.458-0.036,0.89-0.177,1.296-0.412c0.59-0.343,0.83-0.704,0.726-1.08C1028.61,1013.94,1028.143,1013.517,1027.326,1013.045
								"/>
							<path fill="#FFFFFF" d="M1028.337,1019.75c-0.3-0.173-0.447-0.354-0.448-0.538c0.004-0.188,0.15-0.369,0.455-0.546
								s0.615-0.262,0.94-0.266c0.325-0.004,0.63,0.085,0.93,0.259c0.294,0.169,0.448,0.346,0.442,0.534
								c-0.005,0.181-0.157,0.364-0.461,0.542c-0.305,0.177-0.616,0.262-0.934,0.269
								C1028.943,1020.004,1028.631,1019.92,1028.337,1019.75 M1031.21,1018.08c-0.255-0.147-0.383-0.303-0.391-0.454
								c-0.007-0.157,0.113-0.31,0.36-0.453c0.242-0.14,0.496-0.206,0.769-0.202c0.268,0,0.529,0.077,0.784,0.225
								c0.249,0.144,0.377,0.291,0.385,0.442c0.006,0.158-0.119,0.306-0.361,0.446c-0.247,0.144-0.502,0.217-0.775,0.213
								C1031.721,1018.294,1031.459,1018.224,1031.21,1018.08 M1033.735,1016.613c-0.76-0.439-1.468-0.693-2.13-0.76
								s-1.26,0.052-1.78,0.354c-0.349,0.203-0.545,0.428-0.588,0.675s0.073,0.513,0.335,0.796c-0.536-0.177-1.045-0.25-1.522-0.225
								c-0.471,0.029-0.909,0.158-1.303,0.388c-0.615,0.356-0.867,0.74-0.77,1.164c0.098,0.417,0.552,0.855,1.363,1.324
								c0.805,0.464,1.564,0.726,2.283,0.781c0.726,0.052,1.387-0.096,2.002-0.453c0.394-0.229,0.614-0.483,0.658-0.76
								c0.049-0.273-0.08-0.567-0.387-0.878c0.491,0.151,0.943,0.214,1.376,0.192c0.426-0.026,0.814-0.141,1.163-0.343
								c0.526-0.306,0.721-0.649,0.604-1.032C1034.923,1017.453,1034.482,1017.044,1033.735,1016.613"/>
							<path fill="#FFFFFF" d="M1039.385,1019.875c-0.3-0.173-0.625-0.339-0.982-0.494c-0.351-0.15-0.734-0.291-1.142-0.424
								l-1.161,0.675c0.375,0.085,0.72,0.188,1.04,0.306c0.319,0.118,0.612,0.251,0.874,0.402c0.345,0.199,0.556,0.395,0.614,0.583
								c0.065,0.184-0.03,0.342-0.264,0.479c-0.26,0.151-0.546,0.206-0.871,0.166c-0.318-0.044-0.675-0.177-1.078-0.409
								l-0.676-0.391l-1.028,0.597l0.639,0.369c0.453,0.262,0.729,0.501,0.812,0.719s-0.01,0.405-0.29,0.567
								c-0.272,0.158-0.59,0.218-0.966,0.17c-0.37-0.045-0.771-0.188-1.193-0.432c-0.288-0.166-0.543-0.357-0.76-0.571
								c-0.218-0.214-0.404-0.453-0.552-0.708l-1.224,0.712c0.211,0.239,0.448,0.464,0.716,0.679
								c0.268,0.213,0.562,0.412,0.881,0.597c0.906,0.523,1.749,0.825,2.538,0.914c0.789,0.089,1.489-0.044,2.098-0.398
								c0.413-0.239,0.64-0.497,0.689-0.777c0.05-0.28-0.079-0.575-0.399-0.877c0.473,0.161,0.918,0.229,1.338,0.206
								c0.42-0.022,0.814-0.141,1.175-0.351c0.526-0.306,0.722-0.648,0.586-1.036
								C1040.657,1020.764,1040.19,1020.34,1039.385,1019.875"/>
							<polyline fill="#FFFFFF" points="1040.297,1025.825 1038.804,1024.963 1037.205,1025.892 1038.698,1026.754
								1040.297,1025.825 							"/>
							<path fill="#FFFFFF" d="M1043.417,1028.457c-0.3-0.173-0.447-0.354-0.447-0.538c0.005-0.188,0.15-0.368,0.455-0.546
								c0.305-0.177,0.616-0.262,0.94-0.265c0.324-0.005,0.63,0.085,0.93,0.258c0.293,0.169,0.448,0.347,0.442,0.534
								c-0.005,0.181-0.157,0.365-0.462,0.542c-0.304,0.177-0.616,0.262-0.933,0.269
								C1044.023,1028.712,1043.711,1028.627,1043.417,1028.457 M1046.291,1026.787c-0.256-0.147-0.383-0.303-0.391-0.453
								c-0.008-0.158,0.112-0.31,0.36-0.453c0.242-0.141,0.496-0.207,0.769-0.203c0.268,0,0.528,0.077,0.784,0.225
								c0.249,0.144,0.377,0.291,0.385,0.442c0.007,0.159-0.119,0.306-0.361,0.446c-0.247,0.144-0.501,0.218-0.774,0.214
								C1046.802,1027.001,1046.54,1026.931,1046.291,1026.787 M1048.815,1025.32c-0.76-0.439-1.468-0.693-2.13-0.76
								s-1.26,0.052-1.779,0.354c-0.349,0.203-0.545,0.428-0.588,0.675c-0.044,0.247,0.072,0.513,0.335,0.797
								c-0.536-0.177-1.045-0.251-1.522-0.226c-0.471,0.03-0.909,0.159-1.303,0.388c-0.614,0.357-0.867,0.741-0.77,1.165
								c0.098,0.416,0.552,0.855,1.362,1.323c0.805,0.465,1.564,0.726,2.283,0.781c0.726,0.052,1.387-0.096,2.002-0.453
								c0.394-0.229,0.615-0.483,0.658-0.76c0.049-0.272-0.08-0.567-0.387-0.877c0.49,0.151,0.943,0.214,1.375,0.191
								c0.427-0.025,0.814-0.14,1.163-0.343c0.526-0.306,0.722-0.648,0.604-1.032
								C1050.004,1026.161,1049.562,1025.752,1048.815,1025.32"/>
							<path fill="#FFFFFF" d="M1170.497,926.259l0.673-0.391c0.33-0.191,0.628-0.298,0.895-0.313
								c0.267-0.015,0.541,0.063,0.822,0.226c0.288,0.166,0.423,0.324,0.404,0.482c-0.025,0.155-0.202,0.332-0.532,0.523
								l-0.672,0.391L1170.497,926.259 M1179.518,926.86l-2.625-0.517c-0.529-0.106-0.975-0.158-1.318-0.158
								c-0.351-0.004-0.661,0.044-0.922,0.144c0.266-0.302,0.373-0.586,0.3-0.855c-0.064-0.265-0.301-0.52-0.71-0.756
								c-0.594-0.343-1.218-0.482-1.874-0.42c-0.649,0.06-1.379,0.328-2.191,0.8l-2.429,1.412l6.206,3.583l1.586-0.922l-2.35-1.356
								l0.45-0.262c0.26-0.15,0.527-0.239,0.794-0.262c0.274-0.025,0.637,0.008,1.096,0.096l2.293,0.458L1179.518,926.86"/>
							<path fill="#FFFFFF" d="M1178.768,924.641l-0.854-2.514l2.598,1.5L1178.768,924.641 M1184.059,922.912l-1.162-0.671
								l-0.882,0.513l-3.914-2.26l-1.77,1.028l1.236,3.571l1.373,0.793l2.734-1.589l1.13,0.652l1.503-0.873l-1.13-0.652
								L1184.059,922.912"/>
							<path fill="#FFFFFF" d="M1189.021,919.295c-0.415-0.239-0.861-0.372-1.345-0.401c-0.484-0.029-0.986,0.048-1.507,0.225
								c0.278-0.272,0.397-0.526,0.352-0.773c-0.04-0.244-0.238-0.469-0.602-0.679c-0.537-0.31-1.136-0.42-1.791-0.343
								c-0.668,0.077-1.404,0.351-2.204,0.815c-0.298,0.173-0.577,0.364-0.837,0.567c-0.267,0.206-0.513,0.424-0.734,0.655
								l1.175,0.679c0.145-0.218,0.315-0.42,0.518-0.604c0.203-0.185,0.438-0.35,0.691-0.498c0.349-0.202,0.679-0.32,0.997-0.357
								c0.325-0.033,0.599,0.015,0.841,0.155c0.255,0.147,0.352,0.313,0.283,0.501c-0.069,0.188-0.304,0.398-0.703,0.631
								l-0.666,0.387l1.028,0.594l0.634-0.369c0.451-0.262,0.857-0.416,1.232-0.464c0.382-0.052,0.713,0.007,0.994,0.169
								c0.274,0.159,0.371,0.347,0.295,0.561c-0.082,0.218-0.335,0.446-0.753,0.689c-0.285,0.166-0.609,0.31-0.978,0.436
								c-0.375,0.129-0.775,0.235-1.227,0.32l1.239,0.715c0.413-0.121,0.806-0.262,1.175-0.416c0.369-0.155,0.71-0.324,1.028-0.509
								c0.895-0.521,1.42-1.011,1.57-1.468C1189.878,920.055,1189.634,919.649,1189.021,919.295"/>
							<polyline fill="#FFFFFF" points="1193.81,918.555 1192.201,917.626 1190.716,918.488 1192.325,919.417 1193.81,918.555
															"/>
							<path fill="#FFFFFF" d="M1199.823,915.06l-1.175-0.678l-2.716,1.577l0.151-1.441c0.073-0.604,0.038-1.043-0.077-1.309
								c-0.116-0.272-0.354-0.505-0.691-0.7c-0.581-0.335-1.243-0.482-1.976-0.435c-0.738,0.052-1.474,0.287-2.21,0.715
								c-0.337,0.195-0.646,0.413-0.938,0.656c-0.285,0.239-0.544,0.494-0.784,0.773l1.36,0.785
								c0.125-0.316,0.283-0.593,0.472-0.821c0.189-0.236,0.405-0.421,0.659-0.568c0.316-0.184,0.666-0.283,1.035-0.298
								c0.369-0.008,0.701,0.073,0.988,0.239c0.191,0.11,0.325,0.239,0.409,0.398c0.07,0.158,0.104,0.347,0.086,0.571l-0.247,2.459
								l1.174,0.678L1199.823,915.06"/>
							<path fill="#FFFFFF" d="M1203.825,910.389c-0.677-0.391-1.416-0.574-2.206-0.553c-0.795,0.026-1.576,0.259-2.324,0.693
								c-0.134,0.077-0.248,0.158-0.349,0.239c-0.114,0.081-0.21,0.166-0.292,0.259l-0.964-0.557l2.683-1.56l-1.174-0.679
								l-3.952,2.297l3.492,2.017c0.171-0.247,0.36-0.461,0.562-0.646c0.19-0.184,0.412-0.343,0.641-0.476
								c0.387-0.225,0.774-0.347,1.188-0.364c0.406-0.022,0.782,0.062,1.108,0.25c0.325,0.188,0.467,0.402,0.437,0.642
								c-0.037,0.235-0.239,0.465-0.627,0.689c-0.266,0.155-0.596,0.295-0.996,0.417c-0.4,0.114-0.857,0.217-1.393,0.298
								l1.258,0.727c0.477-0.114,0.922-0.255,1.334-0.413c0.413-0.158,0.787-0.339,1.143-0.546c0.806-0.468,1.248-0.946,1.328-1.43
								C1204.797,911.208,1204.495,910.776,1203.825,910.389"/>
						</g>
					</g>
				</g>
			</g>
		</g>
	</g>
</g>
<g>
	<polygon fill="#EE7203" stroke="#FFFFFF" stroke-width="0.5" stroke-miterlimit="10" points="1497.788,-26.5 1503.135,-26.5
		1500.676,-8.058 	"/>
	<circle fill="#EE7203" cx="1500.462" cy="-40.61" r="15.239"/>
	<g>
		<g>
			<path fill="none" stroke="#FFFFFF" stroke-width="0.5" d="M1507.488-31.214c0,0.312-0.255,0.567-0.566,0.567h-12.92
				c-0.312,0-0.566-0.255-0.566-0.567v-18.662c0-0.312,0.255-0.567,0.566-0.567h12.92c0.312,0,0.566,0.255,0.566,0.567V-31.214z"/>
		</g>
	</g>
	<path fill="#FFFFFF" d="M1500.461-43.159c1.164,0,2.102-0.941,2.102-2.102s-0.938-2.102-2.102-2.102
		c-1.159,0-2.098,0.941-2.1,2.102C1498.363-44.101,1499.302-43.159,1500.461-43.159 M1500.461-42.442
		c-1.738,0-3.146,1.408-3.146,3.147v3.291h1.456v5.257h1.291v-5.257h0.799v5.257h1.293v-5.257h1.454v-3.291
		C1503.608-41.034,1502.201-42.441,1500.461-42.442"/>
</g>
<g>
	<polygon fill="#EC760A" stroke="#FFFFFF" stroke-width="0.5" points="1010.015,949.234 1015.359,949.234 1012.899,967.676 	"/>
	<circle fill="#EC760A" cx="1012.687" cy="935.088" r="15.24"/>
	<g>
		<g>
			<path fill="#FFFFFF" d="M1020.606,933.959c-0.003-0.428-0.04-0.82-0.13-1.188c-0.072-0.287-0.179-0.561-0.34-0.811
				c-0.238-0.375-0.605-0.672-1.028-0.838c-0.42-0.168-0.883-0.232-1.406-0.232c-0.462,0-0.883,0.051-1.27,0.178
				c-0.289,0.096-0.56,0.238-0.791,0.434c-0.348,0.291-0.59,0.686-0.725,1.11c-0.135,0.413-0.186,0.86-0.187,1.349l-0.892,7.526
				h1.877v3.286h1.518v-3.286h0.939v3.286h1.52v-3.286h1.885L1020.606,933.959z"/>
			<path fill="#FFFFFF" d="M1007.492,930.191c1.366,0,2.468-1.105,2.468-2.47s-1.102-2.468-2.468-2.468
				c-1.362,0-2.467,1.104-2.469,2.468C1005.025,929.086,1006.13,930.191,1007.492,930.191 M1007.492,931.034
				c-2.044,0-3.696,1.655-3.696,3.696v3.868h1.709v6.175h1.518v-6.175h0.939v6.175h1.519v-6.175h1.708v-3.868
				C1011.188,932.689,1009.535,931.034,1007.492,931.034"/>
		</g>
		<path fill="#FFFFFF" d="M1020.018,927.719c0,1.37-1.11,2.48-2.48,2.48c-1.374,0-2.482-1.11-2.482-2.48
			c0-1.371,1.108-2.48,2.482-2.48C1018.907,925.238,1020.018,926.348,1020.018,927.719z"/>
	</g>
</g>
<g>
	<polygon fill="#EC760A" stroke="#FFFFFF" stroke-width="0.5" points="1277.022,800.7 1282.367,800.7 1279.907,819.142 	"/>
	<circle fill="#EC760A" cx="1279.695" cy="786.554" r="15.24"/>
	<g>
		<g>
			<path fill="#FFFFFF" d="M1287.614,785.425c-0.003-0.428-0.04-0.82-0.13-1.188c-0.072-0.287-0.179-0.561-0.34-0.811
				c-0.238-0.375-0.605-0.672-1.028-0.838c-0.42-0.168-0.883-0.232-1.406-0.232c-0.462,0-0.883,0.051-1.27,0.178
				c-0.289,0.096-0.56,0.238-0.791,0.434c-0.348,0.291-0.59,0.686-0.725,1.11c-0.135,0.413-0.186,0.86-0.187,1.349l-0.892,7.526
				h1.877v3.286h1.518v-3.286h0.939v3.286h1.52v-3.286h1.885L1287.614,785.425z"/>
			<path fill="#FFFFFF" d="M1274.5,781.657c1.366,0,2.468-1.105,2.468-2.47s-1.102-2.468-2.468-2.468
				c-1.362,0-2.467,1.104-2.469,2.468C1272.033,780.552,1273.138,781.657,1274.5,781.657 M1274.5,782.5
				c-2.044,0-3.696,1.655-3.696,3.696v3.868h1.709v6.175h1.518v-6.175h0.939v6.175h1.519v-6.175h1.708v-3.868
				C1278.196,784.155,1276.543,782.5,1274.5,782.5"/>
		</g>
		<path fill="#FFFFFF" d="M1287.025,779.185c0,1.37-1.11,2.48-2.48,2.48c-1.374,0-2.482-1.11-2.482-2.48
			c0-1.371,1.108-2.48,2.482-2.48C1285.915,776.704,1287.025,777.813,1287.025,779.185z"/>
	</g>
</g>
<g>
	<polygon fill="#EE7203" stroke="#FFFFFF" stroke-width="0.5" stroke-miterlimit="10" points="915.172,1083.244 917.792,1078.583
		932.664,1089.762 	"/>
	<circle fill="#EE7203" cx="903.688" cy="1074.521" r="15.239"/>
	<g>
		<g>
			<path fill="none" stroke="#FFFFFF" stroke-width="0.5" d="M910.714,1083.918c0,0.312-0.255,0.566-0.566,0.566h-12.92
				c-0.312,0-0.566-0.255-0.566-0.566v-18.662c0-0.312,0.255-0.567,0.566-0.567h12.92c0.312,0,0.566,0.255,0.566,0.567V1083.918z"/>
		</g>
	</g>
	<path fill="#FFFFFF" d="M903.687,1071.973c1.164,0,2.102-0.941,2.102-2.103s-0.938-2.102-2.102-2.102
		c-1.159,0-2.098,0.94-2.1,2.102C901.589,1071.031,902.527,1071.973,903.687,1071.973 M903.687,1072.689
		c-1.738,0-3.146,1.408-3.146,3.147v3.291h1.456v5.257h1.291v-5.257h0.799v5.257h1.293v-5.257h1.454v-3.291
		C906.834,1074.098,905.427,1072.689,903.687,1072.689"/>
</g>
<g>
	<polygon fill="#EE7203" stroke="#FFFFFF" stroke-width="0.5" stroke-miterlimit="10" points="1326.969,855.978 1325.521,861.125
		1308.434,853.766 	"/>
	<circle fill="#EE7203" cx="1339.974" cy="862.521" r="15.239"/>
	<g>
		<g>
			<path fill="none" stroke="#FFFFFF" stroke-width="0.5" d="M1347,871.918c0,0.312-0.255,0.566-0.566,0.566h-12.92
				c-0.312,0-0.566-0.255-0.566-0.566v-18.662c0-0.312,0.255-0.567,0.566-0.567h12.92c0.312,0,0.566,0.255,0.566,0.567V871.918z"/>
		</g>
	</g>
	<path fill="#FFFFFF" d="M1339.973,859.973c1.164,0,2.102-0.941,2.102-2.103s-0.938-2.102-2.102-2.102
		c-1.159,0-2.098,0.94-2.1,2.102C1337.875,859.031,1338.813,859.973,1339.973,859.973 M1339.973,860.689
		c-1.738,0-3.146,1.408-3.146,3.147v3.291h1.456v5.257h1.291v-5.257h0.799v5.257h1.293v-5.257h1.454v-3.291
		C1343.12,862.098,1341.713,860.689,1339.973,860.689"/>
</g>
</svg>
