<?xml version="1.0" encoding="utf-8"?>
<!-- Generator: Adobe Illustrator 16.0.0, SVG Export Plug-In . SVG Version: 6.00 Build 0)  -->
<!DOCTYPE svg PUBLIC "-//W3C//DTD SVG 1.1//EN" "http://www.w3.org/Graphics/SVG/1.1/DTD/svg11.dtd">
<svg version="1.1" id="Ebene_1" xmlns="http://www.w3.org/2000/svg" xmlns:xlink="http://www.w3.org/1999/xlink" x="0px" y="0px"
	 width="595.275px" height="419.527px" viewBox="0 0 595.275 419.527" enable-background="new 0 0 595.275 419.527"
	 xml:space="preserve">
<g>
	<g>
		<g enable-background="new    ">
			<defs>
				<polygon id="SVGID_1_" enable-background="new    " points="174.128,177.345 303.694,102.047 401.801,158.692 272.234,233.99 
									"/>
			</defs>
			<clipPath id="SVGID_2_">
				<use xlink:href="#SVGID_1_"  overflow="visible"/>
			</clipPath>
			<g clip-path="url(#SVGID_2_)">
				<g>
					<g>
						<g>
							<path fill="#BDD4E4" d="M287.104,142.83c-0.255-0.147-0.561-0.185-0.904-0.111c-0.344,0.074-0.813,0.28-1.39,0.616
								c-0.583,0.339-0.939,0.612-1.071,0.815c-0.126,0.199-0.062,0.376,0.194,0.523s0.561,0.184,0.904,0.11
								c0.356-0.074,0.819-0.284,1.403-0.623c0.577-0.335,0.938-0.604,1.064-0.804C287.423,143.154,287.365,142.98,287.104,142.83
								 M279.531,142.97l1.199-0.697l1.124,0.649l-1.199,0.697L279.531,142.97 M274.81,138.561l3.172-1.843l1.136,0.656
								l-4.624,2.688l-1.34-0.774l1.479-2.82l-3.172,1.843l-1.143-0.66l4.624-2.687l1.341,0.774L274.81,138.561 M278.698,138.527
								l1.015-0.59c0.357,0.104,0.695,0.218,1.001,0.343c0.306,0.125,0.594,0.262,0.849,0.409c0.555,0.321,0.869,0.642,0.934,0.958
								c0.059,0.321-0.118,0.608-0.555,0.863c-0.254,0.147-0.559,0.243-0.902,0.295c-0.356,0.052-0.916,0.059-1.705,0.029
								l-1.859-0.066l2.043,1.18l-0.875,0.509l-3.377-1.95l0.875-0.509l3.188,0.114c0.293,0.008,0.535-0.007,0.732-0.04
								c0.21-0.033,0.381-0.089,0.521-0.17c0.216-0.125,0.316-0.273,0.303-0.435c-0.02-0.158-0.142-0.31-0.385-0.45
								c-0.191-0.11-0.44-0.203-0.74-0.288C279.462,138.653,279.105,138.579,278.698,138.527 M283.12,145.145
								c-0.613-0.354-0.876-0.749-0.796-1.18c0.087-0.435,0.51-0.874,1.278-1.32c0.768-0.446,1.524-0.693,2.274-0.745
								c0.744-0.048,1.426,0.103,2.04,0.457c0.613,0.354,0.875,0.749,0.795,1.18c-0.086,0.435-0.51,0.874-1.278,1.32
								c-0.768,0.446-1.523,0.693-2.274,0.745C284.415,145.649,283.732,145.498,283.12,145.145 M289.048,144.503l1.015-0.59
								c0.357,0.104,0.695,0.218,1.007,0.347c0.306,0.125,0.587,0.258,0.842,0.405c0.556,0.321,0.869,0.642,0.941,0.962
								c0.059,0.321-0.124,0.604-0.562,0.859c-0.253,0.147-0.552,0.247-0.902,0.295c-0.349,0.056-0.909,0.062-1.699,0.033
								l-1.865-0.07l2.049,1.184L289,148.437l-3.384-1.954l0.875-0.509l3.189,0.115c0.292,0.007,0.541-0.004,0.738-0.037
								c0.203-0.037,0.375-0.092,0.515-0.173c0.216-0.125,0.323-0.269,0.309-0.431c-0.02-0.159-0.148-0.313-0.391-0.453
								c-0.185-0.107-0.434-0.199-0.733-0.284C289.812,144.628,289.461,144.558,289.048,144.503 M309.366,147.725l-21.133-12.202
								l-21.14-12.206l-16.518,9.599l42.272,24.408L309.366,147.725"/>
							<path fill="#CFD0D2" d="M222.697,178.337l-3.25,0.365l1.315,0.759L222.697,178.337 M218.698,175.734
								c-0.255-0.147-0.561-0.184-0.905-0.11c-0.343,0.073-0.813,0.28-1.39,0.615c-0.583,0.339-0.939,0.612-1.071,0.814
								c-0.126,0.199-0.062,0.376,0.194,0.523c0.262,0.151,0.561,0.185,0.904,0.111c0.356-0.074,0.819-0.284,1.403-0.623
								c0.577-0.335,0.938-0.604,1.064-0.803C219.025,176.062,218.96,175.885,218.698,175.734 M211.132,175.878l1.199-0.697
								l1.117,0.645l-1.199,0.697L211.132,175.878 M206.404,171.465l3.171-1.843l1.136,0.656l-4.624,2.688l-1.34-0.774l1.479-2.82
								l-3.172,1.843l-1.137-0.656l4.624-2.688l1.341,0.774L206.404,171.465 M217.837,178.771l1.021-0.593l4.624-0.527l1.334,0.771
								l-2.917,1.695l0.664,0.383l-0.862,0.501l-0.664-0.383l-0.844,0.49l-1.136-0.656l0.844-0.491L217.837,178.771
								 M210.292,171.432l1.016-0.59c0.357,0.104,0.695,0.218,1.001,0.343c0.319,0.125,0.593,0.262,0.849,0.41
								c0.556,0.32,0.869,0.641,0.935,0.958c0.066,0.324-0.118,0.608-0.555,0.863c-0.254,0.147-0.558,0.243-0.902,0.295
								c-0.356,0.051-0.922,0.062-1.699,0.033l-1.865-0.07l2.049,1.183l-0.875,0.509l-3.384-1.954l0.875-0.509l3.189,0.114
								c0.292,0.008,0.535-0.007,0.738-0.037c0.204-0.037,0.375-0.092,0.515-0.173c0.216-0.125,0.316-0.272,0.297-0.432
								c-0.014-0.162-0.135-0.313-0.378-0.453c-0.191-0.111-0.441-0.203-0.733-0.284C211.058,171.558,210.7,171.483,210.292,171.432
								 M214.715,178.049c-0.613-0.354-0.876-0.749-0.796-1.18c0.086-0.435,0.51-0.874,1.278-1.32
								c0.767-0.446,1.523-0.693,2.273-0.745c0.744-0.048,1.426,0.103,2.039,0.458c0.613,0.354,0.876,0.748,0.796,1.179
								c-0.086,0.435-0.51,0.874-1.277,1.32c-0.769,0.446-1.524,0.693-2.275,0.745C216.009,178.554,215.327,178.403,214.715,178.049
								 M252.701,170.205l-33.251-19.199l-45.322,26.339l33.251,19.199L252.701,170.205"/>
							<path fill="#CFD0D2" d="M262.2,157.302c-0.255-0.147-0.562-0.185-0.904-0.111c-0.344,0.074-0.813,0.28-1.39,0.616
								c-0.583,0.339-0.939,0.612-1.071,0.815c-0.126,0.199-0.062,0.376,0.194,0.523s0.561,0.185,0.904,0.11
								c0.356-0.074,0.819-0.284,1.403-0.623c0.577-0.335,0.938-0.604,1.064-0.803C262.52,157.626,262.462,157.454,262.2,157.302
								 M254.628,157.442l1.199-0.697l1.124,0.649l-1.199,0.696L254.628,157.442 M249.906,153.033l3.172-1.843l1.136,0.656
								l-4.624,2.688l-1.34-0.774l1.479-2.82l-3.172,1.843l-1.143-0.66l4.624-2.688l1.341,0.774L249.906,153.033 M253.794,153
								l1.015-0.59c0.357,0.104,0.695,0.218,1.001,0.343c0.306,0.125,0.593,0.262,0.849,0.41c0.556,0.321,0.869,0.641,0.935,0.958
								c0.059,0.32-0.118,0.608-0.555,0.862c-0.254,0.147-0.559,0.244-0.902,0.295c-0.356,0.052-0.916,0.059-1.705,0.029
								l-1.859-0.066l2.043,1.18l-0.875,0.509l-3.377-1.95l0.875-0.509l3.188,0.115c0.293,0.007,0.535-0.007,0.732-0.041
								c0.209-0.033,0.381-0.088,0.521-0.17c0.216-0.125,0.316-0.272,0.303-0.435c-0.02-0.159-0.142-0.31-0.385-0.45
								c-0.191-0.11-0.44-0.203-0.74-0.287C254.559,153.125,254.202,153.052,253.794,153 M258.217,159.617
								c-0.613-0.354-0.876-0.748-0.796-1.18c0.087-0.435,0.51-0.874,1.278-1.32c0.768-0.446,1.524-0.693,2.274-0.745
								c0.744-0.048,1.426,0.104,2.039,0.458c0.613,0.354,0.876,0.748,0.796,1.18c-0.086,0.435-0.51,0.874-1.278,1.32
								c-0.768,0.446-1.524,0.692-2.274,0.744C259.511,160.122,258.829,159.971,258.217,159.617 M264.468,158.913l0.875-0.509
								c0.299,0.1,0.586,0.207,0.854,0.325c0.268,0.11,0.51,0.236,0.733,0.365c0.607,0.351,0.965,0.667,1.068,0.955
								c0.098,0.292-0.048,0.546-0.447,0.778c-0.267,0.155-0.559,0.244-0.877,0.266c-0.318,0.015-0.649-0.037-1-0.159
								c0.23,0.229,0.327,0.446,0.296,0.656c-0.043,0.21-0.208,0.402-0.519,0.583c-0.457,0.266-0.978,0.369-1.576,0.302
								c-0.586-0.066-1.224-0.295-1.9-0.686c-0.236-0.136-0.46-0.288-0.658-0.446c-0.205-0.162-0.384-0.332-0.544-0.512l0.92-0.534
								c0.109,0.195,0.25,0.372,0.417,0.534c0.16,0.159,0.351,0.299,0.568,0.424c0.319,0.185,0.613,0.295,0.899,0.328
								c0.274,0.033,0.516-0.011,0.718-0.129c0.21-0.122,0.285-0.262,0.221-0.424c-0.071-0.166-0.27-0.347-0.608-0.542l-0.479-0.276
								l0.767-0.446l0.504,0.292c0.3,0.173,0.568,0.276,0.817,0.31c0.241,0.029,0.458-0.015,0.648-0.125
								c0.177-0.103,0.247-0.225,0.202-0.361c-0.052-0.14-0.206-0.288-0.467-0.438c-0.191-0.11-0.415-0.21-0.644-0.299
								C265.017,159.053,264.755,158.976,264.468,158.913 M290.026,158.965l-42.273-24.408l-25.487,14.812l33.251,19.199
								l0.006-0.004l9.022,5.209L290.026,158.965"/>
							<path fill="#CFD0D2" d="M330.907,136.279c-0.255-0.147-0.561-0.185-0.904-0.111c-0.35,0.07-0.807,0.277-1.384,0.612
								c-0.59,0.343-0.944,0.608-1.07,0.814c-0.133,0.203-0.068,0.38,0.188,0.527c0.255,0.147,0.561,0.184,0.91,0.106
								c0.35-0.077,0.812-0.28,1.402-0.623c0.578-0.335,0.927-0.604,1.053-0.803C331.228,136.603,331.163,136.426,330.907,136.279
								 M323.335,136.419l1.199-0.697l1.124,0.649l-1.199,0.697L323.335,136.419 M318.607,132.006l3.172-1.843l1.137,0.656
								l-4.625,2.687l-1.341-0.774l1.48-2.82l-3.172,1.843l-1.137-0.656l4.624-2.687l1.342,0.774L318.607,132.006 M333.221,137.967
								l0.812-0.472l1.307,0.498l1.144,0.66l-3.8,2.208l1.06,0.612l-0.824,0.479l-3.257-1.88l0.825-0.479l1.06,0.612l2.988-1.736
								L333.221,137.967 M322.496,131.973l1.021-0.593c0.363,0.107,0.688,0.221,1.008,0.347c0.306,0.125,0.594,0.262,0.843,0.405
								c0.562,0.325,0.862,0.646,0.935,0.966c0.059,0.321-0.124,0.604-0.562,0.859c-0.247,0.144-0.552,0.247-0.901,0.295
								c-0.344,0.051-0.91,0.062-1.699,0.033l-1.858-0.073l2.049,1.183l-0.881,0.512l-3.384-1.954l0.881-0.513l3.183,0.118
								c0.293,0.007,0.541-0.004,0.738-0.037c0.203-0.037,0.375-0.092,0.515-0.174c0.222-0.129,0.323-0.269,0.31-0.431
								c-0.014-0.162-0.148-0.313-0.391-0.453c-0.186-0.107-0.428-0.203-0.733-0.284
								C323.267,132.095,322.91,132.028,322.496,131.973 M326.924,138.594c-0.612-0.354-0.876-0.748-0.789-1.184
								c0.08-0.431,0.504-0.87,1.271-1.316s1.53-0.697,2.274-0.745c0.751-0.052,1.433,0.1,2.045,0.454
								c0.613,0.354,0.877,0.748,0.79,1.183c-0.081,0.431-0.511,0.874-1.278,1.32c-0.768,0.446-1.523,0.693-2.268,0.741
								C328.219,139.099,327.537,138.948,326.924,138.594 M385.89,149.505l-42.751-24.684l-32.792-18.934l-13.01,7.561l-4.986-2.879
								l-1.666-0.962l-20.768,12.069l82.195,47.459L385.89,149.505"/>
							<path fill="#EC7405" d="M237.739,185.941l0.431-0.25L237.739,185.941 M240.408,187.482l0.431-0.25L240.408,187.482
								 M249.007,186.649l-9.507-5.489l-29.286,17.02l9.513,5.485L249.007,186.649"/>
							<path fill="#CFD0D2" d="M269.125,216.24c-0.211-0.122-0.441-0.173-0.676-0.154c-0.249,0.019-0.502,0.106-0.769,0.262
								c-0.272,0.158-0.424,0.306-0.449,0.446c-0.037,0.14,0.058,0.269,0.27,0.391c0.211,0.121,0.434,0.177,0.676,0.154
								c0.241-0.015,0.496-0.104,0.769-0.262c0.266-0.154,0.418-0.303,0.45-0.446C269.424,216.495,269.335,216.362,269.125,216.24
								 M266.515,212.875c-0.256-0.147-0.554-0.188-0.897-0.115c-0.35,0.078-0.812,0.28-1.39,0.616
								c-0.583,0.339-0.938,0.612-1.071,0.814c-0.132,0.203-0.068,0.38,0.187,0.527c0.256,0.147,0.562,0.185,0.912,0.107
								c0.355-0.074,0.819-0.284,1.402-0.624c0.578-0.335,0.932-0.601,1.059-0.807C266.842,213.195,266.776,213.026,266.515,212.875
								 M258.949,213.012l1.199-0.697l1.124,0.648l-1.199,0.697L258.949,213.012 M254.221,208.599l3.171-1.843l1.143,0.66
								l-4.624,2.688l-1.341-0.774l1.48-2.82l-3.171,1.843l-1.143-0.66l4.624-2.687l1.341,0.774L254.221,208.599 M266.739,217.611
								c-0.606-0.35-0.87-0.737-0.795-1.164c0.074-0.429,0.479-0.855,1.227-1.29c0.761-0.442,1.555-0.683,2.382-0.712
								c0.828-0.029,1.573,0.151,2.25,0.542c0.211,0.122,0.402,0.255,0.568,0.387c0.173,0.137,0.321,0.28,0.455,0.432l-0.856,0.498
								c-0.104-0.17-0.224-0.314-0.353-0.439c-0.134-0.129-0.274-0.24-0.44-0.335c-0.358-0.207-0.741-0.31-1.136-0.311
								c-0.394,0.001-0.807,0.1-1.226,0.307c0.242,0.021,0.465,0.062,0.675,0.125s0.408,0.147,0.6,0.258
								c0.479,0.276,0.722,0.579,0.731,0.907c0.021,0.328-0.194,0.623-0.645,0.885c-0.495,0.287-1.061,0.424-1.685,0.409
								C267.868,218.095,267.288,217.929,266.739,217.611 M258.109,208.565l1.015-0.59c0.364,0.107,0.702,0.222,1.008,0.347
								s0.593,0.261,0.849,0.409c0.556,0.321,0.869,0.642,0.929,0.962c0.065,0.317-0.125,0.604-0.556,0.855
								c-0.253,0.147-0.552,0.247-0.895,0.299c-0.356,0.051-0.922,0.062-1.706,0.03l-1.859-0.067l2.044,1.18l-0.875,0.509
								l-3.378-1.951l0.875-0.509l3.189,0.115c0.28,0.007,0.528-0.004,0.731-0.041c0.204-0.03,0.375-0.092,0.515-0.173
								c0.215-0.125,0.316-0.266,0.303-0.428c-0.014-0.162-0.142-0.31-0.392-0.454c-0.185-0.106-0.427-0.203-0.726-0.288
								C258.874,208.69,258.523,208.621,258.109,208.565 M262.538,215.186c-0.613-0.354-0.882-0.744-0.796-1.179
								c0.087-0.436,0.511-0.874,1.271-1.316c0.774-0.45,1.531-0.696,2.281-0.748c0.744-0.048,1.426,0.103,2.039,0.457
								c0.613,0.354,0.876,0.748,0.796,1.18c-0.087,0.435-0.51,0.873-1.285,1.323c-0.76,0.442-1.517,0.689-2.268,0.741
								S263.151,215.54,262.538,215.186 M301.521,216.971l-49.673-28.681l-29.286,17.02l34.937,20.172l14.742,8.505L301.521,216.971
								"/>
							<polyline fill="#EC7405" points="349.271,170.765 336.891,163.617 324.511,156.469 310.512,164.605 335.271,178.901 
								349.271,170.765 							"/>
							<path fill="#CFD0D2" d="M313.61,180.49l6.826-3.966l1.729,0.999l-1.7,0.988l1.711,0.988l-1.7,0.988l1.718,0.991l-1.699,0.988
								l1.711,0.988l-1.726,1.002l-3.448-1.991L313.61,180.49 M321.905,154.965l-9.704-5.603l-16.518,9.599l-31.126,18.089
								l-9.021-5.209l-13.219,7.683l62.021,35.81l13.219-7.683l-15.91-9.187l31.233-18.152l-27.383-15.811L321.905,154.965"/>
							<polyline fill="#FFFFFF" points="322.916,130.819 321.779,130.163 318.607,132.006 320.088,129.186 318.746,128.412 
								314.122,131.099 315.259,131.755 318.431,129.912 316.95,132.732 318.291,133.506 322.916,130.819 							"/>
							<path fill="#FFFFFF" d="M325.367,132.131c-0.249-0.144-0.537-0.28-0.843-0.405c-0.319-0.125-0.645-0.24-1.008-0.347
								l-1.021,0.593c0.414,0.056,0.771,0.122,1.07,0.207c0.306,0.081,0.548,0.177,0.733,0.284c0.242,0.14,0.377,0.291,0.391,0.453
								c0.014,0.163-0.088,0.302-0.31,0.431c-0.14,0.082-0.312,0.137-0.515,0.174c-0.197,0.033-0.445,0.044-0.738,0.037
								l-3.183-0.118l-0.881,0.513l3.384,1.954l0.881-0.512l-2.049-1.183l1.858,0.073c0.789,0.029,1.355,0.019,1.699-0.033
								c0.35-0.048,0.654-0.151,0.901-0.295c0.438-0.254,0.621-0.538,0.562-0.859C326.229,132.777,325.929,132.456,325.367,132.131"
								/>
							<polyline fill="#FFFFFF" points="325.658,136.371 324.534,135.722 323.335,136.419 324.459,137.067 325.658,136.371 							
								"/>
							<path fill="#FFFFFF" d="M327.736,138.122c-0.256-0.147-0.32-0.325-0.188-0.527c0.126-0.207,0.48-0.472,1.07-0.814
								c0.577-0.335,1.034-0.542,1.384-0.612c0.344-0.074,0.649-0.037,0.904,0.111c0.256,0.147,0.32,0.324,0.194,0.523
								c-0.126,0.199-0.475,0.468-1.053,0.803c-0.59,0.343-1.053,0.546-1.402,0.623C328.297,138.306,327.991,138.27,327.736,138.122
								 M331.726,135.803c-0.612-0.354-1.294-0.505-2.045-0.454c-0.744,0.048-1.507,0.299-2.274,0.745s-1.191,0.885-1.271,1.316
								c-0.087,0.436,0.177,0.83,0.789,1.184c0.613,0.354,1.295,0.505,2.046,0.453c0.744-0.048,1.5-0.294,2.268-0.741
								c0.768-0.446,1.197-0.889,1.278-1.32C332.603,136.551,332.339,136.157,331.726,135.803"/>
							<polyline fill="#FFFFFF" points="336.483,138.653 335.34,137.993 334.033,137.495 333.221,137.967 334.535,138.468 
								331.547,140.205 330.487,139.593 329.662,140.072 332.919,141.952 333.743,141.473 332.684,140.861 336.483,138.653 							
								"/>
							<polyline fill="#FFFFFF" points="279.118,137.374 277.981,136.717 274.81,138.561 276.283,135.737 274.942,134.963 
								270.318,137.65 271.461,138.31 274.633,136.467 273.153,139.287 274.494,140.061 279.118,137.374 							"/>
							<path fill="#FFFFFF" d="M281.563,138.689c-0.255-0.147-0.543-0.284-0.849-0.409c-0.306-0.125-0.644-0.239-1.001-0.343
								l-1.015,0.59c0.408,0.052,0.765,0.125,1.064,0.203c0.3,0.085,0.548,0.177,0.74,0.288c0.243,0.14,0.365,0.292,0.385,0.45
								c0.013,0.162-0.087,0.31-0.303,0.435c-0.14,0.081-0.311,0.137-0.521,0.17c-0.197,0.033-0.438,0.048-0.732,0.04l-3.188-0.114
								l-0.875,0.509l3.377,1.95l0.875-0.509l-2.043-1.18l1.859,0.066c0.789,0.029,1.349,0.022,1.705-0.029
								c0.343-0.052,0.648-0.147,0.902-0.295c0.438-0.254,0.614-0.542,0.555-0.863C282.432,139.331,282.118,139.01,281.563,138.689"
								/>
							<polyline fill="#FFFFFF" points="281.854,142.921 280.73,142.272 279.531,142.97 280.655,143.618 281.854,142.921 							"/>
							<path fill="#FFFFFF" d="M283.932,144.673c-0.255-0.147-0.32-0.325-0.194-0.523c0.132-0.203,0.488-0.476,1.071-0.815
								c0.577-0.335,1.046-0.542,1.39-0.616c0.343-0.074,0.649-0.037,0.904,0.111c0.262,0.151,0.32,0.324,0.2,0.527
								c-0.126,0.199-0.487,0.468-1.064,0.804c-0.584,0.339-1.047,0.549-1.403,0.623
								C284.493,144.857,284.187,144.82,283.932,144.673 M287.916,142.357c-0.613-0.354-1.295-0.505-2.04-0.457
								c-0.75,0.052-1.506,0.298-2.274,0.745c-0.768,0.446-1.191,0.885-1.278,1.32c-0.081,0.431,0.183,0.826,0.796,1.18
								c0.612,0.354,1.294,0.505,2.039,0.457c0.751-0.052,1.507-0.298,2.274-0.745c0.768-0.446,1.191-0.885,1.278-1.32
								C288.791,143.106,288.528,142.711,287.916,142.357"/>
							<path fill="#FFFFFF" d="M291.912,144.665c-0.255-0.147-0.536-0.28-0.842-0.405c-0.312-0.129-0.65-0.243-1.007-0.347
								l-1.015,0.59c0.414,0.055,0.764,0.125,1.07,0.207c0.299,0.085,0.548,0.177,0.733,0.284c0.243,0.14,0.371,0.294,0.391,0.453
								c0.014,0.162-0.093,0.306-0.309,0.431c-0.14,0.081-0.312,0.137-0.515,0.173c-0.197,0.033-0.445,0.044-0.738,0.037
								l-3.189-0.115l-0.875,0.509l3.384,1.954l0.875-0.509l-2.049-1.184l1.865,0.07c0.79,0.029,1.35,0.022,1.699-0.033
								c0.35-0.048,0.649-0.147,0.902-0.295c0.438-0.254,0.621-0.538,0.562-0.859C292.781,145.307,292.468,144.986,291.912,144.665"
								/>
							<polyline fill="#FFFFFF" points="254.214,151.846 253.078,151.19 249.906,153.033 251.38,150.209 250.039,149.436 
								245.415,152.123 246.558,152.783 249.729,150.939 248.25,153.76 249.59,154.534 254.214,151.846 							"/>
							<path fill="#FFFFFF" d="M256.659,153.163c-0.255-0.147-0.542-0.284-0.849-0.41c-0.306-0.125-0.644-0.239-1.001-0.343
								l-1.015,0.59c0.408,0.052,0.765,0.125,1.064,0.203c0.299,0.084,0.548,0.177,0.74,0.287c0.243,0.141,0.365,0.292,0.385,0.45
								c0.013,0.162-0.087,0.31-0.303,0.435c-0.14,0.082-0.312,0.137-0.521,0.17c-0.197,0.033-0.438,0.048-0.732,0.041l-3.188-0.115
								l-0.875,0.509l3.377,1.95l0.875-0.509l-2.043-1.18l1.859,0.066c0.789,0.03,1.349,0.022,1.705-0.029
								c0.343-0.051,0.648-0.147,0.902-0.295c0.438-0.254,0.614-0.542,0.555-0.862C257.528,153.804,257.215,153.483,256.659,153.163
								"/>
							<polyline fill="#FFFFFF" points="256.95,157.395 255.827,156.746 254.628,157.442 255.751,158.091 256.95,157.395 							"/>
							<path fill="#FFFFFF" d="M259.028,159.146c-0.255-0.147-0.32-0.324-0.194-0.523c0.132-0.203,0.488-0.476,1.071-0.815
								c0.577-0.335,1.046-0.542,1.39-0.616c0.343-0.074,0.649-0.037,0.904,0.111c0.262,0.151,0.32,0.324,0.2,0.527
								c-0.126,0.199-0.488,0.468-1.064,0.803c-0.584,0.339-1.047,0.549-1.403,0.623
								C259.589,159.33,259.284,159.293,259.028,159.146 M263.012,156.831c-0.613-0.354-1.295-0.505-2.039-0.458
								c-0.75,0.052-1.506,0.299-2.274,0.745c-0.768,0.446-1.191,0.885-1.278,1.32c-0.081,0.432,0.183,0.826,0.796,1.18
								c0.612,0.354,1.294,0.505,2.039,0.457c0.75-0.052,1.507-0.298,2.274-0.744c0.768-0.446,1.191-0.885,1.278-1.32
								C263.888,157.579,263.625,157.184,263.012,156.831"/>
							<path fill="#FFFFFF" d="M266.932,159.094c-0.223-0.129-0.466-0.254-0.733-0.365c-0.268-0.118-0.555-0.225-0.854-0.325
								l-0.875,0.509c0.287,0.062,0.548,0.14,0.791,0.229c0.229,0.088,0.453,0.188,0.644,0.299c0.262,0.151,0.416,0.298,0.467,0.438
								c0.045,0.136-0.024,0.258-0.202,0.361c-0.19,0.11-0.407,0.155-0.648,0.125c-0.249-0.033-0.517-0.136-0.817-0.31l-0.504-0.292
								l-0.767,0.446l0.479,0.276c0.338,0.195,0.537,0.376,0.608,0.542c0.064,0.162-0.011,0.302-0.221,0.424
								c-0.203,0.118-0.444,0.162-0.718,0.129c-0.287-0.033-0.58-0.144-0.899-0.328c-0.217-0.125-0.408-0.265-0.568-0.424
								c-0.167-0.162-0.308-0.339-0.417-0.534l-0.92,0.534c0.16,0.181,0.339,0.351,0.544,0.512c0.198,0.159,0.421,0.31,0.658,0.446
								c0.677,0.391,1.314,0.619,1.9,0.686c0.599,0.066,1.12-0.037,1.576-0.302c0.311-0.181,0.475-0.372,0.519-0.583
								c0.031-0.21-0.066-0.427-0.296-0.656c0.35,0.122,0.682,0.173,1,0.159c0.318-0.022,0.61-0.111,0.877-0.266
								c0.399-0.232,0.545-0.486,0.447-0.778C267.897,159.761,267.539,159.444,266.932,159.094"/>
							<polyline fill="#FFFFFF" points="210.712,170.278 209.576,169.622 206.404,171.465 207.884,168.646 206.543,167.871 
								201.919,170.559 203.056,171.215 206.228,169.372 204.748,172.191 206.088,172.966 210.712,170.278 							"/>
							<path fill="#FFFFFF" d="M213.157,171.595c-0.255-0.147-0.529-0.284-0.849-0.41c-0.306-0.125-0.644-0.239-1.001-0.343
								l-1.016,0.59c0.408,0.051,0.766,0.125,1.071,0.207c0.292,0.081,0.542,0.173,0.733,0.284c0.243,0.14,0.364,0.292,0.378,0.453
								c0.02,0.159-0.081,0.307-0.297,0.432c-0.14,0.082-0.311,0.136-0.515,0.173c-0.203,0.029-0.445,0.044-0.738,0.037
								l-3.189-0.114l-0.875,0.509l3.384,1.954l0.875-0.509l-2.049-1.183l1.865,0.07c0.777,0.029,1.343,0.018,1.699-0.033
								c0.344-0.052,0.647-0.147,0.902-0.295c0.438-0.254,0.621-0.539,0.555-0.863C214.026,172.236,213.713,171.915,213.157,171.595
								"/>
							<polyline fill="#FFFFFF" points="213.448,175.826 212.332,175.181 211.132,175.878 212.25,176.523 213.448,175.826 							
								"/>
							<path fill="#FFFFFF" d="M215.527,177.577c-0.255-0.147-0.32-0.324-0.194-0.523c0.132-0.203,0.487-0.475,1.071-0.814
								c0.577-0.335,1.047-0.542,1.39-0.615c0.344-0.074,0.65-0.037,0.905,0.11c0.262,0.151,0.327,0.328,0.2,0.528
								c-0.125,0.199-0.487,0.468-1.064,0.803c-0.584,0.339-1.047,0.549-1.403,0.623
								C216.088,177.762,215.789,177.729,215.527,177.577 M219.51,175.263c-0.613-0.354-1.295-0.505-2.039-0.458
								c-0.75,0.052-1.506,0.298-2.273,0.745c-0.769,0.446-1.192,0.885-1.278,1.32c-0.081,0.431,0.183,0.826,0.796,1.18
								c0.612,0.354,1.294,0.505,2.039,0.457c0.75-0.051,1.506-0.298,2.275-0.745c0.767-0.446,1.191-0.885,1.277-1.32
								C220.386,176.011,220.123,175.616,219.51,175.263"/>
							<path fill="#FFFFFF" d="M219.447,178.702l3.25-0.365l-1.935,1.125L219.447,178.702 M224.815,178.422l-1.334-0.771
								l-4.624,0.527l-1.021,0.593l2.062,1.191l-0.844,0.491l1.136,0.656l0.844-0.49l0.664,0.383l0.862-0.501l-0.664-0.383
								L224.815,178.422"/>
							<polyline fill="#FFFFFF" points="258.535,207.415 257.392,206.755 254.221,208.599 255.701,205.778 254.36,205.004 
								249.736,207.691 250.879,208.352 254.051,206.508 252.571,209.329 253.912,210.103 258.535,207.415 							"/>
							<path fill="#FFFFFF" d="M260.98,208.731c-0.256-0.148-0.542-0.284-0.849-0.409s-0.644-0.24-1.008-0.347l-1.015,0.59
								c0.415,0.055,0.765,0.125,1.071,0.206c0.299,0.085,0.541,0.181,0.726,0.288c0.25,0.144,0.377,0.292,0.392,0.454
								c0.013,0.162-0.088,0.303-0.303,0.428c-0.14,0.081-0.311,0.144-0.515,0.173c-0.203,0.037-0.451,0.048-0.731,0.041
								l-3.189-0.115l-0.875,0.509l3.378,1.951l0.875-0.509l-2.044-1.18l1.859,0.067c0.783,0.033,1.349,0.021,1.706-0.03
								c0.343-0.052,0.642-0.151,0.895-0.299c0.432-0.25,0.621-0.538,0.556-0.855C261.85,209.373,261.536,209.052,260.98,208.731"/>
							<polyline fill="#FFFFFF" points="261.272,212.963 260.148,212.314 258.949,213.012 260.073,213.66 261.272,212.963 							
								"/>
							<path fill="#FFFFFF" d="M263.343,214.718c-0.255-0.147-0.319-0.324-0.187-0.527c0.133-0.202,0.488-0.476,1.071-0.814
								c0.578-0.336,1.041-0.538,1.39-0.616c0.343-0.073,0.642-0.032,0.897,0.115c0.262,0.151,0.327,0.32,0.201,0.52
								c-0.127,0.206-0.481,0.472-1.059,0.807c-0.583,0.34-1.047,0.55-1.402,0.624C263.905,214.902,263.599,214.865,263.343,214.718
								 M267.333,212.399c-0.613-0.354-1.295-0.505-2.039-0.457c-0.75,0.052-1.506,0.298-2.281,0.748
								c-0.76,0.442-1.185,0.881-1.271,1.316c-0.086,0.435,0.183,0.825,0.796,1.179c0.613,0.354,1.289,0.51,2.039,0.458
								s1.507-0.299,2.268-0.741c0.774-0.45,1.198-0.889,1.285-1.323C268.209,213.147,267.946,212.753,267.333,212.399"/>
							<path fill="#FFFFFF" d="M267.5,217.185c-0.211-0.122-0.307-0.251-0.27-0.391c0.025-0.141,0.177-0.288,0.449-0.446
								c0.267-0.155,0.521-0.243,0.769-0.262c0.235-0.019,0.464,0.032,0.676,0.154c0.21,0.122,0.3,0.255,0.27,0.391
								c-0.032,0.144-0.184,0.292-0.45,0.446c-0.273,0.158-0.527,0.247-0.769,0.262C267.934,217.361,267.711,217.306,267.5,217.185
								 M271.802,214.987c-0.676-0.391-1.421-0.571-2.25-0.542c-0.827,0.029-1.621,0.27-2.382,0.712
								c-0.748,0.435-1.153,0.861-1.227,1.29c-0.074,0.427,0.189,0.814,0.795,1.164c0.549,0.317,1.129,0.483,1.752,0.498
								c0.624,0.015,1.19-0.122,1.685-0.409c0.45-0.262,0.665-0.557,0.645-0.885c-0.009-0.328-0.252-0.631-0.731-0.907
								c-0.191-0.11-0.389-0.195-0.6-0.258s-0.434-0.104-0.675-0.125c0.419-0.207,0.833-0.306,1.226-0.307
								c0.395,0.001,0.778,0.104,1.136,0.311c0.166,0.095,0.306,0.206,0.44,0.335c0.129,0.125,0.25,0.27,0.353,0.439l0.856-0.498
								c-0.134-0.151-0.282-0.295-0.455-0.432C272.205,215.242,272.014,215.109,271.802,214.987"/>
							<path fill="#FFFFFF" d="M238.17,185.691l-0.431,0.25L238.17,185.691 M240.839,187.232l-0.431,0.25L240.839,187.232"/>
							<polyline fill="#FFFFFF" points="322.166,177.522 320.437,176.523 313.61,180.49 317.032,182.465 320.48,184.456 
								322.206,183.454 320.495,182.465 322.194,181.478 320.477,180.486 322.177,179.498 320.466,178.51 322.166,177.522 							
								"/>
						</g>
					</g>
				</g>
			</g>
		</g>
	</g>
</g>
<g>
	<rect x="-48.442" y="50.715" fill="#93117E" width="34.016" height="51.736"/>
	<rect x="-48.442" y="90.953" fill="#005C95" width="34.016" height="50.214"/>
	<rect x="-48.442" y="131.063" fill="#85AFD5" width="34.016" height="48.946"/>
	<rect x="-48.442" y="168.891" fill="#00B6E8" width="33.554" height="52.243"/>
	<rect x="-48.442" y="210.015" fill="#B1C800" width="34.016" height="48.947"/>
	<rect x="-48.442" y="248.858" fill="#57AB27" width="34.016" height="50.214"/>
	<rect x="-48.442" y="287.319" fill="#EC7404" width="33.554" height="52.244"/>
	<rect x="-48.442" y="328.403" fill="#A78BBC" width="33.554" height="52.243"/>
</g>
<polygon fill="#B3B3B3" points="-59.667,41.637 -69.925,31.378 -80.185,41.637 -75.631,41.637 -75.631,193.334 -64.22,193.334 
	-64.22,41.637 "/>
<text transform="matrix(0 -1 1 0 -66.7695 103.9072)" fill="#FFFFFF" font-family="'DejaVuSans-Bold'" font-size="9">Textbaustein</text>
<g>
	<polygon fill="#EC7404" stroke="#FFFFFF" stroke-width="0.5" points="210.448,-15.247 213.86,-15.247 212.291,-3.471 	"/>
	<circle fill="#EC7404" cx="212.154" cy="-24.28" r="9.731"/>
	<polygon fill="none" stroke="#FFFFFF" stroke-width="0.5" points="216.024,-27.105 212.154,-31.78 208.285,-27.105 
		210.238,-27.105 210.238,-21.983 214.071,-21.983 214.071,-27.105 	"/>
	<text transform="matrix(1 0 0 1 210.4858 -16.3994)" fill="#FFFFFF" font-family="'DejaVuSansCondensed-Bold'" font-size="5">€</text>
</g>
<g>
	<polygon fill="#EC7404" stroke="#FFFFFF" stroke-width="0.5" points="236.021,-15.247 239.434,-15.247 237.863,-3.471 	"/>
	<circle fill="#EC7404" cx="237.727" cy="-24.28" r="9.731"/>
	<polygon fill="none" stroke="#FFFFFF" stroke-width="0.5" points="241.597,-27.105 237.727,-31.78 233.857,-27.105 
		235.811,-27.105 235.811,-21.983 239.644,-21.983 239.644,-27.105 	"/>
	<rect x="236.04" y="-20.722" fill="none" width="8" height="3.833"/>
	<text transform="matrix(1 0 0 1 236.04 -16.9233)" fill="#FFFFFF" font-family="'DejaVuSansCondensed-Bold'" font-size="5">P</text>
</g>
<g>
	<polygon fill="#EC7404" stroke="#FFFFFF" stroke-width="0.5" points="261.593,-15.247 265.005,-15.247 263.436,-3.471 	"/>
	<circle fill="#EC7404" cx="263.299" cy="-24.28" r="9.731"/>
	<polygon fill="none" stroke="#FFFFFF" stroke-width="0.5" points="267.169,-27.105 263.299,-31.78 259.43,-27.105 261.383,-27.105 
		261.383,-21.983 265.216,-21.983 265.216,-27.105 	"/>
	<rect x="258.431" y="-20.722" fill="none" width="8" height="3.833"/>
	<text transform="matrix(1 0 0 1 258.4307 -16.9224)" fill="#FFFFFF" font-family="'DejaVuSansCondensed-Bold'" font-size="5"> EC</text>
</g>
<g>
	<polygon fill="#EC7404" stroke="#FFFFFF" stroke-width="0.5" points="312.614,-15.27 316.028,-15.27 314.458,-3.494 	"/>
	<g>
		<circle fill="#EC7404" cx="314.322" cy="-24.28" r="9.731"/>
		<g>
			<g>
				<path fill="none" stroke="#FFFFFF" stroke-width="0.5" d="M318.809-20.36c0,0.312-0.255,0.567-0.567,0.567h-7.839
					c-0.312,0-0.567-0.255-0.567-0.567v-7.84c0-0.312,0.255-0.567,0.567-0.567h7.839c0.312,0,0.567,0.255,0.567,0.567V-20.36z"/>
			</g>
			<polygon fill="#FFFFFF" points="310.764,-24.254 313.457,-21.023 317.898,-27.754 313.22,-22.336 			"/>
		</g>
	</g>
</g>
<g>
	<polygon fill="#EC7404" stroke="#FFFFFF" stroke-width="0.5" points="338.475,-15.27 341.889,-15.27 340.318,-3.494 	"/>
	<circle fill="#EC7404" cx="340.182" cy="-24.28" r="9.731"/>
	<g>
		<g>
			<path fill="#EC7404" d="M344.558-22.426c0,0.312-0.255,0.567-0.567,0.567h-9.54c-0.312,0-0.567-0.255-0.567-0.567v-5.453
				c0-0.312,0.255-0.567,0.567-0.567h9.54c0.312,0,0.567,0.255,0.567,0.567V-22.426z"/>
			<path fill="none" stroke="#FFFFFF" stroke-width="0.5" d="M344.558-22.426c0,0.312-0.255,0.567-0.567,0.567h-9.54
				c-0.312,0-0.567-0.255-0.567-0.567v-5.453c0-0.312,0.255-0.567,0.567-0.567h9.54c0.312,0,0.567,0.255,0.567,0.567V-22.426z"/>
		</g>
		<g>
			<path fill="#EC7404" d="M346.481-20.502c0,0.312-0.255,0.567-0.567,0.567h-9.54c-0.312,0-0.567-0.255-0.567-0.567v-5.454
				c0-0.312,0.255-0.567,0.567-0.567h9.54c0.312,0,0.567,0.255,0.567,0.567V-20.502z"/>
			<path fill="none" stroke="#FFFFFF" stroke-width="0.5" d="M346.481-20.502c0,0.312-0.255,0.567-0.567,0.567h-9.54
				c-0.312,0-0.567-0.255-0.567-0.567v-5.454c0-0.312,0.255-0.567,0.567-0.567h9.54c0.312,0,0.567,0.255,0.567,0.567V-20.502z"/>
		</g>
	</g>
</g>
<g>
	<polygon fill="#EC7404" stroke="#FFFFFF" stroke-width="0.5" points="184.875,-15.247 188.288,-15.247 186.719,-3.471 	"/>
	<circle fill="#EC7404" cx="186.582" cy="-24.28" r="9.731"/>
	<g>
		<path fill="#FFFFFF" d="M183.453-22.59h6.294v-0.557h-6.294V-22.59z M183.453-20.894h6.294v-0.557h-6.294V-20.894z
			 M183.453-25.937h6.294v-0.558h-6.294V-25.937z M183.453-24.272h6.294v-0.557h-6.294V-24.272z M190.453-18.964h-7.744v-11.183
			h5.521v2.222h2.223V-18.964z M182.151-18.405 M188.789-30.077l1.594,1.592h-1.594V-30.077z M188.947-30.706h-6.796v12.301h8.86
			v-10.239L188.947-30.706z"/>
	</g>
</g>
<g>
	<polygon fill="#EC7404" stroke="#FFFFFF" stroke-width="0.5" points="159.302,-15.247 162.715,-15.247 161.145,-3.472 	"/>
	<circle fill="#EC7404" cx="161.009" cy="-24.28" r="9.731"/>
	<g>
		<g>
			<path fill="#FFFFFF" d="M166.065-25.002c-0.002-0.272-0.025-0.522-0.083-0.758c-0.046-0.183-0.114-0.358-0.217-0.517
				c-0.152-0.24-0.387-0.429-0.656-0.535c-0.269-0.108-0.564-0.149-0.898-0.149c-0.295,0-0.563,0.033-0.811,0.114
				c-0.185,0.062-0.357,0.153-0.505,0.277c-0.223,0.186-0.377,0.438-0.463,0.709c-0.086,0.264-0.118,0.55-0.119,0.862l-0.569,4.806
				h1.198v2.099h0.97v-2.099h0.6v2.099h0.97v-2.099h1.204L166.065-25.002z"/>
			<path fill="#FFFFFF" d="M157.691-27.407c0.872,0,1.576-0.707,1.576-1.577c0-0.871-0.704-1.577-1.576-1.577
				c-0.87,0-1.575,0.706-1.576,1.577C156.116-28.114,156.821-27.407,157.691-27.407 M157.691-26.87
				c-1.305,0.001-2.36,1.057-2.36,2.361v2.469h1.092v3.943h0.969v-3.943h0.6v3.943h0.97v-3.943h1.091v-2.469
				C160.052-25.813,158.996-26.869,157.691-26.87"/>
		</g>
		<circle fill="#FFFFFF" cx="164.105" cy="-28.986" r="1.584"/>
	</g>
</g>
<g>
	<polygon fill="#EC7404" stroke="#FFFFFF" stroke-width="0.5" points="232.15,177.045 235.563,177.045 233.993,188.821 	"/>
	<circle fill="#EC7404" cx="233.857" cy="168.012" r="9.731"/>
	<g>
		<g>
			<path fill="#FFFFFF" d="M238.914,167.29c-0.002-0.272-0.025-0.522-0.083-0.758c-0.046-0.183-0.114-0.358-0.217-0.517
				c-0.152-0.24-0.387-0.429-0.656-0.535c-0.269-0.108-0.564-0.149-0.898-0.149c-0.295,0-0.563,0.033-0.811,0.114
				c-0.185,0.062-0.357,0.153-0.505,0.277c-0.223,0.186-0.377,0.438-0.463,0.709c-0.086,0.264-0.118,0.55-0.119,0.862l-0.569,4.806
				h1.198v2.099h0.97v-2.099h0.6v2.099h0.97v-2.099h1.204L238.914,167.29z"/>
			<path fill="#FFFFFF" d="M230.54,164.885c0.872,0,1.576-0.707,1.576-1.577c0-0.871-0.704-1.577-1.576-1.577
				c-0.87,0-1.575,0.706-1.576,1.577C228.965,164.179,229.67,164.885,230.54,164.885 M230.54,165.423
				c-1.305,0.001-2.36,1.057-2.36,2.361v2.469h1.092v3.943h0.969v-3.943h0.6v3.943h0.97v-3.943h1.091v-2.469
				C232.9,166.479,231.845,165.424,230.54,165.423"/>
		</g>
		<circle fill="#FFFFFF" cx="236.954" cy="163.306" r="1.584"/>
	</g>
</g>
<g>
	<polygon fill="#EC7404" stroke="#FFFFFF" stroke-width="0.5" points="336.768,158.966 340.181,158.966 338.61,170.741 	"/>
	<circle fill="#EC7404" cx="338.475" cy="149.933" r="9.731"/>
	<g>
		<g>
			<path fill="#FFFFFF" d="M343.531,149.21c-0.002-0.272-0.025-0.522-0.083-0.758c-0.046-0.183-0.114-0.358-0.217-0.517
				c-0.152-0.24-0.387-0.429-0.656-0.535c-0.269-0.108-0.564-0.149-0.898-0.149c-0.295,0-0.563,0.033-0.811,0.114
				c-0.185,0.062-0.357,0.153-0.505,0.277c-0.223,0.186-0.377,0.438-0.463,0.709c-0.086,0.264-0.118,0.55-0.119,0.862l-0.569,4.806
				h1.198v2.099h0.97v-2.099h0.6v2.099h0.97v-2.099h1.204L343.531,149.21z"/>
			<path fill="#FFFFFF" d="M335.157,146.806c0.872,0,1.576-0.707,1.576-1.577c0-0.871-0.704-1.577-1.576-1.577
				c-0.87,0-1.575,0.706-1.576,1.577C333.582,146.099,334.287,146.806,335.157,146.806 M335.157,147.343
				c-1.305,0.001-2.36,1.057-2.36,2.361v2.469h1.092v3.943h0.969v-3.943h0.6v3.943h0.97v-3.943h1.091v-2.469
				C337.518,148.4,336.462,147.344,335.157,147.343"/>
		</g>
		<circle fill="#FFFFFF" cx="341.571" cy="145.227" r="1.584"/>
	</g>
</g>
<g>
	<polygon fill="#EC7404" stroke="#FFFFFF" stroke-width="0.5" points="287.165,-15.247 290.578,-15.247 289.009,-3.471 	"/>
	<circle fill="#EC7404" cx="288.872" cy="-24.28" r="9.731"/>
	<text transform="matrix(1 0 0 1 287.1108 -16.3994)" fill="#FFFFFF" font-family="'DejaVuSansCondensed-Bold'" font-size="5">€</text>
	<polygon fill="none" stroke="#FFFFFF" stroke-width="0.5" points="284.953,-26.658 288.823,-21.983 292.692,-26.658 
		290.739,-26.658 290.739,-31.78 286.906,-31.78 286.906,-26.658 	"/>
</g>
<g>
	<g>
		<polygon fill="#EC7404" stroke="#FFFFFF" stroke-width="0.5" points="364.285,-15.091 367.697,-15.051 365.99,-3.294 		"/>
		<circle fill="#EC7404" cx="366.104" cy="-24.095" r="9.731"/>
	</g>
	<path fill="#FFFFFF" d="M366.409-21.134c-0.174,1.439-1.402,2.558-2.887,2.558c-1.605,0-2.91-1.305-2.91-2.91
		c0-0.9,0.412-1.709,1.057-2.243v-1.217c-1.232,0.663-2.072,1.965-2.072,3.46c0,2.164,1.762,3.926,3.926,3.926
		c1.641,0,3.051-1.014,3.635-2.449L366.409-21.134z"/>
	<path fill="#FFFFFF" d="M370.083-20.411l-0.811,0.56l-2.08-3.488l-3.998,0.025v-0.829h2.115v-0.889h-2.115v-2.055
		c0.494-0.188,0.846-0.664,0.846-1.225c0-0.725-0.588-1.313-1.311-1.313c-0.725,0-1.314,0.589-1.314,1.313
		c0,0.576,0.373,1.064,0.889,1.24v4.621l4.395,0.005l2.275,3.813l1.594-1.033L370.083-20.411z"/>
	<polygon fill="#FFFFFF" points="365.167,-29.054 365.952,-29.054 366.499,-26.749 367.044,-29.054 367.831,-29.054 
		368.378,-26.749 368.923,-29.054 369.702,-29.054 368.954,-25.881 368.011,-25.881 367.435,-28.293 366.866,-25.881 
		365.921,-25.881 	"/>
	<path fill="#FFFFFF" d="M372.39-26.055c-0.148,0.077-0.307,0.135-0.471,0.176c-0.162,0.04-0.332,0.06-0.51,0.06
		c-0.527,0-0.945-0.148-1.254-0.443s-0.463-0.695-0.463-1.201c0-0.507,0.154-0.909,0.463-1.204s0.727-0.442,1.254-0.442
		c0.178,0,0.348,0.02,0.51,0.059c0.164,0.039,0.322,0.1,0.471,0.178v0.655c-0.15-0.104-0.301-0.179-0.447-0.228
		c-0.148-0.048-0.303-0.072-0.465-0.072c-0.293,0-0.521,0.094-0.689,0.281s-0.252,0.444-0.252,0.773
		c0,0.327,0.084,0.585,0.252,0.771s0.396,0.279,0.689,0.279c0.162,0,0.316-0.023,0.465-0.072c0.146-0.048,0.297-0.123,0.447-0.227
		V-26.055z"/>
</g>
</svg>
