<?xml version="1.0" encoding="utf-8"?>
<!-- Generator: Adobe Illustrator 16.0.0, SVG Export Plug-In . SVG Version: 6.00 Build 0)  -->
<!DOCTYPE svg PUBLIC "-//W3C//DTD SVG 1.1//EN" "http://www.w3.org/Graphics/SVG/1.1/DTD/svg11.dtd">
<svg version="1.1" xmlns="http://www.w3.org/2000/svg" xmlns:xlink="http://www.w3.org/1999/xlink" x="0px" y="0px"
	 width="595.275px" height="419.527px" viewBox="0 0 595.275 419.527" enable-background="new 0 0 595.275 419.527"
	 xml:space="preserve">
<g id="Ebene_2">
	<text transform="matrix(1 0 0 1 -43.7109 116.3369)" fill="#FFFFFF" font-family="'DejaVuSans-Bold'" font-size="9">A1.04</text>
</g>
<g id="Ebene_1">
	<g>
		<rect x="-48.442" y="50.715" fill="#93117E" width="34.016" height="51.736"/>
		<rect x="-48.442" y="90.953" fill="#005C95" width="34.016" height="50.214"/>
		<rect x="-48.442" y="131.063" fill="#85AFD5" width="34.016" height="48.946"/>
		<rect x="-48.442" y="168.891" fill="#00B6E8" width="33.554" height="52.243"/>
		<rect x="-48.442" y="210.015" fill="#B1C800" width="34.016" height="48.947"/>
		<rect x="-48.442" y="248.858" fill="#57AB27" width="34.016" height="50.214"/>
		<rect x="-48.442" y="287.319" fill="#EC7404" width="33.554" height="52.244"/>
		<rect x="-48.442" y="328.403" fill="#A78BBC" width="33.554" height="52.243"/>
	</g>
	<polygon fill="#B3B3B3" points="-59.667,41.637 -69.925,31.378 -80.185,41.637 -75.631,41.637 -75.631,193.334 -64.22,193.334
		-64.22,41.637 	"/>
	<text transform="matrix(0 -1 1 0 -66.7695 103.9072)" fill="#FFFFFF" font-family="'DejaVuSans-Bold'" font-size="9">Textbaustein</text>
	<g>
		<g>
			<g enable-background="new    ">
				<defs>
					<polygon id="SVGID_1_" enable-background="new    " points="49.438,130.413 123.508,87.367 361.322,224.678 287.252,267.724
											"/>
				</defs>
				<clipPath id="SVGID_2_">
					<use xlink:href="#SVGID_1_"  overflow="visible"/>
				</clipPath>
				<g clip-path="url(#SVGID_2_)">
					<g>
						<g>
							<g>
								<path id="N1.09" fill="#BDD4E4" d="M264.596,192.904c-0.205-0.118-0.434-0.147-0.7-0.088c-0.273,0.055-0.635,0.214-1.085,0.476
									c-0.457,0.266-0.729,0.476-0.831,0.638c-0.101,0.155-0.056,0.292,0.149,0.409c0.198,0.115,0.434,0.14,0.707,0.085
									c0.273-0.062,0.636-0.221,1.092-0.487c0.45-0.262,0.723-0.472,0.824-0.626C264.846,193.151,264.794,193.019,264.596,192.904
									 M267.763,194.682c-0.159-0.092-0.332-0.133-0.522-0.118c-0.185,0.011-0.388,0.077-0.597,0.199
									c-0.21,0.122-0.323,0.24-0.348,0.351c-0.019,0.107,0.045,0.21,0.205,0.302c0.166,0.096,0.344,0.133,0.529,0.122
									c0.191-0.015,0.394-0.081,0.604-0.203c0.209-0.122,0.323-0.24,0.342-0.347C268,194.877,267.929,194.777,267.763,194.682
									 M258.71,193.012l0.933-0.542l0.868,0.501l-0.933,0.542L258.71,193.012 M255.032,189.579l2.467-1.434l0.888,0.512
									l-3.597,2.09l-1.047-0.604l1.152-2.193l-2.468,1.434l-0.888-0.513l3.597-2.09l1.047,0.604L255.032,189.579 M258.348,189.568
									l0.627-0.365l1.021,0.384l0.887,0.512l-2.956,1.718l0.824,0.476l-0.641,0.373l-2.535-1.463l0.641-0.373l0.824,0.476
									l2.321-1.35L258.348,189.568 M265.745,195.677c-0.371-0.214-0.562-0.45-0.57-0.704c-0.015-0.258,0.149-0.487,0.505-0.693
									c0.387-0.225,0.826-0.332,1.309-0.317c0.49,0.011,0.942,0.14,1.364,0.383c0.473,0.273,0.678,0.575,0.623,0.911
									c-0.056,0.328-0.372,0.667-0.949,1.003c-0.596,0.347-1.213,0.527-1.855,0.553c-0.643,0.019-1.229-0.122-1.752-0.424
									c-0.172-0.1-0.319-0.199-0.454-0.306c-0.127-0.103-0.249-0.21-0.345-0.324l0.666-0.387c0.077,0.125,0.173,0.24,0.275,0.335
									c0.096,0.1,0.217,0.185,0.351,0.262c0.281,0.162,0.568,0.24,0.88,0.243c0.305,0,0.623-0.081,0.953-0.236
									c-0.191-0.022-0.37-0.051-0.529-0.099C266.051,195.824,265.892,195.761,265.745,195.677 M261.501,194.703
									c-0.479-0.276-0.69-0.582-0.623-0.918c0.062-0.339,0.397-0.682,0.994-1.028c0.596-0.346,1.187-0.542,1.772-0.579
									c0.579-0.041,1.108,0.081,1.587,0.357c0.472,0.273,0.684,0.579,0.616,0.915c-0.062,0.339-0.397,0.682-0.993,1.028
									c-0.596,0.347-1.187,0.542-1.772,0.579C262.502,195.098,261.974,194.976,261.501,194.703 M279.78,192.809l-20.98-12.113
									l-17.285,10.045l20.98,12.113L279.78,192.809"/>
								<path id="N1.02" fill="#CFD0D2" d="M125.249,151.455c-0.582-0.335-1.041-0.542-1.397-0.616c-0.344-0.074-0.643-0.041-0.903,0.111
									c-0.254,0.147-0.317,0.324-0.188,0.523c0.135,0.203,0.486,0.472,1.067,0.807c0.587,0.339,1.06,0.546,1.41,0.623
									c0.344,0.074,0.649,0.037,0.903-0.11c0.254-0.147,0.317-0.325,0.188-0.523C126.194,152.067,125.836,151.794,125.249,151.455
									 M112.421,156.217l1.135-0.66l4.654,2.688l-1.332,0.774l-4.874-0.867l3.192,1.843l-1.136,0.66l-4.654-2.688l1.332-0.774
									l4.874,0.866L112.421,156.217 M114.756,155.119l0.855-0.756l1.129-0.656l3.825,2.208l1.053-0.612l0.83,0.479l-3.229,1.877
									l-0.83-0.479l1.053-0.612l-3.007-1.736l-0.861,0.759L114.756,155.119 M122.008,154.64l1.117-0.648l1.206,0.696l-1.116,0.649
									L122.008,154.64 M122.642,152.977c-0.772-0.446-1.201-0.885-1.293-1.32c-0.085-0.431,0.174-0.826,0.783-1.18
									c0.609-0.354,1.289-0.505,2.034-0.457c0.751,0.052,1.51,0.299,2.283,0.745s1.201,0.885,1.293,1.32
									c0.085,0.432-0.173,0.826-0.783,1.18c-0.609,0.354-1.289,0.505-2.034,0.457C124.173,153.67,123.414,153.423,122.642,152.977
									 M129.705,150.544l2.036-1.183l0.881,0.508l-3.362,1.954l-0.881-0.509l0.187-1.847c0.018-0.166-0.001-0.31-0.066-0.428
									c-0.058-0.114-0.16-0.217-0.301-0.299c-0.217-0.125-0.472-0.184-0.739-0.177c-0.28,0.007-0.547,0.081-0.788,0.221
									c-0.184,0.107-0.342,0.25-0.487,0.424c-0.139,0.177-0.259,0.38-0.353,0.62l-1.022-0.59c0.177-0.206,0.374-0.401,0.595-0.582
									c0.215-0.177,0.443-0.339,0.697-0.487c0.552-0.32,1.104-0.501,1.658-0.534c0.553-0.041,1.044,0.066,1.485,0.32
									c0.255,0.147,0.428,0.321,0.512,0.523c0.097,0.203,0.118,0.531,0.063,0.984L129.705,150.544 M141.287,150.529l-13.536-7.815
									L99.34,159.226l13.536,7.815L141.287,150.529"/>
								<polyline fill="#EC7405" points="182.923,121.672 132.932,92.808 119.078,100.859 155.688,121.997 150.067,125.263
									163.449,132.99 182.923,121.672 								"/>
								<path id="N1.01" fill="#BDD4E4" d="M97.637,140.384c-0.262-0.151-0.561-0.191-0.911-0.114c-0.343,0.074-0.807,0.276-1.384,0.612
									c-0.583,0.339-0.939,0.612-1.071,0.815s-0.067,0.379,0.194,0.531c0.255,0.147,0.554,0.181,0.91,0.107
									c0.35-0.077,0.813-0.288,1.397-0.626c0.577-0.335,0.932-0.601,1.058-0.8C97.964,140.705,97.893,140.532,97.637,140.384
									 M90.072,140.521l1.198-0.696l1.117,0.645l-1.198,0.697L90.072,140.521 M85.344,136.108l3.171-1.843l1.137,0.656
									l-4.624,2.688l-1.341-0.774l1.479-2.82l-3.171,1.843l-1.136-0.656l4.624-2.687l1.341,0.774L85.344,136.108 M89.607,136.093
									l0.806-0.468l1.307,0.491l1.143,0.66l-3.806,2.212l1.06,0.612l-0.818,0.475l-3.256-1.88l0.818-0.475l1.06,0.612l2.995-1.74
									L89.607,136.093 M99.957,142.069l0.806-0.468l1.307,0.491l1.143,0.66l-3.806,2.212l1.06,0.612l-0.818,0.475l-3.256-1.88
									l0.817-0.475l1.06,0.612l2.995-1.74L99.957,142.069 M93.661,142.695c-0.613-0.354-0.89-0.748-0.802-1.183
									c0.08-0.431,0.51-0.874,1.271-1.316c0.768-0.446,1.53-0.697,2.274-0.745c0.75-0.051,1.439,0.103,2.052,0.457
									c0.607,0.35,0.87,0.745,0.783,1.18c-0.08,0.431-0.51,0.874-1.278,1.32c-0.761,0.442-1.523,0.693-2.268,0.741
									C94.942,143.201,94.267,143.046,93.661,142.695 M125.811,141.594l-38.538-22.251l-28.411,16.511l38.538,22.251
									L125.811,141.594"/>
								<path id="N1.03" fill="#BDD4E4" d="M154.965,173.484c-0.255-0.147-0.555-0.188-0.904-0.11c-0.344,0.074-0.807,0.276-1.384,0.612
									c-0.583,0.339-0.939,0.612-1.071,0.815c-0.133,0.203-0.067,0.379,0.188,0.527c0.255,0.147,0.561,0.185,0.911,0.107
									c0.349-0.077,0.82-0.284,1.403-0.623c0.577-0.335,0.933-0.601,1.052-0.804C155.291,173.805,155.227,173.636,154.965,173.484
									 M147.399,173.621l1.198-0.696l1.124,0.649l-1.198,0.696L147.399,173.621 M142.671,169.208l3.172-1.843l1.143,0.66
									l-4.624,2.687l-1.34-0.774l1.479-2.82l-3.171,1.843l-1.143-0.66l4.624-2.687l1.34,0.774L142.671,169.208 M146.935,169.193
									l0.806-0.468l1.313,0.494l1.137,0.656l-3.806,2.212l1.06,0.612l-0.818,0.475l-3.25-1.876l0.817-0.475l1.06,0.612l2.995-1.74
									L146.935,169.193 M150.988,175.796c-0.613-0.354-0.883-0.745-0.796-1.18c0.081-0.431,0.51-0.874,1.271-1.316
									c0.768-0.446,1.53-0.697,2.274-0.745c0.75-0.052,1.433,0.099,2.046,0.453c0.613,0.354,0.875,0.749,0.789,1.184
									c-0.08,0.431-0.51,0.874-1.278,1.32c-0.761,0.442-1.523,0.693-2.268,0.741C152.275,176.305,151.601,176.149,150.988,175.796
									 M157.239,175.092l0.875-0.509c0.3,0.1,0.587,0.207,0.848,0.321c0.268,0.118,0.517,0.24,0.741,0.369
									c0.606,0.35,0.952,0.667,1.062,0.958c0.104,0.288-0.048,0.545-0.441,0.774c-0.273,0.159-0.565,0.247-0.883,0.262
									c-0.312,0.019-0.643-0.033-0.994-0.155c0.23,0.229,0.327,0.446,0.296,0.656c-0.043,0.21-0.213,0.406-0.519,0.583
									c-0.462,0.269-0.984,0.372-1.576,0.302c-0.593-0.062-1.224-0.295-1.9-0.686c-0.236-0.136-0.466-0.283-0.664-0.449
									c-0.205-0.155-0.377-0.328-0.538-0.509l0.92-0.535c0.109,0.195,0.25,0.373,0.417,0.535c0.16,0.159,0.345,0.302,0.562,0.428
									c0.319,0.184,0.619,0.291,0.893,0.324c0.286,0.033,0.522-0.007,0.725-0.125c0.215-0.125,0.291-0.265,0.22-0.431
									c-0.065-0.162-0.263-0.343-0.602-0.538l-0.479-0.276l0.768-0.446l0.504,0.291c0.3,0.173,0.568,0.276,0.81,0.306
									c0.249,0.033,0.458-0.007,0.648-0.118c0.178-0.103,0.247-0.225,0.195-0.365c-0.039-0.14-0.199-0.284-0.461-0.435
									c-0.191-0.11-0.408-0.214-0.65-0.302C157.774,175.232,157.52,175.158,157.239,175.092 M187.122,176.994l-43.895-25.344
									l-28.411,16.511l43.895,25.344L187.122,176.994"/>
								<path id="N1.10" fill="#CFD0D2" d="M246.036,182.188c-0.198-0.114-0.434-0.147-0.7-0.088c-0.267,0.059-0.629,0.218-1.079,0.479
									c-0.457,0.265-0.729,0.476-0.837,0.634c-0.101,0.155-0.049,0.295,0.148,0.409c0.198,0.114,0.44,0.144,0.707,0.085
									c0.273-0.062,0.636-0.221,1.092-0.487c0.451-0.262,0.723-0.472,0.824-0.626S246.24,182.306,246.036,182.188
									 M236.945,180.444l0.933-0.542l0.875,0.505l-0.933,0.542L236.945,180.444 M233.267,177.013l2.468-1.434l0.887,0.512
									l-3.596,2.09l-1.047-0.604l1.152-2.193l-2.468,1.434l-0.881-0.509l3.596-2.09l1.041,0.601L233.267,177.013 M236.583,177.001
									l0.628-0.365l1.02,0.383l0.888,0.512l-2.956,1.718l0.824,0.476l-0.641,0.373l-2.534-1.463l0.641-0.373l0.824,0.476
									l2.322-1.349L236.583,177.001 M241.428,179.799l0.628-0.365l1.02,0.383l0.888,0.512l-2.956,1.718l0.824,0.476l-0.641,0.373
									l-2.535-1.463l0.641-0.373l0.824,0.476l2.321-1.349L241.428,179.799 M242.941,183.987c-0.479-0.276-0.685-0.579-0.622-0.917
									c0.068-0.336,0.403-0.678,1-1.025s1.187-0.542,1.766-0.583c0.585-0.037,1.107,0.081,1.586,0.357s0.684,0.579,0.622,0.918
									c-0.068,0.335-0.403,0.679-1,1.025c-0.596,0.347-1.187,0.542-1.766,0.583C243.942,184.382,243.42,184.264,242.941,183.987
									 M256.859,179.575l-18.298-10.565l-17.285,10.045l18.298,10.565L256.859,179.575"/>
								<path id="N1.11" fill="#CFD0D2" d="M185.243,150.592l0.933-0.542l0.875,0.505l-0.933,0.542L185.243,150.592 M181.564,147.16
									l2.468-1.434l0.887,0.512l-3.597,2.09l-1.041-0.601l1.146-2.197l-2.467,1.434l-0.881-0.509l3.597-2.09l1.041,0.601
									L181.564,147.16 M184.88,147.149l0.628-0.365l1.02,0.383l0.888,0.512l-2.956,1.718l0.824,0.476l-0.641,0.373l-2.535-1.463
									l0.641-0.373l0.83,0.479l2.322-1.35L184.88,147.149 M189.726,149.947l0.627-0.365l1.021,0.383l0.887,0.512l-2.956,1.718
									l0.824,0.476l-0.641,0.373l-2.535-1.463l0.641-0.373l0.824,0.476l2.322-1.349L189.726,149.947 M192.931,151.797l0.627-0.365
									l1.021,0.383l0.888,0.512l-2.956,1.718l0.824,0.476l-0.641,0.373l-2.528-1.459l0.641-0.373l0.823,0.475l2.322-1.349
									L192.931,151.797 M206.255,150.356l-5.242-3.026l-15.731-9.083l-17.285,10.046l20.973,12.109L206.255,150.356"/>
								<path fill="#CFD0D2" d="M139.833,134.081l6.825-3.967l1.73,0.999l-1.7,0.988l1.711,0.988l-1.7,0.988l1.711,0.988
									l-1.707,0.992l1.718,0.992l-1.719,0.999l-3.447-1.99L139.833,134.081 M236.62,167.889l-28.418-16.408l-19.219,11.17
									l-24.862-14.355l-13.548-7.823l10.941-6.359l-15.323-8.847l5.62-3.266l-34.668-20.017l-27.935,16.234l101.796,58.776
									l40.479,23.372l40.484,23.375l5.791,3.344l11.374-6.61l-15.029-8.678l-11.601-6.698l-24.862-14.355L217.4,179.059
									L236.62,167.889"/>
								<path id="N1.08" fill="#CFD0D2" d="M297.15,209.084c-0.454-0.262-0.811-0.424-1.085-0.48c-0.268-0.059-0.496-0.029-0.699,0.089
									c-0.197,0.114-0.253,0.251-0.151,0.405c0.103,0.155,0.377,0.365,0.831,0.627c0.459,0.266,0.823,0.424,1.097,0.486
									c0.268,0.06,0.509,0.03,0.706-0.084s0.247-0.254,0.144-0.41C297.884,209.56,297.609,209.35,297.15,209.084 M299.402,206.806
									c-0.146-0.085-0.293-0.125-0.453-0.121c-0.153,0-0.305,0.044-0.445,0.125c-0.152,0.088-0.228,0.177-0.228,0.266
									c-0.005,0.092,0.064,0.177,0.211,0.262c0.141,0.081,0.288,0.122,0.453,0.121c0.152,0,0.305-0.044,0.457-0.132
									c0.14-0.081,0.216-0.169,0.215-0.258C299.613,206.972,299.543,206.887,299.402,206.806 M301.062,207.676
									c-0.18-0.103-0.364-0.158-0.542-0.158c-0.191,0-0.369,0.044-0.541,0.144c-0.177,0.103-0.259,0.21-0.259,0.321
									c0.007,0.107,0.091,0.214,0.27,0.317c0.179,0.104,0.363,0.151,0.548,0.155c0.191,0,0.368-0.052,0.546-0.155
									c0.172-0.1,0.254-0.199,0.254-0.31C301.33,207.882,301.24,207.779,301.062,207.676 M287.172,212.789l0.882-0.513
									l3.621,2.091l-1.034,0.601l-3.79-0.675l2.483,1.434l-0.882,0.513l-3.621-2.09l1.034-0.602l3.791,0.675L287.172,212.789
									 M288.988,211.934l0.665-0.586l0.881-0.513l2.976,1.718l0.818-0.476l0.645,0.373l-2.512,1.46l-0.645-0.373l0.818-0.476
									l-2.336-1.349l-0.671,0.59L288.988,211.934 M294.63,211.562l0.869-0.505l0.938,0.542l-0.869,0.505L294.63,211.562
									 M295.126,210.268c-0.601-0.347-0.939-0.689-1.011-1.025c-0.065-0.339,0.143-0.646,0.612-0.918
									c0.476-0.276,0.997-0.395,1.583-0.357c0.58,0.041,1.172,0.236,1.772,0.583c0.6,0.346,0.939,0.689,1.012,1.025
									c0.065,0.339-0.137,0.641-0.613,0.917c-0.469,0.273-0.997,0.395-1.583,0.358
									C296.319,210.81,295.726,210.614,295.126,210.268 M300.34,207.097c0.317-0.103,0.61-0.147,0.884-0.129
									c0.28,0.015,0.534,0.088,0.771,0.225c0.357,0.206,0.505,0.431,0.455,0.674c-0.056,0.247-0.315,0.501-0.778,0.77
									c-0.47,0.273-0.914,0.428-1.334,0.458c-0.426,0.033-0.814-0.051-1.172-0.258c-0.237-0.137-0.365-0.284-0.391-0.446
									c-0.033-0.158,0.042-0.328,0.22-0.512c-0.287,0.092-0.554,0.129-0.802,0.11c-0.248-0.011-0.471-0.081-0.676-0.199
									c-0.306-0.177-0.422-0.376-0.366-0.601c0.069-0.225,0.322-0.46,0.766-0.719c0.431-0.25,0.838-0.398,1.226-0.438
									s0.738,0.03,1.045,0.207c0.204,0.118,0.319,0.25,0.339,0.395C300.561,206.776,300.497,206.931,300.34,207.097
									 M308.352,209.305l-13.089-7.557l-17.285,10.046l13.088,7.557L308.352,209.305"/>
								<path id="N1.04" fill="#BDD4E4" d="M201.727,200.771l-3.25,0.365l1.315,0.759L201.727,200.771 M197.722,198.172
									c-0.255-0.147-0.555-0.188-0.904-0.111c-0.35,0.07-0.807,0.277-1.384,0.612c-0.583,0.339-0.946,0.608-1.071,0.814
									c-0.133,0.203-0.068,0.38,0.188,0.527s0.561,0.185,0.91,0.107c0.35-0.077,0.82-0.284,1.403-0.623
									c0.577-0.335,0.926-0.604,1.052-0.804C198.049,198.493,197.978,198.32,197.722,198.172 M190.157,198.309l1.198-0.696
									l1.124,0.648l-1.198,0.697L190.157,198.309 M185.429,193.896l3.171-1.843l1.137,0.656l-4.624,2.688l-1.341-0.774l1.479-2.82
									l-3.171,1.843l-1.136-0.656l4.624-2.688l1.341,0.774L185.429,193.896 M189.692,193.881l0.806-0.468l1.308,0.49l1.143,0.66
									l-3.806,2.212l1.06,0.612l-0.818,0.475l-3.256-1.88l0.818-0.475l1.06,0.612l2.995-1.74L189.692,193.881 M196.861,201.21
									l1.028-0.597l4.624-0.527l1.334,0.771l-2.917,1.696l0.664,0.383l-0.869,0.505l-0.664-0.383l-0.837,0.486l-1.137-0.656
									l0.837-0.486L196.861,201.21 M193.746,200.483c-0.613-0.354-0.883-0.744-0.796-1.18c0.081-0.431,0.51-0.874,1.271-1.316
									c0.767-0.446,1.53-0.696,2.274-0.745c0.751-0.051,1.433,0.1,2.045,0.454s0.876,0.749,0.79,1.183
									c-0.081,0.432-0.511,0.874-1.278,1.32c-0.761,0.442-1.523,0.692-2.268,0.741
									C195.033,200.993,194.358,200.837,193.746,200.483 M227.607,200.37l-38.538-22.251l-28.411,16.512l38.538,22.251
									L227.607,200.37"/>
								<path id="N1.07" fill="#BDD4E4" d="M319.297,232.058c-0.262-0.151-0.561-0.185-0.91-0.114c-0.343,0.074-0.807,0.284-1.384,0.619
									c-0.583,0.34-0.944,0.608-1.077,0.811c-0.12,0.203-0.062,0.377,0.2,0.528c0.255,0.147,0.555,0.181,0.904,0.11
									c0.35-0.078,0.819-0.284,1.402-0.623c0.577-0.336,0.933-0.608,1.059-0.808S319.553,232.205,319.297,232.058
									 M311.726,232.198l1.199-0.697l1.123,0.649l-1.198,0.696L311.726,232.198 M306.998,227.785l3.172-1.843l1.136,0.655
									l-4.624,2.688l-1.341-0.773l1.479-2.82l-3.171,1.844l-1.138-0.657l4.625-2.687l1.34,0.773L306.998,227.785 M311.262,227.771
									l0.812-0.472l1.301,0.494l1.144,0.659l-3.8,2.209l1.06,0.611l-0.824,0.479l-3.256-1.88l0.824-0.479l1.06,0.611l2.987-1.736
									L311.262,227.771 M321.476,233.484l0.876-0.509l3.512,2.027l-0.673,0.392l-5.766,1.249l-1.174-0.678l5.466-1.188
									L321.476,233.484 M315.313,234.373c-0.612-0.354-0.875-0.748-0.795-1.18c0.087-0.436,0.51-0.874,1.277-1.32
									s1.524-0.692,2.274-0.744c0.745-0.048,1.427,0.104,2.039,0.457c0.607,0.351,0.87,0.744,0.796,1.18
									c-0.087,0.435-0.511,0.873-1.278,1.319s-1.523,0.693-2.273,0.745C316.603,234.874,315.921,234.723,315.313,234.373
									 M348.191,232.309l-37.893-21.879l-30.594,17.779l37.893,21.879L348.191,232.309"/>
								<path id="N1.06" fill="#BDD4E4" d="M285.189,250.541c-0.21-0.121-0.433-0.177-0.669-0.158c-0.249,0.019-0.502,0.107-0.768,0.262
									c-0.273,0.159-0.426,0.306-0.45,0.446c-0.037,0.14,0.059,0.269,0.27,0.391c0.211,0.121,0.434,0.177,0.676,0.154
									c0.235-0.018,0.496-0.103,0.769-0.261c0.266-0.155,0.412-0.307,0.449-0.446
									C285.496,250.792,285.399,250.663,285.189,250.541 M282.587,247.172c-0.256-0.147-0.555-0.188-0.905-0.11
									c-0.35,0.069-0.807,0.276-1.384,0.611c-0.583,0.339-0.945,0.608-1.071,0.815c-0.132,0.203-0.067,0.38,0.188,0.527
									c0.255,0.146,0.561,0.184,0.91,0.106s0.82-0.284,1.403-0.623c0.577-0.335,0.926-0.604,1.052-0.804
									C282.912,247.492,282.842,247.319,282.587,247.172 M275.021,247.309l1.198-0.697l1.124,0.649l-1.198,0.696L275.021,247.309
									 M270.293,242.896l3.171-1.843l1.137,0.656l-4.624,2.688l-1.335-0.771l1.473-2.823l-3.171,1.843l-1.137-0.656l4.624-2.687
									l1.341,0.774L270.293,242.896 M274.557,242.881l0.806-0.468l1.307,0.49l1.143,0.659l-3.806,2.213l1.06,0.611l-0.818,0.476
									l-3.256-1.88l0.818-0.476l1.06,0.612l2.994-1.74L274.557,242.881 M282.811,251.909c-0.607-0.351-0.877-0.733-0.803-1.161
									c0.074-0.428,0.485-0.859,1.233-1.294c0.761-0.442,1.556-0.683,2.383-0.712c0.821-0.025,1.573,0.151,2.25,0.542
									c0.21,0.122,0.402,0.255,0.568,0.388c0.173,0.136,0.32,0.28,0.454,0.431l-0.856,0.498c-0.109-0.166-0.225-0.313-0.353-0.439
									c-0.134-0.129-0.274-0.239-0.44-0.335c-0.358-0.206-0.74-0.31-1.134-0.31c-0.401-0.004-0.808,0.1-1.227,0.306
									c0.236,0.019,0.465,0.063,0.675,0.125c0.211,0.063,0.408,0.147,0.6,0.259c0.472,0.272,0.722,0.579,0.73,0.907
									c0.021,0.328-0.2,0.626-0.644,0.885c-0.495,0.287-1.061,0.424-1.684,0.408C283.94,252.392,283.359,252.226,282.811,251.909
									 M278.61,249.483c-0.613-0.354-0.883-0.744-0.796-1.18c0.08-0.432,0.51-0.874,1.271-1.315
									c0.768-0.446,1.529-0.697,2.274-0.745c0.75-0.052,1.433,0.1,2.046,0.453c0.612,0.354,0.875,0.748,0.789,1.184
									c-0.08,0.432-0.511,0.873-1.278,1.319c-0.762,0.442-1.523,0.693-2.267,0.741
									C279.897,249.992,279.222,249.837,278.61,249.483 M315.663,251.212l-39.84-23.003l-5.791-3.344l-28.411,16.512
									l45.631,26.347L315.663,251.212"/>
								<path id="N1.05" fill="#BDD4E4" d="M239.184,222.111c-0.261-0.15-0.554-0.188-0.91-0.113c-0.343,0.073-0.801,0.279-1.378,0.615
									c-0.583,0.339-0.945,0.608-1.077,0.812c-0.126,0.206-0.068,0.379,0.194,0.53c0.255,0.147,0.555,0.181,0.911,0.107
									c0.35-0.078,0.82-0.284,1.403-0.623c0.577-0.336,0.926-0.605,1.052-0.804C239.51,222.433,239.439,222.26,239.184,222.111
									 M231.618,222.248l1.199-0.696l1.124,0.648l-1.198,0.696L231.618,222.248 M226.89,217.836l3.171-1.844l1.137,0.656
									l-4.624,2.688l-1.34-0.774l1.479-2.819l-3.171,1.843l-1.137-0.656l4.624-2.688l1.341,0.774L226.89,217.836 M231.154,217.82
									l0.806-0.468l1.307,0.49l1.144,0.66l-3.807,2.212l1.06,0.612l-0.817,0.475l-3.256-1.88l0.817-0.475l1.06,0.611l2.994-1.74
									L231.154,217.82 M239.886,224.685l2.607-1.515l2.988,1.726l-0.882,0.512l-2.031-1.172l-0.71,0.413
									c0.121,0.04,0.229,0.081,0.338,0.129c0.102,0.044,0.204,0.096,0.307,0.154c0.568,0.328,0.869,0.664,0.896,1.011
									c0.04,0.347-0.2,0.663-0.708,0.958c-0.495,0.287-1.054,0.42-1.684,0.387c-0.625-0.036-1.242-0.232-1.855-0.586
									c-0.261-0.151-0.504-0.312-0.709-0.49c-0.211-0.181-0.384-0.376-0.538-0.582l0.939-0.546
									c0.103,0.229,0.238,0.432,0.392,0.608c0.153,0.17,0.333,0.317,0.537,0.435c0.287,0.166,0.593,0.255,0.898,0.27
									c0.306,0.015,0.58-0.048,0.82-0.188c0.247-0.144,0.354-0.302,0.328-0.479s-0.187-0.351-0.474-0.517
									c-0.172-0.1-0.376-0.195-0.619-0.284C240.485,224.84,240.211,224.763,239.886,224.685 M235.207,224.423
									c-0.613-0.354-0.883-0.744-0.796-1.18c0.08-0.431,0.511-0.873,1.271-1.315c0.768-0.446,1.53-0.697,2.274-0.745
									c0.751-0.052,1.433,0.1,2.045,0.453c0.613,0.354,0.87,0.745,0.783,1.181c-0.074,0.435-0.504,0.877-1.271,1.323
									c-0.761,0.442-1.523,0.692-2.274,0.737C236.488,224.929,235.82,224.777,235.207,224.423 M268.085,223.741l-38.537-22.251
									l-28.411,16.512l38.537,22.251L268.085,223.741"/>
								<polyline fill="#C5C6C8" points="101.564,108.707 86.787,108.707 86.835,117.267 90.102,115.368 101.564,108.707 								
									"/>
								<polyline fill="#FFFFFF" points="89.652,134.921 88.515,134.265 85.344,136.108 86.824,133.288 85.482,132.514
									80.859,135.201 81.995,135.857 85.167,134.014 83.687,136.834 85.028,137.608 89.652,134.921 								"/>
								<polyline fill="#FFFFFF" points="92.863,136.775 91.72,136.116 90.413,135.625 89.607,136.093 90.915,136.591
									87.92,138.331 86.861,137.719 86.043,138.194 89.299,140.075 90.117,139.6 89.057,138.987 92.863,136.775 								"/>
								<polyline fill="#FFFFFF" points="92.387,140.469 91.27,139.824 90.072,140.521 91.189,141.166 92.387,140.469 								"/>
								<path fill="#FFFFFF" d="M94.466,142.228c-0.262-0.151-0.327-0.328-0.194-0.531s0.488-0.476,1.071-0.815
									c0.577-0.335,1.041-0.538,1.384-0.612c0.35-0.077,0.649-0.037,0.911,0.114c0.255,0.147,0.327,0.321,0.194,0.523
									c-0.126,0.199-0.481,0.465-1.058,0.8c-0.583,0.339-1.047,0.549-1.397,0.626C95.02,142.408,94.721,142.375,94.466,142.228
									 M98.456,139.909c-0.613-0.354-1.301-0.508-2.052-0.457c-0.744,0.048-1.506,0.299-2.274,0.745
									c-0.761,0.442-1.191,0.885-1.271,1.316c-0.087,0.436,0.189,0.83,0.802,1.183c0.606,0.351,1.281,0.506,2.032,0.454
									c0.745-0.048,1.506-0.298,2.268-0.741c0.768-0.446,1.198-0.889,1.278-1.32C99.325,140.653,99.062,140.259,98.456,139.909"/>
								<polyline fill="#FFFFFF" points="103.212,142.751 102.07,142.091 100.763,141.601 99.957,142.069 101.265,142.567
									98.27,144.307 97.21,143.695 96.393,144.17 99.648,146.05 100.466,145.575 99.406,144.963 103.212,142.751 								"/>
								<polyline fill="#FFFFFF" points="146.985,168.025 145.843,167.365 142.671,169.208 144.15,166.388 142.81,165.614
									138.186,168.301 139.329,168.961 142.5,167.118 141.021,169.938 142.361,170.712 146.985,168.025 								"/>
								<polyline fill="#FFFFFF" points="150.19,169.875 149.054,169.219 147.741,168.726 146.935,169.193 148.249,169.695
									145.254,171.435 144.194,170.823 143.377,171.298 146.626,173.175 147.444,172.7 146.384,172.087 150.19,169.875
									"/>
								<polyline fill="#FFFFFF" points="149.721,173.573 148.597,172.924 147.399,173.621 148.522,174.27 149.721,173.573
									"/>
								<path fill="#FFFFFF" d="M151.793,175.328c-0.255-0.147-0.32-0.324-0.188-0.527c0.132-0.203,0.488-0.476,1.071-0.815
									c0.577-0.335,1.04-0.538,1.384-0.612c0.349-0.078,0.649-0.037,0.904,0.11c0.262,0.151,0.326,0.321,0.194,0.523
									c-0.12,0.203-0.475,0.468-1.052,0.804c-0.583,0.339-1.054,0.546-1.403,0.623
									C152.354,175.512,152.048,175.475,151.793,175.328 M155.783,173.009c-0.613-0.354-1.295-0.505-2.046-0.453
									c-0.744,0.048-1.506,0.298-2.274,0.745c-0.761,0.442-1.191,0.885-1.271,1.316c-0.087,0.435,0.183,0.826,0.796,1.18
									c0.613,0.354,1.288,0.509,2.039,0.457c0.744-0.048,1.506-0.298,2.268-0.741c0.768-0.446,1.198-0.889,1.278-1.32
									C156.659,173.757,156.396,173.363,155.783,173.009"/>
								<path fill="#FFFFFF" d="M159.703,175.272c-0.224-0.129-0.473-0.251-0.741-0.369c-0.261-0.114-0.548-0.221-0.848-0.321
									l-0.875,0.509c0.28,0.066,0.535,0.14,0.778,0.229c0.242,0.088,0.459,0.192,0.65,0.302c0.262,0.151,0.422,0.295,0.461,0.435
									c0.052,0.14-0.018,0.262-0.195,0.365c-0.19,0.111-0.4,0.151-0.648,0.118c-0.242-0.03-0.51-0.133-0.81-0.306l-0.504-0.291
									l-0.768,0.446l0.479,0.276c0.338,0.195,0.537,0.376,0.602,0.538c0.07,0.166-0.005,0.306-0.22,0.431
									c-0.203,0.118-0.439,0.159-0.725,0.125c-0.274-0.033-0.573-0.14-0.893-0.324c-0.217-0.125-0.402-0.269-0.562-0.428
									c-0.167-0.162-0.307-0.339-0.417-0.535l-0.92,0.535c0.161,0.181,0.333,0.354,0.538,0.509
									c0.198,0.166,0.428,0.313,0.664,0.449c0.677,0.391,1.308,0.624,1.9,0.686c0.592,0.07,1.114-0.033,1.576-0.302
									c0.305-0.177,0.475-0.372,0.519-0.583c0.031-0.21-0.066-0.427-0.296-0.656c0.351,0.122,0.682,0.173,0.994,0.155
									c0.318-0.015,0.61-0.103,0.883-0.262c0.393-0.229,0.544-0.486,0.441-0.774C160.655,175.939,160.31,175.623,159.703,175.272"
									/>
								<polyline fill="#FFFFFF" points="189.737,192.709 188.6,192.053 185.429,193.896 186.909,191.076 185.567,190.302
									180.944,192.989 182.08,193.646 185.251,191.802 183.772,194.622 185.113,195.396 189.737,192.709 								"/>
								<polyline fill="#FFFFFF" points="192.948,194.563 191.806,193.903 190.498,193.413 189.692,193.881 191,194.379
									188.005,196.119 186.946,195.507 186.128,195.982 189.384,197.862 190.202,197.387 189.142,196.775 192.948,194.563
																	"/>
								<polyline fill="#FFFFFF" points="192.479,198.261 191.355,197.612 190.157,198.309 191.28,198.958 192.479,198.261
									"/>
								<path fill="#FFFFFF" d="M194.551,200.016c-0.255-0.147-0.32-0.324-0.188-0.527c0.125-0.206,0.488-0.476,1.071-0.814
									c0.577-0.335,1.034-0.542,1.384-0.612c0.349-0.077,0.648-0.037,0.904,0.111s0.327,0.321,0.194,0.523
									c-0.126,0.199-0.475,0.468-1.052,0.804c-0.583,0.339-1.054,0.546-1.403,0.623
									C195.112,200.2,194.806,200.163,194.551,200.016 M198.541,197.697c-0.613-0.354-1.294-0.505-2.045-0.454
									c-0.744,0.048-1.507,0.299-2.274,0.745c-0.761,0.442-1.191,0.885-1.271,1.316c-0.087,0.436,0.183,0.826,0.796,1.18
									c0.613,0.354,1.288,0.509,2.039,0.458c0.744-0.048,1.507-0.298,2.268-0.741c0.768-0.446,1.198-0.889,1.278-1.32
									C199.417,198.445,199.153,198.051,198.541,197.697"/>
								<path fill="#FFFFFF" d="M198.478,201.136l3.25-0.365l-1.934,1.124L198.478,201.136 M203.847,200.856l-1.334-0.771
									l-4.624,0.527l-1.028,0.597l2.062,1.191l-0.837,0.486l1.137,0.656l0.837-0.486l0.664,0.383l0.869-0.505l-0.664-0.383
									L203.847,200.856"/>
								<polyline fill="#FFFFFF" points="231.198,216.648 230.062,215.992 226.89,217.836 228.37,215.016 227.029,214.241
									222.405,216.929 223.542,217.585 226.713,215.742 225.234,218.562 226.574,219.336 231.198,216.648 								"/>
								<polyline fill="#FFFFFF" points="234.41,218.503 233.267,217.843 231.96,217.353 231.154,217.82 232.461,218.318
									229.467,220.059 228.407,219.447 227.59,219.922 230.846,221.802 231.663,221.327 230.604,220.715 234.41,218.503
									"/>
								<polyline fill="#FFFFFF" points="233.94,222.2 232.817,221.552 231.618,222.248 232.742,222.896 233.94,222.2 								"/>
								<path fill="#FFFFFF" d="M236.012,223.955c-0.262-0.151-0.32-0.324-0.194-0.53c0.132-0.203,0.494-0.473,1.077-0.812
									c0.577-0.336,1.035-0.542,1.378-0.615c0.356-0.074,0.649-0.037,0.91,0.113c0.256,0.148,0.327,0.321,0.194,0.524
									c-0.126,0.198-0.475,0.468-1.052,0.804c-0.583,0.339-1.054,0.545-1.403,0.623
									C236.567,224.136,236.268,224.103,236.012,223.955 M240.002,221.636c-0.612-0.354-1.294-0.505-2.045-0.453
									c-0.744,0.048-1.506,0.299-2.274,0.745c-0.761,0.442-1.191,0.885-1.271,1.315c-0.087,0.436,0.183,0.826,0.796,1.18
									c0.613,0.354,1.281,0.506,2.033,0.454c0.75-0.045,1.513-0.295,2.274-0.737c0.767-0.446,1.198-0.889,1.271-1.323
									C240.872,222.381,240.615,221.99,240.002,221.636"/>
								<path fill="#FFFFFF" d="M245.481,224.896l-2.988-1.726l-2.607,1.515c0.325,0.078,0.599,0.155,0.841,0.243
									c0.243,0.089,0.446,0.185,0.619,0.284c0.288,0.166,0.448,0.34,0.474,0.517s-0.081,0.335-0.328,0.479
									c-0.241,0.141-0.515,0.203-0.82,0.188c-0.305-0.015-0.611-0.104-0.898-0.27c-0.205-0.117-0.384-0.265-0.537-0.435
									c-0.154-0.177-0.289-0.38-0.392-0.608l-0.939,0.546c0.154,0.206,0.327,0.401,0.538,0.582
									c0.205,0.178,0.448,0.339,0.709,0.49c0.613,0.354,1.231,0.55,1.855,0.586c0.63,0.033,1.189-0.1,1.684-0.387
									c0.507-0.295,0.748-0.611,0.708-0.958c-0.028-0.347-0.329-0.683-0.896-1.011c-0.103-0.059-0.205-0.11-0.307-0.154
									c-0.108-0.048-0.217-0.089-0.338-0.129l0.71-0.413l2.031,1.172L245.481,224.896"/>
								<polyline fill="#FFFFFF" points="274.601,241.709 273.464,241.053 270.293,242.896 271.772,240.076 270.432,239.302
									265.808,241.988 266.944,242.645 270.116,240.802 268.643,243.625 269.978,244.396 274.601,241.709 								"/>
								<polyline fill="#FFFFFF" points="277.812,243.562 276.669,242.903 275.362,242.413 274.557,242.881 275.864,243.379
									272.87,245.119 271.81,244.507 270.992,244.982 274.248,246.862 275.066,246.387 274.006,245.775 277.812,243.562
									"/>
								<polyline fill="#FFFFFF" points="277.343,247.261 276.219,246.611 275.021,247.309 276.145,247.957 277.343,247.261
																	"/>
								<path fill="#FFFFFF" d="M279.415,249.016c-0.255-0.147-0.32-0.324-0.188-0.527c0.126-0.207,0.488-0.477,1.071-0.815
									c0.577-0.335,1.035-0.542,1.384-0.611c0.35-0.077,0.649-0.037,0.905,0.11c0.255,0.147,0.325,0.32,0.193,0.523
									c-0.126,0.199-0.475,0.469-1.052,0.804c-0.583,0.339-1.054,0.546-1.403,0.623S279.67,249.162,279.415,249.016
									 M283.405,246.696c-0.613-0.354-1.295-0.505-2.046-0.453c-0.745,0.048-1.506,0.299-2.274,0.745
									c-0.761,0.441-1.192,0.884-1.271,1.315c-0.087,0.436,0.183,0.825,0.796,1.18c0.612,0.354,1.287,0.509,2.039,0.457
									c0.744-0.048,1.505-0.299,2.267-0.741c0.767-0.446,1.198-0.888,1.278-1.319C284.28,247.444,284.018,247.05,283.405,246.696"
									/>
								<path fill="#FFFFFF" d="M283.571,251.481c-0.21-0.122-0.307-0.251-0.27-0.391c0.024-0.141,0.177-0.287,0.45-0.446
									c0.266-0.154,0.52-0.243,0.768-0.262c0.236-0.019,0.458,0.037,0.669,0.158c0.21,0.122,0.307,0.251,0.276,0.388
									c-0.037,0.14-0.183,0.291-0.449,0.446c-0.273,0.158-0.534,0.243-0.769,0.261
									C284.005,251.658,283.782,251.603,283.571,251.481 M287.874,249.284c-0.677-0.391-1.429-0.567-2.25-0.542
									c-0.827,0.029-1.622,0.27-2.383,0.712c-0.748,0.435-1.159,0.866-1.233,1.294c-0.075,0.428,0.196,0.811,0.803,1.161
									c0.548,0.316,1.129,0.482,1.752,0.497c0.624,0.016,1.189-0.121,1.684-0.408c0.444-0.259,0.665-0.557,0.644-0.885
									c-0.008-0.328-0.258-0.635-0.73-0.907c-0.192-0.111-0.389-0.195-0.6-0.259c-0.21-0.062-0.439-0.106-0.675-0.125
									c0.419-0.206,0.826-0.31,1.227-0.306c0.395,0,0.776,0.104,1.134,0.31c0.166,0.096,0.306,0.206,0.44,0.335
									c0.128,0.126,0.244,0.273,0.353,0.439l0.856-0.498c-0.134-0.15-0.281-0.295-0.454-0.431
									C288.276,249.539,288.084,249.406,287.874,249.284"/>
								<polyline fill="#FFFFFF" points="311.306,226.598 310.17,225.942 306.998,227.785 308.477,224.965 307.137,224.191
									302.512,226.878 303.649,227.535 306.82,225.691 305.341,228.512 306.682,229.285 311.306,226.598 								"/>
								<polyline fill="#FFFFFF" points="314.518,228.452 313.374,227.793 312.073,227.299 311.262,227.771 312.568,228.268
									309.581,230.004 308.521,229.393 307.697,229.872 310.953,231.752 311.777,231.272 310.718,230.661 314.518,228.452
																	"/>
								<polyline fill="#FFFFFF" points="314.048,232.15 312.925,231.501 311.726,232.198 312.85,232.847 314.048,232.15
									"/>
								<path fill="#FFFFFF" d="M316.126,233.901c-0.262-0.151-0.32-0.325-0.2-0.528c0.133-0.202,0.494-0.471,1.077-0.811
									c0.577-0.335,1.041-0.545,1.384-0.619c0.35-0.07,0.648-0.037,0.91,0.114c0.256,0.147,0.32,0.324,0.194,0.523
									s-0.481,0.472-1.059,0.808c-0.583,0.339-1.053,0.545-1.402,0.623C316.681,234.082,316.381,234.049,316.126,233.901
									 M320.109,231.586c-0.612-0.354-1.294-0.505-2.039-0.457c-0.75,0.052-1.507,0.298-2.274,0.744s-1.19,0.885-1.277,1.32
									c-0.08,0.432,0.183,0.826,0.795,1.18c0.607,0.35,1.289,0.501,2.04,0.457c0.75-0.052,1.506-0.299,2.273-0.745
									s1.191-0.885,1.278-1.319C320.979,232.33,320.717,231.937,320.109,231.586"/>
								<polyline fill="#FFFFFF" points="325.863,235.003 322.352,232.976 321.476,233.484 323.717,234.778 318.251,235.966
									319.425,236.644 325.19,235.395 325.863,235.003 								"/>
								<polyline fill="#FFFFFF" points="258.387,188.658 257.499,188.146 255.032,189.579 256.184,187.386 255.137,186.781
									251.54,188.872 252.428,189.384 254.896,187.95 253.743,190.144 254.79,190.748 258.387,188.658 								"/>
								<polyline fill="#FFFFFF" points="260.883,190.099 259.996,189.587 258.975,189.203 258.348,189.568 259.361,189.955
									257.04,191.305 256.216,190.829 255.576,191.202 258.11,192.665 258.751,192.292 257.927,191.817 260.883,190.099
									"/>
								<polyline fill="#FFFFFF" points="260.511,192.971 259.643,192.47 258.71,193.012 259.579,193.513 260.511,192.971
									"/>
								<path fill="#FFFFFF" d="M262.129,194.338c-0.205-0.118-0.25-0.254-0.149-0.409c0.101-0.162,0.374-0.372,0.831-0.638
									c0.45-0.262,0.812-0.42,1.085-0.476c0.267-0.059,0.496-0.029,0.7,0.088c0.198,0.115,0.25,0.247,0.155,0.406
									c-0.101,0.155-0.374,0.365-0.824,0.626c-0.457,0.266-0.819,0.424-1.092,0.487
									C262.562,194.479,262.327,194.453,262.129,194.338 M265.231,192.536c-0.479-0.276-1.008-0.398-1.587-0.357
									c-0.585,0.037-1.176,0.232-1.772,0.579c-0.597,0.347-0.932,0.689-0.994,1.028c-0.068,0.336,0.144,0.642,0.623,0.918
									c0.473,0.273,1.001,0.395,1.58,0.354c0.585-0.037,1.176-0.232,1.772-0.579c0.596-0.346,0.932-0.689,0.993-1.028
									C265.915,193.115,265.703,192.809,265.231,192.536"/>
								<path fill="#FFFFFF" d="M266.5,195.415c-0.16-0.092-0.224-0.195-0.205-0.302c0.025-0.111,0.138-0.229,0.348-0.351
									c0.209-0.122,0.412-0.188,0.597-0.199c0.19-0.015,0.363,0.026,0.522,0.118c0.166,0.096,0.237,0.195,0.212,0.306
									c-0.019,0.107-0.132,0.225-0.342,0.347c-0.209,0.122-0.413,0.188-0.604,0.203
									C266.845,195.548,266.667,195.511,266.5,195.415 M268.353,194.346c-0.421-0.243-0.874-0.372-1.364-0.383
									c-0.483-0.015-0.922,0.092-1.309,0.317c-0.355,0.207-0.52,0.435-0.505,0.693c0.008,0.254,0.2,0.49,0.57,0.704
									c0.146,0.084,0.306,0.147,0.472,0.199c0.159,0.048,0.338,0.077,0.529,0.099c-0.33,0.155-0.648,0.236-0.953,0.236
									c-0.312-0.003-0.599-0.081-0.88-0.243c-0.134-0.077-0.255-0.162-0.351-0.262c-0.103-0.096-0.199-0.21-0.275-0.335
									l-0.666,0.387c0.096,0.114,0.217,0.221,0.345,0.324c0.135,0.107,0.282,0.207,0.454,0.306
									c0.523,0.302,1.109,0.442,1.752,0.424c0.643-0.026,1.259-0.206,1.855-0.553c0.577-0.335,0.894-0.675,0.949-1.003
									C269.03,194.921,268.825,194.619,268.353,194.346"/>
								<polyline fill="#FFFFFF" points="236.622,176.091 235.734,175.579 233.267,177.013 234.419,174.819 233.378,174.218
									229.782,176.309 230.663,176.817 233.13,175.383 231.978,177.577 233.025,178.181 236.622,176.091 								"/>
								<polyline fill="#FFFFFF" points="239.118,177.532 238.23,177.02 237.21,176.637 236.583,177.001 237.597,177.389
									235.275,178.738 234.451,178.262 233.811,178.635 236.345,180.098 236.986,179.726 236.162,179.25 239.118,177.532
									"/>
								<polyline fill="#FFFFFF" points="238.752,180.408 237.878,179.902 236.945,180.444 237.82,180.95 238.752,180.408
									"/>
								<polyline fill="#FFFFFF" points="243.964,180.33 243.076,179.818 242.056,179.435 241.428,179.799 242.442,180.187
									240.121,181.536 239.297,181.06 238.656,181.433 241.191,182.896 241.832,182.523 241.008,182.048 243.964,180.33
									"/>
								<path fill="#FFFFFF" d="M243.568,183.622c-0.197-0.114-0.249-0.254-0.148-0.409c0.107-0.158,0.38-0.369,0.837-0.634
									c0.45-0.262,0.812-0.42,1.079-0.479c0.267-0.059,0.502-0.025,0.7,0.088c0.204,0.118,0.256,0.251,0.155,0.406
									s-0.373,0.365-0.824,0.626c-0.457,0.266-0.819,0.424-1.092,0.487C244.009,183.766,243.767,183.736,243.568,183.622
									 M246.671,181.819c-0.479-0.276-1.001-0.395-1.586-0.357c-0.579,0.041-1.17,0.236-1.766,0.583s-0.932,0.689-1,1.025
									c-0.062,0.339,0.144,0.641,0.622,0.917c0.479,0.277,1.001,0.395,1.587,0.358c0.579-0.041,1.169-0.236,1.766-0.583
									c0.596-0.346,0.932-0.689,1-1.025C247.355,182.398,247.15,182.096,246.671,181.819"/>
								<polyline fill="#FFFFFF" points="184.919,146.238 184.032,145.726 181.564,147.16 182.716,144.967 181.676,144.366
									178.079,146.456 178.96,146.965 181.428,145.531 180.282,147.728 181.322,148.329 184.919,146.238 								"/>
								<polyline fill="#FFFFFF" points="187.416,147.68 186.528,147.167 185.508,146.784 184.88,147.149 185.9,147.54
									183.579,148.889 182.749,148.41 182.107,148.782 184.643,150.246 185.283,149.873 184.459,149.397 187.416,147.68
									"/>
								<polyline fill="#FFFFFF" points="187.05,150.555 186.175,150.05 185.243,150.592 186.117,151.097 187.05,150.555
									"/>
								<polyline fill="#FFFFFF" points="192.261,150.478 191.374,149.965 190.354,149.582 189.726,149.947 190.74,150.334
									188.418,151.683 187.594,151.208 186.954,151.58 189.488,153.043 190.129,152.671 189.306,152.195 192.261,150.478
									"/>
								<polyline fill="#FFFFFF" points="195.467,152.328 194.579,151.816 193.559,151.433 192.931,151.797 193.951,152.188
									191.629,153.537 190.806,153.062 190.165,153.435 192.693,154.894 193.334,154.521 192.511,154.046 195.467,152.328
																	"/>
								<polyline fill="#FFFFFF" points="291.675,214.367 288.054,212.276 287.172,212.789 289.656,214.223 285.866,213.548
									284.832,214.149 288.452,216.239 289.334,215.727 286.851,214.293 290.641,214.968 291.675,214.367 								"/>
								<polyline fill="#FFFFFF" points="294.973,212.45 294.328,212.077 293.51,212.553 290.534,210.835 289.653,211.348
									288.988,211.934 289.626,212.303 290.298,211.713 292.634,213.062 291.816,213.537 292.461,213.91 294.973,212.45
									"/>
								<polyline fill="#FFFFFF" points="296.438,211.599 295.5,211.057 294.63,211.562 295.569,212.104 296.438,211.599
									"/>
								<path fill="#FFFFFF" d="M296.046,209.726c-0.454-0.262-0.729-0.472-0.831-0.627c-0.103-0.154-0.046-0.291,0.151-0.405
									c0.203-0.118,0.432-0.147,0.699-0.089c0.274,0.056,0.631,0.218,1.085,0.48c0.459,0.265,0.734,0.475,0.843,0.633
									c0.103,0.155,0.053,0.295-0.144,0.41s-0.438,0.144-0.706,0.084C296.869,210.149,296.505,209.991,296.046,209.726
									 M298.082,208.55c-0.601-0.347-1.193-0.542-1.772-0.583c-0.585-0.037-1.107,0.081-1.583,0.357
									c-0.469,0.272-0.677,0.579-0.612,0.918c0.072,0.335,0.41,0.678,1.011,1.025c0.6,0.346,1.193,0.542,1.772,0.583
									c0.586,0.037,1.113-0.085,1.583-0.358c0.476-0.276,0.678-0.579,0.613-0.917C299.021,209.239,298.682,208.896,298.082,208.55
									"/>
								<path fill="#FFFFFF" d="M298.489,207.337c-0.147-0.085-0.217-0.169-0.211-0.262c0-0.089,0.076-0.177,0.228-0.266
									c0.14-0.081,0.292-0.125,0.445-0.125c0.16-0.004,0.306,0.036,0.453,0.121c0.141,0.081,0.211,0.167,0.211,0.262
									c0.001,0.089-0.075,0.177-0.215,0.258c-0.152,0.088-0.305,0.133-0.457,0.132
									C298.776,207.458,298.629,207.418,298.489,207.337 M299.99,208.299c-0.179-0.103-0.263-0.21-0.27-0.317
									c0-0.111,0.082-0.218,0.259-0.321c0.172-0.1,0.35-0.144,0.541-0.144c0.178,0,0.362,0.055,0.542,0.158
									c0.178,0.104,0.268,0.207,0.275,0.313c0,0.111-0.082,0.21-0.254,0.31c-0.178,0.103-0.354,0.155-0.546,0.155
									C300.354,208.45,300.169,208.402,299.99,208.299 M301.995,207.193c-0.237-0.137-0.491-0.21-0.771-0.225
									c-0.273-0.019-0.566,0.026-0.884,0.129c0.157-0.166,0.221-0.321,0.188-0.464c-0.02-0.144-0.135-0.277-0.339-0.395
									c-0.307-0.177-0.657-0.247-1.045-0.207s-0.795,0.188-1.226,0.438c-0.444,0.258-0.697,0.494-0.766,0.719
									c-0.056,0.225,0.06,0.424,0.366,0.601c0.205,0.118,0.428,0.188,0.676,0.199c0.248,0.019,0.515-0.019,0.802-0.11
									c-0.178,0.184-0.253,0.354-0.22,0.512c0.026,0.162,0.154,0.31,0.391,0.446c0.357,0.207,0.746,0.291,1.172,0.258
									c0.42-0.03,0.864-0.185,1.334-0.458c0.463-0.269,0.723-0.523,0.778-0.77C302.5,207.625,302.353,207.399,301.995,207.193"/>
								<polyline fill="#FFFFFF" points="118.21,158.245 113.556,155.558 112.421,156.217 115.613,158.061 110.739,157.194
									109.407,157.968 114.062,160.656 115.197,159.996 112.005,158.152 116.878,159.019 118.21,158.245 								"/>
								<polyline fill="#FFFFFF" points="122.447,155.782 121.618,155.303 120.565,155.915 116.74,153.707 115.611,154.363
									114.756,155.119 115.573,155.591 116.435,154.832 119.441,156.568 118.389,157.18 119.218,157.659 122.447,155.782
									"/>
								<polyline fill="#FFFFFF" points="124.331,154.688 123.125,153.991 122.008,154.64 123.215,155.336 124.331,154.688
									"/>
								<path fill="#FFFFFF" d="M123.828,152.28c-0.581-0.335-0.933-0.604-1.067-0.807c-0.129-0.199-0.066-0.376,0.188-0.523
									c0.26-0.151,0.559-0.185,0.903-0.111c0.357,0.074,0.816,0.28,1.397,0.616c0.587,0.339,0.945,0.612,1.08,0.815
									c0.128,0.199,0.065,0.376-0.188,0.523c-0.253,0.147-0.559,0.184-0.903,0.11C124.888,152.826,124.415,152.619,123.828,152.28
									 M126.448,150.765c-0.772-0.446-1.531-0.693-2.283-0.745c-0.745-0.048-1.424,0.104-2.034,0.457
									c-0.609,0.354-0.868,0.749-0.783,1.18c0.092,0.435,0.521,0.874,1.293,1.32c0.772,0.446,1.532,0.693,2.283,0.745
									c0.745,0.048,1.425-0.104,2.034-0.457c0.609-0.354,0.868-0.748,0.783-1.18C127.649,151.65,127.22,151.211,126.448,150.765"
									/>
								<path fill="#FFFFFF" d="M132.622,149.869l-0.881-0.508l-2.036,1.183l0.115-1.08c0.055-0.453,0.034-0.781-0.063-0.984
									c-0.084-0.203-0.257-0.376-0.512-0.523c-0.441-0.254-0.932-0.361-1.485-0.32c-0.554,0.033-1.106,0.214-1.658,0.534
									c-0.253,0.147-0.481,0.31-0.697,0.487c-0.222,0.181-0.418,0.376-0.595,0.582l1.022,0.59c0.094-0.24,0.213-0.442,0.353-0.62
									c0.145-0.173,0.304-0.317,0.487-0.424c0.241-0.14,0.508-0.214,0.788-0.221c0.268-0.007,0.522,0.052,0.739,0.177
									c0.141,0.082,0.243,0.185,0.301,0.299c0.064,0.118,0.084,0.262,0.066,0.428l-0.187,1.847l0.881,0.509L132.622,149.869"/>
								<polyline fill="#FFFFFF" points="148.389,131.113 146.658,130.114 139.833,134.081 143.255,136.057 146.703,138.047
									148.422,137.048 146.704,136.057 148.411,135.065 146.699,134.077 148.399,133.089 146.688,132.101 148.389,131.113
																	"/>
							</g>
						</g>
					</g>
				</g>
			</g>
		</g>
	</g>
	<g>
		<path fill="#FFFFFF" d="M79.35,132.738h0.609H79.35z M79.35,128.972h0.609H79.35z"/>
	</g>
	<g>
		<polygon fill="#EC7404" stroke="#FFFFFF" stroke-width="0.5" points="243.703,-16.931 247.115,-16.931 245.545,-5.155 		"/>
		<circle fill="#EC7404" cx="245.409" cy="-25.963" r="9.731"/>
		<polygon fill="none" stroke="#FFFFFF" stroke-width="0.5" points="249.279,-28.789 245.409,-33.464 241.54,-28.789
			243.493,-28.789 243.493,-23.667 247.326,-23.667 247.326,-28.789 		"/>
		<text transform="matrix(1 0 0 1 243.7402 -18.083)" fill="#FFFFFF" font-family="'DejaVuSansCondensed-Bold'" font-size="5">€</text>
	</g>
	<g>
		<polygon fill="#EC7404" stroke="#FFFFFF" stroke-width="0.5" points="269.275,-16.931 272.688,-16.931 271.118,-5.155 		"/>
		<circle fill="#EC7404" cx="270.981" cy="-25.963" r="9.731"/>
		<polygon fill="none" stroke="#FFFFFF" stroke-width="0.5" points="274.851,-28.789 270.981,-33.464 267.112,-28.789
			269.065,-28.789 269.065,-23.667 272.898,-23.667 272.898,-28.789 		"/>
		<rect x="269.294" y="-22.406" fill="none" width="8" height="3.833"/>
		<text transform="matrix(1 0 0 1 269.2944 -18.6069)" fill="#FFFFFF" font-family="'DejaVuSansCondensed-Bold'" font-size="5">P</text>
	</g>
	<g>
		<polygon fill="#EC7404" stroke="#FFFFFF" stroke-width="0.5" points="294.847,-16.931 298.259,-16.931 296.69,-5.155 		"/>
		<circle fill="#EC7404" cx="296.553" cy="-25.963" r="9.732"/>
		<polygon fill="none" stroke="#FFFFFF" stroke-width="0.5" points="300.424,-28.789 296.553,-33.464 292.684,-28.789
			294.637,-28.789 294.637,-23.667 298.47,-23.667 298.47,-28.789 		"/>
		<rect x="291.685" y="-22.405" fill="none" width="8" height="3.833"/>
		<text transform="matrix(1 0 0 1 291.6851 -18.606)" fill="#FFFFFF" font-family="'DejaVuSansCondensed-Bold'" font-size="5"> EC</text>
	</g>
	<g>
		<polygon fill="#EC7404" stroke="#FFFFFF" stroke-width="0.5" points="345.869,-16.954 349.283,-16.954 347.713,-5.178 		"/>
		<g>
			<circle fill="#EC7404" cx="347.576" cy="-25.963" r="9.73"/>
			<g>
				<g>
					<path fill="none" stroke="#FFFFFF" stroke-width="0.5" d="M352.062-22.043c0,0.312-0.254,0.567-0.566,0.567h-7.84
						c-0.312,0-0.566-0.255-0.566-0.567v-7.84c0-0.312,0.254-0.567,0.566-0.567h7.84c0.312,0,0.566,0.255,0.566,0.567V-22.043z"/>
				</g>
				<polygon fill="#FFFFFF" points="344.018,-25.938 346.711,-22.707 351.152,-29.438 346.475,-24.02 				"/>
			</g>
		</g>
	</g>
	<g>
		<polygon fill="#EC7404" stroke="#FFFFFF" stroke-width="0.5" points="371.729,-16.954 375.143,-16.954 373.572,-5.178 		"/>
		<circle fill="#EC7404" cx="373.437" cy="-25.963" r="9.731"/>
		<g>
			<g>
				<path fill="#EC7404" d="M377.812-24.109c0,0.312-0.256,0.567-0.568,0.567h-9.539c-0.312,0-0.568-0.255-0.568-0.567v-5.453
					c0-0.312,0.256-0.567,0.568-0.567h9.539c0.312,0,0.568,0.255,0.568,0.567V-24.109z"/>
				<path fill="none" stroke="#FFFFFF" stroke-width="0.5" d="M377.812-24.109c0,0.312-0.256,0.567-0.568,0.567h-9.539
					c-0.312,0-0.568-0.255-0.568-0.567v-5.453c0-0.312,0.256-0.567,0.568-0.567h9.539c0.312,0,0.568,0.255,0.568,0.567V-24.109z"/>
			</g>
			<g>
				<path fill="#EC7404" d="M379.736-22.186c0,0.312-0.256,0.567-0.568,0.567h-9.539c-0.312,0-0.568-0.255-0.568-0.567v-5.454
					c0-0.312,0.256-0.567,0.568-0.567h9.539c0.312,0,0.568,0.255,0.568,0.567V-22.186z"/>
				<path fill="none" stroke="#FFFFFF" stroke-width="0.5" d="M379.736-22.186c0,0.312-0.256,0.567-0.568,0.567h-9.539
					c-0.312,0-0.568-0.255-0.568-0.567v-5.454c0-0.312,0.256-0.567,0.568-0.567h9.539c0.312,0,0.568,0.255,0.568,0.567V-22.186z"/>
			</g>
		</g>
	</g>
	<g>
		<polygon fill="#EC7404" stroke="#FFFFFF" stroke-width="0.5" points="218.129,-16.931 221.542,-16.931 219.973,-5.155 		"/>
		<circle fill="#EC7404" cx="219.836" cy="-25.963" r="9.731"/>
		<g>
			<path fill="#FFFFFF" d="M216.708-24.274h6.294v-0.557h-6.294V-24.274z M216.708-22.578h6.294v-0.557h-6.294V-22.578z
				 M216.708-27.621h6.294v-0.558h-6.294V-27.621z M216.708-25.956h6.294v-0.557h-6.294V-25.956z M223.708-20.647h-7.744v-11.183
				h5.521v2.222h2.223V-20.647z M215.406-20.088 M222.043-31.76l1.594,1.592h-1.594V-31.76z M222.202-32.39h-6.796v12.301h8.86
				v-10.239L222.202-32.39z"/>
		</g>
	</g>
	<g>
		<polygon fill="#EC7404" stroke="#FFFFFF" stroke-width="0.5" points="192.556,-16.931 195.969,-16.931 194.399,-5.155 		"/>
		<circle fill="#EC7404" cx="194.263" cy="-25.964" r="9.731"/>
		<g>
			<g>
				<path fill="#FFFFFF" d="M199.32-26.686c-0.002-0.272-0.025-0.522-0.083-0.758c-0.046-0.183-0.114-0.358-0.217-0.517
					c-0.152-0.24-0.387-0.429-0.656-0.535c-0.269-0.108-0.564-0.149-0.898-0.149c-0.295,0-0.563,0.033-0.811,0.114
					c-0.185,0.062-0.357,0.153-0.505,0.277c-0.223,0.186-0.377,0.438-0.463,0.709c-0.086,0.264-0.118,0.55-0.119,0.862l-0.569,4.806
					h1.198v2.099h0.97v-2.099h0.6v2.099h0.97v-2.099h1.204L199.32-26.686z"/>
				<path fill="#FFFFFF" d="M190.946-29.091c0.872,0,1.576-0.707,1.576-1.577c0-0.871-0.704-1.577-1.576-1.577
					c-0.87,0-1.575,0.706-1.576,1.577C189.371-29.797,190.076-29.091,190.946-29.091 M190.946-28.553
					c-1.305,0.001-2.36,1.057-2.36,2.361v2.469h1.092v3.943h0.969v-3.943h0.6v3.943h0.97v-3.943h1.091v-2.469
					C193.306-27.497,192.25-28.552,190.946-28.553"/>
			</g>
			<circle fill="#FFFFFF" cx="197.359" cy="-30.67" r="1.584"/>
		</g>
	</g>
	<g>
		<polygon fill="#EC7404" stroke="#FFFFFF" stroke-width="0.5" points="152.89,98.639 156.303,98.639 154.732,110.415 		"/>
		<circle fill="#EC7404" cx="154.597" cy="89.606" r="9.731"/>
		<g>
			<g>
				<path fill="#FFFFFF" d="M159.653,88.884c-0.002-0.272-0.025-0.522-0.083-0.758c-0.046-0.183-0.114-0.358-0.217-0.517
					c-0.152-0.24-0.387-0.429-0.656-0.535c-0.269-0.108-0.564-0.149-0.898-0.149c-0.295,0-0.563,0.033-0.811,0.114
					c-0.185,0.062-0.357,0.153-0.505,0.277c-0.223,0.186-0.377,0.438-0.463,0.709c-0.086,0.264-0.118,0.55-0.119,0.862l-0.569,4.806
					h1.198v2.099h0.97v-2.099h0.6v2.099h0.97v-2.099h1.204L159.653,88.884z"/>
				<path fill="#FFFFFF" d="M151.279,86.479c0.872,0,1.576-0.707,1.576-1.577c0-0.871-0.704-1.577-1.576-1.577
					c-0.87,0-1.575,0.706-1.576,1.577C149.704,85.772,150.409,86.479,151.279,86.479 M151.279,87.017
					c-1.305,0.001-2.36,1.057-2.36,2.361v2.469h1.092v3.943h0.969v-3.943h0.6v3.943h0.97v-3.943h1.091v-2.469
					C153.64,88.073,152.584,87.018,151.279,87.017"/>
			</g>
			<circle fill="#FFFFFF" cx="157.693" cy="84.9" r="1.584"/>
		</g>
	</g>
	<g>
		<polygon fill="#EC7404" stroke="#FFFFFF" stroke-width="0.5" points="320.42,-16.931 323.832,-16.931 322.264,-5.155 		"/>
		<circle fill="#EC7404" cx="322.126" cy="-25.963" r="9.731"/>
		<text transform="matrix(1 0 0 1 320.3652 -18.083)" fill="#FFFFFF" font-family="'DejaVuSansCondensed-Bold'" font-size="5">€</text>
		<polygon fill="none" stroke="#FFFFFF" stroke-width="0.5" points="318.207,-28.342 322.078,-23.667 325.947,-28.342
			323.994,-28.342 323.994,-33.464 320.16,-33.464 320.16,-28.342 		"/>
	</g>
	<g>
		<g>
			<polygon fill="#EC7404" stroke="#FFFFFF" stroke-width="0.5" points="397.539,-16.775 400.951,-16.734 399.244,-4.978 			"/>
			<circle fill="#EC7404" cx="399.358" cy="-25.778" r="9.731"/>
		</g>
		<path fill="#FFFFFF" d="M399.664-22.818c-0.174,1.439-1.402,2.558-2.887,2.558c-1.605,0-2.91-1.305-2.91-2.91
			c0-0.9,0.412-1.709,1.057-2.243v-1.217c-1.232,0.663-2.072,1.965-2.072,3.46c0,2.164,1.762,3.926,3.926,3.926
			c1.641,0,3.051-1.014,3.635-2.449L399.664-22.818z"/>
		<path fill="#FFFFFF" d="M403.338-22.094l-0.811,0.56l-2.08-3.488l-3.998,0.025v-0.829h2.115v-0.889h-2.115v-2.055
			c0.494-0.188,0.846-0.664,0.846-1.225c0-0.725-0.588-1.313-1.311-1.313c-0.725,0-1.314,0.589-1.314,1.313
			c0,0.576,0.373,1.064,0.889,1.24v4.621l4.395,0.005l2.275,3.813l1.594-1.033L403.338-22.094z"/>
		<polygon fill="#FFFFFF" points="398.422,-30.738 399.207,-30.738 399.754,-28.432 400.299,-30.738 401.086,-30.738
			401.633,-28.432 402.178,-30.738 402.957,-30.738 402.209,-27.565 401.266,-27.565 400.689,-29.977 400.121,-27.565
			399.176,-27.565 		"/>
		<path fill="#FFFFFF" d="M405.645-27.739c-0.148,0.077-0.307,0.135-0.471,0.176c-0.162,0.04-0.332,0.06-0.51,0.06
			c-0.527,0-0.945-0.148-1.254-0.443s-0.463-0.695-0.463-1.201c0-0.507,0.154-0.909,0.463-1.204s0.727-0.442,1.254-0.442
			c0.178,0,0.348,0.02,0.51,0.059c0.164,0.039,0.322,0.1,0.471,0.178v0.655c-0.15-0.104-0.301-0.179-0.447-0.228
			c-0.148-0.048-0.303-0.072-0.465-0.072c-0.293,0-0.521,0.094-0.689,0.281s-0.252,0.444-0.252,0.773
			c0,0.327,0.084,0.585,0.252,0.771s0.396,0.279,0.689,0.279c0.162,0,0.316-0.023,0.465-0.072c0.146-0.048,0.297-0.123,0.447-0.227
			V-27.739z"/>
	</g>
</g>
</svg>
