<?xml version="1.0" encoding="utf-8"?>
<!-- Generator: Adobe Illustrator 16.0.0, SVG Export Plug-In . SVG Version: 6.00 Build 0)  -->
<!DOCTYPE svg PUBLIC "-//W3C//DTD SVG 1.1//EN" "http://www.w3.org/Graphics/SVG/1.1/DTD/svg11.dtd">
<svg version="1.1" id="Ebene_1" xmlns="http://www.w3.org/2000/svg" xmlns:xlink="http://www.w3.org/1999/xlink" x="0px" y="0px"
	 width="595.275px" height="419.527px" viewBox="0 0 595.275 419.527" enable-background="new 0 0 595.275 419.527"
	 xml:space="preserve">
<g>
	<defs>
		<rect id="SVGID_1_" x="59.528" y="41.953" width="476.22" height="335.621"/>
	</defs>
	<clipPath id="SVGID_2_">
		<use xlink:href="#SVGID_1_"  overflow="visible"/>
	</clipPath>
	<g clip-path="url(#SVGID_2_)">
		<defs>
			<rect id="SVGID_3_" x="134.907" y="122.678" width="284.374" height="164.351"/>
		</defs>
		<clipPath id="SVGID_4_">
			<use xlink:href="#SVGID_3_"  overflow="visible"/>
		</clipPath>
		<g clip-path="url(#SVGID_4_)">
			<defs>
				<polygon id="SVGID_5_" points="134.907,148.403 179.172,122.678 419.28,261.305 375.016,287.029 				"/>
			</defs>
			<clipPath id="SVGID_6_">
				<use xlink:href="#SVGID_5_"  overflow="visible"/>
			</clipPath>
			<path clip-path="url(#SVGID_6_)" fill="#BED5E5" d="M167.974,144.008l-1.384-0.799l0.456,1.339L167.974,144.008 M175.538,139.11
				c-0.415-0.239-0.741-0.387-0.985-0.439c-0.25-0.056-0.464-0.026-0.646,0.08c-0.183,0.105-0.228,0.227-0.135,0.375
				c0.092,0.142,0.342,0.333,0.756,0.572c0.419,0.241,0.75,0.386,1.001,0.442c0.25,0.05,0.463,0.027,0.646-0.08
				c0.183-0.106,0.223-0.229,0.13-0.372C176.212,139.54,175.956,139.352,175.538,139.11 M163.81,145.932
				c0.344,0.197,0.695,0.301,1.071,0.312c0.367,0.012,0.703-0.071,1.003-0.245c0.167-0.097,0.304-0.207,0.404-0.324
				c0.102-0.118,0.182-0.253,0.232-0.407l0.685,0.395c-0.076,0.139-0.178,0.269-0.304,0.39c-0.127,0.121-0.283,0.235-0.467,0.342
				c-0.548,0.319-1.138,0.484-1.764,0.493c-0.631,0.005-1.208-0.145-1.733-0.449c-0.531-0.306-0.788-0.636-0.78-1.002
				c0.014-0.363,0.297-0.704,0.845-1.023c0.183-0.106,0.381-0.197,0.588-0.271c0.208-0.073,0.432-0.133,0.671-0.176l0.684,0.395
				c-0.264,0.029-0.503,0.074-0.701,0.135c-0.203,0.059-0.391,0.139-0.559,0.236c-0.299,0.174-0.441,0.369-0.419,0.582
				C163.284,145.527,163.468,145.734,163.81,145.932 M166.406,144.79l-0.663-1.905l0.944-0.549l2.089,1.207l0.473-0.275l0.618,0.357
				l-0.472,0.274l0.603,0.348l-0.802,0.465l-0.602-0.348l-1.457,0.846L166.406,144.79 M170.139,143.17l0.796-0.462l0.858,0.495
				l-0.797,0.463L170.139,143.17 M172.794,141.9l1.446-0.841l0.623,0.359l-2.39,1.39l-0.623-0.36l0.135-1.315
				c0.009-0.117-0.012-0.218-0.047-0.304c-0.042-0.083-0.114-0.153-0.215-0.212c-0.153-0.088-0.332-0.133-0.53-0.124
				c-0.199,0.003-0.382,0.056-0.554,0.157c-0.132,0.076-0.253,0.177-0.35,0.303c-0.101,0.124-0.187,0.269-0.253,0.437l-0.725-0.419
				c0.126-0.15,0.268-0.286,0.415-0.413c0.157-0.126,0.325-0.241,0.507-0.348c0.39-0.227,0.781-0.354,1.173-0.38
				c0.392-0.027,0.749,0.049,1.061,0.229c0.178,0.104,0.302,0.227,0.357,0.372c0.067,0.144,0.084,0.376,0.045,0.701L172.794,141.9
				 M173.686,140.192c-0.552-0.318-0.859-0.631-0.917-0.94c-0.063-0.306,0.124-0.586,0.555-0.837
				c0.431-0.251,0.915-0.361,1.444-0.325c0.529,0.035,1.075,0.209,1.627,0.528c0.546,0.315,0.848,0.631,0.916,0.941
				c0.063,0.307-0.123,0.586-0.555,0.838c-0.431,0.25-0.915,0.359-1.444,0.324C174.773,140.685,174.232,140.507,173.686,140.192
				 M203.173,136.535l-24-13.856l-44.266,25.724l24,13.857L203.173,136.535"/>
			<path clip-path="url(#SVGID_6_)" fill="#CFD1D2" d="M256.098,177.632l-1.042-0.602l0.347,1.005L256.098,177.632 M252.974,179.068
				c0.261,0.15,0.521,0.23,0.801,0.239c0.275,0.005,0.53-0.053,0.753-0.183c0.126-0.074,0.228-0.156,0.309-0.244
				c0.07-0.089,0.131-0.188,0.166-0.304l0.511,0.294c-0.056,0.104-0.131,0.201-0.228,0.293c-0.096,0.091-0.213,0.177-0.35,0.256
				c-0.411,0.239-0.848,0.362-1.316,0.369c-0.474,0.003-0.906-0.106-1.305-0.336c-0.394-0.227-0.589-0.48-0.58-0.751
				c0.008-0.271,0.215-0.528,0.626-0.767c0.137-0.079,0.284-0.147,0.441-0.203s0.326-0.1,0.503-0.133l0.516,0.298
				c-0.199,0.021-0.377,0.053-0.524,0.098c-0.152,0.047-0.294,0.106-0.422,0.18c-0.222,0.129-0.329,0.274-0.312,0.437
				C252.581,178.77,252.719,178.92,252.974,179.068 M254.92,178.216l-0.492-1.431l0.706-0.409l1.568,0.905l0.35-0.203l0.459,0.265
				l-0.35,0.203l0.455,0.262l-0.604,0.352l-0.454-0.263l-1.091,0.634L254.92,178.216 M257.723,177l0.594-0.344l0.643,0.372
				l-0.594,0.345L257.723,177 M257.22,175.299l0.455-0.4l0.604-0.352l2.039,1.177l0.563-0.328l0.444,0.257l-1.725,1.003
				l-0.444-0.257l0.563-0.327l-1.604-0.925l-0.456,0.406L257.22,175.299 M260.312,173.911l0.383,0.221l0.111-0.101
				c0.046-0.032,0.092-0.065,0.148-0.097c0.299-0.174,0.609-0.266,0.93-0.274c0.316-0.012,0.611,0.064,0.877,0.218
				c0.271,0.156,0.389,0.331,0.365,0.521c-0.035,0.198-0.212,0.383-0.537,0.572c-0.142,0.083-0.289,0.157-0.451,0.222
				c-0.168,0.062-0.347,0.118-0.539,0.165l-0.5-0.289c0.212-0.035,0.396-0.077,0.558-0.124c0.158-0.05,0.29-0.103,0.397-0.166
				c0.152-0.088,0.238-0.179,0.252-0.277c0.01-0.094-0.046-0.18-0.18-0.257c-0.127-0.073-0.275-0.105-0.438-0.1
				c-0.167,0.008-0.325,0.059-0.478,0.148c-0.091,0.052-0.177,0.114-0.258,0.191c-0.076,0.074-0.152,0.159-0.223,0.254l-1.395-0.805
				l1.579-0.917l0.47,0.271L260.312,173.911 M270.222,175.246l-11.65-6.727l-14.874,8.644l11.651,6.728L270.222,175.246"/>
			<path clip-path="url(#SVGID_6_)" fill="#BED5E5" d="M260.931,189.924l-1.384-0.799l0.456,1.339L260.931,189.924 M268.519,185.515
				l-1.385-0.799l0.456,1.338L268.519,185.515 M256.768,191.846c0.342,0.198,0.694,0.301,1.071,0.313
				c0.367,0.012,0.703-0.071,1.002-0.245c0.172-0.1,0.304-0.207,0.405-0.324c0.102-0.119,0.182-0.254,0.232-0.407l0.684,0.396
				c-0.075,0.138-0.176,0.268-0.302,0.389c-0.127,0.121-0.284,0.236-0.466,0.342c-0.549,0.318-1.138,0.484-1.77,0.49
				c-0.626,0.009-1.203-0.142-1.728-0.446c-0.531-0.306-0.793-0.639-0.78-1.002c0.014-0.362,0.297-0.705,0.845-1.023
				c0.184-0.107,0.381-0.198,0.589-0.271c0.209-0.075,0.432-0.133,0.671-0.177l0.685,0.395c-0.265,0.029-0.504,0.074-0.708,0.133
				c-0.199,0.062-0.381,0.139-0.554,0.239c-0.299,0.173-0.441,0.369-0.419,0.582C256.241,191.442,256.426,191.648,256.768,191.846
				 M259.363,190.705l-0.657-1.908l0.939-0.545l2.088,1.207l0.473-0.274l0.617,0.357l-0.472,0.273l0.604,0.349l-0.802,0.466
				l-0.603-0.348l-1.456,0.847L259.363,190.705 M263.101,189.083l0.792-0.459l0.857,0.495l-0.791,0.461L263.101,189.083
				 M262.437,186.818l0.603-0.539l0.807-0.469l2.722,1.571l0.746-0.434l0.587,0.339l-2.298,1.336l-0.587-0.34l0.751-0.437
				l-2.14-1.235l-0.614,0.54L262.437,186.818 M266.95,186.296l-0.662-1.905l0.944-0.549l2.089,1.206l0.467-0.271l0.618,0.356
				l-0.467,0.271l0.603,0.348l-0.802,0.466l-0.604-0.348l-1.456,0.847L266.95,186.296 M281.511,181.764l-8.771-5.063l-28.829,16.753
				l8.771,5.064L281.511,181.764"/>
			<polygon clip-path="url(#SVGID_6_)" fill="#EC7404" points="232.139,153.259 205.44,137.844 190.567,146.488 217.266,161.903 			
				"/>
			<polygon clip-path="url(#SVGID_6_)" fill="#EC7404" points="419.281,261.305 394.596,247.052 379.722,255.697 404.406,269.949 
							"/>
			<path clip-path="url(#SVGID_6_)" fill="#FFFFFF" d="M167.205,145.663l-0.685-0.395c-0.05,0.153-0.13,0.289-0.232,0.407
				c-0.1,0.118-0.238,0.226-0.405,0.324c-0.299,0.175-0.635,0.257-1.002,0.245c-0.376-0.012-0.728-0.115-1.071-0.313
				c-0.342-0.198-0.526-0.403-0.543-0.618c-0.022-0.213,0.12-0.407,0.42-0.582c0.167-0.098,0.355-0.177,0.558-0.236
				c0.198-0.062,0.438-0.106,0.703-0.135l-0.685-0.396c-0.238,0.045-0.462,0.103-0.671,0.178c-0.208,0.074-0.405,0.165-0.588,0.271
				c-0.549,0.318-0.832,0.661-0.846,1.023c-0.007,0.365,0.249,0.696,0.78,1.002c0.526,0.304,1.103,0.455,1.733,0.449
				c0.627-0.009,1.216-0.174,1.764-0.493c0.183-0.107,0.339-0.221,0.466-0.342C167.028,145.931,167.128,145.801,167.205,145.663"/>
			<path clip-path="url(#SVGID_6_)" fill="#FFFFFF" d="M167.046,144.548l-0.456-1.339l1.384,0.799L167.046,144.548z
				 M169.866,143.625l-0.618-0.357l-0.473,0.274l-2.089-1.207l-0.943,0.549l0.662,1.905l0.73,0.421l1.457-0.846l0.602,0.348
				l0.802-0.466l-0.603-0.348L169.866,143.625"/>
			<polygon clip-path="url(#SVGID_6_)" fill="#FFFFFF" points="171.793,143.203 170.935,142.708 170.139,143.17 170.996,143.667 			
				"/>
			<path clip-path="url(#SVGID_6_)" fill="#FFFFFF" d="M174.863,141.419l-0.623-0.36l-1.446,0.841l0.076-0.767
				c0.04-0.325,0.023-0.557-0.043-0.702c-0.057-0.145-0.18-0.268-0.359-0.371c-0.312-0.18-0.668-0.257-1.06-0.23
				c-0.393,0.026-0.784,0.153-1.175,0.381c-0.182,0.106-0.35,0.221-0.507,0.348c-0.146,0.127-0.289,0.262-0.415,0.412l0.725,0.418
				c0.065-0.168,0.152-0.312,0.252-0.437c0.096-0.126,0.218-0.226,0.35-0.303c0.173-0.1,0.355-0.153,0.555-0.156
				c0.199-0.009,0.376,0.035,0.529,0.124c0.103,0.059,0.174,0.13,0.215,0.212c0.036,0.085,0.057,0.186,0.047,0.304l-0.135,1.315
				l0.623,0.359L174.863,141.419"/>
			<path clip-path="url(#SVGID_6_)" fill="#FFFFFF" d="M174.528,139.697c-0.415-0.238-0.665-0.431-0.757-0.572
				c-0.093-0.147-0.047-0.268,0.135-0.375c0.182-0.106,0.396-0.135,0.646-0.08c0.244,0.054,0.571,0.201,0.985,0.44
				c0.418,0.241,0.674,0.43,0.766,0.577c0.093,0.142,0.053,0.266-0.129,0.373c-0.183,0.106-0.397,0.129-0.646,0.079
				C175.278,140.084,174.946,139.939,174.528,139.697 M176.396,138.617c-0.552-0.318-1.098-0.492-1.627-0.528
				c-0.529-0.035-1.013,0.075-1.444,0.325c-0.431,0.25-0.618,0.531-0.556,0.837c0.058,0.311,0.365,0.622,0.917,0.942
				c0.546,0.315,1.087,0.492,1.626,0.527c0.53,0.035,1.014-0.073,1.444-0.324c0.432-0.25,0.618-0.531,0.555-0.837
				C177.244,139.249,176.942,138.934,176.396,138.617"/>
			<path clip-path="url(#SVGID_6_)" fill="#FFFFFF" d="M260.162,191.578l-0.684-0.396c-0.05,0.154-0.131,0.29-0.233,0.408
				c-0.1,0.118-0.232,0.224-0.404,0.324c-0.299,0.174-0.635,0.257-1.002,0.246c-0.377-0.013-0.729-0.115-1.071-0.313
				c-0.341-0.197-0.526-0.403-0.543-0.619c-0.021-0.213,0.121-0.407,0.42-0.582c0.172-0.1,0.355-0.177,0.553-0.238
				c0.204-0.06,0.442-0.103,0.708-0.133l-0.684-0.396c-0.239,0.045-0.463,0.104-0.671,0.177c-0.208,0.073-0.406,0.166-0.589,0.271
				c-0.549,0.318-0.831,0.661-0.845,1.023c-0.013,0.363,0.248,0.696,0.78,1.003c0.526,0.303,1.102,0.455,1.729,0.445
				c0.631-0.005,1.221-0.17,1.769-0.489c0.183-0.106,0.34-0.222,0.466-0.343S260.086,191.716,260.162,191.578"/>
			<path clip-path="url(#SVGID_6_)" fill="#FFFFFF" d="M260.003,190.463l-0.456-1.339l1.384,0.799L260.003,190.463z M262.823,189.54
				l-0.617-0.356l-0.472,0.274l-2.089-1.206l-0.939,0.545l0.657,1.908l0.729,0.421l1.457-0.847l0.604,0.348l0.801-0.466
				l-0.603-0.348L262.823,189.54"/>
			<polygon clip-path="url(#SVGID_6_)" fill="#FFFFFF" points="264.751,189.118 263.892,188.623 263.101,189.083 263.958,189.578 
							"/>
			<polygon clip-path="url(#SVGID_6_)" fill="#FFFFFF" points="267.902,187.287 267.315,186.948 266.568,187.381 263.847,185.809 
				263.04,186.279 262.437,186.818 263.014,187.152 263.627,186.611 265.768,187.847 265.017,188.284 265.603,188.623 			"/>
			<path clip-path="url(#SVGID_6_)" fill="#FFFFFF" d="M267.59,186.054l-0.456-1.338l1.385,0.799L267.59,186.054z M270.405,185.134
				l-0.618-0.357l-0.467,0.271l-2.089-1.206l-0.944,0.547l0.663,1.905l0.73,0.421l1.456-0.846l0.603,0.348l0.801-0.465l-0.602-0.348
				L270.405,185.134"/>
			<path clip-path="url(#SVGID_6_)" fill="#FFFFFF" d="M255.514,178.871l-0.511-0.295c-0.035,0.115-0.095,0.216-0.166,0.304
				c-0.081,0.089-0.183,0.171-0.309,0.245c-0.225,0.13-0.478,0.189-0.753,0.183c-0.28-0.008-0.541-0.088-0.801-0.239
				c-0.255-0.147-0.394-0.298-0.411-0.46c-0.015-0.162,0.09-0.306,0.314-0.437c0.127-0.073,0.27-0.133,0.421-0.179
				c0.147-0.045,0.326-0.077,0.524-0.098l-0.516-0.297c-0.178,0.032-0.346,0.076-0.504,0.133c-0.157,0.056-0.305,0.124-0.441,0.203
				c-0.411,0.238-0.618,0.495-0.627,0.767c-0.009,0.271,0.186,0.524,0.579,0.751c0.399,0.23,0.832,0.339,1.306,0.336
				c0.468-0.005,0.906-0.129,1.316-0.368c0.137-0.08,0.254-0.166,0.35-0.257C255.382,179.07,255.458,178.974,255.514,178.871"/>
			<path clip-path="url(#SVGID_6_)" fill="#FFFFFF" d="M255.402,178.036l-0.347-1.006l1.041,0.602L255.402,178.036z
				 M257.511,177.343l-0.46-0.266l-0.35,0.203l-1.569-0.905l-0.705,0.41l0.491,1.43l0.546,0.315l1.092-0.634l0.454,0.263
				l0.604-0.352l-0.454-0.262L257.511,177.343"/>
			<polygon clip-path="url(#SVGID_6_)" fill="#FFFFFF" points="258.96,177.027 258.317,176.656 257.724,177.001 258.366,177.373 			
				"/>
			<polygon clip-path="url(#SVGID_6_)" fill="#FFFFFF" points="261.325,175.653 260.881,175.396 260.318,175.724 258.279,174.548 
				257.675,174.898 257.22,175.3 257.659,175.553 258.114,175.146 259.719,176.072 259.155,176.4 259.599,176.656 			"/>
			<path clip-path="url(#SVGID_6_)" fill="#FFFFFF" d="M262.761,173.878c-0.266-0.153-0.562-0.23-0.877-0.218
				c-0.32,0.008-0.631,0.101-0.93,0.274c-0.057,0.033-0.102,0.065-0.147,0.098l-0.111,0.1l-0.383-0.221l1.071-0.622l-0.47-0.271
				l-1.579,0.917l1.395,0.806c0.071-0.095,0.147-0.18,0.223-0.253c0.081-0.077,0.167-0.14,0.258-0.192
				c0.152-0.089,0.31-0.138,0.478-0.148c0.163-0.005,0.311,0.027,0.438,0.101c0.134,0.077,0.189,0.163,0.18,0.257
				c-0.015,0.096-0.101,0.188-0.253,0.276c-0.107,0.062-0.239,0.114-0.396,0.165c-0.163,0.048-0.346,0.088-0.56,0.124l0.501,0.29
				c0.193-0.047,0.37-0.103,0.539-0.166c0.162-0.065,0.309-0.139,0.452-0.221c0.325-0.189,0.502-0.375,0.537-0.573
				C263.149,174.208,263.031,174.034,262.761,173.878"/>
			<path clip-path="url(#SVGID_6_)" fill="#BED5E5" d="M270.811,195.627l-1.384-0.799l0.455,1.338L270.811,195.627 M266.646,197.549
				c0.342,0.198,0.699,0.305,1.07,0.313c0.367,0.012,0.702-0.07,1.001-0.245c0.173-0.1,0.305-0.207,0.406-0.324
				c0.102-0.118,0.182-0.253,0.232-0.407l0.685,0.395c-0.075,0.139-0.177,0.268-0.304,0.389c-0.125,0.122-0.283,0.236-0.466,0.342
				c-0.547,0.318-1.138,0.483-1.763,0.493c-0.631,0.005-1.203-0.143-1.733-0.449c-0.526-0.303-0.789-0.637-0.779-1.002
				c0.013-0.363,0.296-0.705,0.844-1.023c0.182-0.106,0.381-0.198,0.589-0.271c0.208-0.074,0.432-0.133,0.672-0.178l0.684,0.396
				c-0.265,0.03-0.499,0.076-0.702,0.135c-0.204,0.059-0.386,0.136-0.559,0.236c-0.299,0.174-0.441,0.369-0.419,0.581
				C266.12,197.145,266.304,197.352,266.646,197.549 M269.242,196.408l-0.653-1.905l0.939-0.545l2.084,1.203l0.472-0.274
				l0.622,0.359l-0.472,0.274l0.603,0.348l-0.801,0.465l-0.604-0.347l-1.456,0.845L269.242,196.408 M272.985,194.789l0.792-0.46
				l0.857,0.495l-0.791,0.46L272.985,194.789 M272.315,192.521l0.607-0.537l0.807-0.469l2.718,1.568l0.746-0.434l0.593,0.343
				l-2.299,1.335l-0.592-0.341l0.751-0.436l-2.141-1.236l-0.607,0.543L272.315,192.521 M278.276,190.637
				c0.28-0.098,0.549-0.136,0.804-0.119c0.26,0.015,0.495,0.086,0.719,0.215c0.327,0.189,0.455,0.405,0.375,0.646
				c-0.08,0.242-0.359,0.504-0.841,0.784c-0.167,0.098-0.35,0.186-0.548,0.271c-0.193,0.082-0.402,0.157-0.625,0.222l-0.66-0.381
				c0.239-0.044,0.458-0.1,0.656-0.168c0.193-0.07,0.366-0.147,0.518-0.236c0.228-0.133,0.36-0.25,0.4-0.369
				c0.045-0.115-0.011-0.212-0.159-0.298c-0.149-0.085-0.321-0.114-0.524-0.091c-0.199,0.026-0.418,0.112-0.656,0.25l-0.339,0.197
				l-0.552-0.318l0.36-0.209c0.213-0.124,0.335-0.236,0.371-0.333c0.04-0.1-0.011-0.189-0.15-0.269
				c-0.127-0.074-0.275-0.1-0.449-0.083c-0.167,0.021-0.345,0.083-0.528,0.189c-0.137,0.08-0.264,0.171-0.371,0.268
				c-0.106,0.098-0.202,0.206-0.278,0.321l-0.623-0.359c0.116-0.127,0.248-0.245,0.39-0.352c0.143-0.112,0.289-0.209,0.451-0.304
				c0.427-0.248,0.817-0.392,1.169-0.437c0.351-0.037,0.672,0.024,0.953,0.187c0.194,0.112,0.303,0.233,0.323,0.363
				C278.483,190.357,278.423,190.492,278.276,190.637 M292.216,187.944l-8.765-5.06l-28.829,16.753l8.765,5.061L292.216,187.944"/>
			<path clip-path="url(#SVGID_6_)" fill="#CFD1D2" d="M301.176,213.158l-1.386-0.799l0.458,1.338L301.176,213.158 M297.012,215.082
				c0.342,0.197,0.694,0.301,1.066,0.309c0.367,0.012,0.707-0.068,1.005-0.242c0.173-0.1,0.306-0.206,0.405-0.324
				c0.101-0.117,0.177-0.256,0.228-0.409l0.684,0.396c-0.076,0.139-0.176,0.268-0.303,0.389c-0.121,0.123-0.278,0.238-0.461,0.345
				c-0.548,0.319-1.144,0.481-1.769,0.489c-0.626,0.01-1.203-0.141-1.728-0.445c-0.532-0.307-0.793-0.639-0.78-1.002
				c0.009-0.365,0.292-0.707,0.839-1.026c0.184-0.106,0.381-0.198,0.59-0.271c0.214-0.072,0.436-0.131,0.67-0.178l0.691,0.398
				c-0.271,0.026-0.504,0.073-0.708,0.132c-0.203,0.06-0.385,0.136-0.558,0.237c-0.299,0.173-0.437,0.371-0.414,0.583
				C296.485,214.677,296.669,214.883,297.012,215.082 M299.605,213.939l-0.656-1.907l0.94-0.546l2.089,1.206l0.471-0.274
				l0.617,0.357l-0.471,0.273l0.603,0.35l-0.803,0.465l-0.603-0.348l-1.457,0.846L299.605,213.939 M303.346,212.318l0.791-0.461
				l0.858,0.496l-0.792,0.46L303.346,212.318 M302.676,210.05l0.607-0.536l0.807-0.47l2.723,1.573l0.745-0.434l0.588,0.338
				l-2.298,1.336l-0.588-0.338l0.751-0.438l-2.141-1.235l-0.613,0.54L302.676,210.05 M305.68,208.304l0.609-0.537l0.801-0.466
				l2.723,1.571l0.75-0.436l0.588,0.339l-2.299,1.336l-0.588-0.34l0.747-0.433l-2.142-1.236l-0.607,0.537L305.68,208.304
				 M321.907,205.086l-8.771-5.063l-28.829,16.753l8.771,5.062L321.907,205.086"/>
			<path clip-path="url(#SVGID_6_)" fill="#EC7404" d="M286.986,204.965l-1.384-0.798l0.455,1.338L286.986,204.965 M282.822,206.889
				c0.343,0.198,0.694,0.301,1.065,0.31c0.373,0.015,0.708-0.068,1.008-0.241c0.172-0.101,0.304-0.207,0.404-0.325
				c0.102-0.118,0.183-0.253,0.233-0.407l0.684,0.396c-0.076,0.139-0.177,0.269-0.303,0.39c-0.126,0.121-0.284,0.236-0.466,0.342
				c-0.548,0.318-1.138,0.483-1.77,0.49c-0.626,0.009-1.202-0.142-1.728-0.446c-0.531-0.306-0.793-0.64-0.78-1.003
				c0.014-0.362,0.297-0.704,0.845-1.022c0.183-0.107,0.381-0.198,0.588-0.272c0.209-0.073,0.432-0.133,0.671-0.176l0.685,0.395
				c-0.265,0.029-0.504,0.074-0.708,0.133c-0.198,0.062-0.381,0.138-0.553,0.239c-0.3,0.173-0.442,0.369-0.42,0.581
				C282.296,206.485,282.481,206.691,282.822,206.889 M285.417,205.747l-0.657-1.907l0.939-0.546l2.089,1.207l0.472-0.274
				l0.618,0.357l-0.472,0.274l0.603,0.348l-0.802,0.466l-0.603-0.348l-1.456,0.846L285.417,205.747 M289.155,204.125l0.792-0.459
				l0.857,0.495l-0.791,0.46L289.155,204.125 M288.491,201.861l0.603-0.54l0.807-0.469l2.722,1.572l0.746-0.434l0.588,0.339
				l-2.299,1.336l-0.587-0.339l0.751-0.437l-2.14-1.235l-0.614,0.539L288.491,201.861 M294.805,201.109l1.446-0.841l0.628,0.363
				l-2.39,1.389l-0.627-0.362l0.139-1.313c0.01-0.118-0.011-0.218-0.052-0.301c-0.041-0.088-0.113-0.159-0.21-0.215
				c-0.157-0.091-0.336-0.129-0.535-0.127c-0.192,0.006-0.376,0.059-0.548,0.159c-0.133,0.078-0.254,0.178-0.355,0.301
				c-0.096,0.127-0.182,0.271-0.247,0.439l-0.725-0.419c0.122-0.147,0.268-0.286,0.415-0.413c0.157-0.126,0.324-0.242,0.502-0.345
				c0.396-0.23,0.787-0.356,1.179-0.383c0.392-0.027,0.743,0.047,1.06,0.23c0.179,0.103,0.302,0.227,0.358,0.372
				c0.067,0.144,0.084,0.378,0.045,0.702L294.805,201.109 M311.35,198.991l-17.193-9.927l-28.829,16.754l17.192,9.925
				L311.35,198.991"/>
			<path clip-path="url(#SVGID_6_)" fill="#BED5E5" d="M341.281,236.313l-1.389-0.802l0.46,1.342L341.281,236.313 M345.84,233.154
				c-0.413-0.238-0.744-0.383-0.99-0.436c-0.244-0.053-0.463-0.026-0.646,0.08c-0.177,0.104-0.224,0.229-0.131,0.371
				c0.09,0.145,0.344,0.334,0.758,0.572c0.419,0.242,0.75,0.393,1.001,0.442c0.248,0.056,0.468,0.03,0.646-0.073
				c0.183-0.106,0.229-0.234,0.13-0.379C346.516,233.591,346.26,233.396,345.84,233.154 M347.986,231.019
				c-0.133-0.076-0.271-0.115-0.407-0.111c-0.146,0.003-0.283,0.041-0.416,0.117c-0.132,0.077-0.203,0.16-0.202,0.242
				c-0.005,0.086,0.055,0.162,0.188,0.238c0.133,0.078,0.266,0.113,0.413,0.109c0.144,0,0.285-0.041,0.417-0.117
				c0.131-0.076,0.198-0.156,0.203-0.242C348.181,231.173,348.12,231.097,347.986,231.019 M349.509,231.816
				c-0.163-0.094-0.333-0.145-0.505-0.145c-0.168-0.003-0.331,0.045-0.488,0.135c-0.156,0.092-0.238,0.187-0.237,0.287
				c0.001,0.1,0.088,0.197,0.251,0.291c0.163,0.096,0.326,0.143,0.5,0.143s0.337-0.047,0.492-0.139
				c0.158-0.092,0.239-0.186,0.232-0.283C349.754,232.004,349.673,231.91,349.509,231.816 M337.113,238.234
				c0.34,0.196,0.699,0.303,1.069,0.312c0.367,0.012,0.703-0.072,1.001-0.246c0.173-0.1,0.306-0.206,0.406-0.324
				c0.106-0.115,0.184-0.254,0.232-0.406l0.685,0.395c-0.076,0.139-0.177,0.268-0.304,0.389s-0.284,0.236-0.466,0.343
				c-0.549,0.319-1.138,0.483-1.765,0.493c-0.631,0.006-1.201-0.143-1.733-0.449c-0.526-0.303-0.788-0.637-0.779-1.002
				c0.013-0.363,0.296-0.705,0.845-1.023c0.182-0.105,0.381-0.197,0.59-0.271c0.208-0.074,0.43-0.133,0.671-0.177l0.683,0.395
				c-0.264,0.031-0.498,0.077-0.701,0.136c-0.203,0.06-0.385,0.137-0.559,0.236c-0.299,0.174-0.441,0.369-0.418,0.581
				C336.59,237.832,336.77,238.036,337.113,238.234 M339.707,237.091l-0.651-1.904l0.939-0.546l2.087,1.206l0.473-0.273l0.618,0.356
				l-0.472,0.273l0.604,0.349l-0.802,0.465l-0.604-0.348l-1.457,0.847L339.707,237.091 M343.449,235.472l0.793-0.46l0.858,0.496
				l-0.792,0.46L343.449,235.472 M343.983,234.24c-0.546-0.314-0.848-0.631-0.917-0.939c-0.062-0.308,0.124-0.588,0.555-0.839
				c0.432-0.25,0.915-0.359,1.445-0.324c0.54,0.036,1.08,0.212,1.627,0.528c0.552,0.318,0.857,0.631,0.916,0.94
				c0.063,0.308-0.124,0.587-0.556,0.837c-0.431,0.252-0.914,0.361-1.443,0.324C345.08,234.732,344.535,234.558,343.983,234.24
				 M348.848,231.289c0.286-0.094,0.556-0.133,0.805-0.119c0.254,0.012,0.489,0.084,0.698,0.205
				c0.333,0.191,0.471,0.395,0.423,0.618c-0.051,0.224-0.289,0.457-0.716,0.704c-0.425,0.248-0.831,0.391-1.218,0.42
				c-0.389,0.029-0.739-0.051-1.07-0.242c-0.21-0.121-0.333-0.257-0.354-0.404c-0.026-0.145,0.038-0.301,0.201-0.466
				c-0.26,0.081-0.503,0.116-0.733,0.101c-0.229-0.014-0.434-0.074-0.621-0.183c-0.282-0.163-0.384-0.345-0.324-0.552
				c0.055-0.203,0.287-0.422,0.688-0.654s0.772-0.365,1.128-0.402c0.352-0.037,0.668,0.027,0.949,0.189
				c0.188,0.109,0.29,0.228,0.316,0.359C349.046,230.997,348.986,231.138,348.848,231.289 M362.59,228.575l-8.766-5.06
				l-28.828,16.752l8.767,5.062L362.59,228.575"/>
			<path clip-path="url(#SVGID_6_)" fill="#57AB27" d="M330.688,230.197l-1.391-0.802l0.462,1.341L330.688,230.197 M335.248,227.039
				c-0.415-0.238-0.747-0.383-0.991-0.437s-0.462-0.026-0.646,0.079c-0.178,0.104-0.222,0.23-0.13,0.371
				c0.088,0.146,0.344,0.334,0.756,0.573c0.42,0.241,0.753,0.392,1.001,0.442c0.25,0.057,0.469,0.029,0.646-0.074
				c0.183-0.105,0.227-0.232,0.132-0.377C335.923,227.476,335.666,227.281,335.248,227.039 M337.532,225.031
				c-0.195-0.112-0.372-0.175-0.546-0.187c-0.179-0.015-0.336,0.024-0.483,0.109c-0.147,0.086-0.213,0.177-0.187,0.28
				c0.02,0.1,0.129,0.203,0.323,0.316c0.188,0.107,0.371,0.173,0.546,0.185c0.174,0.013,0.33-0.026,0.478-0.112
				c0.146-0.086,0.212-0.177,0.192-0.277C337.833,225.246,337.723,225.14,337.532,225.031 M326.52,232.117
				c0.343,0.197,0.699,0.305,1.07,0.312c0.367,0.013,0.703-0.07,1.003-0.244c0.171-0.102,0.303-0.207,0.403-0.324
				c0.106-0.115,0.184-0.254,0.233-0.407l0.685,0.395c-0.078,0.14-0.178,0.269-0.304,0.39c-0.127,0.121-0.284,0.236-0.468,0.342
				c-0.547,0.318-1.137,0.484-1.763,0.492c-0.63,0.007-1.201-0.141-1.733-0.447c-0.526-0.305-0.787-0.637-0.78-1.003
				c0.014-0.362,0.297-0.706,0.845-1.023c0.184-0.106,0.382-0.198,0.589-0.271c0.208-0.074,0.433-0.133,0.672-0.178l0.685,0.395
				c-0.265,0.03-0.499,0.077-0.703,0.136c-0.203,0.06-0.387,0.136-0.558,0.235c-0.3,0.175-0.441,0.369-0.419,0.582
				C325.996,231.716,326.176,231.919,326.52,232.117 M329.115,230.976l-0.652-1.905l0.938-0.546l2.09,1.206l0.473-0.274l0.616,0.357
				l-0.473,0.273l0.604,0.35l-0.802,0.465l-0.604-0.348l-1.456,0.846L329.115,230.976 M332.857,229.357l0.792-0.461l0.857,0.496
				l-0.791,0.46L332.857,229.357 M333.391,228.125c-0.548-0.316-0.849-0.632-0.918-0.941c-0.062-0.307,0.124-0.588,0.557-0.838
				c0.431-0.25,0.913-0.359,1.443-0.324c0.54,0.035,1.081,0.213,1.627,0.527c0.552,0.319,0.86,0.632,0.916,0.941
				c0.063,0.307-0.123,0.586-0.555,0.838c-0.432,0.25-0.914,0.359-1.444,0.324C334.487,228.617,333.941,228.443,333.391,228.125
				 M335.879,226.056c-0.353-0.203-0.527-0.434-0.51-0.692c0.015-0.255,0.217-0.499,0.603-0.722
				c0.427-0.248,0.904-0.361,1.429-0.328c0.525,0.033,1.056,0.203,1.587,0.51c0.545,0.316,0.839,0.643,0.881,0.985
				c0.038,0.339-0.185,0.646-0.662,0.923c-0.156,0.092-0.313,0.171-0.477,0.242c-0.163,0.064-0.34,0.127-0.519,0.176l-0.608-0.35
				c0.193-0.042,0.372-0.092,0.528-0.143c0.153-0.053,0.291-0.114,0.412-0.186c0.254-0.147,0.38-0.303,0.375-0.465
				c0.004-0.163-0.12-0.334-0.375-0.511c-0.024,0.103-0.076,0.198-0.15,0.282c-0.082,0.089-0.183,0.172-0.314,0.248
				c-0.336,0.195-0.707,0.298-1.109,0.301C336.562,226.333,336.199,226.243,335.879,226.056 M351.879,222.391l-8.764-5.062
				l-28.829,16.754l8.765,5.061L351.879,222.391"/>
			<path clip-path="url(#SVGID_6_)" fill="#CFD1D2" d="M352.062,242.539l-1.388-0.803l0.462,1.342L352.062,242.539 M356.623,239.38
				c-0.412-0.239-0.744-0.384-0.99-0.438c-0.246-0.053-0.463-0.025-0.646,0.08c-0.177,0.104-0.224,0.23-0.131,0.371
				c0.09,0.146,0.344,0.334,0.758,0.572c0.419,0.242,0.75,0.393,1,0.443c0.25,0.056,0.469,0.029,0.646-0.074
				c0.183-0.105,0.227-0.233,0.13-0.377C357.298,239.817,357.043,239.622,356.623,239.38 M347.895,244.458
				c0.343,0.197,0.699,0.304,1.071,0.312c0.366,0.012,0.703-0.071,1.001-0.244c0.174-0.102,0.305-0.207,0.412-0.322
				c0.101-0.118,0.175-0.256,0.227-0.41l0.684,0.395c-0.075,0.14-0.176,0.27-0.303,0.391c-0.127,0.12-0.285,0.234-0.467,0.342
				c-0.548,0.318-1.137,0.484-1.764,0.492c-0.627,0.009-1.203-0.141-1.734-0.448c-0.525-0.304-0.787-0.637-0.773-0.999
				c0.008-0.365,0.291-0.708,0.838-1.027c0.184-0.105,0.381-0.197,0.59-0.271c0.208-0.074,0.434-0.133,0.672-0.177l0.684,0.395
				c-0.266,0.029-0.499,0.076-0.702,0.135c-0.203,0.061-0.386,0.137-0.558,0.236c-0.3,0.174-0.442,0.369-0.421,0.582
				C347.373,244.058,347.553,244.261,347.895,244.458 M350.495,243.32l-0.656-1.908l0.938-0.545l2.089,1.205l0.473-0.273
				l0.617,0.357l-0.472,0.273l0.602,0.348l-0.802,0.466l-0.602-0.348l-1.458,0.847L350.495,243.32 M354.232,241.697l0.792-0.459
				l0.858,0.496l-0.791,0.459L354.232,241.697 M354.766,240.465c-0.547-0.315-0.848-0.632-0.912-0.938
				c-0.067-0.31,0.119-0.59,0.551-0.841c0.432-0.25,0.915-0.359,1.448-0.322c0.536,0.033,1.077,0.21,1.624,0.525
				c0.551,0.318,0.857,0.631,0.915,0.941c0.062,0.307-0.122,0.586-0.555,0.837c-0.431,0.251-0.915,0.36-1.444,0.324
				C355.863,240.958,355.318,240.785,354.766,240.465 M356.201,237.714l2.478-1.439l0.479,0.277l1.553,2.377l-0.827,0.48
				l-1.47-2.253l-1.584,0.919L356.201,237.714 M373.301,234.759l-8.77-5.063l-28.828,16.753l8.77,5.063L373.301,234.759"/>
			<path clip-path="url(#SVGID_6_)" fill="#BED5E5" d="M367.387,251.384l-1.389-0.801l0.459,1.342L367.387,251.384 M371.945,248.227
				c-0.413-0.239-0.744-0.384-0.989-0.437c-0.244-0.053-0.464-0.027-0.646,0.08c-0.178,0.103-0.225,0.229-0.131,0.371
				c0.089,0.145,0.344,0.333,0.757,0.572c0.418,0.241,0.75,0.393,1.001,0.441c0.249,0.057,0.469,0.03,0.645-0.072
				c0.184-0.107,0.229-0.234,0.131-0.378C372.62,248.664,372.366,248.468,371.945,248.227 M375.558,246.832
				c-0.192-0.112-0.378-0.176-0.545-0.191c-0.173-0.012-0.332,0.027-0.483,0.115c-0.146,0.085-0.213,0.176-0.187,0.273
				c0.021,0.102,0.134,0.207,0.327,0.319c0.195,0.112,0.373,0.173,0.546,0.185c0.167,0.016,0.327-0.021,0.473-0.107
				c0.153-0.089,0.219-0.18,0.197-0.281C375.859,247.047,375.751,246.945,375.558,246.832 M363.219,253.305
				c0.342,0.198,0.698,0.304,1.07,0.312c0.367,0.012,0.701-0.071,1-0.245c0.174-0.1,0.307-0.207,0.412-0.321
				c0.102-0.118,0.178-0.257,0.227-0.41l0.686,0.396c-0.077,0.139-0.177,0.269-0.304,0.39c-0.127,0.12-0.285,0.235-0.467,0.341
				c-0.547,0.318-1.137,0.484-1.764,0.494c-0.626,0.008-1.203-0.143-1.733-0.449c-0.526-0.304-0.788-0.637-0.774-0.999
				c0.008-0.366,0.292-0.708,0.839-1.027c0.183-0.105,0.38-0.196,0.59-0.271c0.207-0.074,0.431-0.133,0.67-0.178l0.684,0.396
				c-0.264,0.029-0.498,0.076-0.701,0.135s-0.386,0.136-0.559,0.236c-0.298,0.174-0.441,0.368-0.419,0.58
				C362.696,252.904,362.876,253.107,363.219,253.305 M365.818,252.167l-0.658-1.908l0.939-0.547l2.089,1.207l0.472-0.274
				l0.619,0.356l-0.473,0.275l0.604,0.348l-0.801,0.466l-0.604-0.349l-1.458,0.846L365.818,252.167 M369.556,250.544l0.792-0.459
				l0.858,0.494l-0.792,0.461L369.556,250.544 M370.09,249.312c-0.547-0.315-0.85-0.631-0.911-0.938
				c-0.068-0.311,0.118-0.59,0.549-0.84c0.432-0.252,0.915-0.361,1.45-0.322c0.535,0.033,1.073,0.209,1.622,0.525
				c0.55,0.318,0.857,0.631,0.915,0.939c0.064,0.308-0.125,0.588-0.555,0.838c-0.431,0.251-0.914,0.36-1.444,0.324
				C371.187,249.804,370.642,249.63,370.09,249.312 M373.653,246.878c0.026-0.097,0.076-0.191,0.152-0.276
				c0.075-0.086,0.182-0.171,0.313-0.247c0.334-0.195,0.712-0.296,1.114-0.305c0.403-0.003,0.765,0.088,1.086,0.274
				c0.353,0.204,0.526,0.434,0.507,0.692c-0.018,0.254-0.221,0.496-0.607,0.721c-0.43,0.25-0.902,0.359-1.429,0.326
				c-0.523-0.032-1.048-0.2-1.584-0.51c-0.549-0.315-0.839-0.643-0.877-0.982c-0.037-0.338,0.181-0.648,0.656-0.926
				c0.153-0.088,0.311-0.168,0.478-0.235c0.168-0.067,0.346-0.13,0.527-0.183l0.614,0.354c-0.204,0.041-0.388,0.088-0.545,0.145
				c-0.157,0.051-0.294,0.111-0.411,0.18c-0.253,0.146-0.375,0.301-0.374,0.467C373.271,246.535,373.399,246.703,373.653,246.878
				 M392.43,245.802l-17.188-9.923l-28.829,16.754l17.188,9.923L392.43,245.802"/>
			<path clip-path="url(#SVGID_6_)" fill="#BED5E5" d="M315.456,221.404l-1.383-0.801l0.454,1.34L315.456,221.404 M323.024,216.501
				c-0.412-0.238-0.75-0.385-0.995-0.439c-0.244-0.053-0.457-0.023-0.641,0.083c-0.183,0.106-0.229,0.228-0.141,0.372
				c0.094,0.141,0.348,0.336,0.763,0.574c0.419,0.242,0.75,0.387,1,0.443c0.249,0.049,0.464,0.025,0.646-0.081
				c0.184-0.105,0.223-0.229,0.136-0.374C323.695,216.935,323.445,216.744,323.024,216.501 M311.293,223.326
				c0.343,0.198,0.693,0.301,1.066,0.311c0.37,0.014,0.707-0.068,1.007-0.242c0.173-0.101,0.304-0.207,0.405-0.324
				c0.102-0.119,0.182-0.254,0.231-0.408l0.684,0.396c-0.074,0.138-0.176,0.268-0.304,0.389c-0.126,0.121-0.283,0.236-0.466,0.342
				c-0.548,0.318-1.138,0.484-1.769,0.49c-0.626,0.008-1.203-0.142-1.729-0.445c-0.531-0.307-0.793-0.641-0.778-1.002
				c0.012-0.363,0.296-0.706,0.843-1.023c0.184-0.107,0.382-0.198,0.59-0.271c0.208-0.074,0.432-0.133,0.672-0.178l0.684,0.395
				c-0.264,0.031-0.504,0.074-0.707,0.133c-0.198,0.062-0.38,0.139-0.554,0.239c-0.299,0.175-0.442,0.368-0.419,0.581
				C310.766,222.922,310.949,223.128,311.293,223.326 M313.887,222.185l-0.656-1.908l0.939-0.545l2.089,1.205l0.472-0.273
				l0.617,0.357l-0.47,0.273l0.602,0.348l-0.801,0.467l-0.604-0.35l-1.456,0.848L313.887,222.185 M317.626,220.563l0.791-0.46
				l0.859,0.495l-0.792,0.46L317.626,220.563 M316.961,218.298l0.603-0.54l0.809-0.469l2.722,1.571l0.746-0.434l0.586,0.34
				l-2.298,1.336l-0.586-0.34l0.75-0.436l-2.141-1.236l-0.612,0.539L316.961,218.298 M321.169,217.586
				c-0.553-0.317-0.859-0.63-0.919-0.94c-0.062-0.307,0.126-0.586,0.557-0.837c0.432-0.251,0.913-0.36,1.443-0.324
				c0.535,0.032,1.076,0.21,1.629,0.528c0.546,0.314,0.854,0.627,0.91,0.938c0.067,0.309-0.119,0.589-0.55,0.84
				c-0.432,0.25-0.915,0.359-1.45,0.322C322.254,218.08,321.714,217.903,321.169,217.586 M341.163,216.204l-17.191-9.926
				l-28.83,16.753l17.194,9.927L341.163,216.204"/>
			<polygon clip-path="url(#SVGID_6_)" fill="#CFD1D2" points="256.528,167.34 234.269,154.489 217.35,164.321 188.528,147.679 
				161.176,163.569 375.016,287.029 402.363,271.137 377.676,256.884 363.793,264.954 239.42,193.146 253.399,185.022 
				239.706,177.116 			"/>
			<path clip-path="url(#SVGID_6_)" fill="#FFFFFF" d="M270.041,197.281l-0.684-0.396c-0.05,0.154-0.131,0.289-0.232,0.407
				c-0.101,0.118-0.233,0.224-0.405,0.324c-0.299,0.174-0.635,0.257-1.001,0.245c-0.373-0.009-0.729-0.115-1.072-0.313
				c-0.342-0.197-0.526-0.403-0.543-0.618c-0.022-0.213,0.121-0.407,0.42-0.582c0.172-0.1,0.354-0.177,0.558-0.236
				c0.204-0.06,0.438-0.105,0.702-0.135l-0.684-0.396c-0.24,0.045-0.463,0.104-0.672,0.178c-0.208,0.073-0.405,0.165-0.588,0.271
				c-0.548,0.318-0.832,0.661-0.844,1.023c-0.008,0.366,0.253,0.699,0.779,1.003c0.531,0.307,1.103,0.454,1.733,0.449
				c0.627-0.009,1.216-0.174,1.764-0.493c0.183-0.106,0.34-0.221,0.466-0.342C269.864,197.549,269.965,197.419,270.041,197.281"/>
			<path clip-path="url(#SVGID_6_)" fill="#FFFFFF" d="M269.882,196.166l-0.456-1.338l1.385,0.799L269.882,196.166z
				 M272.707,195.246l-0.622-0.36l-0.472,0.274l-2.085-1.203l-0.938,0.545l0.652,1.905l0.736,0.424l1.456-0.846l0.604,0.348
				l0.802-0.465l-0.603-0.348L272.707,195.246"/>
			<polygon clip-path="url(#SVGID_6_)" fill="#FFFFFF" points="274.634,194.824 273.776,194.329 272.984,194.789 273.843,195.285 
							"/>
			<polygon clip-path="url(#SVGID_6_)" fill="#FFFFFF" points="277.786,192.993 277.192,192.65 276.447,193.084 273.729,191.516 
				272.922,191.984 272.315,192.521 272.897,192.858 273.505,192.314 275.646,193.551 274.895,193.987 275.486,194.328 			"/>
			<path clip-path="url(#SVGID_6_)" fill="#FFFFFF" d="M279.799,190.734c-0.225-0.13-0.459-0.2-0.719-0.215
				c-0.254-0.018-0.524,0.021-0.804,0.118c0.147-0.144,0.207-0.28,0.186-0.41c-0.021-0.129-0.129-0.25-0.323-0.362
				c-0.281-0.163-0.602-0.224-0.953-0.187c-0.352,0.044-0.742,0.189-1.169,0.437c-0.163,0.094-0.309,0.191-0.451,0.303
				c-0.142,0.106-0.273,0.225-0.39,0.352l0.623,0.36c0.076-0.115,0.172-0.224,0.278-0.322c0.106-0.097,0.234-0.188,0.371-0.268
				c0.183-0.106,0.361-0.168,0.528-0.188c0.173-0.018,0.322,0.009,0.449,0.083c0.139,0.08,0.189,0.168,0.15,0.268
				c-0.036,0.098-0.157,0.21-0.371,0.334l-0.36,0.209l0.552,0.318l0.339-0.198c0.238-0.138,0.458-0.224,0.656-0.25
				c0.203-0.024,0.375,0.005,0.524,0.091c0.148,0.085,0.205,0.183,0.159,0.298c-0.04,0.117-0.172,0.236-0.4,0.369
				c-0.152,0.088-0.325,0.165-0.518,0.236c-0.198,0.068-0.418,0.124-0.656,0.168l0.66,0.379c0.223-0.064,0.432-0.138,0.625-0.221
				c0.198-0.085,0.381-0.173,0.548-0.271c0.482-0.28,0.761-0.543,0.841-0.784C280.254,191.138,280.126,190.923,279.799,190.734"/>
			<path clip-path="url(#SVGID_6_)" fill="#FFFFFF" d="M286.217,206.62l-0.684-0.396c-0.05,0.154-0.131,0.29-0.233,0.408
				c-0.101,0.118-0.232,0.224-0.404,0.324c-0.299,0.175-0.635,0.257-1.008,0.243c-0.371-0.009-0.723-0.112-1.065-0.31
				c-0.341-0.197-0.526-0.404-0.543-0.619c-0.022-0.213,0.121-0.407,0.42-0.582c0.172-0.1,0.355-0.177,0.553-0.238
				c0.203-0.059,0.442-0.103,0.707-0.133l-0.685-0.395c-0.239,0.044-0.462,0.103-0.671,0.177c-0.208,0.073-0.405,0.166-0.588,0.271
				c-0.548,0.318-0.832,0.661-0.845,1.023c-0.013,0.363,0.249,0.696,0.781,1.004c0.525,0.304,1.102,0.454,1.728,0.444
				c0.632-0.005,1.222-0.17,1.77-0.489c0.183-0.106,0.34-0.221,0.466-0.342C286.04,206.888,286.141,206.759,286.217,206.62"/>
			<path clip-path="url(#SVGID_6_)" fill="#FFFFFF" d="M286.058,205.506l-0.456-1.339l1.384,0.799L286.058,205.506z
				 M288.878,204.583l-0.617-0.357l-0.472,0.274l-2.09-1.206l-0.938,0.545l0.656,1.908l0.73,0.421l1.457-0.847l0.603,0.348
				l0.802-0.465l-0.603-0.348L288.878,204.583"/>
			<polygon clip-path="url(#SVGID_6_)" fill="#FFFFFF" points="290.805,204.161 289.948,203.666 289.155,204.125 290.014,204.621 
							"/>
			<polygon clip-path="url(#SVGID_6_)" fill="#FFFFFF" points="293.957,202.33 293.37,201.99 292.623,202.424 289.901,200.852 
				289.093,201.32 288.491,201.861 289.069,202.194 289.681,201.654 291.821,202.89 291.07,203.326 291.657,203.666 			"/>
			<path clip-path="url(#SVGID_6_)" fill="#FFFFFF" d="M296.879,200.631l-0.628-0.363l-1.446,0.841l0.083-0.764
				c0.039-0.324,0.022-0.558-0.045-0.702c-0.057-0.145-0.18-0.269-0.359-0.372c-0.317-0.182-0.668-0.257-1.06-0.229
				c-0.392,0.026-0.783,0.154-1.179,0.383c-0.178,0.103-0.345,0.218-0.502,0.345c-0.147,0.127-0.294,0.266-0.415,0.413l0.725,0.419
				c0.065-0.168,0.151-0.312,0.247-0.439c0.101-0.124,0.223-0.224,0.355-0.301c0.172-0.1,0.355-0.153,0.548-0.16
				c0.199-0.002,0.376,0.036,0.535,0.127c0.097,0.056,0.169,0.127,0.21,0.215c0.042,0.083,0.062,0.183,0.052,0.301l-0.139,1.313
				l0.628,0.362L296.879,200.631"/>
			<path clip-path="url(#SVGID_6_)" fill="#FFFFFF" d="M300.401,214.81l-0.685-0.396c-0.051,0.153-0.127,0.292-0.228,0.409
				c-0.101,0.118-0.233,0.225-0.405,0.324c-0.3,0.174-0.639,0.254-1.005,0.242c-0.373-0.008-0.725-0.111-1.066-0.309
				c-0.344-0.198-0.527-0.404-0.544-0.62c-0.021-0.212,0.115-0.41,0.415-0.583c0.173-0.102,0.355-0.178,0.558-0.237
				c0.205-0.059,0.438-0.105,0.708-0.132l-0.691-0.398c-0.234,0.047-0.458,0.105-0.671,0.178c-0.208,0.072-0.406,0.164-0.589,0.271
				c-0.548,0.319-0.831,0.661-0.839,1.026c-0.013,0.363,0.248,0.695,0.779,1.002c0.526,0.305,1.103,0.455,1.729,0.445
				c0.625-0.008,1.219-0.17,1.769-0.489c0.183-0.106,0.34-0.222,0.461-0.345C300.225,215.078,300.324,214.949,300.401,214.81"/>
			<path clip-path="url(#SVGID_6_)" fill="#FFFFFF" d="M300.248,213.697l-0.458-1.338l1.386,0.799L300.248,213.697z
				 M303.066,212.775l-0.617-0.357l-0.471,0.274l-2.09-1.206l-0.939,0.546l0.657,1.907l0.73,0.422l1.456-0.846l0.603,0.348
				l0.803-0.465l-0.603-0.35L303.066,212.775"/>
			<polygon clip-path="url(#SVGID_6_)" fill="#FFFFFF" points="304.996,212.353 304.137,211.857 303.345,212.318 304.203,212.813 
							"/>
			<polygon clip-path="url(#SVGID_6_)" fill="#FFFFFF" points="308.146,210.521 307.559,210.183 306.812,210.617 304.09,209.044 
				303.283,209.514 302.675,210.05 303.258,210.386 303.87,209.847 306.011,211.082 305.26,211.519 305.848,211.857 			"/>
			<polygon clip-path="url(#SVGID_6_)" fill="#FFFFFF" points="311.149,208.776 310.562,208.437 309.811,208.874 307.09,207.301 
				306.289,207.767 305.68,208.304 306.263,208.641 306.869,208.104 309.01,209.339 308.266,209.773 308.851,210.112 			"/>
			<path clip-path="url(#SVGID_6_)" fill="#FFFFFF" d="M314.687,223.058l-0.684-0.396c-0.05,0.154-0.131,0.289-0.233,0.408
				c-0.1,0.117-0.232,0.224-0.403,0.324c-0.3,0.174-0.636,0.256-1.007,0.242c-0.373-0.01-0.724-0.112-1.066-0.311
				c-0.344-0.197-0.527-0.403-0.543-0.618c-0.022-0.214,0.12-0.407,0.419-0.582c0.173-0.101,0.355-0.177,0.554-0.239
				c0.203-0.059,0.443-0.102,0.707-0.132l-0.684-0.396c-0.24,0.045-0.464,0.104-0.672,0.178c-0.208,0.073-0.406,0.164-0.59,0.271
				c-0.548,0.317-0.831,0.66-0.844,1.023c-0.013,0.361,0.249,0.695,0.779,1.002c0.525,0.304,1.103,0.453,1.729,0.445
				c0.631-0.006,1.221-0.17,1.769-0.49c0.183-0.105,0.341-0.221,0.466-0.342C314.511,223.326,314.61,223.196,314.687,223.058"/>
			<path clip-path="url(#SVGID_6_)" fill="#FFFFFF" d="M314.529,221.943l-0.457-1.34l1.385,0.8L314.529,221.943z M317.35,221.02
				l-0.619-0.356l-0.471,0.273l-2.091-1.205l-0.938,0.545l0.658,1.908l0.73,0.422l1.455-0.848l0.604,0.35l0.802-0.467l-0.604-0.348
				L317.35,221.02"/>
			<polygon clip-path="url(#SVGID_6_)" fill="#FFFFFF" points="319.276,220.598 318.418,220.103 317.626,220.563 318.485,221.058 
							"/>
			<polygon clip-path="url(#SVGID_6_)" fill="#FFFFFF" points="322.426,218.767 321.84,218.427 321.094,218.861 318.372,217.29 
				317.565,217.758 316.961,218.298 317.539,218.63 318.151,218.091 320.292,219.328 319.542,219.763 320.128,220.103 			"/>
			<path clip-path="url(#SVGID_6_)" fill="#FFFFFF" d="M322.011,217.091c-0.415-0.238-0.671-0.434-0.763-0.574
				c-0.088-0.145-0.042-0.266,0.142-0.372c0.182-0.106,0.396-0.136,0.64-0.083c0.245,0.055,0.581,0.201,0.997,0.439
				c0.417,0.242,0.669,0.434,0.767,0.578c0.086,0.145,0.047,0.269-0.137,0.375c-0.184,0.105-0.396,0.129-0.646,0.08
				C322.761,217.478,322.43,217.333,322.011,217.091 M323.879,216.013c-0.553-0.318-1.093-0.496-1.628-0.528
				c-0.529-0.036-1.014,0.073-1.445,0.324c-0.431,0.251-0.616,0.53-0.555,0.837c0.058,0.311,0.365,0.623,0.917,0.941
				c0.547,0.315,1.088,0.492,1.621,0.525c0.535,0.037,1.018-0.072,1.449-0.322c0.431-0.251,0.619-0.531,0.551-0.84
				C324.73,216.64,324.425,216.328,323.879,216.013"/>
			<path clip-path="url(#SVGID_6_)" fill="#FFFFFF" d="M329.913,231.848l-0.684-0.395c-0.051,0.153-0.127,0.292-0.233,0.407
				c-0.101,0.117-0.232,0.223-0.403,0.324c-0.3,0.174-0.636,0.256-1.003,0.244c-0.371-0.008-0.728-0.115-1.07-0.312
				c-0.344-0.197-0.523-0.4-0.543-0.619c-0.022-0.213,0.119-0.407,0.419-0.582c0.171-0.1,0.354-0.176,0.558-0.235
				c0.204-0.059,0.438-0.105,0.703-0.136l-0.685-0.395c-0.239,0.045-0.464,0.104-0.672,0.178c-0.207,0.072-0.405,0.164-0.589,0.271
				c-0.548,0.317-0.832,0.661-0.845,1.023c-0.007,0.366,0.254,0.698,0.779,1.003c0.532,0.307,1.103,0.454,1.733,0.447
				c0.627-0.008,1.217-0.173,1.764-0.492c0.184-0.105,0.341-0.221,0.468-0.342C329.736,232.117,329.836,231.988,329.913,231.848"/>
			<path clip-path="url(#SVGID_6_)" fill="#FFFFFF" d="M329.76,230.736l-0.462-1.341l1.391,0.802L329.76,230.736z M332.579,229.814
				l-0.616-0.357l-0.473,0.274l-2.09-1.206l-0.938,0.546l0.652,1.905l0.734,0.424l1.456-0.846l0.604,0.348l0.802-0.465l-0.604-0.35
				L332.579,229.814"/>
			<polygon clip-path="url(#SVGID_6_)" fill="#FFFFFF" points="334.508,229.392 333.649,228.896 332.856,229.357 333.716,229.852 
							"/>
			<path clip-path="url(#SVGID_6_)" fill="#FFFFFF" d="M334.237,227.625c-0.414-0.239-0.668-0.427-0.757-0.573
				c-0.094-0.141-0.048-0.268,0.132-0.371c0.181-0.105,0.4-0.133,0.644-0.079c0.245,0.054,0.577,0.196,0.992,0.437
				c0.418,0.242,0.674,0.438,0.768,0.578c0.097,0.145,0.051,0.271-0.133,0.377c-0.176,0.104-0.396,0.131-0.645,0.074
				C334.988,228.017,334.656,227.867,334.237,227.625 M336.1,226.548c-0.547-0.316-1.087-0.492-1.627-0.527
				c-0.529-0.035-1.013,0.074-1.445,0.324c-0.431,0.25-0.617,0.531-0.555,0.838c0.07,0.31,0.371,0.625,0.917,0.941
				c0.553,0.318,1.097,0.492,1.627,0.527s1.013-0.074,1.443-0.324c0.433-0.252,0.619-0.531,0.556-0.838
				C336.959,227.18,336.65,226.868,336.1,226.548"/>
			<path clip-path="url(#SVGID_6_)" fill="#FFFFFF" d="M336.64,225.55c-0.194-0.113-0.304-0.217-0.323-0.316
				c-0.026-0.104,0.039-0.194,0.188-0.28c0.146-0.085,0.304-0.124,0.482-0.109c0.174,0.012,0.351,0.074,0.546,0.187
				c0.19,0.109,0.302,0.215,0.322,0.314c0.021,0.101-0.045,0.191-0.191,0.277c-0.147,0.086-0.304,0.125-0.479,0.112
				C337.011,225.723,336.828,225.658,336.64,225.55 M338.986,224.824c-0.53-0.307-1.061-0.477-1.585-0.51
				c-0.525-0.033-1.003,0.08-1.43,0.327c-0.386,0.224-0.589,0.466-0.602,0.723c-0.02,0.259,0.156,0.489,0.508,0.692
				c0.322,0.187,0.685,0.277,1.091,0.271c0.402-0.003,0.773-0.105,1.109-0.301c0.132-0.076,0.232-0.159,0.314-0.248
				c0.076-0.084,0.124-0.18,0.15-0.282c0.255,0.177,0.379,0.348,0.374,0.511c0.006,0.162-0.119,0.317-0.374,0.465
				c-0.121,0.071-0.26,0.133-0.41,0.186c-0.158,0.051-0.336,0.101-0.529,0.143l0.607,0.35c0.179-0.049,0.355-0.111,0.519-0.176
				c0.163-0.071,0.318-0.15,0.477-0.242c0.477-0.277,0.7-0.584,0.663-0.923C339.826,225.466,339.533,225.14,338.986,224.824"/>
			<path clip-path="url(#SVGID_6_)" fill="#FFFFFF" d="M340.506,237.964l-0.683-0.395c-0.051,0.152-0.128,0.291-0.233,0.406
				c-0.101,0.118-0.233,0.225-0.404,0.324c-0.299,0.174-0.636,0.258-1.002,0.246c-0.371-0.01-0.729-0.116-1.07-0.312
				c-0.344-0.198-0.523-0.402-0.544-0.619c-0.021-0.213,0.12-0.408,0.42-0.582c0.171-0.1,0.355-0.177,0.559-0.236
				c0.203-0.059,0.438-0.105,0.702-0.136l-0.687-0.395c-0.239,0.044-0.462,0.103-0.67,0.177c-0.207,0.074-0.406,0.166-0.59,0.271
				c-0.548,0.318-0.831,0.66-0.844,1.023c-0.007,0.365,0.254,0.699,0.779,1.002c0.53,0.308,1.104,0.455,1.733,0.449
				c0.627-0.01,1.217-0.174,1.764-0.493c0.184-0.106,0.342-0.222,0.467-0.343C340.329,238.232,340.43,238.103,340.506,237.964"/>
			<path clip-path="url(#SVGID_6_)" fill="#FFFFFF" d="M340.353,236.853l-0.461-1.342l1.391,0.802L340.353,236.853z M343.173,235.93
				l-0.617-0.356l-0.473,0.273l-2.09-1.206l-0.938,0.546l0.651,1.904l0.736,0.425l1.456-0.847l0.604,0.348l0.801-0.465l-0.604-0.349
				L343.173,235.93"/>
			<polygon clip-path="url(#SVGID_6_)" fill="#FFFFFF" points="345.1,235.508 344.242,235.012 343.449,235.472 344.31,235.968 			
				"/>
			<path clip-path="url(#SVGID_6_)" fill="#FFFFFF" d="M344.831,233.742c-0.414-0.238-0.668-0.428-0.757-0.572
				c-0.094-0.142-0.048-0.268,0.13-0.371c0.183-0.106,0.401-0.133,0.646-0.08c0.246,0.053,0.576,0.197,0.99,0.436
				c0.42,0.242,0.676,0.438,0.77,0.578c0.097,0.145,0.051,0.272-0.132,0.379c-0.178,0.104-0.397,0.129-0.646,0.073
				C345.581,234.134,345.25,233.984,344.831,233.742 M346.692,232.666c-0.546-0.316-1.086-0.492-1.626-0.528
				c-0.53-0.035-1.014,0.074-1.445,0.324c-0.431,0.251-0.617,0.531-0.555,0.839c0.069,0.309,0.371,0.625,0.917,0.939
				c0.552,0.318,1.097,0.492,1.627,0.527c0.53,0.037,1.013-0.072,1.443-0.324c0.432-0.25,0.619-0.529,0.557-0.837
				C347.551,233.296,347.245,232.984,346.692,232.666"/>
			<path clip-path="url(#SVGID_6_)" fill="#FFFFFF" d="M347.149,231.505c-0.134-0.076-0.193-0.152-0.188-0.238
				c-0.001-0.082,0.07-0.165,0.202-0.242c0.133-0.076,0.27-0.114,0.416-0.117c0.137-0.004,0.275,0.035,0.408,0.111
				c0.134,0.078,0.193,0.154,0.195,0.236c-0.005,0.086-0.072,0.166-0.203,0.242c-0.132,0.076-0.273,0.117-0.417,0.117
				C347.415,231.619,347.282,231.583,347.149,231.505 M348.529,232.384c-0.163-0.094-0.25-0.191-0.251-0.291
				c-0.001-0.101,0.081-0.195,0.237-0.287c0.157-0.09,0.32-0.138,0.488-0.135c0.172,0,0.342,0.051,0.505,0.145
				s0.245,0.188,0.247,0.289c0.005,0.098-0.076,0.191-0.232,0.283c-0.157,0.092-0.32,0.139-0.494,0.139
				S348.692,232.48,348.529,232.384 M350.352,231.375c-0.21-0.121-0.445-0.193-0.699-0.205c-0.25-0.014-0.519,0.025-0.805,0.119
				c0.139-0.15,0.198-0.292,0.172-0.426c-0.026-0.132-0.128-0.25-0.318-0.359c-0.279-0.162-0.597-0.227-0.947-0.189
				c-0.355,0.037-0.727,0.17-1.128,0.402c-0.399,0.232-0.634,0.451-0.689,0.654c-0.059,0.207,0.043,0.389,0.325,0.552
				c0.188,0.108,0.393,0.169,0.621,0.183c0.23,0.016,0.475-0.02,0.733-0.101c-0.162,0.165-0.227,0.321-0.201,0.466
				c0.021,0.147,0.145,0.283,0.354,0.404c0.332,0.191,0.683,0.271,1.071,0.242c0.387-0.029,0.793-0.172,1.219-0.42
				c0.426-0.247,0.664-0.48,0.715-0.704C350.823,231.769,350.684,231.566,350.352,231.375"/>
			<path clip-path="url(#SVGID_6_)" fill="#FFFFFF" d="M351.289,244.189l-0.684-0.395c-0.052,0.154-0.126,0.292-0.228,0.41
				c-0.106,0.115-0.238,0.221-0.409,0.322c-0.3,0.173-0.637,0.256-1.003,0.244c-0.371-0.009-0.729-0.115-1.07-0.312
				c-0.343-0.197-0.522-0.4-0.545-0.619c-0.021-0.213,0.121-0.408,0.421-0.582c0.171-0.1,0.354-0.176,0.558-0.236
				c0.204-0.059,0.438-0.105,0.703-0.135l-0.686-0.395c-0.239,0.044-0.464,0.103-0.671,0.177c-0.207,0.073-0.406,0.165-0.59,0.271
				c-0.547,0.319-0.83,0.662-0.838,1.027c-0.013,0.362,0.248,0.695,0.773,0.999c0.531,0.308,1.107,0.457,1.734,0.448
				c0.627-0.008,1.216-0.174,1.764-0.492c0.184-0.107,0.34-0.222,0.467-0.342C351.113,244.458,351.213,244.329,351.289,244.189"/>
			<path clip-path="url(#SVGID_6_)" fill="#FFFFFF" d="M351.137,243.078l-0.462-1.342l1.389,0.803L351.137,243.078z
				 M353.956,242.156l-0.617-0.357l-0.473,0.273l-2.09-1.205l-0.938,0.545l0.657,1.908l0.73,0.422l1.454-0.847l0.604,0.349
				l0.802-0.467l-0.603-0.348L353.956,242.156"/>
			<polygon clip-path="url(#SVGID_6_)" fill="#FFFFFF" points="355.883,241.734 355.024,241.238 354.232,241.697 355.093,242.193 
							"/>
			<path clip-path="url(#SVGID_6_)" fill="#FFFFFF" d="M355.613,239.966c-0.414-0.238-0.67-0.427-0.757-0.572
				c-0.094-0.141-0.048-0.268,0.131-0.371c0.182-0.105,0.401-0.133,0.646-0.08c0.245,0.054,0.577,0.198,0.99,0.438
				c0.419,0.241,0.675,0.437,0.768,0.578c0.097,0.144,0.052,0.271-0.131,0.377c-0.178,0.104-0.396,0.13-0.646,0.074
				C356.363,240.359,356.032,240.208,355.613,239.966 M357.477,238.89c-0.547-0.315-1.087-0.492-1.623-0.525
				c-0.534-0.037-1.018,0.072-1.45,0.322c-0.431,0.251-0.617,0.531-0.549,0.841c0.063,0.306,0.364,0.622,0.911,0.938
				c0.553,0.319,1.098,0.492,1.627,0.527c0.53,0.036,1.014-0.073,1.443-0.324c0.433-0.251,0.62-0.53,0.557-0.837
				C358.334,239.521,358.027,239.208,357.477,238.89"/>
			<polygon clip-path="url(#SVGID_6_)" fill="#FFFFFF" points="359.157,236.552 358.678,236.275 356.201,237.714 356.829,238.076 
				358.413,237.157 359.881,239.41 360.709,238.929 			"/>
			<path clip-path="url(#SVGID_6_)" fill="#FFFFFF" d="M366.613,253.037l-0.686-0.396c-0.05,0.153-0.125,0.292-0.228,0.41
				c-0.104,0.114-0.237,0.222-0.41,0.321c-0.298,0.174-0.634,0.257-1.001,0.245c-0.371-0.009-0.729-0.114-1.07-0.312
				c-0.343-0.198-0.523-0.401-0.544-0.62c-0.021-0.212,0.121-0.406,0.42-0.58c0.171-0.101,0.354-0.178,0.558-0.236
				c0.204-0.059,0.438-0.105,0.702-0.135l-0.686-0.396c-0.239,0.045-0.462,0.104-0.669,0.178c-0.208,0.074-0.406,0.165-0.59,0.271
				c-0.547,0.319-0.832,0.661-0.84,1.027c-0.012,0.362,0.249,0.695,0.775,0.999c0.53,0.307,1.107,0.457,1.732,0.449
				c0.626-0.01,1.218-0.175,1.765-0.494c0.184-0.105,0.34-0.221,0.466-0.341C366.436,253.305,366.536,253.175,366.613,253.037"/>
			<path clip-path="url(#SVGID_6_)" fill="#FFFFFF" d="M366.459,251.925l-0.461-1.342l1.389,0.803L366.459,251.925z
				 M369.279,251.001l-0.619-0.356l-0.471,0.274l-2.09-1.207l-0.938,0.547l0.657,1.908l0.73,0.42l1.454-0.846l0.604,0.349
				l0.803-0.466l-0.604-0.348L369.279,251.001"/>
			<polygon clip-path="url(#SVGID_6_)" fill="#FFFFFF" points="371.206,250.58 370.348,250.085 369.556,250.544 370.415,251.041 			
				"/>
			<path clip-path="url(#SVGID_6_)" fill="#FFFFFF" d="M370.937,248.814c-0.413-0.239-0.668-0.428-0.757-0.572
				c-0.094-0.143-0.047-0.269,0.131-0.371c0.182-0.107,0.401-0.133,0.646-0.08c0.245,0.053,0.576,0.197,0.99,0.437
				c0.42,0.241,0.674,0.437,0.768,0.578c0.097,0.144,0.052,0.271-0.132,0.378c-0.176,0.103-0.396,0.129-0.645,0.072
				C371.687,249.207,371.354,249.055,370.937,248.814 M372.8,247.738c-0.549-0.316-1.087-0.492-1.622-0.525
				c-0.535-0.039-1.019,0.07-1.451,0.322c-0.431,0.25-0.616,0.529-0.548,0.84c0.062,0.307,0.364,0.622,0.911,0.938
				c0.552,0.318,1.097,0.492,1.626,0.527c0.53,0.036,1.012-0.073,1.444-0.324c0.43-0.25,0.619-0.53,0.556-0.838
				C373.657,248.369,373.35,248.056,372.8,247.738"/>
			<path clip-path="url(#SVGID_6_)" fill="#FFFFFF" d="M374.669,247.348c-0.192-0.112-0.306-0.218-0.326-0.319
				c-0.026-0.098,0.04-0.188,0.187-0.273c0.151-0.088,0.31-0.127,0.483-0.114c0.167,0.015,0.353,0.079,0.546,0.19
				c0.192,0.113,0.301,0.216,0.328,0.312c0.02,0.102-0.047,0.192-0.197,0.281c-0.147,0.086-0.307,0.123-0.474,0.107
				C375.043,247.521,374.865,247.46,374.669,247.348 M376.319,246.325c-0.321-0.187-0.683-0.277-1.086-0.274
				c-0.402,0.009-0.779,0.109-1.113,0.305c-0.132,0.076-0.239,0.161-0.314,0.247c-0.076,0.085-0.126,0.18-0.151,0.276
				c-0.255-0.176-0.385-0.344-0.381-0.506c0-0.165,0.122-0.318,0.375-0.467c0.117-0.068,0.254-0.129,0.412-0.18
				c0.156-0.057,0.34-0.104,0.543-0.145l-0.611-0.354c-0.185,0.053-0.361,0.115-0.529,0.183c-0.167,0.067-0.326,0.147-0.477,0.235
				c-0.478,0.277-0.693,0.588-0.657,0.926c0.038,0.34,0.33,0.667,0.875,0.982c0.536,0.31,1.062,0.478,1.588,0.51
				c0.524,0.033,0.997-0.076,1.428-0.326c0.386-0.225,0.588-0.467,0.607-0.721C376.846,246.758,376.672,246.529,376.319,246.325"/>
		</g>
	</g>
</g>
<g>
	<g>
		<g enable-background="new    ">
			<defs>
				<polygon id="SVGID_7_" enable-background="new    " points="361.309,276.298 368.135,272.332 375.004,276.297 368.178,280.264 
									"/>
			</defs>
			<clipPath id="SVGID_8_">
				<use xlink:href="#SVGID_7_"  overflow="visible"/>
			</clipPath>
			<g clip-path="url(#SVGID_8_)">
				<g>
					<g>
						<g>
							<polyline fill="#FFFFFF" points="369.87,273.333 368.135,272.332 361.309,276.298 364.73,278.274 368.178,280.264 
								369.903,279.261 368.192,278.274 369.893,277.286 368.182,276.297 369.882,275.31 368.17,274.322 369.87,273.333 							"/>
						</g>
					</g>
				</g>
			</g>
		</g>
	</g>
</g>
<g>
	<g>
		<g enable-background="new    ">
			<defs>
				<polygon id="SVGID_9_" enable-background="new    " points="173.812,167.298 180.637,163.332 187.506,167.298 180.682,171.264 
									"/>
			</defs>
			<clipPath id="SVGID_10_">
				<use xlink:href="#SVGID_9_"  overflow="visible"/>
			</clipPath>
			<g clip-path="url(#SVGID_10_)">
				<g>
					<g>
						<g>
							<polyline fill="#FFFFFF" points="182.367,164.331 180.637,163.332 173.812,167.298 177.234,169.274 180.682,171.264 
								182.407,170.262 180.695,169.274 182.396,168.286 180.685,167.298 182.384,166.31 180.667,165.318 182.367,164.331 							
								"/>
						</g>
					</g>
				</g>
			</g>
		</g>
	</g>
</g>
<g>
	<polygon fill="#EC7404" stroke="#FFFFFF" stroke-width="0.5" points="312.837,-23.968 316.249,-23.968 314.68,-12.192 	"/>
	<circle fill="#EC7404" cx="314.543" cy="-33" r="9.731"/>
	<polygon fill="none" stroke="#FFFFFF" stroke-width="0.5" points="318.413,-35.826 314.543,-40.501 310.674,-35.826 
		312.627,-35.826 312.627,-30.704 316.46,-30.704 316.46,-35.826 	"/>
	<text transform="matrix(1 0 0 1 312.877 -25.1196)" fill="#FFFFFF" font-family="'DejaVuSansCondensed-Bold'" font-size="5"></text>
</g>
<g>
	<polygon fill="#EC7404" stroke="#FFFFFF" stroke-width="0.5" points="338.409,-23.968 341.822,-23.968 340.252,-12.192 	"/>
	<circle fill="#EC7404" cx="340.116" cy="-33" r="9.731"/>
	<polygon fill="none" stroke="#FFFFFF" stroke-width="0.5" points="343.985,-35.826 340.115,-40.501 336.246,-35.826 
		338.199,-35.826 338.199,-30.704 342.032,-30.704 342.032,-35.826 	"/>
	<rect x="338.429" y="-29.443" fill="none" width="8" height="3.833"/>
	<text transform="matrix(1 0 0 1 338.4307 -25.6436)" fill="#FFFFFF" font-family="'DejaVuSansCondensed-Bold'" font-size="5">P</text>
</g>
<g>
	<polygon fill="#EC7404" stroke="#FFFFFF" stroke-width="0.5" points="363.981,-23.968 367.394,-23.968 365.824,-12.192 	"/>
	<circle fill="#EC7404" cx="365.688" cy="-33" r="9.731"/>
	<polygon fill="none" stroke="#FFFFFF" stroke-width="0.5" points="369.558,-35.826 365.688,-40.501 361.818,-35.826 
		363.771,-35.826 363.771,-30.704 367.604,-30.704 367.604,-35.826 	"/>
	<rect x="360.819" y="-29.442" fill="none" width="8" height="3.833"/>
	<text transform="matrix(1 0 0 1 360.8213 -25.6436)" fill="#FFFFFF" font-family="'DejaVuSansCondensed-Bold'" font-size="5"> EC</text>
</g>
<g>
	<polygon fill="#EC7404" stroke="#FFFFFF" stroke-width="0.5" points="415.003,-23.991 418.417,-23.991 416.847,-12.215 	"/>
	<g>
		<circle fill="#EC7404" cx="416.71" cy="-33" r="9.731"/>
		<g>
			<g>
				<path fill="none" stroke="#FFFFFF" stroke-width="0.5" d="M421.197-29.081c0,0.312-0.255,0.567-0.567,0.567h-7.839
					c-0.312,0-0.567-0.255-0.567-0.567v-7.84c0-0.312,0.255-0.567,0.567-0.567h7.839c0.312,0,0.567,0.255,0.567,0.567V-29.081z"/>
			</g>
			<polygon fill="#FFFFFF" points="413.152,-32.975 415.846,-29.744 420.287,-36.475 415.608,-31.057 			"/>
		</g>
	</g>
</g>
<g>
	<polygon fill="#EC7404" stroke="#FFFFFF" stroke-width="0.5" points="440.863,-23.991 444.277,-23.991 442.707,-12.215 	"/>
	<circle fill="#EC7404" cx="442.571" cy="-33" r="9.731"/>
	<g>
		<g>
			<path fill="#EC7404" d="M446.946-31.146c0,0.312-0.255,0.567-0.567,0.567h-9.54c-0.312,0-0.567-0.255-0.567-0.567V-36.6
				c0-0.312,0.255-0.567,0.567-0.567h9.54c0.312,0,0.567,0.255,0.567,0.567V-31.146z"/>
			<path fill="none" stroke="#FFFFFF" stroke-width="0.5" d="M446.946-31.146c0,0.312-0.255,0.567-0.567,0.567h-9.54
				c-0.312,0-0.567-0.255-0.567-0.567V-36.6c0-0.312,0.255-0.567,0.567-0.567h9.54c0.312,0,0.567,0.255,0.567,0.567V-31.146z"/>
		</g>
		<g>
			<path fill="#EC7404" d="M448.87-29.223c0,0.312-0.255,0.567-0.567,0.567h-9.54c-0.312,0-0.567-0.255-0.567-0.567v-5.454
				c0-0.312,0.255-0.567,0.567-0.567h9.54c0.312,0,0.567,0.255,0.567,0.567V-29.223z"/>
			<path fill="none" stroke="#FFFFFF" stroke-width="0.5" d="M448.87-29.223c0,0.312-0.255,0.567-0.567,0.567h-9.54
				c-0.312,0-0.567-0.255-0.567-0.567v-5.454c0-0.312,0.255-0.567,0.567-0.567h9.54c0.312,0,0.567,0.255,0.567,0.567V-29.223z"/>
		</g>
	</g>
</g>
<g>
	<polygon fill="#EC7404" stroke="#FFFFFF" stroke-width="0.5" points="287.264,-23.968 290.677,-23.968 289.107,-12.192 	"/>
	<circle fill="#EC7404" cx="288.97" cy="-33" r="9.731"/>
	<g>
		<path fill="#FFFFFF" d="M285.842-31.311h6.294v-0.557h-6.294V-31.311z M285.842-29.615h6.294v-0.557h-6.294V-29.615z
			 M285.842-34.658h6.294v-0.558h-6.294V-34.658z M285.842-32.993h6.294v-0.557h-6.294V-32.993z M292.842-27.685h-7.744v-11.183
			h5.521v2.222h2.223V-27.685z M284.54-27.125 M291.178-38.797l1.594,1.592h-1.594V-38.797z M291.336-39.427h-6.796v12.301h8.86
			v-10.239L291.336-39.427z"/>
	</g>
</g>
<g>
	<polygon fill="#EC7404" stroke="#FFFFFF" stroke-width="0.5" points="295.931,185.216 299.344,185.216 297.775,196.992 	"/>
	<circle fill="#EC7404" cx="297.638" cy="176.183" r="9.731"/>
	<g>
		<path fill="#FFFFFF" d="M294.509,177.873h6.293v-0.557h-6.293V177.873z M294.509,179.569h6.293v-0.557h-6.293V179.569z
			 M294.509,174.526h6.293v-0.558h-6.293V174.526z M294.509,176.19h6.293v-0.557h-6.293V176.19z M301.51,181.499h-7.745v-11.183
			h5.522v2.222h2.223V181.499z M293.208,182.058 M299.846,170.386l1.594,1.592h-1.594V170.386z M300.004,169.757h-6.796v12.301
			h8.861v-10.239L300.004,169.757z"/>
	</g>
</g>
<g>
	<polygon fill="#EC7404" stroke="#FFFFFF" stroke-width="0.5" points="261.69,-23.968 265.104,-23.968 263.533,-12.192 	"/>
	<circle fill="#EC7404" cx="263.397" cy="-33.001" r="9.731"/>
	<g>
		<g>
			<path fill="#FFFFFF" d="M268.454-33.723c-0.002-0.272-0.025-0.522-0.083-0.758c-0.046-0.183-0.114-0.358-0.217-0.517
				c-0.152-0.24-0.387-0.429-0.656-0.535c-0.269-0.108-0.564-0.149-0.898-0.149c-0.295,0-0.563,0.033-0.811,0.114
				c-0.185,0.062-0.357,0.153-0.505,0.277c-0.223,0.186-0.377,0.438-0.463,0.709c-0.086,0.264-0.118,0.55-0.119,0.862l-0.569,4.806
				h1.198v2.099h0.97v-2.099h0.6v2.099h0.97v-2.099h1.204L268.454-33.723z"/>
			<path fill="#FFFFFF" d="M260.08-36.128c0.872,0,1.576-0.707,1.576-1.577c0-0.871-0.704-1.577-1.576-1.577
				c-0.87,0-1.575,0.706-1.576,1.577C258.505-36.834,259.21-36.128,260.08-36.128 M260.08-35.59c-1.305,0.001-2.36,1.057-2.36,2.361
				v2.469h1.092v3.943h0.969v-3.943h0.6v3.943h0.97v-3.943h1.091v-2.469C262.44-34.534,261.385-35.589,260.08-35.59"/>
		</g>
		<circle fill="#FFFFFF" cx="266.494" cy="-37.707" r="1.584"/>
	</g>
</g>
<g>
	<polygon fill="#EC7404" stroke="#FFFFFF" stroke-width="0.5" points="389.554,-23.968 392.967,-23.968 391.397,-12.192 	"/>
	<circle fill="#EC7404" cx="391.26" cy="-33" r="9.731"/>
	<text transform="matrix(1 0 0 1 389.502 -25.1196)" fill="#FFFFFF" font-family="'DejaVuSansCondensed-Bold'" font-size="5"></text>
	<polygon fill="none" stroke="#FFFFFF" stroke-width="0.5" points="387.342,-35.379 391.212,-30.704 395.081,-35.379 
		393.128,-35.379 393.128,-40.501 389.295,-40.501 389.295,-35.379 	"/>
</g>
<g>
	<polygon fill="#EC7404" stroke="#FFFFFF" stroke-width="0.5" points="213.418,137.002 216.831,137.002 215.261,148.778 	"/>
	<circle fill="#EC7404" cx="215.125" cy="127.969" r="9.731"/>
	<g>
		<g>
			<path fill="#FFFFFF" d="M220.182,127.247c-0.002-0.272-0.025-0.522-0.083-0.758c-0.046-0.183-0.114-0.358-0.217-0.517
				c-0.152-0.24-0.387-0.429-0.656-0.535c-0.269-0.108-0.564-0.149-0.898-0.149c-0.295,0-0.563,0.033-0.811,0.114
				c-0.185,0.062-0.357,0.153-0.505,0.277c-0.223,0.186-0.377,0.438-0.463,0.709c-0.086,0.264-0.118,0.55-0.119,0.862l-0.569,4.806
				h1.198v2.099h0.97v-2.099h0.6v2.099h0.97v-2.099h1.204L220.182,127.247z"/>
			<path fill="#FFFFFF" d="M211.808,124.842c0.872,0,1.576-0.707,1.576-1.577c0-0.871-0.704-1.577-1.576-1.577
				c-0.87,0-1.575,0.706-1.576,1.577C210.232,124.136,210.938,124.842,211.808,124.842 M211.808,125.38
				c-1.305,0.001-2.36,1.057-2.36,2.361v2.469h1.092v3.943h0.969v-3.943h0.6v3.943h0.97v-3.943h1.091v-2.469
				C214.168,126.437,213.112,125.381,211.808,125.38"/>
		</g>
		<circle fill="#FFFFFF" cx="218.221" cy="123.263" r="1.584"/>
	</g>
</g>
<g>
	<polygon fill="#EC7404" stroke="#FFFFFF" stroke-width="0.5" points="400.749,245.502 404.162,245.502 402.592,257.278 	"/>
	<circle fill="#EC7404" cx="402.456" cy="236.469" r="9.731"/>
	<g>
		<g>
			<path fill="#FFFFFF" d="M407.513,235.748c-0.002-0.272-0.025-0.523-0.083-0.758c-0.046-0.184-0.114-0.358-0.217-0.518
				c-0.152-0.239-0.387-0.429-0.656-0.535c-0.269-0.107-0.564-0.148-0.898-0.148c-0.295,0-0.563,0.032-0.811,0.113
				c-0.185,0.062-0.357,0.152-0.505,0.277c-0.223,0.186-0.377,0.438-0.463,0.709c-0.086,0.264-0.118,0.549-0.119,0.861l-0.569,4.806
				h1.198v2.099h0.97v-2.099h0.6v2.099h0.97v-2.099h1.204L407.513,235.748z"/>
			<path fill="#FFFFFF" d="M399.139,233.342c0.872,0,1.576-0.706,1.576-1.577s-0.704-1.576-1.576-1.576
				c-0.87,0-1.575,0.705-1.576,1.576C397.563,232.636,398.269,233.342,399.139,233.342 M399.139,233.88
				c-1.305,0-2.36,1.057-2.36,2.36v2.47h1.092v3.943h0.969v-3.943h0.6v3.943h0.97v-3.943h1.091v-2.47
				C401.499,234.937,400.443,233.88,399.139,233.88"/>
		</g>
		<circle fill="#FFFFFF" cx="405.552" cy="231.763" r="1.584"/>
	</g>
</g>
<g>
	<polygon fill="#EC7404" points="222.311,185.193 225.725,185.193 224.154,196.969 	"/>
	<circle fill="#EC7404" cx="224.018" cy="176.183" r="9.731"/>
	<g>
		<g>
			<path fill="none" stroke="#FFFFFF" stroke-width="0.5" d="M228.505,181.978c0,0.312-0.255,0.567-0.566,0.567h-7.84
				c-0.312,0-0.567-0.255-0.567-0.567v-11.507c0-0.312,0.255-0.567,0.567-0.567h7.84c0.312,0,0.566,0.255,0.566,0.567V181.978z"/>
		</g>
	</g>
	<path fill="#FFFFFF" d="M224.018,174.555c0.743,0,1.342-0.601,1.342-1.342s-0.599-1.342-1.342-1.342
		c-0.74,0-1.34,0.601-1.341,1.342C222.678,173.954,223.277,174.555,224.018,174.555 M224.018,175.013
		c-1.11,0-2.009,0.899-2.009,2.01v2.102h0.93v3.357h0.824v-3.357h0.511v3.357h0.825v-3.357h0.929v-2.102
		C226.027,175.912,225.129,175.014,224.018,175.013"/>
</g>
<path fill="#57AB27" stroke="#FFFFFF" stroke-width="0.5" d="M361.631,197.027c0,0-1.479-0.059-4.775-0.059
	c-3.297,0-4.56,0.059-4.56,0.059c-5.438,0-9.85,4.41-9.85,9.85c0,0-0.048,0.943-0.048,1.393c0,0.448,0.048,1.222,0.048,1.222
	c0,3.191,1.52,6.026,3.872,7.827c-0.59,1.596-1.733,3.719-3.962,5.943c0,0,3.107-1.314,7.137-4.327
	c0.888,0.263,1.83,0.407,2.803,0.407c0,0,2.475,0.062,4.65,0.062c2.177,0,4.685-0.062,4.685-0.062c5.438,0,9.848-4.409,9.848-9.851
	c0,0,0.045-0.718,0.045-1.377s-0.045-1.237-0.045-1.237C371.479,201.437,367.069,197.027,361.631,197.027z"/>
<g>
	<path fill="#FFFFFF" d="M351.979,210.184c0-0.574,0.015-1.149,0.086-1.565l-0.028-0.016c-0.345,0.935-1.279,1.695-2.528,1.695
		c-1.105,0-1.938-0.559-1.938-1.695c0-1.45,1.521-2.484,4.395-2.498v-0.633c0-1.163-0.401-1.811-1.68-1.811
		c-0.489,0-1.049,0.059-1.538,0.202c-0.028,0.417-0.1,0.862-0.186,1.321h-0.547v-1.882c0.647-0.229,1.466-0.388,2.428-0.388
		c1.896,0,2.428,0.991,2.428,2.312v4.223c0.345,0.059,0.833,0.115,1.236,0.145v0.488
		C353.531,210.155,352.626,210.212,351.979,210.184z M351.965,206.808c-2.83,0-3.477,0.891-3.477,1.609
		c0,0.703,0.489,1.135,1.236,1.135c1.351,0,2.24-1.336,2.24-2.658V206.808z"/>
	<path fill="#FFFFFF" d="M355.844,203.447c0,0.388-0.043,0.934-0.128,1.293l0.027,0.014c0.402-1.148,1.365-1.824,2.5-1.824
		c1.681,0,2.644,1.135,2.644,3.362c0,2.585-1.451,3.979-3.635,3.979c-0.948,0-1.594-0.086-2.312-0.259v-9.581
		c-0.345-0.058-0.833-0.115-1.25-0.144v-0.488c0.575-0.071,1.494-0.129,2.154-0.101V203.447z M358.1,203.662
		c-1.537,0-2.256,1.796-2.256,3.074v2.601c0.446,0.157,0.92,0.216,1.494,0.216c1.565,0,2.601-0.934,2.601-3.175
		C359.938,204.682,359.364,203.662,358.1,203.662z"/>
</g>
</svg>
