<?xml version="1.0" encoding="utf-8"?>
<!-- Generator: Adobe Illustrator 16.0.0, SVG Export Plug-In . SVG Version: 6.00 Build 0)  -->
<!DOCTYPE svg PUBLIC "-//W3C//DTD SVG 1.1//EN" "http://www.w3.org/Graphics/SVG/1.1/DTD/svg11.dtd">
<svg version="1.1" xmlns="http://www.w3.org/2000/svg" xmlns:xlink="http://www.w3.org/1999/xlink" x="0px" y="0px"
	 width="595.275px" height="419.527px" viewBox="0 0 595.275 419.527" enable-background="new 0 0 595.275 419.527"
	 xml:space="preserve">
<g id="Ebene_1">
	<g>
		<g>
			<g enable-background="new    ">
				<defs>
					<polygon id="SVGID_1_" enable-background="new    " points="24.112,172.023 228.642,53.16 536.354,230.829 331.824,349.693
											"/>
				</defs>
				<clipPath id="SVGID_2_">
					<use xlink:href="#SVGID_1_"  overflow="visible"/>
				</clipPath>
				<g clip-path="url(#SVGID_2_)">
					<g>
						<g>
							<g>
								<polyline fill="#CFD0D2" points="334.957,253.703 332.211,252.118 322.583,246.559 322.624,253.703 334.957,253.703
																	"/>
								<path id="C1.22" fill="#CFD0D2" d="M281.273,122.556l-0.658-0.379c-0.268-0.155-0.511-0.243-0.727-0.265
									c-0.224-0.026-0.42,0.007-0.598,0.11c-0.159,0.092-0.222,0.195-0.215,0.31c0.02,0.114,0.128,0.229,0.314,0.335
									c0.243,0.14,0.523,0.207,0.86,0.203c0.331-0.007,0.623-0.081,0.883-0.232L281.273,122.556 M267.792,113.119
									c-0.243-0.14-0.517-0.217-0.81-0.225c-0.286-0.011-0.585,0.051-0.871,0.181l1.641,0.947c0.241-0.14,0.361-0.292,0.367-0.457
									C268.125,113.399,268.016,113.248,267.792,113.119 M273.619,108.143l-0.658-0.38c-0.262-0.151-0.504-0.24-0.727-0.266
									c-0.223-0.026-0.414,0.011-0.591,0.114c-0.159,0.092-0.229,0.192-0.215,0.31c0.02,0.114,0.123,0.225,0.314,0.335
									c0.236,0.137,0.523,0.199,0.854,0.199c0.331-0.007,0.624-0.081,0.884-0.232L273.619,108.143 M285.325,113.248
									c-0.243-0.14-0.51-0.214-0.803-0.221c-0.286-0.011-0.585,0.051-0.877,0.177l1.642,0.948c0.241-0.14,0.361-0.292,0.373-0.454
									C285.664,113.532,285.555,113.381,285.325,113.248 M264.57,115.08c-0.715-0.413-1.086-0.841-1.121-1.279
									c-0.041-0.442,0.269-0.852,0.922-1.231c0.641-0.372,1.34-0.549,2.098-0.538c0.757,0.011,1.478,0.214,2.161,0.608
									c0.62,0.357,0.934,0.752,0.936,1.187c0.002,0.428-0.308,0.83-0.929,1.191l-0.355,0.206l-2.962-1.71
									c-0.266,0.192-0.38,0.383-0.341,0.575s0.218,0.383,0.544,0.571c0.269,0.155,0.581,0.292,0.945,0.405
									c0.351,0.115,0.758,0.21,1.21,0.288l-0.97,0.564c-0.415-0.107-0.791-0.229-1.148-0.369
									C265.202,115.408,264.87,115.253,264.57,115.08 M272.234,115.5c0.426-0.026,0.79-0.007,1.114,0.056
									c0.325,0.055,0.612,0.162,0.874,0.313c0.46,0.266,0.665,0.546,0.622,0.844c-0.043,0.299-0.321,0.601-0.854,0.911
									l-2.398,1.394l-1.277-0.737l0.394-0.229l1.44-0.837c0.343-0.199,0.571-0.339,0.685-0.42
									c0.108-0.084,0.177-0.155,0.203-0.214c0.038-0.073,0.031-0.151-0.008-0.225c-0.038-0.074-0.115-0.147-0.224-0.21
									c-0.262-0.151-0.567-0.21-0.924-0.181c-0.355,0.029-0.705,0.151-1.067,0.361l-1.935,1.124l-1.264-0.729l3.933-2.286
									l1.264,0.729L272.234,115.5 M274.907,120.079c0.249,0.144,0.467,0.232,0.664,0.266c0.191,0.029,0.357,0.007,0.49-0.07
									c0.108-0.062,0.152-0.14,0.12-0.217c-0.032-0.085-0.16-0.21-0.384-0.376l-0.198-0.144c-0.493-0.365-0.762-0.667-0.794-0.907
									c-0.033-0.24,0.144-0.476,0.53-0.7c0.413-0.24,0.864-0.339,1.354-0.292c0.484,0.052,1.026,0.247,1.62,0.59
									c0.236,0.136,0.459,0.288,0.683,0.454c0.224,0.173,0.448,0.361,0.678,0.583l-0.958,0.557
									c-0.16-0.225-0.34-0.424-0.532-0.601c-0.198-0.181-0.403-0.335-0.626-0.464c-0.243-0.14-0.454-0.225-0.632-0.254
									c-0.171-0.033-0.325-0.011-0.445,0.059c-0.102,0.059-0.133,0.129-0.101,0.213c0.032,0.078,0.154,0.192,0.358,0.339
									l0.192,0.147c0.562,0.42,0.857,0.752,0.903,0.992c0.033,0.24-0.15,0.472-0.55,0.704c-0.418,0.243-0.889,0.339-1.411,0.28
									c-0.522-0.059-1.09-0.262-1.709-0.619c-0.262-0.151-0.504-0.321-0.747-0.505c-0.236-0.188-0.467-0.387-0.678-0.604
									l0.958-0.557c0.129,0.221,0.295,0.42,0.506,0.608C274.397,119.747,274.633,119.92,274.907,120.079 M279.995,120.54
									l0.958-0.557c0.332,0.118,0.657,0.247,0.963,0.387c0.306,0.132,0.594,0.284,0.868,0.442
									c0.715,0.413,1.086,0.789,1.126,1.135c0.041,0.347-0.263,0.7-0.891,1.065l-2.246,1.305l-1.271-0.734l0.583-0.339
									c-0.407,0.037-0.776,0.03-1.094-0.029c-0.319-0.059-0.638-0.177-0.938-0.35c-0.409-0.236-0.62-0.498-0.634-0.785
									c-0.027-0.288,0.163-0.538,0.537-0.756c0.463-0.269,0.952-0.376,1.493-0.313c0.528,0.056,1.141,0.284,1.824,0.678
									l0.747,0.432l0.102-0.059c0.196-0.114,0.259-0.247,0.201-0.391c-0.071-0.144-0.269-0.316-0.601-0.508
									c-0.268-0.155-0.555-0.284-0.836-0.387C280.594,120.672,280.301,120.591,279.995,120.54 M260.934,110.033l4.01-0.933
									l1.73,0.999l-5.246,3.049l-1.284-0.741l3.838-2.23l-4.048,0.94l-0.862-0.498l1.616-2.345l-3.838,2.23l-1.29-0.744
									l5.246-3.049l1.73,0.999L260.934,110.033 M272.341,106.126l0.958-0.557c0.338,0.122,0.657,0.247,0.963,0.387
									c0.312,0.137,0.6,0.288,0.868,0.442c0.715,0.413,1.093,0.792,1.127,1.136c0.04,0.346-0.258,0.704-0.885,1.069l-2.239,1.301
									l-1.277-0.737l0.577-0.335c-0.401,0.041-0.77,0.033-1.088-0.026c-0.325-0.062-0.637-0.177-0.944-0.354
									c-0.408-0.236-0.62-0.498-0.635-0.785c-0.021-0.284,0.163-0.538,0.537-0.755c0.463-0.27,0.959-0.373,1.494-0.313
									c0.535,0.059,1.141,0.284,1.824,0.678l0.747,0.432l0.102-0.059c0.197-0.114,0.266-0.244,0.202-0.391
									c-0.071-0.144-0.263-0.313-0.602-0.509c-0.268-0.155-0.555-0.284-0.835-0.387
									C272.94,106.259,272.647,106.177,272.341,106.126 M282.11,115.213c-0.721-0.417-1.093-0.844-1.127-1.283
									c-0.034-0.438,0.275-0.848,0.929-1.228c0.641-0.372,1.333-0.553,2.097-0.538c0.757,0.011,1.478,0.214,2.161,0.608
									c0.619,0.357,0.934,0.752,0.93,1.183c0.008,0.431-0.307,0.83-0.929,1.191l-0.355,0.207l-2.956-1.707
									c-0.266,0.192-0.386,0.38-0.347,0.571c0.04,0.192,0.219,0.383,0.551,0.575c0.268,0.155,0.574,0.288,0.938,0.402
									c0.357,0.118,0.765,0.214,1.217,0.291l-0.971,0.564c-0.414-0.106-0.797-0.232-1.154-0.372S282.404,115.382,282.11,115.213
									 M279.306,109.956l0.895-0.52l0.632,0.365l1.116-0.648l1.265,0.73l-1.116,0.648l1.302,0.752l-0.895,0.52l-1.302-0.752
									l-1.668,0.97c-0.184,0.106-0.267,0.199-0.266,0.28c0.013,0.081,0.122,0.181,0.339,0.306l0.651,0.376l-0.895,0.52
									l-1.085-0.627c-0.498-0.288-0.748-0.549-0.755-0.789c-0.001-0.243,0.251-0.508,0.747-0.796l1.668-0.969L279.306,109.956
									 M274.307,110.583l5.462-3.174l1.264,0.73l-5.461,3.174L274.307,110.583 M319.54,123.92l-63.514-36.672l-36.644,21.296
									l63.514,36.672L319.54,123.92"/>
								<path id="C1.23" fill="#EC7405" d="M294.125,101.603l0.9-0.523l0.843,0.487l-0.9,0.523L294.125,101.603 M293.673,98.204l0.615-0.357
									l0.982,0.376l0.861,0.498l-2.867,1.666l0.798,0.461l-0.622,0.361l-2.458-1.419l0.622-0.361l0.798,0.46l2.258-1.312
									L293.673,98.204 M289.101,98.782c-0.587-0.339-0.895-0.7-0.903-1.087c-0.021-0.387,0.25-0.745,0.802-1.065
									c0.559-0.324,1.175-0.483,1.843-0.472c0.669,0.003,1.293,0.181,1.881,0.52c0.191,0.111,0.364,0.232,0.498,0.361
									c0.141,0.133,0.25,0.27,0.327,0.417l-0.723,0.42c-0.059-0.166-0.136-0.306-0.244-0.435
									c-0.116-0.125-0.263-0.239-0.441-0.343c-0.319-0.184-0.676-0.273-1.064-0.262c-0.395,0.015-0.77,0.122-1.137,0.335
									c-0.355,0.207-0.545,0.428-0.562,0.652c-0.025,0.229,0.13,0.435,0.449,0.62c0.179,0.103,0.376,0.188,0.593,0.254
									c0.223,0.063,0.465,0.107,0.751,0.141l-0.723,0.42c-0.255-0.044-0.491-0.106-0.721-0.188
									C289.502,98.993,289.292,98.893,289.101,98.782 M298.29,101.016l0.768-0.446c0.268,0.081,0.528,0.166,0.759,0.262
									c0.235,0.092,0.446,0.199,0.638,0.31c0.422,0.243,0.658,0.483,0.704,0.723c0.053,0.244-0.093,0.46-0.423,0.652
									c-0.19,0.111-0.419,0.185-0.68,0.225c-0.254,0.037-0.687,0.044-1.285,0.022l-1.4-0.052l1.545,0.892l-0.66,0.383
									l-2.554-1.475l0.66-0.383l2.406,0.089c0.223,0.003,0.407-0.007,0.56-0.03c0.153-0.029,0.28-0.074,0.382-0.133
									c0.164-0.096,0.246-0.203,0.233-0.328c-0.014-0.118-0.109-0.232-0.295-0.339c-0.141-0.081-0.319-0.155-0.549-0.214
									C298.87,101.108,298.602,101.057,298.29,101.016 M301.749,102.823l0.66-0.383c0.229,0.074,0.446,0.155,0.644,0.247
									c0.198,0.084,0.383,0.177,0.556,0.276c0.453,0.262,0.729,0.501,0.799,0.719c0.085,0.217-0.029,0.417-0.327,0.59
									c-0.203,0.118-0.432,0.185-0.667,0.195c-0.241,0.015-0.49-0.026-0.752-0.118c0.173,0.173,0.244,0.339,0.226,0.498
									c-0.03,0.158-0.157,0.306-0.392,0.442c-0.35,0.203-0.743,0.276-1.195,0.229c-0.445-0.052-0.924-0.225-1.435-0.52
									c-0.179-0.103-0.352-0.217-0.498-0.339c-0.16-0.122-0.295-0.251-0.41-0.383l0.698-0.406c0.077,0.147,0.18,0.28,0.313,0.402
									c0.122,0.122,0.269,0.229,0.429,0.321c0.242,0.14,0.46,0.221,0.669,0.247c0.211,0.026,0.401-0.003,0.554-0.092
									c0.158-0.092,0.209-0.203,0.163-0.325c-0.051-0.125-0.198-0.261-0.454-0.409l-0.364-0.21l0.578-0.335l0.383,0.221
									c0.224,0.129,0.434,0.207,0.612,0.229c0.185,0.026,0.35-0.003,0.496-0.088c0.133-0.077,0.177-0.169,0.145-0.276
									c-0.032-0.107-0.153-0.214-0.352-0.328c-0.146-0.085-0.307-0.162-0.485-0.229C302.15,102.93,301.96,102.871,301.749,102.823
									 M335.316,114.752l-49.871-28.795l-14.075,8.181l49.87,28.794L335.316,114.752"/>
								<path fill="#CFD0D2" d="M261.468,86.112l2.893-1.681l2.911-1.692l1.475,0.852l-1.446,0.84l1.456,0.84l-1.446,0.841
									l1.455,0.84l-1.446,0.84l1.456,0.841l-1.465,0.852L261.468,86.112 M284.245,85.264l-12.405-7.163l-14.076,8.18l12.405,7.163
									L284.245,85.264"/>
								<path id="C1.14" fill="#BDD4E4" d="M255.151,162.649l-1.469-0.848l0.479,1.422L255.151,162.649 M242.671,169.377
									c0.358,0.207,0.734,0.321,1.129,0.335c0.388,0.011,0.744-0.078,1.067-0.266c0.178-0.103,0.323-0.217,0.438-0.343
									c0.101-0.125,0.183-0.269,0.239-0.435l0.728,0.42c-0.082,0.151-0.189,0.288-0.322,0.417s-0.304,0.251-0.5,0.365
									c-0.577,0.335-1.2,0.512-1.875,0.52c-0.662,0.007-1.28-0.151-1.835-0.472c-0.562-0.325-0.837-0.682-0.827-1.065
									c0.011-0.391,0.314-0.752,0.892-1.087c0.197-0.114,0.406-0.214,0.628-0.292c0.222-0.077,0.458-0.14,0.718-0.188l0.728,0.42
									c-0.286,0.033-0.534,0.081-0.75,0.14c-0.216,0.066-0.413,0.151-0.59,0.254c-0.324,0.188-0.476,0.395-0.455,0.619
									C242.109,168.949,242.308,169.167,242.671,169.377 M243.815,166.863l0.646-0.568l0.856-0.498l2.886,1.666l0.799-0.464
									l0.625,0.361l-2.442,1.419l-0.626-0.361l0.793-0.461l-2.272-1.312l-0.646,0.575L243.815,166.863 M249.395,166.446
									l0.844-0.49l0.906,0.523l-0.844,0.49L249.395,166.446 M248.687,164.031l0.646-0.567l0.856-0.498l2.886,1.666l0.793-0.46
									l0.626,0.361l-2.442,1.419l-0.626-0.361l0.799-0.464l-2.272-1.312l-0.646,0.575L248.687,164.031 M253.482,163.479
									l-0.699-2.02l1.002-0.583l2.215,1.279l0.501-0.291l0.658,0.38l-0.501,0.291l0.638,0.369l-0.85,0.494l-0.638-0.368
									l-1.548,0.899L253.482,163.479 M285.306,168.735l-41.289-23.84l-30.625,17.798l41.289,23.84L285.306,168.735"/>
								<polyline fill="#CFD0D2" points="192.044,171.187 189.298,169.602 179.67,164.043 179.711,171.187 192.044,171.187
									"/>
								<path id="C1.20" fill="#BDD4E4" d="M153.268,112.112c-0.44-0.254-0.792-0.413-1.053-0.468c-0.261-0.055-0.49-0.026-0.681,0.085
									c-0.197,0.114-0.247,0.247-0.151,0.398c0.097,0.151,0.372,0.354,0.812,0.608c0.44,0.254,0.792,0.413,1.059,0.472
									c0.268,0.059,0.497,0.029,0.693-0.085c0.19-0.111,0.24-0.243,0.138-0.398C153.983,112.57,153.708,112.367,153.268,112.112
									 M140.81,119.36c0.364,0.21,0.733,0.321,1.128,0.335c0.388,0.011,0.75-0.074,1.074-0.262
									c0.178-0.104,0.317-0.221,0.431-0.347c0.107-0.122,0.184-0.269,0.239-0.435l0.728,0.42
									c-0.076,0.147-0.189,0.288-0.322,0.417c-0.133,0.129-0.304,0.25-0.501,0.365c-0.577,0.335-1.2,0.512-1.875,0.52
									c-0.662,0.007-1.273-0.147-1.835-0.472c-0.562-0.325-0.837-0.682-0.827-1.065c0.017-0.387,0.313-0.752,0.891-1.087
									c0.197-0.114,0.413-0.21,0.629-0.292c0.222-0.077,0.463-0.144,0.718-0.188l0.728,0.42c-0.286,0.033-0.534,0.081-0.75,0.14
									c-0.216,0.066-0.413,0.151-0.59,0.254c-0.324,0.188-0.476,0.395-0.449,0.623C140.248,118.932,140.446,119.15,140.81,119.36
									 M141.96,116.849l0.64-0.571l0.863-0.501l2.892,1.669l0.793-0.46l0.626,0.361l-2.442,1.419l-0.626-0.361l0.793-0.461
									l-2.272-1.312l-0.652,0.571L141.96,116.849 M147.533,116.429l0.843-0.49l0.913,0.527l-0.843,0.49L147.533,116.429
									 M150.345,115.076l1.541-0.896l0.671,0.387l-2.544,1.479l-0.671-0.387l0.146-1.394c0.012-0.125-0.001-0.236-0.053-0.324
									c-0.039-0.088-0.115-0.162-0.224-0.225c-0.166-0.096-0.351-0.144-0.561-0.133c-0.21,0.003-0.407,0.059-0.591,0.166
									c-0.14,0.081-0.26,0.188-0.374,0.321c-0.101,0.133-0.189,0.288-0.264,0.465l-0.773-0.446c0.14-0.155,0.285-0.299,0.45-0.438
									c0.165-0.133,0.342-0.258,0.532-0.369c0.413-0.239,0.838-0.376,1.251-0.402c0.42-0.029,0.79,0.052,1.122,0.244
									c0.191,0.11,0.319,0.243,0.39,0.395c0.064,0.155,0.079,0.398,0.042,0.745L150.345,115.076 M151.302,113.263
									c-0.587-0.339-0.908-0.671-0.979-0.999c-0.065-0.325,0.13-0.623,0.593-0.893c0.457-0.265,0.971-0.379,1.532-0.343
									c0.573,0.037,1.14,0.225,1.728,0.564c0.581,0.335,0.914,0.667,0.973,0.995c0.072,0.328-0.13,0.623-0.587,0.889
									c-0.463,0.269-0.971,0.387-1.538,0.346C152.463,113.786,151.883,113.598,151.302,113.263 M182.622,109.447l-25.5-14.724
									l-47.028,27.331l25.5,14.723L182.622,109.447"/>
								<path id="C1.13" fill="#BDD4E4" d="M286.285,194.559c0.364,0.21,0.733,0.32,1.128,0.335c0.388,0.011,0.75-0.074,1.074-0.262
									c0.178-0.103,0.317-0.221,0.431-0.346c0.107-0.122,0.189-0.266,0.245-0.432l0.728,0.42
									c-0.088,0.147-0.196,0.284-0.329,0.413c-0.133,0.129-0.297,0.255-0.494,0.369c-0.577,0.335-1.206,0.508-1.875,0.52
									c-0.668,0.004-1.28-0.151-1.841-0.476c-0.562-0.324-0.838-0.682-0.828-1.065c0.017-0.387,0.314-0.752,0.891-1.087
									c0.197-0.114,0.413-0.21,0.629-0.292c0.222-0.077,0.464-0.136,0.718-0.188l0.728,0.42c-0.286,0.033-0.534,0.081-0.744,0.144
									c-0.223,0.062-0.419,0.147-0.597,0.25c-0.324,0.188-0.476,0.395-0.448,0.623
									C285.722,194.131,285.921,194.349,286.285,194.559 M287.435,192.048l0.639-0.571l0.857-0.498l2.892,1.67l0.799-0.464
									l0.625,0.361l-2.442,1.419l-0.625-0.361l0.792-0.461l-2.273-1.312l-0.652,0.572L287.435,192.048 M293.007,191.628
									l0.844-0.49l0.913,0.527l-0.844,0.49L293.007,191.628 M292.307,189.217l0.64-0.572l0.856-0.498l2.893,1.67l0.792-0.461
									l0.626,0.361l-2.442,1.419l-0.625-0.361l0.799-0.464L293.572,189l-0.652,0.571L292.307,189.217 M298.64,187.215
									c0.292-0.103,0.579-0.144,0.852-0.125c0.28,0.015,0.529,0.092,0.759,0.225c0.351,0.203,0.485,0.435,0.404,0.689
									c-0.087,0.258-0.378,0.538-0.886,0.833c-0.184,0.107-0.381,0.199-0.591,0.292c-0.209,0.084-0.431,0.162-0.667,0.232
									l-0.696-0.402c0.254-0.052,0.483-0.11,0.692-0.181c0.216-0.074,0.394-0.155,0.559-0.25c0.235-0.137,0.374-0.269,0.418-0.391
									c0.044-0.121-0.008-0.225-0.167-0.317c-0.159-0.092-0.345-0.125-0.561-0.096c-0.21,0.026-0.438,0.114-0.699,0.265
									l-0.355,0.207l-0.587-0.339l0.374-0.217c0.229-0.133,0.368-0.251,0.405-0.354c0.038-0.111-0.021-0.203-0.161-0.284
									c-0.141-0.082-0.293-0.111-0.478-0.092c-0.178,0.022-0.368,0.088-0.565,0.203c-0.146,0.085-0.273,0.181-0.387,0.284
									c-0.121,0.107-0.215,0.221-0.297,0.343l-0.664-0.383c0.126-0.133,0.266-0.258,0.412-0.372
									c0.152-0.118,0.311-0.225,0.476-0.321c0.457-0.266,0.87-0.417,1.245-0.465c0.381-0.044,0.712,0.022,1.013,0.196
									c0.211,0.121,0.326,0.247,0.352,0.387C298.861,186.917,298.798,187.064,298.64,187.215 M327.731,193.231l-40.683-23.489
									l-30.625,17.798l40.683,23.489L327.731,193.231"/>
								<path id="C1.11" fill="#BDD4E4" d="M340.312,225.753c0.357,0.207,0.732,0.321,1.128,0.335c0.388,0.012,0.744-0.077,1.067-0.265
									c0.178-0.104,0.323-0.218,0.438-0.343c0.101-0.126,0.184-0.27,0.239-0.435l0.728,0.42c-0.082,0.15-0.189,0.287-0.322,0.416
									s-0.304,0.251-0.501,0.365c-0.577,0.335-1.206,0.509-1.874,0.52c-0.662,0.008-1.28-0.151-1.835-0.472
									c-0.562-0.324-0.838-0.682-0.828-1.065c0.012-0.391,0.315-0.752,0.893-1.087c0.196-0.114,0.405-0.215,0.628-0.292
									c0.222-0.077,0.458-0.14,0.718-0.188l0.728,0.42c-0.286,0.033-0.533,0.081-0.749,0.141c-0.217,0.066-0.413,0.15-0.591,0.254
									c-0.323,0.188-0.476,0.395-0.455,0.619C339.749,225.326,339.947,225.543,340.312,225.753 M341.455,223.239l0.646-0.568
									l0.856-0.497l2.886,1.666l0.799-0.465l0.626,0.361l-2.442,1.42l-0.625-0.361l0.793-0.461l-2.273-1.312l-0.646,0.575
									L341.455,223.239 M347.034,222.822l0.844-0.49l0.906,0.523l-0.843,0.49L347.034,222.822 M346.327,220.408l0.646-0.568
									l0.856-0.497l2.886,1.666l0.793-0.461l0.626,0.361l-2.442,1.419l-0.625-0.361l0.799-0.464l-2.273-1.312l-0.646,0.575
									L346.327,220.408 M349.518,218.554l0.646-0.567l0.856-0.498l2.887,1.666l0.793-0.461l0.625,0.361l-2.442,1.42l-0.625-0.361
									l0.799-0.465l-2.272-1.312l-0.646,0.575L349.518,218.554 M382.69,224.965l-40.083-23.144l-30.625,17.798l40.083,23.144
									L382.69,224.965"/>
								<path id="C1.07" fill="#BDD4E4" d="M395.939,267.97c-0.197-0.114-0.427-0.144-0.688-0.089c-0.262,0.056-0.61,0.214-1.041,0.465
									c-0.444,0.258-0.717,0.461-0.818,0.615c-0.094,0.151-0.042,0.284,0.155,0.398c0.192,0.11,0.421,0.141,0.682,0.085
									c0.267-0.06,0.616-0.218,1.06-0.476c0.432-0.251,0.704-0.453,0.799-0.604C396.184,268.213,396.131,268.08,395.939,267.97
									 M390.123,268.014l0.9-0.523l0.85,0.49l-0.9,0.523L390.123,268.014 M389.671,264.615l0.615-0.357l0.982,0.376l0.862,0.497
									l-2.867,1.667l0.805,0.464l-0.622,0.361l-2.458-1.419l0.622-0.361l0.798,0.461l2.258-1.312L389.671,264.615
									 M397.684,269.102l0.659-0.384l2.649,1.53l-0.507,0.295l-4.348,0.943l-0.888-0.513l4.131-0.892L397.684,269.102
									 M385.099,265.193c-0.58-0.335-0.882-0.7-0.903-1.087c-0.015-0.384,0.257-0.741,0.809-1.062
									c0.559-0.324,1.175-0.483,1.836-0.476c0.676,0.007,1.301,0.185,1.881,0.52c0.198,0.114,0.37,0.235,0.505,0.365
									c0.135,0.129,0.243,0.265,0.327,0.416l-0.724,0.421c-0.059-0.166-0.142-0.31-0.244-0.436
									c-0.115-0.125-0.262-0.239-0.44-0.343c-0.326-0.188-0.684-0.276-1.071-0.266c-0.394,0.016-0.763,0.126-1.13,0.34
									c-0.355,0.206-0.552,0.424-0.569,0.648c-0.024,0.229,0.129,0.436,0.455,0.623c0.179,0.104,0.376,0.188,0.593,0.254
									c0.217,0.06,0.465,0.107,0.752,0.141l-0.723,0.42c-0.262-0.048-0.497-0.11-0.721-0.188
									C385.507,265.407,385.297,265.309,385.099,265.193 M392.933,269.717c-0.466-0.269-0.664-0.567-0.603-0.892
									c0.061-0.332,0.384-0.66,0.961-0.996c0.584-0.339,1.148-0.526,1.722-0.563c0.566-0.04,1.076,0.077,1.542,0.347
									c0.46,0.266,0.665,0.561,0.597,0.888c-0.067,0.329-0.384,0.66-0.968,1c-0.577,0.335-1.149,0.52-1.716,0.56
									C393.908,270.097,393.393,269.982,392.933,269.717 M417.422,273.171l-27.467-15.858l-13.917,8.088l27.467,15.858
									L417.422,273.171"/>
								<path id="C1.08" fill="#BDD4E4" d="M427.214,287.622c-0.173-0.1-0.345-0.147-0.529-0.144c-0.185-0.004-0.362,0.048-0.533,0.147
									c-0.172,0.1-0.26,0.202-0.253,0.31c-0.006,0.106,0.077,0.206,0.25,0.306c0.166,0.096,0.338,0.144,0.522,0.14
									c0.178,0,0.356-0.051,0.527-0.15c0.172-0.1,0.26-0.203,0.259-0.307C427.463,287.817,427.38,287.718,427.214,287.622
									 M425.379,284.968c-0.197-0.114-0.427-0.144-0.688-0.089c-0.262,0.056-0.61,0.214-1.048,0.469
									c-0.438,0.254-0.71,0.457-0.812,0.611c-0.094,0.151-0.049,0.288,0.148,0.402c0.192,0.11,0.428,0.137,0.688,0.081
									c0.267-0.06,0.616-0.218,1.054-0.472s0.71-0.457,0.805-0.608S425.57,285.078,425.379,284.968 M428.641,286.793
									c-0.146-0.085-0.293-0.126-0.445-0.126c-0.159-0.004-0.299,0.033-0.438,0.114s-0.209,0.166-0.202,0.258
									c0.006,0.085,0.077,0.17,0.224,0.255c0.141,0.081,0.287,0.121,0.434,0.125c0.153,0,0.299-0.04,0.438-0.121
									s0.209-0.166,0.202-0.251C428.852,286.958,428.781,286.874,428.641,286.793 M419.557,285.016l0.906-0.527l0.85,0.49
									l-0.907,0.527L419.557,285.016 M419.117,281.617l0.615-0.358l0.982,0.377l0.861,0.497l-2.867,1.666l0.799,0.461
									l-0.629,0.365l-2.457-1.419l0.628-0.365l0.798,0.461l2.258-1.312L419.117,281.617 M414.545,282.195
									c-0.587-0.339-0.895-0.7-0.904-1.088c-0.021-0.387,0.245-0.74,0.803-1.064c0.559-0.324,1.175-0.483,1.843-0.473
									c0.662,0.008,1.294,0.182,1.881,0.521c0.191,0.11,0.364,0.232,0.498,0.361c0.135,0.129,0.25,0.269,0.327,0.416l-0.724,0.42
									c-0.059-0.165-0.142-0.309-0.244-0.435c-0.115-0.125-0.262-0.239-0.44-0.343c-0.326-0.188-0.677-0.272-1.077-0.262
									c-0.389,0.012-0.763,0.126-1.125,0.336c-0.361,0.21-0.551,0.424-0.575,0.652c-0.012,0.229,0.136,0.432,0.462,0.619
									c0.179,0.104,0.376,0.188,0.593,0.254c0.211,0.063,0.465,0.107,0.752,0.141l-0.723,0.42
									c-0.255-0.044-0.497-0.11-0.721-0.188C414.947,282.406,414.736,282.307,414.545,282.195 M422.372,286.715
									c-0.466-0.269-0.672-0.563-0.604-0.892c0.062-0.332,0.385-0.66,0.962-0.996c0.584-0.339,1.148-0.526,1.722-0.563
									c0.56-0.037,1.076,0.077,1.542,0.347c0.46,0.265,0.659,0.563,0.597,0.888c-0.062,0.332-0.385,0.66-0.968,1
									c-0.577,0.335-1.143,0.523-1.716,0.56C423.342,287.099,422.832,286.98,422.372,286.715 M425.584,288.569
									c-0.46-0.266-0.716-0.516-0.769-0.752c-0.064-0.236,0.087-0.457,0.429-0.656c0.229-0.133,0.471-0.206,0.744-0.218
									c0.273-0.018,0.555,0.026,0.86,0.122c-0.148-0.159-0.219-0.31-0.188-0.446c0.019-0.144,0.133-0.269,0.33-0.383
									c0.298-0.174,0.628-0.24,1.01-0.203c0.376,0.041,0.778,0.185,1.206,0.431c0.427,0.247,0.67,0.476,0.742,0.693
									c0.07,0.218-0.049,0.413-0.348,0.586c-0.196,0.114-0.419,0.178-0.661,0.192c-0.241,0.015-0.496-0.022-0.776-0.111
									c0.173,0.181,0.25,0.343,0.219,0.502c-0.023,0.155-0.144,0.299-0.372,0.432c-0.343,0.199-0.73,0.283-1.132,0.25
									C426.471,288.979,426.037,288.831,425.584,288.569 M440.534,286.516l-21.555-12.444l-22.728,13.208l21.555,12.445
									L440.534,286.516"/>
								<path id="C1.06" fill="#BDD4E4" d="M399.78,303.639c-0.159-0.092-0.325-0.128-0.517-0.113c-0.178,0.014-0.368,0.08-0.571,0.198
									s-0.317,0.229-0.349,0.336c-0.019,0.107,0.047,0.203,0.206,0.295s0.331,0.133,0.509,0.118
									c0.191-0.016,0.382-0.082,0.585-0.199c0.203-0.118,0.317-0.229,0.335-0.336C400.011,303.831,399.94,303.731,399.78,303.639
									 M397.716,301.044c-0.197-0.114-0.427-0.144-0.688-0.089c-0.261,0.056-0.604,0.211-1.041,0.465
									c-0.444,0.259-0.717,0.461-0.817,0.615c-0.095,0.152-0.043,0.285,0.154,0.398c0.192,0.111,0.422,0.141,0.682,0.085
									c0.268-0.059,0.616-0.217,1.061-0.475c0.438-0.255,0.704-0.454,0.798-0.605C397.96,301.287,397.908,301.154,397.716,301.044
									 M391.9,301.088l0.9-0.523l0.85,0.49l-0.901,0.524L391.9,301.088 M391.454,297.693l0.615-0.357l0.982,0.376l0.862,0.497
									l-2.867,1.666l0.798,0.461l-0.622,0.361l-2.457-1.419l0.621-0.361l0.798,0.461l2.259-1.312L391.454,297.693
									 M386.883,298.271c-0.588-0.339-0.89-0.703-0.904-1.087c-0.021-0.387,0.25-0.745,0.809-1.069s1.168-0.479,1.843-0.472
									c0.662,0.008,1.287,0.185,1.874,0.523c0.191,0.11,0.364,0.232,0.499,0.361c0.134,0.129,0.249,0.27,0.326,0.416l-0.717,0.417
									c-0.059-0.166-0.142-0.31-0.251-0.432c-0.114-0.125-0.255-0.243-0.434-0.346c-0.326-0.188-0.684-0.27-1.078-0.262
									c-0.394,0.015-0.762,0.125-1.124,0.335c-0.361,0.21-0.558,0.428-0.575,0.652c-0.019,0.232,0.13,0.436,0.455,0.623
									c0.179,0.104,0.377,0.188,0.6,0.251c0.211,0.062,0.459,0.11,0.745,0.144l-0.724,0.42c-0.254-0.044-0.496-0.11-0.719-0.188
									C387.284,298.482,387.074,298.383,386.883,298.271 M394.71,302.791c-0.466-0.269-0.666-0.567-0.604-0.892
									c0.062-0.332,0.385-0.66,0.969-0.999c0.577-0.336,1.148-0.527,1.715-0.561c0.566-0.041,1.077,0.078,1.542,0.347
									c0.46,0.266,0.666,0.561,0.597,0.888c-0.055,0.329-0.384,0.66-0.961,0.996c-0.584,0.339-1.149,0.527-1.723,0.564
									C395.686,303.171,395.17,303.057,394.71,302.791 M397.979,304.679c-0.46-0.266-0.658-0.557-0.604-0.885
									c0.056-0.321,0.365-0.642,0.931-0.97c0.576-0.335,1.181-0.516,1.798-0.541c0.623-0.022,1.19,0.114,1.701,0.408
									c0.166,0.096,0.307,0.192,0.435,0.295c0.128,0.104,0.236,0.211,0.339,0.328l-0.646,0.376
									c-0.084-0.129-0.174-0.239-0.264-0.335c-0.103-0.096-0.211-0.181-0.338-0.254c-0.268-0.155-0.555-0.232-0.854-0.236
									c-0.3,0.004-0.611,0.081-0.929,0.236c0.18,0.015,0.352,0.048,0.511,0.096s0.306,0.11,0.452,0.195
									c0.357,0.206,0.551,0.435,0.559,0.682c0.014,0.25-0.15,0.472-0.493,0.671c-0.374,0.218-0.793,0.321-1.271,0.31
									C398.833,305.04,398.394,304.918,397.979,304.679 M416.239,300.635l-21.555-12.445l-20.982,12.195l21.554,12.444
									L416.239,300.635"/>
								<path id="C1.03" fill="#BDD4E4" d="M374.988,314.252c-0.197-0.113-0.427-0.144-0.688-0.088c-0.261,0.055-0.61,0.214-1.048,0.469
									c-0.438,0.254-0.71,0.456-0.811,0.611c-0.095,0.151-0.05,0.288,0.147,0.401c0.192,0.111,0.429,0.137,0.688,0.081
									c0.268-0.059,0.616-0.217,1.054-0.471c0.438-0.255,0.711-0.458,0.805-0.609C375.232,314.496,375.18,314.363,374.988,314.252
									 M369.166,314.301l0.907-0.527l0.85,0.49l-0.907,0.527L369.166,314.301 M368.727,310.901l0.615-0.357l0.982,0.376
									l0.862,0.498l-2.874,1.67l0.798,0.461l-0.621,0.36l-2.458-1.419l0.621-0.361l0.799,0.461l2.264-1.316L368.727,310.901
									 M364.155,311.48c-0.588-0.34-0.896-0.7-0.905-1.088c-0.021-0.387,0.245-0.74,0.803-1.065
									c0.559-0.324,1.175-0.482,1.843-0.472c0.669,0.004,1.294,0.181,1.881,0.52c0.191,0.111,0.364,0.232,0.499,0.361
									c0.134,0.13,0.249,0.27,0.326,0.417l-0.724,0.42c-0.059-0.166-0.142-0.31-0.244-0.435c-0.114-0.126-0.262-0.24-0.44-0.343
									c-0.325-0.188-0.677-0.273-1.077-0.262c-0.388,0.011-0.763,0.125-1.124,0.335s-0.552,0.425-0.576,0.652
									c-0.012,0.229,0.137,0.432,0.462,0.619c0.179,0.104,0.377,0.188,0.593,0.255c0.211,0.062,0.465,0.106,0.752,0.14
									l-0.724,0.421c-0.254-0.044-0.496-0.11-0.719-0.188C364.557,311.69,364.346,311.591,364.155,311.48 M371.981,316
									c-0.465-0.27-0.671-0.564-0.603-0.893c0.061-0.331,0.384-0.659,0.961-0.995c0.584-0.339,1.149-0.527,1.722-0.563
									c0.56-0.037,1.076,0.077,1.542,0.346c0.46,0.266,0.658,0.564,0.597,0.889c-0.062,0.332-0.384,0.66-0.968,0.999
									c-0.577,0.336-1.143,0.523-1.715,0.561C372.951,316.383,372.441,316.266,371.981,316 M376.803,315.521l0.653-0.38
									c0.229,0.074,0.446,0.155,0.645,0.239c0.203,0.089,0.39,0.182,0.556,0.277c0.459,0.265,0.728,0.509,0.805,0.723
									c0.078,0.221-0.035,0.412-0.334,0.586c-0.202,0.118-0.425,0.188-0.66,0.199c-0.241,0.015-0.49-0.026-0.758-0.114
									c0.179,0.169,0.25,0.335,0.219,0.493c-0.018,0.159-0.157,0.307-0.385,0.439c-0.35,0.202-0.744,0.276-1.189,0.231
									c-0.445-0.052-0.924-0.225-1.435-0.52c-0.186-0.107-0.352-0.218-0.505-0.335c-0.153-0.126-0.288-0.255-0.41-0.391
									l0.698-0.406c0.084,0.151,0.187,0.284,0.308,0.406c0.135,0.121,0.269,0.229,0.435,0.324
									c0.236,0.137,0.466,0.217,0.676,0.243c0.211,0.026,0.396-0.008,0.548-0.096c0.158-0.092,0.215-0.199,0.169-0.321
									c-0.051-0.125-0.205-0.258-0.46-0.405l-0.363-0.21l0.583-0.339l0.383,0.221c0.224,0.129,0.428,0.211,0.613,0.229
									c0.184,0.025,0.343-0.008,0.488-0.092c0.134-0.077,0.184-0.166,0.151-0.272c-0.038-0.104-0.153-0.214-0.352-0.329
									c-0.147-0.084-0.307-0.162-0.492-0.225C377.204,315.628,377.007,315.572,376.803,315.521 M393.777,313.688l-21.554-12.445
									l-20.983,12.194l21.555,12.445L393.777,313.688"/>
								<path id="C1.02" fill="#BDD4E4" d="M341.687,333.605c-0.197-0.113-0.427-0.144-0.688-0.088c-0.261,0.055-0.61,0.214-1.048,0.469
									c-0.438,0.254-0.71,0.456-0.811,0.611c-0.095,0.151-0.05,0.288,0.147,0.402c0.192,0.11,0.429,0.136,0.688,0.08
									c0.268-0.059,0.616-0.217,1.054-0.471c0.438-0.255,0.71-0.458,0.805-0.609C341.931,333.85,341.879,333.717,341.687,333.605
									 M335.864,333.654l0.907-0.527l0.85,0.49l-0.907,0.527L335.864,333.654 M335.425,330.255l0.615-0.357l0.982,0.376
									l0.862,0.498l-2.874,1.67l0.798,0.461l-0.621,0.36l-2.458-1.419l0.621-0.361l0.799,0.461l2.264-1.315L335.425,330.255
									 M330.854,330.834c-0.588-0.339-0.896-0.7-0.905-1.088c-0.021-0.387,0.245-0.74,0.803-1.065
									c0.559-0.324,1.175-0.482,1.843-0.472c0.668,0.004,1.294,0.181,1.881,0.521c0.191,0.11,0.364,0.232,0.499,0.36
									c0.134,0.13,0.249,0.27,0.326,0.417l-0.724,0.42c-0.059-0.166-0.142-0.31-0.244-0.435c-0.114-0.125-0.262-0.24-0.44-0.343
									c-0.325-0.188-0.677-0.273-1.077-0.262c-0.388,0.011-0.763,0.125-1.124,0.335c-0.361,0.211-0.552,0.425-0.576,0.652
									c-0.012,0.229,0.137,0.432,0.462,0.62c0.179,0.103,0.377,0.188,0.593,0.254c0.211,0.062,0.465,0.106,0.752,0.14
									l-0.724,0.421c-0.254-0.044-0.496-0.11-0.719-0.188C331.255,331.044,331.044,330.944,330.854,330.834 M338.68,335.354
									c-0.465-0.27-0.671-0.564-0.603-0.893c0.061-0.331,0.384-0.659,0.961-0.995c0.584-0.339,1.149-0.527,1.722-0.563
									c0.56-0.037,1.076,0.077,1.542,0.346c0.46,0.266,0.658,0.564,0.597,0.889c-0.062,0.332-0.384,0.66-0.968,0.999
									c-0.577,0.336-1.143,0.523-1.715,0.561C339.649,335.736,339.14,335.619,338.68,335.354 M343.253,334.922l0.768-0.446
									c0.268,0.081,0.523,0.17,0.759,0.263c0.23,0.096,0.446,0.198,0.639,0.31c0.421,0.243,0.658,0.482,0.704,0.722
									c0.052,0.244-0.093,0.461-0.423,0.653c-0.19,0.11-0.419,0.184-0.68,0.225c-0.268,0.037-0.688,0.044-1.285,0.022
									l-1.407-0.056l1.552,0.896l-0.666,0.387l-2.554-1.476l0.665-0.387l2.407,0.089c0.216,0.007,0.4-0.004,0.553-0.033
									c0.152-0.022,0.28-0.066,0.388-0.129c0.165-0.096,0.247-0.203,0.228-0.325c-0.007-0.121-0.103-0.235-0.289-0.343
									c-0.14-0.08-0.325-0.15-0.554-0.217C343.827,335.018,343.56,334.967,343.253,334.922 M371.229,326.794l-21.555-12.445
									l-39.404,22.899l21.555,12.445L371.229,326.794"/>
								<path id="C1.01" fill="#BDD4E4" d="M312.247,316.607c-0.197-0.113-0.427-0.144-0.688-0.088c-0.261,0.055-0.61,0.214-1.048,0.469
									c-0.438,0.254-0.71,0.456-0.811,0.611c-0.095,0.151-0.05,0.288,0.148,0.402c0.191,0.11,0.428,0.136,0.688,0.08
									c0.268-0.059,0.615-0.217,1.054-0.472c0.438-0.254,0.71-0.457,0.805-0.608C312.491,316.852,312.439,316.719,312.247,316.607
									 M306.425,316.656l0.907-0.527l0.85,0.49l-0.907,0.527L306.425,316.656 M305.979,313.254l0.616-0.358l0.982,0.376
									l0.861,0.498l-2.873,1.67l0.804,0.465l-0.621,0.361l-2.458-1.42l0.621-0.361l0.799,0.461l2.264-1.315L305.979,313.254
									 M314.094,317.939l0.615-0.357l0.982,0.375l0.861,0.498l-2.873,1.67l0.798,0.461l-0.621,0.36l-2.458-1.419l0.621-0.361
									l0.805,0.465l2.265-1.316L314.094,317.939 M301.407,313.832c-0.581-0.335-0.889-0.696-0.904-1.087
									c-0.015-0.384,0.251-0.737,0.809-1.062c0.559-0.325,1.175-0.483,1.837-0.477c0.674,0.008,1.3,0.185,1.88,0.521
									c0.198,0.114,0.37,0.235,0.506,0.364c0.134,0.13,0.242,0.266,0.326,0.417l-0.724,0.42c-0.059-0.166-0.142-0.31-0.244-0.435
									c-0.114-0.125-0.262-0.24-0.44-0.343c-0.325-0.188-0.683-0.276-1.077-0.262c-0.388,0.011-0.763,0.126-1.124,0.335
									c-0.361,0.211-0.552,0.425-0.576,0.653c-0.018,0.225,0.137,0.431,0.462,0.619c0.179,0.103,0.377,0.188,0.593,0.254
									c0.211,0.062,0.465,0.106,0.752,0.14l-0.724,0.421c-0.261-0.048-0.496-0.11-0.719-0.188
									C301.814,314.046,301.604,313.946,301.407,313.832 M309.24,318.355c-0.465-0.27-0.671-0.564-0.603-0.893
									c0.061-0.331,0.384-0.659,0.961-0.995c0.584-0.339,1.149-0.527,1.722-0.563c0.561-0.037,1.076,0.077,1.542,0.346
									c0.46,0.266,0.658,0.564,0.597,0.889c-0.067,0.328-0.384,0.66-0.968,0.999c-0.577,0.336-1.149,0.521-1.715,0.561
									C310.21,318.738,309.701,318.621,309.24,318.355 M340.428,317.917l-27.466-15.859l-31.716,18.433l27.466,15.858
									L340.428,317.917"/>
								<path id="C1.05" fill="#CFD0D2" d="M371.98,281.894c-0.197-0.114-0.427-0.144-0.693-0.085c-0.261,0.055-0.604,0.21-1.041,0.465
									c-0.444,0.258-0.717,0.46-0.811,0.611c-0.102,0.155-0.05,0.288,0.147,0.402c0.192,0.11,0.421,0.14,0.688,0.08
									c0.261-0.055,0.609-0.213,1.053-0.472c0.438-0.254,0.705-0.453,0.799-0.604C372.225,282.137,372.173,282.004,371.98,281.894
									 M366.158,281.941l0.907-0.527l0.85,0.49l-0.907,0.527L366.158,281.941 M365.713,278.539l0.609-0.354l0.988,0.372
									l0.862,0.498l-2.874,1.67l0.805,0.465l-0.622,0.361l-2.458-1.42l0.622-0.361l0.798,0.461l2.259-1.312L365.713,278.539
									 M372.61,283.896l1.966-1.144l2.254,1.302l-0.666,0.387l-1.532-0.885l-0.539,0.313c0.089,0.029,0.172,0.062,0.255,0.096
									s0.153,0.074,0.229,0.118c0.429,0.247,0.658,0.498,0.686,0.763c0.021,0.262-0.15,0.501-0.53,0.723
									c-0.381,0.221-0.807,0.313-1.278,0.292c-0.478-0.026-0.949-0.174-1.409-0.439c-0.197-0.114-0.376-0.239-0.536-0.376
									c-0.153-0.133-0.294-0.28-0.403-0.438l0.711-0.413c0.077,0.177,0.173,0.328,0.295,0.457
									c0.115,0.133,0.256,0.244,0.409,0.332c0.217,0.125,0.44,0.195,0.676,0.206c0.235,0.012,0.445-0.036,0.63-0.144
									c0.184-0.106,0.266-0.229,0.238-0.361c-0.02-0.136-0.141-0.266-0.357-0.391c-0.135-0.077-0.288-0.151-0.473-0.214
									C373.057,284.013,372.846,283.95,372.61,283.896 M361.134,279.121c-0.581-0.335-0.882-0.7-0.903-1.088
									c-0.008-0.387,0.257-0.74,0.815-1.064c0.558-0.325,1.175-0.483,1.836-0.476c0.669,0.011,1.3,0.184,1.881,0.52
									c0.198,0.114,0.363,0.239,0.499,0.368c0.141,0.126,0.242,0.266,0.332,0.413l-0.723,0.42
									c-0.059-0.165-0.142-0.31-0.251-0.431c-0.108-0.129-0.255-0.244-0.434-0.347c-0.326-0.188-0.684-0.276-1.078-0.262
									c-0.388,0.011-0.762,0.125-1.124,0.336c-0.361,0.21-0.558,0.427-0.575,0.652c-0.019,0.225,0.13,0.435,0.455,0.622
									c0.179,0.104,0.377,0.188,0.599,0.251c0.211,0.063,0.459,0.11,0.746,0.144l-0.724,0.421
									c-0.255-0.052-0.49-0.114-0.713-0.192C361.549,279.331,361.332,279.235,361.134,279.121 M368.968,283.645
									c-0.466-0.27-0.664-0.567-0.597-0.896c0.056-0.328,0.385-0.66,0.962-0.995s1.148-0.527,1.715-0.561
									c0.567-0.04,1.083,0.074,1.549,0.343c0.46,0.266,0.659,0.564,0.59,0.893c-0.062,0.324-0.384,0.66-0.962,0.995
									c-0.576,0.335-1.154,0.523-1.715,0.561C369.944,284.023,369.428,283.91,368.968,283.645 M385.797,283.059l-20.137-11.627
									l-13.91,8.084l20.137,11.627L385.797,283.059"/>
								<path fill="#CFD0D2" d="M323.422,297.376l2.893-1.681l2.912-1.692l1.475,0.852l-1.446,0.841l1.456,0.841l-1.446,0.84
									l1.456,0.841l-1.446,0.84l1.455,0.841l-1.465,0.852L323.422,297.376 M401.881,282.203l-27.467-15.858l-7.187,4.176
									l21.676,12.516l-32.3,18.771l-21.676-12.515l-20.203,11.741l27.467,15.858L401.881,282.203"/>
								<path id="C1.04" fill="#CFD0D2" d="M359.944,292.72l-2.461,0.277l0.996,0.574L359.944,292.72 M356.827,290.7
									c-0.197-0.114-0.427-0.144-0.688-0.089c-0.267,0.059-0.61,0.214-1.048,0.469c-0.438,0.254-0.716,0.46-0.811,0.611
									c-0.102,0.155-0.05,0.288,0.147,0.402c0.192,0.11,0.422,0.141,0.688,0.08c0.261-0.055,0.615-0.217,1.054-0.471
									c0.438-0.255,0.704-0.454,0.805-0.608C357.07,290.943,357.019,290.811,356.827,290.7 M351.005,290.748l0.907-0.527
									l0.85,0.49l-0.907,0.527L351.005,290.748 M350.559,287.346l0.609-0.354l0.989,0.373l0.861,0.497l-2.873,1.67l0.804,0.465
									l-0.621,0.361l-2.458-1.42l0.621-0.36l0.799,0.46l2.258-1.312L350.559,287.346 M356.274,293.049l0.768-0.446l3.491-0.402
									l1.009,0.583l-2.207,1.282l0.504,0.291l-0.646,0.376l-0.505-0.291l-0.641,0.372l-0.855-0.493l0.641-0.373L356.274,293.049
									 M345.979,287.928c-0.58-0.335-0.881-0.7-0.902-1.088c-0.009-0.387,0.257-0.74,0.814-1.064
									c0.559-0.324,1.175-0.483,1.837-0.476c0.668,0.011,1.3,0.185,1.88,0.52c0.198,0.114,0.364,0.239,0.506,0.365
									c0.134,0.129,0.236,0.269,0.326,0.416l-0.724,0.421c-0.059-0.166-0.142-0.31-0.25-0.432
									c-0.108-0.129-0.256-0.243-0.435-0.347c-0.325-0.188-0.683-0.276-1.077-0.262c-0.389,0.012-0.764,0.126-1.125,0.336
									s-0.551,0.424-0.575,0.652c-0.019,0.225,0.13,0.435,0.456,0.622c0.179,0.104,0.377,0.188,0.599,0.251
									c0.211,0.063,0.459,0.11,0.746,0.144l-0.724,0.421c-0.255-0.052-0.49-0.114-0.713-0.191
									C346.395,288.138,346.178,288.042,345.979,287.928 M353.813,292.451c-0.465-0.269-0.664-0.567-0.596-0.896
									c0.055-0.327,0.384-0.659,0.961-0.995c0.577-0.335,1.149-0.526,1.722-0.563c0.561-0.037,1.076,0.077,1.542,0.346
									c0.46,0.266,0.659,0.564,0.597,0.889c-0.067,0.328-0.391,0.664-0.968,0.999c-0.577,0.336-1.155,0.524-1.715,0.561
									C354.79,292.831,354.273,292.717,353.813,292.451 M370.295,292.068l-20.137-11.627l-13.918,8.088l20.137,11.627
									L370.295,292.068"/>
								<path id="C1.12" fill="#BDD4E4" d="M313.821,210.458c0.364,0.21,0.733,0.321,1.128,0.335c0.389,0.011,0.745-0.077,1.068-0.265
									c0.178-0.103,0.323-0.217,0.437-0.343c0.107-0.122,0.184-0.27,0.239-0.435l0.729,0.42c-0.082,0.151-0.189,0.287-0.322,0.417
									c-0.133,0.129-0.304,0.25-0.501,0.365c-0.577,0.336-1.2,0.512-1.868,0.523c-0.668,0.004-1.28-0.151-1.842-0.476
									s-0.838-0.682-0.827-1.065c0.018-0.387,0.314-0.751,0.892-1.087c0.197-0.114,0.406-0.214,0.629-0.292
									c0.222-0.078,0.457-0.141,0.717-0.188l0.729,0.42c-0.286,0.033-0.534,0.081-0.75,0.14c-0.216,0.067-0.412,0.151-0.59,0.254
									c-0.324,0.188-0.476,0.395-0.449,0.623C313.259,210.03,313.457,210.248,313.821,210.458 M314.973,207.948l0.639-0.571
									l0.856-0.498l2.893,1.67l0.799-0.464l0.626,0.361l-2.442,1.419l-0.625-0.361l0.793-0.46l-2.273-1.312l-0.652,0.571
									L314.973,207.948 M320.545,207.527l0.843-0.49l0.913,0.527l-0.844,0.49L320.545,207.527 M319.844,205.117l0.64-0.571
									l0.856-0.498l2.892,1.67l0.793-0.461l0.626,0.361l-2.442,1.419l-0.625-0.361l0.799-0.464l-2.273-1.312l-0.652,0.571
									L319.844,205.117 M326.547,204.32l1.541-0.896l0.671,0.387l-2.544,1.479l-0.671-0.387l0.151-1.397
									c0.006-0.122-0.008-0.232-0.059-0.321c-0.039-0.088-0.115-0.162-0.225-0.225c-0.166-0.096-0.351-0.144-0.561-0.132
									c-0.21,0.003-0.406,0.059-0.591,0.166c-0.14,0.081-0.26,0.188-0.373,0.32c-0.102,0.133-0.189,0.288-0.265,0.464
									l-0.773-0.446c0.139-0.154,0.285-0.298,0.449-0.438c0.165-0.133,0.343-0.258,0.533-0.368c0.412-0.24,0.832-0.38,1.245-0.406
									c0.426-0.026,0.796,0.055,1.127,0.247c0.192,0.111,0.32,0.243,0.391,0.394c0.064,0.155,0.086,0.402,0.043,0.745
									L326.547,204.32 M340.68,200.708l-11.052-6.381l-30.625,17.798l11.052,6.381L340.68,200.708"/>
								<polyline fill="#EC7405" points="213.402,127.219 185.029,110.837 169.234,120.016 197.608,136.398 213.402,127.219
																	"/>
								<polyline fill="#EC7405" points="412.238,242.024 384.804,226.185 369.009,235.363 396.443,251.204 412.238,242.024
																	"/>
								<path fill="#FFFFFF" d="M246.271,169.089l-0.728-0.42c-0.057,0.166-0.138,0.309-0.239,0.435
									c-0.114,0.125-0.26,0.24-0.438,0.343c-0.323,0.188-0.68,0.277-1.067,0.266c-0.395-0.015-0.771-0.129-1.129-0.335
									c-0.363-0.21-0.562-0.428-0.589-0.656c-0.021-0.225,0.131-0.432,0.455-0.619c0.177-0.104,0.374-0.188,0.59-0.254
									c0.216-0.059,0.464-0.107,0.75-0.14l-0.728-0.42c-0.26,0.048-0.496,0.11-0.718,0.188c-0.223,0.078-0.432,0.177-0.628,0.292
									c-0.577,0.335-0.88,0.697-0.892,1.087c-0.01,0.383,0.265,0.741,0.827,1.065c0.556,0.32,1.173,0.479,1.835,0.472
									c0.675-0.007,1.297-0.184,1.875-0.52c0.197-0.114,0.368-0.236,0.5-0.365S246.19,169.24,246.271,169.089"/>
								<polyline fill="#FFFFFF" points="249.628,167.36 249.003,166.999 248.204,167.463 245.318,165.797 244.461,166.295
									243.815,166.863 244.435,167.22 245.081,166.646 247.354,167.958 246.561,168.418 247.187,168.78 249.628,167.36
									"/>
								<polyline fill="#FFFFFF" points="251.145,166.479 250.238,165.956 249.395,166.446 250.301,166.97 251.145,166.479
									"/>
								<polyline fill="#FFFFFF" points="254.494,164.533 253.868,164.172 253.075,164.632 250.189,162.966 249.333,163.464
									248.687,164.031 249.307,164.389 249.952,163.814 252.225,165.126 251.426,165.591 252.052,165.952 254.494,164.533
																	"/>
								<path fill="#FFFFFF" d="M254.162,163.224l-0.479-1.422l1.469,0.848L254.162,163.224 M257.16,162.244l-0.658-0.38
									l-0.501,0.291l-2.215-1.279l-1.002,0.583l0.699,2.02l0.779,0.45l1.548-0.899l0.638,0.368l0.85-0.494l-0.638-0.369
									L257.16,162.244"/>
								<path fill="#FFFFFF" d="M144.41,119.072l-0.728-0.42c-0.056,0.166-0.132,0.313-0.239,0.435
									c-0.114,0.125-0.253,0.243-0.431,0.347c-0.323,0.188-0.686,0.273-1.074,0.262c-0.395-0.015-0.765-0.125-1.128-0.335
									c-0.364-0.21-0.562-0.428-0.583-0.652c-0.027-0.229,0.125-0.435,0.449-0.623c0.178-0.104,0.374-0.188,0.59-0.254
									c0.216-0.059,0.464-0.107,0.75-0.14l-0.728-0.42c-0.254,0.044-0.496,0.111-0.718,0.188
									c-0.216,0.081-0.432,0.177-0.629,0.292c-0.577,0.335-0.874,0.7-0.891,1.087c-0.011,0.383,0.265,0.741,0.827,1.065
									c0.562,0.324,1.174,0.479,1.835,0.472c0.675-0.007,1.297-0.184,1.875-0.52c0.197-0.115,0.368-0.236,0.501-0.365
									C144.221,119.36,144.334,119.22,144.41,119.072"/>
								<polyline fill="#FFFFFF" points="147.773,117.347 147.147,116.986 146.354,117.446 143.463,115.777 142.6,116.278
									141.96,116.849 142.573,117.203 143.226,116.632 145.498,117.944 144.705,118.405 145.331,118.767 147.773,117.347
									"/>
								<polyline fill="#FFFFFF" points="149.29,116.466 148.376,115.939 147.533,116.429 148.446,116.956 149.29,116.466
									"/>
								<path fill="#FFFFFF" d="M152.557,114.567l-0.671-0.387l-1.541,0.896l0.091-0.814c0.036-0.347,0.022-0.59-0.042-0.745
									c-0.071-0.151-0.199-0.284-0.39-0.395c-0.333-0.192-0.702-0.273-1.122-0.244c-0.413,0.026-0.839,0.163-1.251,0.402
									c-0.19,0.111-0.367,0.236-0.532,0.369c-0.165,0.14-0.31,0.284-0.45,0.438l0.773,0.446c0.075-0.177,0.164-0.332,0.264-0.465
									c0.114-0.132,0.234-0.24,0.374-0.321c0.184-0.107,0.381-0.162,0.591-0.166c0.21-0.011,0.395,0.037,0.561,0.133
									c0.108,0.062,0.185,0.136,0.224,0.225c0.052,0.088,0.065,0.199,0.053,0.324l-0.146,1.394l0.671,0.387L152.557,114.567"/>
								<path fill="#FFFFFF" d="M152.196,112.735c-0.441-0.254-0.715-0.457-0.812-0.608c-0.096-0.151-0.046-0.284,0.151-0.398
									c0.19-0.111,0.419-0.14,0.681-0.085c0.261,0.056,0.612,0.214,1.053,0.468s0.715,0.458,0.818,0.612
									c0.103,0.155,0.053,0.288-0.138,0.398c-0.197,0.114-0.425,0.144-0.693,0.085
									C152.988,113.148,152.636,112.99,152.196,112.735 M154.175,111.593c-0.587-0.339-1.155-0.527-1.728-0.564
									c-0.561-0.037-1.075,0.078-1.532,0.343c-0.463,0.27-0.659,0.568-0.593,0.893c0.072,0.328,0.392,0.66,0.979,0.999
									c0.581,0.335,1.161,0.523,1.721,0.56c0.567,0.041,1.075-0.077,1.538-0.346c0.457-0.266,0.659-0.561,0.587-0.889
									C155.089,112.26,154.756,111.928,154.175,111.593"/>
								<path fill="#FFFFFF" d="M289.891,194.275l-0.728-0.42c-0.056,0.166-0.138,0.31-0.245,0.432
									c-0.114,0.125-0.253,0.243-0.431,0.346c-0.324,0.188-0.686,0.273-1.074,0.262c-0.395-0.015-0.765-0.125-1.128-0.335
									c-0.364-0.21-0.563-0.428-0.583-0.653c-0.027-0.229,0.125-0.435,0.448-0.623c0.177-0.104,0.374-0.188,0.597-0.25
									c0.21-0.063,0.458-0.111,0.744-0.144l-0.728-0.42c-0.254,0.051-0.496,0.11-0.718,0.188
									c-0.216,0.082-0.432,0.177-0.629,0.292c-0.577,0.335-0.874,0.7-0.891,1.087c-0.01,0.384,0.265,0.741,0.828,1.065
									c0.562,0.325,1.173,0.479,1.841,0.476c0.668-0.011,1.297-0.184,1.875-0.52c0.197-0.114,0.361-0.24,0.494-0.369
									C289.695,194.559,289.803,194.422,289.891,194.275"/>
								<polyline fill="#FFFFFF" points="293.248,192.546 292.623,192.185 291.823,192.649 288.931,190.979 288.074,191.477
									287.435,192.048 288.048,192.402 288.7,191.831 290.973,193.143 290.181,193.604 290.806,193.965 293.248,192.546
									"/>
								<polyline fill="#FFFFFF" points="294.764,191.665 293.851,191.138 293.007,191.628 293.92,192.155 294.764,191.665
									"/>
								<polyline fill="#FFFFFF" points="298.113,189.719 297.487,189.357 296.695,189.818 293.802,188.148 292.946,188.646
									292.307,189.217 292.919,189.571 293.572,189 295.845,190.312 295.045,190.776 295.671,191.138 298.113,189.719 								"/>
								<path fill="#FFFFFF" d="M300.251,187.315c-0.229-0.133-0.479-0.21-0.759-0.225c-0.273-0.018-0.56,0.022-0.852,0.125
									c0.158-0.151,0.221-0.298,0.201-0.435c-0.026-0.14-0.141-0.266-0.352-0.387c-0.3-0.174-0.632-0.24-1.013-0.196
									c-0.375,0.048-0.788,0.199-1.245,0.465c-0.165,0.096-0.323,0.203-0.476,0.321c-0.146,0.114-0.285,0.239-0.412,0.372
									l0.664,0.383c0.083-0.122,0.177-0.236,0.297-0.343c0.114-0.103,0.241-0.199,0.387-0.284
									c0.197-0.114,0.387-0.181,0.565-0.203c0.185-0.019,0.337,0.011,0.478,0.092c0.14,0.081,0.198,0.173,0.161,0.284
									c-0.037,0.103-0.177,0.221-0.405,0.354l-0.374,0.217l0.587,0.339l0.355-0.207c0.26-0.151,0.489-0.239,0.699-0.265
									c0.216-0.029,0.401,0.004,0.561,0.096c0.159,0.092,0.211,0.196,0.167,0.317c-0.044,0.122-0.183,0.254-0.418,0.391
									c-0.165,0.096-0.342,0.177-0.559,0.25c-0.209,0.07-0.438,0.129-0.692,0.181l0.696,0.402c0.235-0.07,0.458-0.147,0.667-0.232
									c0.21-0.092,0.407-0.185,0.591-0.292c0.508-0.295,0.799-0.575,0.886-0.833C300.736,187.75,300.602,187.518,300.251,187.315"
									/>
								<path fill="#FFFFFF" d="M317.422,210.171l-0.729-0.42c-0.056,0.166-0.132,0.313-0.239,0.435
									c-0.113,0.125-0.259,0.24-0.437,0.343c-0.323,0.188-0.68,0.276-1.068,0.265c-0.395-0.015-0.764-0.125-1.128-0.335
									c-0.364-0.21-0.562-0.428-0.583-0.652c-0.026-0.229,0.125-0.435,0.449-0.623c0.178-0.103,0.374-0.188,0.59-0.254
									c0.216-0.059,0.464-0.107,0.75-0.14l-0.729-0.42c-0.26,0.047-0.495,0.11-0.717,0.188c-0.223,0.077-0.432,0.177-0.629,0.292
									c-0.577,0.335-0.874,0.7-0.892,1.087c-0.011,0.384,0.266,0.741,0.827,1.065s1.174,0.479,1.842,0.476
									c0.668-0.012,1.291-0.188,1.868-0.523c0.197-0.114,0.368-0.236,0.501-0.365C317.232,210.458,317.34,210.322,317.422,210.171
									"/>
								<polyline fill="#FFFFFF" points="320.785,208.445 320.159,208.084 319.36,208.549 316.468,206.879 315.611,207.376
									314.973,207.948 315.585,208.302 316.237,207.73 318.511,209.043 317.718,209.503 318.343,209.865 320.785,208.445
									"/>
								<polyline fill="#FFFFFF" points="322.301,207.564 321.388,207.037 320.545,207.527 321.457,208.055 322.301,207.564
																	"/>
								<polyline fill="#FFFFFF" points="325.65,205.618 325.024,205.257 324.231,205.718 321.34,204.048 320.483,204.545
									319.844,205.117 320.456,205.47 321.108,204.899 323.382,206.212 322.583,206.676 323.208,207.037 325.65,205.618
									"/>
								<path fill="#FFFFFF" d="M328.759,203.812l-0.671-0.387l-1.541,0.896l0.091-0.814c0.043-0.343,0.021-0.59-0.043-0.745
									c-0.07-0.151-0.198-0.283-0.391-0.394c-0.331-0.192-0.701-0.273-1.127-0.247c-0.413,0.026-0.833,0.166-1.245,0.406
									c-0.19,0.11-0.368,0.235-0.533,0.368c-0.164,0.141-0.311,0.284-0.449,0.438l0.773,0.446
									c0.075-0.177,0.163-0.332,0.265-0.464c0.113-0.133,0.233-0.239,0.373-0.32c0.185-0.107,0.381-0.163,0.591-0.166
									c0.21-0.011,0.395,0.037,0.561,0.132c0.109,0.063,0.186,0.136,0.225,0.225c0.051,0.089,0.064,0.199,0.059,0.321
									l-0.151,1.397l0.671,0.387L328.759,203.812"/>
								<path fill="#FFFFFF" d="M343.911,225.466l-0.728-0.42c-0.056,0.165-0.139,0.309-0.239,0.435
									c-0.114,0.125-0.26,0.239-0.438,0.343c-0.323,0.188-0.68,0.276-1.067,0.265c-0.396-0.014-0.771-0.128-1.128-0.335
									c-0.364-0.21-0.562-0.427-0.59-0.656c-0.021-0.225,0.132-0.431,0.455-0.619c0.178-0.104,0.374-0.188,0.591-0.254
									c0.216-0.06,0.463-0.107,0.749-0.141l-0.728-0.42c-0.26,0.048-0.496,0.11-0.718,0.188c-0.223,0.077-0.432,0.178-0.628,0.292
									c-0.577,0.335-0.881,0.696-0.893,1.087c-0.01,0.384,0.267,0.741,0.828,1.065c0.555,0.32,1.173,0.479,1.835,0.472
									c0.668-0.011,1.297-0.185,1.874-0.52c0.197-0.114,0.368-0.236,0.501-0.365S343.829,225.616,343.911,225.466"/>
								<polyline fill="#FFFFFF" points="347.269,223.736 346.643,223.375 345.844,223.84 342.958,222.174 342.102,222.671
									341.455,223.239 342.074,223.597 342.721,223.021 344.994,224.334 344.201,224.795 344.826,225.156 347.269,223.736
																	"/>
								<polyline fill="#FFFFFF" points="348.784,222.855 347.878,222.332 347.034,222.822 347.941,223.346 348.784,222.855
																	"/>
								<polyline fill="#FFFFFF" points="352.134,220.909 351.508,220.548 350.715,221.009 347.829,219.343 346.973,219.84
									346.327,220.408 346.946,220.766 347.592,220.19 349.865,221.503 349.066,221.967 349.691,222.328 352.134,220.909
									"/>
								<polyline fill="#FFFFFF" points="355.324,219.055 354.699,218.693 353.906,219.154 351.02,217.488 350.163,217.986
									349.518,218.554 350.137,218.911 350.783,218.336 353.056,219.648 352.257,220.113 352.882,220.475 355.324,219.055
																	"/>
								<path fill="#CFD0D2" d="M152.453,143.72l2.892-1.681l2.911-1.692l1.475,0.852l-1.446,0.84l1.456,0.84l-1.446,0.841
									l1.456,0.84l-1.446,0.84l1.456,0.84l-1.465,0.852L152.453,143.72 M356.2,260.663l2.894-1.681l2.905-1.688l1.475,0.852
									l-1.446,0.841l1.449,0.837l-1.446,0.84l1.455,0.841l-1.439,0.837l1.455,0.841l-1.465,0.852L356.2,260.663 M259.029,133.516
									l-26.062-15.048l-35.275,20.5l-30.627-17.684l-29.064,16.884L365.21,269.355l29.058-16.887l-27.435-15.841l-14.748,8.571
									l-143.079-82.613l32.718-19.014L259.029,133.516"/>
								<path fill="#FFFFFF" d="M271.742,108.256c-0.191-0.11-0.294-0.221-0.314-0.335c-0.013-0.118,0.057-0.217,0.215-0.31
									c0.177-0.103,0.368-0.14,0.591-0.114c0.223,0.026,0.465,0.114,0.727,0.266l0.658,0.38l-0.14,0.081
									c-0.26,0.151-0.553,0.225-0.884,0.232C272.265,108.456,271.979,108.393,271.742,108.256 M275.13,106.398
									c-0.268-0.155-0.556-0.306-0.868-0.442c-0.306-0.14-0.625-0.265-0.963-0.387l-0.958,0.557
									c0.306,0.051,0.6,0.133,0.893,0.236c0.28,0.103,0.567,0.232,0.835,0.387c0.338,0.196,0.531,0.365,0.602,0.509
									c0.064,0.147-0.004,0.277-0.202,0.391l-0.102,0.059l-0.747-0.432c-0.683-0.395-1.289-0.62-1.824-0.678
									c-0.535-0.059-1.031,0.044-1.494,0.313c-0.374,0.217-0.558,0.472-0.537,0.755c0.015,0.288,0.227,0.549,0.635,0.785
									c0.307,0.177,0.619,0.292,0.944,0.354c0.318,0.059,0.688,0.066,1.088,0.026l-0.577,0.335l1.277,0.737l2.239-1.301
									c0.627-0.365,0.925-0.723,0.885-1.069C276.223,107.191,275.845,106.812,275.13,106.398"/>
								<polyline fill="#FFFFFF" points="281.033,108.139 279.769,107.409 274.307,110.583 275.571,111.312 281.033,108.139
																	"/>
								<path fill="#FFFFFF" d="M283.213,109.882l-1.265-0.73l-1.116,0.648l-0.632-0.365l-0.895,0.52l0.632,0.365l-1.668,0.969
									c-0.495,0.288-0.748,0.553-0.747,0.796c0.008,0.24,0.257,0.501,0.755,0.789l1.085,0.627l0.895-0.52l-0.651-0.376
									c-0.217-0.125-0.326-0.225-0.339-0.306c-0.001-0.081,0.082-0.173,0.266-0.28l1.668-0.97l1.302,0.752l0.895-0.52
									l-1.302-0.752L283.213,109.882"/>
								<path fill="#FFFFFF" d="M283.645,113.204c0.292-0.125,0.591-0.188,0.877-0.177c0.293,0.007,0.561,0.081,0.803,0.221
									c0.23,0.133,0.339,0.284,0.333,0.45c-0.012,0.162-0.132,0.313-0.373,0.454L283.645,113.204 M286.169,112.772
									c-0.683-0.395-1.403-0.598-2.161-0.608c-0.764-0.015-1.457,0.166-2.097,0.538c-0.653,0.38-0.963,0.789-0.929,1.228
									c0.034,0.439,0.406,0.866,1.127,1.283c0.294,0.169,0.625,0.324,0.982,0.464s0.74,0.266,1.154,0.372l0.971-0.564
									c-0.452-0.077-0.86-0.173-1.217-0.291c-0.363-0.114-0.67-0.247-0.938-0.402c-0.333-0.192-0.512-0.383-0.551-0.575
									c-0.039-0.191,0.081-0.379,0.347-0.571l2.956,1.707l0.355-0.207c0.622-0.361,0.937-0.76,0.929-1.191
									C287.103,113.524,286.788,113.13,286.169,112.772"/>
								<polyline fill="#FFFFFF" points="266.674,110.1 264.943,109.101 260.934,110.033 262.537,107.711 260.807,106.712
									255.561,109.761 256.85,110.505 260.688,108.275 259.072,110.62 259.934,111.117 263.982,110.177 260.145,112.407
									261.428,113.148 266.674,110.1 								"/>
								<path fill="#FFFFFF" d="M266.111,113.075c0.286-0.129,0.585-0.192,0.871-0.181c0.293,0.007,0.567,0.084,0.81,0.225
									c0.224,0.129,0.333,0.28,0.327,0.446c-0.005,0.166-0.125,0.317-0.367,0.457L266.111,113.075 M268.629,112.64
									c-0.683-0.395-1.404-0.597-2.161-0.608c-0.757-0.011-1.457,0.166-2.098,0.538c-0.653,0.38-0.962,0.789-0.922,1.231
									c0.035,0.438,0.406,0.866,1.121,1.279c0.3,0.173,0.631,0.328,0.989,0.468c0.357,0.14,0.733,0.262,1.148,0.369l0.97-0.564
									c-0.452-0.077-0.86-0.173-1.21-0.288c-0.364-0.114-0.676-0.25-0.945-0.405c-0.326-0.188-0.505-0.379-0.544-0.571
									s0.075-0.383,0.341-0.575l2.962,1.71l0.355-0.206c0.622-0.361,0.931-0.763,0.929-1.191
									C269.563,113.392,269.249,112.997,268.629,112.64"/>
								<path fill="#FFFFFF" d="M274.222,115.869c-0.261-0.151-0.548-0.258-0.874-0.313c-0.325-0.062-0.688-0.082-1.114-0.056
									l0.577-0.335l-1.264-0.729l-3.933,2.286l1.264,0.729l1.935-1.124c0.362-0.21,0.711-0.332,1.067-0.361
									c0.357-0.029,0.663,0.029,0.924,0.181c0.108,0.062,0.186,0.136,0.224,0.21c0.039,0.074,0.046,0.151,0.008,0.225
									c-0.026,0.059-0.095,0.129-0.203,0.214c-0.114,0.082-0.342,0.221-0.685,0.42l-1.44,0.837l-0.394,0.229l1.277,0.737
									l2.398-1.394c0.533-0.31,0.811-0.612,0.854-0.911C274.887,116.415,274.682,116.134,274.222,115.869"/>
								<path fill="#FFFFFF" d="M278.309,118.228c-0.594-0.343-1.136-0.538-1.62-0.59c-0.49-0.048-0.941,0.052-1.354,0.292
									c-0.387,0.225-0.563,0.46-0.53,0.7c0.033,0.24,0.302,0.542,0.794,0.907l0.198,0.144c0.224,0.166,0.352,0.291,0.384,0.376
									c0.032,0.078-0.012,0.155-0.12,0.217c-0.133,0.078-0.298,0.1-0.49,0.07c-0.197-0.033-0.415-0.122-0.664-0.266
									c-0.274-0.158-0.51-0.332-0.709-0.52c-0.211-0.188-0.377-0.387-0.506-0.608l-0.958,0.557
									c0.211,0.217,0.442,0.417,0.678,0.604c0.243,0.185,0.485,0.354,0.747,0.505c0.619,0.357,1.187,0.56,1.709,0.619
									c0.522,0.059,0.992-0.037,1.411-0.28c0.4-0.232,0.583-0.464,0.55-0.704c-0.046-0.24-0.34-0.571-0.903-0.992l-0.192-0.147
									c-0.204-0.147-0.326-0.261-0.358-0.339c-0.032-0.084-0.001-0.154,0.101-0.213c0.12-0.07,0.273-0.092,0.445-0.059
									c0.178,0.029,0.389,0.114,0.632,0.254c0.223,0.129,0.428,0.284,0.626,0.464c0.192,0.177,0.372,0.376,0.532,0.601
									l0.958-0.557c-0.23-0.221-0.454-0.41-0.678-0.583C278.768,118.516,278.545,118.364,278.309,118.228"/>
								<path fill="#FFFFFF" d="M279.39,122.667c-0.186-0.107-0.294-0.221-0.314-0.335c-0.006-0.114,0.056-0.217,0.215-0.31
									c0.177-0.103,0.374-0.137,0.598-0.11c0.216,0.022,0.458,0.11,0.727,0.265l0.658,0.379l-0.14,0.082
									c-0.26,0.151-0.552,0.225-0.883,0.232C279.913,122.873,279.632,122.807,279.39,122.667 M282.784,120.812
									c-0.274-0.159-0.562-0.31-0.868-0.442c-0.306-0.14-0.632-0.269-0.963-0.387l-0.958,0.557
									c0.306,0.052,0.599,0.132,0.892,0.236c0.281,0.104,0.568,0.232,0.836,0.387c0.332,0.192,0.53,0.365,0.601,0.508
									c0.058,0.144-0.005,0.277-0.201,0.391l-0.102,0.059l-0.747-0.432c-0.684-0.395-1.296-0.623-1.824-0.678
									c-0.541-0.062-1.03,0.044-1.493,0.313c-0.375,0.218-0.564,0.468-0.537,0.756c0.014,0.288,0.226,0.549,0.634,0.785
									c0.3,0.173,0.619,0.291,0.938,0.35c0.318,0.059,0.688,0.066,1.094,0.029l-0.583,0.339l1.271,0.734l2.246-1.305
									c0.628-0.365,0.932-0.719,0.891-1.065C283.87,121.602,283.499,121.225,282.784,120.812"/>
								<polyline fill="#FFFFFF" points="363.474,258.146 361.999,257.294 359.094,258.982 356.2,260.663 362.036,264.033
									363.501,263.182 362.046,262.341 363.485,261.504 362.03,260.663 363.477,259.823 362.027,258.986 363.474,258.146
									"/>
								<polyline fill="#FFFFFF" points="330.701,294.854 329.227,294.003 326.314,295.695 323.422,297.376 329.265,300.749
									330.729,299.897 329.274,299.057 330.721,298.217 329.265,297.376 330.711,296.536 329.255,295.695 330.701,294.854
																	"/>
								<polyline fill="#FFFFFF" points="159.731,141.198 158.256,140.347 155.345,142.039 152.453,143.72 158.295,147.093
									159.76,146.241 158.305,145.4 159.75,144.56 158.295,143.72 159.741,142.879 158.285,142.039 159.731,141.198 								"/>
								<polyline fill="#FFFFFF" points="268.746,83.591 267.271,82.739 264.36,84.431 261.468,86.112 267.31,89.485
									268.775,88.634 267.319,87.793 268.765,86.953 267.31,86.112 268.756,85.271 267.3,84.431 268.746,83.591 								"/>
								<path fill="#FFFFFF" d="M292.723,96.677c-0.587-0.339-1.212-0.516-1.881-0.52c-0.668-0.011-1.284,0.147-1.843,0.472
									c-0.552,0.321-0.823,0.679-0.802,1.065c0.008,0.387,0.316,0.749,0.903,1.087c0.191,0.111,0.402,0.21,0.625,0.288
									c0.229,0.082,0.466,0.144,0.721,0.188l0.723-0.42c-0.287-0.033-0.529-0.078-0.751-0.141
									c-0.217-0.066-0.415-0.151-0.593-0.254c-0.319-0.185-0.474-0.391-0.449-0.62c0.017-0.225,0.208-0.446,0.562-0.652
									c0.368-0.214,0.743-0.321,1.137-0.335c0.388-0.011,0.745,0.078,1.064,0.262c0.179,0.104,0.326,0.218,0.441,0.343
									c0.108,0.129,0.186,0.27,0.244,0.435l0.723-0.42c-0.077-0.147-0.187-0.284-0.327-0.417
									C293.086,96.91,292.914,96.788,292.723,96.677"/>
								<polyline fill="#FFFFFF" points="296.132,98.72 295.271,98.222 294.288,97.846 293.673,98.204 294.662,98.576
									292.403,99.888 291.605,99.428 290.983,99.789 293.441,101.208 294.063,100.847 293.265,100.386 296.132,98.72 								"/>
								<polyline fill="#FFFFFF" points="295.868,101.566 295.025,101.079 294.125,101.603 294.968,102.089 295.868,101.566
																	"/>
								<path fill="#FFFFFF" d="M300.454,101.142c-0.191-0.11-0.402-0.217-0.638-0.31c-0.23-0.096-0.491-0.181-0.759-0.262
									l-0.768,0.446c0.312,0.041,0.58,0.092,0.809,0.159c0.229,0.059,0.408,0.133,0.549,0.214
									c0.186,0.107,0.281,0.221,0.295,0.339c0.013,0.125-0.069,0.232-0.233,0.328c-0.102,0.059-0.229,0.104-0.382,0.133
									c-0.152,0.022-0.337,0.033-0.56,0.03l-2.406-0.089l-0.66,0.383l2.554,1.475l0.66-0.383l-1.545-0.892l1.4,0.052
									c0.599,0.022,1.031,0.015,1.285-0.022c0.261-0.041,0.489-0.114,0.68-0.225c0.33-0.192,0.476-0.409,0.423-0.652
									C301.112,101.625,300.876,101.385,300.454,101.142"/>
								<path fill="#FFFFFF" d="M303.608,102.963c-0.173-0.1-0.357-0.192-0.556-0.276c-0.197-0.092-0.414-0.173-0.644-0.247
									l-0.66,0.383c0.211,0.048,0.401,0.107,0.593,0.173c0.179,0.066,0.339,0.144,0.485,0.229
									c0.198,0.114,0.319,0.221,0.352,0.328c0.032,0.107-0.012,0.199-0.145,0.276c-0.146,0.085-0.312,0.114-0.496,0.088
									c-0.179-0.022-0.389-0.1-0.612-0.229l-0.383-0.221l-0.578,0.335l0.364,0.21c0.256,0.147,0.403,0.283,0.454,0.409
									c0.046,0.122-0.005,0.232-0.163,0.325c-0.152,0.088-0.343,0.118-0.554,0.092c-0.209-0.025-0.427-0.106-0.669-0.247
									c-0.16-0.092-0.307-0.199-0.429-0.321c-0.134-0.122-0.236-0.254-0.313-0.402l-0.698,0.406
									c0.115,0.132,0.25,0.262,0.41,0.383c0.146,0.122,0.319,0.236,0.498,0.339c0.511,0.295,0.989,0.468,1.435,0.52
									c0.452,0.048,0.846-0.026,1.195-0.229c0.234-0.137,0.361-0.284,0.392-0.442c0.019-0.159-0.053-0.325-0.226-0.498
									c0.262,0.092,0.511,0.132,0.752,0.118c0.235-0.011,0.464-0.078,0.667-0.195c0.298-0.173,0.412-0.373,0.327-0.59
									C304.337,103.464,304.062,103.225,303.608,102.963"/>
								<path fill="#FFFFFF" d="M388.721,263.089c-0.58-0.335-1.205-0.513-1.881-0.52c-0.661-0.008-1.277,0.151-1.836,0.476
									c-0.552,0.32-0.823,0.678-0.809,1.062c0.021,0.387,0.323,0.752,0.903,1.087c0.198,0.115,0.408,0.214,0.632,0.292
									c0.224,0.077,0.459,0.14,0.721,0.188l0.723-0.42c-0.287-0.033-0.535-0.081-0.752-0.141c-0.217-0.065-0.414-0.15-0.593-0.254
									c-0.326-0.188-0.479-0.395-0.455-0.623c0.018-0.225,0.214-0.442,0.569-0.648c0.367-0.214,0.736-0.324,1.13-0.34
									c0.388-0.011,0.745,0.078,1.071,0.266c0.179,0.104,0.325,0.218,0.44,0.343c0.103,0.126,0.186,0.27,0.244,0.436l0.724-0.421
									c-0.084-0.151-0.192-0.287-0.327-0.416C389.091,263.324,388.919,263.203,388.721,263.089"/>
								<polyline fill="#FFFFFF" points="392.131,265.131 391.269,264.634 390.286,264.258 389.671,264.615 390.666,264.991
									388.408,266.304 387.61,265.843 386.988,266.204 389.446,267.623 390.068,267.262 389.264,266.798 392.131,265.131
									"/>
								<polyline fill="#FFFFFF" points="391.873,267.98 391.023,267.49 390.123,268.014 390.973,268.504 391.873,267.98
									"/>
								<path fill="#FFFFFF" d="M393.548,269.359c-0.197-0.114-0.249-0.247-0.155-0.398c0.102-0.154,0.374-0.357,0.818-0.615
									c0.431-0.251,0.779-0.409,1.041-0.465c0.261-0.055,0.49-0.025,0.688,0.089c0.191,0.11,0.244,0.243,0.148,0.395
									c-0.095,0.151-0.367,0.354-0.799,0.604c-0.443,0.258-0.793,0.416-1.06,0.476C393.969,269.5,393.74,269.47,393.548,269.359
									 M396.555,267.612c-0.466-0.27-0.976-0.387-1.542-0.347c-0.573,0.037-1.138,0.225-1.722,0.563
									c-0.577,0.336-0.9,0.664-0.961,0.996c-0.062,0.324,0.137,0.623,0.603,0.892c0.46,0.266,0.976,0.38,1.535,0.343
									c0.566-0.04,1.139-0.225,1.716-0.56c0.584-0.34,0.9-0.671,0.968-1C397.22,268.173,397.015,267.878,396.555,267.612"/>
								<polyline fill="#FFFFFF" points="400.992,270.248 398.343,268.718 397.684,269.102 399.381,270.082 395.25,270.974
									396.138,271.486 400.485,270.543 400.992,270.248 								"/>
								<path fill="#FFFFFF" d="M364.763,277.013c-0.581-0.336-1.212-0.509-1.881-0.52c-0.661-0.008-1.278,0.15-1.836,0.476
									c-0.559,0.324-0.823,0.678-0.815,1.064c0.021,0.388,0.322,0.753,0.903,1.088c0.198,0.114,0.415,0.21,0.639,0.287
									c0.223,0.078,0.458,0.141,0.713,0.192l0.724-0.421c-0.287-0.033-0.535-0.08-0.746-0.144
									c-0.222-0.062-0.42-0.147-0.599-0.251c-0.325-0.188-0.474-0.397-0.455-0.622c0.018-0.226,0.214-0.442,0.575-0.652
									c0.362-0.211,0.736-0.325,1.124-0.336c0.395-0.015,0.752,0.073,1.078,0.262c0.179,0.103,0.325,0.218,0.434,0.347
									c0.109,0.121,0.192,0.266,0.251,0.431l0.723-0.42c-0.09-0.147-0.191-0.287-0.332-0.413
									C365.126,277.252,364.961,277.127,364.763,277.013"/>
								<polyline fill="#FFFFFF" points="368.173,279.055 367.311,278.557 366.322,278.185 365.713,278.539 366.702,278.918
									364.443,280.23 363.646,279.77 363.023,280.131 365.481,281.551 366.104,281.189 365.299,280.725 368.173,279.055
									"/>
								<polyline fill="#FFFFFF" points="367.915,281.904 367.065,281.414 366.158,281.941 367.008,282.432 367.915,281.904
																	"/>
								<path fill="#FFFFFF" d="M369.583,283.287c-0.197-0.114-0.249-0.247-0.147-0.402c0.094-0.151,0.366-0.354,0.811-0.611
									c0.438-0.255,0.78-0.41,1.041-0.465c0.267-0.059,0.496-0.029,0.693,0.085c0.192,0.11,0.244,0.243,0.143,0.397
									c-0.094,0.151-0.361,0.351-0.799,0.604c-0.443,0.259-0.792,0.417-1.053,0.472
									C370.004,283.427,369.775,283.397,369.583,283.287 M372.597,281.535c-0.466-0.269-0.981-0.383-1.549-0.343
									c-0.566,0.033-1.138,0.226-1.715,0.561s-0.906,0.667-0.962,0.995c-0.067,0.329,0.131,0.627,0.597,0.896
									c0.46,0.266,0.977,0.379,1.542,0.339c0.561-0.037,1.139-0.226,1.715-0.561c0.578-0.335,0.9-0.671,0.962-0.995
									C373.256,282.1,373.057,281.801,372.597,281.535"/>
								<path fill="#FFFFFF" d="M376.83,284.054l-2.254-1.302l-1.966,1.144c0.235,0.055,0.446,0.117,0.624,0.184
									c0.185,0.062,0.338,0.137,0.473,0.214c0.217,0.125,0.338,0.255,0.357,0.391c0.027,0.133-0.055,0.255-0.238,0.361
									c-0.185,0.107-0.395,0.155-0.63,0.144c-0.235-0.011-0.459-0.081-0.676-0.206c-0.153-0.088-0.294-0.199-0.409-0.332
									c-0.122-0.129-0.218-0.28-0.295-0.457l-0.711,0.413c0.109,0.158,0.25,0.306,0.403,0.438c0.16,0.137,0.339,0.262,0.536,0.376
									c0.46,0.266,0.932,0.413,1.409,0.439c0.472,0.021,0.897-0.071,1.278-0.292c0.38-0.222,0.551-0.461,0.53-0.723
									c-0.027-0.265-0.257-0.516-0.686-0.763c-0.076-0.044-0.146-0.085-0.229-0.118s-0.166-0.066-0.255-0.096l0.539-0.313
									l1.532,0.885L376.83,284.054"/>
								<path fill="#FFFFFF" d="M349.608,285.819c-0.58-0.335-1.212-0.509-1.88-0.52c-0.662-0.008-1.278,0.151-1.837,0.476
									c-0.558,0.324-0.823,0.678-0.814,1.064c0.021,0.388,0.322,0.753,0.902,1.088c0.198,0.114,0.415,0.21,0.64,0.288
									c0.223,0.077,0.458,0.14,0.713,0.191l0.724-0.421c-0.287-0.033-0.535-0.08-0.746-0.144c-0.222-0.062-0.42-0.147-0.599-0.251
									c-0.326-0.188-0.475-0.397-0.456-0.622c0.024-0.229,0.214-0.442,0.575-0.652s0.736-0.324,1.125-0.336
									c0.395-0.015,0.752,0.073,1.077,0.262c0.179,0.104,0.326,0.218,0.435,0.347c0.108,0.122,0.191,0.266,0.25,0.432l0.724-0.421
									c-0.09-0.147-0.192-0.287-0.326-0.416C349.973,286.059,349.807,285.934,349.608,285.819"/>
								<polyline fill="#FFFFFF" points="353.019,287.861 352.157,287.364 351.168,286.991 350.559,287.346 351.548,287.725
									349.29,289.037 348.491,288.577 347.87,288.938 350.328,290.357 350.949,289.996 350.146,289.531 353.019,287.861
									"/>
								<polyline fill="#FFFFFF" points="352.762,290.711 351.912,290.221 351.005,290.748 351.854,291.238 352.762,290.711
																	"/>
								<path fill="#FFFFFF" d="M354.429,292.094c-0.197-0.114-0.249-0.247-0.147-0.402c0.095-0.151,0.373-0.357,0.811-0.611
									c0.438-0.255,0.781-0.41,1.048-0.469c0.261-0.055,0.49-0.025,0.688,0.089c0.191,0.11,0.243,0.243,0.148,0.395
									c-0.101,0.154-0.367,0.354-0.805,0.608c-0.438,0.254-0.793,0.416-1.054,0.471
									C354.851,292.234,354.621,292.204,354.429,292.094 M357.442,290.342c-0.466-0.269-0.981-0.383-1.542-0.346
									c-0.572,0.037-1.145,0.229-1.722,0.563c-0.577,0.336-0.906,0.668-0.961,0.995c-0.068,0.329,0.131,0.628,0.596,0.896
									c0.46,0.266,0.977,0.38,1.543,0.339c0.56-0.036,1.138-0.225,1.715-0.561c0.577-0.335,0.9-0.671,0.968-0.999
									C358.102,290.906,357.902,290.607,357.442,290.342"/>
								<path fill="#FFFFFF" d="M357.483,292.997l2.461-0.277l-1.465,0.852L357.483,292.997 M361.542,292.783l-1.009-0.583
									l-3.491,0.402l-0.768,0.446l1.558,0.898l-0.641,0.373l0.855,0.493l0.641-0.372l0.505,0.291l0.646-0.376l-0.504-0.291
									L361.542,292.783"/>
								<path fill="#FFFFFF" d="M305.028,311.728c-0.58-0.336-1.206-0.513-1.88-0.521c-0.662-0.007-1.278,0.151-1.837,0.477
									c-0.558,0.324-0.823,0.678-0.809,1.062c0.016,0.391,0.323,0.752,0.904,1.087c0.197,0.114,0.407,0.214,0.632,0.291
									c0.223,0.078,0.458,0.141,0.719,0.188l0.724-0.421c-0.287-0.033-0.541-0.077-0.752-0.14
									c-0.216-0.066-0.414-0.151-0.593-0.254c-0.325-0.188-0.479-0.395-0.462-0.619c0.024-0.229,0.215-0.442,0.576-0.653
									c0.361-0.209,0.736-0.324,1.124-0.335c0.395-0.015,0.752,0.073,1.077,0.262c0.179,0.103,0.326,0.218,0.44,0.343
									c0.103,0.125,0.186,0.269,0.244,0.435l0.724-0.42c-0.084-0.151-0.192-0.287-0.326-0.417
									C305.398,311.963,305.227,311.842,305.028,311.728"/>
								<polyline fill="#FFFFFF" points="308.438,313.77 307.577,313.271 306.595,312.896 305.979,313.254 306.974,313.63
									304.71,314.945 303.911,314.484 303.29,314.846 305.748,316.266 306.369,315.904 305.565,315.439 308.438,313.77
									"/>
								<polyline fill="#FFFFFF" points="308.182,316.619 307.332,316.129 306.425,316.656 307.274,317.146 308.182,316.619
																	"/>
								<path fill="#FFFFFF" d="M309.85,318.002c-0.198-0.114-0.243-0.251-0.148-0.402c0.101-0.155,0.373-0.357,0.811-0.611
									c0.438-0.255,0.787-0.414,1.048-0.469c0.261-0.056,0.49-0.025,0.688,0.088c0.192,0.111,0.244,0.244,0.148,0.395
									c-0.095,0.151-0.367,0.354-0.805,0.608c-0.438,0.255-0.786,0.413-1.054,0.472
									C310.277,318.138,310.041,318.112,309.85,318.002 M312.862,316.25c-0.466-0.269-0.981-0.383-1.542-0.346
									c-0.572,0.036-1.138,0.225-1.722,0.563c-0.577,0.336-0.9,0.664-0.961,0.995c-0.068,0.328,0.138,0.623,0.603,0.893
									c0.461,0.266,0.97,0.383,1.536,0.343c0.565-0.04,1.138-0.225,1.715-0.561c0.584-0.339,0.9-0.671,0.968-0.999
									C313.521,316.814,313.322,316.516,312.862,316.25"/>
								<polyline fill="#FFFFFF" points="316.553,318.455 315.691,317.957 314.709,317.582 314.094,317.939 315.089,318.314
									312.824,319.631 312.02,319.166 311.398,319.527 313.856,320.946 314.478,320.586 313.68,320.125 316.553,318.455
									"/>
								<path fill="#FFFFFF" d="M334.475,328.729c-0.587-0.34-1.213-0.517-1.881-0.521c-0.668-0.011-1.284,0.147-1.843,0.472
									c-0.558,0.325-0.823,0.679-0.803,1.065c0.01,0.388,0.317,0.749,0.905,1.088c0.19,0.11,0.401,0.21,0.625,0.287
									c0.223,0.078,0.465,0.145,0.719,0.188l0.724-0.421c-0.287-0.033-0.541-0.077-0.752-0.14
									c-0.216-0.066-0.414-0.151-0.593-0.254c-0.325-0.188-0.474-0.392-0.462-0.62c0.024-0.228,0.215-0.441,0.576-0.652
									c0.361-0.21,0.736-0.324,1.124-0.335c0.4-0.012,0.752,0.073,1.077,0.262c0.179,0.103,0.326,0.218,0.44,0.343
									c0.103,0.125,0.186,0.269,0.244,0.435l0.724-0.42c-0.077-0.147-0.192-0.287-0.326-0.417
									C334.839,328.962,334.666,328.84,334.475,328.729"/>
								<polyline fill="#FFFFFF" points="337.885,330.771 337.022,330.273 336.04,329.897 335.425,330.255 336.413,330.628
									334.149,331.943 333.351,331.482 332.729,331.844 335.188,333.263 335.809,332.902 335.011,332.441 337.885,330.771
																	"/>
								<polyline fill="#FFFFFF" points="337.621,333.617 336.771,333.127 335.864,333.654 336.714,334.145 337.621,333.617
																	"/>
								<path fill="#FFFFFF" d="M339.288,335c-0.197-0.114-0.242-0.251-0.147-0.402c0.101-0.155,0.373-0.357,0.811-0.611
									c0.438-0.255,0.787-0.414,1.048-0.469c0.261-0.056,0.49-0.025,0.688,0.088c0.192,0.111,0.244,0.244,0.148,0.395
									c-0.095,0.151-0.366,0.354-0.805,0.609c-0.438,0.254-0.786,0.412-1.054,0.471C339.717,335.136,339.48,335.11,339.288,335
									 M342.302,333.248c-0.466-0.269-0.982-0.383-1.542-0.346c-0.572,0.036-1.138,0.225-1.722,0.563
									c-0.577,0.336-0.9,0.664-0.961,0.995c-0.068,0.328,0.138,0.623,0.603,0.893c0.46,0.266,0.97,0.383,1.536,0.343
									c0.572-0.037,1.138-0.225,1.715-0.561c0.584-0.339,0.906-0.667,0.968-0.999C342.96,333.812,342.762,333.514,342.302,333.248
									"/>
								<path fill="#FFFFFF" d="M345.418,335.048c-0.192-0.111-0.408-0.214-0.639-0.31c-0.235-0.093-0.491-0.182-0.759-0.263
									l-0.768,0.446c0.307,0.045,0.574,0.096,0.804,0.155c0.229,0.066,0.414,0.137,0.554,0.217
									c0.187,0.107,0.282,0.222,0.289,0.343c0.02,0.122-0.062,0.229-0.228,0.325c-0.107,0.062-0.235,0.106-0.388,0.129
									c-0.152,0.029-0.337,0.04-0.553,0.033l-2.407-0.089l-0.665,0.387l2.554,1.476l0.666-0.387l-1.552-0.896l1.407,0.056
									c0.598,0.021,1.018,0.015,1.285-0.022c0.261-0.041,0.489-0.114,0.68-0.225c0.33-0.192,0.475-0.409,0.423-0.653
									C346.076,335.53,345.839,335.291,345.418,335.048"/>
								<path fill="#FFFFFF" d="M367.776,309.375c-0.587-0.339-1.212-0.516-1.881-0.52c-0.668-0.011-1.284,0.147-1.843,0.472
									c-0.558,0.325-0.823,0.679-0.803,1.065c0.01,0.388,0.317,0.748,0.905,1.088c0.19,0.11,0.401,0.21,0.625,0.287
									c0.223,0.078,0.465,0.145,0.719,0.188l0.724-0.421c-0.287-0.033-0.541-0.077-0.752-0.14
									c-0.216-0.066-0.414-0.151-0.593-0.255c-0.325-0.188-0.474-0.391-0.462-0.619c0.024-0.228,0.215-0.442,0.576-0.652
									s0.736-0.324,1.124-0.335c0.4-0.012,0.752,0.073,1.077,0.262c0.179,0.103,0.326,0.217,0.44,0.343
									c0.103,0.125,0.186,0.269,0.244,0.435l0.724-0.42c-0.077-0.147-0.192-0.287-0.326-0.417
									C368.141,309.607,367.968,309.486,367.776,309.375"/>
								<polyline fill="#FFFFFF" points="371.187,311.418 370.324,310.92 369.342,310.544 368.727,310.901 369.715,311.273
									367.451,312.59 366.652,312.129 366.031,312.49 368.489,313.909 369.11,313.549 368.312,313.088 371.187,311.418
									"/>
								<polyline fill="#FFFFFF" points="370.923,314.264 370.073,313.773 369.166,314.301 370.016,314.791 370.923,314.264
																	"/>
								<path fill="#FFFFFF" d="M372.59,315.646c-0.197-0.113-0.242-0.25-0.147-0.401c0.101-0.155,0.373-0.357,0.811-0.611
									c0.438-0.255,0.787-0.414,1.048-0.469c0.261-0.056,0.49-0.025,0.688,0.088c0.191,0.111,0.244,0.244,0.148,0.395
									c-0.094,0.151-0.366,0.354-0.805,0.609c-0.438,0.254-0.786,0.412-1.054,0.471
									C373.019,315.782,372.782,315.757,372.59,315.646 M375.604,313.895c-0.466-0.269-0.982-0.383-1.542-0.346
									c-0.572,0.036-1.138,0.225-1.722,0.563c-0.577,0.336-0.9,0.664-0.961,0.995c-0.068,0.328,0.138,0.623,0.603,0.893
									c0.46,0.266,0.97,0.383,1.536,0.343c0.572-0.037,1.138-0.225,1.715-0.561c0.584-0.339,0.906-0.667,0.968-0.999
									C376.262,314.459,376.063,314.16,375.604,313.895"/>
								<path fill="#FFFFFF" d="M378.656,315.657c-0.166-0.096-0.353-0.188-0.556-0.277c-0.198-0.084-0.415-0.165-0.645-0.239
									l-0.653,0.38c0.204,0.052,0.401,0.107,0.586,0.177c0.186,0.062,0.345,0.141,0.492,0.225
									c0.198,0.115,0.313,0.226,0.352,0.329c0.032,0.106-0.018,0.195-0.151,0.272c-0.146,0.084-0.305,0.117-0.488,0.092
									c-0.186-0.018-0.39-0.1-0.613-0.229l-0.383-0.221l-0.583,0.339l0.363,0.21c0.255,0.147,0.409,0.28,0.46,0.405
									c0.046,0.122-0.011,0.229-0.169,0.321c-0.152,0.088-0.337,0.122-0.548,0.096c-0.21-0.026-0.439-0.106-0.676-0.243
									c-0.166-0.096-0.3-0.203-0.435-0.324c-0.121-0.122-0.224-0.255-0.308-0.406l-0.698,0.406
									c0.122,0.136,0.257,0.265,0.41,0.391c0.153,0.117,0.319,0.228,0.505,0.335c0.511,0.295,0.989,0.468,1.435,0.52
									c0.445,0.045,0.84-0.029,1.189-0.231c0.228-0.133,0.367-0.28,0.385-0.439c0.031-0.158-0.04-0.324-0.219-0.493
									c0.268,0.088,0.517,0.129,0.758,0.114c0.235-0.012,0.458-0.081,0.66-0.199c0.299-0.174,0.412-0.365,0.334-0.586
									C379.384,316.166,379.115,315.922,378.656,315.657"/>
								<path fill="#FFFFFF" d="M390.504,296.167c-0.587-0.339-1.212-0.516-1.874-0.523c-0.675-0.007-1.284,0.147-1.843,0.472
									s-0.83,0.683-0.809,1.069c0.015,0.384,0.316,0.748,0.904,1.087c0.191,0.111,0.401,0.211,0.625,0.288
									c0.223,0.077,0.465,0.144,0.719,0.188l0.724-0.42c-0.286-0.033-0.534-0.081-0.745-0.144c-0.223-0.062-0.421-0.147-0.6-0.251
									c-0.325-0.188-0.474-0.391-0.455-0.623c0.018-0.225,0.214-0.442,0.575-0.652c0.362-0.21,0.73-0.32,1.124-0.335
									c0.395-0.008,0.752,0.073,1.078,0.262c0.179,0.103,0.319,0.221,0.434,0.346c0.109,0.122,0.192,0.266,0.251,0.432
									l0.717-0.417c-0.077-0.146-0.192-0.287-0.326-0.416C390.868,296.399,390.695,296.277,390.504,296.167"/>
								<polyline fill="#FFFFFF" points="393.914,298.209 393.052,297.712 392.069,297.336 391.454,297.693 392.443,298.065
									390.185,299.378 389.387,298.917 388.766,299.278 391.223,300.697 391.845,300.336 391.047,299.875 393.914,298.209
																	"/>
								<polyline fill="#FFFFFF" points="393.65,301.055 392.801,300.564 391.9,301.088 392.749,301.579 393.65,301.055 								"/>
								<path fill="#FFFFFF" d="M395.324,302.434c-0.197-0.113-0.249-0.246-0.154-0.398c0.101-0.154,0.373-0.356,0.817-0.615
									c0.438-0.254,0.78-0.409,1.041-0.465c0.261-0.055,0.49-0.025,0.688,0.089c0.192,0.11,0.244,0.243,0.148,0.395
									c-0.094,0.151-0.36,0.351-0.798,0.605c-0.444,0.258-0.793,0.416-1.061,0.475
									C395.746,302.574,395.517,302.545,395.324,302.434 M398.331,300.687c-0.465-0.269-0.976-0.388-1.542-0.347
									c-0.566,0.033-1.138,0.225-1.715,0.561c-0.584,0.339-0.906,0.667-0.969,0.999c-0.062,0.324,0.139,0.623,0.604,0.892
									c0.46,0.266,0.976,0.38,1.534,0.344c0.573-0.037,1.139-0.226,1.723-0.564c0.577-0.336,0.906-0.667,0.961-0.996
									C398.997,301.247,398.791,300.952,398.331,300.687"/>
								<path fill="#FFFFFF" d="M398.55,304.354c-0.159-0.092-0.225-0.188-0.206-0.295c0.031-0.107,0.146-0.218,0.349-0.336
									s0.394-0.185,0.571-0.198c0.191-0.015,0.357,0.021,0.517,0.113c0.16,0.093,0.23,0.192,0.198,0.299
									c-0.018,0.107-0.132,0.218-0.335,0.336c-0.203,0.117-0.394,0.184-0.585,0.199
									C398.881,304.487,398.709,304.446,398.55,304.354 M401.805,302.691c-0.511-0.294-1.078-0.431-1.701-0.408
									c-0.617,0.025-1.222,0.206-1.798,0.541c-0.565,0.328-0.875,0.648-0.931,0.97c-0.055,0.328,0.144,0.619,0.604,0.885
									c0.415,0.239,0.854,0.361,1.325,0.376c0.479,0.012,0.897-0.092,1.271-0.31c0.343-0.199,0.507-0.421,0.493-0.671
									c-0.008-0.247-0.201-0.476-0.559-0.682c-0.146-0.085-0.293-0.147-0.452-0.195s-0.331-0.081-0.511-0.096
									c0.317-0.155,0.629-0.232,0.929-0.236c0.3,0.004,0.587,0.081,0.854,0.236c0.127,0.073,0.235,0.158,0.338,0.254
									c0.09,0.096,0.18,0.206,0.264,0.335l0.646-0.376c-0.103-0.117-0.211-0.225-0.339-0.328
									C402.111,302.884,401.971,302.787,401.805,302.691"/>
								<path fill="#FFFFFF" d="M418.167,280.091c-0.587-0.339-1.219-0.513-1.881-0.521c-0.668-0.011-1.284,0.148-1.843,0.473
									c-0.558,0.324-0.823,0.678-0.803,1.064c0.01,0.388,0.317,0.749,0.904,1.088c0.191,0.111,0.402,0.211,0.625,0.288
									c0.224,0.077,0.466,0.144,0.721,0.188l0.723-0.42c-0.287-0.033-0.541-0.077-0.752-0.141
									c-0.217-0.065-0.414-0.15-0.593-0.254c-0.326-0.188-0.474-0.391-0.462-0.619c0.024-0.229,0.214-0.442,0.575-0.652
									c0.362-0.21,0.736-0.324,1.125-0.336c0.4-0.011,0.751,0.074,1.077,0.262c0.179,0.104,0.325,0.218,0.44,0.343
									c0.103,0.126,0.186,0.27,0.244,0.435l0.724-0.42c-0.077-0.147-0.192-0.287-0.327-0.416
									C418.531,280.323,418.358,280.201,418.167,280.091"/>
								<polyline fill="#FFFFFF" points="421.576,282.133 420.715,281.636 419.732,281.259 419.117,281.617 420.105,281.989
									417.848,283.302 417.05,282.841 416.422,283.206 418.879,284.625 419.508,284.26 418.709,283.799 421.576,282.133
									"/>
								<polyline fill="#FFFFFF" points="421.312,284.979 420.463,284.488 419.557,285.016 420.405,285.506 421.312,284.979
																	"/>
								<path fill="#FFFFFF" d="M422.98,286.361c-0.197-0.114-0.242-0.251-0.148-0.402c0.102-0.154,0.374-0.357,0.812-0.611
									c0.438-0.255,0.786-0.413,1.048-0.469c0.261-0.055,0.49-0.025,0.688,0.089c0.191,0.11,0.243,0.243,0.148,0.395
									s-0.367,0.354-0.805,0.608s-0.787,0.412-1.054,0.472C423.408,286.498,423.173,286.472,422.98,286.361 M425.994,284.61
									c-0.466-0.27-0.982-0.384-1.542-0.347c-0.573,0.037-1.138,0.225-1.722,0.563c-0.577,0.336-0.9,0.664-0.962,0.996
									c-0.068,0.328,0.138,0.623,0.604,0.892c0.46,0.266,0.97,0.384,1.535,0.343c0.573-0.036,1.139-0.225,1.716-0.56
									c0.583-0.34,0.906-0.668,0.968-1C426.653,285.174,426.454,284.875,425.994,284.61"/>
								<path fill="#FFFFFF" d="M426.148,288.241c-0.173-0.1-0.256-0.199-0.25-0.306c-0.007-0.107,0.081-0.21,0.253-0.31
									c0.171-0.1,0.349-0.151,0.533-0.147c0.185-0.004,0.356,0.044,0.529,0.144c0.166,0.096,0.249,0.195,0.243,0.302
									c0.001,0.104-0.087,0.207-0.259,0.307c-0.171,0.1-0.35,0.15-0.527,0.15C426.486,288.385,426.314,288.337,426.148,288.241
									 M427.778,287.294c-0.146-0.085-0.218-0.17-0.224-0.255c-0.007-0.092,0.062-0.177,0.202-0.258s0.279-0.118,0.438-0.114
									c0.152,0,0.299,0.041,0.445,0.126c0.141,0.081,0.211,0.165,0.212,0.254c0.007,0.085-0.062,0.17-0.202,0.251
									s-0.285,0.121-0.438,0.121C428.065,287.415,427.919,287.375,427.778,287.294 M429.206,286.464
									c-0.428-0.246-0.83-0.39-1.206-0.431c-0.382-0.037-0.712,0.029-1.01,0.203c-0.197,0.114-0.312,0.239-0.33,0.383
									c-0.03,0.137,0.04,0.287,0.188,0.446c-0.306-0.096-0.587-0.14-0.86-0.122c-0.273,0.012-0.516,0.085-0.744,0.218
									c-0.342,0.199-0.493,0.42-0.429,0.656c0.053,0.236,0.309,0.486,0.769,0.752c0.453,0.262,0.887,0.409,1.294,0.438
									c0.401,0.033,0.789-0.051,1.132-0.25c0.229-0.133,0.349-0.276,0.372-0.432c0.031-0.159-0.046-0.321-0.219-0.502
									c0.28,0.089,0.535,0.126,0.776,0.111c0.242-0.015,0.465-0.078,0.661-0.192c0.299-0.173,0.418-0.368,0.348-0.586
									C429.876,286.939,429.633,286.711,429.206,286.464"/>
							</g>
						</g>
					</g>
				</g>
			</g>
		</g>
	</g>
	<g>
		<g>
			<path fill="#EC7404" d="M314.48,110.476c-0.119,0-0.236-0.059-0.306-0.163c-0.099-0.146-0.08-0.342,0.046-0.466
				c1.73-1.729,2.993-3.586,3.754-5.521c-2.4-1.939-3.771-4.802-3.771-7.894c-0.002-0.02-0.049-0.771-0.049-1.215
				c0-0.452,0.049-1.403,0.049-1.403c0-5.575,4.553-10.13,10.148-10.13c0.035-0.001,1.284-0.059,4.529-0.059
				c3.242,0,4.74,0.059,4.756,0.061c5.581-0.002,10.133,4.553,10.133,10.148c0,0,0.046,0.57,0.046,1.229
				c0,0.667-0.047,1.392-0.047,1.392c0.001,5.573-4.551,10.127-10.147,10.127c-0.015,0-2.51,0.062-4.65,0.062
				s-4.604-0.062-4.628-0.062h-0.015c-0.904,0-1.811-0.124-2.686-0.368c-3.918,2.908-6.893,4.181-7.02,4.234
				C314.578,110.466,314.529,110.476,314.48,110.476"/>
			<path fill="#FFFFFF" d="M328.88,83.258c-3.253,0-4.511,0.057-4.562,0.059c-5.76,0-10.475,4.708-10.484,10.498
				c-0.007,0.141-0.048,0.974-0.048,1.402c0,0.426,0.04,1.104,0.048,1.237c0.007,3.104,1.348,5.982,3.697,7.982
				c-0.75,1.8-1.949,3.53-3.57,5.149c-0.25,0.249-0.288,0.64-0.091,0.932c0.14,0.209,0.372,0.326,0.61,0.326
				c0.098,0,0.194-0.019,0.287-0.059c0.127-0.054,3.067-1.312,6.951-4.17c0.86,0.222,1.744,0.335,2.633,0.335
				c0.006,0,2.475,0.06,4.618,0.06c2.146,0,4.646-0.06,4.671-0.06c5.772,0,10.485-4.706,10.498-10.496
				c0.008-0.13,0.045-0.778,0.045-1.391c0-0.6-0.035-1.129-0.045-1.258c-0.016-5.786-4.728-10.489-10.517-10.489
				C333.591,83.315,332.131,83.258,328.88,83.258 M328.88,83.996c3.274,0,4.742,0.058,4.742,0.058c5.401,0,9.78,4.379,9.78,9.781
				c0,0,0.043,0.575,0.043,1.229c0,0.655-0.043,1.367-0.043,1.367c0,5.404-4.379,9.782-9.78,9.782c0,0-2.49,0.061-4.652,0.061
				c-2.159,0-4.618-0.061-4.618-0.061c-0.967,0-1.902-0.144-2.783-0.404c-4,2.992-7.088,4.298-7.088,4.298
				c2.213-2.21,3.35-4.318,3.935-5.903c-2.335-1.787-3.845-4.603-3.845-7.772c0,0-0.047-0.768-0.047-1.214s0.047-1.383,0.047-1.383
				c0-5.402,4.379-9.781,9.781-9.781C324.352,84.053,325.605,83.996,328.88,83.996"/>
		</g>
		<polygon fill="#FFFFFF" points="325.44,89.328 323.827,89.077 325.176,88.147 325.194,88.134 325.182,88.117 324.717,87.538
			324.704,87.521 324.688,87.535 323.451,88.672 323.568,87 322.826,87 322.943,88.665 321.715,87.536 321.699,87.522
			321.686,87.539 321.223,88.118 321.209,88.136 321.227,88.148 322.577,89.078 320.963,89.328 320.94,89.332 320.945,89.353
			321.11,90.076 321.115,90.097 321.137,90.092 322.732,89.607 321.904,91.057 322.573,91.378 323.189,89.83 323.192,89.832
			323.201,89.828 323.206,89.825 323.827,91.381 324.494,91.058 323.665,89.605 325.266,90.09 325.287,90.097 325.292,90.076
			325.457,89.352 325.463,89.331 		"/>
	</g>
	<g>
		<polygon fill="#EC7404" points="216.811,174.026 220.225,174.026 218.654,185.802 		"/>
		<circle fill="#EC7404" cx="218.518" cy="165.016" r="9.731"/>
		<g>
			<g>
				<path fill="none" stroke="#FFFFFF" stroke-width="0.5" d="M223.005,170.811c0,0.312-0.255,0.567-0.566,0.567h-7.84
					c-0.312,0-0.567-0.255-0.567-0.567v-11.507c0-0.312,0.255-0.567,0.567-0.567h7.84c0.312,0,0.566,0.255,0.566,0.567V170.811z"/>
			</g>
		</g>
		<path fill="#FFFFFF" d="M218.518,163.388c0.743,0,1.342-0.601,1.342-1.342s-0.599-1.342-1.342-1.342
			c-0.74,0-1.34,0.601-1.341,1.342C217.178,162.787,217.777,163.388,218.518,163.388 M218.518,163.846
			c-1.11,0-2.009,0.899-2.009,2.01v2.102h0.93v3.357h0.824v-3.357h0.511v3.357h0.825v-3.357h0.929v-2.102
			C220.527,164.745,219.629,163.847,218.518,163.846"/>
	</g>
	<g>
		<polygon fill="#EC7404" points="230.246,100.264 233.66,100.264 232.09,112.04 		"/>
		<circle fill="#EC7404" cx="231.954" cy="91.254" r="9.731"/>
		<g>
			<g>
				<path fill="none" stroke="#FFFFFF" stroke-width="0.5" d="M236.44,97.049c0,0.312-0.255,0.567-0.566,0.567h-7.84
					c-0.312,0-0.567-0.255-0.567-0.567V85.542c0-0.312,0.255-0.567,0.567-0.567h7.84c0.312,0,0.566,0.255,0.566,0.567V97.049z"/>
			</g>
		</g>
		<path fill="#FFFFFF" d="M231.953,89.626c0.743,0,1.342-0.601,1.342-1.342s-0.599-1.342-1.342-1.342
			c-0.74,0-1.34,0.601-1.341,1.342C230.613,89.025,231.213,89.626,231.953,89.626 M231.953,90.084c-1.11,0-2.009,0.899-2.009,2.01
			v2.102h0.93v3.357h0.824v-3.357h0.511v3.357h0.825v-3.357h0.929v-2.102C233.963,90.983,233.064,90.085,231.953,90.084"/>
	</g>
	<g>
		<g>
			<polygon fill="#EC7404" stroke="#FFFFFF" stroke-width="0.5" points="464.917,-23.655 468.329,-23.615 466.622,-11.858 			"/>
			<circle fill="#EC7404" cx="466.735" cy="-32.659" r="9.731"/>
		</g>
		<path fill="#FFFFFF" d="M467.041-29.698c-0.174,1.439-1.402,2.558-2.887,2.558c-1.605,0-2.91-1.305-2.91-2.91
			c0-0.9,0.412-1.709,1.057-2.243v-1.217c-1.232,0.663-2.072,1.965-2.072,3.46c0,2.164,1.762,3.926,3.926,3.926
			c1.641,0,3.051-1.014,3.635-2.449L467.041-29.698z"/>
		<path fill="#FFFFFF" d="M470.715-28.975l-0.811,0.56l-2.08-3.488l-3.998,0.025v-0.829h2.115v-0.889h-2.115v-2.055
			c0.494-0.188,0.846-0.664,0.846-1.225c0-0.725-0.588-1.313-1.311-1.313c-0.725,0-1.314,0.589-1.314,1.313
			c0,0.576,0.373,1.064,0.889,1.24v4.621l4.395,0.005l2.275,3.813l1.594-1.033L470.715-28.975z"/>
		<polygon fill="#FFFFFF" points="465.799,-37.618 466.584,-37.618 467.131,-35.312 467.676,-37.618 468.463,-37.618
			469.01,-35.312 469.555,-37.618 470.334,-37.618 469.586,-34.445 468.643,-34.445 468.066,-36.857 467.498,-34.445
			466.553,-34.445 		"/>
		<path fill="#FFFFFF" d="M473.021-34.619c-0.148,0.077-0.307,0.135-0.471,0.176c-0.162,0.04-0.332,0.06-0.51,0.06
			c-0.527,0-0.945-0.148-1.254-0.443s-0.463-0.695-0.463-1.201c0-0.507,0.154-0.909,0.463-1.204s0.727-0.442,1.254-0.442
			c0.178,0,0.348,0.02,0.51,0.059c0.164,0.039,0.322,0.1,0.471,0.178v0.655c-0.15-0.104-0.301-0.179-0.447-0.228
			c-0.148-0.048-0.303-0.072-0.465-0.072c-0.293,0-0.521,0.094-0.689,0.281s-0.252,0.444-0.252,0.773
			c0,0.327,0.084,0.585,0.252,0.771s0.396,0.279,0.689,0.279c0.162,0,0.316-0.023,0.465-0.072c0.146-0.048,0.297-0.123,0.447-0.227
			V-34.619z"/>
	</g>
	<g>
		<g>
			<polygon fill="#EC7404" stroke="#FFFFFF" stroke-width="0.5" points="211.395,122.097 214.807,122.138 213.1,133.894 			"/>
			<circle fill="#EC7404" cx="213.213" cy="113.094" r="9.731"/>
		</g>
		<path fill="#FFFFFF" d="M213.519,116.054c-0.174,1.439-1.402,2.558-2.887,2.558c-1.605,0-2.91-1.305-2.91-2.91
			c0-0.9,0.412-1.709,1.057-2.243v-1.217c-1.232,0.663-2.072,1.965-2.072,3.46c0,2.164,1.762,3.926,3.926,3.926
			c1.641,0,3.051-1.014,3.635-2.449L213.519,116.054z"/>
		<path fill="#FFFFFF" d="M217.192,116.778l-0.811,0.56l-2.08-3.488l-3.998,0.025v-0.829h2.115v-0.889h-2.115v-2.055
			c0.494-0.188,0.846-0.664,0.846-1.225c0-0.725-0.588-1.313-1.311-1.313c-0.725,0-1.314,0.589-1.314,1.313
			c0,0.576,0.373,1.064,0.889,1.24v4.621l4.395,0.005l2.275,3.813l1.594-1.033L217.192,116.778z"/>
		<polygon fill="#FFFFFF" points="212.276,108.134 213.062,108.134 213.608,110.44 214.153,108.134 214.94,108.134 215.487,110.44
			216.032,108.134 216.812,108.134 216.063,111.307 215.12,111.307 214.544,108.895 213.976,111.307 213.03,111.307 		"/>
		<path fill="#FFFFFF" d="M219.499,111.133c-0.148,0.077-0.307,0.135-0.471,0.176c-0.162,0.04-0.332,0.06-0.51,0.06
			c-0.527,0-0.945-0.148-1.254-0.443s-0.463-0.695-0.463-1.201c0-0.507,0.154-0.909,0.463-1.204s0.727-0.442,1.254-0.442
			c0.178,0,0.348,0.02,0.51,0.059c0.164,0.039,0.322,0.1,0.471,0.178v0.655c-0.15-0.104-0.301-0.179-0.447-0.228
			c-0.148-0.048-0.303-0.072-0.465-0.072c-0.293,0-0.521,0.094-0.689,0.281s-0.252,0.444-0.252,0.773
			c0,0.327,0.084,0.585,0.252,0.771s0.396,0.279,0.689,0.279c0.162,0,0.316-0.023,0.465-0.072c0.146-0.048,0.297-0.123,0.447-0.227
			V111.133z"/>
	</g>
</g>
<g id="Ebene_2">
	<g>
		<polygon fill="#EC7404" stroke="#FFFFFF" stroke-width="0.5" points="312.837,-23.968 316.249,-23.968 314.68,-12.192 		"/>
		<circle fill="#EC7404" cx="314.543" cy="-33" r="9.731"/>
		<polygon fill="none" stroke="#FFFFFF" stroke-width="0.5" points="318.413,-35.826 314.543,-40.501 310.674,-35.826
			312.627,-35.826 312.627,-30.704 316.46,-30.704 316.46,-35.826 		"/>
		<text transform="matrix(1 0 0 1 312.875 -25.1201)" fill="#FFFFFF" font-family="'DejaVuSansCondensed-Bold'" font-size="5"></text>
	</g>
	<g>
		<polygon fill="#EC7404" stroke="#FFFFFF" stroke-width="0.5" points="338.409,-23.968 341.822,-23.968 340.252,-12.192 		"/>
		<circle fill="#EC7404" cx="340.116" cy="-33" r="9.731"/>
		<polygon fill="none" stroke="#FFFFFF" stroke-width="0.5" points="343.985,-35.826 340.115,-40.501 336.246,-35.826
			338.199,-35.826 338.199,-30.704 342.032,-30.704 342.032,-35.826 		"/>
		<rect x="338.429" y="-29.443" fill="none" width="8" height="3.833"/>
		<text transform="matrix(1 0 0 1 338.4287 -25.644)" fill="#FFFFFF" font-family="'DejaVuSansCondensed-Bold'" font-size="5">P</text>
	</g>
	<g>
		<polygon fill="#EC7404" stroke="#FFFFFF" stroke-width="0.5" points="363.981,-23.968 367.394,-23.968 365.824,-12.192 		"/>
		<circle fill="#EC7404" cx="365.688" cy="-33" r="9.731"/>
		<polygon fill="none" stroke="#FFFFFF" stroke-width="0.5" points="369.558,-35.826 365.688,-40.501 361.818,-35.826
			363.771,-35.826 363.771,-30.704 367.604,-30.704 367.604,-35.826 		"/>
		<rect x="360.819" y="-29.442" fill="none" width="8" height="3.833"/>
		<text transform="matrix(1 0 0 1 360.8193 -25.6431)" fill="#FFFFFF" font-family="'DejaVuSansCondensed-Bold'" font-size="5"> EC</text>
	</g>
	<g>
		<polygon fill="#EC7404" stroke="#FFFFFF" stroke-width="0.5" points="415.003,-23.991 418.417,-23.991 416.847,-12.215 		"/>
		<g>
			<circle fill="#EC7404" cx="416.71" cy="-33" r="9.731"/>
			<g>
				<g>
					<path fill="none" stroke="#FFFFFF" stroke-width="0.5" d="M421.197-29.081c0,0.312-0.255,0.567-0.567,0.567h-7.839
						c-0.312,0-0.567-0.255-0.567-0.567v-7.84c0-0.312,0.255-0.567,0.567-0.567h7.839c0.312,0,0.567,0.255,0.567,0.567V-29.081z"/>
				</g>
				<polygon fill="#FFFFFF" points="413.152,-32.975 415.846,-29.744 420.287,-36.475 415.608,-31.057 				"/>
			</g>
		</g>
	</g>
	<g>
		<polygon fill="#EC7404" stroke="#FFFFFF" stroke-width="0.5" points="440.863,-23.991 444.277,-23.991 442.707,-12.215 		"/>
		<circle fill="#EC7404" cx="442.571" cy="-33" r="9.731"/>
		<g>
			<g>
				<path fill="#EC7404" d="M446.946-31.146c0,0.312-0.255,0.567-0.567,0.567h-9.54c-0.312,0-0.567-0.255-0.567-0.567V-36.6
					c0-0.312,0.255-0.567,0.567-0.567h9.54c0.312,0,0.567,0.255,0.567,0.567V-31.146z"/>
				<path fill="none" stroke="#FFFFFF" stroke-width="0.5" d="M446.946-31.146c0,0.312-0.255,0.567-0.567,0.567h-9.54
					c-0.312,0-0.567-0.255-0.567-0.567V-36.6c0-0.312,0.255-0.567,0.567-0.567h9.54c0.312,0,0.567,0.255,0.567,0.567V-31.146z"/>
			</g>
			<g>
				<path fill="#EC7404" d="M448.87-29.223c0,0.312-0.255,0.567-0.567,0.567h-9.54c-0.312,0-0.567-0.255-0.567-0.567v-5.454
					c0-0.312,0.255-0.567,0.567-0.567h9.54c0.312,0,0.567,0.255,0.567,0.567V-29.223z"/>
				<path fill="none" stroke="#FFFFFF" stroke-width="0.5" d="M448.87-29.223c0,0.312-0.255,0.567-0.567,0.567h-9.54
					c-0.312,0-0.567-0.255-0.567-0.567v-5.454c0-0.312,0.255-0.567,0.567-0.567h9.54c0.312,0,0.567,0.255,0.567,0.567V-29.223z"/>
			</g>
		</g>
	</g>
	<g>
		<polygon fill="#EC7404" stroke="#FFFFFF" stroke-width="0.5" points="287.264,-23.968 290.677,-23.968 289.107,-12.192 		"/>
		<circle fill="#EC7404" cx="288.97" cy="-33" r="9.731"/>
		<g>
			<path fill="#FFFFFF" d="M285.842-31.311h6.294v-0.557h-6.294V-31.311z M285.842-29.615h6.294v-0.557h-6.294V-29.615z
				 M285.842-34.658h6.294v-0.558h-6.294V-34.658z M285.842-32.993h6.294v-0.557h-6.294V-32.993z M292.842-27.685h-7.744v-11.183
				h5.521v2.222h2.223V-27.685z M284.54-27.125 M291.178-38.797l1.594,1.592h-1.594V-38.797z M291.336-39.427h-6.796v12.301h8.86
				v-10.239L291.336-39.427z"/>
		</g>
	</g>
	<g>
		<polygon fill="#EC7404" stroke="#FFFFFF" stroke-width="0.5" points="226.542,138.257 229.956,138.257 228.386,150.033 		"/>
		<circle fill="#EC7404" cx="228.249" cy="129.224" r="9.731"/>
		<g>
			<path fill="#FFFFFF" d="M225.121,130.914h6.294v-0.557h-6.294V130.914z M225.121,132.61h6.294v-0.557h-6.294V132.61z
				 M225.121,127.567h6.294v-0.558h-6.294V127.567z M225.121,129.231h6.294v-0.557h-6.294V129.231z M232.121,134.54h-7.744v-11.183
				h5.521v2.222h2.223V134.54z M223.819,135.099 M230.457,123.427l1.594,1.592h-1.594V123.427z M230.615,122.798h-6.796v12.301h8.86
				V124.86L230.615,122.798z"/>
		</g>
	</g>
	<g>
		<polygon fill="#EC7404" stroke="#FFFFFF" stroke-width="0.5" points="261.69,-23.968 265.104,-23.968 263.533,-12.192 		"/>
		<circle fill="#EC7404" cx="263.397" cy="-33.001" r="9.731"/>
		<g>
			<g>
				<path fill="#FFFFFF" d="M268.454-33.723c-0.002-0.272-0.025-0.522-0.083-0.758c-0.046-0.183-0.114-0.358-0.217-0.517
					c-0.152-0.24-0.387-0.429-0.656-0.535c-0.269-0.108-0.564-0.149-0.898-0.149c-0.295,0-0.563,0.033-0.811,0.114
					c-0.185,0.062-0.357,0.153-0.505,0.277c-0.223,0.186-0.377,0.438-0.463,0.709c-0.086,0.264-0.118,0.55-0.119,0.862l-0.569,4.806
					h1.198v2.099h0.97v-2.099h0.6v2.099h0.97v-2.099h1.204L268.454-33.723z"/>
				<path fill="#FFFFFF" d="M260.08-36.128c0.872,0,1.576-0.707,1.576-1.577c0-0.871-0.704-1.577-1.576-1.577
					c-0.87,0-1.575,0.706-1.576,1.577C258.505-36.834,259.21-36.128,260.08-36.128 M260.08-35.59
					c-1.305,0.001-2.36,1.057-2.36,2.361v2.469h1.092v3.943h0.969v-3.943h0.6v3.943h0.97v-3.943h1.091v-2.469
					C262.44-34.534,261.385-35.589,260.08-35.59"/>
			</g>
			<circle fill="#FFFFFF" cx="266.494" cy="-37.707" r="1.584"/>
		</g>
	</g>
	<g>
		<polygon fill="#EC7404" stroke="#FFFFFF" stroke-width="0.5" points="389.554,-23.968 392.967,-23.968 391.397,-12.192 		"/>
		<circle fill="#EC7404" cx="391.26" cy="-33" r="9.731"/>
		<text transform="matrix(1 0 0 1 389.5 -25.1201)" fill="#FFFFFF" font-family="'DejaVuSansCondensed-Bold'" font-size="5"></text>
		<polygon fill="none" stroke="#FFFFFF" stroke-width="0.5" points="387.342,-35.379 391.212,-30.704 395.081,-35.379
			393.128,-35.379 393.128,-40.501 389.295,-40.501 389.295,-35.379 		"/>
	</g>
	<g>
		<polygon fill="#EC7404" stroke="#FFFFFF" stroke-width="0.5" points="188.781,112.739 192.194,112.739 190.624,124.515 		"/>
		<circle fill="#EC7404" cx="190.488" cy="103.706" r="9.731"/>
		<g>
			<g>
				<path fill="#FFFFFF" d="M195.545,102.984c-0.002-0.272-0.025-0.522-0.083-0.758c-0.046-0.183-0.114-0.358-0.217-0.517
					c-0.152-0.24-0.387-0.429-0.656-0.535c-0.269-0.108-0.564-0.149-0.898-0.149c-0.295,0-0.563,0.033-0.811,0.114
					c-0.185,0.062-0.357,0.153-0.505,0.277c-0.223,0.186-0.377,0.438-0.463,0.709c-0.086,0.264-0.118,0.55-0.119,0.862l-0.569,4.806
					h1.198v2.099h0.97v-2.099h0.6v2.099h0.97v-2.099h1.204L195.545,102.984z"/>
				<path fill="#FFFFFF" d="M187.171,100.579c0.872,0,1.576-0.707,1.576-1.577c0-0.871-0.704-1.577-1.576-1.577
					c-0.87,0-1.575,0.706-1.576,1.577C185.596,99.873,186.301,100.579,187.171,100.579 M187.171,101.117
					c-1.305,0.001-2.36,1.057-2.36,2.361v2.469h1.092v3.943h0.969v-3.943h0.6v3.943h0.97v-3.943h1.091v-2.469
					C189.531,102.173,188.476,101.118,187.171,101.117"/>
			</g>
			<circle fill="#FFFFFF" cx="193.584" cy="99" r="1.584"/>
		</g>
	</g>
	<g>
		<polygon fill="#EC7404" stroke="#FFFFFF" stroke-width="0.5" points="389.06,228.602 392.473,228.602 390.902,240.377 		"/>
		<circle fill="#EC7404" cx="390.767" cy="219.568" r="9.731"/>
		<g>
			<g>
				<path fill="#FFFFFF" d="M395.823,218.846c-0.002-0.271-0.025-0.521-0.083-0.758c-0.046-0.183-0.114-0.357-0.217-0.516
					c-0.152-0.24-0.387-0.43-0.656-0.535c-0.269-0.109-0.564-0.149-0.898-0.15c-0.295,0-0.563,0.033-0.811,0.114
					c-0.185,0.062-0.357,0.153-0.505,0.276c-0.223,0.186-0.377,0.438-0.463,0.709c-0.086,0.265-0.118,0.551-0.119,0.862
					l-0.569,4.806h1.198v2.1h0.97v-2.1h0.6v2.1h0.97v-2.1h1.204L395.823,218.846z"/>
				<path fill="#FFFFFF" d="M387.449,216.441c0.872,0,1.576-0.707,1.576-1.576c0-0.871-0.704-1.577-1.576-1.577
					c-0.87,0-1.575,0.706-1.576,1.577C385.874,215.734,386.579,216.441,387.449,216.441 M387.449,216.979
					c-1.305,0.002-2.36,1.057-2.36,2.361v2.469h1.092v3.943h0.969v-3.943h0.6v3.943h0.97v-3.943h1.091v-2.469
					C389.81,218.035,388.754,216.98,387.449,216.979"/>
			</g>
			<circle fill="#FFFFFF" cx="393.863" cy="214.862" r="1.584"/>
		</g>
	</g>
	<g>
		<polygon fill="#EC7404" points="241.988,122.121 245.4,122.121 243.831,133.896 		"/>
		<circle fill="#EC7404" cx="243.694" cy="113.088" r="9.731"/>
		<polygon fill="none" stroke="#FFFFFF" stroke-width="0.5" points="247.564,110.262 243.694,105.587 239.825,110.262
			241.778,110.262 241.778,115.384 245.611,115.384 245.611,110.262 		"/>
		<text transform="matrix(1 0 0 1 242.0259 120.9688)" fill="#FFFFFF" font-family="'DejaVuSansCondensed-Bold'" font-size="5"></text>
	</g>
	<g>
		<polygon fill="#EC7404" points="190.159,159.032 193.572,159.032 192.002,168.808 		"/>
		<circle fill="#EC7404" cx="191.866" cy="150" r="9.731"/>
		<polygon fill="none" stroke="#FFFFFF" stroke-width="0.5" points="195.735,147.174 191.865,142.499 187.996,147.174
			189.949,147.174 189.949,152.296 193.782,152.296 193.782,147.174 		"/>
		<rect x="190.179" y="153.557" fill="none" width="8" height="3.833"/>
		<text transform="matrix(1 0 0 1 190.1787 157.356)" fill="#FFFFFF" font-family="'DejaVuSansCondensed-Bold'" font-size="5">P</text>
	</g>
	<g>
		<polygon fill="#EC7404" points="171.253,148.259 174.667,148.259 173.097,158.035 		"/>
		<g>
			<circle fill="#EC7404" cx="172.96" cy="139.25" r="9.731"/>
			<g>
				<g>
					<path fill="none" stroke="#FFFFFF" stroke-width="0.5" d="M177.447,143.169c0,0.312-0.255,0.567-0.567,0.567h-7.84
						c-0.312,0-0.567-0.255-0.567-0.567v-7.84c0-0.312,0.255-0.567,0.567-0.567h7.84c0.312,0,0.567,0.255,0.567,0.567V143.169z"/>
				</g>
				<polygon fill="#FFFFFF" points="169.402,139.275 172.096,142.506 176.537,135.775 171.858,141.193 				"/>
			</g>
		</g>
	</g>
</g>
</svg>
