<?xml version="1.0" encoding="utf-8"?>
<!-- Generator: Adobe Illustrator 16.0.0, SVG Export Plug-In . SVG Version: 6.00 Build 0)  -->
<!DOCTYPE svg PUBLIC "-//W3C//DTD SVG 1.1//EN" "http://www.w3.org/Graphics/SVG/1.1/DTD/svg11.dtd">
<svg version="1.1" id="Ebene_1" xmlns="http://www.w3.org/2000/svg" xmlns:xlink="http://www.w3.org/1999/xlink" x="0px" y="0px"
	 width="595.275px" height="419.527px" viewBox="0 0 595.275 419.527" enable-background="new 0 0 595.275 419.527"
	 xml:space="preserve">
<g>
	<g>
		<g enable-background="new    ">
			<defs>
				<polygon id="SVGID_1_" enable-background="new    " points="135.807,153.297 142.631,149.331 149.501,153.297 142.676,157.263
									"/>
			</defs>
			<clipPath id="SVGID_2_">
				<use xlink:href="#SVGID_1_"  overflow="visible"/>
			</clipPath>
			<g clip-path="url(#SVGID_2_)">
				<g>
					<g>
						<g>
							<polyline fill="#FFFFFF" points="149.501,153.297 147.771,152.298 146.072,153.286 144.36,152.298 142.66,153.286
								140.949,152.298 139.249,153.286 137.532,152.294 135.807,153.297 139.254,155.288 142.676,157.263 149.501,153.297
								"/>
						</g>
					</g>
				</g>
			</g>
		</g>
	</g>
</g>
<g>
	<defs>
		<rect id="SVGID_3_" x="59.528" y="46.453" width="476.22" height="335.621"/>
	</defs>
	<clipPath id="SVGID_4_">
		<use xlink:href="#SVGID_3_"  overflow="visible"/>
	</clipPath>
	<g clip-path="url(#SVGID_4_)" enable-background="new    ">
		<g>
			<g>
				<defs>
					<polygon id="SVGID_5_" points="134.907,152.903 179.172,127.178 419.281,265.805 375.016,291.529 					"/>
				</defs>
				<clipPath id="SVGID_6_">
					<use xlink:href="#SVGID_5_"  overflow="visible"/>
				</clipPath>
				<path clip-path="url(#SVGID_6_)" fill="#BED5E5" d="M175.538,143.61c-0.415-0.239-0.741-0.387-0.985-0.439
					c-0.25-0.056-0.464-0.026-0.646,0.08c-0.183,0.105-0.228,0.227-0.135,0.374c0.092,0.142,0.342,0.333,0.756,0.572
					c0.419,0.242,0.75,0.387,1.001,0.442c0.25,0.05,0.463,0.026,0.646-0.08c0.183-0.107,0.223-0.23,0.13-0.372
					C176.212,144.04,175.956,143.852,175.538,143.61 M163.81,150.431c0.344,0.198,0.695,0.301,1.071,0.312
					c0.367,0.012,0.703-0.071,1.003-0.245c0.167-0.097,0.304-0.207,0.404-0.324c0.102-0.118,0.182-0.253,0.232-0.407l0.685,0.396
					c-0.076,0.139-0.178,0.269-0.304,0.39c-0.127,0.121-0.283,0.235-0.467,0.342c-0.548,0.319-1.138,0.484-1.764,0.492
					c-0.631,0.006-1.208-0.145-1.733-0.449c-0.531-0.306-0.788-0.636-0.78-1.002c0.014-0.362,0.297-0.704,0.845-1.023
					c0.183-0.106,0.381-0.198,0.588-0.271c0.208-0.073,0.432-0.133,0.671-0.176l0.684,0.395c-0.264,0.029-0.503,0.074-0.701,0.135
					c-0.203,0.059-0.391,0.139-0.559,0.236c-0.299,0.174-0.441,0.369-0.419,0.582C163.284,150.027,163.468,150.234,163.81,150.431
					 M167.854,147.927c0.279-0.098,0.549-0.136,0.809-0.121c0.254,0.018,0.495,0.086,0.714,0.212
					c0.331,0.192,0.45,0.407,0.375,0.652c-0.08,0.242-0.359,0.504-0.836,0.782c-0.173,0.1-0.355,0.188-0.548,0.271
					c-0.198,0.086-0.406,0.159-0.63,0.224l-0.659-0.38c0.244-0.048,0.458-0.106,0.656-0.174c0.192-0.065,0.371-0.144,0.518-0.229
					c0.228-0.133,0.365-0.254,0.4-0.369c0.044-0.115-0.007-0.215-0.155-0.301s-0.326-0.118-0.529-0.089
					c-0.199,0.027-0.417,0.106-0.662,0.248l-0.334,0.194l-0.546-0.315l0.355-0.207c0.213-0.124,0.335-0.236,0.375-0.337
					c0.034-0.097-0.017-0.186-0.154-0.265c-0.128-0.074-0.276-0.101-0.448-0.083c-0.168,0.021-0.347,0.083-0.53,0.19
					c-0.136,0.079-0.258,0.168-0.37,0.268c-0.106,0.097-0.202,0.206-0.278,0.321l-0.628-0.363c0.122-0.124,0.253-0.241,0.395-0.348
					c0.143-0.112,0.294-0.212,0.451-0.304c0.427-0.247,0.812-0.395,1.169-0.436c0.356-0.041,0.672,0.018,0.958,0.183
					c0.195,0.112,0.302,0.233,0.323,0.363C168.065,147.644,168.001,147.783,167.854,147.927 M170.139,147.67l0.796-0.462
					l0.858,0.495l-0.797,0.463L170.139,147.67 M172.794,146.4l1.446-0.84l0.623,0.359l-2.39,1.39l-0.623-0.36l0.135-1.315
					c0.009-0.118-0.012-0.218-0.047-0.304c-0.042-0.083-0.114-0.153-0.215-0.212c-0.153-0.088-0.332-0.133-0.53-0.124
					c-0.199,0.003-0.382,0.056-0.554,0.157c-0.132,0.076-0.253,0.177-0.35,0.303c-0.101,0.125-0.187,0.269-0.253,0.437l-0.725-0.419
					c0.126-0.15,0.268-0.285,0.415-0.413c0.157-0.126,0.325-0.242,0.507-0.348c0.39-0.227,0.781-0.354,1.173-0.38
					c0.392-0.027,0.749,0.05,1.061,0.23c0.178,0.104,0.302,0.227,0.357,0.372c0.067,0.145,0.084,0.377,0.045,0.702L172.794,146.4
					 M173.686,144.692c-0.552-0.318-0.859-0.631-0.917-0.94c-0.063-0.307,0.124-0.586,0.555-0.837
					c0.431-0.251,0.915-0.361,1.444-0.325c0.529,0.035,1.075,0.21,1.627,0.528c0.546,0.315,0.848,0.631,0.916,0.94
					c0.063,0.307-0.123,0.587-0.555,0.838c-0.431,0.25-0.915,0.359-1.444,0.324C174.773,145.185,174.232,145.007,173.686,144.692
					 M203.173,141.035l-24-13.856l-44.266,25.724l24,13.857L203.173,141.035"/>
				<path clip-path="url(#SVGID_6_)" id="C3.15" fill="#CFD1D2" d="M252.344,183.697c0.302,0.174,0.607,0.269,0.928,0.278
					s0.616-0.062,0.88-0.215c0.147-0.085,0.269-0.18,0.359-0.286c0.092-0.101,0.157-0.222,0.203-0.354l0.597,0.345
					c-0.066,0.121-0.157,0.233-0.269,0.339c-0.111,0.106-0.248,0.209-0.404,0.301c-0.482,0.28-0.996,0.425-1.546,0.431
					c-0.55,0.006-1.054-0.122-1.519-0.39c-0.465-0.268-0.686-0.56-0.677-0.879c0.008-0.318,0.256-0.616,0.739-0.896
					c0.157-0.091,0.33-0.174,0.512-0.239c0.183-0.065,0.382-0.115,0.591-0.153l0.598,0.345c-0.229,0.026-0.438,0.065-0.611,0.118
					c-0.183,0.054-0.346,0.124-0.492,0.209c-0.264,0.153-0.391,0.322-0.369,0.511C251.878,183.347,252.042,183.524,252.344,183.697
					 M255.875,181.51c0.249-0.085,0.483-0.122,0.708-0.104c0.224,0.012,0.433,0.074,0.627,0.187
					c0.286,0.165,0.398,0.354,0.329,0.566c-0.069,0.211-0.312,0.441-0.733,0.686c-0.148,0.086-0.305,0.166-0.478,0.236
					c-0.173,0.071-0.355,0.136-0.549,0.195l-0.578-0.334c0.208-0.039,0.402-0.091,0.574-0.15c0.173-0.059,0.321-0.127,0.452-0.203
					c0.198-0.115,0.32-0.222,0.35-0.322c0.04-0.101-0.005-0.186-0.134-0.26c-0.133-0.077-0.286-0.106-0.464-0.079
					c-0.173,0.023-0.365,0.094-0.574,0.215l-0.3,0.173l-0.48-0.277l0.314-0.182c0.188-0.11,0.294-0.208,0.33-0.293
					c0.03-0.088-0.011-0.165-0.134-0.236c-0.113-0.065-0.245-0.088-0.393-0.074c-0.147,0.021-0.305,0.077-0.462,0.169
					c-0.122,0.07-0.233,0.147-0.324,0.235c-0.096,0.086-0.178,0.18-0.248,0.281l-0.546-0.316c0.106-0.109,0.223-0.212,0.344-0.307
					c0.127-0.098,0.253-0.183,0.396-0.266c0.37-0.215,0.716-0.344,1.021-0.381c0.312-0.038,0.592,0.019,0.836,0.16
					c0.169,0.098,0.261,0.204,0.287,0.319C256.062,181.265,256.012,181.383,255.875,181.51 M257.88,181.285l0.695-0.404l0.75,0.434
					l-0.695,0.404L257.88,181.285 M257.298,179.298l0.532-0.469l0.706-0.411l2.38,1.375l0.654-0.381l0.516,0.298l-2.015,1.17
					l-0.516-0.298l0.654-0.381l-1.869-1.079l-0.532,0.469L257.298,179.298 M260.899,177.679l0.449,0.259
					c0.041-0.041,0.086-0.079,0.137-0.121c0.051-0.035,0.105-0.074,0.167-0.109c0.35-0.204,0.711-0.312,1.083-0.322
					c0.371-0.014,0.713,0.072,1.029,0.254c0.312,0.18,0.451,0.383,0.416,0.61s-0.242,0.448-0.623,0.669
					c-0.163,0.095-0.34,0.18-0.528,0.254c-0.193,0.076-0.402,0.138-0.625,0.191l-0.588-0.338c0.25-0.038,0.463-0.085,0.651-0.142
					c0.188-0.056,0.34-0.122,0.462-0.192c0.183-0.106,0.283-0.213,0.298-0.322c0.01-0.112-0.053-0.212-0.206-0.301
					c-0.153-0.088-0.326-0.124-0.52-0.118c-0.188,0.009-0.371,0.068-0.554,0.174c-0.106,0.062-0.208,0.133-0.299,0.221
					c-0.097,0.086-0.178,0.187-0.264,0.302l-1.629-0.941l1.847-1.074l0.546,0.315L260.899,177.679 M270.222,179.746l-11.65-6.727
					l-14.874,8.644l11.651,6.727L270.222,179.746"/>
				<path clip-path="url(#SVGID_6_)" id="C3.14" fill="#CFD1D2" d="M268.519,190.015l-1.385-0.799l0.456,1.338L268.519,190.015
					 M256.768,196.346c0.342,0.198,0.694,0.301,1.071,0.313c0.367,0.012,0.703-0.071,1.002-0.245c0.172-0.1,0.304-0.206,0.405-0.324
					c0.102-0.119,0.182-0.254,0.232-0.407l0.684,0.395c-0.075,0.139-0.176,0.268-0.302,0.389c-0.127,0.121-0.284,0.236-0.466,0.343
					c-0.549,0.318-1.138,0.484-1.77,0.489c-0.626,0.009-1.203-0.141-1.728-0.445c-0.531-0.307-0.793-0.639-0.78-1.002
					c0.014-0.363,0.297-0.705,0.845-1.023c0.184-0.107,0.381-0.198,0.589-0.271c0.209-0.074,0.432-0.133,0.671-0.177l0.685,0.395
					c-0.265,0.029-0.504,0.073-0.708,0.133c-0.199,0.062-0.381,0.139-0.554,0.239c-0.299,0.173-0.441,0.369-0.419,0.582
					C256.241,195.942,256.426,196.148,256.768,196.346 M260.812,193.843c0.28-0.098,0.549-0.136,0.809-0.122
					c0.255,0.019,0.494,0.086,0.714,0.213c0.332,0.192,0.45,0.408,0.375,0.651c-0.081,0.243-0.359,0.505-0.835,0.782
					c-0.173,0.101-0.356,0.188-0.549,0.272c-0.198,0.085-0.407,0.158-0.625,0.221l-0.658-0.38c0.234-0.048,0.451-0.103,0.65-0.171
					c0.193-0.064,0.371-0.145,0.522-0.232c0.223-0.13,0.355-0.255,0.395-0.367c0.046-0.114-0.006-0.214-0.154-0.301
					c-0.148-0.084-0.326-0.118-0.529-0.088c-0.199,0.027-0.417,0.107-0.661,0.248l-0.335,0.195l-0.547-0.316l0.355-0.207
					c0.213-0.124,0.335-0.236,0.375-0.336c0.035-0.097-0.011-0.188-0.149-0.268c-0.127-0.074-0.275-0.101-0.448-0.083
					c-0.168,0.021-0.351,0.086-0.533,0.192c-0.137,0.08-0.258,0.168-0.371,0.269c-0.106,0.097-0.198,0.203-0.278,0.321l-0.628-0.362
					c0.122-0.124,0.253-0.242,0.395-0.348c0.143-0.112,0.294-0.212,0.451-0.305c0.427-0.247,0.813-0.395,1.169-0.437
					c0.356-0.041,0.672,0.019,0.958,0.183c0.195,0.112,0.302,0.233,0.323,0.363C261.024,193.56,260.958,193.698,260.812,193.843
					 M263.101,193.583l0.792-0.46l0.857,0.495l-0.791,0.461L263.101,193.583 M262.437,191.318l0.603-0.539l0.807-0.469l2.722,1.571
					l0.746-0.434l0.587,0.339l-2.298,1.336l-0.587-0.339l0.751-0.437l-2.14-1.235l-0.614,0.54L262.437,191.318 M266.95,190.796
					l-0.662-1.905l0.944-0.549l2.089,1.206l0.467-0.271l0.618,0.357l-0.467,0.271l0.603,0.348l-0.802,0.466l-0.604-0.348
					l-1.456,0.847L266.95,190.796 M281.511,186.263l-8.771-5.063l-28.829,16.752l8.771,5.064L281.511,186.263"/>
				<polygon clip-path="url(#SVGID_6_)" fill="#EC7404" points="232.139,157.759 205.44,142.344 190.567,150.988 217.266,166.403
									"/>
				<polygon clip-path="url(#SVGID_6_)" fill="#EC7404" points="419.281,265.805 394.595,251.552 379.722,260.197 404.407,274.449
									"/>
				<path clip-path="url(#SVGID_6_)" fill="#FFFFFF" d="M167.205,150.163l-0.685-0.396c-0.05,0.154-0.13,0.289-0.232,0.408
					c-0.1,0.118-0.238,0.226-0.405,0.324c-0.299,0.175-0.635,0.257-1.002,0.245c-0.376-0.012-0.728-0.115-1.071-0.313
					c-0.342-0.198-0.526-0.403-0.543-0.619c-0.022-0.213,0.12-0.407,0.42-0.582c0.167-0.098,0.355-0.177,0.558-0.236
					c0.198-0.062,0.438-0.106,0.703-0.135l-0.685-0.396c-0.238,0.045-0.462,0.103-0.671,0.178c-0.208,0.073-0.405,0.165-0.588,0.271
					c-0.549,0.318-0.832,0.661-0.846,1.023c-0.007,0.366,0.249,0.696,0.78,1.003c0.526,0.304,1.103,0.454,1.733,0.448
					c0.627-0.008,1.216-0.173,1.764-0.492c0.183-0.107,0.339-0.221,0.466-0.342C167.028,150.431,167.128,150.301,167.205,150.163"/>
				<path clip-path="url(#SVGID_6_)" fill="#FFFFFF" d="M169.377,148.019c-0.22-0.126-0.46-0.195-0.714-0.212
					c-0.26-0.015-0.53,0.023-0.809,0.121c0.147-0.145,0.211-0.283,0.191-0.413c-0.021-0.13-0.129-0.25-0.323-0.363
					c-0.286-0.166-0.602-0.224-0.958-0.183c-0.356,0.041-0.742,0.189-1.169,0.436c-0.157,0.092-0.309,0.192-0.451,0.304
					c-0.143,0.106-0.273,0.224-0.395,0.348l0.628,0.363c0.076-0.115,0.172-0.225,0.278-0.321c0.111-0.1,0.234-0.189,0.371-0.268
					c0.182-0.106,0.361-0.169,0.529-0.19c0.172-0.018,0.321,0.01,0.448,0.083c0.138,0.079,0.19,0.168,0.155,0.265
					c-0.041,0.101-0.163,0.213-0.375,0.337l-0.355,0.207l0.546,0.315l0.335-0.194c0.243-0.142,0.461-0.221,0.661-0.248
					c0.204-0.029,0.382,0.003,0.53,0.089c0.148,0.086,0.199,0.186,0.154,0.301c-0.035,0.115-0.172,0.236-0.4,0.369
					c-0.147,0.085-0.326,0.165-0.519,0.229c-0.197,0.068-0.411,0.126-0.656,0.174l0.659,0.38c0.224-0.065,0.432-0.138,0.63-0.224
					c0.193-0.083,0.375-0.171,0.548-0.271c0.478-0.278,0.756-0.54,0.836-0.782C169.827,148.425,169.709,148.21,169.377,148.019"/>
				<polygon clip-path="url(#SVGID_6_)" fill="#FFFFFF" points="171.793,147.703 170.935,147.208 170.139,147.67 170.996,148.167
									"/>
				<path clip-path="url(#SVGID_6_)" fill="#FFFFFF" d="M174.863,145.919l-0.623-0.36l-1.446,0.841l0.076-0.767
					c0.04-0.325,0.023-0.558-0.043-0.702c-0.057-0.145-0.18-0.268-0.359-0.371c-0.312-0.18-0.668-0.257-1.06-0.23
					c-0.393,0.026-0.784,0.153-1.175,0.381c-0.182,0.106-0.35,0.221-0.507,0.348c-0.146,0.127-0.289,0.262-0.415,0.413l0.725,0.418
					c0.065-0.168,0.152-0.312,0.252-0.437c0.096-0.126,0.218-0.227,0.35-0.303c0.173-0.1,0.355-0.153,0.555-0.156
					c0.199-0.009,0.376,0.035,0.529,0.124c0.103,0.059,0.174,0.13,0.215,0.212c0.036,0.085,0.057,0.186,0.047,0.304l-0.135,1.315
					l0.623,0.359L174.863,145.919"/>
				<path clip-path="url(#SVGID_6_)" fill="#FFFFFF" d="M174.528,144.197c-0.415-0.238-0.665-0.431-0.757-0.572
					c-0.093-0.147-0.047-0.268,0.135-0.375c0.182-0.106,0.396-0.135,0.646-0.08c0.244,0.054,0.571,0.201,0.985,0.44
					c0.418,0.241,0.674,0.43,0.766,0.577c0.093,0.142,0.053,0.266-0.129,0.373c-0.183,0.106-0.397,0.129-0.646,0.079
					C175.278,144.583,174.946,144.439,174.528,144.197 M176.396,143.117c-0.552-0.318-1.098-0.492-1.627-0.528
					c-0.529-0.035-1.013,0.074-1.444,0.325s-0.618,0.531-0.556,0.837c0.058,0.311,0.365,0.622,0.917,0.942
					c0.546,0.314,1.087,0.492,1.626,0.527c0.53,0.035,1.014-0.074,1.444-0.324c0.432-0.25,0.618-0.531,0.555-0.838
					C177.244,143.749,176.942,143.433,176.396,143.117"/>
				<path clip-path="url(#SVGID_6_)" fill="#FFFFFF" d="M260.162,196.078l-0.684-0.396c-0.05,0.154-0.131,0.29-0.233,0.407
					c-0.1,0.119-0.232,0.224-0.404,0.324c-0.299,0.174-0.635,0.257-1.002,0.246c-0.377-0.013-0.729-0.115-1.071-0.314
					c-0.341-0.197-0.526-0.403-0.543-0.618c-0.021-0.213,0.121-0.407,0.42-0.582c0.172-0.1,0.355-0.177,0.553-0.238
					c0.204-0.06,0.442-0.103,0.708-0.133l-0.684-0.396c-0.239,0.045-0.463,0.103-0.671,0.177c-0.208,0.073-0.406,0.166-0.589,0.271
					c-0.549,0.318-0.831,0.661-0.845,1.023c-0.013,0.363,0.248,0.696,0.78,1.003c0.526,0.303,1.102,0.455,1.729,0.445
					c0.631-0.006,1.221-0.17,1.769-0.489c0.183-0.106,0.34-0.222,0.466-0.343C259.985,196.345,260.086,196.216,260.162,196.078"/>
				<path clip-path="url(#SVGID_6_)" fill="#FFFFFF" d="M262.334,193.934c-0.219-0.127-0.459-0.194-0.714-0.213
					c-0.259-0.014-0.529,0.024-0.808,0.122c0.146-0.145,0.212-0.283,0.19-0.413c-0.021-0.129-0.129-0.251-0.322-0.363
					c-0.287-0.165-0.602-0.224-0.958-0.183c-0.356,0.042-0.742,0.189-1.169,0.437c-0.157,0.092-0.309,0.192-0.451,0.304
					c-0.142,0.106-0.272,0.224-0.396,0.348l0.628,0.362c0.082-0.118,0.172-0.224,0.279-0.321c0.111-0.101,0.233-0.189,0.37-0.269
					c0.183-0.107,0.365-0.171,0.533-0.192c0.173-0.018,0.321,0.01,0.449,0.083c0.137,0.079,0.184,0.17,0.148,0.268
					c-0.04,0.1-0.162,0.213-0.375,0.336l-0.355,0.207l0.547,0.316l0.334-0.195c0.244-0.141,0.462-0.221,0.661-0.248
					c0.203-0.029,0.381,0.003,0.529,0.088c0.148,0.087,0.2,0.187,0.154,0.301c-0.04,0.112-0.172,0.237-0.395,0.367
					c-0.152,0.088-0.33,0.168-0.523,0.232c-0.198,0.068-0.417,0.124-0.651,0.171l0.659,0.38c0.218-0.062,0.427-0.136,0.625-0.221
					c0.193-0.083,0.376-0.171,0.549-0.271c0.477-0.278,0.756-0.54,0.835-0.782C262.785,194.341,262.667,194.126,262.334,193.934"/>
				<polygon clip-path="url(#SVGID_6_)" fill="#FFFFFF" points="264.751,193.618 263.892,193.123 263.101,193.583 263.958,194.078
									"/>
				<polygon clip-path="url(#SVGID_6_)" fill="#FFFFFF" points="267.902,191.787 267.315,191.448 266.568,191.881 263.847,190.309
					263.04,190.779 262.437,191.318 263.014,191.652 263.627,191.111 265.768,192.347 265.017,192.784 265.603,193.123 				"/>
				<path clip-path="url(#SVGID_6_)" fill="#FFFFFF" d="M267.59,190.554l-0.456-1.338l1.385,0.799L267.59,190.554z M270.405,189.634
					l-0.618-0.357l-0.467,0.271l-2.089-1.205l-0.944,0.547l0.663,1.905l0.73,0.421l1.456-0.847l0.603,0.348l0.801-0.465
					l-0.602-0.348L270.405,189.634"/>
				<path clip-path="url(#SVGID_6_)" fill="#FFFFFF" d="M255.311,183.465l-0.598-0.345c-0.046,0.132-0.111,0.254-0.203,0.354
					c-0.09,0.106-0.212,0.201-0.359,0.286c-0.264,0.153-0.558,0.224-0.879,0.215c-0.321-0.01-0.626-0.104-0.927-0.278
					c-0.302-0.173-0.467-0.351-0.482-0.537c-0.021-0.189,0.105-0.357,0.369-0.511c0.147-0.084,0.311-0.156,0.493-0.208
					c0.173-0.053,0.382-0.092,0.61-0.118l-0.597-0.345c-0.209,0.039-0.408,0.088-0.591,0.154c-0.182,0.064-0.354,0.147-0.512,0.238
					c-0.482,0.281-0.73,0.578-0.738,0.896s0.212,0.611,0.677,0.879c0.465,0.268,0.969,0.395,1.519,0.389
					c0.55-0.005,1.063-0.15,1.546-0.43c0.156-0.091,0.293-0.194,0.405-0.301C255.154,183.698,255.245,183.585,255.311,183.465"/>
				<path clip-path="url(#SVGID_6_)" fill="#FFFFFF" d="M257.209,181.592c-0.195-0.112-0.403-0.174-0.627-0.186
					c-0.224-0.018-0.458,0.018-0.707,0.103c0.137-0.127,0.187-0.245,0.171-0.36c-0.026-0.115-0.118-0.221-0.287-0.318
					c-0.245-0.142-0.524-0.198-0.835-0.159c-0.306,0.035-0.651,0.165-1.021,0.381c-0.143,0.083-0.269,0.168-0.396,0.265
					c-0.122,0.094-0.238,0.197-0.345,0.307l0.546,0.315c0.07-0.1,0.152-0.195,0.248-0.281c0.091-0.088,0.203-0.165,0.324-0.235
					c0.158-0.091,0.315-0.147,0.463-0.168c0.148-0.015,0.281,0.009,0.393,0.073c0.123,0.07,0.164,0.147,0.134,0.236
					c-0.035,0.085-0.142,0.182-0.329,0.292l-0.315,0.183l0.48,0.277l0.3-0.174c0.208-0.121,0.401-0.191,0.574-0.215
					c0.178-0.026,0.331,0.003,0.464,0.08c0.128,0.073,0.173,0.159,0.134,0.259c-0.03,0.1-0.151,0.207-0.35,0.322
					c-0.131,0.076-0.279,0.144-0.451,0.203c-0.173,0.059-0.367,0.112-0.575,0.15l0.578,0.333c0.193-0.06,0.376-0.124,0.549-0.195
					s0.33-0.151,0.478-0.236c0.421-0.244,0.664-0.475,0.733-0.687C257.608,181.946,257.496,181.758,257.209,181.592"/>
				<polygon clip-path="url(#SVGID_6_)" fill="#FFFFFF" points="259.326,181.315 258.575,180.881 257.879,181.285 258.63,181.719
									"/>
				<polygon clip-path="url(#SVGID_6_)" fill="#FFFFFF" points="262.086,179.71 261.57,179.413 260.916,179.794 258.536,178.419
					257.831,178.829 257.298,179.298 257.809,179.593 258.341,179.125 260.21,180.204 259.556,180.583 260.072,180.881 				"/>
				<path clip-path="url(#SVGID_6_)" fill="#FFFFFF" d="M263.765,177.641c-0.317-0.183-0.658-0.268-1.03-0.253
					c-0.371,0.009-0.732,0.118-1.083,0.321c-0.061,0.036-0.117,0.075-0.167,0.11c-0.051,0.041-0.097,0.08-0.138,0.121l-0.449-0.259
					l1.252-0.729l-0.545-0.315l-1.848,1.073l1.629,0.941c0.086-0.115,0.166-0.215,0.263-0.302c0.091-0.088,0.193-0.158,0.299-0.221
					c0.182-0.105,0.365-0.165,0.553-0.173c0.194-0.007,0.367,0.03,0.521,0.118c0.153,0.088,0.215,0.188,0.206,0.301
					c-0.016,0.108-0.115,0.215-0.299,0.321c-0.121,0.07-0.274,0.135-0.462,0.192c-0.188,0.055-0.401,0.103-0.651,0.141l0.588,0.339
					c0.223-0.053,0.432-0.115,0.625-0.191c0.188-0.073,0.365-0.159,0.528-0.253c0.38-0.222,0.588-0.443,0.623-0.669
					C264.215,178.024,264.077,177.821,263.765,177.641"/>
				<path clip-path="url(#SVGID_6_)" id="C3.13" fill="#CFD1D2" d="M266.646,202.049c0.342,0.198,0.699,0.304,1.07,0.313
					c0.367,0.012,0.702-0.07,1.001-0.245c0.173-0.1,0.305-0.206,0.406-0.324c0.102-0.118,0.182-0.253,0.232-0.407l0.685,0.395
					c-0.075,0.139-0.177,0.268-0.304,0.389c-0.125,0.122-0.283,0.236-0.466,0.342c-0.547,0.318-1.138,0.483-1.763,0.493
					c-0.631,0.005-1.203-0.143-1.733-0.449c-0.526-0.303-0.789-0.637-0.779-1.002c0.013-0.363,0.296-0.705,0.844-1.023
					c0.182-0.106,0.381-0.198,0.589-0.271c0.208-0.073,0.432-0.133,0.672-0.178l0.684,0.396c-0.265,0.029-0.499,0.076-0.702,0.135
					c-0.204,0.06-0.386,0.136-0.559,0.236c-0.299,0.174-0.441,0.369-0.419,0.581C266.12,201.645,266.304,201.851,266.646,202.049
					 M270.69,199.545c0.28-0.097,0.549-0.135,0.809-0.12c0.254,0.018,0.495,0.085,0.719,0.215c0.327,0.188,0.45,0.406,0.37,0.649
					c-0.08,0.242-0.358,0.504-0.835,0.781c-0.173,0.101-0.356,0.189-0.549,0.272c-0.199,0.085-0.406,0.159-0.625,0.221l-0.659-0.381
					c0.239-0.043,0.458-0.1,0.656-0.168c0.188-0.067,0.366-0.147,0.518-0.236c0.223-0.13,0.36-0.25,0.395-0.366
					c0.045-0.115-0.006-0.215-0.154-0.301c-0.148-0.084-0.321-0.115-0.531-0.088c-0.198,0.026-0.411,0.109-0.654,0.25l-0.335,0.194
					l-0.551-0.318l0.354-0.206c0.213-0.124,0.335-0.236,0.375-0.337c0.035-0.097-0.012-0.189-0.15-0.268
					c-0.127-0.074-0.275-0.101-0.448-0.082c-0.168,0.021-0.351,0.084-0.534,0.191c-0.137,0.079-0.259,0.168-0.371,0.268
					c-0.106,0.098-0.197,0.204-0.277,0.322l-0.624-0.36c0.116-0.126,0.249-0.245,0.39-0.35c0.143-0.112,0.294-0.213,0.452-0.304
					c0.426-0.247,0.817-0.392,1.168-0.436c0.356-0.042,0.678,0.021,0.958,0.183c0.193,0.112,0.302,0.233,0.322,0.362
					C270.901,199.263,270.837,199.401,270.69,199.545 M272.985,199.289l0.792-0.46l0.857,0.495l-0.791,0.46L272.985,199.289
					 M272.315,197.021l0.607-0.537l0.807-0.469l2.718,1.569l0.746-0.434l0.593,0.343l-2.299,1.335l-0.592-0.341l0.751-0.437
					l-2.141-1.236l-0.607,0.543L272.315,197.021 M278.276,195.137c0.28-0.098,0.549-0.136,0.804-0.119
					c0.26,0.015,0.495,0.086,0.719,0.215c0.327,0.189,0.455,0.405,0.375,0.646c-0.08,0.242-0.359,0.504-0.841,0.784
					c-0.167,0.098-0.35,0.186-0.548,0.271c-0.193,0.082-0.402,0.157-0.625,0.222l-0.66-0.381c0.239-0.044,0.458-0.1,0.656-0.168
					c0.193-0.07,0.366-0.147,0.518-0.236c0.228-0.133,0.36-0.25,0.4-0.369c0.045-0.114-0.011-0.212-0.159-0.297
					c-0.149-0.085-0.321-0.115-0.524-0.091c-0.199,0.026-0.418,0.112-0.656,0.25l-0.339,0.198l-0.552-0.318l0.36-0.209
					c0.213-0.124,0.335-0.236,0.371-0.333c0.04-0.1-0.011-0.189-0.15-0.269c-0.127-0.074-0.275-0.1-0.449-0.083
					c-0.167,0.021-0.345,0.083-0.528,0.189c-0.137,0.08-0.264,0.171-0.371,0.268c-0.106,0.098-0.202,0.206-0.278,0.321l-0.623-0.359
					c0.116-0.127,0.248-0.245,0.39-0.352c0.143-0.112,0.289-0.209,0.451-0.304c0.427-0.248,0.817-0.392,1.169-0.437
					c0.351-0.038,0.672,0.024,0.953,0.187c0.194,0.112,0.303,0.233,0.323,0.363C278.483,194.857,278.423,194.992,278.276,195.137
					 M292.216,192.444l-8.765-5.06l-28.829,16.753l8.765,5.061L292.216,192.444"/>
				<path clip-path="url(#SVGID_6_)" id="C3.11" fill="#CFD1D2" d="M297.012,219.582c0.342,0.197,0.694,0.301,1.065,0.309
					c0.368,0.012,0.708-0.068,1.006-0.242c0.174-0.1,0.305-0.206,0.406-0.324c0.1-0.117,0.175-0.256,0.227-0.409l0.685,0.396
					c-0.077,0.139-0.177,0.268-0.304,0.389c-0.121,0.123-0.277,0.238-0.462,0.345c-0.547,0.319-1.143,0.481-1.768,0.489
					c-0.626,0.01-1.203-0.141-1.728-0.445c-0.532-0.307-0.793-0.639-0.78-1.002c0.009-0.365,0.292-0.707,0.839-1.026
					c0.184-0.106,0.381-0.198,0.59-0.271c0.214-0.072,0.436-0.131,0.67-0.178l0.691,0.398c-0.271,0.026-0.504,0.073-0.708,0.132
					c-0.203,0.06-0.385,0.136-0.558,0.237c-0.299,0.173-0.437,0.371-0.414,0.583C296.485,219.177,296.669,219.383,297.012,219.582
					 M301.056,217.078c0.278-0.098,0.549-0.137,0.804-0.124c0.254,0.017,0.5,0.089,0.72,0.215c0.325,0.188,0.448,0.407,0.375,0.651
					c-0.081,0.242-0.36,0.505-0.836,0.781c-0.173,0.102-0.356,0.189-0.548,0.271c-0.205,0.082-0.413,0.156-0.625,0.222l-0.66-0.38
					c0.234-0.047,0.452-0.104,0.65-0.172c0.193-0.064,0.372-0.145,0.523-0.232c0.224-0.13,0.356-0.254,0.396-0.365
					c0.045-0.115-0.007-0.217-0.155-0.301c-0.152-0.089-0.326-0.119-0.529-0.089c-0.198,0.026-0.417,0.105-0.659,0.247l-0.336,0.195
					l-0.552-0.318l0.356-0.207c0.212-0.124,0.339-0.232,0.378-0.332c0.036-0.098-0.01-0.189-0.148-0.27
					c-0.128-0.074-0.281-0.104-0.448-0.082c-0.174,0.018-0.356,0.082-0.538,0.188c-0.137,0.079-0.254,0.171-0.365,0.271
					c-0.106,0.098-0.198,0.205-0.284,0.318l-0.623-0.359c0.121-0.124,0.253-0.241,0.389-0.351c0.148-0.109,0.294-0.212,0.452-0.304
					c0.427-0.248,0.818-0.393,1.173-0.434c0.352-0.044,0.672,0.018,0.96,0.183c0.188,0.109,0.297,0.23,0.321,0.363
					C301.267,216.794,301.201,216.933,301.056,217.078 M303.345,216.818l0.791-0.461l0.859,0.496l-0.792,0.46L303.345,216.818
					 M302.676,214.55l0.608-0.537l0.806-0.469l2.724,1.572l0.744-0.434l0.589,0.338l-2.299,1.336l-0.589-0.338l0.752-0.438
					l-2.141-1.234l-0.612,0.539L302.676,214.55 M305.68,212.804l0.609-0.537l0.801-0.465l2.723,1.57l0.75-0.436l0.589,0.338
					l-2.3,1.338l-0.588-0.34l0.747-0.434l-2.141-1.236l-0.608,0.537L305.68,212.804 M321.907,209.586l-8.771-5.063l-28.829,16.754
					l8.771,5.062L321.907,209.586"/>
				<path clip-path="url(#SVGID_6_)" id="C3.12" fill="#BED5E5" d="M282.822,211.388c0.343,0.198,0.694,0.301,1.065,0.311
					c0.373,0.014,0.708-0.068,1.008-0.242c0.172-0.101,0.304-0.207,0.404-0.324c0.102-0.118,0.183-0.254,0.233-0.408l0.684,0.396
					c-0.076,0.139-0.177,0.268-0.303,0.389s-0.284,0.236-0.466,0.343c-0.548,0.319-1.138,0.483-1.77,0.489
					c-0.626,0.01-1.202-0.141-1.728-0.445c-0.531-0.307-0.793-0.641-0.78-1.004c0.014-0.361,0.297-0.703,0.845-1.021
					c0.183-0.107,0.381-0.198,0.588-0.272c0.209-0.073,0.432-0.133,0.671-0.177l0.685,0.396c-0.265,0.029-0.504,0.073-0.708,0.133
					c-0.198,0.062-0.381,0.138-0.553,0.239c-0.3,0.174-0.442,0.369-0.42,0.58C282.296,210.985,282.481,211.191,282.822,211.388
					 M286.866,208.885c0.279-0.097,0.549-0.135,0.809-0.121c0.255,0.018,0.494,0.086,0.714,0.212
					c0.327,0.188,0.45,0.407,0.376,0.652c-0.081,0.243-0.359,0.505-0.836,0.782c-0.173,0.1-0.356,0.188-0.549,0.271
					c-0.197,0.086-0.412,0.156-0.625,0.221l-0.658-0.381c0.234-0.047,0.452-0.103,0.65-0.17c0.193-0.065,0.371-0.145,0.522-0.233
					c0.224-0.13,0.355-0.254,0.396-0.366c0.045-0.115-0.006-0.215-0.155-0.301c-0.148-0.086-0.327-0.118-0.53-0.089
					c-0.199,0.027-0.417,0.106-0.661,0.248l-0.334,0.194l-0.546-0.315l0.355-0.207c0.212-0.124,0.334-0.236,0.375-0.336
					c0.035-0.097-0.012-0.189-0.149-0.269c-0.128-0.073-0.276-0.1-0.449-0.083c-0.168,0.021-0.351,0.085-0.534,0.192
					c-0.137,0.079-0.258,0.168-0.37,0.268c-0.106,0.098-0.198,0.203-0.278,0.321l-0.628-0.363c0.122-0.123,0.253-0.241,0.39-0.351
					c0.147-0.109,0.299-0.209,0.456-0.301c0.427-0.248,0.813-0.395,1.169-0.437c0.357-0.041,0.673,0.018,0.958,0.183
					c0.194,0.113,0.302,0.233,0.322,0.363C287.079,208.603,287.013,208.741,286.866,208.885 M289.155,208.625l0.792-0.459
					l0.857,0.495l-0.791,0.46L289.155,208.625 M288.491,206.361l0.603-0.54l0.807-0.469l2.722,1.572l0.746-0.434l0.588,0.339
					l-2.299,1.336l-0.587-0.339l0.751-0.437l-2.14-1.235l-0.614,0.539L288.491,206.361 M294.805,205.609l1.446-0.841l0.628,0.363
					l-2.39,1.389l-0.627-0.362l0.139-1.313c0.01-0.118-0.011-0.218-0.052-0.301c-0.041-0.088-0.113-0.159-0.21-0.215
					c-0.157-0.091-0.336-0.129-0.535-0.127c-0.192,0.006-0.376,0.059-0.548,0.159c-0.133,0.078-0.254,0.178-0.355,0.301
					c-0.096,0.126-0.182,0.271-0.247,0.439l-0.725-0.419c0.122-0.147,0.268-0.286,0.415-0.413c0.157-0.126,0.324-0.242,0.502-0.345
					c0.396-0.23,0.787-0.357,1.179-0.383c0.392-0.027,0.743,0.047,1.06,0.229c0.179,0.104,0.302,0.227,0.358,0.372
					c0.067,0.144,0.084,0.378,0.045,0.702L294.805,205.609 M311.35,203.491l-17.193-9.927l-28.829,16.753l17.192,9.926
					L311.35,203.491"/>
				<path clip-path="url(#SVGID_6_)" id="C3.08" fill="#CFD1D2" d="M345.84,237.654c-0.412-0.238-0.743-0.383-0.99-0.436
					c-0.244-0.053-0.463-0.026-0.646,0.08c-0.177,0.104-0.224,0.229-0.131,0.371c0.089,0.145,0.344,0.334,0.758,0.572
					c0.419,0.242,0.75,0.393,1.001,0.442c0.249,0.056,0.468,0.03,0.646-0.073c0.183-0.106,0.229-0.234,0.13-0.379
					C346.516,238.091,346.261,237.896,345.84,237.654 M347.987,235.519c-0.133-0.076-0.271-0.115-0.408-0.111
					c-0.146,0.003-0.284,0.041-0.415,0.117c-0.133,0.077-0.203,0.16-0.203,0.242c-0.005,0.086,0.056,0.162,0.188,0.238
					c0.133,0.078,0.266,0.113,0.414,0.109c0.143,0,0.284-0.041,0.416-0.117c0.131-0.076,0.198-0.156,0.203-0.242
					C348.181,235.673,348.12,235.597,347.987,235.519 M349.509,236.316c-0.164-0.094-0.333-0.145-0.505-0.145
					c-0.167-0.003-0.331,0.045-0.488,0.135c-0.156,0.092-0.238,0.187-0.238,0.287c0.002,0.1,0.09,0.197,0.252,0.291
					c0.164,0.096,0.326,0.143,0.5,0.143s0.336-0.047,0.492-0.139c0.158-0.092,0.239-0.186,0.232-0.283
					C349.754,236.504,349.673,236.41,349.509,236.316 M337.112,242.734c0.342,0.196,0.7,0.303,1.07,0.312
					c0.367,0.012,0.703-0.072,1.001-0.246c0.174-0.1,0.305-0.206,0.406-0.324c0.106-0.115,0.184-0.254,0.231-0.406l0.687,0.395
					c-0.077,0.139-0.177,0.268-0.304,0.389c-0.128,0.121-0.284,0.236-0.467,0.343c-0.549,0.319-1.138,0.483-1.765,0.493
					c-0.631,0.006-1.201-0.143-1.732-0.449c-0.526-0.303-0.789-0.637-0.779-1.002c0.012-0.363,0.295-0.705,0.844-1.023
					c0.183-0.105,0.381-0.197,0.59-0.271c0.208-0.074,0.43-0.133,0.671-0.177l0.683,0.395c-0.264,0.031-0.497,0.077-0.701,0.136
					c-0.203,0.06-0.385,0.137-0.559,0.236c-0.3,0.174-0.441,0.369-0.418,0.581C336.59,242.332,336.77,242.536,337.112,242.734
					 M341.156,240.23c0.284-0.096,0.55-0.137,0.809-0.121c0.255,0.018,0.5,0.088,0.719,0.216c0.327,0.188,0.45,0.405,0.371,0.647
					c-0.075,0.246-0.359,0.504-0.836,0.781c-0.174,0.102-0.351,0.192-0.549,0.271c-0.197,0.086-0.406,0.16-0.625,0.221l-0.659-0.379
					c0.239-0.045,0.458-0.102,0.656-0.17c0.193-0.063,0.37-0.143,0.523-0.232c0.224-0.129,0.354-0.253,0.396-0.365
					c0.04-0.118-0.013-0.219-0.155-0.301c-0.153-0.088-0.326-0.118-0.531-0.088c-0.201,0.023-0.415,0.105-0.659,0.248l-0.334,0.193
					l-0.552-0.318l0.354-0.207c0.214-0.123,0.339-0.232,0.375-0.334c0.036-0.098-0.013-0.19-0.15-0.269
					c-0.126-0.075-0.273-0.102-0.441-0.081c-0.174,0.018-0.356,0.082-0.539,0.189c-0.138,0.079-0.258,0.168-0.371,0.268
					c-0.105,0.098-0.196,0.203-0.277,0.322l-0.624-0.359c0.122-0.125,0.253-0.242,0.391-0.352c0.143-0.112,0.294-0.213,0.452-0.304
					c0.425-0.247,0.816-0.392,1.168-0.437c0.355-0.041,0.677,0.021,0.958,0.183c0.194,0.112,0.302,0.233,0.322,0.362
					C341.373,239.949,341.303,240.085,341.156,240.23 M343.449,239.972l0.793-0.46l0.859,0.496l-0.793,0.46L343.449,239.972
					 M343.984,238.74c-0.547-0.314-0.849-0.631-0.918-0.939c-0.062-0.308,0.124-0.588,0.555-0.839
					c0.432-0.25,0.916-0.359,1.445-0.324c0.541,0.036,1.08,0.212,1.627,0.528c0.552,0.318,0.857,0.631,0.916,0.94
					c0.063,0.308-0.124,0.587-0.555,0.837c-0.432,0.252-0.914,0.361-1.444,0.324C345.081,239.232,344.535,239.058,343.984,238.74
					 M348.848,235.789c0.286-0.094,0.557-0.133,0.805-0.119c0.255,0.012,0.489,0.084,0.699,0.205
					c0.332,0.191,0.47,0.395,0.422,0.618c-0.051,0.224-0.289,0.457-0.716,0.704c-0.425,0.248-0.831,0.391-1.218,0.42
					c-0.389,0.029-0.738-0.051-1.071-0.242c-0.21-0.121-0.331-0.257-0.354-0.404c-0.026-0.145,0.039-0.301,0.2-0.466
					c-0.258,0.081-0.503,0.116-0.732,0.101c-0.229-0.014-0.434-0.074-0.621-0.183c-0.282-0.163-0.384-0.345-0.324-0.552
					c0.056-0.203,0.287-0.422,0.688-0.654s0.772-0.365,1.128-0.402c0.352-0.037,0.668,0.027,0.949,0.189
					c0.188,0.109,0.29,0.228,0.316,0.359C349.047,235.497,348.985,235.638,348.848,235.789 M362.59,233.075l-8.766-5.06
					l-28.828,16.752l8.766,5.062L362.59,233.075"/>
				<path clip-path="url(#SVGID_6_)" id="C3.09" fill="#CFD1D2" d="M335.248,231.539c-0.414-0.238-0.747-0.383-0.99-0.437
					c-0.246-0.054-0.463-0.026-0.647,0.079c-0.178,0.104-0.222,0.23-0.13,0.371c0.088,0.146,0.344,0.334,0.757,0.573
					c0.42,0.241,0.751,0.392,1,0.442c0.25,0.057,0.469,0.029,0.646-0.074c0.183-0.105,0.227-0.232,0.132-0.377
					C335.923,231.976,335.665,231.781,335.248,231.539 M337.532,229.531c-0.195-0.112-0.373-0.175-0.545-0.187
					c-0.18-0.015-0.336,0.024-0.484,0.109c-0.147,0.086-0.213,0.177-0.187,0.28c0.021,0.1,0.129,0.203,0.322,0.316
					c0.189,0.107,0.372,0.173,0.547,0.185c0.174,0.013,0.331-0.026,0.477-0.112c0.146-0.086,0.213-0.177,0.193-0.277
					C337.834,229.746,337.722,229.64,337.532,229.531 M326.52,236.617c0.343,0.197,0.699,0.305,1.07,0.312
					c0.367,0.013,0.703-0.07,1.002-0.244c0.172-0.102,0.305-0.207,0.404-0.324c0.106-0.115,0.184-0.254,0.233-0.407l0.685,0.395
					c-0.077,0.14-0.177,0.269-0.304,0.39c-0.126,0.121-0.284,0.236-0.467,0.342c-0.547,0.318-1.138,0.484-1.763,0.492
					c-0.631,0.007-1.203-0.141-1.734-0.447c-0.526-0.305-0.787-0.637-0.779-1.003c0.014-0.362,0.295-0.706,0.844-1.023
					c0.184-0.106,0.381-0.198,0.589-0.271c0.208-0.074,0.433-0.133,0.672-0.178l0.685,0.395c-0.265,0.03-0.499,0.077-0.702,0.136
					c-0.203,0.06-0.388,0.136-0.56,0.235c-0.298,0.175-0.44,0.369-0.418,0.582C325.996,236.216,326.176,236.419,326.52,236.617
					 M330.562,234.113c0.285-0.094,0.55-0.135,0.809-0.121c0.255,0.018,0.5,0.09,0.721,0.217c0.326,0.188,0.448,0.406,0.369,0.647
					c-0.075,0.245-0.359,0.505-0.835,0.782c-0.173,0.1-0.352,0.191-0.55,0.271c-0.197,0.084-0.406,0.158-0.623,0.221l-0.66-0.381
					c0.238-0.043,0.458-0.1,0.656-0.168c0.192-0.064,0.371-0.145,0.522-0.232c0.224-0.13,0.356-0.254,0.396-0.365
					c0.039-0.119-0.012-0.219-0.153-0.301c-0.155-0.089-0.328-0.119-0.531-0.089c-0.203,0.023-0.417,0.105-0.661,0.247l-0.334,0.195
					l-0.552-0.318l0.356-0.207c0.212-0.124,0.339-0.232,0.373-0.336c0.036-0.098-0.011-0.189-0.148-0.269
					c-0.128-0.073-0.276-0.101-0.443-0.079c-0.174,0.018-0.355,0.082-0.539,0.188c-0.137,0.079-0.26,0.168-0.371,0.269
					c-0.104,0.098-0.196,0.203-0.277,0.32l-0.624-0.359c0.122-0.124,0.255-0.241,0.393-0.351c0.141-0.112,0.294-0.212,0.45-0.304
					c0.426-0.248,0.816-0.393,1.168-0.438c0.356-0.04,0.679,0.021,0.958,0.184c0.195,0.112,0.302,0.233,0.323,0.363
					C330.779,233.833,330.709,233.968,330.562,234.113 M332.857,233.857l0.792-0.461l0.858,0.496l-0.791,0.46L332.857,233.857
					 M333.391,232.625c-0.547-0.316-0.849-0.632-0.918-0.941c-0.062-0.307,0.124-0.588,0.557-0.838
					c0.432-0.25,0.914-0.359,1.443-0.324c0.541,0.035,1.082,0.213,1.627,0.527c0.552,0.319,0.859,0.632,0.917,0.941
					c0.062,0.307-0.123,0.586-0.556,0.838c-0.432,0.25-0.914,0.359-1.444,0.324C334.487,233.117,333.941,232.943,333.391,232.625
					 M335.878,230.556c-0.352-0.203-0.526-0.434-0.508-0.692c0.014-0.255,0.217-0.499,0.602-0.722
					c0.427-0.248,0.904-0.361,1.43-0.328c0.524,0.033,1.055,0.203,1.586,0.51c0.545,0.316,0.839,0.643,0.881,0.985
					c0.038,0.339-0.185,0.646-0.662,0.923c-0.156,0.092-0.314,0.171-0.477,0.242c-0.163,0.064-0.341,0.127-0.519,0.176l-0.608-0.35
					c0.194-0.042,0.372-0.092,0.528-0.143c0.153-0.053,0.291-0.114,0.412-0.186c0.254-0.147,0.38-0.303,0.375-0.465
					c0.004-0.163-0.12-0.334-0.376-0.511c-0.023,0.103-0.075,0.198-0.15,0.282c-0.081,0.089-0.183,0.172-0.313,0.248
					c-0.336,0.195-0.707,0.298-1.109,0.301C336.562,230.833,336.199,230.743,335.878,230.556 M351.879,226.891l-8.764-5.062
					l-28.83,16.754l8.766,5.061L351.879,226.891"/>
				<path clip-path="url(#SVGID_6_)" id="C3.07" fill="#CFD1D2" d="M356.623,243.88c-0.412-0.239-0.745-0.384-0.99-0.438
					c-0.246-0.053-0.463-0.025-0.646,0.08c-0.179,0.104-0.224,0.23-0.132,0.371c0.09,0.146,0.344,0.334,0.758,0.572
					c0.419,0.242,0.75,0.393,1,0.443c0.25,0.056,0.469,0.029,0.646-0.074c0.185-0.105,0.229-0.233,0.132-0.377
					C357.298,244.317,357.042,244.122,356.623,243.88 M347.895,248.958c0.343,0.197,0.699,0.304,1.07,0.312
					c0.367,0.012,0.703-0.071,1.002-0.244c0.174-0.102,0.305-0.207,0.411-0.322c0.102-0.118,0.177-0.256,0.228-0.41l0.684,0.395
					c-0.075,0.14-0.176,0.27-0.304,0.391c-0.126,0.12-0.284,0.234-0.467,0.342c-0.547,0.318-1.136,0.484-1.763,0.492
					c-0.627,0.009-1.203-0.141-1.734-0.448c-0.526-0.304-0.787-0.637-0.773-0.999c0.008-0.365,0.292-0.708,0.839-1.027
					c0.183-0.105,0.38-0.197,0.589-0.271c0.208-0.074,0.434-0.133,0.672-0.177l0.684,0.395c-0.265,0.029-0.499,0.076-0.702,0.135
					c-0.203,0.061-0.386,0.137-0.558,0.236c-0.3,0.174-0.442,0.369-0.42,0.582C347.373,248.558,347.553,248.761,347.895,248.958
					 M351.938,246.455c0.284-0.095,0.549-0.135,0.81-0.121c0.253,0.018,0.5,0.089,0.719,0.215c0.326,0.189,0.45,0.408,0.37,0.648
					c-0.076,0.245-0.359,0.506-0.836,0.781c-0.173,0.102-0.35,0.193-0.55,0.272c-0.197,0.085-0.404,0.159-0.623,0.222l-0.66-0.381
					c0.239-0.044,0.458-0.1,0.656-0.168c0.194-0.064,0.371-0.145,0.523-0.232c0.224-0.131,0.355-0.254,0.396-0.366
					c0.039-0.118-0.013-0.218-0.154-0.301c-0.155-0.089-0.328-0.118-0.531-0.089c-0.203,0.023-0.416,0.105-0.659,0.248l-0.336,0.193
					l-0.551-0.317l0.355-0.206c0.214-0.125,0.34-0.232,0.375-0.337c0.035-0.097-0.013-0.188-0.15-0.269
					c-0.122-0.071-0.275-0.1-0.442-0.079c-0.173,0.019-0.356,0.083-0.539,0.188c-0.136,0.08-0.259,0.168-0.37,0.269
					c-0.106,0.098-0.197,0.204-0.279,0.321l-0.622-0.359c0.122-0.125,0.253-0.242,0.391-0.352c0.142-0.111,0.294-0.212,0.451-0.303
					c0.427-0.248,0.817-0.393,1.172-0.434c0.354-0.045,0.674,0.018,0.955,0.18c0.193,0.111,0.302,0.232,0.321,0.363
					C352.156,246.173,352.09,246.313,351.938,246.455 M354.232,246.197l0.792-0.459l0.859,0.496l-0.792,0.459L354.232,246.197
					 M354.766,244.965c-0.547-0.315-0.848-0.632-0.911-0.938c-0.069-0.31,0.118-0.59,0.55-0.841c0.432-0.25,0.914-0.359,1.448-0.322
					c0.536,0.033,1.077,0.21,1.624,0.525c0.551,0.318,0.857,0.631,0.915,0.941c0.062,0.307-0.123,0.586-0.555,0.837
					c-0.431,0.251-0.915,0.36-1.445,0.324C355.862,245.458,355.318,245.285,354.766,244.965 M356.201,242.214l2.477-1.439
					l0.479,0.277l1.552,2.377l-0.826,0.48l-1.469-2.253l-1.585,0.919L356.201,242.214 M373.301,239.259l-8.77-5.063l-28.828,16.753
					l8.77,5.063L373.301,239.259"/>
				<path clip-path="url(#SVGID_6_)" id="C3.06" fill="#BED5E5" d="M371.946,252.727c-0.414-0.239-0.745-0.384-0.99-0.437
					c-0.244-0.053-0.463-0.027-0.646,0.08c-0.178,0.103-0.224,0.229-0.131,0.371c0.089,0.145,0.344,0.333,0.758,0.572
					c0.417,0.241,0.75,0.393,1,0.441c0.248,0.057,0.469,0.03,0.645-0.072c0.185-0.107,0.229-0.234,0.132-0.378
					C372.62,253.164,372.365,252.968,371.946,252.727 M375.558,251.332c-0.192-0.112-0.377-0.176-0.546-0.191
					c-0.173-0.012-0.331,0.027-0.482,0.115c-0.146,0.085-0.214,0.176-0.186,0.273c0.02,0.102,0.133,0.207,0.326,0.319
					c0.195,0.112,0.373,0.173,0.545,0.185c0.169,0.016,0.327-0.021,0.474-0.107c0.153-0.089,0.219-0.18,0.197-0.281
					C375.859,251.547,375.751,251.445,375.558,251.332 M363.219,257.805c0.342,0.198,0.698,0.304,1.07,0.312
					c0.367,0.012,0.701-0.071,1.001-0.245c0.174-0.1,0.305-0.207,0.411-0.321c0.102-0.118,0.177-0.257,0.227-0.41l0.685,0.396
					c-0.075,0.139-0.177,0.269-0.304,0.39c-0.126,0.12-0.284,0.235-0.465,0.341c-0.549,0.318-1.138,0.484-1.765,0.494
					c-0.626,0.008-1.203-0.143-1.732-0.449c-0.528-0.304-0.789-0.637-0.775-0.999c0.008-0.366,0.291-0.708,0.839-1.027
					c0.184-0.105,0.38-0.196,0.59-0.271c0.207-0.074,0.431-0.133,0.67-0.178l0.685,0.396c-0.265,0.029-0.499,0.076-0.702,0.135
					s-0.386,0.136-0.559,0.236c-0.299,0.174-0.441,0.368-0.419,0.58C362.696,257.404,362.876,257.607,363.219,257.805
					 M367.262,255.301c0.285-0.095,0.549-0.136,0.81-0.121c0.253,0.019,0.499,0.089,0.718,0.216c0.328,0.188,0.451,0.406,0.37,0.648
					c-0.075,0.245-0.358,0.504-0.836,0.781c-0.172,0.101-0.349,0.191-0.547,0.271c-0.198,0.086-0.406,0.16-0.625,0.221l-0.659-0.38
					c0.238-0.044,0.457-0.101,0.656-0.168c0.193-0.065,0.37-0.145,0.523-0.233c0.222-0.129,0.354-0.254,0.395-0.365
					c0.039-0.119-0.012-0.219-0.154-0.301c-0.154-0.089-0.328-0.119-0.531-0.089c-0.203,0.024-0.416,0.106-0.661,0.247l-0.334,0.195
					l-0.55-0.318l0.354-0.206c0.212-0.124,0.339-0.233,0.375-0.337c0.034-0.097-0.013-0.188-0.15-0.268
					c-0.123-0.071-0.274-0.102-0.442-0.08c-0.173,0.018-0.357,0.083-0.539,0.189c-0.137,0.078-0.259,0.168-0.37,0.268
					c-0.107,0.098-0.196,0.204-0.279,0.321l-0.622-0.359c0.12-0.124,0.253-0.241,0.389-0.351c0.143-0.113,0.296-0.213,0.453-0.305
					c0.426-0.247,0.816-0.393,1.174-0.434c0.35-0.044,0.67,0.019,0.953,0.18c0.192,0.113,0.302,0.234,0.322,0.363
					C367.479,255.021,367.414,255.16,367.262,255.301 M369.556,255.044l0.792-0.459l0.858,0.494l-0.792,0.461L369.556,255.044
					 M370.089,253.812c-0.546-0.315-0.849-0.631-0.911-0.938c-0.067-0.311,0.119-0.59,0.55-0.84c0.432-0.252,0.914-0.361,1.45-0.322
					c0.534,0.033,1.073,0.209,1.622,0.525c0.55,0.318,0.857,0.631,0.915,0.939c0.064,0.308-0.125,0.588-0.556,0.838
					c-0.43,0.251-0.913,0.36-1.444,0.324C371.186,254.304,370.642,254.13,370.089,253.812 M373.654,251.378
					c0.025-0.097,0.075-0.191,0.151-0.276c0.075-0.086,0.182-0.171,0.314-0.247c0.334-0.195,0.711-0.296,1.114-0.305
					c0.401-0.003,0.764,0.088,1.084,0.274c0.354,0.204,0.528,0.434,0.508,0.692c-0.018,0.254-0.221,0.496-0.606,0.721
					c-0.431,0.25-0.904,0.359-1.43,0.326c-0.523-0.032-1.048-0.2-1.584-0.51c-0.549-0.315-0.839-0.643-0.877-0.982
					c-0.037-0.338,0.18-0.648,0.656-0.926c0.153-0.088,0.312-0.168,0.479-0.235s0.345-0.13,0.526-0.183l0.614,0.354
					c-0.203,0.041-0.388,0.088-0.544,0.145c-0.158,0.051-0.294,0.111-0.412,0.18c-0.252,0.146-0.374,0.301-0.374,0.467
					C373.271,251.035,373.399,251.203,373.654,251.378 M392.43,250.302l-17.187-9.923l-28.829,16.754l17.188,9.923L392.43,250.302"
					/>
				<path clip-path="url(#SVGID_6_)" id="C3.10" fill="#BED5E5" d="M323.024,221.001c-0.412-0.238-0.75-0.385-0.995-0.439
					c-0.244-0.053-0.458-0.023-0.641,0.083s-0.229,0.228-0.141,0.372c0.094,0.141,0.349,0.336,0.763,0.574
					c0.419,0.242,0.75,0.387,1,0.443c0.25,0.049,0.464,0.025,0.646-0.081c0.184-0.105,0.223-0.229,0.136-0.374
					C323.695,221.435,323.445,221.244,323.024,221.001 M311.293,227.826c0.343,0.198,0.694,0.301,1.066,0.311
					c0.37,0.014,0.707-0.068,1.006-0.242c0.174-0.101,0.305-0.207,0.406-0.324c0.102-0.119,0.182-0.254,0.231-0.408l0.685,0.396
					c-0.075,0.138-0.177,0.268-0.304,0.389c-0.126,0.121-0.284,0.236-0.467,0.342c-0.547,0.318-1.138,0.484-1.769,0.49
					c-0.627,0.008-1.202-0.142-1.729-0.445c-0.531-0.307-0.792-0.641-0.778-1.002c0.013-0.363,0.296-0.706,0.843-1.023
					c0.184-0.107,0.383-0.198,0.59-0.271c0.208-0.074,0.432-0.133,0.672-0.178l0.684,0.395c-0.265,0.031-0.504,0.074-0.708,0.133
					c-0.197,0.062-0.38,0.139-0.552,0.239c-0.3,0.175-0.442,0.368-0.42,0.581C310.767,227.422,310.949,227.628,311.293,227.826
					 M315.337,225.322c0.278-0.096,0.549-0.135,0.81-0.121c0.253,0.019,0.494,0.086,0.713,0.213
					c0.326,0.189,0.451,0.407,0.376,0.652c-0.081,0.242-0.359,0.504-0.836,0.781c-0.173,0.1-0.354,0.188-0.548,0.271
					c-0.199,0.085-0.411,0.156-0.627,0.221l-0.658-0.381c0.234-0.047,0.452-0.103,0.65-0.17c0.193-0.065,0.372-0.145,0.525-0.233
					c0.222-0.13,0.353-0.254,0.394-0.366c0.045-0.115-0.007-0.215-0.155-0.301s-0.326-0.117-0.529-0.088
					c-0.198,0.027-0.417,0.105-0.661,0.247l-0.334,0.195l-0.546-0.315l0.354-0.207c0.214-0.123,0.336-0.236,0.377-0.336
					c0.034-0.098-0.013-0.189-0.15-0.268c-0.128-0.074-0.276-0.102-0.448-0.084c-0.167,0.021-0.352,0.086-0.533,0.193
					c-0.138,0.078-0.259,0.166-0.37,0.268c-0.106,0.097-0.198,0.203-0.279,0.322l-0.627-0.363c0.12-0.125,0.253-0.242,0.389-0.352
					c0.148-0.109,0.299-0.209,0.457-0.301c0.426-0.248,0.812-0.395,1.168-0.437c0.356-0.042,0.672,0.019,0.96,0.183
					c0.193,0.111,0.302,0.232,0.321,0.363C315.548,225.04,315.482,225.177,315.337,225.322 M317.626,225.063l0.791-0.46l0.859,0.495
					l-0.792,0.46L317.626,225.063 M316.961,222.798l0.603-0.54l0.808-0.469l2.723,1.571l0.746-0.434l0.586,0.34l-2.298,1.336
					l-0.586-0.34l0.75-0.436l-2.141-1.236l-0.612,0.539L316.961,222.798 M321.168,222.086c-0.553-0.317-0.859-0.63-0.917-0.94
					c-0.062-0.307,0.125-0.586,0.557-0.837c0.431-0.251,0.912-0.36,1.443-0.324c0.534,0.032,1.075,0.21,1.627,0.528
					c0.547,0.314,0.854,0.627,0.911,0.938c0.068,0.309-0.119,0.589-0.551,0.84c-0.431,0.25-0.914,0.359-1.449,0.322
					C322.254,222.58,321.714,222.403,321.168,222.086 M341.162,220.704l-17.19-9.926l-28.83,16.753l17.194,9.927L341.162,220.704"/>
				<polygon clip-path="url(#SVGID_6_)" fill="#CFD1D2" points="256.528,171.84 234.269,158.989 217.35,168.821 188.528,152.179 
					161.176,168.069 375.016,291.529 402.362,275.637 377.676,261.384 363.792,269.454 239.42,197.646 253.399,189.522
					239.706,181.616 				"/>
				<path clip-path="url(#SVGID_6_)" fill="#FFFFFF" d="M270.041,201.781l-0.684-0.395c-0.05,0.154-0.131,0.289-0.232,0.407
					c-0.101,0.118-0.233,0.224-0.405,0.324c-0.299,0.175-0.635,0.257-1.001,0.245c-0.373-0.009-0.729-0.115-1.072-0.313
					c-0.342-0.198-0.526-0.403-0.543-0.618c-0.022-0.213,0.121-0.407,0.42-0.582c0.172-0.1,0.354-0.177,0.558-0.236
					c0.204-0.059,0.438-0.105,0.702-0.135l-0.684-0.396c-0.24,0.045-0.463,0.104-0.672,0.178c-0.208,0.074-0.405,0.165-0.588,0.271
					c-0.548,0.318-0.832,0.661-0.844,1.023c-0.008,0.366,0.253,0.699,0.779,1.002c0.531,0.307,1.103,0.455,1.733,0.449
					c0.627-0.009,1.216-0.174,1.764-0.493c0.183-0.106,0.34-0.221,0.466-0.343C269.864,202.049,269.965,201.919,270.041,201.781"/>
				<path clip-path="url(#SVGID_6_)" fill="#FFFFFF" d="M272.218,199.64c-0.225-0.13-0.465-0.198-0.719-0.215
					c-0.26-0.015-0.53,0.023-0.809,0.121c0.146-0.144,0.212-0.283,0.191-0.413c-0.021-0.129-0.129-0.25-0.324-0.362
					c-0.28-0.163-0.602-0.225-0.957-0.183c-0.352,0.043-0.743,0.188-1.169,0.436c-0.158,0.092-0.31,0.192-0.451,0.304
					c-0.143,0.106-0.274,0.224-0.391,0.351l0.624,0.36c0.081-0.119,0.172-0.225,0.278-0.322c0.111-0.1,0.234-0.189,0.371-0.269
					c0.182-0.106,0.365-0.17,0.533-0.191c0.173-0.018,0.321,0.009,0.449,0.083c0.138,0.08,0.185,0.171,0.148,0.268
					c-0.04,0.101-0.161,0.213-0.374,0.337l-0.355,0.207l0.552,0.318l0.334-0.195c0.243-0.141,0.457-0.224,0.655-0.25
					c0.209-0.026,0.382,0.003,0.531,0.089c0.148,0.085,0.199,0.186,0.154,0.301c-0.035,0.114-0.172,0.236-0.396,0.366
					c-0.153,0.089-0.329,0.168-0.517,0.236c-0.199,0.068-0.418,0.124-0.656,0.168l0.659,0.379c0.218-0.061,0.426-0.135,0.624-0.221
					c0.194-0.083,0.377-0.171,0.549-0.271c0.477-0.278,0.755-0.54,0.835-0.782C272.668,200.047,272.545,199.829,272.218,199.64"/>
				<polygon clip-path="url(#SVGID_6_)" fill="#FFFFFF" points="274.634,199.324 273.776,198.829 272.984,199.289 273.843,199.785
									"/>
				<polygon clip-path="url(#SVGID_6_)" fill="#FFFFFF" points="277.786,197.493 277.192,197.15 276.447,197.584 273.729,196.015
					272.922,196.484 272.315,197.021 272.897,197.358 273.505,196.814 275.646,198.05 274.895,198.487 275.486,198.828 				"/>
				<path clip-path="url(#SVGID_6_)" fill="#FFFFFF" d="M279.799,195.234c-0.225-0.129-0.459-0.2-0.719-0.215
					c-0.254-0.018-0.524,0.021-0.804,0.117c0.147-0.144,0.207-0.28,0.186-0.409c-0.021-0.13-0.129-0.25-0.323-0.362
					c-0.281-0.163-0.602-0.225-0.953-0.187c-0.352,0.044-0.742,0.189-1.169,0.437c-0.163,0.095-0.309,0.191-0.451,0.303
					c-0.142,0.106-0.273,0.225-0.39,0.351l0.623,0.36c0.076-0.115,0.172-0.224,0.278-0.322c0.106-0.097,0.234-0.189,0.371-0.268
					c0.183-0.106,0.361-0.168,0.528-0.188c0.173-0.018,0.322,0.009,0.449,0.082c0.139,0.08,0.189,0.168,0.15,0.268
					c-0.036,0.098-0.157,0.21-0.371,0.333l-0.36,0.21l0.552,0.318l0.339-0.198c0.238-0.138,0.458-0.224,0.656-0.25
					c0.203-0.024,0.375,0.006,0.524,0.091c0.148,0.085,0.205,0.182,0.159,0.297c-0.04,0.118-0.172,0.236-0.4,0.369
					c-0.152,0.088-0.325,0.165-0.518,0.236c-0.198,0.068-0.418,0.124-0.656,0.168l0.66,0.379c0.223-0.065,0.432-0.138,0.625-0.221
					c0.198-0.085,0.381-0.173,0.548-0.271c0.482-0.28,0.761-0.543,0.841-0.784C280.254,195.638,280.126,195.423,279.799,195.234"/>
				<path clip-path="url(#SVGID_6_)" fill="#FFFFFF" d="M286.217,211.121l-0.684-0.396c-0.05,0.154-0.131,0.291-0.233,0.408
					c-0.101,0.117-0.232,0.224-0.404,0.324c-0.299,0.174-0.635,0.256-1.008,0.242c-0.371-0.01-0.723-0.112-1.065-0.311
					c-0.341-0.197-0.526-0.403-0.543-0.619c-0.022-0.213,0.121-0.406,0.42-0.581c0.172-0.1,0.355-0.177,0.553-0.238
					c0.203-0.06,0.442-0.103,0.707-0.133l-0.685-0.396c-0.239,0.044-0.462,0.104-0.671,0.177c-0.208,0.073-0.405,0.166-0.588,0.271
					c-0.548,0.318-0.832,0.661-0.845,1.022c-0.013,0.363,0.249,0.697,0.781,1.004c0.525,0.305,1.102,0.455,1.728,0.445
					c0.632-0.006,1.222-0.17,1.77-0.489c0.183-0.106,0.34-0.222,0.466-0.343S286.141,211.259,286.217,211.121"/>
				<path clip-path="url(#SVGID_6_)" fill="#FFFFFF" d="M288.389,208.976c-0.22-0.127-0.46-0.194-0.714-0.213
					c-0.259-0.014-0.529,0.024-0.809,0.122c0.147-0.145,0.212-0.283,0.191-0.413c-0.021-0.129-0.129-0.251-0.322-0.363
					c-0.287-0.165-0.603-0.224-0.958-0.183c-0.356,0.042-0.742,0.189-1.169,0.437c-0.157,0.092-0.31,0.192-0.456,0.301
					c-0.137,0.109-0.269,0.227-0.391,0.351l0.628,0.362c0.081-0.118,0.172-0.224,0.279-0.321c0.111-0.101,0.233-0.189,0.37-0.269
					c0.183-0.106,0.365-0.171,0.533-0.192c0.173-0.018,0.321,0.01,0.449,0.083c0.137,0.08,0.184,0.172,0.148,0.269
					c-0.041,0.101-0.162,0.213-0.375,0.336l-0.355,0.207l0.547,0.315l0.334-0.195c0.243-0.141,0.462-0.221,0.661-0.247
					c0.203-0.03,0.381,0.002,0.529,0.088c0.148,0.086,0.199,0.186,0.154,0.301c-0.04,0.111-0.172,0.236-0.395,0.366
					c-0.152,0.088-0.33,0.169-0.523,0.233c-0.198,0.067-0.417,0.123-0.651,0.171l0.659,0.38c0.213-0.064,0.427-0.137,0.625-0.221
					c0.193-0.084,0.375-0.172,0.548-0.271c0.478-0.277,0.756-0.54,0.836-0.782C288.839,209.383,288.716,209.165,288.389,208.976"/>
				<polygon clip-path="url(#SVGID_6_)" fill="#FFFFFF" points="290.805,208.661 289.948,208.166 289.155,208.625 290.014,209.121
									"/>
				<polygon clip-path="url(#SVGID_6_)" fill="#FFFFFF" points="293.957,206.83 293.37,206.49 292.623,206.924 289.901,205.352
					289.093,205.82 288.491,206.361 289.069,206.694 289.681,206.154 291.821,207.39 291.07,207.826 291.657,208.166 				"/>
				<path clip-path="url(#SVGID_6_)" fill="#FFFFFF" d="M296.879,205.131l-0.628-0.363l-1.446,0.841l0.083-0.764
					c0.039-0.324,0.022-0.558-0.045-0.702c-0.057-0.145-0.18-0.269-0.359-0.372c-0.317-0.182-0.668-0.257-1.06-0.229
					c-0.392,0.026-0.783,0.153-1.179,0.383c-0.178,0.103-0.345,0.218-0.502,0.344c-0.147,0.127-0.294,0.266-0.415,0.413l0.725,0.419
					c0.065-0.168,0.151-0.312,0.247-0.439c0.101-0.124,0.223-0.224,0.355-0.301c0.172-0.1,0.355-0.153,0.548-0.16
					c0.199-0.002,0.376,0.036,0.535,0.127c0.097,0.056,0.169,0.127,0.21,0.215c0.042,0.083,0.062,0.183,0.052,0.301l-0.139,1.313
					l0.628,0.362L296.879,205.131"/>
				<path clip-path="url(#SVGID_6_)" fill="#FFFFFF" d="M300.401,219.31l-0.685-0.396c-0.052,0.153-0.127,0.292-0.229,0.409
					c-0.1,0.118-0.232,0.225-0.404,0.324c-0.3,0.174-0.639,0.254-1.006,0.242c-0.372-0.008-0.724-0.111-1.065-0.309
					c-0.344-0.198-0.527-0.404-0.544-0.62c-0.021-0.212,0.115-0.41,0.415-0.583c0.173-0.102,0.355-0.178,0.558-0.237
					c0.205-0.059,0.438-0.105,0.708-0.132l-0.691-0.398c-0.234,0.047-0.458,0.105-0.671,0.178c-0.208,0.072-0.406,0.164-0.589,0.271
					c-0.548,0.319-0.831,0.661-0.839,1.026c-0.013,0.363,0.248,0.695,0.779,1.002c0.526,0.305,1.103,0.455,1.729,0.445
					c0.625-0.008,1.219-0.17,1.769-0.489c0.182-0.106,0.34-0.222,0.461-0.345C300.225,219.578,300.324,219.449,300.401,219.31"/>
				<path clip-path="url(#SVGID_6_)" fill="#FFFFFF" d="M302.579,217.168c-0.22-0.126-0.466-0.198-0.72-0.215
					c-0.255-0.013-0.525,0.026-0.804,0.124c0.146-0.145,0.211-0.283,0.19-0.413c-0.024-0.133-0.133-0.254-0.321-0.363
					c-0.288-0.165-0.608-0.227-0.96-0.183c-0.355,0.041-0.746,0.186-1.173,0.434c-0.158,0.092-0.304,0.194-0.452,0.304
					c-0.136,0.109-0.269,0.227-0.39,0.351l0.623,0.359c0.086-0.113,0.178-0.221,0.284-0.318c0.111-0.1,0.229-0.191,0.365-0.271
					c0.182-0.106,0.364-0.171,0.538-0.188c0.167-0.021,0.32,0.008,0.448,0.082c0.139,0.08,0.185,0.172,0.15,0.27
					c-0.041,0.1-0.168,0.208-0.38,0.332l-0.356,0.207l0.552,0.318l0.334-0.195c0.244-0.142,0.463-0.221,0.661-0.247
					c0.203-0.03,0.377,0,0.529,0.089c0.148,0.084,0.2,0.186,0.155,0.301c-0.039,0.111-0.172,0.235-0.394,0.365
					c-0.153,0.088-0.332,0.168-0.525,0.232c-0.198,0.068-0.416,0.125-0.65,0.172l0.658,0.38c0.216-0.065,0.422-0.14,0.627-0.222
					c0.191-0.082,0.375-0.17,0.548-0.271c0.477-0.276,0.755-0.539,0.836-0.781C303.029,217.576,302.904,217.357,302.579,217.168"/>
				<polygon clip-path="url(#SVGID_6_)" fill="#FFFFFF" points="304.995,216.853 304.137,216.357 303.345,216.818 304.204,217.313
									"/>
				<polygon clip-path="url(#SVGID_6_)" fill="#FFFFFF" points="308.146,215.021 307.559,214.683 306.813,215.117 304.09,213.544
					303.284,214.013 302.675,214.55 303.258,214.886 303.87,214.347 306.011,215.582 305.261,216.019 305.848,216.357 				"/>
				<polygon clip-path="url(#SVGID_6_)" fill="#FFFFFF" points="311.149,213.275 310.563,212.937 309.811,213.375 307.09,211.801
					306.289,212.267 305.68,212.804 306.262,213.141 306.87,212.603 309.009,213.839 308.266,214.273 308.852,214.611 				"/>
				<path clip-path="url(#SVGID_6_)" fill="#FFFFFF" d="M314.688,227.558l-0.685-0.396c-0.05,0.154-0.132,0.289-0.233,0.408
					c-0.1,0.117-0.232,0.224-0.404,0.324c-0.299,0.174-0.635,0.256-1.006,0.242c-0.372-0.01-0.724-0.112-1.066-0.311
					c-0.344-0.197-0.526-0.403-0.543-0.618c-0.022-0.214,0.12-0.407,0.42-0.582c0.172-0.101,0.354-0.177,0.552-0.239
					c0.204-0.059,0.443-0.102,0.709-0.132l-0.686-0.396c-0.239,0.045-0.463,0.104-0.671,0.178c-0.207,0.073-0.406,0.164-0.59,0.271
					c-0.547,0.317-0.83,0.66-0.844,1.023c-0.013,0.361,0.248,0.695,0.779,1.002c0.526,0.304,1.102,0.453,1.729,0.445
					c0.631-0.006,1.222-0.17,1.769-0.49c0.183-0.105,0.341-0.221,0.467-0.342C314.511,227.826,314.61,227.696,314.688,227.558"/>
				<path clip-path="url(#SVGID_6_)" fill="#FFFFFF" d="M316.859,225.414c-0.219-0.127-0.46-0.194-0.715-0.213
					c-0.259-0.014-0.529,0.025-0.808,0.121c0.146-0.145,0.211-0.282,0.19-0.412c-0.02-0.131-0.128-0.252-0.321-0.363
					c-0.288-0.164-0.604-0.225-0.96-0.184c-0.355,0.043-0.742,0.189-1.168,0.438c-0.158,0.092-0.309,0.191-0.457,0.301
					c-0.136,0.109-0.269,0.227-0.389,0.352l0.627,0.363c0.081-0.119,0.173-0.226,0.279-0.322c0.111-0.102,0.232-0.189,0.37-0.268
					c0.182-0.107,0.366-0.172,0.533-0.193c0.172-0.018,0.32,0.01,0.448,0.084c0.138,0.078,0.185,0.17,0.15,0.268
					c-0.041,0.1-0.163,0.213-0.375,0.336l-0.356,0.207l0.547,0.315l0.334-0.195c0.244-0.142,0.463-0.22,0.661-0.247
					c0.203-0.029,0.381,0.002,0.529,0.088s0.2,0.186,0.155,0.301c-0.039,0.112-0.172,0.236-0.394,0.366
					c-0.153,0.089-0.332,0.168-0.525,0.233c-0.198,0.067-0.416,0.123-0.65,0.17l0.658,0.381c0.216-0.064,0.428-0.136,0.627-0.221
					c0.191-0.083,0.375-0.172,0.548-0.271c0.477-0.277,0.755-0.539,0.836-0.781C317.311,225.821,317.186,225.603,316.859,225.414"/>
				<polygon clip-path="url(#SVGID_6_)" fill="#FFFFFF" points="319.276,225.098 318.418,224.603 317.626,225.063 318.485,225.558
									"/>
				<polygon clip-path="url(#SVGID_6_)" fill="#FFFFFF" points="322.426,223.267 321.84,222.927 321.094,223.361 318.371,221.79
					317.565,222.258 316.961,222.798 317.539,223.13 318.151,222.591 320.292,223.828 319.542,224.263 320.128,224.603 				"/>
				<path clip-path="url(#SVGID_6_)" fill="#FFFFFF" d="M322.011,221.591c-0.414-0.238-0.671-0.434-0.763-0.574
					c-0.088-0.145-0.042-0.266,0.141-0.372s0.396-0.136,0.641-0.083c0.245,0.055,0.581,0.201,0.997,0.439
					c0.417,0.242,0.669,0.434,0.766,0.578c0.087,0.145,0.047,0.269-0.135,0.375c-0.185,0.105-0.396,0.129-0.646,0.08
					C322.761,221.978,322.43,221.833,322.011,221.591 M323.878,220.513c-0.552-0.318-1.093-0.496-1.627-0.528
					c-0.529-0.036-1.014,0.073-1.445,0.324c-0.431,0.251-0.617,0.53-0.555,0.837c0.058,0.311,0.366,0.623,0.917,0.941
					c0.547,0.315,1.088,0.492,1.622,0.525c0.534,0.037,1.018-0.072,1.448-0.322c0.432-0.251,0.619-0.531,0.551-0.84
					C324.73,221.14,324.425,220.828,323.878,220.513"/>
				<path clip-path="url(#SVGID_6_)" fill="#FFFFFF" d="M329.914,236.348l-0.685-0.395c-0.052,0.153-0.127,0.292-0.233,0.407
					c-0.1,0.117-0.232,0.223-0.404,0.324c-0.299,0.174-0.635,0.256-1.002,0.244c-0.371-0.008-0.728-0.115-1.07-0.312
					c-0.344-0.197-0.523-0.4-0.543-0.619c-0.022-0.213,0.12-0.407,0.418-0.582c0.172-0.1,0.356-0.176,0.56-0.235
					c0.203-0.059,0.438-0.105,0.702-0.136l-0.685-0.395c-0.239,0.045-0.464,0.104-0.672,0.178c-0.208,0.072-0.405,0.164-0.589,0.271
					c-0.547,0.317-0.832,0.661-0.844,1.023c-0.008,0.366,0.253,0.698,0.779,1.003c0.531,0.307,1.102,0.454,1.732,0.447
					c0.627-0.008,1.218-0.173,1.765-0.492c0.183-0.105,0.341-0.221,0.467-0.342C329.737,236.617,329.837,236.488,329.914,236.348"/>
				<path clip-path="url(#SVGID_6_)" fill="#FFFFFF" d="M332.09,234.208c-0.219-0.126-0.464-0.198-0.719-0.216
					c-0.259-0.014-0.524,0.027-0.808,0.121c0.146-0.145,0.216-0.279,0.189-0.412c-0.019-0.13-0.127-0.251-0.322-0.363
					c-0.281-0.162-0.602-0.224-0.958-0.184c-0.352,0.045-0.742,0.189-1.168,0.438c-0.158,0.092-0.31,0.191-0.452,0.304
					c-0.138,0.109-0.269,0.227-0.389,0.351l0.622,0.359c0.081-0.117,0.172-0.223,0.279-0.32c0.109-0.101,0.232-0.189,0.37-0.269
					c0.182-0.106,0.364-0.171,0.538-0.188c0.167-0.021,0.315,0.006,0.443,0.079c0.138,0.079,0.185,0.171,0.15,0.269
					c-0.036,0.104-0.163,0.212-0.377,0.336l-0.354,0.207l0.552,0.318l0.334-0.195c0.244-0.142,0.458-0.224,0.661-0.247
					c0.203-0.03,0.376,0,0.529,0.089c0.144,0.082,0.195,0.182,0.155,0.301c-0.039,0.111-0.172,0.235-0.396,0.365
					c-0.151,0.088-0.33,0.168-0.523,0.232c-0.198,0.068-0.416,0.125-0.655,0.168l0.658,0.381c0.221-0.062,0.427-0.137,0.625-0.221
					c0.198-0.08,0.377-0.172,0.55-0.271c0.477-0.277,0.76-0.537,0.835-0.782C332.542,234.615,332.417,234.396,332.09,234.208"/>
				<polygon clip-path="url(#SVGID_6_)" fill="#FFFFFF" points="334.508,233.892 333.649,233.396 332.857,233.857 333.717,234.352
									"/>
				<path clip-path="url(#SVGID_6_)" fill="#FFFFFF" d="M334.237,232.125c-0.414-0.239-0.669-0.427-0.757-0.573
					c-0.094-0.141-0.048-0.268,0.132-0.371c0.181-0.105,0.399-0.133,0.644-0.079c0.245,0.054,0.578,0.196,0.992,0.437
					c0.417,0.242,0.674,0.438,0.768,0.578c0.097,0.145,0.051,0.271-0.132,0.377c-0.177,0.104-0.396,0.131-0.646,0.074
					C334.988,232.517,334.656,232.367,334.237,232.125 M336.1,231.048c-0.547-0.316-1.086-0.492-1.627-0.527
					c-0.529-0.035-1.014,0.074-1.445,0.324c-0.431,0.25-0.617,0.531-0.555,0.838c0.069,0.31,0.371,0.625,0.918,0.941
					c0.551,0.318,1.097,0.492,1.626,0.527c0.53,0.035,1.013-0.074,1.444-0.324c0.431-0.252,0.618-0.531,0.556-0.838
					C336.959,231.68,336.651,231.368,336.1,231.048"/>
				<path clip-path="url(#SVGID_6_)" fill="#FFFFFF" d="M336.639,230.05c-0.193-0.113-0.302-0.217-0.322-0.316
					c-0.026-0.104,0.039-0.194,0.188-0.28c0.146-0.085,0.304-0.124,0.481-0.109c0.174,0.012,0.352,0.074,0.547,0.187
					c0.189,0.109,0.302,0.215,0.322,0.314c0.021,0.101-0.046,0.191-0.19,0.277c-0.148,0.086-0.305,0.125-0.48,0.112
					C337.011,230.223,336.828,230.158,336.639,230.05 M338.987,229.324c-0.531-0.307-1.062-0.477-1.586-0.51
					c-0.525-0.033-1.003,0.08-1.43,0.327c-0.386,0.224-0.588,0.466-0.602,0.723c-0.019,0.259,0.156,0.489,0.508,0.692
					c0.323,0.187,0.685,0.277,1.092,0.271c0.401-0.003,0.772-0.105,1.108-0.301c0.131-0.076,0.232-0.159,0.313-0.248
					c0.077-0.084,0.125-0.18,0.15-0.282c0.256,0.177,0.38,0.348,0.375,0.511c0.006,0.162-0.119,0.317-0.374,0.465
					c-0.121,0.071-0.259,0.133-0.41,0.186c-0.158,0.051-0.336,0.101-0.528,0.143l0.606,0.35c0.178-0.049,0.355-0.111,0.519-0.176
					c0.162-0.071,0.318-0.15,0.477-0.242c0.477-0.277,0.7-0.584,0.662-0.923C339.826,229.966,339.534,229.64,338.987,229.324"/>
				<path clip-path="url(#SVGID_6_)" fill="#FFFFFF" d="M340.506,242.464l-0.683-0.395c-0.052,0.152-0.127,0.291-0.233,0.406
					c-0.1,0.118-0.232,0.225-0.404,0.324c-0.3,0.174-0.636,0.258-1.002,0.246c-0.371-0.01-0.729-0.116-1.07-0.312
					c-0.344-0.198-0.523-0.402-0.543-0.619c-0.022-0.213,0.12-0.408,0.418-0.582c0.172-0.1,0.356-0.177,0.56-0.236
					c0.203-0.059,0.438-0.105,0.702-0.136l-0.687-0.395c-0.239,0.044-0.462,0.103-0.67,0.177s-0.406,0.166-0.589,0.271
					c-0.549,0.318-0.832,0.66-0.846,1.023c-0.006,0.365,0.255,0.699,0.781,1.002c0.529,0.308,1.102,0.455,1.732,0.449
					c0.627-0.01,1.216-0.174,1.765-0.493c0.183-0.106,0.341-0.222,0.466-0.343C340.329,242.732,340.431,242.603,340.506,242.464"/>
				<path clip-path="url(#SVGID_6_)" fill="#FFFFFF" d="M342.684,240.324c-0.219-0.127-0.464-0.197-0.719-0.215
					c-0.261-0.016-0.524,0.025-0.809,0.121c0.146-0.145,0.217-0.281,0.19-0.414c-0.021-0.129-0.128-0.25-0.322-0.362
					c-0.281-0.163-0.602-0.224-0.958-0.183c-0.352,0.045-0.742,0.189-1.168,0.436c-0.158,0.092-0.31,0.192-0.452,0.305
					c-0.138,0.109-0.269,0.227-0.391,0.352l0.624,0.359c0.081-0.119,0.172-0.225,0.279-0.322c0.109-0.1,0.232-0.188,0.369-0.268
					c0.183-0.107,0.365-0.172,0.539-0.189c0.167-0.021,0.315,0.006,0.441,0.08c0.138,0.079,0.187,0.172,0.15,0.268
					c-0.034,0.104-0.161,0.213-0.375,0.336l-0.354,0.207l0.552,0.318l0.334-0.194c0.244-0.142,0.456-0.224,0.659-0.247
					c0.205-0.03,0.378,0,0.531,0.088c0.143,0.082,0.195,0.183,0.155,0.301c-0.041,0.112-0.172,0.236-0.396,0.365
					c-0.153,0.09-0.33,0.169-0.523,0.232c-0.198,0.068-0.416,0.125-0.655,0.17l0.658,0.379c0.219-0.061,0.427-0.135,0.625-0.221
					c0.198-0.079,0.375-0.17,0.549-0.271c0.477-0.277,0.761-0.535,0.836-0.781C343.134,240.73,343.011,240.512,342.684,240.324"/>
				<polygon clip-path="url(#SVGID_6_)" fill="#FFFFFF" points="345.1,240.008 344.242,239.512 343.449,239.972 344.309,240.468
									"/>
				<path clip-path="url(#SVGID_6_)" fill="#FFFFFF" d="M344.831,238.242c-0.414-0.238-0.669-0.428-0.757-0.572
					c-0.094-0.142-0.048-0.268,0.13-0.371c0.183-0.106,0.401-0.133,0.646-0.08c0.247,0.053,0.576,0.197,0.99,0.436
					c0.419,0.242,0.676,0.438,0.77,0.578c0.097,0.145,0.051,0.272-0.132,0.379c-0.178,0.104-0.396,0.129-0.646,0.073
					C345.581,238.634,345.25,238.484,344.831,238.242 M346.693,237.166c-0.547-0.316-1.086-0.492-1.627-0.528
					c-0.529-0.035-1.014,0.074-1.445,0.324c-0.431,0.251-0.617,0.531-0.555,0.839c0.069,0.309,0.371,0.625,0.918,0.939
					c0.551,0.318,1.097,0.492,1.626,0.527c0.53,0.037,1.013-0.072,1.444-0.324c0.431-0.25,0.618-0.529,0.556-0.837
					C347.551,237.796,347.245,237.484,346.693,237.166"/>
				<path clip-path="url(#SVGID_6_)" fill="#FFFFFF" d="M347.149,236.005c-0.133-0.076-0.193-0.152-0.188-0.238
					c0-0.082,0.07-0.165,0.203-0.242c0.131-0.076,0.269-0.114,0.415-0.117c0.138-0.004,0.275,0.035,0.408,0.111
					c0.134,0.078,0.193,0.154,0.195,0.236c-0.005,0.086-0.072,0.166-0.203,0.242c-0.132,0.076-0.273,0.117-0.416,0.117
					C347.415,236.119,347.282,236.083,347.149,236.005 M348.529,236.884c-0.162-0.094-0.25-0.191-0.252-0.291
					c0-0.101,0.082-0.195,0.238-0.287c0.157-0.09,0.32-0.138,0.488-0.135c0.172,0,0.341,0.051,0.505,0.145
					c0.163,0.094,0.245,0.188,0.247,0.289c0.005,0.098-0.076,0.191-0.232,0.283c-0.158,0.092-0.32,0.139-0.494,0.139
					S348.693,236.98,348.529,236.884 M350.352,235.875c-0.21-0.121-0.444-0.193-0.699-0.205c-0.25-0.014-0.519,0.025-0.805,0.119
					c0.14-0.15,0.199-0.292,0.172-0.426c-0.026-0.132-0.128-0.25-0.318-0.359c-0.279-0.162-0.597-0.227-0.947-0.189
					c-0.355,0.037-0.727,0.17-1.128,0.402c-0.399,0.232-0.633,0.451-0.688,0.654c-0.06,0.207,0.042,0.389,0.324,0.552
					c0.188,0.108,0.393,0.169,0.621,0.183c0.229,0.016,0.475-0.02,0.732-0.101c-0.161,0.165-0.227,0.321-0.2,0.466
					c0.021,0.147,0.144,0.283,0.354,0.404c0.333,0.191,0.683,0.271,1.07,0.242s0.794-0.172,1.22-0.42
					c0.426-0.247,0.664-0.48,0.715-0.704C350.823,236.269,350.684,236.066,350.352,235.875"/>
				<path clip-path="url(#SVGID_6_)" fill="#FFFFFF" d="M351.289,248.689l-0.684-0.395c-0.051,0.154-0.126,0.292-0.228,0.41
					c-0.106,0.115-0.237,0.221-0.409,0.322c-0.301,0.173-0.637,0.256-1.002,0.244c-0.372-0.009-0.729-0.115-1.072-0.312
					c-0.342-0.197-0.521-0.4-0.543-0.619c-0.021-0.213,0.12-0.408,0.42-0.582c0.172-0.1,0.354-0.176,0.558-0.236
					c0.205-0.059,0.438-0.105,0.703-0.135l-0.686-0.395c-0.239,0.044-0.463,0.103-0.671,0.177c-0.207,0.073-0.406,0.165-0.589,0.271
					c-0.548,0.319-0.831,0.662-0.839,1.027c-0.013,0.362,0.248,0.695,0.773,0.999c0.531,0.308,1.107,0.457,1.734,0.448
					c0.627-0.008,1.216-0.174,1.763-0.492c0.185-0.107,0.341-0.222,0.467-0.342C351.112,248.958,351.214,248.829,351.289,248.689"/>
				<path clip-path="url(#SVGID_6_)" fill="#FFFFFF" d="M353.467,246.548c-0.219-0.126-0.466-0.197-0.719-0.216
					c-0.261-0.013-0.525,0.027-0.81,0.122c0.151-0.142,0.218-0.281,0.19-0.412c-0.02-0.131-0.128-0.252-0.321-0.363
					c-0.281-0.162-0.602-0.225-0.955-0.182c-0.354,0.043-0.745,0.188-1.172,0.434c-0.157,0.093-0.31,0.193-0.451,0.305
					c-0.138,0.109-0.269,0.227-0.391,0.352l0.622,0.359c0.082-0.117,0.173-0.224,0.279-0.321c0.111-0.101,0.234-0.188,0.37-0.269
					c0.183-0.105,0.366-0.17,0.539-0.188c0.167-0.021,0.32,0.009,0.442,0.079c0.138,0.08,0.186,0.172,0.15,0.269
					c-0.035,0.104-0.161,0.212-0.375,0.337l-0.355,0.206l0.551,0.317l0.336-0.193c0.243-0.143,0.456-0.225,0.659-0.248
					c0.203-0.029,0.376,0,0.531,0.089c0.142,0.083,0.193,0.183,0.154,0.301c-0.04,0.112-0.172,0.235-0.396,0.366
					c-0.152,0.088-0.331,0.168-0.523,0.232c-0.198,0.068-0.417,0.124-0.656,0.168l0.66,0.381c0.219-0.062,0.426-0.137,0.623-0.222
					c0.2-0.079,0.377-0.171,0.55-0.272c0.477-0.275,0.76-0.535,0.836-0.781C353.917,246.957,353.793,246.738,353.467,246.548"/>
				<polygon clip-path="url(#SVGID_6_)" fill="#FFFFFF" points="355.883,246.234 355.024,245.738 354.232,246.197 355.092,246.693
									"/>
				<path clip-path="url(#SVGID_6_)" fill="#FFFFFF" d="M355.613,244.466c-0.414-0.238-0.67-0.427-0.756-0.572
					c-0.094-0.141-0.049-0.268,0.13-0.371c0.183-0.105,0.401-0.133,0.646-0.08c0.245,0.054,0.576,0.198,0.99,0.438
					c0.419,0.241,0.675,0.437,0.768,0.578c0.097,0.144,0.051,0.271-0.132,0.377c-0.177,0.104-0.396,0.13-0.646,0.074
					C356.363,244.859,356.032,244.708,355.613,244.466 M357.477,243.39c-0.547-0.315-1.088-0.492-1.622-0.525
					c-0.534-0.037-1.019,0.072-1.45,0.322c-0.432,0.251-0.617,0.531-0.55,0.841c0.063,0.306,0.365,0.622,0.911,0.938
					c0.553,0.319,1.097,0.492,1.628,0.527c0.529,0.036,1.013-0.073,1.443-0.324c0.432-0.251,0.619-0.53,0.555-0.837
					C358.334,244.021,358.027,243.708,357.477,243.39"/>
				<polygon clip-path="url(#SVGID_6_)" fill="#FFFFFF" points="359.157,241.052 358.678,240.775 356.201,242.214 356.829,242.576
					358.412,241.657 359.881,243.91 360.709,243.429 				"/>
				<path clip-path="url(#SVGID_6_)" fill="#FFFFFF" d="M366.612,257.537l-0.685-0.396c-0.05,0.153-0.125,0.292-0.227,0.41
					c-0.106,0.114-0.239,0.222-0.411,0.321c-0.298,0.174-0.634,0.257-1.001,0.245c-0.371-0.009-0.729-0.114-1.07-0.312
					c-0.343-0.198-0.522-0.401-0.544-0.62c-0.021-0.212,0.12-0.406,0.42-0.58c0.172-0.101,0.354-0.178,0.558-0.236
					c0.205-0.059,0.438-0.105,0.702-0.135l-0.685-0.396c-0.239,0.045-0.463,0.104-0.67,0.178c-0.208,0.074-0.406,0.165-0.59,0.271
					c-0.548,0.319-0.832,0.661-0.84,1.027c-0.012,0.362,0.25,0.695,0.774,0.999c0.531,0.307,1.108,0.457,1.733,0.449
					c0.626-0.01,1.217-0.175,1.764-0.494c0.185-0.105,0.341-0.221,0.467-0.341C366.436,257.805,366.535,257.675,366.612,257.537"/>
				<path clip-path="url(#SVGID_6_)" fill="#FFFFFF" d="M368.789,255.396c-0.219-0.127-0.465-0.197-0.718-0.217
					c-0.261-0.014-0.524,0.027-0.81,0.122c0.152-0.142,0.216-0.28,0.191-0.413c-0.021-0.129-0.13-0.25-0.322-0.363
					c-0.283-0.161-0.604-0.224-0.955-0.18c-0.355,0.042-0.746,0.187-1.172,0.434c-0.157,0.092-0.311,0.191-0.453,0.305
					c-0.136,0.109-0.269,0.227-0.389,0.351l0.622,0.359c0.083-0.117,0.172-0.224,0.279-0.321c0.111-0.1,0.233-0.189,0.37-0.268
					c0.182-0.106,0.366-0.172,0.539-0.189c0.168-0.021,0.32,0.009,0.442,0.08c0.138,0.08,0.185,0.171,0.15,0.268
					c-0.036,0.104-0.163,0.213-0.375,0.337l-0.354,0.206l0.55,0.318l0.334-0.195c0.245-0.141,0.458-0.223,0.661-0.247
					c0.203-0.03,0.377,0,0.529,0.089c0.145,0.083,0.195,0.184,0.156,0.301c-0.04,0.111-0.172,0.236-0.395,0.365
					c-0.153,0.089-0.332,0.168-0.523,0.233c-0.199,0.067-0.418,0.124-0.656,0.168l0.659,0.38c0.219-0.061,0.427-0.135,0.623-0.221
					c0.198-0.08,0.377-0.171,0.549-0.271c0.478-0.277,0.761-0.536,0.837-0.781C369.24,255.802,369.117,255.583,368.789,255.396"/>
				<polygon clip-path="url(#SVGID_6_)" fill="#FFFFFF" points="371.206,255.08 370.348,254.585 369.556,255.044 370.415,255.541
									"/>
				<path clip-path="url(#SVGID_6_)" fill="#FFFFFF" d="M370.938,253.314c-0.414-0.239-0.669-0.428-0.758-0.572
					c-0.093-0.143-0.047-0.269,0.131-0.371c0.183-0.107,0.401-0.133,0.646-0.08c0.245,0.053,0.576,0.197,0.99,0.437
					c0.419,0.241,0.674,0.437,0.768,0.578c0.097,0.144,0.053,0.271-0.132,0.378c-0.176,0.103-0.396,0.129-0.645,0.072
					C371.688,253.707,371.354,253.555,370.938,253.314 M372.8,252.238c-0.549-0.316-1.088-0.492-1.622-0.525
					c-0.536-0.039-1.019,0.07-1.45,0.322c-0.431,0.25-0.617,0.529-0.55,0.84c0.062,0.307,0.365,0.622,0.911,0.938
					c0.553,0.318,1.097,0.492,1.626,0.527c0.531,0.036,1.013-0.073,1.444-0.324c0.431-0.25,0.62-0.53,0.556-0.838
					C373.657,252.869,373.35,252.556,372.8,252.238"/>
				<path clip-path="url(#SVGID_6_)" fill="#FFFFFF" d="M374.67,251.848c-0.193-0.112-0.307-0.218-0.328-0.319
					c-0.026-0.098,0.041-0.188,0.188-0.273c0.151-0.088,0.31-0.127,0.482-0.114c0.169,0.015,0.354,0.079,0.547,0.19
					c0.192,0.113,0.302,0.216,0.327,0.312c0.021,0.102-0.046,0.192-0.197,0.281c-0.146,0.086-0.305,0.123-0.474,0.107
					C375.042,252.021,374.865,251.96,374.67,251.848 M376.32,250.825c-0.322-0.187-0.685-0.277-1.086-0.274
					c-0.403,0.009-0.78,0.109-1.114,0.305c-0.132,0.076-0.239,0.161-0.314,0.247c-0.076,0.085-0.126,0.18-0.151,0.276
					c-0.255-0.176-0.385-0.344-0.38-0.506c-0.001-0.165,0.122-0.318,0.374-0.467c0.118-0.068,0.254-0.129,0.412-0.18
					c0.156-0.057,0.341-0.104,0.544-0.145l-0.612-0.354c-0.185,0.053-0.361,0.115-0.528,0.183s-0.327,0.147-0.479,0.235
					c-0.477,0.277-0.693,0.588-0.656,0.926c0.038,0.34,0.33,0.667,0.875,0.982c0.536,0.31,1.062,0.478,1.588,0.51
					c0.523,0.033,0.997-0.076,1.428-0.326c0.386-0.225,0.588-0.467,0.608-0.721C376.845,251.258,376.672,251.029,376.32,250.825"/>
			</g>
		</g>
	</g>
</g>
<g>
	<g>
		<g enable-background="new    ">
			<defs>
				<polygon id="SVGID_7_" enable-background="new    " points="176.635,173.797 183.46,169.831 190.336,173.801 183.511,177.768
									"/>
			</defs>
			<clipPath id="SVGID_8_">
				<use xlink:href="#SVGID_7_"  overflow="visible"/>
			</clipPath>
			<g clip-path="url(#SVGID_8_)">
				<g>
					<g>
						<g>
							<polyline fill="#FFFFFF" points="185.197,170.833 183.46,169.831 176.635,173.797 180.063,175.777 183.511,177.768
								185.236,176.765 183.519,175.773 185.219,174.785 183.508,173.797 185.208,172.809 183.497,171.821 185.197,170.833
								"/>
						</g>
					</g>
				</g>
			</g>
		</g>
	</g>
</g>
<g>
	<g>
		<g enable-background="new    ">
			<defs>
				<polygon id="SVGID_9_" enable-background="new    " points="360.677,280.671 367.503,276.705 374.373,280.671 367.547,284.638
									"/>
			</defs>
			<clipPath id="SVGID_10_">
				<use xlink:href="#SVGID_9_"  overflow="visible"/>
			</clipPath>
			<g clip-path="url(#SVGID_10_)">
				<g>
					<g>
						<g>
							<polyline fill="#FFFFFF" points="369.233,277.705 367.503,276.705 360.677,280.671 364.1,282.648 367.547,284.638
								369.272,283.636 367.556,282.644 369.256,281.656 367.544,280.668 369.244,279.68 367.533,278.692 369.233,277.705
								"/>
						</g>
					</g>
				</g>
			</g>
		</g>
	</g>
</g>
<g>
	<polygon fill="#EC7404" stroke="#FFFFFF" stroke-width="0.5" points="312.837,-23.968 316.249,-23.968 314.68,-12.192 	"/>
	<circle fill="#EC7404" cx="314.543" cy="-33" r="9.731"/>
	<polygon fill="none" stroke="#FFFFFF" stroke-width="0.5" points="318.413,-35.826 314.543,-40.501 310.674,-35.826
		312.627,-35.826 312.627,-30.704 316.46,-30.704 316.46,-35.826 	"/>
	<text transform="matrix(1 0 0 1 312.876 -25.1196)" fill="#FFFFFF" font-family="'DejaVuSansCondensed-Bold'" font-size="5"></text>
</g>
<g>
	<polygon fill="#EC7404" stroke="#FFFFFF" stroke-width="0.5" points="338.409,-23.968 341.822,-23.968 340.252,-12.192 	"/>
	<circle fill="#EC7404" cx="340.116" cy="-33" r="9.731"/>
	<polygon fill="none" stroke="#FFFFFF" stroke-width="0.5" points="343.985,-35.826 340.115,-40.501 336.246,-35.826
		338.199,-35.826 338.199,-30.704 342.032,-30.704 342.032,-35.826 	"/>
	<rect x="338.429" y="-29.443" fill="none" width="8" height="3.833"/>
	<text transform="matrix(1 0 0 1 338.4297 -25.6436)" fill="#FFFFFF" font-family="'DejaVuSansCondensed-Bold'" font-size="5">P</text>
</g>
<g>
	<polygon fill="#EC7404" stroke="#FFFFFF" stroke-width="0.5" points="363.981,-23.968 367.394,-23.968 365.824,-12.192 	"/>
	<circle fill="#EC7404" cx="365.688" cy="-33" r="9.731"/>
	<polygon fill="none" stroke="#FFFFFF" stroke-width="0.5" points="369.558,-35.826 365.688,-40.501 361.818,-35.826
		363.771,-35.826 363.771,-30.704 367.604,-30.704 367.604,-35.826 	"/>
	<rect x="360.819" y="-29.442" fill="none" width="8" height="3.833"/>
	<text transform="matrix(1 0 0 1 360.8203 -25.6436)" fill="#FFFFFF" font-family="'DejaVuSansCondensed-Bold'" font-size="5"> EC</text>
</g>
<g>
	<polygon fill="#EC7404" stroke="#FFFFFF" stroke-width="0.5" points="415.003,-23.991 418.417,-23.991 416.847,-12.215 	"/>
	<g>
		<circle fill="#EC7404" cx="416.71" cy="-33" r="9.731"/>
		<g>
			<g>
				<path fill="none" stroke="#FFFFFF" stroke-width="0.5" d="M421.197-29.081c0,0.312-0.255,0.567-0.567,0.567h-7.839
					c-0.312,0-0.567-0.255-0.567-0.567v-7.84c0-0.312,0.255-0.567,0.567-0.567h7.839c0.312,0,0.567,0.255,0.567,0.567V-29.081z"/>
			</g>
			<polygon fill="#FFFFFF" points="413.152,-32.975 415.846,-29.744 420.287,-36.475 415.608,-31.057 			"/>
		</g>
	</g>
</g>
<g>
	<polygon fill="#EC7404" stroke="#FFFFFF" stroke-width="0.5" points="440.863,-23.991 444.277,-23.991 442.707,-12.215 	"/>
	<circle fill="#EC7404" cx="442.571" cy="-33" r="9.731"/>
	<g>
		<g>
			<path fill="#EC7404" d="M446.946-31.146c0,0.312-0.255,0.567-0.567,0.567h-9.54c-0.312,0-0.567-0.255-0.567-0.567V-36.6
				c0-0.312,0.255-0.567,0.567-0.567h9.54c0.312,0,0.567,0.255,0.567,0.567V-31.146z"/>
			<path fill="none" stroke="#FFFFFF" stroke-width="0.5" d="M446.946-31.146c0,0.312-0.255,0.567-0.567,0.567h-9.54
				c-0.312,0-0.567-0.255-0.567-0.567V-36.6c0-0.312,0.255-0.567,0.567-0.567h9.54c0.312,0,0.567,0.255,0.567,0.567V-31.146z"/>
		</g>
		<g>
			<path fill="#EC7404" d="M448.87-29.223c0,0.312-0.255,0.567-0.567,0.567h-9.54c-0.312,0-0.567-0.255-0.567-0.567v-5.454
				c0-0.312,0.255-0.567,0.567-0.567h9.54c0.312,0,0.567,0.255,0.567,0.567V-29.223z"/>
			<path fill="none" stroke="#FFFFFF" stroke-width="0.5" d="M448.87-29.223c0,0.312-0.255,0.567-0.567,0.567h-9.54
				c-0.312,0-0.567-0.255-0.567-0.567v-5.454c0-0.312,0.255-0.567,0.567-0.567h9.54c0.312,0,0.567,0.255,0.567,0.567V-29.223z"/>
		</g>
	</g>
</g>
<g>
	<polygon fill="#EC7404" stroke="#FFFFFF" stroke-width="0.5" points="287.264,-23.968 290.677,-23.968 289.107,-12.192 	"/>
	<circle fill="#EC7404" cx="288.97" cy="-33" r="9.731"/>
	<g>
		<path fill="#FFFFFF" d="M285.842-31.311h6.294v-0.557h-6.294V-31.311z M285.842-29.615h6.294v-0.557h-6.294V-29.615z
			 M285.842-34.658h6.294v-0.558h-6.294V-34.658z M285.842-32.993h6.294v-0.557h-6.294V-32.993z M292.842-27.685h-7.744v-11.183
			h5.521v2.222h2.223V-27.685z M284.54-27.125 M291.178-38.797l1.594,1.592h-1.594V-38.797z M291.336-39.427h-6.796v12.301h8.86
			v-10.239L291.336-39.427z"/>
	</g>
</g>
<g>
	<polygon fill="#EC7404" stroke="#FFFFFF" stroke-width="0.5" points="261.69,-23.968 265.104,-23.968 263.533,-12.192 	"/>
	<circle fill="#EC7404" cx="263.397" cy="-33.001" r="9.731"/>
	<g>
		<g>
			<path fill="#FFFFFF" d="M268.454-33.723c-0.002-0.272-0.025-0.522-0.083-0.758c-0.046-0.183-0.114-0.358-0.217-0.517
				c-0.152-0.24-0.387-0.429-0.656-0.535c-0.269-0.108-0.564-0.149-0.898-0.149c-0.295,0-0.563,0.033-0.811,0.114
				c-0.185,0.062-0.357,0.153-0.505,0.277c-0.223,0.186-0.377,0.438-0.463,0.709c-0.086,0.264-0.118,0.55-0.119,0.862l-0.569,4.806
				h1.198v2.099h0.97v-2.099h0.6v2.099h0.97v-2.099h1.204L268.454-33.723z"/>
			<path fill="#FFFFFF" d="M260.08-36.128c0.872,0,1.576-0.707,1.576-1.577c0-0.871-0.704-1.577-1.576-1.577
				c-0.87,0-1.575,0.706-1.576,1.577C258.505-36.834,259.21-36.128,260.08-36.128 M260.08-35.59c-1.305,0.001-2.36,1.057-2.36,2.361
				v2.469h1.092v3.943h0.969v-3.943h0.6v3.943h0.97v-3.943h1.091v-2.469C262.44-34.534,261.385-35.589,260.08-35.59"/>
		</g>
		<circle fill="#FFFFFF" cx="266.494" cy="-37.707" r="1.584"/>
	</g>
</g>
<g>
	<polygon fill="#EC7404" stroke="#FFFFFF" stroke-width="0.5" points="389.554,-23.968 392.967,-23.968 391.397,-12.192 	"/>
	<circle fill="#EC7404" cx="391.26" cy="-33" r="9.731"/>
	<text transform="matrix(1 0 0 1 389.501 -25.1196)" fill="#FFFFFF" font-family="'DejaVuSansCondensed-Bold'" font-size="5"></text>
	<polygon fill="none" stroke="#FFFFFF" stroke-width="0.5" points="387.342,-35.379 391.212,-30.704 395.081,-35.379
		393.128,-35.379 393.128,-40.501 389.295,-40.501 389.295,-35.379 	"/>
</g>
<g>
	<polygon fill="#EC7404" stroke="#FFFFFF" stroke-width="0.5" points="212.996,141.21 216.409,141.21 214.839,152.986 	"/>
	<circle fill="#EC7404" cx="214.703" cy="132.177" r="9.731"/>
	<g>
		<g>
			<path fill="#FFFFFF" d="M219.76,131.455c-0.002-0.272-0.025-0.522-0.083-0.758c-0.046-0.183-0.114-0.358-0.217-0.517
				c-0.152-0.24-0.387-0.429-0.656-0.535c-0.269-0.108-0.564-0.149-0.898-0.149c-0.295,0-0.563,0.033-0.811,0.114
				c-0.185,0.062-0.357,0.153-0.505,0.277c-0.223,0.186-0.377,0.438-0.463,0.709c-0.086,0.264-0.118,0.55-0.119,0.862l-0.569,4.806
				h1.198v2.099h0.97v-2.099h0.6v2.099h0.97v-2.099h1.204L219.76,131.455z"/>
			<path fill="#FFFFFF" d="M211.386,129.05c0.872,0,1.576-0.707,1.576-1.577c0-0.871-0.704-1.577-1.576-1.577
				c-0.87,0-1.575,0.706-1.576,1.577C209.811,128.344,210.516,129.05,211.386,129.05 M211.386,129.588
				c-1.305,0.001-2.36,1.057-2.36,2.361v2.469h1.092v3.943h0.969v-3.943h0.6v3.943h0.97v-3.943h1.091v-2.469
				C213.746,130.645,212.69,129.589,211.386,129.588"/>
		</g>
		<circle fill="#FFFFFF" cx="217.799" cy="127.471" r="1.584"/>
	</g>
</g>
<g>
	<polygon fill="#EC7404" stroke="#FFFFFF" stroke-width="0.5" points="401.996,251.21 405.409,251.21 403.839,262.986 	"/>
	<circle fill="#EC7404" cx="403.703" cy="242.177" r="9.731"/>
	<g>
		<g>
			<path fill="#FFFFFF" d="M408.76,241.455c-0.002-0.271-0.025-0.521-0.083-0.758c-0.046-0.183-0.114-0.357-0.217-0.516
				c-0.152-0.24-0.387-0.43-0.656-0.535c-0.269-0.109-0.564-0.149-0.898-0.15c-0.295,0-0.563,0.033-0.811,0.114
				c-0.185,0.062-0.357,0.153-0.505,0.276c-0.223,0.186-0.377,0.438-0.463,0.709c-0.086,0.265-0.118,0.551-0.119,0.862l-0.569,4.806
				h1.198v2.1h0.97v-2.1h0.6v2.1h0.97v-2.1h1.204L408.76,241.455z"/>
			<path fill="#FFFFFF" d="M400.386,239.05c0.872,0,1.576-0.707,1.576-1.576c0-0.871-0.704-1.577-1.576-1.577
				c-0.87,0-1.575,0.706-1.576,1.577C398.811,238.343,399.516,239.05,400.386,239.05 M400.386,239.587
				c-1.305,0.002-2.36,1.057-2.36,2.361v2.469h1.092v3.943h0.969v-3.943h0.6v3.943h0.97v-3.943h1.091v-2.469
				C402.746,240.644,401.69,239.589,400.386,239.587"/>
		</g>
		<circle fill="#FFFFFF" cx="406.799" cy="237.471" r="1.584"/>
	</g>
</g>
<g>
	<polygon fill="#EC7404" points="223.311,190.193 226.725,190.193 225.154,201.968 	"/>
	<circle fill="#EC7404" cx="225.018" cy="181.183" r="9.731"/>
	<g>
		<g>
			<path fill="none" stroke="#FFFFFF" stroke-width="0.5" d="M229.505,186.978c0,0.312-0.255,0.567-0.566,0.567h-7.84
				c-0.312,0-0.567-0.255-0.567-0.567v-11.507c0-0.312,0.255-0.567,0.567-0.567h7.84c0.312,0,0.566,0.255,0.566,0.567V186.978z"/>
		</g>
	</g>
	<path fill="#FFFFFF" d="M225.018,179.555c0.743,0,1.342-0.601,1.342-1.342s-0.599-1.342-1.342-1.342
		c-0.74,0-1.34,0.601-1.341,1.342C223.678,178.954,224.277,179.555,225.018,179.555 M225.018,180.013
		c-1.11,0-2.009,0.899-2.009,2.01v2.102h0.93v3.357h0.824v-3.357h0.511v3.357h0.825v-3.357h0.929v-2.102
		C227.027,180.912,226.129,180.014,225.018,180.013"/>
</g>
</svg>
