<?xml version="1.0" encoding="utf-8"?>
<!-- Generator: Adobe Illustrator 16.0.0, SVG Export Plug-In . SVG Version: 6.00 Build 0)  -->
<!DOCTYPE svg PUBLIC "-//W3C//DTD SVG 1.1//EN" "http://www.w3.org/Graphics/SVG/1.1/DTD/svg11.dtd">
<svg version="1.1" id="Ebene_1" xmlns="http://www.w3.org/2000/svg" xmlns:xlink="http://www.w3.org/1999/xlink" x="0px" y="0px"
	 width="595.275px" height="419.527px" viewBox="0 0 595.275 419.527" enable-background="new 0 0 595.275 419.527"
	 xml:space="preserve">
<g>
	<defs>
		<rect id="SVGID_1_" x="59.528" y="41.953" width="476.22" height="335.621"/>
	</defs>
	<clipPath id="SVGID_2_">
		<use xlink:href="#SVGID_1_"  overflow="visible"/>
	</clipPath>
	<g clip-path="url(#SVGID_2_)">
		<defs>
			<rect id="SVGID_3_" x="120.453" y="134.782" width="313.283" height="181.161"/>
		</defs>
		<clipPath id="SVGID_4_">
			<use xlink:href="#SVGID_3_"  overflow="visible"/>
		</clipPath>
		<g clip-path="url(#SVGID_4_)">
			<defs>
				<polygon id="SVGID_5_" points="120.452,177.309 193.628,134.782 433.735,273.417 360.56,315.943 				"/>
			</defs>
			<clipPath id="SVGID_6_">
				<use xlink:href="#SVGID_5_"  overflow="visible"/>
			</clipPath>
			<path clip-path="url(#SVGID_6_)" fill="#BED5E5" d="M189.993,151.214c-0.414-0.239-0.741-0.386-0.984-0.439
				c-0.25-0.056-0.463-0.026-0.646,0.08c-0.184,0.105-0.229,0.226-0.135,0.374c0.092,0.142,0.342,0.333,0.756,0.572
				c0.419,0.241,0.751,0.386,1,0.442c0.25,0.049,0.463,0.026,0.646-0.08c0.183-0.106,0.223-0.229,0.131-0.371
				C190.667,151.646,190.412,151.457,189.993,151.214 M178.266,158.036c0.342,0.198,0.694,0.301,1.071,0.313
				c0.367,0.011,0.702-0.072,1.002-0.245c0.167-0.098,0.304-0.207,0.405-0.325c0.102-0.118,0.183-0.254,0.232-0.406l0.685,0.395
				c-0.076,0.138-0.177,0.268-0.304,0.389c-0.126,0.121-0.283,0.236-0.465,0.342c-0.549,0.319-1.139,0.483-1.764,0.492
				c-0.631,0.006-1.208-0.144-1.733-0.448c-0.531-0.306-0.787-0.637-0.78-1.002c0.014-0.363,0.297-0.705,0.845-1.024
				c0.184-0.106,0.381-0.197,0.589-0.271c0.209-0.074,0.432-0.133,0.671-0.177l0.686,0.395c-0.265,0.03-0.504,0.074-0.703,0.136
				c-0.203,0.058-0.39,0.138-0.557,0.236c-0.3,0.174-0.442,0.368-0.42,0.581C177.74,157.632,177.924,157.838,178.266,158.036
				 M182.667,156.668l1.446-0.841l0.624,0.36l-2.391,1.389l-0.623-0.36l0.135-1.315c0.009-0.118-0.006-0.222-0.048-0.304
				s-0.113-0.153-0.215-0.212c-0.153-0.089-0.331-0.133-0.53-0.124c-0.199,0.003-0.381,0.056-0.554,0.156
				c-0.132,0.077-0.253,0.177-0.35,0.304c-0.101,0.124-0.187,0.269-0.252,0.436l-0.726-0.417c0.127-0.15,0.268-0.286,0.421-0.416
				c0.152-0.124,0.319-0.239,0.501-0.346c0.39-0.227,0.783-0.354,1.173-0.38c0.393-0.026,0.749,0.049,1.061,0.229
				c0.179,0.103,0.302,0.228,0.358,0.372c0.067,0.144,0.083,0.377,0.045,0.702L182.667,156.668 M184.594,155.275l0.797-0.463
				l0.857,0.496l-0.797,0.463L184.594,155.275 M187.249,154.005l1.447-0.841l0.623,0.359l-2.39,1.389l-0.623-0.359l0.135-1.316
				c0.009-0.118-0.012-0.218-0.048-0.303c-0.042-0.083-0.114-0.154-0.215-0.213c-0.153-0.088-0.332-0.133-0.531-0.124
				c-0.198,0.003-0.381,0.056-0.553,0.157c-0.132,0.076-0.253,0.177-0.35,0.303c-0.101,0.124-0.187,0.269-0.252,0.437l-0.726-0.419
				c0.127-0.15,0.269-0.286,0.416-0.413c0.158-0.126,0.325-0.241,0.507-0.348c0.39-0.227,0.782-0.354,1.173-0.38
				c0.392-0.027,0.749,0.05,1.061,0.229c0.178,0.104,0.302,0.227,0.358,0.372c0.066,0.144,0.083,0.377,0.045,0.702L187.249,154.005
				 M188.142,152.297c-0.552-0.318-0.859-0.631-0.917-0.941c-0.062-0.306,0.124-0.586,0.555-0.836
				c0.432-0.251,0.915-0.361,1.444-0.325c0.53,0.035,1.075,0.21,1.627,0.528c0.547,0.315,0.849,0.631,0.916,0.94
				c0.063,0.307-0.123,0.587-0.555,0.838c-0.432,0.25-0.915,0.359-1.444,0.324C189.229,152.79,188.688,152.613,188.142,152.297
				 M217.628,148.64l-24-13.857l-44.266,25.725l24,13.858L217.628,148.64"/>
			<path clip-path="url(#SVGID_6_)" fill="#EC7404" d="M261.615,198.406c0.342,0.198,0.694,0.302,1.065,0.31
				c0.372,0.015,0.708-0.068,1.007-0.242c0.172-0.1,0.304-0.207,0.405-0.325c0.101-0.118,0.182-0.254,0.227-0.41l0.689,0.398
				c-0.081,0.136-0.182,0.265-0.303,0.389c-0.126,0.121-0.284,0.236-0.467,0.342c-0.547,0.318-1.137,0.484-1.768,0.49
				c-0.626,0.009-1.203-0.142-1.729-0.446c-0.531-0.306-0.792-0.639-0.779-1.002c0.012-0.363,0.291-0.708,0.839-1.026
				c0.183-0.106,0.381-0.197,0.595-0.269c0.208-0.074,0.432-0.132,0.671-0.176l0.684,0.395c-0.264,0.029-0.503,0.074-0.708,0.133
				c-0.203,0.059-0.385,0.136-0.558,0.236c-0.299,0.174-0.435,0.371-0.415,0.584C261.089,198.002,261.272,198.209,261.615,198.406
				 M266.011,197.035l1.447-0.841l0.629,0.363l-2.391,1.389l-0.628-0.362l0.14-1.312c0.004-0.122-0.006-0.221-0.047-0.304
				c-0.046-0.086-0.119-0.157-0.215-0.213c-0.158-0.091-0.332-0.133-0.535-0.127c-0.193,0.007-0.376,0.06-0.55,0.16
				c-0.131,0.076-0.252,0.177-0.35,0.298c-0.101,0.123-0.186,0.274-0.252,0.442l-0.725-0.419c0.126-0.15,0.268-0.286,0.42-0.416
				c0.152-0.124,0.314-0.241,0.498-0.348c0.39-0.227,0.786-0.357,1.184-0.381c0.387-0.024,0.738,0.051,1.05,0.23
				c0.184,0.105,0.306,0.229,0.369,0.371c0.062,0.147,0.079,0.381,0.045,0.703L266.011,197.035 M267.949,195.643l0.791-0.459
				l0.859,0.495l-0.792,0.461L267.949,195.643 M267.279,193.375l0.608-0.536l0.806-0.47l2.723,1.572l0.746-0.434l0.587,0.339
				l-2.298,1.336l-0.588-0.34l0.751-0.436l-2.14-1.236l-0.613,0.539L267.279,193.375 M271.397,191.526l0.51,0.294
				c0.051-0.046,0.102-0.094,0.158-0.138c0.055-0.044,0.117-0.086,0.188-0.126c0.401-0.234,0.812-0.354,1.24-0.366
				c0.423-0.015,0.815,0.083,1.178,0.292c0.357,0.207,0.517,0.44,0.472,0.696c-0.039,0.26-0.272,0.514-0.703,0.764
				c-0.188,0.109-0.391,0.204-0.609,0.289c-0.219,0.086-0.458,0.16-0.712,0.225l-0.675-0.389c0.291-0.044,0.534-0.098,0.748-0.163
				c0.208-0.062,0.386-0.135,0.528-0.218c0.208-0.122,0.319-0.245,0.333-0.372c0.015-0.126-0.057-0.239-0.231-0.339
				c-0.173-0.1-0.372-0.145-0.59-0.135c-0.22,0.008-0.428,0.076-0.636,0.198c-0.122,0.07-0.232,0.152-0.34,0.25
				c-0.111,0.1-0.207,0.215-0.299,0.345l-1.864-1.076l2.106-1.224l0.628,0.362L271.397,191.526 M293.171,192.258l-20.145-11.631
				l-28.829,16.753l20.145,11.631L293.171,192.258"/>
			<path clip-path="url(#SVGID_6_)" fill="#CFD1D2" d="M290.513,201.975l-1.384-0.799l0.455,1.339L290.513,201.975 M278.762,208.307
				c0.336,0.194,0.693,0.301,1.065,0.31c0.366,0.012,0.703-0.07,1.001-0.245c0.173-0.1,0.31-0.203,0.41-0.321
				c0.102-0.118,0.177-0.256,0.228-0.409l0.684,0.395c-0.076,0.139-0.176,0.268-0.303,0.39c-0.122,0.124-0.278,0.238-0.462,0.344
				c-0.547,0.318-1.142,0.48-1.769,0.49c-0.626,0.008-1.202-0.142-1.728-0.446c-0.531-0.306-0.792-0.64-0.78-1.002
				c0.008-0.366,0.292-0.708,0.84-1.026c0.183-0.106,0.381-0.198,0.589-0.271c0.213-0.071,0.432-0.133,0.671-0.178l0.69,0.398
				c-0.27,0.027-0.504,0.074-0.708,0.133c-0.203,0.06-0.386,0.135-0.558,0.236c-0.299,0.174-0.442,0.369-0.416,0.584
				C278.235,207.902,278.415,208.106,278.762,208.307 M283.158,206.936l1.447-0.84l0.628,0.362l-2.39,1.389l-0.629-0.363
				l0.135-1.315c0.009-0.117,0-0.217-0.047-0.303c-0.042-0.083-0.113-0.154-0.21-0.209c-0.157-0.091-0.331-0.133-0.535-0.126
				c-0.192,0.005-0.381,0.055-0.553,0.156c-0.132,0.077-0.249,0.18-0.345,0.301c-0.101,0.124-0.186,0.274-0.252,0.442l-0.73-0.421
				c0.131-0.147,0.274-0.283,0.425-0.413c0.152-0.124,0.315-0.242,0.498-0.348c0.39-0.228,0.786-0.357,1.179-0.383
				c0.391-0.021,0.743,0.053,1.055,0.233c0.184,0.105,0.306,0.229,0.368,0.371c0.062,0.148,0.074,0.377,0.045,0.701L283.158,206.936
				 M285.095,205.543l0.791-0.46l0.859,0.495l-0.792,0.46L285.095,205.543 M284.425,203.275l0.608-0.537l0.807-0.469l2.723,1.572
				l0.745-0.434l0.587,0.339l-2.298,1.336l-0.587-0.339l0.751-0.437l-2.141-1.235l-0.613,0.54L284.425,203.275 M288.944,202.756
				l-0.663-1.905l0.944-0.549l2.089,1.207l0.467-0.271l0.618,0.357l-0.466,0.271l0.602,0.348l-0.801,0.466l-0.604-0.348
				l-1.456,0.847L288.944,202.756 M304.5,198.799l-9.378-5.415l-28.829,16.753l9.378,5.415L304.5,198.799"/>
			<path clip-path="url(#SVGID_6_)" fill="#CFD1D2" d="M290.326,214.984c0.337,0.193,0.694,0.301,1.065,0.309
				c0.367,0.013,0.704-0.07,1.002-0.244c0.173-0.1,0.304-0.207,0.411-0.321c0.101-0.118,0.177-0.257,0.227-0.41l0.684,0.396
				c-0.076,0.139-0.177,0.268-0.303,0.389s-0.284,0.236-0.466,0.342c-0.548,0.319-1.138,0.484-1.764,0.492
				c-0.626,0.01-1.202-0.141-1.728-0.443c-0.531-0.308-0.794-0.641-0.78-1.004c0.009-0.365,0.292-0.707,0.84-1.026
				c0.183-0.106,0.38-0.196,0.588-0.271c0.209-0.074,0.433-0.133,0.672-0.178l0.684,0.395c-0.265,0.03-0.499,0.077-0.702,0.137
				c-0.204,0.059-0.386,0.136-0.559,0.236c-0.299,0.174-0.441,0.368-0.414,0.584C289.799,214.58,289.978,214.783,290.326,214.984
				 M294.721,213.613l1.446-0.842l0.629,0.363l-2.391,1.389l-0.627-0.363l0.135-1.314c0.01-0.117-0.001-0.219-0.047-0.303
				c-0.042-0.084-0.114-0.154-0.215-0.213c-0.154-0.088-0.327-0.13-0.531-0.125c-0.193,0.007-0.381,0.057-0.553,0.156
				c-0.133,0.077-0.249,0.182-0.345,0.301c-0.102,0.125-0.187,0.275-0.252,0.443l-0.73-0.422c0.131-0.147,0.268-0.285,0.425-0.413
				c0.147-0.126,0.314-0.241,0.498-0.348c0.39-0.228,0.786-0.356,1.178-0.384c0.392-0.02,0.744,0.053,1.055,0.232
				c0.179,0.104,0.302,0.229,0.369,0.373c0.057,0.145,0.072,0.377,0.045,0.701L294.721,213.613 M296.659,212.22l0.792-0.461
				l0.858,0.496l-0.792,0.46L296.659,212.22 M295.989,209.953l0.608-0.537l0.806-0.469l2.718,1.568l0.745-0.433l0.594,0.341
				l-2.3,1.336l-0.591-0.342l0.75-0.436l-2.135-1.234l-0.613,0.541L295.989,209.953 M301.95,208.067
				c0.284-0.093,0.55-0.135,0.804-0.118c0.262,0.015,0.499,0.089,0.721,0.215c0.325,0.189,0.453,0.404,0.375,0.646
				c-0.075,0.245-0.36,0.505-0.842,0.785c-0.168,0.098-0.345,0.188-0.548,0.271c-0.194,0.083-0.402,0.157-0.626,0.222l-0.658-0.381
				c0.239-0.044,0.457-0.1,0.655-0.168s0.372-0.145,0.523-0.233c0.229-0.133,0.356-0.253,0.399-0.369
				c0.041-0.118-0.015-0.215-0.159-0.297c-0.152-0.089-0.325-0.119-0.524-0.092c-0.197,0.027-0.422,0.11-0.66,0.248l-0.34,0.198
				l-0.552-0.318l0.36-0.21c0.213-0.124,0.34-0.233,0.374-0.33c0.036-0.104-0.016-0.192-0.155-0.271
				c-0.12-0.071-0.274-0.101-0.441-0.08c-0.173,0.018-0.351,0.08-0.534,0.187c-0.137,0.079-0.263,0.171-0.371,0.268
				c-0.101,0.101-0.196,0.209-0.276,0.322l-0.624-0.36c0.122-0.124,0.254-0.241,0.392-0.351c0.141-0.112,0.287-0.209,0.45-0.304
				c0.426-0.248,0.818-0.392,1.174-0.434c0.347-0.041,0.666,0.021,0.947,0.183c0.194,0.113,0.303,0.233,0.323,0.363
				C302.163,207.791,302.103,207.926,301.95,208.067 M315.834,205.343l-9.378-5.415l-28.828,16.755l9.377,5.414L315.834,205.343"/>
			<path clip-path="url(#SVGID_6_)" fill="#CFD1D2" d="M301.604,221.496c0.342,0.197,0.693,0.301,1.065,0.31
				c0.373,0.015,0.707-0.069,1.007-0.242c0.172-0.101,0.305-0.206,0.406-0.324c0.101-0.118,0.181-0.254,0.231-0.407l0.685,0.396
				c-0.076,0.138-0.177,0.269-0.305,0.39c-0.127,0.121-0.283,0.235-0.467,0.342c-0.547,0.318-1.137,0.483-1.768,0.488
				c-0.627,0.01-1.203-0.141-1.729-0.445c-0.531-0.306-0.792-0.639-0.78-1.002c0.014-0.363,0.292-0.707,0.839-1.026
				c0.184-0.106,0.387-0.194,0.595-0.269c0.209-0.074,0.433-0.133,0.672-0.177l0.685,0.396c-0.264,0.029-0.504,0.074-0.708,0.133
				c-0.203,0.059-0.38,0.139-0.553,0.238c-0.3,0.174-0.44,0.369-0.42,0.581C301.078,221.091,301.261,221.297,301.604,221.496
				 M302.684,219.126l0.609-0.536l0.807-0.469l2.722,1.571l0.745-0.434l0.588,0.34l-2.299,1.336l-0.586-0.34l0.75-0.436l-2.14-1.236
				l-0.614,0.539L302.684,219.126 M307.937,218.732l0.79-0.461l0.859,0.496l-0.791,0.46L307.937,218.732 M307.266,216.464
				l0.609-0.537l0.808-0.469l2.722,1.572l0.745-0.434l0.588,0.338l-2.298,1.336l-0.589-0.338l0.752-0.438l-2.141-1.234l-0.612,0.539
				L307.266,216.464 M313.586,215.714l1.446-0.84l0.628,0.363l-2.389,1.389l-0.629-0.363l0.14-1.312
				c0.01-0.117-0.01-0.219-0.053-0.301c-0.041-0.088-0.112-0.158-0.21-0.215c-0.159-0.092-0.336-0.13-0.535-0.127
				c-0.194,0.006-0.375,0.059-0.548,0.16c-0.133,0.076-0.254,0.176-0.355,0.301c-0.097,0.126-0.182,0.271-0.248,0.438l-0.724-0.419
				c0.12-0.147,0.269-0.285,0.414-0.413c0.157-0.126,0.32-0.245,0.496-0.348c0.397-0.229,0.793-0.354,1.185-0.38
				c0.392-0.027,0.744,0.047,1.062,0.229c0.18,0.104,0.301,0.229,0.357,0.373c0.067,0.145,0.084,0.377,0.046,0.701L313.586,215.714
				 M326.602,211.56l-8.812-5.087l-28.827,16.753l8.811,5.088L326.602,211.56"/>
			<path clip-path="url(#SVGID_6_)" fill="#CFD1D2" d="M313.378,228.292c0.341,0.197,0.698,0.305,1.07,0.313
				c0.365,0.012,0.701-0.071,1.001-0.245c0.172-0.1,0.304-0.207,0.41-0.321c0.101-0.118,0.177-0.257,0.227-0.41l0.684,0.396
				c-0.074,0.139-0.176,0.268-0.303,0.389c-0.125,0.121-0.283,0.236-0.467,0.342c-0.547,0.318-1.137,0.484-1.764,0.492
				c-0.624,0.01-1.202-0.141-1.732-0.447c-0.525-0.305-0.788-0.637-0.774-1c0.008-0.365,0.29-0.707,0.839-1.026
				c0.183-0.106,0.381-0.198,0.589-0.272c0.209-0.072,0.433-0.133,0.671-0.176l0.685,0.395c-0.263,0.03-0.497,0.077-0.7,0.137
				c-0.203,0.059-0.388,0.135-0.56,0.236c-0.3,0.173-0.44,0.368-0.421,0.58C312.854,227.892,313.033,228.095,313.378,228.292
				 M317.778,226.925l1.444-0.842l0.63,0.363l-2.391,1.389l-0.629-0.362l0.136-1.315c0.011-0.118-0.006-0.223-0.047-0.305
				s-0.112-0.152-0.216-0.212c-0.153-0.089-0.33-0.132-0.528-0.124c-0.199,0.004-0.383,0.057-0.556,0.156
				c-0.132,0.077-0.247,0.18-0.344,0.301c-0.101,0.125-0.188,0.275-0.252,0.443l-0.731-0.422c0.131-0.147,0.268-0.287,0.425-0.413
				c0.147-0.126,0.314-0.241,0.499-0.348c0.391-0.228,0.787-0.356,1.177-0.384c0.388-0.023,0.745,0.053,1.058,0.232
				c0.177,0.104,0.3,0.229,0.366,0.373c0.06,0.145,0.074,0.377,0.04,0.699L317.778,226.925 M319.715,225.533l0.791-0.461
				l0.857,0.496l-0.79,0.46L319.715,225.533 M319.046,223.265l0.606-0.537l0.808-0.469l2.719,1.568l0.744-0.434l0.593,0.342
				l-2.297,1.336l-0.594-0.342l0.751-0.436l-2.136-1.234l-0.613,0.541L319.046,223.265 M322.05,221.519l0.606-0.537l0.803-0.466
				l2.719,1.569l0.749-0.437l0.593,0.343l-2.298,1.334l-0.593-0.341l0.746-0.434l-2.136-1.233l-0.608,0.537L322.05,221.519
				 M339.637,219.085l-11.084-6.398l-28.83,16.754l11.085,6.398L339.637,219.085"/>
			<path clip-path="url(#SVGID_6_)" fill="#CFD1D2" d="M337.096,228.39c-0.413-0.238-0.745-0.383-0.99-0.437
				c-0.243-0.054-0.462-0.026-0.646,0.079c-0.182,0.107-0.222,0.23-0.136,0.375c0.093,0.143,0.345,0.334,0.757,0.572
				c0.419,0.242,0.758,0.389,1.005,0.445c0.251,0.051,0.464,0.027,0.647-0.08c0.183-0.105,0.223-0.23,0.136-0.375
				C337.772,228.828,337.516,228.632,337.096,228.39 M325.37,235.218c0.342,0.196,0.692,0.299,1.066,0.309
				c0.366,0.012,0.706-0.068,1.006-0.242c0.173-0.1,0.304-0.206,0.405-0.324c0.101-0.117,0.176-0.256,0.227-0.41l0.685,0.396
				c-0.076,0.14-0.177,0.269-0.303,0.39c-0.123,0.123-0.28,0.238-0.464,0.345c-0.547,0.319-1.142,0.481-1.768,0.489
				c-0.627,0.01-1.201-0.141-1.729-0.445c-0.53-0.307-0.792-0.639-0.779-1.002c0.008-0.366,0.292-0.709,0.839-1.026
				c0.184-0.106,0.382-0.198,0.59-0.271c0.214-0.072,0.433-0.133,0.677-0.176l0.685,0.396c-0.271,0.026-0.504,0.073-0.709,0.132
				c-0.202,0.06-0.385,0.136-0.558,0.235c-0.299,0.175-0.436,0.373-0.414,0.585C324.843,234.814,325.022,235.016,325.37,235.218
				 M329.766,233.845l1.446-0.84l0.628,0.363l-2.391,1.389l-0.628-0.363l0.135-1.314c0.011-0.118,0-0.219-0.046-0.305
				c-0.041-0.082-0.114-0.152-0.211-0.209c-0.157-0.092-0.331-0.133-0.535-0.127c-0.192,0.006-0.382,0.057-0.554,0.156
				c-0.131,0.077-0.25,0.18-0.345,0.301c-0.102,0.124-0.187,0.275-0.252,0.443l-0.727-0.42c0.128-0.149,0.269-0.285,0.422-0.415
				c0.15-0.124,0.314-0.242,0.497-0.349c0.39-0.227,0.786-0.355,1.184-0.381c0.387-0.023,0.738,0.051,1.05,0.23
				c0.179,0.104,0.303,0.229,0.369,0.371c0.058,0.145,0.072,0.379,0.044,0.703L329.766,233.845 M331.703,232.454l0.79-0.46
				l0.859,0.496l-0.793,0.46L331.703,232.454 M331.033,230.187l0.608-0.537l0.807-0.469l2.724,1.572l0.744-0.434l0.588,0.338
				l-2.298,1.336l-0.589-0.338l0.752-0.438l-2.142-1.236l-0.612,0.541L331.033,230.187 M335.246,229.478
				c-0.554-0.318-0.859-0.631-0.919-0.939c-0.067-0.311,0.119-0.59,0.552-0.842c0.432-0.25,0.914-0.359,1.447-0.321
				c0.536,0.032,1.076,0.21,1.627,0.528c0.548,0.315,0.855,0.628,0.913,0.938c0.062,0.307-0.12,0.59-0.551,0.84
				c-0.433,0.252-0.92,0.357-1.449,0.322C336.331,229.97,335.79,229.794,335.246,229.478 M350.398,225.3l-8.812-5.088
				l-28.828,16.754l8.812,5.088L350.398,225.3"/>
			<path clip-path="url(#SVGID_6_)" fill="#CFD1D2" d="M344.88,236.365c-0.419-0.242-0.751-0.387-0.996-0.439
				c-0.243-0.053-0.458-0.023-0.641,0.082c-0.177,0.104-0.228,0.228-0.134,0.369c0.086,0.145,0.341,0.334,0.762,0.574
				c0.412,0.24,0.745,0.391,1,0.443c0.244,0.053,0.463,0.027,0.641-0.076c0.182-0.106,0.228-0.234,0.137-0.375
				C345.55,236.798,345.293,236.603,344.88,236.365 M347.159,234.353c-0.193-0.111-0.373-0.174-0.546-0.186
				c-0.172-0.012-0.334,0.023-0.482,0.109c-0.147,0.086-0.208,0.18-0.186,0.279c0.021,0.101,0.128,0.203,0.32,0.316
				c0.194,0.112,0.374,0.174,0.547,0.186s0.336-0.023,0.482-0.109c0.147-0.086,0.208-0.18,0.188-0.28
				C347.461,234.568,347.354,234.465,347.159,234.353 M336.151,241.443c0.342,0.197,0.694,0.301,1.065,0.311
				c0.373,0.014,0.708-0.068,1.006-0.242c0.173-0.101,0.305-0.207,0.406-0.324c0.102-0.119,0.184-0.254,0.227-0.41l0.691,0.398
				c-0.081,0.135-0.184,0.266-0.305,0.389c-0.126,0.121-0.283,0.236-0.466,0.342c-0.55,0.318-1.137,0.484-1.769,0.49
				c-0.627,0.008-1.202-0.143-1.729-0.445c-0.531-0.307-0.793-0.641-0.779-1.004c0.013-0.361,0.29-0.707,0.84-1.025
				c0.182-0.105,0.379-0.197,0.594-0.269c0.209-0.073,0.43-0.133,0.671-0.177l0.683,0.395c-0.268,0.027-0.503,0.074-0.706,0.133
				c-0.202,0.06-0.381,0.139-0.554,0.239c-0.3,0.173-0.441,0.368-0.418,0.581C335.625,241.039,335.81,241.246,336.151,241.443
				 M340.548,240.072l1.445-0.841l0.629,0.363l-2.39,1.39l-0.628-0.363l0.141-1.312c0.003-0.121-0.007-0.222-0.05-0.305
				c-0.046-0.085-0.116-0.155-0.215-0.211c-0.157-0.092-0.331-0.133-0.534-0.128c-0.193,0.007-0.376,0.06-0.548,0.159
				c-0.133,0.076-0.254,0.178-0.351,0.298c-0.1,0.124-0.188,0.274-0.252,0.442l-0.725-0.418c0.125-0.15,0.269-0.286,0.418-0.416
				c0.154-0.124,0.316-0.242,0.498-0.348c0.392-0.229,0.787-0.357,1.185-0.381c0.387-0.023,0.738,0.05,1.051,0.23
				c0.184,0.105,0.305,0.229,0.367,0.371c0.062,0.147,0.079,0.381,0.047,0.702L340.548,240.072 M342.484,238.679l0.792-0.46
				l0.859,0.496l-0.792,0.46L342.484,238.679 M343.023,237.45c-0.552-0.319-0.854-0.634-0.918-0.94
				c-0.062-0.307,0.119-0.59,0.551-0.841c0.431-0.251,0.92-0.356,1.449-0.321c0.535,0.032,1.075,0.209,1.627,0.527
				c0.547,0.316,0.854,0.629,0.911,0.938c0.063,0.306-0.119,0.59-0.551,0.841c-0.431,0.25-0.918,0.355-1.448,0.32
				C344.115,237.939,343.569,237.765,343.023,237.45 M345.511,235.382c-0.358-0.206-0.531-0.437-0.513-0.695
				c0.015-0.257,0.216-0.499,0.602-0.723c0.427-0.248,0.91-0.357,1.435-0.324c0.523,0.032,1.048,0.2,1.585,0.51
				c0.547,0.315,0.838,0.643,0.877,0.982c0.038,0.338-0.18,0.648-0.656,0.926c-0.159,0.091-0.32,0.168-0.484,0.238
				c-0.162,0.064-0.334,0.13-0.511,0.181l-0.614-0.354c0.192-0.041,0.376-0.088,0.529-0.142s0.29-0.114,0.412-0.185
				c0.253-0.148,0.379-0.305,0.378-0.464c-0.002-0.165-0.124-0.336-0.374-0.511c-0.03,0.101-0.081,0.195-0.156,0.28
				c-0.076,0.093-0.184,0.171-0.315,0.247c-0.334,0.195-0.704,0.299-1.108,0.301C346.195,235.66,345.832,235.568,345.511,235.382
				 M361.732,231.843l-9.38-5.414l-28.828,16.754l9.378,5.414L361.732,231.843"/>
			<path clip-path="url(#SVGID_6_)" fill="#CFD1D2" d="M356.511,243.08c-0.415-0.238-0.745-0.383-0.991-0.438
				c-0.243-0.052-0.464-0.025-0.645,0.081c-0.18,0.103-0.225,0.229-0.132,0.371c0.088,0.145,0.343,0.333,0.757,0.571
				c0.419,0.242,0.75,0.394,1.001,0.443c0.249,0.056,0.468,0.029,0.646-0.073c0.183-0.106,0.229-0.233,0.132-0.378
				C357.184,243.516,356.93,243.322,356.511,243.08 M358.656,240.945c-0.133-0.077-0.266-0.112-0.408-0.112
				c-0.146,0.003-0.285,0.042-0.416,0.118c-0.132,0.076-0.203,0.159-0.203,0.241c-0.004,0.086,0.062,0.165,0.19,0.239
				c0.134,0.077,0.271,0.115,0.419,0.112c0.138-0.003,0.278-0.044,0.41-0.121c0.133-0.077,0.199-0.156,0.207-0.239
				C358.855,241.101,358.789,241.021,358.656,240.945 M360.18,241.74c-0.164-0.094-0.333-0.143-0.505-0.145
				c-0.169-0.002-0.332,0.045-0.489,0.137c-0.158,0.092-0.237,0.186-0.232,0.289c0,0.1,0.083,0.194,0.246,0.289
				c0.163,0.094,0.325,0.141,0.5,0.141c0.172,0.002,0.335-0.047,0.492-0.138c0.156-0.091,0.238-0.187,0.233-0.284
				C360.423,241.929,360.343,241.835,360.18,241.74 M347.786,248.162c0.337,0.194,0.694,0.3,1.066,0.309
				c0.366,0.012,0.702-0.07,1.001-0.244c0.173-0.101,0.306-0.207,0.412-0.322c0.101-0.117,0.177-0.256,0.227-0.41l0.684,0.396
				c-0.075,0.139-0.176,0.268-0.303,0.389s-0.279,0.238-0.461,0.346c-0.549,0.318-1.143,0.48-1.77,0.489s-1.202-0.142-1.728-0.445
				c-0.532-0.308-0.794-0.64-0.779-1.003c0.007-0.365,0.29-0.708,0.839-1.025c0.182-0.107,0.38-0.198,0.588-0.271
				c0.209-0.074,0.433-0.133,0.672-0.178l0.688,0.398c-0.27,0.027-0.503,0.074-0.707,0.133c-0.202,0.059-0.385,0.135-0.559,0.235
				c-0.298,0.175-0.441,0.368-0.412,0.585C347.26,247.757,347.439,247.96,347.786,248.162 M352.183,246.79l1.446-0.841l0.628,0.363
				l-2.389,1.389l-0.629-0.363l0.136-1.314c0.008-0.117-0.002-0.218-0.049-0.304c-0.041-0.083-0.111-0.153-0.214-0.212
				c-0.153-0.089-0.327-0.131-0.53-0.124c-0.199,0.003-0.382,0.056-0.555,0.156c-0.132,0.077-0.248,0.18-0.345,0.301
				c-0.101,0.124-0.187,0.274-0.252,0.442l-0.73-0.422c0.132-0.146,0.269-0.286,0.426-0.412c0.147-0.128,0.314-0.242,0.497-0.35
				c0.391-0.227,0.787-0.355,1.18-0.383c0.391-0.021,0.743,0.053,1.054,0.233c0.18,0.103,0.303,0.227,0.368,0.371
				c0.058,0.145,0.075,0.378,0.047,0.702L352.183,246.79 M354.119,245.398l0.793-0.46l0.857,0.495l-0.79,0.461L354.119,245.398
				 M354.657,244.167c-0.552-0.318-0.853-0.633-0.915-0.94c-0.069-0.31,0.117-0.589,0.55-0.841c0.431-0.25,0.914-0.359,1.448-0.32
				c0.536,0.031,1.076,0.209,1.629,0.527c0.546,0.314,0.853,0.629,0.91,0.938c0.063,0.307-0.119,0.59-0.552,0.841
				c-0.43,0.25-0.917,0.356-1.448,0.321C355.75,244.658,355.204,244.484,354.657,244.167 M359.519,241.212
				c0.285-0.094,0.555-0.133,0.803-0.117c0.257,0.012,0.491,0.082,0.705,0.206c0.326,0.188,0.466,0.392,0.416,0.616
				s-0.283,0.461-0.709,0.708c-0.427,0.247-0.838,0.387-1.224,0.415c-0.389,0.03-0.74-0.049-1.066-0.238
				c-0.216-0.123-0.338-0.26-0.359-0.406c-0.026-0.145,0.039-0.301,0.201-0.467c-0.259,0.08-0.503,0.115-0.732,0.1
				c-0.229-0.014-0.434-0.072-0.622-0.182c-0.281-0.162-0.383-0.346-0.324-0.553c0.061-0.199,0.288-0.42,0.689-0.653
				c0.399-0.233,0.772-0.366,1.127-0.401c0.352-0.039,0.667,0.026,0.948,0.189c0.188,0.109,0.292,0.227,0.318,0.359
				S359.654,241.062,359.519,241.212 M373.066,238.387l-9.379-5.414l-28.828,16.754l9.378,5.415L373.066,238.387"/>
			<path clip-path="url(#SVGID_6_)" fill="#CFD1D2" d="M367.293,249.305c-0.414-0.239-0.746-0.383-0.99-0.437
				c-0.246-0.053-0.463-0.025-0.646,0.08c-0.178,0.104-0.223,0.23-0.13,0.371c0.087,0.145,0.343,0.334,0.756,0.572
				c0.419,0.242,0.752,0.393,1.005,0.445c0.245,0.053,0.463,0.027,0.643-0.076c0.183-0.107,0.227-0.233,0.136-0.375
				C367.967,249.742,367.711,249.547,367.293,249.305 M358.569,254.386c0.341,0.197,0.693,0.301,1.067,0.311
				c0.366,0.012,0.706-0.068,1.006-0.242c0.171-0.1,0.303-0.207,0.404-0.325c0.102-0.117,0.176-0.257,0.228-0.409l0.685,0.395
				c-0.076,0.139-0.177,0.269-0.305,0.391c-0.121,0.123-0.278,0.238-0.462,0.344c-0.547,0.318-1.142,0.48-1.768,0.49
				c-0.625,0.009-1.202-0.143-1.729-0.445c-0.53-0.307-0.792-0.64-0.78-1.003c0.009-0.366,0.293-0.708,0.84-1.026
				c0.184-0.106,0.381-0.197,0.59-0.271c0.213-0.07,0.432-0.133,0.676-0.174l0.686,0.395c-0.271,0.027-0.504,0.074-0.707,0.133
				c-0.204,0.061-0.387,0.137-0.56,0.236c-0.299,0.174-0.437,0.372-0.414,0.584C358.043,253.982,358.222,254.187,358.569,254.386
				 M362.966,253.015l1.444-0.84l0.63,0.363l-2.391,1.389l-0.628-0.364l0.135-1.313c0.01-0.119,0-0.221-0.046-0.305
				c-0.041-0.082-0.114-0.154-0.211-0.209c-0.157-0.092-0.331-0.133-0.534-0.127c-0.193,0.006-0.383,0.056-0.555,0.156
				c-0.132,0.076-0.25,0.18-0.345,0.301c-0.101,0.123-0.188,0.273-0.253,0.442l-0.726-0.419c0.126-0.15,0.269-0.285,0.422-0.416
				c0.15-0.123,0.312-0.242,0.497-0.348c0.39-0.228,0.786-0.357,1.184-0.381c0.387-0.023,0.738,0.051,1.05,0.23
				c0.179,0.103,0.303,0.227,0.369,0.371c0.058,0.145,0.072,0.377,0.044,0.703L362.966,253.015 M364.902,251.623l0.791-0.459
				l0.859,0.496l-0.793,0.459L364.902,251.623 M365.44,250.394c-0.552-0.319-0.854-0.635-0.917-0.941
				c-0.067-0.311,0.119-0.59,0.551-0.84c0.432-0.252,0.914-0.361,1.449-0.322c0.534,0.033,1.074,0.209,1.626,0.527
				c0.547,0.316,0.854,0.629,0.911,0.939c0.064,0.306-0.118,0.59-0.55,0.84s-0.919,0.356-1.448,0.321
				C366.532,250.883,365.986,250.708,365.44,250.394 M366.871,247.64l2.476-1.44l0.481,0.277l1.551,2.378l-0.828,0.48l-1.469-2.254
				l-1.582,0.92L366.871,247.64 M382.692,243.947l-7.677-4.432l-28.828,16.754l7.678,4.432L382.692,243.947"/>
			<path clip-path="url(#SVGID_6_)" fill="#CFD1D2" d="M378.928,256.023c-0.414-0.238-0.745-0.383-0.99-0.437
				c-0.245-0.052-0.463-0.026-0.646,0.081c-0.179,0.103-0.223,0.229-0.132,0.371c0.088,0.145,0.344,0.333,0.757,0.571
				c0.42,0.242,0.752,0.394,1.001,0.442c0.251,0.057,0.469,0.03,0.647-0.074c0.181-0.105,0.227-0.232,0.13-0.377
				C379.603,256.46,379.346,256.265,378.928,256.023 M382.539,254.628c-0.193-0.112-0.376-0.176-0.547-0.191
				c-0.172-0.012-0.329,0.025-0.481,0.115c-0.147,0.085-0.213,0.176-0.188,0.273c0.022,0.101,0.134,0.207,0.328,0.319
				c0.19,0.108,0.372,0.173,0.547,0.185c0.168,0.016,0.325-0.023,0.472-0.109c0.151-0.088,0.219-0.18,0.197-0.279
				C382.842,254.844,382.728,254.738,382.539,254.628 M370.199,261.102c0.344,0.198,0.7,0.304,1.072,0.312
				c0.365,0.012,0.701-0.07,1.002-0.245c0.172-0.1,0.303-0.207,0.409-0.321c0.101-0.118,0.177-0.257,0.228-0.41l0.684,0.396
				c-0.075,0.139-0.177,0.269-0.304,0.39c-0.126,0.121-0.283,0.235-0.467,0.341c-0.547,0.319-1.137,0.484-1.764,0.494
				c-0.626,0.008-1.202-0.143-1.733-0.449c-0.525-0.304-0.787-0.637-0.773-0.999c0.007-0.366,0.291-0.708,0.839-1.026
				c0.183-0.105,0.382-0.197,0.589-0.271c0.208-0.074,0.433-0.133,0.671-0.178l0.685,0.395c-0.265,0.031-0.497,0.078-0.702,0.137
				c-0.203,0.059-0.386,0.136-0.558,0.236c-0.3,0.174-0.44,0.368-0.42,0.58C369.679,260.701,369.856,260.904,370.199,261.102
				 M374.601,259.734l1.445-0.842l0.63,0.363l-2.391,1.39l-0.629-0.363l0.136-1.315c0.009-0.117-0.007-0.221-0.046-0.303
				c-0.043-0.084-0.113-0.154-0.217-0.213c-0.153-0.088-0.331-0.133-0.529-0.123c-0.199,0.002-0.383,0.055-0.555,0.156
				c-0.133,0.076-0.249,0.18-0.345,0.299c-0.101,0.125-0.188,0.275-0.253,0.443l-0.729-0.422c0.132-0.147,0.269-0.285,0.425-0.413
				c0.147-0.126,0.313-0.241,0.497-0.347c0.393-0.229,0.788-0.357,1.179-0.385c0.387-0.023,0.745,0.053,1.056,0.234
				c0.179,0.103,0.304,0.227,0.369,0.371c0.057,0.145,0.072,0.377,0.039,0.699L374.601,259.734 M376.539,258.341l0.79-0.461
				l0.858,0.498l-0.791,0.459L376.539,258.341 M377.071,257.109c-0.548-0.315-0.85-0.631-0.912-0.938
				c-0.069-0.311,0.119-0.59,0.551-0.842c0.431-0.25,0.913-0.359,1.447-0.32c0.535,0.031,1.077,0.209,1.623,0.525
				c0.552,0.317,0.859,0.63,0.916,0.939c0.063,0.307-0.123,0.588-0.554,0.838c-0.432,0.251-0.916,0.36-1.444,0.324
				C378.168,257.601,377.621,257.427,377.071,257.109 M380.637,254.675c0.023-0.097,0.075-0.191,0.149-0.277
				c0.077-0.085,0.183-0.171,0.315-0.248c0.335-0.193,0.711-0.294,1.112-0.303c0.402-0.002,0.766,0.088,1.087,0.274
				c0.352,0.203,0.527,0.434,0.508,0.692c-0.02,0.254-0.223,0.496-0.607,0.721c-0.432,0.25-0.903,0.359-1.428,0.326
				c-0.525-0.032-1.051-0.2-1.587-0.51c-0.547-0.315-0.839-0.643-0.876-0.982s0.179-0.648,0.656-0.926
				c0.152-0.088,0.311-0.168,0.479-0.236c0.162-0.07,0.339-0.133,0.527-0.183l0.613,0.354c-0.203,0.041-0.387,0.088-0.543,0.145
				c-0.16,0.049-0.297,0.111-0.412,0.18c-0.253,0.146-0.377,0.301-0.375,0.466C380.251,254.332,380.38,254.5,380.637,254.675
				 M396.863,252.128l-12.214-7.053L355.82,261.83l12.214,7.053L396.863,252.128"/>
			<path clip-path="url(#SVGID_6_)" fill="#CFD1D2" d="M390.636,262.783c-0.416-0.238-0.746-0.383-0.99-0.436
				c-0.25-0.057-0.466-0.027-0.647,0.079c-0.178,0.103-0.227,0.227-0.129,0.371c0.087,0.145,0.343,0.333,0.755,0.571
				c0.419,0.242,0.746,0.39,1.001,0.443c0.245,0.053,0.464,0.027,0.641-0.076c0.183-0.106,0.228-0.234,0.137-0.375
				C391.304,263.216,391.053,263.025,390.636,262.783 M381.906,267.861c0.342,0.197,0.699,0.305,1.071,0.312
				c0.367,0.012,0.702-0.07,1.002-0.244c0.171-0.101,0.303-0.207,0.403-0.324c0.103-0.119,0.184-0.254,0.233-0.408l0.685,0.396
				c-0.077,0.139-0.178,0.268-0.303,0.389c-0.127,0.121-0.285,0.236-0.467,0.342c-0.549,0.318-1.139,0.484-1.765,0.493
				c-0.63,0.005-1.207-0.145-1.732-0.448c-0.531-0.307-0.788-0.637-0.78-1.002c0.015-0.363,0.296-0.706,0.844-1.023
				c0.183-0.107,0.382-0.198,0.59-0.272c0.208-0.073,0.432-0.133,0.67-0.177l0.686,0.395c-0.264,0.031-0.504,0.074-0.701,0.137
				c-0.203,0.059-0.388,0.135-0.56,0.235c-0.3,0.175-0.439,0.368-0.419,0.581C381.379,267.458,381.563,267.664,381.906,267.861
				 M386.308,266.493l1.445-0.841l0.623,0.36l-2.39,1.39l-0.623-0.361l0.137-1.314c0.009-0.117-0.008-0.221-0.05-0.304
				c-0.039-0.083-0.11-0.153-0.214-0.212c-0.154-0.089-0.33-0.133-0.529-0.124c-0.199,0.003-0.383,0.056-0.555,0.156
				c-0.133,0.077-0.253,0.177-0.345,0.3c-0.101,0.125-0.192,0.271-0.258,0.439l-0.726-0.418c0.126-0.15,0.269-0.286,0.426-0.414
				c0.148-0.126,0.315-0.24,0.496-0.348c0.393-0.227,0.789-0.355,1.18-0.383c0.387-0.023,0.744,0.053,1.055,0.233
				c0.18,0.103,0.302,0.227,0.369,0.371c0.058,0.145,0.073,0.378,0.04,0.699L386.308,266.493 M388.245,265.099l0.791-0.459
				l0.853,0.493l-0.791,0.46L388.245,265.099 M388.778,263.869c-0.548-0.316-0.855-0.635-0.919-0.941
				c-0.062-0.307,0.125-0.587,0.557-0.838c0.431-0.25,0.914-0.359,1.443-0.324c0.536,0.032,1.082,0.213,1.627,0.528
				c0.548,0.315,0.855,0.628,0.917,0.94c0.063,0.307-0.124,0.587-0.556,0.838c-0.432,0.25-0.914,0.359-1.443,0.324
				C389.87,264.357,389.323,264.183,388.778,263.869 M391.688,260.981l0.516,0.298c0.046-0.051,0.097-0.098,0.156-0.139
				c0.057-0.045,0.118-0.086,0.188-0.127c0.401-0.232,0.808-0.356,1.235-0.369c0.424-0.014,0.816,0.083,1.18,0.293
				c0.356,0.205,0.517,0.439,0.477,0.699c-0.044,0.256-0.276,0.51-0.709,0.76c-0.188,0.109-0.391,0.203-0.609,0.289
				s-0.456,0.159-0.711,0.225l-0.668-0.387c0.284-0.047,0.527-0.1,0.74-0.164c0.209-0.062,0.388-0.137,0.529-0.219
				c0.207-0.121,0.319-0.245,0.338-0.369c0.017-0.127-0.062-0.242-0.236-0.342c-0.172-0.101-0.371-0.145-0.59-0.136
				c-0.214,0.012-0.428,0.077-0.637,0.198c-0.121,0.07-0.233,0.152-0.339,0.25c-0.111,0.1-0.206,0.215-0.298,0.345l-1.866-1.077
				l2.106-1.223l0.629,0.362L391.688,260.981 M407.062,258.017l-8.244-4.76l-28.829,16.754l8.245,4.76L407.062,258.017"/>
			<polygon clip-path="url(#SVGID_6_)" fill="#EC7404" points="246.595,165.365 219.896,149.949 205.023,158.594 231.721,174.009 
							"/>
			<polygon clip-path="url(#SVGID_6_)" fill="#EC7404" points="433.734,273.417 409.05,259.165 394.176,267.808 418.859,282.062 			
				"/>
			<polygon clip-path="url(#SVGID_6_)" fill="#CFD1D2" points="270.983,179.447 248.724,166.595 231.805,176.427 202.983,159.785 
				175.631,175.675 215.486,198.687 218.125,197.153 224.601,200.893 221.963,202.427 389.469,299.142 416.816,283.25 
				392.13,268.998 378.246,277.066 240.181,197.348 			"/>
			<path clip-path="url(#SVGID_6_)" fill="#FFFFFF" d="M181.66,157.768l-0.684-0.395c-0.05,0.153-0.131,0.289-0.233,0.407
				c-0.1,0.118-0.236,0.226-0.404,0.324c-0.299,0.175-0.635,0.257-1.002,0.245c-0.377-0.012-0.729-0.114-1.071-0.313
				c-0.341-0.198-0.526-0.404-0.543-0.618c-0.022-0.214,0.121-0.408,0.42-0.582c0.167-0.098,0.355-0.177,0.558-0.236
				c0.198-0.062,0.437-0.106,0.702-0.136l-0.685-0.396c-0.238,0.045-0.462,0.104-0.67,0.178c-0.208,0.074-0.406,0.165-0.589,0.271
				c-0.549,0.318-0.832,0.661-0.845,1.023c-0.008,0.366,0.248,0.696,0.78,1.002c0.525,0.304,1.102,0.455,1.733,0.449
				c0.626-0.009,1.216-0.174,1.764-0.493c0.183-0.106,0.339-0.221,0.466-0.343C181.483,158.036,181.585,157.906,181.66,157.768"/>
			<path clip-path="url(#SVGID_6_)" fill="#FFFFFF" d="M184.737,156.187l-0.623-0.36l-1.446,0.841l0.076-0.767
				c0.04-0.325,0.023-0.558-0.043-0.702c-0.057-0.145-0.18-0.268-0.359-0.371c-0.312-0.18-0.668-0.257-1.061-0.23
				c-0.392,0.026-0.783,0.153-1.174,0.38c-0.182,0.106-0.35,0.221-0.502,0.345c-0.152,0.13-0.293,0.266-0.42,0.416l0.725,0.418
				c0.066-0.168,0.151-0.313,0.253-0.437c0.096-0.127,0.218-0.227,0.35-0.303c0.173-0.1,0.355-0.154,0.554-0.157
				c0.199-0.008,0.377,0.037,0.53,0.125c0.103,0.058,0.174,0.13,0.215,0.212c0.042,0.082,0.057,0.186,0.047,0.303l-0.135,1.316
				l0.623,0.359L184.737,156.187"/>
			<polygon clip-path="url(#SVGID_6_)" fill="#FFFFFF" points="186.249,155.308 185.391,154.812 184.594,155.275 185.452,155.771 
							"/>
			<path clip-path="url(#SVGID_6_)" fill="#FFFFFF" d="M189.319,153.523l-0.623-0.36l-1.446,0.841l0.077-0.766
				c0.039-0.325,0.022-0.558-0.045-0.703c-0.057-0.144-0.18-0.268-0.359-0.371c-0.311-0.18-0.668-0.257-1.06-0.23
				c-0.392,0.026-0.783,0.154-1.175,0.38c-0.182,0.107-0.35,0.221-0.506,0.348c-0.147,0.127-0.289,0.263-0.416,0.413l0.726,0.418
				c0.065-0.168,0.151-0.312,0.252-0.436c0.096-0.127,0.217-0.228,0.35-0.304c0.172-0.1,0.356-0.152,0.554-0.156
				c0.198-0.009,0.376,0.035,0.53,0.124c0.102,0.058,0.174,0.129,0.215,0.212c0.036,0.085,0.058,0.186,0.048,0.304l-0.135,1.315
				l0.623,0.36L189.319,153.523"/>
			<path clip-path="url(#SVGID_6_)" fill="#FFFFFF" d="M188.983,151.801c-0.414-0.238-0.664-0.43-0.756-0.572
				c-0.093-0.147-0.048-0.269,0.135-0.375c0.183-0.106,0.396-0.135,0.646-0.08c0.244,0.054,0.57,0.201,0.984,0.44
				c0.419,0.242,0.675,0.43,0.768,0.578c0.092,0.142,0.053,0.266-0.13,0.372c-0.183,0.106-0.397,0.129-0.646,0.079
				C189.734,152.188,189.402,152.043,188.983,151.801 M190.851,150.722c-0.552-0.318-1.098-0.493-1.627-0.528
				c-0.529-0.035-1.012,0.075-1.443,0.325c-0.432,0.25-0.619,0.53-0.557,0.836c0.059,0.311,0.366,0.623,0.917,0.942
				c0.546,0.315,1.088,0.492,1.627,0.527c0.53,0.036,1.013-0.073,1.444-0.324s0.619-0.531,0.555-0.837
				C191.7,151.354,191.397,151.038,190.851,150.722"/>
			<path clip-path="url(#SVGID_6_)" fill="#FFFFFF" d="M265.01,198.138l-0.689-0.398c-0.045,0.157-0.126,0.292-0.228,0.411
				c-0.101,0.117-0.232,0.224-0.404,0.324c-0.299,0.174-0.635,0.257-1.008,0.243c-0.371-0.009-0.723-0.112-1.065-0.311
				c-0.342-0.198-0.526-0.403-0.543-0.619c-0.022-0.213,0.115-0.411,0.415-0.584c0.172-0.101,0.355-0.178,0.558-0.236
				c0.203-0.06,0.442-0.103,0.707-0.133l-0.685-0.396c-0.239,0.044-0.462,0.104-0.671,0.177c-0.213,0.071-0.411,0.162-0.594,0.269
				c-0.547,0.318-0.826,0.664-0.84,1.025c-0.013,0.363,0.249,0.696,0.78,1.003c0.526,0.303,1.102,0.454,1.728,0.445
				c0.632-0.005,1.222-0.17,1.769-0.49c0.184-0.106,0.34-0.221,0.467-0.342C264.827,198.404,264.929,198.274,265.01,198.138"/>
			<path clip-path="url(#SVGID_6_)" fill="#FFFFFF" d="M268.086,196.558l-0.628-0.363l-1.446,0.841l0.087-0.766
				c0.034-0.322,0.018-0.556-0.045-0.703c-0.062-0.142-0.185-0.266-0.368-0.371c-0.312-0.18-0.664-0.254-1.05-0.23
				c-0.398,0.024-0.794,0.154-1.184,0.381c-0.183,0.106-0.346,0.224-0.498,0.348c-0.151,0.13-0.293,0.265-0.419,0.416l0.725,0.419
				c0.064-0.168,0.151-0.319,0.252-0.442c0.096-0.121,0.218-0.222,0.35-0.298c0.172-0.101,0.355-0.153,0.549-0.16
				c0.204-0.005,0.376,0.036,0.535,0.127c0.097,0.056,0.169,0.126,0.215,0.213c0.041,0.083,0.052,0.182,0.047,0.304l-0.14,1.312
				l0.628,0.362L268.086,196.558"/>
			<polygon clip-path="url(#SVGID_6_)" fill="#FFFFFF" points="269.598,195.679 268.739,195.183 267.948,195.644 268.807,196.139 
							"/>
			<polygon clip-path="url(#SVGID_6_)" fill="#FFFFFF" points="272.75,193.848 272.163,193.508 271.416,193.942 268.694,192.37 
				267.886,192.839 267.279,193.375 267.862,193.711 268.474,193.171 270.614,194.408 269.863,194.844 270.45,195.183 			"/>
			<path clip-path="url(#SVGID_6_)" fill="#FFFFFF" d="M274.671,191.482c-0.363-0.209-0.755-0.306-1.178-0.292
				c-0.427,0.012-0.838,0.133-1.24,0.365c-0.07,0.042-0.132,0.083-0.188,0.127c-0.056,0.044-0.106,0.091-0.158,0.138l-0.51-0.294
				l1.431-0.832l-0.628-0.363l-2.106,1.224l1.864,1.077c0.092-0.13,0.188-0.245,0.299-0.345c0.107-0.097,0.218-0.18,0.34-0.251
				c0.208-0.121,0.417-0.188,0.636-0.197c0.218-0.009,0.417,0.035,0.59,0.136c0.174,0.1,0.246,0.212,0.231,0.339
				c-0.014,0.126-0.125,0.25-0.333,0.371c-0.143,0.083-0.32,0.157-0.528,0.218c-0.214,0.065-0.457,0.118-0.748,0.163l0.675,0.389
				c0.254-0.064,0.493-0.138,0.712-0.224c0.218-0.084,0.421-0.18,0.609-0.289c0.431-0.25,0.664-0.504,0.703-0.764
				C275.188,191.922,275.028,191.688,274.671,191.482"/>
			<path clip-path="url(#SVGID_6_)" fill="#FFFFFF" d="M282.151,208.035l-0.684-0.395c-0.05,0.154-0.126,0.292-0.228,0.411
				c-0.102,0.117-0.238,0.221-0.41,0.32c-0.299,0.175-0.635,0.257-1.002,0.245c-0.371-0.009-0.728-0.114-1.064-0.31
				c-0.348-0.201-0.527-0.404-0.544-0.619c-0.026-0.215,0.115-0.41,0.415-0.584c0.173-0.101,0.355-0.177,0.559-0.235
				c0.204-0.06,0.437-0.106,0.707-0.133l-0.69-0.399c-0.239,0.045-0.458,0.107-0.671,0.178c-0.208,0.074-0.406,0.165-0.589,0.271
				c-0.548,0.318-0.831,0.661-0.839,1.026c-0.013,0.362,0.249,0.696,0.779,1.002c0.526,0.304,1.103,0.454,1.729,0.446
				c0.626-0.009,1.221-0.172,1.769-0.49c0.183-0.106,0.34-0.221,0.462-0.345C281.974,208.303,282.075,208.174,282.151,208.035"/>
			<path clip-path="url(#SVGID_6_)" fill="#FFFFFF" d="M285.232,206.458l-0.628-0.362l-1.446,0.84l0.087-0.767
				c0.029-0.325,0.018-0.555-0.045-0.702c-0.062-0.143-0.185-0.266-0.368-0.372c-0.312-0.18-0.664-0.253-1.055-0.233
				c-0.393,0.026-0.789,0.156-1.179,0.383c-0.183,0.106-0.345,0.224-0.498,0.348c-0.151,0.129-0.293,0.266-0.425,0.413l0.73,0.421
				c0.066-0.168,0.151-0.318,0.252-0.442c0.096-0.121,0.212-0.224,0.345-0.301c0.172-0.1,0.361-0.15,0.553-0.156
				c0.205-0.005,0.377,0.035,0.536,0.126c0.097,0.056,0.169,0.127,0.21,0.209c0.047,0.086,0.057,0.186,0.047,0.304l-0.135,1.315
				l0.629,0.362L285.232,206.458"/>
			<polygon clip-path="url(#SVGID_6_)" fill="#FFFFFF" points="286.745,205.579 285.886,205.083 285.095,205.543 285.953,206.039 
							"/>
			<polygon clip-path="url(#SVGID_6_)" fill="#FFFFFF" points="289.896,203.748 289.309,203.408 288.562,203.842 285.841,202.27 
				285.033,202.739 284.425,203.275 285.008,203.612 285.62,203.072 287.761,204.308 287.01,204.744 287.597,205.083 			"/>
			<path clip-path="url(#SVGID_6_)" fill="#FFFFFF" d="M289.583,202.514l-0.455-1.338l1.384,0.799L289.583,202.514z
				 M292.399,201.594l-0.618-0.356l-0.467,0.272l-2.088-1.207l-0.944,0.548l0.663,1.906l0.73,0.421l1.456-0.846l0.604,0.348
				l0.801-0.466l-0.602-0.348L292.399,201.594"/>
			<path clip-path="url(#SVGID_6_)" fill="#FFFFFF" d="M293.715,214.712l-0.684-0.396c-0.05,0.153-0.126,0.292-0.227,0.411
				c-0.106,0.113-0.238,0.221-0.41,0.32c-0.299,0.174-0.635,0.257-1.003,0.246c-0.371-0.01-0.728-0.117-1.064-0.311
				c-0.348-0.201-0.527-0.404-0.544-0.619c-0.027-0.216,0.115-0.41,0.414-0.584c0.173-0.101,0.355-0.178,0.559-0.236
				c0.204-0.06,0.437-0.106,0.702-0.137l-0.684-0.395c-0.24,0.045-0.463,0.104-0.672,0.178c-0.208,0.074-0.405,0.164-0.588,0.271
				c-0.548,0.318-0.832,0.66-0.839,1.025c-0.014,0.363,0.249,0.696,0.78,1.004c0.526,0.303,1.102,0.453,1.728,0.443
				c0.626-0.008,1.216-0.172,1.764-0.492c0.183-0.105,0.34-0.221,0.466-0.342S293.639,214.851,293.715,214.712"/>
			<path clip-path="url(#SVGID_6_)" fill="#FFFFFF" d="M296.796,213.134l-0.628-0.363l-1.446,0.842l0.087-0.768
				c0.028-0.324,0.012-0.557-0.045-0.701c-0.067-0.145-0.189-0.27-0.368-0.373c-0.312-0.18-0.664-0.252-1.055-0.232
				c-0.393,0.027-0.789,0.156-1.179,0.384c-0.182,0.106-0.35,0.222-0.498,0.348c-0.157,0.128-0.294,0.266-0.425,0.413l0.73,0.422
				c0.065-0.168,0.151-0.318,0.252-0.443c0.096-0.119,0.213-0.224,0.345-0.301c0.172-0.1,0.361-0.149,0.554-0.156
				c0.204-0.005,0.377,0.037,0.53,0.125c0.103,0.059,0.175,0.129,0.215,0.213c0.046,0.084,0.057,0.186,0.047,0.303l-0.135,1.315
				l0.628,0.362L296.796,213.134"/>
			<polygon clip-path="url(#SVGID_6_)" fill="#FFFFFF" points="298.308,212.255 297.451,211.759 296.659,212.22 297.517,212.715 			
				"/>
			<polygon clip-path="url(#SVGID_6_)" fill="#FFFFFF" points="301.46,210.423 300.867,210.083 300.121,210.515 297.404,208.946 
				296.597,209.416 295.989,209.953 296.572,210.289 297.185,209.749 299.319,210.982 298.569,211.417 299.16,211.759 			"/>
			<path clip-path="url(#SVGID_6_)" fill="#FFFFFF" d="M303.473,208.165c-0.219-0.126-0.457-0.2-0.719-0.215
				c-0.254-0.018-0.52,0.024-0.804,0.118c0.152-0.141,0.213-0.276,0.187-0.409c-0.021-0.13-0.13-0.25-0.323-0.363
				c-0.281-0.163-0.601-0.224-0.947-0.183c-0.355,0.042-0.747,0.187-1.174,0.434c-0.163,0.095-0.31,0.191-0.452,0.304
				c-0.137,0.109-0.268,0.228-0.39,0.351l0.622,0.36c0.083-0.112,0.179-0.221,0.28-0.322c0.106-0.097,0.233-0.189,0.37-0.268
				c0.182-0.106,0.36-0.169,0.533-0.187c0.167-0.02,0.321,0.01,0.441,0.08c0.139,0.08,0.191,0.168,0.156,0.271
				c-0.035,0.098-0.162,0.207-0.375,0.331l-0.359,0.21l0.55,0.318l0.341-0.198c0.238-0.138,0.462-0.221,0.659-0.248
				c0.2-0.027,0.373,0.003,0.525,0.092c0.144,0.082,0.2,0.18,0.161,0.297c-0.045,0.115-0.173,0.236-0.4,0.369
				c-0.152,0.089-0.326,0.165-0.524,0.233c-0.198,0.068-0.416,0.124-0.655,0.168l0.658,0.38c0.224-0.064,0.432-0.139,0.626-0.221
				c0.203-0.083,0.38-0.173,0.547-0.271c0.483-0.28,0.767-0.541,0.843-0.784C303.928,208.569,303.8,208.354,303.473,208.165"/>
			<path clip-path="url(#SVGID_6_)" fill="#FFFFFF" d="M304.998,221.227l-0.685-0.396c-0.051,0.153-0.131,0.289-0.232,0.407
				c-0.101,0.118-0.233,0.224-0.405,0.324c-0.3,0.173-0.634,0.257-1.007,0.242c-0.372-0.009-0.724-0.112-1.065-0.31
				c-0.343-0.198-0.525-0.404-0.544-0.62c-0.021-0.212,0.12-0.407,0.42-0.581c0.173-0.1,0.35-0.18,0.554-0.238
				c0.203-0.059,0.443-0.104,0.707-0.133l-0.685-0.396c-0.239,0.044-0.463,0.103-0.672,0.177c-0.208,0.074-0.411,0.162-0.595,0.269
				c-0.547,0.319-0.825,0.663-0.839,1.026c-0.012,0.363,0.249,0.696,0.78,1.002c0.525,0.305,1.102,0.455,1.729,0.445
				c0.631-0.005,1.221-0.169,1.768-0.488c0.184-0.106,0.342-0.221,0.467-0.342C304.821,221.496,304.922,221.365,304.998,221.227"/>
			<polygon clip-path="url(#SVGID_6_)" fill="#FFFFFF" points="308.156,219.599 307.568,219.259 306.822,219.693 304.1,218.122 
				303.293,218.59 302.684,219.126 303.267,219.462 303.879,218.923 306.02,220.16 305.27,220.595 305.856,220.935 			"/>
			<polygon clip-path="url(#SVGID_6_)" fill="#FFFFFF" points="309.586,218.767 308.728,218.271 307.937,218.732 308.796,219.227 
							"/>
			<polygon clip-path="url(#SVGID_6_)" fill="#FFFFFF" points="312.736,216.935 312.149,216.597 311.403,217.031 308.683,215.458 
				307.875,215.927 307.266,216.464 307.85,216.8 308.462,216.261 310.603,217.496 309.852,217.933 310.439,218.271 			"/>
			<path clip-path="url(#SVGID_6_)" fill="#FFFFFF" d="M315.66,215.238l-0.628-0.363l-1.446,0.84l0.083-0.764
				c0.038-0.324,0.021-0.557-0.046-0.701c-0.057-0.145-0.18-0.269-0.357-0.373c-0.317-0.182-0.669-0.256-1.062-0.229
				c-0.392,0.025-0.788,0.15-1.185,0.38c-0.176,0.103-0.34,0.222-0.496,0.348c-0.146,0.128-0.293,0.266-0.414,0.413l0.725,0.419
				c0.065-0.168,0.15-0.312,0.246-0.438c0.103-0.125,0.224-0.225,0.356-0.301c0.173-0.102,0.354-0.154,0.548-0.16
				c0.198-0.003,0.376,0.035,0.535,0.127c0.097,0.057,0.169,0.127,0.211,0.215c0.042,0.082,0.062,0.184,0.052,0.301l-0.14,1.312
				l0.629,0.363L315.66,215.238"/>
			<path clip-path="url(#SVGID_6_)" fill="#FFFFFF" d="M316.77,228.025l-0.684-0.396c-0.05,0.153-0.126,0.292-0.227,0.41
				c-0.105,0.114-0.238,0.222-0.41,0.321c-0.3,0.174-0.636,0.257-1.001,0.245c-0.372-0.009-0.729-0.116-1.07-0.313
				c-0.345-0.197-0.523-0.4-0.546-0.619c-0.02-0.212,0.121-0.407,0.421-0.58c0.172-0.102,0.356-0.178,0.56-0.236
				c0.203-0.06,0.438-0.106,0.7-0.137l-0.685-0.395c-0.238,0.045-0.462,0.104-0.671,0.178c-0.208,0.072-0.406,0.164-0.589,0.271
				c-0.549,0.318-0.831,0.66-0.839,1.025c-0.014,0.363,0.249,0.695,0.774,1c0.53,0.307,1.108,0.457,1.732,0.447
				c0.627-0.008,1.217-0.173,1.764-0.492c0.184-0.105,0.342-0.221,0.467-0.342C316.594,228.292,316.695,228.164,316.77,228.025"/>
			<path clip-path="url(#SVGID_6_)" fill="#FFFFFF" d="M319.853,226.447l-0.628-0.363l-1.447,0.842l0.083-0.77
				c0.034-0.322,0.018-0.555-0.04-0.699c-0.066-0.145-0.189-0.27-0.367-0.373c-0.313-0.18-0.671-0.256-1.057-0.232
				c-0.393,0.027-0.789,0.156-1.18,0.384c-0.182,0.106-0.349,0.222-0.495,0.348c-0.158,0.126-0.295,0.266-0.426,0.413l0.73,0.422
				c0.065-0.168,0.149-0.318,0.251-0.443c0.096-0.121,0.215-0.224,0.346-0.301c0.173-0.1,0.354-0.152,0.553-0.156
				c0.199-0.008,0.378,0.035,0.53,0.124c0.103,0.06,0.174,0.13,0.216,0.212c0.041,0.084,0.057,0.187,0.047,0.305l-0.135,1.315
				l0.629,0.362L319.853,226.447"/>
			<polygon clip-path="url(#SVGID_6_)" fill="#FFFFFF" points="321.363,225.568 320.506,225.072 319.714,225.533 320.573,226.028 
							"/>
			<polygon clip-path="url(#SVGID_6_)" fill="#FFFFFF" points="324.516,223.736 323.925,223.394 323.178,223.828 320.461,222.259 
				319.653,222.728 319.045,223.265 319.628,223.601 320.239,223.06 322.376,224.294 321.625,224.73 322.219,225.072 			"/>
			<polygon clip-path="url(#SVGID_6_)" fill="#FFFFFF" points="327.52,221.992 326.928,221.649 326.176,222.085 323.46,220.516 
				322.657,220.982 322.05,221.519 322.633,221.855 323.239,221.318 325.375,222.551 324.629,222.985 325.223,223.326 			"/>
			<path clip-path="url(#SVGID_6_)" fill="#FFFFFF" d="M328.76,234.946l-0.686-0.396c-0.051,0.154-0.126,0.293-0.228,0.41
				c-0.101,0.118-0.233,0.225-0.404,0.324c-0.3,0.174-0.64,0.254-1.006,0.242c-0.374-0.01-0.726-0.112-1.066-0.309
				c-0.348-0.201-0.527-0.404-0.544-0.62c-0.021-0.212,0.115-0.41,0.414-0.585c0.173-0.1,0.355-0.176,0.56-0.235
				c0.203-0.059,0.437-0.105,0.707-0.132l-0.685-0.396c-0.244,0.042-0.463,0.103-0.677,0.175c-0.208,0.072-0.406,0.164-0.59,0.27
				c-0.547,0.318-0.831,0.661-0.839,1.027c-0.013,0.363,0.249,0.695,0.779,1.002c0.527,0.305,1.104,0.455,1.729,0.445
				c0.626-0.008,1.221-0.17,1.769-0.489c0.183-0.106,0.34-0.222,0.463-0.345C328.582,235.214,328.683,235.085,328.76,234.946"/>
			<path clip-path="url(#SVGID_6_)" fill="#FFFFFF" d="M331.84,233.369l-0.628-0.363l-1.446,0.84l0.087-0.766
				c0.03-0.324,0.013-0.559-0.045-0.703c-0.065-0.143-0.188-0.268-0.368-0.371c-0.312-0.18-0.663-0.254-1.05-0.23
				c-0.397,0.025-0.794,0.154-1.184,0.381c-0.183,0.106-0.347,0.225-0.499,0.349c-0.15,0.13-0.292,0.266-0.418,0.415l0.725,0.42
				c0.065-0.168,0.15-0.319,0.252-0.443c0.095-0.121,0.214-0.224,0.345-0.301c0.172-0.1,0.359-0.15,0.554-0.156
				c0.203-0.006,0.376,0.035,0.535,0.127c0.097,0.057,0.169,0.127,0.211,0.209c0.046,0.086,0.056,0.187,0.047,0.305l-0.135,1.314
				l0.628,0.363L331.84,233.369"/>
			<polygon clip-path="url(#SVGID_6_)" fill="#FFFFFF" points="333.353,232.49 332.495,231.994 331.703,232.454 332.561,232.95 			
				"/>
			<polygon clip-path="url(#SVGID_6_)" fill="#FFFFFF" points="336.503,230.658 335.916,230.32 335.17,230.753 332.448,229.181 
				331.642,229.65 331.032,230.187 331.616,230.523 332.228,229.982 334.368,231.218 333.618,231.656 334.204,231.994 			"/>
			<path clip-path="url(#SVGID_6_)" fill="#FFFFFF" d="M336.081,228.98c-0.412-0.238-0.664-0.43-0.757-0.572
				c-0.087-0.145-0.047-0.268,0.137-0.375c0.182-0.105,0.402-0.133,0.645-0.079c0.245,0.054,0.577,0.198,0.991,0.437
				c0.419,0.242,0.675,0.438,0.772,0.58c0.087,0.145,0.047,0.27-0.136,0.375c-0.184,0.107-0.396,0.131-0.647,0.08
				C336.837,229.369,336.5,229.222,336.081,228.98 M337.954,227.904c-0.552-0.318-1.091-0.496-1.627-0.528
				c-0.534-0.038-1.018,0.071-1.449,0.321c-0.433,0.252-0.618,0.531-0.55,0.842c0.059,0.309,0.364,0.621,0.917,0.939
				c0.547,0.316,1.087,0.492,1.621,0.525c0.53,0.035,1.017-0.07,1.449-0.322c0.431-0.25,0.614-0.533,0.551-0.84
				C338.808,228.532,338.501,228.219,337.954,227.904"/>
			<path clip-path="url(#SVGID_6_)" fill="#FFFFFF" d="M339.546,241.175l-0.689-0.398c-0.046,0.156-0.126,0.291-0.228,0.41
				c-0.1,0.117-0.233,0.224-0.404,0.324c-0.3,0.174-0.635,0.256-1.006,0.242c-0.373-0.01-0.724-0.113-1.066-0.311
				c-0.344-0.197-0.526-0.404-0.543-0.618c-0.022-0.214,0.12-0.409,0.418-0.582c0.172-0.101,0.351-0.18,0.554-0.239
				c0.204-0.059,0.438-0.105,0.708-0.133l-0.686-0.395c-0.24,0.044-0.462,0.104-0.671,0.177c-0.213,0.071-0.41,0.163-0.594,0.269
				c-0.547,0.318-0.826,0.664-0.839,1.025c-0.014,0.363,0.248,0.697,0.779,1.004c0.525,0.303,1.102,0.453,1.728,0.445
				c0.632-0.006,1.221-0.172,1.77-0.49c0.184-0.105,0.34-0.221,0.466-0.342C339.363,241.441,339.465,241.31,339.546,241.175"/>
			<path clip-path="url(#SVGID_6_)" fill="#FFFFFF" d="M342.623,239.594l-0.628-0.363l-1.447,0.841l0.089-0.767
				c0.032-0.321,0.016-0.555-0.047-0.702c-0.061-0.142-0.184-0.266-0.367-0.371c-0.312-0.181-0.663-0.254-1.051-0.23
				c-0.397,0.023-0.793,0.152-1.185,0.381c-0.182,0.105-0.345,0.224-0.497,0.348c-0.15,0.13-0.292,0.266-0.419,0.416l0.725,0.418
				c0.064-0.168,0.15-0.318,0.252-0.442c0.096-0.12,0.218-0.222,0.351-0.298c0.172-0.1,0.354-0.152,0.547-0.159
				c0.204-0.005,0.378,0.036,0.535,0.128c0.099,0.056,0.169,0.126,0.216,0.211c0.042,0.083,0.052,0.184,0.047,0.305l-0.139,1.312
				l0.628,0.363L342.623,239.594"/>
			<polygon clip-path="url(#SVGID_6_)" fill="#FFFFFF" points="344.134,238.715 343.276,238.219 342.484,238.679 343.344,239.175 
							"/>
			<path clip-path="url(#SVGID_6_)" fill="#FFFFFF" d="M343.871,236.951c-0.421-0.24-0.676-0.43-0.762-0.574
				c-0.094-0.142-0.043-0.266,0.134-0.369c0.183-0.105,0.397-0.135,0.641-0.082c0.245,0.053,0.577,0.197,0.996,0.439
				c0.413,0.238,0.67,0.434,0.769,0.578c0.091,0.141,0.045,0.269-0.137,0.375c-0.178,0.104-0.396,0.129-0.641,0.076
				C344.616,237.341,344.283,237.191,343.871,236.951 M345.732,235.875c-0.552-0.318-1.092-0.495-1.627-0.527
				c-0.529-0.035-1.019,0.07-1.449,0.321c-0.432,0.251-0.613,0.534-0.551,0.841c0.063,0.307,0.366,0.621,0.918,0.94
				c0.546,0.315,1.093,0.489,1.621,0.524c0.53,0.035,1.018-0.07,1.448-0.32c0.432-0.251,0.614-0.535,0.551-0.841
				C346.586,236.503,346.279,236.191,345.732,235.875"/>
			<path clip-path="url(#SVGID_6_)" fill="#FFFFFF" d="M346.266,234.873c-0.194-0.113-0.3-0.216-0.322-0.316
				c-0.021-0.1,0.04-0.193,0.188-0.279s0.31-0.121,0.482-0.109s0.353,0.074,0.547,0.186c0.194,0.112,0.302,0.215,0.322,0.315
				s-0.04,0.194-0.187,0.28c-0.147,0.084-0.311,0.121-0.483,0.109S346.461,234.985,346.266,234.873 M348.619,234.15
				c-0.537-0.31-1.061-0.478-1.585-0.51c-0.525-0.033-1.008,0.076-1.435,0.324c-0.387,0.224-0.588,0.466-0.602,0.723
				c-0.019,0.259,0.154,0.489,0.513,0.695c0.321,0.186,0.685,0.277,1.086,0.268c0.403-0.002,0.772-0.105,1.106-0.301
				c0.133-0.076,0.239-0.156,0.316-0.247c0.076-0.085,0.126-0.18,0.155-0.28c0.251,0.175,0.373,0.346,0.375,0.511
				c0.001,0.159-0.125,0.315-0.38,0.464c-0.12,0.07-0.258,0.131-0.41,0.185c-0.154,0.052-0.335,0.101-0.529,0.142l0.613,0.354
				c0.178-0.051,0.352-0.116,0.513-0.181c0.163-0.07,0.324-0.147,0.482-0.238c0.478-0.277,0.695-0.588,0.657-0.926
				C349.459,234.792,349.166,234.465,348.619,234.15"/>
			<path clip-path="url(#SVGID_6_)" fill="#FFFFFF" d="M351.176,247.89l-0.684-0.396c-0.051,0.154-0.126,0.293-0.227,0.41
				c-0.105,0.115-0.239,0.222-0.411,0.322c-0.299,0.174-0.636,0.256-1.002,0.244c-0.372-0.009-0.728-0.114-1.065-0.309
				c-0.348-0.201-0.527-0.404-0.544-0.619c-0.026-0.217,0.116-0.41,0.416-0.585c0.171-0.101,0.354-0.177,0.558-0.235
				c0.205-0.059,0.438-0.105,0.708-0.133l-0.691-0.398c-0.238,0.045-0.462,0.104-0.671,0.178c-0.207,0.073-0.406,0.164-0.59,0.27
				c-0.547,0.319-0.83,0.662-0.839,1.027c-0.013,0.363,0.249,0.695,0.781,1.003c0.524,0.304,1.102,0.454,1.728,0.445
				c0.627-0.009,1.221-0.171,1.768-0.489c0.184-0.107,0.336-0.225,0.463-0.346S351.1,248.029,351.176,247.89"/>
			<path clip-path="url(#SVGID_6_)" fill="#FFFFFF" d="M354.258,246.312l-0.629-0.363l-1.446,0.841l0.089-0.767
				c0.028-0.324,0.011-0.558-0.045-0.702c-0.066-0.145-0.19-0.269-0.369-0.371c-0.312-0.181-0.662-0.254-1.055-0.233
				c-0.393,0.027-0.79,0.156-1.18,0.383c-0.183,0.107-0.35,0.222-0.497,0.35c-0.157,0.126-0.294,0.266-0.426,0.412l0.73,0.422
				c0.065-0.168,0.151-0.318,0.252-0.442c0.097-0.121,0.214-0.224,0.345-0.301c0.173-0.101,0.355-0.153,0.554-0.156
				c0.204-0.007,0.379,0.035,0.529,0.124c0.104,0.059,0.175,0.129,0.217,0.212c0.046,0.086,0.056,0.187,0.048,0.304l-0.136,1.314
				l0.629,0.363L354.258,246.312"/>
			<polygon clip-path="url(#SVGID_6_)" fill="#FFFFFF" points="355.77,245.433 354.912,244.938 354.119,245.398 354.979,245.894 			
				"/>
			<path clip-path="url(#SVGID_6_)" fill="#FFFFFF" d="M355.5,243.666c-0.414-0.238-0.669-0.427-0.757-0.571
				c-0.092-0.142-0.048-0.269,0.132-0.371c0.181-0.106,0.401-0.133,0.645-0.081c0.246,0.055,0.576,0.199,0.991,0.438
				c0.419,0.242,0.675,0.437,0.768,0.578c0.097,0.145,0.051,0.271-0.132,0.378c-0.178,0.103-0.396,0.129-0.646,0.073
				C356.251,244.059,355.919,243.908,355.5,243.666 M357.369,242.593c-0.553-0.318-1.093-0.496-1.629-0.527
				c-0.534-0.039-1.018,0.07-1.448,0.32c-0.433,0.251-0.619,0.531-0.55,0.841c0.062,0.308,0.363,0.622,0.915,0.94
				c0.547,0.316,1.093,0.49,1.622,0.525c0.531,0.035,1.019-0.071,1.448-0.321c0.433-0.251,0.615-0.534,0.552-0.841
				C358.222,243.222,357.915,242.908,357.369,242.593"/>
			<path clip-path="url(#SVGID_6_)" fill="#FFFFFF" d="M357.819,241.431c-0.128-0.074-0.194-0.153-0.189-0.239
				c-0.001-0.082,0.07-0.165,0.202-0.241s0.27-0.115,0.416-0.118c0.143,0,0.275,0.035,0.408,0.112
				c0.133,0.076,0.199,0.156,0.199,0.238c-0.009,0.083-0.075,0.162-0.207,0.239s-0.272,0.118-0.41,0.121
				C358.09,241.546,357.953,241.508,357.819,241.431 M359.199,242.31c-0.163-0.095-0.246-0.189-0.246-0.289
				c-0.007-0.103,0.074-0.197,0.232-0.289c0.157-0.092,0.32-0.139,0.489-0.137c0.171,0.002,0.341,0.051,0.504,0.145
				c0.164,0.096,0.244,0.189,0.246,0.289c0.005,0.098-0.077,0.193-0.233,0.284c-0.157,0.091-0.32,0.14-0.492,0.14
				C359.524,242.453,359.363,242.404,359.199,242.31 M361.026,241.301c-0.216-0.124-0.45-0.194-0.705-0.206
				c-0.248-0.016-0.518,0.023-0.803,0.117c0.136-0.15,0.197-0.291,0.171-0.424s-0.13-0.252-0.318-0.359
				c-0.281-0.163-0.597-0.229-0.948-0.189c-0.354,0.035-0.727,0.168-1.127,0.401s-0.629,0.454-0.689,0.653
				c-0.06,0.207,0.043,0.391,0.324,0.553c0.188,0.109,0.393,0.168,0.622,0.182c0.229,0.016,0.474-0.02,0.732-0.1
				c-0.162,0.166-0.228,0.322-0.201,0.467c0.021,0.146,0.144,0.283,0.358,0.406c0.327,0.189,0.679,0.269,1.067,0.238
				c0.386-0.028,0.797-0.168,1.224-0.415c0.426-0.247,0.659-0.483,0.709-0.707C361.492,241.693,361.353,241.49,361.026,241.301"/>
			<path clip-path="url(#SVGID_6_)" fill="#FFFFFF" d="M361.96,254.115l-0.686-0.395c-0.052,0.152-0.126,0.292-0.228,0.41
				c-0.102,0.117-0.233,0.225-0.404,0.324c-0.3,0.174-0.64,0.254-1.006,0.242c-0.374-0.01-0.727-0.113-1.067-0.311
				c-0.348-0.199-0.526-0.404-0.543-0.619c-0.022-0.212,0.115-0.41,0.414-0.584c0.173-0.1,0.355-0.176,0.56-0.236
				c0.203-0.059,0.437-0.105,0.707-0.133l-0.686-0.395c-0.244,0.041-0.462,0.104-0.676,0.174c-0.209,0.074-0.406,0.165-0.59,0.271
				c-0.547,0.318-0.831,0.66-0.84,1.026c-0.012,0.363,0.25,0.696,0.78,1.003c0.526,0.305,1.104,0.454,1.729,0.445
				c0.626-0.008,1.221-0.172,1.769-0.49c0.183-0.105,0.34-0.221,0.461-0.344C361.782,254.383,361.883,254.253,361.96,254.115"/>
			<path clip-path="url(#SVGID_6_)" fill="#FFFFFF" d="M365.039,252.539l-0.627-0.363l-1.447,0.84l0.088-0.766
				c0.029-0.326,0.013-0.559-0.045-0.703c-0.065-0.145-0.188-0.269-0.368-0.371c-0.312-0.18-0.663-0.254-1.05-0.23
				c-0.397,0.023-0.794,0.153-1.186,0.381c-0.182,0.105-0.345,0.225-0.497,0.348c-0.15,0.131-0.292,0.266-0.419,0.416l0.726,0.419
				c0.065-0.169,0.149-0.319,0.251-0.442c0.096-0.121,0.215-0.225,0.346-0.301c0.172-0.101,0.359-0.15,0.553-0.156
				c0.203-0.006,0.377,0.035,0.536,0.127c0.097,0.055,0.169,0.127,0.211,0.209c0.046,0.086,0.056,0.186,0.046,0.305l-0.135,1.314
				l0.629,0.363L365.039,252.539"/>
			<polygon clip-path="url(#SVGID_6_)" fill="#FFFFFF" points="366.553,251.66 365.695,251.164 364.902,251.623 365.761,252.119 			
				"/>
			<path clip-path="url(#SVGID_6_)" fill="#FFFFFF" d="M366.282,249.892c-0.413-0.238-0.669-0.428-0.756-0.572
				c-0.093-0.141-0.048-0.268,0.13-0.371c0.184-0.105,0.401-0.133,0.645-0.08c0.246,0.054,0.578,0.197,0.992,0.437
				c0.418,0.242,0.674,0.437,0.772,0.581c0.091,0.142,0.047,0.268-0.136,0.375c-0.18,0.104-0.397,0.129-0.641,0.076
				C367.033,250.285,366.7,250.134,366.282,249.892 M368.149,248.818c-0.552-0.318-1.091-0.494-1.626-0.527
				c-0.534-0.039-1.02,0.07-1.45,0.322c-0.431,0.25-0.617,0.529-0.549,0.84c0.062,0.307,0.365,0.622,0.915,0.941
				c0.548,0.314,1.093,0.489,1.623,0.524s1.017-0.071,1.448-0.321s0.614-0.534,0.552-0.84
				C369.004,249.447,368.696,249.134,368.149,248.818"/>
			<polygon clip-path="url(#SVGID_6_)" fill="#FFFFFF" points="369.828,246.477 369.347,246.2 366.871,247.64 367.5,248.001 
				369.082,247.082 370.551,249.335 371.379,248.855 			"/>
			<path clip-path="url(#SVGID_6_)" fill="#FFFFFF" d="M373.594,260.833l-0.684-0.396c-0.051,0.153-0.127,0.292-0.228,0.41
				c-0.106,0.114-0.237,0.222-0.409,0.321c-0.301,0.174-0.637,0.257-1.002,0.245c-0.372-0.009-0.729-0.114-1.072-0.312
				c-0.343-0.198-0.521-0.401-0.543-0.62c-0.021-0.212,0.12-0.406,0.42-0.58c0.172-0.101,0.354-0.178,0.558-0.236
				c0.205-0.059,0.438-0.105,0.702-0.137l-0.685-0.395c-0.238,0.045-0.463,0.104-0.671,0.178c-0.207,0.074-0.406,0.165-0.589,0.271
				c-0.548,0.319-0.832,0.661-0.839,1.027c-0.014,0.362,0.248,0.695,0.773,0.999c0.531,0.307,1.107,0.457,1.733,0.449
				c0.627-0.01,1.217-0.175,1.764-0.494c0.184-0.105,0.341-0.221,0.467-0.341C373.417,261.102,373.519,260.972,373.594,260.833"/>
			<path clip-path="url(#SVGID_6_)" fill="#FFFFFF" d="M376.676,259.255l-0.629-0.363l-1.447,0.842l0.084-0.77
				c0.033-0.322,0.016-0.555-0.04-0.699c-0.065-0.145-0.189-0.269-0.369-0.371c-0.312-0.182-0.669-0.258-1.055-0.234
				c-0.393,0.027-0.789,0.156-1.181,0.384c-0.182,0.106-0.348,0.222-0.496,0.348c-0.156,0.128-0.293,0.266-0.424,0.413l0.73,0.422
				c0.064-0.168,0.15-0.319,0.25-0.443c0.096-0.119,0.214-0.223,0.346-0.299c0.173-0.102,0.355-0.154,0.555-0.156
				c0.198-0.01,0.376,0.035,0.529,0.123c0.102,0.059,0.174,0.129,0.217,0.213c0.04,0.082,0.055,0.186,0.047,0.303l-0.137,1.315
				l0.63,0.363L376.676,259.255"/>
			<polygon clip-path="url(#SVGID_6_)" fill="#FFFFFF" points="378.188,258.376 377.329,257.88 376.537,258.341 377.396,258.837 			
				"/>
			<path clip-path="url(#SVGID_6_)" fill="#FFFFFF" d="M377.918,256.61c-0.414-0.238-0.668-0.427-0.756-0.571
				c-0.094-0.143-0.049-0.269,0.131-0.371c0.181-0.107,0.399-0.133,0.644-0.081c0.246,0.054,0.577,0.198,0.991,0.437
				c0.418,0.242,0.675,0.438,0.768,0.578c0.098,0.145,0.051,0.271-0.132,0.377c-0.177,0.104-0.396,0.131-0.645,0.074
				C378.669,257.003,378.336,256.852,377.918,256.61 M379.781,255.535c-0.548-0.316-1.088-0.494-1.622-0.525
				c-0.535-0.039-1.02,0.07-1.45,0.32c-0.432,0.252-0.617,0.531-0.549,0.842c0.062,0.307,0.364,0.622,0.91,0.938
				c0.553,0.318,1.097,0.492,1.628,0.527c0.528,0.036,1.013-0.073,1.443-0.324c0.432-0.25,0.618-0.531,0.555-0.838
				C380.64,256.165,380.332,255.852,379.781,255.535"/>
			<path clip-path="url(#SVGID_6_)" fill="#FFFFFF" d="M381.651,255.144c-0.194-0.111-0.306-0.218-0.328-0.318
				c-0.025-0.098,0.04-0.188,0.188-0.273c0.152-0.09,0.31-0.127,0.481-0.115c0.17,0.016,0.354,0.079,0.547,0.191
				c0.188,0.11,0.303,0.215,0.327,0.312c0.022,0.1-0.045,0.191-0.196,0.279c-0.146,0.086-0.304,0.125-0.474,0.109
				C382.023,255.318,381.842,255.253,381.651,255.144 M383.3,254.122c-0.32-0.187-0.683-0.277-1.085-0.274
				c-0.402,0.009-0.778,0.109-1.114,0.303c-0.132,0.077-0.237,0.163-0.314,0.248c-0.074,0.086-0.126,0.181-0.149,0.277
				c-0.256-0.176-0.386-0.344-0.381-0.507c-0.002-0.164,0.122-0.319,0.374-0.466c0.118-0.068,0.253-0.131,0.413-0.18
				c0.156-0.057,0.34-0.104,0.543-0.145l-0.613-0.354c-0.188,0.05-0.365,0.112-0.527,0.183c-0.168,0.068-0.326,0.148-0.479,0.236
				c-0.477,0.277-0.692,0.586-0.655,0.926s0.329,0.667,0.876,0.982c0.536,0.31,1.062,0.478,1.587,0.51
				c0.523,0.033,0.996-0.076,1.427-0.326c0.386-0.225,0.589-0.467,0.608-0.721C383.827,254.555,383.652,254.325,383.3,254.122"/>
			<path clip-path="url(#SVGID_6_)" fill="#FFFFFF" d="M385.3,267.593l-0.684-0.396c-0.05,0.154-0.131,0.289-0.233,0.408
				c-0.1,0.117-0.232,0.224-0.403,0.324c-0.3,0.174-0.635,0.256-1.002,0.244c-0.372-0.008-0.729-0.115-1.071-0.312
				c-0.344-0.197-0.527-0.403-0.543-0.619c-0.021-0.213,0.12-0.406,0.419-0.581c0.172-0.101,0.356-0.177,0.56-0.235
				c0.197-0.062,0.438-0.105,0.701-0.137l-0.686-0.395c-0.238,0.044-0.462,0.104-0.67,0.177c-0.208,0.074-0.406,0.165-0.59,0.271
				c-0.548,0.319-0.831,0.662-0.844,1.025c-0.008,0.365,0.247,0.695,0.779,1.002c0.526,0.304,1.104,0.453,1.732,0.448
				c0.627-0.009,1.217-0.175,1.765-0.493c0.184-0.105,0.341-0.221,0.466-0.342C385.123,267.861,385.224,267.732,385.3,267.593"/>
			<path clip-path="url(#SVGID_6_)" fill="#FFFFFF" d="M388.376,266.012l-0.622-0.36l-1.447,0.841l0.084-0.77
				c0.033-0.321,0.016-0.555-0.041-0.699c-0.066-0.145-0.189-0.269-0.367-0.371c-0.313-0.181-0.67-0.257-1.057-0.233
				c-0.392,0.027-0.789,0.156-1.178,0.383c-0.185,0.107-0.352,0.222-0.498,0.348c-0.157,0.128-0.299,0.264-0.426,0.414l0.727,0.418
				c0.065-0.168,0.155-0.314,0.256-0.439c0.092-0.123,0.215-0.223,0.346-0.3c0.172-0.101,0.354-0.153,0.554-0.156
				c0.198-0.009,0.377,0.035,0.53,0.124c0.103,0.059,0.174,0.129,0.215,0.212s0.057,0.187,0.047,0.304l-0.135,1.314l0.623,0.361
				L388.376,266.012"/>
			<polygon clip-path="url(#SVGID_6_)" fill="#FFFFFF" points="389.89,265.133 389.036,264.64 388.243,265.101 389.098,265.593 			
				"/>
			<path clip-path="url(#SVGID_6_)" fill="#FFFFFF" d="M389.625,263.369c-0.414-0.238-0.669-0.427-0.756-0.571
				c-0.1-0.145-0.049-0.269,0.129-0.371c0.182-0.106,0.397-0.136,0.646-0.079c0.245,0.053,0.575,0.197,0.991,0.436
				c0.417,0.242,0.668,0.434,0.767,0.578c0.093,0.141,0.046,0.269-0.137,0.375c-0.176,0.104-0.396,0.129-0.64,0.076
				C390.37,263.758,390.043,263.611,389.625,263.369 M391.486,262.293c-0.546-0.315-1.091-0.496-1.627-0.528
				c-0.529-0.035-1.013,0.074-1.443,0.324c-0.432,0.251-0.618,0.531-0.556,0.838s0.37,0.625,0.917,0.941
				c0.547,0.314,1.093,0.488,1.626,0.527c0.53,0.035,1.013-0.074,1.444-0.324c0.432-0.251,0.619-0.531,0.556-0.838
				C392.34,262.921,392.034,262.609,391.486,262.293"/>
			<path clip-path="url(#SVGID_6_)" fill="#FFFFFF" d="M394.963,260.937c-0.363-0.21-0.756-0.307-1.18-0.293
				c-0.428,0.013-0.834,0.137-1.235,0.369c-0.069,0.041-0.131,0.082-0.188,0.127c-0.06,0.041-0.11,0.088-0.156,0.139l-0.516-0.298
				l1.431-0.832l-0.629-0.363l-2.106,1.224l1.866,1.077c0.092-0.13,0.187-0.245,0.298-0.345c0.105-0.098,0.218-0.18,0.339-0.25
				c0.209-0.121,0.423-0.187,0.637-0.198c0.219-0.009,0.418,0.035,0.59,0.136c0.174,0.1,0.253,0.215,0.236,0.342
				c-0.019,0.124-0.131,0.248-0.338,0.369c-0.142,0.082-0.32,0.156-0.529,0.219c-0.213,0.064-0.456,0.117-0.74,0.164l0.668,0.387
				c0.255-0.065,0.492-0.139,0.711-0.225s0.422-0.18,0.609-0.289c0.433-0.25,0.665-0.504,0.709-0.76
				C395.479,261.376,395.319,261.142,394.963,260.937"/>
			<path clip-path="url(#SVGID_6_)" fill="#CFD1D2" d="M196.88,212.571c-0.112-0.065-0.229-0.097-0.362-0.091
				c-0.127,0.009-0.259,0.049-0.391,0.127l-0.468,0.271l0.7,0.403l0.466-0.272c0.133-0.075,0.204-0.152,0.218-0.227
				C197.053,212.707,196.997,212.638,196.88,212.571 M198.38,213.279c-0.143-0.082-0.292-0.121-0.448-0.111
				c-0.159,0.008-0.321,0.061-0.494,0.162l-0.497,0.288l0.863,0.499l0.497-0.289c0.167-0.098,0.264-0.195,0.273-0.283
				C198.59,213.453,198.528,213.365,198.38,213.279 M201.741,209.746c-0.113-0.065-0.234-0.095-0.361-0.091
				c-0.128,0.009-0.26,0.051-0.392,0.127l-0.472,0.275l0.7,0.402l0.471-0.273c0.132-0.077,0.203-0.154,0.218-0.227
				C201.91,209.885,201.858,209.813,201.741,209.746 M203.237,210.457c-0.143-0.082-0.291-0.121-0.45-0.111
				c-0.157,0.008-0.32,0.062-0.492,0.162l-0.498,0.289l0.863,0.498l0.498-0.289c0.172-0.1,0.263-0.195,0.278-0.286
				C203.452,210.628,203.385,210.542,203.237,210.457 M206.063,208.803l-0.092-0.054l-0.411,0.24
				c-0.163,0.094-0.259,0.186-0.284,0.266c-0.025,0.079,0.011,0.153,0.119,0.215c0.102,0.059,0.215,0.082,0.341,0.079
				c0.122-0.005,0.245-0.046,0.361-0.114c0.147-0.086,0.223-0.189,0.218-0.31C206.308,209.003,206.227,208.896,206.063,208.803
				 M197.899,212.683c0.239-0.074,0.479-0.101,0.717-0.074c0.244,0.024,0.474,0.098,0.679,0.216c0.321,0.185,0.45,0.384,0.395,0.599
				c-0.06,0.219-0.308,0.451-0.745,0.705l-1.406,0.816l-3.31-1.91l1.269-0.738c0.457-0.266,0.863-0.418,1.203-0.457
				c0.342-0.038,0.667,0.033,0.975,0.209c0.158,0.092,0.26,0.193,0.296,0.301C198.015,212.457,197.99,212.571,197.899,212.683
				 M198.951,212.238l1.384-0.805l0.644,0.371l-1.385,0.805L198.951,212.238 M202.761,209.858c0.239-0.075,0.473-0.098,0.717-0.075
				c0.244,0.024,0.474,0.098,0.677,0.216c0.323,0.186,0.446,0.386,0.391,0.601c-0.055,0.215-0.303,0.449-0.744,0.705l-1.405,0.816
				l-3.311-1.91l1.273-0.74c0.457-0.266,0.858-0.416,1.204-0.458c0.342-0.038,0.668,0.033,0.974,0.21
				c0.159,0.091,0.262,0.191,0.298,0.301C202.871,209.634,202.851,209.746,202.761,209.858 M203.187,208.864
				c0.132-0.124,0.269-0.238,0.421-0.351c0.143-0.111,0.305-0.218,0.472-0.315c0.446-0.259,0.857-0.392,1.23-0.407
				c0.376-0.011,0.764,0.094,1.162,0.325l1.415,0.816l-0.797,0.463l-0.367-0.212c0.046,0.15,0.037,0.28-0.023,0.398
				c-0.071,0.118-0.193,0.23-0.385,0.343c-0.254,0.147-0.54,0.224-0.845,0.229c-0.315,0.006-0.585-0.062-0.825-0.2
				c-0.292-0.169-0.41-0.348-0.339-0.543c0.06-0.195,0.303-0.413,0.729-0.661l0.467-0.271l-0.062-0.035
				c-0.127-0.074-0.271-0.098-0.423-0.074c-0.163,0.024-0.34,0.097-0.549,0.219c-0.167,0.096-0.309,0.197-0.42,0.303
				c-0.112,0.101-0.198,0.209-0.258,0.321L203.187,208.864 M207.577,206.237l0.786-0.458l2.482,1.434l-0.787,0.457l-0.357-0.207
				c0.021,0.154,0.001,0.29-0.059,0.408c-0.065,0.115-0.177,0.221-0.334,0.312c-0.285,0.165-0.594,0.239-0.915,0.224
				c-0.326-0.012-0.658-0.115-0.994-0.31l-1.517-0.876l0.796-0.463l0.25,0.145c0.133,0.076,0.301,0.173,0.5,0.294
				c0.205,0.118,0.337,0.195,0.404,0.233c0.199,0.115,0.352,0.198,0.449,0.243c0.097,0.044,0.178,0.073,0.239,0.08
				c0.087,0.008,0.169,0.008,0.25-0.004c0.082-0.017,0.153-0.041,0.225-0.083c0.161-0.093,0.228-0.203,0.196-0.333
				c-0.031-0.129-0.165-0.259-0.39-0.39L207.577,206.237 M224.601,200.893l-6.476-3.739l-2.639,1.534l-23.124,13.438l-2.585-1.492
				l0.038,6.724h11.607l-2.585-1.492l23.125-13.438L224.601,200.893"/>
			<path clip-path="url(#SVGID_6_)" fill="#FFFFFF" d="M195.66,212.878l0.466-0.271c0.133-0.078,0.264-0.118,0.391-0.127
				c0.133-0.006,0.25,0.025,0.362,0.091c0.118,0.067,0.174,0.137,0.165,0.212c-0.015,0.074-0.085,0.151-0.217,0.229l-0.467,0.271
				L195.66,212.878 M196.942,213.618l0.497-0.288c0.173-0.102,0.336-0.154,0.494-0.162c0.158-0.01,0.306,0.029,0.448,0.111
				c0.148,0.086,0.211,0.174,0.196,0.266c-0.011,0.088-0.106,0.186-0.274,0.283l-0.497,0.289L196.942,213.618 M199.294,212.825
				c-0.204-0.117-0.434-0.191-0.678-0.216c-0.239-0.026-0.479,0-0.718,0.074c0.091-0.112,0.116-0.227,0.075-0.334
				c-0.037-0.107-0.139-0.208-0.297-0.301c-0.307-0.176-0.632-0.247-0.974-0.209c-0.34,0.039-0.747,0.191-1.204,0.457l-1.269,0.738
				l3.31,1.91l1.405-0.816c0.437-0.253,0.685-0.486,0.745-0.705C199.745,213.208,199.616,213.011,199.294,212.825"/>
			<polygon clip-path="url(#SVGID_6_)" fill="#FFFFFF" points="200.979,211.804 200.335,211.433 198.95,212.238 199.594,212.609 			
				"/>
			<path clip-path="url(#SVGID_6_)" fill="#FFFFFF" d="M200.517,210.056l0.472-0.274c0.132-0.077,0.263-0.118,0.39-0.127
				c0.127-0.003,0.25,0.027,0.362,0.092c0.118,0.068,0.169,0.139,0.165,0.212c-0.015,0.074-0.085,0.15-0.217,0.228l-0.472,0.275
				L200.517,210.056 M201.798,210.796l0.497-0.289c0.173-0.101,0.336-0.154,0.493-0.163c0.158-0.009,0.306,0.03,0.449,0.112
				c0.148,0.086,0.215,0.172,0.199,0.263c-0.014,0.091-0.105,0.187-0.278,0.286l-0.497,0.289L201.798,210.796 M204.156,210
				c-0.204-0.118-0.434-0.192-0.678-0.216c-0.245-0.023-0.479,0-0.718,0.074c0.091-0.112,0.111-0.224,0.075-0.333
				c-0.037-0.108-0.139-0.208-0.297-0.301c-0.306-0.177-0.632-0.247-0.974-0.208c-0.346,0.041-0.747,0.191-1.204,0.457l-1.273,0.74
				l3.309,1.911l1.407-0.816c0.441-0.256,0.689-0.49,0.744-0.705S204.478,210.186,204.156,210"/>
			<path clip-path="url(#SVGID_6_)" fill="#FFFFFF" d="M205.395,209.469c-0.107-0.062-0.143-0.136-0.119-0.215
				c0.026-0.08,0.122-0.171,0.284-0.266l0.411-0.239l0.092,0.054c0.163,0.094,0.245,0.201,0.251,0.322
				c0.005,0.121-0.071,0.224-0.218,0.31c-0.117,0.068-0.239,0.109-0.361,0.115C205.609,209.551,205.498,209.528,205.395,209.469
				 M207.887,208.932l-1.416-0.816c-0.398-0.23-0.785-0.336-1.162-0.325c-0.372,0.015-0.783,0.147-1.229,0.407
				c-0.167,0.098-0.331,0.204-0.472,0.316c-0.152,0.112-0.289,0.227-0.421,0.351l0.603,0.348c0.061-0.113,0.147-0.222,0.258-0.322
				c0.111-0.106,0.254-0.207,0.421-0.304c0.208-0.122,0.386-0.194,0.549-0.218c0.152-0.023,0.295,0,0.423,0.074l0.062,0.035
				l-0.467,0.271c-0.427,0.248-0.67,0.466-0.73,0.661c-0.069,0.195,0.049,0.374,0.339,0.543c0.24,0.139,0.512,0.207,0.827,0.2
				c0.305-0.005,0.59-0.082,0.844-0.229c0.192-0.112,0.314-0.225,0.385-0.343c0.06-0.118,0.07-0.248,0.023-0.398l0.368,0.213
				L207.887,208.932"/>
			<path clip-path="url(#SVGID_6_)" fill="#FFFFFF" d="M210.845,207.213l-2.482-1.434l-0.786,0.457l1.226,0.708
				c0.225,0.129,0.358,0.259,0.389,0.389c0.031,0.129-0.034,0.239-0.197,0.333c-0.07,0.042-0.142,0.066-0.223,0.083
				c-0.081,0.013-0.163,0.013-0.25,0.004c-0.061-0.006-0.144-0.036-0.24-0.08c-0.097-0.044-0.25-0.126-0.449-0.243
				c-0.066-0.038-0.199-0.115-0.404-0.233c-0.199-0.121-0.367-0.218-0.5-0.294l-0.25-0.145l-0.797,0.463l1.517,0.876
				c0.337,0.194,0.669,0.297,0.995,0.31c0.321,0.014,0.631-0.06,0.915-0.224c0.158-0.091,0.269-0.198,0.334-0.313
				c0.06-0.118,0.08-0.253,0.058-0.407l0.358,0.207L210.845,207.213"/>
		</g>
	</g>
</g>
<g>
	<g>
		<g enable-background="new    ">
			<defs>
				<polygon id="SVGID_7_" enable-background="new    " points="381.554,290.697 388.385,286.727 395.256,290.694 388.424,294.664 
									"/>
			</defs>
			<clipPath id="SVGID_8_">
				<use xlink:href="#SVGID_7_"  overflow="visible"/>
			</clipPath>
			<g clip-path="url(#SVGID_8_)">
				<g>
					<g>
						<g>
							<polyline fill="#FFFFFF" points="390.116,287.726 388.385,286.727 381.554,290.697 384.977,292.673 388.424,294.664 
								390.149,293.662 388.438,292.673 390.138,291.685 388.421,290.694 390.121,289.706 388.409,288.717 390.116,287.726 							
								"/>
						</g>
					</g>
				</g>
			</g>
		</g>
	</g>
</g>
<g>
	<g>
		<g enable-background="new    ">
			<defs>
				<polygon id="SVGID_9_" enable-background="new    " points="181.894,175.357 188.719,171.39 195.589,175.357 188.764,179.323 
									"/>
			</defs>
			<clipPath id="SVGID_10_">
				<use xlink:href="#SVGID_9_"  overflow="visible"/>
			</clipPath>
			<g clip-path="url(#SVGID_10_)">
				<g>
					<g>
						<g>
							<polyline fill="#FFFFFF" points="190.449,172.389 188.719,171.39 181.894,175.357 185.316,177.333 188.764,179.323 
								190.483,178.324 188.765,177.333 190.465,176.345 188.754,175.357 190.46,174.365 188.75,173.377 190.449,172.389 							"/>
						</g>
					</g>
				</g>
			</g>
		</g>
	</g>
</g>
<g>
	<polygon fill="#EC7404" stroke="#FFFFFF" stroke-width="0.5" points="312.837,-23.968 316.249,-23.968 314.68,-12.192 	"/>
	<circle fill="#EC7404" cx="314.543" cy="-33" r="9.731"/>
	<polygon fill="none" stroke="#FFFFFF" stroke-width="0.5" points="318.413,-35.826 314.543,-40.501 310.674,-35.826 
		312.627,-35.826 312.627,-30.704 316.46,-30.704 316.46,-35.826 	"/>
	<text transform="matrix(1 0 0 1 312.876 -25.1196)" fill="#FFFFFF" font-family="'DejaVuSansCondensed-Bold'" font-size="5"></text>
</g>
<g>
	<polygon fill="#EC7404" stroke="#FFFFFF" stroke-width="0.5" points="338.409,-23.968 341.822,-23.968 340.252,-12.192 	"/>
	<circle fill="#EC7404" cx="340.116" cy="-33" r="9.731"/>
	<polygon fill="none" stroke="#FFFFFF" stroke-width="0.5" points="343.985,-35.826 340.115,-40.501 336.246,-35.826 
		338.199,-35.826 338.199,-30.704 342.032,-30.704 342.032,-35.826 	"/>
	<rect x="338.429" y="-29.443" fill="none" width="8" height="3.833"/>
	<text transform="matrix(1 0 0 1 338.4297 -25.6436)" fill="#FFFFFF" font-family="'DejaVuSansCondensed-Bold'" font-size="5">P</text>
</g>
<g>
	<polygon fill="#EC7404" stroke="#FFFFFF" stroke-width="0.5" points="363.981,-23.968 367.394,-23.968 365.824,-12.192 	"/>
	<circle fill="#EC7404" cx="365.688" cy="-33" r="9.731"/>
	<polygon fill="none" stroke="#FFFFFF" stroke-width="0.5" points="369.558,-35.826 365.688,-40.501 361.818,-35.826 
		363.771,-35.826 363.771,-30.704 367.604,-30.704 367.604,-35.826 	"/>
	<rect x="360.819" y="-29.442" fill="none" width="8" height="3.833"/>
	<text transform="matrix(1 0 0 1 360.8203 -25.6436)" fill="#FFFFFF" font-family="'DejaVuSansCondensed-Bold'" font-size="5"> EC</text>
</g>
<g>
	<polygon fill="#EC7404" stroke="#FFFFFF" stroke-width="0.5" points="415.003,-23.991 418.417,-23.991 416.847,-12.215 	"/>
	<g>
		<circle fill="#EC7404" cx="416.71" cy="-33" r="9.731"/>
		<g>
			<g>
				<path fill="none" stroke="#FFFFFF" stroke-width="0.5" d="M421.197-29.081c0,0.312-0.255,0.567-0.567,0.567h-7.839
					c-0.312,0-0.567-0.255-0.567-0.567v-7.84c0-0.312,0.255-0.567,0.567-0.567h7.839c0.312,0,0.567,0.255,0.567,0.567V-29.081z"/>
			</g>
			<polygon fill="#FFFFFF" points="413.152,-32.975 415.846,-29.744 420.287,-36.475 415.608,-31.057 			"/>
		</g>
	</g>
</g>
<g>
	<polygon fill="#EC7404" stroke="#FFFFFF" stroke-width="0.5" points="440.863,-23.991 444.277,-23.991 442.707,-12.215 	"/>
	<circle fill="#EC7404" cx="442.571" cy="-33" r="9.731"/>
	<g>
		<g>
			<path fill="#EC7404" d="M446.946-31.146c0,0.312-0.255,0.567-0.567,0.567h-9.54c-0.312,0-0.567-0.255-0.567-0.567V-36.6
				c0-0.312,0.255-0.567,0.567-0.567h9.54c0.312,0,0.567,0.255,0.567,0.567V-31.146z"/>
			<path fill="none" stroke="#FFFFFF" stroke-width="0.5" d="M446.946-31.146c0,0.312-0.255,0.567-0.567,0.567h-9.54
				c-0.312,0-0.567-0.255-0.567-0.567V-36.6c0-0.312,0.255-0.567,0.567-0.567h9.54c0.312,0,0.567,0.255,0.567,0.567V-31.146z"/>
		</g>
		<g>
			<path fill="#EC7404" d="M448.87-29.223c0,0.312-0.255,0.567-0.567,0.567h-9.54c-0.312,0-0.567-0.255-0.567-0.567v-5.454
				c0-0.312,0.255-0.567,0.567-0.567h9.54c0.312,0,0.567,0.255,0.567,0.567V-29.223z"/>
			<path fill="none" stroke="#FFFFFF" stroke-width="0.5" d="M448.87-29.223c0,0.312-0.255,0.567-0.567,0.567h-9.54
				c-0.312,0-0.567-0.255-0.567-0.567v-5.454c0-0.312,0.255-0.567,0.567-0.567h9.54c0.312,0,0.567,0.255,0.567,0.567V-29.223z"/>
		</g>
	</g>
</g>
<g>
	<polygon fill="#EC7404" stroke="#FFFFFF" stroke-width="0.5" points="287.264,-23.968 290.677,-23.968 289.107,-12.192 	"/>
	<circle fill="#EC7404" cx="288.97" cy="-33" r="9.731"/>
	<g>
		<path fill="#FFFFFF" d="M285.842-31.311h6.294v-0.557h-6.294V-31.311z M285.842-29.615h6.294v-0.557h-6.294V-29.615z
			 M285.842-34.658h6.294v-0.558h-6.294V-34.658z M285.842-32.993h6.294v-0.557h-6.294V-32.993z M292.842-27.685h-7.744v-11.183
			h5.521v2.222h2.223V-27.685z M284.54-27.125 M291.178-38.797l1.594,1.592h-1.594V-38.797z M291.336-39.427h-6.796v12.301h8.86
			v-10.239L291.336-39.427z"/>
	</g>
</g>
<g>
	<polygon fill="#EC7404" stroke="#FFFFFF" stroke-width="0.5" points="261.69,-23.968 265.104,-23.968 263.533,-12.192 	"/>
	<circle fill="#EC7404" cx="263.397" cy="-33.001" r="9.731"/>
	<g>
		<g>
			<path fill="#FFFFFF" d="M268.454-33.723c-0.002-0.272-0.025-0.522-0.083-0.758c-0.046-0.183-0.114-0.358-0.217-0.517
				c-0.152-0.24-0.387-0.429-0.656-0.535c-0.269-0.108-0.564-0.149-0.898-0.149c-0.295,0-0.563,0.033-0.811,0.114
				c-0.185,0.062-0.357,0.153-0.505,0.277c-0.223,0.186-0.377,0.438-0.463,0.709c-0.086,0.264-0.118,0.55-0.119,0.862l-0.569,4.806
				h1.198v2.099h0.97v-2.099h0.6v2.099h0.97v-2.099h1.204L268.454-33.723z"/>
			<path fill="#FFFFFF" d="M260.08-36.128c0.872,0,1.576-0.707,1.576-1.577c0-0.871-0.704-1.577-1.576-1.577
				c-0.87,0-1.575,0.706-1.576,1.577C258.505-36.834,259.21-36.128,260.08-36.128 M260.08-35.59c-1.305,0.001-2.36,1.057-2.36,2.361
				v2.469h1.092v3.943h0.969v-3.943h0.6v3.943h0.97v-3.943h1.091v-2.469C262.44-34.534,261.385-35.589,260.08-35.59"/>
		</g>
		<circle fill="#FFFFFF" cx="266.494" cy="-37.707" r="1.584"/>
	</g>
</g>
<g>
	<polygon fill="#EC7404" stroke="#FFFFFF" stroke-width="0.5" points="389.554,-23.968 392.967,-23.968 391.397,-12.192 	"/>
	<circle fill="#EC7404" cx="391.26" cy="-33" r="9.731"/>
	<text transform="matrix(1 0 0 1 389.501 -25.1196)" fill="#FFFFFF" font-family="'DejaVuSansCondensed-Bold'" font-size="5"></text>
	<polygon fill="none" stroke="#FFFFFF" stroke-width="0.5" points="387.342,-35.379 391.212,-30.704 395.081,-35.379 
		393.128,-35.379 393.128,-40.501 389.295,-40.501 389.295,-35.379 	"/>
</g>
<g>
	<polygon fill="#EC7404" stroke="#FFFFFF" stroke-width="0.5" points="226.416,149.003 229.829,149.003 228.258,160.779 	"/>
	<circle fill="#EC7404" cx="228.123" cy="139.97" r="9.731"/>
	<g>
		<g>
			<path fill="#FFFFFF" d="M233.179,139.248c-0.002-0.271-0.025-0.522-0.083-0.758c-0.046-0.184-0.114-0.357-0.217-0.517
				c-0.152-0.239-0.387-0.429-0.656-0.535c-0.269-0.108-0.564-0.149-0.898-0.149c-0.295,0-0.563,0.033-0.811,0.113
				c-0.185,0.062-0.357,0.153-0.505,0.277c-0.223,0.186-0.377,0.438-0.463,0.709c-0.086,0.264-0.118,0.55-0.119,0.861l-0.569,4.807
				h1.198v2.099h0.97v-2.099h0.6v2.099h0.97v-2.099h1.204L233.179,139.248z"/>
			<path fill="#FFFFFF" d="M224.805,136.843c0.872,0,1.576-0.707,1.576-1.577c0-0.871-0.704-1.577-1.576-1.577
				c-0.87,0-1.575,0.706-1.576,1.577C223.23,136.136,223.935,136.843,224.805,136.843 M224.805,137.38
				c-1.305,0.001-2.36,1.057-2.36,2.361v2.469h1.092v3.943h0.969v-3.943h0.6v3.943h0.97v-3.943h1.091v-2.469
				C227.166,138.437,226.11,137.381,224.805,137.38"/>
		</g>
		<circle fill="#FFFFFF" cx="231.219" cy="135.263" r="1.584"/>
	</g>
</g>
<g>
	<polygon fill="#EC7404" stroke="#FFFFFF" stroke-width="0.5" points="415.75,258.003 419.162,258.003 417.592,269.779 	"/>
	<circle fill="#EC7404" cx="417.456" cy="248.97" r="9.731"/>
	<g>
		<g>
			<path fill="#FFFFFF" d="M422.514,248.248c-0.002-0.271-0.025-0.522-0.084-0.758c-0.045-0.184-0.113-0.357-0.217-0.517
				c-0.152-0.239-0.387-0.429-0.656-0.535c-0.268-0.108-0.564-0.149-0.898-0.149c-0.295,0-0.562,0.033-0.811,0.113
				c-0.184,0.062-0.357,0.153-0.504,0.277c-0.223,0.186-0.377,0.438-0.463,0.709c-0.086,0.264-0.119,0.55-0.119,0.861l-0.57,4.807
				h1.199v2.099h0.969v-2.099h0.6v2.099h0.971v-2.099h1.203L422.514,248.248z"/>
			<path fill="#FFFFFF" d="M414.139,245.843c0.873,0,1.576-0.707,1.576-1.577c0-0.871-0.703-1.577-1.576-1.577
				c-0.869,0-1.574,0.706-1.576,1.577C412.564,245.136,413.27,245.843,414.139,245.843 M414.139,246.38
				c-1.305,0.001-2.359,1.057-2.359,2.361v2.469h1.092v3.943h0.969v-3.943h0.6v3.943h0.969v-3.943h1.092v-2.469
				C416.5,247.437,415.443,246.381,414.139,246.38"/>
		</g>
		<circle fill="#FFFFFF" cx="420.553" cy="244.263" r="1.584"/>
	</g>
</g>
<g>
	<polygon fill="#EC7404" points="235.311,196.193 238.725,196.193 237.154,207.969 	"/>
	<circle fill="#EC7404" cx="237.018" cy="187.183" r="9.731"/>
	<g>
		<g>
			<path fill="none" stroke="#FFFFFF" stroke-width="0.5" d="M241.505,192.978c0,0.312-0.255,0.567-0.566,0.567h-7.84
				c-0.312,0-0.567-0.255-0.567-0.567v-11.507c0-0.312,0.255-0.567,0.567-0.567h7.84c0.312,0,0.566,0.255,0.566,0.567V192.978z"/>
		</g>
	</g>
	<path fill="#FFFFFF" d="M237.018,185.555c0.743,0,1.342-0.601,1.342-1.342s-0.599-1.342-1.342-1.342
		c-0.74,0-1.34,0.601-1.341,1.342C235.678,184.954,236.277,185.555,237.018,185.555 M237.018,186.013
		c-1.11,0-2.009,0.899-2.009,2.01v2.102h0.93v3.357h0.824v-3.357h0.511v3.357h0.825v-3.357h0.929v-2.102
		C239.027,186.912,238.129,186.014,237.018,186.013"/>
</g>
</svg>
