<?xml version="1.0" encoding="utf-8"?>
<!-- Generator: Adobe Illustrator 16.0.0, SVG Export Plug-In . SVG Version: 6.00 Build 0)  -->
<!DOCTYPE svg PUBLIC "-//W3C//DTD SVG 1.1//EN" "http://www.w3.org/Graphics/SVG/1.1/DTD/svg11.dtd">
<svg version="1.1" xmlns="http://www.w3.org/2000/svg" xmlns:xlink="http://www.w3.org/1999/xlink" x="0px" y="0px"
	 width="595.275px" height="419.527px" viewBox="0 0 595.275 419.527" enable-background="new 0 0 595.275 419.527"
	 xml:space="preserve">
<g id="Ebene_1">
	<g>
		<g>
			<g enable-background="new    ">
				<defs>
					<polygon id="SVGID_1_" enable-background="new    " points="55.9,213.566 319.479,60.386 546.452,191.438 282.873,344.618
											"/>
				</defs>
				<clipPath id="SVGID_2_">
					<use xlink:href="#SVGID_1_"  overflow="visible"/>
				</clipPath>
				<g clip-path="url(#SVGID_2_)">
					<g>
						<g>
							<g>
								<path id="A1.01b" fill="#CFD0D2" d="M166.348,237.661l-2.238-0.63l1.096,1.293L166.348,237.661 M175.338,231.792
									c-0.523-0.302-0.938-0.49-1.25-0.553c-0.312-0.07-0.586-0.037-0.814,0.096c-0.234,0.137-0.29,0.295-0.169,0.476
									c0.109,0.181,0.435,0.421,0.958,0.723c0.53,0.307,0.945,0.494,1.263,0.561c0.312,0.069,0.586,0.037,0.821-0.1
									c0.229-0.133,0.285-0.292,0.163-0.472C176.194,232.338,175.868,232.098,175.338,231.792 M165.139,240.153l-2.647-3.314
									l1.282-0.744l5.73,1.521l-1.079,0.627l-1.026-0.291l-1.681,0.977l0.5,0.598L165.139,240.153 M165.9,235.088l0.766-0.675
									l1.021-0.593l3.441,1.986l0.952-0.553l0.747,0.431l-2.912,1.692l-0.747-0.432l0.945-0.549l-2.708-1.563l-0.772,0.679
									L165.9,235.088 M172.427,234.66l1.008-0.586l1.085,0.627l-1.008,0.586L172.427,234.66 M172.991,233.163
									c-0.696-0.401-1.08-0.8-1.158-1.19c-0.079-0.391,0.155-0.74,0.707-1.062c0.546-0.317,1.149-0.453,1.824-0.409
									c0.674,0.044,1.364,0.266,2.06,0.667c0.696,0.402,1.08,0.801,1.158,1.191s-0.155,0.74-0.701,1.058
									c-0.552,0.32-1.155,0.457-1.83,0.413C174.376,233.786,173.688,233.565,172.991,233.163 M187.252,234.181l-5.938-3.428
									l-2.144,1.245l-0.747-0.431l0.951-0.553l-2.707-1.563l-0.779,0.683l-0.734-0.425l0.773-0.678l1.015-0.59l3.441,1.986
									l0.184-0.106l-8.919-5.15l-19.03,11.06l15.604,9.01L187.252,234.181"/>
								<path id="A1.16" fill="#CFD0D2" d="M347.835,233.495c-0.191-0.11-0.389-0.158-0.611-0.14c-0.21,0.019-0.445,0.096-0.687,0.235
									c-0.241,0.141-0.373,0.277-0.404,0.398c-0.025,0.126,0.052,0.243,0.243,0.354c0.192,0.111,0.396,0.155,0.612,0.141
									c0.216-0.015,0.444-0.096,0.686-0.236c0.24-0.14,0.381-0.272,0.405-0.397C348.109,233.72,348.026,233.606,347.835,233.495
									 M335.64,225.139l-2.23,0.63l1.149,0.664L335.64,225.139 M338.68,230.591l1.079-0.627l1.009,0.582l-1.079,0.627
									L338.68,230.591 M330.252,225.725l5.713-1.522l1.29,0.744l-2.61,3.314l-1.085-0.627l0.493-0.597l-1.686-0.974l-1.029,0.288
									L330.252,225.725 M338.27,226.605l0.729-0.424l1.167,0.445l1.028,0.594l-3.419,1.987l0.951,0.549l-0.743,0.432l-2.924-1.688
									l0.742-0.432l0.952,0.55l2.689-1.562L338.27,226.605 M343.875,229.842l0.729-0.424l1.167,0.446l1.028,0.594l-3.419,1.986
									l0.951,0.55l-0.742,0.432l-2.924-1.688l0.742-0.432l0.951,0.549l2.689-1.562L343.875,229.842 M345.691,234.727
									c-0.543-0.313-0.787-0.66-0.719-1.047c0.074-0.383,0.435-0.771,1.106-1.161c0.686-0.398,1.41-0.612,2.147-0.642
									c0.738-0.022,1.414,0.141,2.021,0.49c0.191,0.111,0.364,0.225,0.517,0.351c0.154,0.117,0.288,0.247,0.403,0.387
									l-0.768,0.446c-0.096-0.151-0.198-0.284-0.313-0.395c-0.115-0.118-0.249-0.218-0.396-0.303
									c-0.325-0.188-0.663-0.28-1.02-0.28s-0.73,0.093-1.105,0.28c0.21,0.019,0.413,0.056,0.599,0.111
									c0.197,0.055,0.376,0.137,0.542,0.232c0.428,0.247,0.652,0.516,0.666,0.817c0.015,0.295-0.181,0.558-0.587,0.793
									c-0.443,0.259-0.952,0.384-1.513,0.369C346.712,235.162,346.189,235.015,345.691,234.727 M358.366,232.228l-21.887-12.638
									l-11.696,6.798l21.887,12.638L358.366,232.228"/>
								<path fill="#CFD0D2" d="M246.991,302.287l3.063-1.78l3.077-1.788l1.557,0.899l-1.528,0.889l1.545,0.892l-1.529,0.889
									l1.539,0.889l-1.536,0.893l1.539,0.889l-1.547,0.898L246.991,302.287 M461.92,162.016l6.146-3.572l1.564,0.903l-1.535,0.892
									l1.539,0.889l-1.529,0.888l1.539,0.888l-1.535,0.892l1.545,0.892l-1.548,0.899l-3.103-1.792L461.92,162.016
									 M478.855,162.204l-10.547-6.09l-25.894,15.048l14.271,8.239l-8.297,4.822l-14.271-8.239l-27.016,15.7l12.131,7.004
									l-58.205,33.827l-61.936,35.994l-57.406,33.361l12.125,7.001l191.501-111.292l-18.095-10.448l8.297-4.822l18.095,10.448
									l14.247-8.28l-13.708-7.915L478.855,162.204"/>
								<path id="A1.10" fill="#BDD4E4" d="M289.76,259.93l-2.238-0.63l1.096,1.294L289.76,259.93 M302.436,251.912
									c-0.522-0.302-0.943-0.486-1.25-0.553c-0.317-0.066-0.592-0.033-0.819,0.1c-0.229,0.133-0.285,0.292-0.17,0.476
									c0.115,0.177,0.436,0.421,0.959,0.723c0.529,0.306,0.95,0.49,1.271,0.564c0.312,0.062,0.585,0.029,0.813-0.104
									c0.228-0.133,0.284-0.291,0.169-0.468C303.286,252.462,302.966,252.219,302.436,251.912 M288.546,262.419l-2.647-3.313
									l1.282-0.745l5.729,1.522l-1.078,0.627l-1.026-0.292l-1.681,0.978l0.5,0.597L288.546,262.419 M289.307,257.354l0.766-0.674
									l1.021-0.594l3.441,1.986l0.952-0.553l0.748,0.432l-2.912,1.692l-0.748-0.432l0.946-0.55l-2.707-1.562l-0.766,0.682
									L289.307,257.354 M295.833,256.926l1.008-0.586l1.086,0.627l-1.008,0.586L295.833,256.926 M294.876,254.117l0.772-0.678
									l1.015-0.591l3.441,1.987l0.951-0.553l0.748,0.432l-2.912,1.691l-0.747-0.432l0.945-0.549l-2.707-1.562l-0.766,0.682
									L294.876,254.117 M300.09,253.284c-0.696-0.402-1.087-0.796-1.166-1.188c-0.078-0.391,0.162-0.744,0.708-1.062
									c0.545-0.317,1.156-0.457,1.83-0.413c0.669,0.048,1.357,0.27,2.054,0.671c0.695,0.402,1.079,0.8,1.164,1.188
									c0.079,0.391-0.155,0.748-0.7,1.064c-0.546,0.317-1.162,0.454-1.837,0.41C301.467,253.91,300.785,253.686,300.09,253.284
									 M322.483,253.081l-21.888-12.637l-33.961,19.736l21.887,12.638L322.483,253.081"/>
								<path id="A1.11" fill="#BDD4E4" d="M318.114,243.452l-2.237-0.63l1.095,1.294L318.114,243.452 M316.9,245.941l-2.647-3.314l1.281-0.745
									l5.73,1.522l-1.079,0.627l-1.026-0.291l-1.681,0.977l0.5,0.598L316.9,245.941 M317.661,240.876l0.766-0.675l1.021-0.594
									l3.441,1.986l0.951-0.553l0.747,0.432l-2.911,1.692l-0.747-0.432l0.944-0.549l-2.706-1.563l-0.767,0.683L317.661,240.876
									 M324.188,240.448l1.003-0.583l1.085,0.627l-1.002,0.583L324.188,240.448 M323.23,237.639l0.766-0.675l1.021-0.593
									l3.44,1.986l0.952-0.553l0.748,0.432l-2.912,1.691l-0.747-0.432l0.944-0.549l-2.706-1.562l-0.767,0.682L323.23,237.639
									 M326.916,235.497l0.771-0.678l1.016-0.591l3.441,1.987l0.951-0.553l0.747,0.432l-2.911,1.691l-0.748-0.431l0.952-0.554
									l-2.707-1.562l-0.772,0.686L326.916,235.497 M345.097,239.939l-21.887-12.638l-21.04,12.228l21.887,12.638L345.097,239.939"
									/>
								<path id="A1.12" fill="#BDD4E4" d="M370.153,213.209l-2.237-0.63l1.096,1.293L370.153,213.209 M368.939,215.697l-2.646-3.313
									l1.281-0.745l5.729,1.522l-1.085,0.631l-1.025-0.291l-1.675,0.973l0.5,0.598L368.939,215.697 M369.694,210.636l0.772-0.678
									l1.021-0.594l3.44,1.986l0.945-0.549l0.747,0.432l-2.911,1.692l-0.747-0.432l0.951-0.553l-2.707-1.563l-0.772,0.686
									L369.694,210.636 M376.228,210.205l1.002-0.582l1.086,0.626l-1.003,0.583L376.228,210.205 M375.27,207.396l0.767-0.674
									l1.021-0.594l3.44,1.987l0.945-0.549l0.747,0.431l-2.911,1.692l-0.747-0.431l0.951-0.553l-2.707-1.562l-0.766,0.682
									L375.27,207.396 M383.149,206.515l1.827-1.062l0.798,0.461l-3.025,1.758l-0.798-0.461l0.175-1.663
									c0.012-0.147-0.008-0.276-0.065-0.383c-0.046-0.107-0.135-0.195-0.264-0.27c-0.197-0.114-0.42-0.169-0.669-0.159
									c-0.254,0.008-0.489,0.07-0.711,0.199c-0.165,0.096-0.311,0.225-0.437,0.38c-0.121,0.159-0.234,0.343-0.315,0.561
									l-0.927-0.535c0.165-0.184,0.343-0.361,0.539-0.52c0.189-0.162,0.405-0.31,0.633-0.442c0.495-0.287,0.991-0.45,1.493-0.483
									c0.49-0.033,0.942,0.066,1.333,0.292c0.229,0.132,0.383,0.288,0.46,0.472c0.084,0.181,0.104,0.479,0.056,0.885
									L383.149,206.515 M416.083,198.685l-12.131-7.004l-9.756-5.633l-56.144,32.628l21.887,12.638L416.083,198.685"/>
								<path id="A1.01a" fill="#BDD4E4" d="M150.526,228.526l-2.238-0.631l1.096,1.294L150.526,228.526 M159.517,222.657
									c-0.523-0.302-0.938-0.49-1.25-0.553c-0.312-0.07-0.586-0.037-0.814,0.096c-0.234,0.137-0.291,0.295-0.169,0.476
									c0.11,0.181,0.435,0.42,0.958,0.723c0.53,0.306,0.945,0.494,1.264,0.561c0.312,0.069,0.585,0.036,0.82-0.1
									c0.229-0.133,0.285-0.292,0.163-0.473C160.373,223.203,160.047,222.963,159.517,222.657 M167.464,218.964l-0.115-0.066
									l-0.52,0.302c-0.21,0.122-0.324,0.232-0.361,0.336c-0.038,0.104,0.02,0.195,0.153,0.272c0.128,0.074,0.275,0.106,0.427,0.1
									c0.159-0.011,0.312-0.055,0.465-0.144c0.184-0.107,0.271-0.24,0.265-0.391C167.777,219.218,167.668,219.082,167.464,218.964
									 M149.318,231.019l-2.647-3.314l1.282-0.745l5.73,1.522l-1.078,0.627l-1.026-0.291l-1.681,0.977l0.5,0.598L149.318,231.019
									 M150.079,225.953l0.767-0.675l1.021-0.594l3.441,1.987l0.952-0.553l0.748,0.431l-2.912,1.692l-0.747-0.432l0.945-0.549
									l-2.707-1.563l-0.772,0.679L150.079,225.953 M156.606,225.525l1.008-0.586l1.085,0.627l-1.008,0.586L156.606,225.525
									 M157.17,224.028c-0.696-0.401-1.08-0.8-1.159-1.19c-0.079-0.391,0.155-0.74,0.707-1.062
									c0.546-0.317,1.15-0.453,1.824-0.409c0.675,0.044,1.364,0.266,2.06,0.667c0.696,0.401,1.079,0.8,1.158,1.191
									c0.078,0.391-0.155,0.74-0.701,1.058c-0.552,0.32-1.156,0.457-1.831,0.413C158.555,224.651,157.866,224.431,157.17,224.028
									 M159.334,220.574l0.772-0.678l1.015-0.59l3.441,1.986l0.951-0.553l0.747,0.432l-2.912,1.691l-0.747-0.431l0.951-0.553
									l-2.707-1.563l-0.779,0.682L159.334,220.574 M163.831,219.041c0.158-0.151,0.33-0.303,0.52-0.442s0.393-0.272,0.609-0.398
									c0.564-0.327,1.079-0.501,1.55-0.516c0.477-0.019,0.961,0.122,1.466,0.413l1.794,1.036l-1.002,0.582l-0.466-0.27
									c0.059,0.188,0.041,0.354-0.035,0.501c-0.082,0.151-0.247,0.292-0.487,0.432c-0.324,0.188-0.673,0.288-1.068,0.295
									c-0.395,0.008-0.738-0.073-1.045-0.25c-0.37-0.214-0.512-0.443-0.43-0.689c0.081-0.247,0.392-0.523,0.931-0.837l0.59-0.343
									l-0.083-0.048c-0.16-0.093-0.338-0.122-0.535-0.089c-0.197,0.025-0.432,0.118-0.699,0.272
									c-0.209,0.122-0.387,0.255-0.532,0.384c-0.14,0.133-0.248,0.27-0.31,0.409L163.831,219.041 M175.14,221.419l-17.136-9.895
									l-24.008,13.953l17.136,9.894L175.14,221.419"/>
								<path fill="#CFD0D2" d="M183.417,227.711c-0.3-0.173-0.587-0.272-0.854-0.294c-0.268-0.03-0.509,0.021-0.725,0.147
									c-0.209,0.121-0.297,0.261-0.251,0.42c0.045,0.158,0.211,0.32,0.512,0.494c0.3,0.173,0.58,0.269,0.854,0.295
									c0.274,0.025,0.515-0.026,0.725-0.147c0.216-0.126,0.304-0.266,0.252-0.421C183.89,228.051,183.717,227.885,183.417,227.711
									 M112.599,225.426l3.064-1.78l3.076-1.788l1.558,0.899l-1.529,0.889l1.545,0.892l-1.529,0.889l1.539,0.889l-1.535,0.892
									l1.539,0.889l-1.548,0.899L112.599,225.426 M178.299,227.446l1.002-0.583l1.686,0.974c-0.052-0.185-0.034-0.351,0.048-0.501
									c0.076-0.148,0.228-0.281,0.45-0.41c0.38-0.221,0.851-0.316,1.405-0.283c0.554,0.033,1.077,0.188,1.562,0.468
									s0.754,0.582,0.813,0.903c0.06,0.32-0.105,0.594-0.485,0.814c-0.222,0.129-0.45,0.218-0.705,0.262
									c-0.26,0.048-0.547,0.06-0.859,0.033l0.454,0.262l-1.002,0.583L178.299,227.446 M238.17,245.568l-71.444-41.251
									l-29.177-16.847l-3.692,2.146l17.295,9.986l-8.474,4.925l-17.296-9.986l-35.332,20.533l29.177,16.847l38.503-22.376
									l20.469,11.818l-5.334,3.101l15.578,9.024l5.36-3.115l35.371,20.423L238.17,245.568"/>
								<path fill="#CFD0D2" d="M445.385,162.831l-2.23-0.634l1.096,1.294L445.385,162.831 M458.091,155.439l-1.757-1.014
									l0.583,1.696L458.091,155.439 M444.177,165.315l-2.647-3.314l1.275-0.741l5.73,1.522l-1.078,0.626l-1.027-0.291
									l-1.681,0.977l0.507,0.593L444.177,165.315 M444.932,160.254l0.771-0.678l1.016-0.59l3.441,1.987l0.951-0.553l0.747,0.431
									l-2.911,1.692l-0.747-0.431l0.951-0.553l-2.707-1.563l-0.772,0.686L444.932,160.254 M451.464,159.823l1.003-0.583
									l1.086,0.626l-1.003,0.583L451.464,159.823 M450.501,157.017l0.772-0.678l1.021-0.594l3.442,1.987l0.945-0.549l0.746,0.431
									l-2.911,1.692l-0.747-0.431l0.951-0.553l-2.707-1.563l-0.772,0.686L450.501,157.017 M456.098,156.428l-0.828-2.411
									l1.192-0.693l2.644,1.526l0.597-0.347l0.778,0.45l-0.597,0.347l0.767,0.442l-1.015,0.59l-0.767-0.442l-1.846,1.073
									L456.098,156.428 M466.725,155.2l-10.018-5.784l-23.312,13.547l10.018,5.784L466.725,155.2"/>
								<path id="A1.13" fill="#CFD0D2" d="M407.325,184.949l-2.23-0.634l1.096,1.293L407.325,184.949 M406.117,187.434l-2.646-3.314
									l1.275-0.741l5.729,1.523l-1.078,0.626l-1.026-0.292l-1.682,0.977l0.507,0.594L406.117,187.434 M406.872,182.373
									l0.772-0.679l1.015-0.59l3.441,1.987l0.952-0.553l0.746,0.432l-2.911,1.692l-0.747-0.431l0.952-0.553l-2.708-1.563
									l-0.772,0.686L406.872,182.373 M413.405,181.941l1.002-0.583l1.086,0.627l-1.003,0.583L413.405,181.941 M412.441,179.136
									l0.772-0.679l1.021-0.593l3.441,1.987l0.945-0.549l0.747,0.431l-2.912,1.692l-0.747-0.431l0.952-0.553l-2.708-1.563
									l-0.772,0.686L412.441,179.136 M419.875,176.821c0.354-0.118,0.691-0.174,1.023-0.151c0.324,0.019,0.63,0.107,0.911,0.269
									c0.415,0.24,0.569,0.513,0.469,0.822c-0.1,0.31-0.454,0.642-1.057,0.992c-0.216,0.125-0.451,0.239-0.692,0.342
									c-0.253,0.104-0.521,0.199-0.8,0.281l-0.83-0.479c0.299-0.062,0.572-0.132,0.819-0.217c0.254-0.088,0.471-0.185,0.667-0.299
									c0.279-0.162,0.456-0.317,0.507-0.464c0.05-0.14-0.021-0.269-0.206-0.376s-0.408-0.147-0.662-0.118
									c-0.255,0.037-0.534,0.14-0.839,0.317l-0.425,0.247l-0.696-0.402l0.45-0.262c0.267-0.155,0.432-0.294,0.476-0.423
									c0.05-0.126-0.014-0.236-0.187-0.336c-0.166-0.096-0.351-0.129-0.567-0.107c-0.216,0.022-0.444,0.104-0.679,0.24
									c-0.172,0.1-0.323,0.218-0.463,0.343c-0.134,0.122-0.253,0.258-0.354,0.406l-0.791-0.458
									c0.158-0.158,0.322-0.306,0.499-0.446c0.172-0.137,0.368-0.265,0.565-0.38c0.545-0.317,1.034-0.498,1.485-0.553
									c0.445-0.052,0.847,0.026,1.204,0.232c0.25,0.144,0.383,0.295,0.41,0.457C420.146,176.463,420.064,176.637,419.875,176.821
									 M429.135,177.045l-10.018-5.784l-23.603,13.717l10.018,5.784L429.135,177.045"/>
								<path id="A1.03" fill="#EC7405" d="M241.061,265.146l-2.23,0.631l1.143,0.66L241.061,265.146 M250.917,270.47
									c-0.23-0.133-0.503-0.165-0.822-0.1c-0.305,0.066-0.724,0.251-1.245,0.554c-0.526,0.306-0.843,0.549-0.963,0.729
									c-0.113,0.185-0.055,0.343,0.175,0.476s0.503,0.166,0.815,0.096c0.318-0.066,0.737-0.25,1.263-0.557
									c0.521-0.302,0.837-0.545,0.951-0.723C251.205,270.761,251.147,270.603,250.917,270.47 M244.102,270.599l1.079-0.626
									l1.008,0.582l-1.078,0.627L244.102,270.599 M235.674,265.733l5.72-1.526l1.283,0.74l-2.616,3.318l-1.085-0.627l0.5-0.594
									l-1.692-0.977l-1.023,0.291L235.674,265.733 M243.685,266.61l0.73-0.424l1.18,0.446l1.027,0.593l-3.425,1.991l0.952,0.55
									l-0.742,0.431l-2.932-1.692l0.742-0.431l0.958,0.553l2.69-1.563L243.685,266.61 M247.333,272.553
									c-0.549-0.317-0.793-0.671-0.719-1.062s0.46-0.785,1.151-1.187c0.692-0.402,1.372-0.627,2.045-0.671
									c0.674-0.045,1.286,0.095,1.835,0.412s0.793,0.671,0.718,1.062c-0.074,0.391-0.459,0.785-1.151,1.188
									c-0.691,0.401-1.371,0.627-2.045,0.67C248.494,273.01,247.882,272.87,247.333,272.553 M252.955,271.919l0.786-0.457
									c0.281,0.088,0.536,0.184,0.772,0.291c0.242,0.104,0.459,0.214,0.656,0.328c0.549,0.317,0.862,0.601,0.96,0.862
									c0.09,0.259-0.042,0.49-0.397,0.697c-0.241,0.14-0.507,0.221-0.787,0.235c-0.286,0.019-0.586-0.029-0.905-0.141
									c0.217,0.207,0.301,0.402,0.271,0.591c-0.037,0.191-0.188,0.368-0.461,0.526c-0.412,0.24-0.89,0.332-1.424,0.273
									c-0.529-0.062-1.096-0.266-1.708-0.619c-0.217-0.126-0.416-0.255-0.595-0.401c-0.186-0.145-0.352-0.299-0.493-0.461
									l0.831-0.483c0.103,0.177,0.225,0.335,0.378,0.482c0.147,0.145,0.313,0.27,0.511,0.384c0.281,0.162,0.555,0.262,0.804,0.295
									c0.255,0.029,0.471-0.008,0.655-0.114c0.19-0.11,0.247-0.239,0.195-0.388c-0.064-0.146-0.244-0.309-0.55-0.485l-0.428-0.248
									l0.692-0.401l0.454,0.262c0.268,0.155,0.518,0.247,0.733,0.276c0.217,0.029,0.408-0.008,0.585-0.11
									c0.158-0.092,0.215-0.199,0.176-0.324c-0.039-0.126-0.179-0.259-0.415-0.395c-0.172-0.1-0.371-0.192-0.581-0.27
									C253.446,272.048,253.21,271.978,252.955,271.919 M286.859,273.681l-47.106-27.198l-34.576,20.095l47.106,27.198
									L286.859,273.681"/>
								<path id="A1.02" fill="#CFD0D2" d="M193.833,253.531l-2.237-0.631l1.096,1.294L193.833,253.531 M202.817,247.658
									c-0.523-0.302-0.932-0.486-1.25-0.553c-0.312-0.07-0.58-0.033-0.808,0.1c-0.234,0.137-0.297,0.291-0.175,0.472
									c0.116,0.185,0.435,0.421,0.958,0.723c0.53,0.306,0.952,0.498,1.27,0.564c0.312,0.069,0.585,0.036,0.82-0.1
									c0.229-0.133,0.285-0.292,0.163-0.473C203.68,248.208,203.348,247.965,202.817,247.658 M192.619,256.02l-2.647-3.314
									l1.281-0.744l5.73,1.521l-1.079,0.627l-1.02-0.287l-1.681,0.977l0.493,0.594L192.619,256.02 M193.386,250.958l0.76-0.679
									l1.021-0.593l3.441,1.986l0.952-0.553l0.747,0.431l-2.912,1.692l-0.747-0.432l0.945-0.549l-2.707-1.562l-0.766,0.682
									L193.386,250.958 M199.906,250.526l1.008-0.586l1.085,0.627l-1.009,0.586L199.906,250.526 M200.477,249.033
									c-0.696-0.401-1.08-0.8-1.159-1.19c-0.079-0.391,0.148-0.744,0.7-1.065c0.546-0.317,1.156-0.449,1.831-0.405
									c0.675,0.044,1.364,0.265,2.06,0.667c0.689,0.398,1.073,0.797,1.152,1.188c0.079,0.391-0.148,0.744-0.694,1.062
									c-0.552,0.32-1.162,0.453-1.836,0.409C201.855,249.652,201.167,249.432,200.477,249.033 M206.835,246.84l1.833-1.064
									l0.792,0.457l-3.026,1.758l-0.792-0.457l0.163-1.663c0.019-0.15-0.001-0.279-0.053-0.383
									c-0.057-0.107-0.147-0.195-0.274-0.27c-0.198-0.114-0.416-0.165-0.669-0.158c-0.248,0.004-0.483,0.073-0.699,0.199
									c-0.171,0.1-0.317,0.222-0.443,0.384c-0.126,0.154-0.233,0.343-0.314,0.553l-0.919-0.531
									c0.158-0.188,0.335-0.357,0.531-0.523c0.19-0.162,0.399-0.306,0.628-0.438c0.495-0.288,0.99-0.45,1.492-0.483
									c0.497-0.029,0.942,0.066,1.338,0.295c0.223,0.13,0.383,0.288,0.468,0.469c0.07,0.181,0.091,0.479,0.049,0.889
									L206.835,246.84 M227.603,251.71l-33.743-19.482l-24.009,13.952l33.743,19.483L227.603,251.71"/>
								<path id="A1.07" fill="#BDD4E4" d="M305.276,289.584l-2.23,0.63l1.144,0.66L305.276,289.584 M315.132,294.907
									c-0.229-0.133-0.504-0.166-0.814-0.103c-0.312,0.069-0.73,0.254-1.251,0.556c-0.526,0.307-0.844,0.55-0.963,0.73
									c-0.113,0.184-0.056,0.343,0.174,0.475c0.23,0.133,0.504,0.166,0.821,0.1c0.312-0.069,0.731-0.254,1.258-0.56
									c0.52-0.303,0.837-0.546,0.956-0.727C315.42,295.198,315.368,295.043,315.132,294.907 M308.317,295.036l1.078-0.626
									l1.009,0.582l-1.078,0.626L308.317,295.036 M299.89,290.17l5.719-1.526l1.283,0.741l-2.615,3.317l-1.086-0.626l0.499-0.594
									l-1.686-0.974l-1.029,0.288L299.89,290.17 M307.9,291.047l0.729-0.424l1.18,0.446l1.028,0.594l-3.426,1.99l0.951,0.55
									l-0.742,0.431l-2.93-1.691l0.741-0.432l0.958,0.553l2.689-1.562L307.9,291.047 M317.093,296.193l0.793-0.461l3.161,1.825
									l-0.609,0.354l-5.193,1.125l-1.053-0.608l4.92-1.069L317.093,296.193 M311.548,296.99c-0.549-0.317-0.793-0.671-0.719-1.062
									c0.074-0.391,0.46-0.785,1.152-1.187c0.69-0.401,1.37-0.627,2.045-0.671c0.675-0.045,1.286,0.096,1.835,0.413
									c0.549,0.316,0.793,0.67,0.719,1.062c-0.074,0.391-0.46,0.785-1.15,1.187c-0.692,0.402-1.372,0.627-2.046,0.672
									C312.708,297.447,312.098,297.307,311.548,296.99 M329.918,298.748l-27.856-16.084l-10.999,6.393l27.857,16.084
									L329.918,298.748"/>
								<path id="A1.05" fill="#BDD4E4" d="M266.627,319.886l-2.231-0.634l1.089,1.298L266.627,319.886 M275.618,314.01
									c-0.524-0.302-0.938-0.482-1.251-0.553c-0.312-0.062-0.586-0.029-0.814,0.104s-0.284,0.291-0.175,0.472
									c0.123,0.181,0.435,0.42,0.959,0.723c0.53,0.306,0.957,0.493,1.27,0.564c0.319,0.065,0.592,0.033,0.82-0.1
									s0.285-0.292,0.163-0.473C276.473,314.562,276.148,314.316,275.618,314.01 M265.413,322.375l-2.647-3.314l1.281-0.745
									l5.73,1.522l-1.079,0.627l-1.02-0.287l-1.681,0.977l0.5,0.59L265.413,322.375 M266.18,317.312l0.766-0.682l1.015-0.59
									l3.441,1.987l0.952-0.554l0.748,0.432l-2.911,1.692l-0.748-0.432l0.951-0.553l-2.707-1.562l-0.772,0.686L266.18,317.312
									 M272.706,316.878l1.002-0.582l1.085,0.627l-1.002,0.582L272.706,316.878 M273.277,315.385
									c-0.696-0.401-1.087-0.796-1.165-1.187c-0.079-0.391,0.155-0.749,0.7-1.065c0.546-0.317,1.163-0.453,1.837-0.409
									c0.668,0.048,1.358,0.269,2.053,0.671c0.689,0.397,1.074,0.797,1.158,1.184c0.079,0.391-0.154,0.748-0.7,1.065
									c-0.545,0.316-1.162,0.453-1.837,0.408C274.649,316.008,273.966,315.783,273.277,315.385 M276.84,311.798l0.651,0.376
									c0.057-0.062,0.126-0.117,0.196-0.173c0.07-0.056,0.153-0.11,0.242-0.162c0.507-0.295,1.028-0.45,1.568-0.469
									c0.535-0.015,1.032,0.11,1.486,0.373c0.453,0.262,0.659,0.557,0.609,0.881c-0.056,0.328-0.353,0.649-0.898,0.966
									c-0.235,0.137-0.495,0.258-0.775,0.368c-0.273,0.107-0.578,0.203-0.902,0.28l-0.849-0.49
									c0.363-0.055,0.674-0.125,0.94-0.206c0.274-0.077,0.496-0.169,0.68-0.276c0.26-0.151,0.399-0.307,0.423-0.469
									c0.019-0.158-0.084-0.306-0.301-0.431c-0.217-0.126-0.472-0.185-0.746-0.174c-0.279,0.015-0.54,0.1-0.8,0.251
									c-0.152,0.088-0.299,0.195-0.438,0.32c-0.133,0.122-0.26,0.27-0.379,0.436l-2.356-1.36l2.671-1.553l0.792,0.458
									L276.84,311.798 M305.212,313.107l-27.857-16.084l-11.266,6.547L239.023,319.3l27.856,16.084L305.212,313.107"/>
								<path id="A1.09" fill="#BDD4E4" d="M360.294,272.848l-2.238-0.63l1.097,1.294L360.294,272.848 M369.278,266.976
									c-0.523-0.303-0.938-0.483-1.251-0.554c-0.305-0.066-0.579-0.033-0.808,0.1c-0.234,0.137-0.29,0.295-0.175,0.472
									c0.115,0.185,0.429,0.425,0.952,0.727c0.53,0.307,0.957,0.494,1.276,0.561c0.312,0.07,0.585,0.037,0.82-0.1
									c0.229-0.133,0.278-0.288,0.162-0.472C370.134,267.528,369.809,267.281,369.278,266.976 M372.052,264.498
									c-0.242-0.141-0.466-0.218-0.688-0.236c-0.216-0.015-0.42,0.03-0.609,0.141c-0.185,0.107-0.267,0.229-0.24,0.354
									c0.038,0.125,0.166,0.258,0.408,0.398c0.25,0.144,0.485,0.221,0.695,0.239c0.217,0.015,0.426-0.033,0.61-0.141
									c0.19-0.11,0.267-0.228,0.24-0.354C372.441,264.774,372.301,264.642,372.052,264.498 M359.08,275.336l-2.647-3.314
									l1.281-0.744l5.73,1.522l-1.079,0.627l-1.026-0.284l-1.675,0.973l0.494,0.594L359.08,275.336 M359.847,270.274l0.76-0.679
									l1.021-0.593l3.441,1.986l0.944-0.549l0.748,0.432l-2.905,1.688l-0.748-0.432l0.945-0.55l-2.707-1.562l-0.766,0.682
									L359.847,270.274 M366.367,269.844l1.002-0.583l1.086,0.627l-1.003,0.582L366.367,269.844 M366.938,268.351
									c-0.695-0.402-1.08-0.801-1.158-1.19c-0.085-0.388,0.148-0.746,0.7-1.066c0.546-0.316,1.155-0.449,1.831-0.404
									c0.675,0.043,1.357,0.269,2.053,0.67c0.689,0.398,1.08,0.793,1.158,1.184s-0.148,0.745-0.693,1.062
									c-0.552,0.32-1.169,0.456-1.838,0.408C368.316,268.97,367.627,268.748,366.938,268.351 M369.965,265.8
									c-0.446-0.259-0.664-0.554-0.641-0.878c0.017-0.328,0.271-0.63,0.759-0.914c0.545-0.316,1.149-0.453,1.817-0.413
									c0.662,0.037,1.332,0.255,2.002,0.642c0.696,0.402,1.067,0.814,1.113,1.246c0.048,0.432-0.229,0.822-0.839,1.176
									c-0.189,0.11-0.394,0.214-0.604,0.299c-0.203,0.088-0.418,0.162-0.653,0.232l-0.779-0.45
									c0.261-0.056,0.477-0.114,0.68-0.181c0.191-0.066,0.369-0.147,0.521-0.235c0.317-0.185,0.481-0.384,0.48-0.59
									c-0.002-0.207-0.162-0.417-0.481-0.638c-0.037,0.125-0.101,0.243-0.188,0.354c-0.102,0.11-0.229,0.214-0.399,0.312
									c-0.426,0.248-0.896,0.373-1.404,0.38C370.84,266.149,370.374,266.035,369.965,265.8 M403.54,274.492l-43.85-25.318
									l-28.812,16.743l21.925,12.659l21.925,12.659L403.54,274.492"/>
								<path id="A1.08" fill="#BDD4E4" d="M324.318,286.358l-2.231-0.634l1.089,1.298L324.318,286.358 M333.31,280.482
									c-0.523-0.303-0.938-0.483-1.258-0.55c-0.306-0.066-0.579-0.033-0.808,0.1s-0.284,0.292-0.175,0.472
									c0.122,0.181,0.435,0.421,0.959,0.723c0.529,0.307,0.957,0.494,1.27,0.564c0.317,0.066,0.592,0.033,0.82-0.1
									s0.284-0.291,0.162-0.472C334.165,281.035,333.84,280.788,333.31,280.482 M335.91,277.847
									c-0.167-0.096-0.338-0.145-0.523-0.14c-0.178,0-0.343,0.051-0.514,0.15c-0.172,0.1-0.254,0.199-0.26,0.306
									c0.001,0.104,0.077,0.207,0.237,0.299c0.166,0.096,0.351,0.144,0.529,0.144c0.185-0.003,0.355-0.051,0.527-0.15
									c0.171-0.1,0.253-0.199,0.252-0.303C336.166,278.045,336.075,277.942,335.91,277.847 M337.837,278.856
									c-0.21-0.121-0.421-0.184-0.637-0.185c-0.211-0.003-0.414,0.056-0.617,0.174c-0.196,0.113-0.304,0.235-0.296,0.364
									c0.001,0.126,0.109,0.247,0.313,0.365s0.414,0.181,0.631,0.181s0.426-0.062,0.622-0.177
									c0.203-0.118,0.305-0.235,0.298-0.357C338.15,279.096,338.042,278.975,337.837,278.856 M323.104,288.847l-2.647-3.314
									l1.281-0.744l5.729,1.522l-1.078,0.627l-1.02-0.288l-1.682,0.978l0.5,0.59L323.104,288.847 M323.871,283.785l0.766-0.682
									l1.016-0.59l3.44,1.986l0.951-0.553l0.748,0.432l-2.912,1.692l-0.747-0.432l0.952-0.554l-2.707-1.562l-0.772,0.686
									L323.871,283.785 M330.397,283.351l1.003-0.583l1.085,0.627l-1.002,0.582L330.397,283.351 M330.968,281.857
									c-0.695-0.401-1.086-0.797-1.163-1.188c-0.079-0.391,0.153-0.748,0.699-1.065c0.545-0.316,1.162-0.453,1.831-0.405
									c0.674,0.044,1.363,0.266,2.059,0.667c0.689,0.398,1.074,0.797,1.152,1.188c0.085,0.387-0.148,0.745-0.693,1.062
									c-0.546,0.317-1.162,0.453-1.837,0.409C332.34,282.48,331.657,282.256,330.968,281.857 M337,278.189
									c0.362-0.122,0.705-0.174,1.023-0.151c0.318,0.015,0.612,0.104,0.887,0.262c0.415,0.239,0.595,0.498,0.532,0.778
									c-0.068,0.283-0.365,0.582-0.905,0.896c-0.538,0.313-1.054,0.486-1.543,0.527c-0.483,0.037-0.936-0.063-1.351-0.303
									c-0.274-0.158-0.429-0.328-0.455-0.513c-0.033-0.188,0.049-0.383,0.258-0.594c-0.331,0.104-0.642,0.145-0.929,0.126
									c-0.293-0.015-0.554-0.093-0.79-0.229c-0.352-0.203-0.486-0.435-0.411-0.693c0.081-0.262,0.365-0.538,0.873-0.833
									s0.983-0.46,1.423-0.508c0.451-0.049,0.853,0.036,1.204,0.238c0.236,0.137,0.371,0.288,0.403,0.454
									C337.246,277.817,337.177,277.998,337,278.189 M357.162,282.915l-27.856-16.084l-25.671,14.919l27.856,16.084
									L357.162,282.915"/>
								<path id="A1.06" fill="#BDD4E4" d="M304.961,304.827c-0.191-0.11-0.389-0.158-0.611-0.141c-0.21,0.019-0.445,0.097-0.687,0.236
									s-0.373,0.276-0.404,0.398c-0.025,0.125,0.052,0.243,0.243,0.354c0.191,0.11,0.396,0.154,0.612,0.139
									c0.216-0.015,0.444-0.095,0.686-0.235c0.241-0.14,0.38-0.272,0.405-0.398C305.236,305.052,305.152,304.938,304.961,304.827
									 M292.765,296.47l-2.23,0.631l1.149,0.663L292.765,296.47 M302.627,301.797c-0.236-0.137-0.509-0.17-0.821-0.1
									c-0.312,0.062-0.73,0.247-1.251,0.549c-0.526,0.307-0.843,0.55-0.956,0.734c-0.12,0.181-0.062,0.339,0.174,0.476
									c0.23,0.133,0.498,0.162,0.815,0.096c0.312-0.07,0.73-0.255,1.257-0.561c0.521-0.302,0.837-0.546,0.95-0.723
									C302.916,302.088,302.857,301.93,302.627,301.797 M295.806,301.922l1.079-0.627l1.008,0.583l-1.079,0.627L295.806,301.922
									 M287.378,297.057l5.713-1.522l1.289,0.744l-2.609,3.314l-1.086-0.627l0.493-0.598l-1.686-0.973l-1.029,0.287
									L287.378,297.057 M295.396,297.938l0.729-0.424l1.167,0.445l1.028,0.594l-3.419,1.987l0.951,0.55l-0.742,0.431l-2.924-1.688
									l0.742-0.431l0.951,0.549l2.69-1.563L295.396,297.938 M302.816,306.059c-0.542-0.313-0.786-0.66-0.719-1.047
									c0.074-0.384,0.436-0.771,1.107-1.161c0.686-0.398,1.403-0.608,2.142-0.638c0.744-0.026,1.42,0.136,2.026,0.486
									c0.191,0.11,0.364,0.225,0.518,0.351c0.153,0.117,0.288,0.247,0.403,0.387l-0.768,0.446
									c-0.097-0.151-0.199-0.284-0.314-0.395c-0.122-0.114-0.25-0.218-0.396-0.303c-0.326-0.188-0.663-0.279-1.02-0.279
									s-0.731,0.092-1.106,0.279c0.217,0.015,0.415,0.056,0.6,0.111c0.198,0.055,0.376,0.136,0.542,0.232
									c0.428,0.246,0.652,0.516,0.667,0.817c0.014,0.296-0.182,0.557-0.588,0.793c-0.444,0.258-0.952,0.384-1.513,0.368
									C303.838,306.493,303.314,306.346,302.816,306.059 M299.043,303.88c-0.555-0.32-0.798-0.675-0.718-1.062
									c0.074-0.391,0.454-0.789,1.146-1.191c0.69-0.401,1.377-0.623,2.051-0.667c0.668-0.048,1.28,0.093,1.835,0.413
									c0.55,0.317,0.787,0.667,0.713,1.058c-0.073,0.392-0.46,0.786-1.151,1.188c-0.691,0.402-1.371,0.627-2.046,0.671
									C300.198,304.333,299.593,304.197,299.043,303.88 M317.346,306.055l-27.856-16.084l-10.562,6.139l27.856,16.084
									L317.346,306.055"/>
								<polyline fill="#CFD0D2" points="252.112,309.859 239.987,302.858 230.732,308.237 242.857,315.238 252.112,309.859
																	"/>
								<polyline fill="#EC7405" points="492.563,170.119 480.438,163.118 457.305,176.562 469.43,183.563 492.563,170.119
									"/>
								<path fill="#FFFFFF" d="M149.385,229.189l-1.096-1.294l2.238,0.631L149.385,229.189 M153.683,228.481l-5.73-1.522
									l-1.282,0.745l2.647,3.314l1.079-0.627l-0.5-0.598l1.681-0.977l1.026,0.291L153.683,228.481"/>
								<polyline fill="#FFFFFF" points="157.007,226.55 156.259,226.119 155.308,226.672 151.866,224.685 150.846,225.278
									150.079,225.953 150.813,226.377 151.586,225.698 154.293,227.262 153.348,227.811 154.095,228.242 157.007,226.55
									"/>
								<polyline fill="#FFFFFF" points="158.7,225.566 157.614,224.939 156.606,225.525 157.691,226.152 158.7,225.566 								"/>
								<path fill="#FFFFFF" d="M158.242,223.398c-0.523-0.303-0.849-0.542-0.958-0.723c-0.121-0.181-0.065-0.339,0.169-0.476
									c0.229-0.133,0.502-0.166,0.814-0.096c0.312,0.062,0.727,0.251,1.25,0.553c0.53,0.306,0.855,0.546,0.972,0.729
									c0.122,0.181,0.065,0.34-0.163,0.473c-0.235,0.136-0.508,0.169-0.82,0.1C159.187,223.893,158.772,223.704,158.242,223.398
									 M160.603,222.034c-0.696-0.401-1.385-0.623-2.06-0.667c-0.674-0.044-1.278,0.092-1.824,0.409
									c-0.552,0.321-0.785,0.671-0.707,1.062c0.079,0.391,0.463,0.789,1.159,1.19c0.696,0.402,1.384,0.623,2.059,0.668
									c0.675,0.044,1.278-0.093,1.831-0.413c0.546-0.317,0.779-0.667,0.701-1.058
									C161.682,222.834,161.298,222.436,160.603,222.034"/>
								<polyline fill="#FFFFFF" points="166.261,221.172 165.514,220.74 164.563,221.293 161.122,219.307 160.106,219.896
									159.334,220.574 160.068,220.998 160.847,220.316 163.554,221.88 162.603,222.433 163.35,222.863 166.261,221.172
									"/>
								<path fill="#FFFFFF" d="M166.622,219.808c-0.134-0.077-0.191-0.169-0.153-0.272c0.037-0.104,0.151-0.214,0.361-0.336
									l0.52-0.302l0.115,0.066c0.204,0.118,0.313,0.254,0.314,0.409c0.007,0.15-0.081,0.283-0.265,0.391
									c-0.153,0.089-0.306,0.133-0.465,0.144C166.897,219.914,166.75,219.882,166.622,219.808 M169.769,219.134l-1.794-1.036
									c-0.504-0.291-0.989-0.432-1.466-0.413c-0.471,0.015-0.986,0.188-1.55,0.516c-0.216,0.126-0.419,0.259-0.609,0.398
									s-0.361,0.291-0.52,0.442l0.766,0.442c0.062-0.14,0.17-0.276,0.31-0.409c0.146-0.129,0.323-0.262,0.532-0.384
									c0.267-0.154,0.501-0.247,0.699-0.272c0.197-0.033,0.375-0.004,0.535,0.089l0.083,0.048l-0.59,0.343
									c-0.539,0.313-0.85,0.59-0.931,0.837c-0.082,0.246,0.06,0.476,0.43,0.689c0.307,0.177,0.65,0.258,1.045,0.25
									c0.395-0.007,0.744-0.106,1.068-0.295c0.241-0.14,0.405-0.28,0.487-0.432c0.076-0.147,0.094-0.312,0.035-0.501l0.466,0.27
									L169.769,219.134"/>
								<path fill="#FFFFFF" d="M192.691,254.194l-1.096-1.294l2.237,0.631L192.691,254.194 M196.983,253.482l-5.73-1.521
									l-1.281,0.744l2.647,3.314l1.079-0.627l-0.493-0.594l1.681-0.977l1.02,0.287L196.983,253.482"/>
								<polyline fill="#FFFFFF" points="200.307,251.551 199.56,251.12 198.608,251.673 195.167,249.687 194.146,250.279
									193.386,250.958 194.12,251.382 194.886,250.7 197.593,252.263 196.648,252.812 197.395,253.243 200.307,251.551
									"/>
								<polyline fill="#FFFFFF" points="202,250.567 200.915,249.94 199.906,250.526 200.991,251.153 202,250.567 								"/>
								<path fill="#FFFFFF" d="M201.542,248.399c-0.523-0.302-0.842-0.538-0.958-0.723c-0.122-0.181-0.059-0.335,0.175-0.472
									c0.229-0.133,0.496-0.17,0.808-0.1c0.318,0.066,0.727,0.251,1.25,0.553c0.53,0.307,0.862,0.55,0.978,0.733
									c0.122,0.181,0.065,0.34-0.163,0.473c-0.235,0.136-0.508,0.169-0.82,0.1C202.494,248.897,202.072,248.705,201.542,248.399
									 M203.909,247.039c-0.696-0.402-1.385-0.623-2.06-0.667c-0.674-0.044-1.285,0.088-1.831,0.405
									c-0.552,0.321-0.779,0.675-0.7,1.065c0.079,0.391,0.463,0.789,1.159,1.19c0.69,0.398,1.378,0.619,2.053,0.664
									c0.674,0.044,1.284-0.089,1.836-0.409c0.546-0.317,0.773-0.671,0.694-1.062
									C204.982,247.836,204.599,247.438,203.909,247.039"/>
								<path fill="#FFFFFF" d="M209.459,246.232l-0.792-0.457l-1.833,1.064l0.103-0.969c0.042-0.41,0.021-0.708-0.049-0.889
									c-0.084-0.181-0.245-0.339-0.468-0.469c-0.396-0.229-0.842-0.324-1.338-0.295c-0.502,0.033-0.998,0.195-1.492,0.483
									c-0.229,0.133-0.438,0.276-0.628,0.438c-0.196,0.166-0.374,0.336-0.531,0.523l0.919,0.531
									c0.081-0.21,0.188-0.398,0.314-0.553c0.126-0.162,0.272-0.284,0.443-0.384c0.216-0.126,0.451-0.195,0.699-0.199
									c0.254-0.007,0.472,0.044,0.669,0.158c0.127,0.074,0.217,0.162,0.274,0.27c0.052,0.104,0.072,0.232,0.053,0.383
									l-0.163,1.663l0.792,0.457L209.459,246.232"/>
								<path fill="#FFFFFF" d="M238.831,265.777l2.23-0.631l-1.087,1.291L238.831,265.777 M242.676,264.947l-1.283-0.74
									l-5.72,1.526l1.086,0.626l1.023-0.291l1.692,0.977l-0.5,0.594l1.085,0.627L242.676,264.947"/>
								<polyline fill="#FFFFFF" points="246.622,267.226 245.594,266.633 244.415,266.187 243.685,266.61 244.865,267.063
									242.175,268.627 241.217,268.074 240.475,268.505 243.406,270.197 244.148,269.767 243.196,269.217 246.622,267.226
																	"/>
								<polyline fill="#FFFFFF" points="246.188,270.555 245.18,269.973 244.102,270.599 245.11,271.182 246.188,270.555
									"/>
								<path fill="#FFFFFF" d="M248.062,272.129c-0.23-0.133-0.288-0.291-0.175-0.476c0.121-0.181,0.437-0.424,0.963-0.729
									c0.521-0.303,0.939-0.487,1.245-0.554c0.318-0.065,0.592-0.033,0.822,0.1s0.288,0.291,0.175,0.476
									c-0.114,0.178-0.431,0.421-0.951,0.723c-0.526,0.307-0.945,0.49-1.263,0.557
									C248.565,272.295,248.292,272.262,248.062,272.129 M251.646,270.046c-0.549-0.317-1.161-0.457-1.835-0.412
									c-0.674,0.044-1.354,0.269-2.045,0.671c-0.691,0.401-1.077,0.796-1.151,1.187s0.169,0.744,0.719,1.062
									s1.161,0.457,1.835,0.412c0.674-0.043,1.354-0.269,2.045-0.67c0.692-0.402,1.078-0.797,1.151-1.188
									C252.439,270.717,252.195,270.363,251.646,270.046"/>
								<path fill="#FFFFFF" d="M255.17,272.081c-0.197-0.114-0.414-0.225-0.656-0.328c-0.237-0.107-0.492-0.203-0.772-0.291
									l-0.786,0.457c0.255,0.059,0.491,0.129,0.714,0.206c0.21,0.077,0.409,0.17,0.581,0.27c0.236,0.136,0.376,0.269,0.415,0.395
									c0.04,0.125-0.018,0.232-0.176,0.324c-0.177,0.103-0.369,0.14-0.585,0.11c-0.215-0.029-0.465-0.121-0.733-0.276
									l-0.454-0.262l-0.692,0.401l0.428,0.248c0.306,0.177,0.486,0.339,0.55,0.485c0.052,0.148-0.005,0.277-0.195,0.388
									c-0.184,0.106-0.399,0.144-0.655,0.114c-0.249-0.033-0.522-0.133-0.804-0.295c-0.198-0.114-0.364-0.239-0.511-0.384
									c-0.153-0.147-0.275-0.306-0.378-0.482l-0.831,0.483c0.141,0.162,0.307,0.316,0.493,0.461
									c0.179,0.146,0.377,0.275,0.595,0.401c0.612,0.354,1.18,0.557,1.708,0.619c0.535,0.059,1.012-0.033,1.424-0.273
									c0.272-0.158,0.424-0.335,0.461-0.526c0.031-0.188-0.053-0.384-0.271-0.591c0.319,0.111,0.619,0.159,0.905,0.141
									c0.28-0.015,0.546-0.096,0.787-0.235c0.355-0.207,0.488-0.438,0.397-0.697C256.032,272.682,255.719,272.398,255.17,272.081"
									/>
								<path fill="#FFFFFF" d="M265.485,320.55l-1.089-1.298l2.231,0.634L265.485,320.55 M269.777,319.838l-5.73-1.522
									l-1.281,0.745l2.647,3.314l1.084-0.631l-0.5-0.59l1.681-0.977l1.02,0.287L269.777,319.838"/>
								<polyline fill="#FFFFFF" points="273.101,317.906 272.353,317.475 271.401,318.028 267.96,316.041 266.946,316.631
									266.18,317.312 266.914,317.737 267.687,317.052 270.393,318.614 269.442,319.167 270.189,319.599 273.101,317.906
									"/>
								<polyline fill="#FFFFFF" points="274.794,316.923 273.708,316.296 272.706,316.878 273.792,317.505 274.794,316.923
																	"/>
								<path fill="#FFFFFF" d="M274.336,314.755c-0.524-0.303-0.836-0.542-0.959-0.723c-0.109-0.181-0.053-0.339,0.175-0.472
									s0.502-0.166,0.814-0.104c0.312,0.07,0.727,0.251,1.251,0.553c0.53,0.307,0.855,0.553,0.971,0.737
									c0.122,0.181,0.065,0.34-0.163,0.473s-0.501,0.165-0.82,0.1C275.293,315.248,274.866,315.061,274.336,314.755
									 M276.703,313.395c-0.695-0.402-1.385-0.623-2.053-0.671c-0.675-0.044-1.292,0.092-1.837,0.409
									c-0.545,0.316-0.778,0.675-0.7,1.065c0.078,0.391,0.469,0.785,1.165,1.187c0.689,0.398,1.372,0.623,2.046,0.667
									c0.675,0.045,1.292-0.092,1.837-0.408c0.546-0.317,0.779-0.675,0.7-1.065C277.776,314.191,277.392,313.792,276.703,313.395"
									/>
								<path fill="#FFFFFF" d="M280.983,311.743c-0.454-0.263-0.951-0.388-1.486-0.373c-0.54,0.019-1.061,0.174-1.568,0.469
									c-0.089,0.052-0.171,0.106-0.242,0.162c-0.069,0.056-0.139,0.11-0.196,0.173l-0.651-0.376l1.814-1.054l-0.792-0.458
									l-2.671,1.553l2.356,1.36c0.12-0.166,0.246-0.313,0.379-0.436c0.139-0.125,0.285-0.232,0.438-0.32
									c0.26-0.151,0.521-0.236,0.8-0.251c0.273-0.011,0.528,0.048,0.746,0.174c0.217,0.125,0.32,0.272,0.301,0.431
									c-0.024,0.162-0.163,0.317-0.423,0.469c-0.185,0.107-0.406,0.199-0.68,0.276c-0.267,0.081-0.578,0.151-0.94,0.206
									l0.849,0.49c0.324-0.077,0.629-0.173,0.902-0.28c0.28-0.11,0.54-0.231,0.775-0.368c0.545-0.316,0.842-0.638,0.898-0.966
									C281.642,312.3,281.436,312.005,280.983,311.743"/>
								<path fill="#FFFFFF" d="M290.535,297.101l2.23-0.631l-1.081,1.294L290.535,297.101 M294.381,296.278l-1.289-0.744
									l-5.713,1.522l1.085,0.626l1.029-0.287l1.686,0.973l-0.493,0.598l1.086,0.627L294.381,296.278"/>
								<polyline fill="#FFFFFF" points="298.32,298.553 297.292,297.959 296.125,297.514 295.396,297.938 296.569,298.387
									293.879,299.95 292.928,299.401 292.186,299.832 295.11,301.521 295.853,301.09 294.901,300.54 298.32,298.553 								"/>
								<polyline fill="#FFFFFF" points="297.893,301.878 296.885,301.295 295.806,301.922 296.814,302.505 297.893,301.878
																	"/>
								<path fill="#FFFFFF" d="M299.772,303.456c-0.236-0.137-0.294-0.295-0.174-0.476c0.113-0.185,0.43-0.428,0.956-0.734
									c0.521-0.302,0.939-0.486,1.251-0.549c0.312-0.07,0.585-0.037,0.821,0.1c0.23,0.133,0.289,0.291,0.168,0.472
									c-0.113,0.177-0.43,0.421-0.95,0.723c-0.526,0.306-0.945,0.49-1.257,0.561C300.271,303.618,300.003,303.589,299.772,303.456
									 M303.356,301.373c-0.555-0.32-1.167-0.461-1.835-0.413c-0.674,0.044-1.36,0.266-2.051,0.667
									c-0.692,0.402-1.072,0.801-1.146,1.191c-0.08,0.387,0.164,0.741,0.718,1.062c0.55,0.317,1.155,0.453,1.829,0.409
									c0.675-0.044,1.354-0.269,2.046-0.671c0.691-0.401,1.078-0.796,1.151-1.188C304.144,302.04,303.906,301.69,303.356,301.373"
									/>
								<path fill="#FFFFFF" d="M303.502,305.676c-0.191-0.111-0.269-0.229-0.243-0.354c0.031-0.122,0.163-0.259,0.404-0.398
									s0.477-0.218,0.687-0.236c0.223-0.018,0.42,0.03,0.611,0.141s0.275,0.225,0.244,0.354c-0.025,0.126-0.164,0.259-0.405,0.398
									c-0.241,0.141-0.47,0.221-0.686,0.235C303.897,305.83,303.693,305.786,303.502,305.676 M307.373,303.699
									c-0.606-0.351-1.282-0.513-2.026-0.486c-0.738,0.029-1.456,0.239-2.142,0.638c-0.672,0.391-1.033,0.777-1.107,1.161
									c-0.067,0.387,0.177,0.733,0.719,1.047c0.498,0.287,1.021,0.435,1.581,0.449c0.561,0.016,1.068-0.11,1.513-0.368
									c0.406-0.236,0.602-0.497,0.588-0.793c-0.015-0.302-0.239-0.571-0.667-0.817c-0.166-0.097-0.344-0.178-0.542-0.232
									c-0.185-0.056-0.383-0.097-0.6-0.111c0.375-0.188,0.75-0.279,1.106-0.279s0.693,0.092,1.02,0.279
									c0.146,0.085,0.274,0.188,0.396,0.303c0.115,0.11,0.218,0.243,0.314,0.395l0.768-0.446c-0.115-0.14-0.25-0.27-0.403-0.387
									C307.737,303.924,307.564,303.81,307.373,303.699"/>
								<path fill="#FFFFFF" d="M303.046,290.214l2.23-0.63l-1.087,1.29L303.046,290.214 M306.892,289.385l-1.283-0.741
									l-5.719,1.526l1.085,0.627l1.029-0.288l1.686,0.974l-0.499,0.594l1.086,0.626L306.892,289.385"/>
								<polyline fill="#FFFFFF" points="310.838,291.663 309.81,291.069 308.63,290.623 307.9,291.047 309.08,291.501
									306.391,293.063 305.433,292.511 304.691,292.942 307.621,294.634 308.363,294.203 307.412,293.653 310.838,291.663
																	"/>
								<polyline fill="#FFFFFF" points="310.404,294.992 309.396,294.41 308.317,295.036 309.326,295.618 310.404,294.992
									"/>
								<path fill="#FFFFFF" d="M312.277,296.565c-0.229-0.132-0.287-0.291-0.174-0.475c0.119-0.181,0.437-0.424,0.963-0.73
									c0.521-0.302,0.938-0.486,1.251-0.556c0.311-0.063,0.585-0.03,0.814,0.103c0.236,0.136,0.288,0.291,0.181,0.472
									c-0.119,0.181-0.437,0.424-0.956,0.727c-0.526,0.306-0.945,0.49-1.258,0.56
									C312.781,296.731,312.508,296.698,312.277,296.565 M315.861,294.483c-0.549-0.317-1.16-0.458-1.835-0.413
									c-0.675,0.044-1.354,0.27-2.045,0.671c-0.692,0.401-1.078,0.796-1.152,1.187c-0.074,0.392,0.17,0.745,0.719,1.062
									c0.55,0.316,1.16,0.457,1.836,0.413c0.674-0.045,1.354-0.27,2.046-0.672c0.69-0.401,1.076-0.796,1.15-1.187
									C316.654,295.153,316.41,294.8,315.861,294.483"/>
								<polyline fill="#FFFFFF" points="321.047,297.558 317.886,295.732 317.093,296.193 319.111,297.358 314.191,298.428
									315.244,299.036 320.438,297.911 321.047,297.558 								"/>
								<path fill="#FFFFFF" d="M323.176,287.022l-1.089-1.298l2.231,0.634L323.176,287.022 M327.468,286.311l-5.729-1.522
									l-1.281,0.744l2.647,3.314l1.084-0.63l-0.5-0.59l1.682-0.978l1.02,0.288L327.468,286.311"/>
								<polyline fill="#FFFFFF" points="330.792,284.379 330.044,283.947 329.093,284.5 325.652,282.514 324.637,283.104
									323.871,283.785 324.605,284.209 325.378,283.523 328.085,285.086 327.133,285.64 327.88,286.071 330.792,284.379
									"/>
								<polyline fill="#FFFFFF" points="332.485,283.395 331.4,282.768 330.397,283.351 331.483,283.977 332.485,283.395
									"/>
								<path fill="#FFFFFF" d="M332.028,281.227c-0.524-0.302-0.837-0.542-0.959-0.723c-0.109-0.18-0.054-0.339,0.175-0.472
									s0.502-0.166,0.808-0.1c0.319,0.066,0.734,0.247,1.258,0.55c0.53,0.306,0.855,0.553,0.971,0.737
									c0.122,0.181,0.066,0.339-0.162,0.472s-0.503,0.166-0.82,0.1C332.985,281.721,332.558,281.533,332.028,281.227
									 M334.394,279.866c-0.695-0.401-1.385-0.623-2.059-0.667c-0.669-0.048-1.286,0.089-1.831,0.405
									c-0.546,0.317-0.778,0.675-0.699,1.065c0.077,0.391,0.468,0.786,1.163,1.188c0.689,0.398,1.372,0.623,2.048,0.667
									c0.675,0.044,1.291-0.092,1.837-0.409c0.545-0.316,0.778-0.675,0.693-1.062
									C335.468,280.663,335.083,280.265,334.394,279.866"/>
								<path fill="#FFFFFF" d="M334.851,278.462c-0.16-0.092-0.236-0.195-0.237-0.299c0.006-0.106,0.088-0.206,0.26-0.306
									c0.171-0.1,0.336-0.15,0.514-0.15c0.186-0.005,0.356,0.044,0.523,0.14c0.165,0.096,0.256,0.198,0.249,0.306
									c0.001,0.104-0.081,0.203-0.252,0.303c-0.172,0.1-0.343,0.147-0.527,0.15C335.201,278.605,335.017,278.558,334.851,278.462
									 M336.601,279.575c-0.204-0.118-0.312-0.239-0.313-0.365c-0.008-0.129,0.1-0.251,0.296-0.364
									c0.203-0.118,0.406-0.177,0.617-0.174c0.216,0.001,0.427,0.063,0.637,0.185c0.205,0.118,0.313,0.239,0.314,0.365
									c0.007,0.122-0.095,0.239-0.298,0.357c-0.196,0.114-0.405,0.177-0.622,0.177S336.805,279.693,336.601,279.575 M338.91,278.3
									c-0.274-0.158-0.568-0.247-0.887-0.262c-0.318-0.022-0.661,0.029-1.023,0.151c0.177-0.191,0.246-0.372,0.22-0.542
									c-0.032-0.166-0.167-0.317-0.403-0.454c-0.352-0.202-0.753-0.287-1.204-0.238c-0.439,0.048-0.915,0.213-1.423,0.508
									s-0.792,0.571-0.873,0.833c-0.075,0.259,0.06,0.49,0.411,0.693c0.236,0.136,0.497,0.214,0.79,0.229
									c0.287,0.019,0.598-0.022,0.929-0.126c-0.209,0.211-0.291,0.406-0.258,0.594c0.026,0.185,0.181,0.354,0.455,0.513
									c0.415,0.239,0.867,0.34,1.351,0.303c0.489-0.041,1.005-0.214,1.543-0.527c0.54-0.313,0.837-0.612,0.905-0.896
									C339.505,278.798,339.325,278.539,338.91,278.3"/>
								<path fill="#FFFFFF" d="M288.618,260.594l-1.096-1.294l2.238,0.63L288.618,260.594 M292.91,259.883l-5.729-1.522
									l-1.282,0.745l2.647,3.313l1.079-0.627l-0.5-0.597l1.681-0.978l1.026,0.292L292.91,259.883"/>
								<polyline fill="#FFFFFF" points="296.234,257.951 295.487,257.52 294.535,258.072 291.094,256.086 290.073,256.68
									289.307,257.354 290.048,257.781 290.814,257.1 293.521,258.662 292.575,259.212 293.322,259.644 296.234,257.951
									"/>
								<polyline fill="#FFFFFF" points="297.928,256.967 296.842,256.34 295.833,256.926 296.919,257.553 297.928,256.967
									"/>
								<polyline fill="#FFFFFF" points="301.804,254.715 301.056,254.283 300.104,254.836 296.664,252.849 295.648,253.439
									294.876,254.117 295.617,254.545 296.383,253.863 299.09,255.426 298.145,255.975 298.892,256.406 301.804,254.715
									"/>
								<path fill="#FFFFFF" d="M301.155,252.657c-0.523-0.302-0.844-0.546-0.959-0.723c-0.115-0.184-0.059-0.343,0.17-0.476
									c0.228-0.133,0.502-0.166,0.819-0.1c0.307,0.066,0.728,0.251,1.25,0.553c0.53,0.307,0.851,0.55,0.973,0.738
									c0.115,0.177,0.059,0.335-0.169,0.468c-0.229,0.133-0.502,0.166-0.813,0.104
									C302.105,253.147,301.685,252.963,301.155,252.657 M303.516,251.293c-0.696-0.401-1.385-0.623-2.054-0.671
									c-0.674-0.044-1.285,0.096-1.83,0.413c-0.546,0.317-0.785,0.671-0.708,1.062c0.079,0.392,0.469,0.785,1.166,1.188
									c0.695,0.401,1.377,0.626,2.053,0.671c0.675,0.044,1.291-0.093,1.837-0.41c0.545-0.316,0.779-0.674,0.7-1.064
									C304.595,252.093,304.211,251.695,303.516,251.293"/>
								<path fill="#FFFFFF" d="M316.972,244.116l-1.095-1.294l2.237,0.63L316.972,244.116 M321.265,243.404l-5.73-1.522
									l-1.281,0.745l2.647,3.314l1.078-0.627l-0.5-0.598l1.681-0.977l1.026,0.291L321.265,243.404"/>
								<polyline fill="#FFFFFF" points="324.588,241.473 323.841,241.041 322.89,241.594 319.448,239.607 318.427,240.201
									317.661,240.876 318.401,241.304 319.168,240.621 321.874,242.185 320.93,242.733 321.677,243.165 324.588,241.473
									"/>
								<polyline fill="#FFFFFF" points="326.275,240.492 325.19,239.865 324.188,240.448 325.273,241.075 326.275,240.492
									"/>
								<polyline fill="#FFFFFF" points="330.158,238.236 329.41,237.805 328.458,238.357 325.018,236.371 323.996,236.964
									323.23,237.639 323.971,238.066 324.737,237.385 327.443,238.947 326.499,239.496 327.246,239.928 330.158,238.236
									"/>
								<polyline fill="#FFFFFF" points="333.843,236.095 333.096,235.663 332.145,236.216 328.703,234.229 327.688,234.819
									326.916,235.497 327.656,235.925 328.429,235.239 331.136,236.802 330.184,237.355 330.932,237.786 333.843,236.095
																	"/>
								<path fill="#FFFFFF" d="M369.012,213.872l-1.096-1.293l2.237,0.63L369.012,213.872 M373.304,213.161l-5.729-1.522
									l-1.281,0.745l2.646,3.313l1.079-0.626l-0.5-0.598l1.675-0.973l1.025,0.291L373.304,213.161"/>
								<polyline fill="#FFFFFF" points="376.621,211.233 375.874,210.802 374.929,211.351 371.488,209.364 370.467,209.958
									369.694,210.636 370.435,211.063 371.207,210.378 373.914,211.941 372.963,212.494 373.71,212.926 376.621,211.233
									"/>
								<polyline fill="#FFFFFF" points="378.315,210.249 377.229,209.623 376.228,210.205 377.312,210.832 378.315,210.249
																	"/>
								<polyline fill="#FFFFFF" points="382.19,207.997 381.443,207.565 380.498,208.114 377.058,206.127 376.036,206.721
									375.27,207.396 376.011,207.823 376.776,207.142 379.483,208.704 378.532,209.257 379.279,209.688 382.19,207.997
									"/>
								<path fill="#FFFFFF" d="M385.774,205.914l-0.798-0.461l-1.827,1.062l0.103-0.97c0.049-0.405,0.028-0.704-0.056-0.885
									c-0.077-0.184-0.231-0.339-0.46-0.472c-0.391-0.225-0.843-0.324-1.333-0.292c-0.502,0.033-0.998,0.196-1.493,0.483
									c-0.228,0.133-0.443,0.28-0.633,0.442c-0.196,0.159-0.374,0.336-0.539,0.52l0.927,0.535
									c0.081-0.218,0.194-0.402,0.315-0.561c0.126-0.155,0.271-0.284,0.437-0.38c0.222-0.129,0.457-0.191,0.711-0.199
									c0.249-0.011,0.472,0.045,0.669,0.159c0.129,0.074,0.218,0.163,0.264,0.27c0.058,0.107,0.077,0.236,0.065,0.383
									l-0.175,1.663l0.798,0.461L385.774,205.914"/>
								<path fill="#FFFFFF" d="M444.25,163.491l-1.096-1.294l2.23,0.634L444.25,163.491 M448.535,162.783l-5.73-1.522l-1.275,0.741
									l2.647,3.314l1.079-0.627l-0.507-0.593l1.681-0.977l1.027,0.291L448.535,162.783"/>
								<polyline fill="#FFFFFF" points="451.858,160.851 451.111,160.42 450.16,160.973 446.719,158.986 445.703,159.576
									444.932,160.254 445.672,160.682 446.444,159.996 449.151,161.559 448.2,162.112 448.947,162.543 451.858,160.851
									"/>
								<polyline fill="#FFFFFF" points="453.553,159.867 452.467,159.24 451.464,159.823 452.55,160.449 453.553,159.867
									"/>
								<polyline fill="#FFFFFF" points="457.428,157.614 456.682,157.183 455.736,157.732 452.294,155.745 451.273,156.339
									450.501,157.017 451.241,157.445 452.014,156.759 454.721,158.322 453.77,158.875 454.517,159.307 457.428,157.614
									"/>
								<path fill="#FFFFFF" d="M456.917,156.122l-0.583-1.696l1.757,1.014L456.917,156.122 M460.48,154.953l-0.778-0.45
									l-0.597,0.347l-2.644-1.526l-1.192,0.693l0.828,2.411l0.926,0.534l1.846-1.073l0.767,0.442l1.015-0.59l-0.767-0.442
									L460.48,154.953"/>
								<path fill="#FFFFFF" d="M406.19,185.609l-1.096-1.293l2.23,0.634L406.19,185.609 M410.476,184.901l-5.729-1.523
									l-1.275,0.741l2.646,3.314l1.079-0.626l-0.507-0.594l1.682-0.977l1.026,0.292L410.476,184.901"/>
								<polyline fill="#FFFFFF" points="413.799,182.97 413.053,182.538 412.101,183.091 408.659,181.104 407.645,181.694
									406.872,182.373 407.612,182.8 408.385,182.114 411.093,183.677 410.141,184.23 410.888,184.662 413.799,182.97 								"/>
								<polyline fill="#FFFFFF" points="415.493,181.985 414.407,181.358 413.405,181.941 414.49,182.568 415.493,181.985
									"/>
								<polyline fill="#FFFFFF" points="419.369,179.733 418.622,179.302 417.677,179.851 414.235,177.864 413.214,178.457
									412.441,179.136 413.182,179.563 413.954,178.877 416.662,180.441 415.71,180.994 416.457,181.425 419.369,179.733
									"/>
								<path fill="#FFFFFF" d="M421.81,176.938c-0.281-0.162-0.587-0.25-0.911-0.269c-0.332-0.022-0.669,0.033-1.023,0.151
									c0.189-0.184,0.271-0.358,0.238-0.524c-0.027-0.162-0.16-0.313-0.41-0.457c-0.357-0.206-0.759-0.284-1.204-0.232
									c-0.451,0.055-0.94,0.236-1.485,0.553c-0.197,0.115-0.394,0.243-0.565,0.38c-0.177,0.14-0.341,0.288-0.499,0.446
									l0.791,0.458c0.102-0.148,0.221-0.284,0.354-0.406c0.14-0.125,0.291-0.243,0.463-0.343c0.234-0.136,0.463-0.218,0.679-0.24
									c0.217-0.022,0.401,0.011,0.567,0.107c0.173,0.1,0.236,0.21,0.187,0.336c-0.044,0.129-0.209,0.269-0.476,0.423l-0.45,0.262
									l0.696,0.402l0.425-0.247c0.305-0.177,0.584-0.28,0.839-0.317c0.254-0.029,0.477,0.011,0.662,0.118s0.256,0.236,0.206,0.376
									c-0.051,0.147-0.228,0.302-0.507,0.464c-0.196,0.114-0.413,0.21-0.667,0.299c-0.247,0.085-0.521,0.155-0.819,0.217
									l0.83,0.479c0.279-0.082,0.547-0.177,0.8-0.281c0.241-0.103,0.477-0.217,0.692-0.342c0.603-0.35,0.957-0.682,1.057-0.992
									C422.379,177.451,422.225,177.178,421.81,176.938"/>
								<path fill="#FFFFFF" d="M359.152,273.512l-1.097-1.294l2.238,0.63L359.152,273.512 M363.444,272.8l-5.73-1.522l-1.281,0.744
									l2.647,3.314l1.078-0.627l-0.494-0.594l1.675-0.973l1.026,0.284L363.444,272.8"/>
								<polyline fill="#FFFFFF" points="366.762,270.872 366.014,270.44 365.069,270.989 361.628,269.003 360.606,269.596
									359.847,270.274 360.581,270.698 361.347,270.017 364.054,271.579 363.108,272.129 363.856,272.561 366.762,270.872
																	"/>
								<polyline fill="#FFFFFF" points="368.455,269.888 367.369,269.261 366.367,269.844 367.452,270.47 368.455,269.888
									"/>
								<path fill="#FFFFFF" d="M367.997,267.72c-0.523-0.302-0.837-0.542-0.952-0.727c-0.115-0.177-0.06-0.335,0.175-0.472
									c0.229-0.133,0.503-0.166,0.808-0.1c0.312,0.07,0.728,0.251,1.251,0.554c0.53,0.306,0.855,0.553,0.978,0.733
									c0.116,0.184,0.066,0.339-0.162,0.472c-0.235,0.137-0.509,0.17-0.82,0.1C368.954,268.214,368.527,268.026,367.997,267.72
									 M370.363,266.359c-0.695-0.401-1.378-0.627-2.053-0.67c-0.676-0.045-1.285,0.088-1.831,0.404
									c-0.552,0.32-0.785,0.679-0.7,1.066c0.078,0.39,0.463,0.788,1.158,1.19c0.689,0.397,1.379,0.619,2.053,0.663
									c0.669,0.048,1.286-0.088,1.838-0.408c0.545-0.317,0.771-0.672,0.693-1.062S371.053,266.758,370.363,266.359"/>
								<path fill="#FFFFFF" d="M370.922,265.154c-0.242-0.141-0.37-0.273-0.408-0.398c-0.026-0.125,0.056-0.246,0.24-0.354
									c0.189-0.11,0.394-0.155,0.609-0.141c0.223,0.019,0.446,0.096,0.688,0.236c0.249,0.144,0.39,0.276,0.416,0.401
									c0.026,0.126-0.05,0.243-0.24,0.354c-0.185,0.107-0.394,0.155-0.61,0.141C371.407,265.375,371.172,265.298,370.922,265.154
									 M373.902,264.236c-0.67-0.387-1.34-0.604-2.002-0.642c-0.668-0.04-1.272,0.097-1.817,0.413
									c-0.488,0.284-0.742,0.586-0.759,0.914c-0.023,0.324,0.194,0.619,0.641,0.878c0.409,0.235,0.875,0.35,1.384,0.342
									c0.509-0.007,0.979-0.132,1.404-0.38c0.171-0.099,0.298-0.202,0.399-0.312c0.088-0.11,0.151-0.229,0.188-0.354
									c0.319,0.221,0.479,0.431,0.481,0.638c0.001,0.206-0.163,0.405-0.48,0.59c-0.152,0.088-0.33,0.169-0.521,0.235
									c-0.203,0.066-0.419,0.125-0.68,0.181l0.779,0.45c0.235-0.07,0.45-0.145,0.653-0.232c0.21-0.085,0.414-0.188,0.604-0.299
									c0.609-0.354,0.887-0.744,0.839-1.176C374.97,265.051,374.599,264.639,373.902,264.236"/>
								<polyline fill="#CFD0D2" points="108.437,227.594 98.247,221.71 95.335,220.029 95.384,227.59 108.437,227.594 								"/>
								<polyline fill="#CFD0D2" points="250.963,294.542 240.463,294.542 240.49,300.629 248.077,296.22 250.963,294.542
									"/>
								<polyline fill="#CFD0D2" points="481.75,154.079 468.691,154.079 478.881,159.963 481.786,161.64 481.75,154.079
									"/>
								<polyline fill="#CFD0D2" points="374.482,240.488 371.596,242.166 364.358,246.372 361.466,248.053 374.523,248.053
									374.482,240.488 								"/>
								<path fill="#CFD0D2" d="M129.088,192.521l-0.524-0.302c-0.21-0.122-0.408-0.192-0.58-0.21
									c-0.179-0.022-0.338,0.011-0.471,0.088c-0.126,0.074-0.184,0.159-0.17,0.247c0.013,0.089,0.096,0.181,0.25,0.27
									c0.185,0.107,0.414,0.159,0.675,0.155s0.502-0.062,0.706-0.181L129.088,192.521 M119.042,186.243l-0.632-0.365l-1.091,0.634
									l0.632,0.365c0.217,0.125,0.428,0.195,0.631,0.203c0.198,0.011,0.395-0.037,0.578-0.144c0.178-0.103,0.253-0.213,0.24-0.332
									C119.381,186.49,119.265,186.372,119.042,186.243 M125.235,189.819l-0.638-0.369l-1.091,0.634l0.638,0.369
									c0.217,0.125,0.421,0.191,0.625,0.199c0.204,0.015,0.395-0.037,0.578-0.144c0.178-0.104,0.26-0.21,0.247-0.329
									C125.574,190.066,125.452,189.944,125.235,189.819 M120.621,185.288l-0.6-0.346l-0.882,0.512l0.601,0.347
									c0.166,0.096,0.332,0.147,0.497,0.155c0.166,0.007,0.318-0.029,0.464-0.114c0.14-0.081,0.203-0.17,0.189-0.265
									C120.877,185.48,120.787,185.384,120.621,185.288 M126.808,188.86l-0.6-0.346l-0.882,0.512l0.6,0.346
									c0.172,0.1,0.338,0.152,0.504,0.159c0.159,0.003,0.311-0.033,0.457-0.118c0.14-0.081,0.203-0.169,0.196-0.261
									C127.07,189.056,126.98,188.96,126.808,188.86 M120.623,187.832l0.812-0.472l1.763,1.018l-0.812,0.472L120.623,187.832
									 M131.455,194.74c0.21,0.122,0.459,0.169,0.738,0.147c0.274-0.026,0.56-0.118,0.845-0.284l1.541-0.896l1.002,0.579
									l-3.121,1.813l-1.002-0.579l0.451-0.262c-0.332,0.015-0.63,0.004-0.885-0.048c-0.255-0.044-0.485-0.125-0.689-0.243
									c-0.364-0.21-0.524-0.435-0.494-0.675c0.03-0.239,0.251-0.479,0.677-0.726l1.903-1.106l1.015,0.586l-0.311,0.18
									c-0.171,0.1-0.387,0.218-0.641,0.365c-0.26,0.151-0.431,0.25-0.513,0.299c-0.254,0.147-0.425,0.254-0.521,0.324
									c-0.101,0.074-0.165,0.133-0.177,0.177c-0.025,0.066-0.024,0.125,0.014,0.185
									C131.314,194.637,131.372,194.692,131.455,194.74 M128.061,190.921l0.761-0.442c0.268,0.096,0.523,0.199,0.771,0.306
									c0.243,0.11,0.472,0.229,0.689,0.354c0.568,0.328,0.869,0.627,0.896,0.899c0.033,0.277-0.207,0.557-0.708,0.848
									l-1.783,1.036l-1.008-0.583l0.463-0.269c-0.331,0.03-0.617,0.025-0.872-0.026c-0.255-0.044-0.504-0.136-0.747-0.276
									c-0.325-0.188-0.492-0.395-0.506-0.623c-0.014-0.229,0.125-0.428,0.429-0.604c0.362-0.21,0.762-0.295,1.189-0.247
									c0.426,0.048,0.904,0.229,1.447,0.542l0.594,0.343l0.076-0.044c0.158-0.092,0.215-0.199,0.157-0.313
									c-0.052-0.118-0.212-0.247-0.48-0.401c-0.21-0.122-0.434-0.229-0.664-0.31C128.545,191.024,128.309,190.961,128.061,190.921
									 M115.51,186.313l4.161-2.418l1.622,0.937c0.581,0.335,0.914,0.63,1.004,0.881c0.084,0.255-0.067,0.491-0.447,0.711
									c-0.203,0.118-0.425,0.196-0.661,0.221c-0.235,0.026-0.484,0.008-0.732-0.055c0.167,0.17,0.219,0.347,0.168,0.524
									c-0.056,0.181-0.214,0.346-0.475,0.497c-0.399,0.232-0.838,0.325-1.303,0.284c-0.471-0.044-0.988-0.225-1.543-0.545
									L115.51,186.313 M121.697,189.885l4.161-2.418l1.622,0.937c0.581,0.335,0.914,0.63,1.004,0.881
									c0.084,0.254-0.061,0.494-0.441,0.715c-0.203,0.118-0.432,0.191-0.667,0.217c-0.236,0.026-0.484,0.008-0.732-0.055
									c0.166,0.169,0.225,0.35,0.168,0.524c-0.056,0.181-0.214,0.346-0.474,0.497c-0.4,0.232-0.832,0.328-1.303,0.284
									c-0.471-0.044-0.988-0.225-1.543-0.546L121.697,189.885 M125.356,180.791l-14.169,0.645l-1.067,8.209l3.381-1.965
									l11.882,6.86l17.296,9.986l8.474-4.925l-17.295-9.986l-11.882-6.86L125.356,180.791"/>
								<path fill="#FFFFFF" d="M117.319,186.512l1.091-0.634l0.632,0.365c0.223,0.129,0.339,0.247,0.358,0.361
									c0.013,0.119-0.062,0.229-0.24,0.332c-0.184,0.107-0.38,0.155-0.578,0.144c-0.203-0.007-0.414-0.077-0.631-0.203
									L117.319,186.512 M119.139,185.454l0.882-0.512l0.6,0.346c0.166,0.096,0.256,0.192,0.269,0.288
									c0.014,0.095-0.05,0.184-0.189,0.265c-0.146,0.085-0.298,0.122-0.464,0.114c-0.166-0.007-0.332-0.059-0.497-0.155
									L119.139,185.454 M121.293,184.831l-1.622-0.937l-4.161,2.418l1.794,1.036c0.555,0.321,1.072,0.501,1.543,0.545
									c0.465,0.041,0.903-0.052,1.303-0.284c0.26-0.151,0.418-0.316,0.475-0.497c0.05-0.177-0.001-0.354-0.168-0.524
									c0.249,0.063,0.497,0.082,0.732,0.055c0.236-0.025,0.458-0.103,0.661-0.221c0.38-0.221,0.531-0.457,0.447-0.711
									C122.207,185.461,121.874,185.167,121.293,184.831"/>
								<polyline fill="#FFFFFF" points="123.197,188.377 121.435,187.36 120.623,187.832 122.385,188.85 123.197,188.377
									"/>
								<path fill="#FFFFFF" d="M123.506,190.084l1.091-0.634l0.638,0.369c0.217,0.125,0.339,0.247,0.359,0.361
									c0.013,0.119-0.069,0.225-0.247,0.329c-0.184,0.107-0.375,0.159-0.578,0.144c-0.204-0.007-0.408-0.074-0.625-0.199
									L123.506,190.084 M125.326,189.026l0.882-0.512l0.6,0.346c0.173,0.1,0.263,0.195,0.275,0.292
									c0.007,0.092-0.056,0.18-0.196,0.261c-0.146,0.085-0.298,0.122-0.457,0.118c-0.166-0.007-0.332-0.059-0.504-0.159
									L125.326,189.026 M127.48,188.403l-1.622-0.937l-4.161,2.418l1.794,1.036c0.555,0.321,1.072,0.501,1.543,0.546
									c0.471,0.044,0.903-0.052,1.303-0.284c0.26-0.151,0.418-0.316,0.474-0.497c0.057-0.174-0.002-0.354-0.168-0.524
									c0.248,0.063,0.497,0.081,0.732,0.055c0.235-0.026,0.464-0.1,0.667-0.217c0.38-0.221,0.525-0.461,0.441-0.715
									C128.394,189.034,128.061,188.739,127.48,188.403"/>
								<path fill="#FFFFFF" d="M127.593,192.613c-0.153-0.088-0.237-0.181-0.25-0.27c-0.014-0.088,0.043-0.173,0.17-0.247
									c0.133-0.077,0.292-0.11,0.471-0.088c0.171,0.019,0.369,0.089,0.58,0.21l0.524,0.302l-0.114,0.066
									c-0.203,0.118-0.444,0.177-0.706,0.181S127.778,192.72,127.593,192.613 M130.283,191.139
									c-0.217-0.125-0.447-0.244-0.689-0.354c-0.249-0.107-0.504-0.21-0.771-0.306l-0.761,0.442
									c0.249,0.041,0.484,0.104,0.707,0.188c0.23,0.081,0.453,0.188,0.664,0.31c0.268,0.155,0.428,0.284,0.48,0.401
									c0.058,0.115,0.001,0.222-0.157,0.313l-0.076,0.044l-0.594-0.343c-0.542-0.313-1.021-0.494-1.447-0.542
									c-0.427-0.048-0.827,0.037-1.189,0.247c-0.304,0.177-0.443,0.376-0.429,0.604c0.014,0.229,0.181,0.435,0.506,0.623
									c0.243,0.14,0.492,0.232,0.747,0.276c0.254,0.051,0.541,0.056,0.872,0.026l-0.463,0.269l1.008,0.583l1.783-1.036
									c0.501-0.291,0.741-0.571,0.708-0.848C131.151,191.766,130.851,191.467,130.283,191.139"/>
								<path fill="#FFFFFF" d="M135.582,194.287l-1.002-0.579l-1.541,0.896c-0.286,0.166-0.571,0.258-0.845,0.284
									c-0.279,0.022-0.528-0.026-0.738-0.147c-0.083-0.048-0.141-0.104-0.167-0.162c-0.038-0.059-0.039-0.118-0.014-0.185
									c0.013-0.044,0.077-0.103,0.177-0.177c0.095-0.07,0.267-0.177,0.521-0.324c0.083-0.048,0.253-0.147,0.513-0.299
									c0.254-0.147,0.47-0.266,0.641-0.365l0.311-0.18l-1.015-0.586l-1.903,1.106c-0.425,0.247-0.646,0.487-0.677,0.726
									c-0.031,0.24,0.129,0.465,0.494,0.675c0.204,0.118,0.434,0.199,0.689,0.243c0.255,0.052,0.553,0.063,0.885,0.048
									l-0.451,0.262l1.002,0.579L135.582,194.287"/>
								<path fill="#CFD0D2" d="M454.707,198.895l-0.523-0.302c-0.211-0.122-0.396-0.192-0.574-0.214
									c-0.178-0.015-0.337,0.011-0.477,0.092c-0.127,0.074-0.178,0.155-0.164,0.244c0.014,0.096,0.097,0.181,0.25,0.269
									c0.191,0.11,0.407,0.162,0.682,0.158c0.261-0.004,0.489-0.062,0.692-0.181L454.707,198.895 M450.86,196.189l-0.632-0.365
									l-1.091,0.634l0.632,0.365c0.217,0.125,0.428,0.195,0.625,0.206c0.203,0.007,0.4-0.041,0.584-0.147
									c0.178-0.104,0.254-0.214,0.234-0.328C451.199,196.436,451.077,196.314,450.86,196.189 M452.434,195.23l-0.594-0.343
									l-0.882,0.513l0.594,0.343c0.173,0.1,0.338,0.151,0.504,0.158c0.159,0.011,0.318-0.029,0.458-0.11
									c0.146-0.085,0.208-0.173,0.195-0.27C452.695,195.426,452.606,195.33,452.434,195.23 M446.248,194.202l0.812-0.472
									l1.762,1.018l-0.812,0.472L446.248,194.202 M457.087,201.114c0.211,0.122,0.453,0.166,0.732,0.144
									c0.279-0.022,0.56-0.118,0.845-0.284l1.541-0.896l1.009,0.582l-3.121,1.814l-1.008-0.583l0.45-0.262
									c-0.331,0.022-0.63,0.004-0.879-0.044c-0.261-0.048-0.49-0.129-0.695-0.247c-0.363-0.21-0.53-0.432-0.499-0.671
									c0.036-0.236,0.265-0.479,0.684-0.723l1.909-1.109l1.009,0.583l-0.312,0.181c-0.171,0.1-0.38,0.221-0.647,0.368
									c-0.253,0.147-0.425,0.247-0.508,0.295c-0.253,0.147-0.424,0.255-0.525,0.329c-0.096,0.069-0.152,0.132-0.171,0.18
									c-0.024,0.059-0.025,0.118,0.014,0.177C456.939,201.007,456.998,201.062,457.087,201.114 M453.692,197.295l0.761-0.442
									c0.262,0.092,0.518,0.195,0.76,0.306c0.249,0.107,0.479,0.225,0.695,0.351c0.568,0.328,0.862,0.63,0.89,0.903
									c0.033,0.276-0.2,0.56-0.694,0.848l-1.783,1.036l-1.016-0.586l0.463-0.269c-0.323,0.033-0.616,0.026-0.865-0.022
									c-0.261-0.048-0.51-0.14-0.746-0.276c-0.326-0.188-0.499-0.398-0.513-0.626c-0.014-0.221,0.131-0.424,0.436-0.601
									c0.362-0.21,0.763-0.294,1.176-0.247c0.428,0.048,0.912,0.225,1.454,0.538l0.594,0.343l0.076-0.044
									c0.158-0.092,0.209-0.195,0.164-0.31c-0.058-0.114-0.218-0.25-0.479-0.402c-0.217-0.125-0.435-0.229-0.664-0.31
									C454.171,197.402,453.935,197.339,453.692,197.295 M441.589,192.945l4.162-2.418l2.918,1.685l-0.812,0.472l-1.832-1.058
									l-0.774,0.45l1.724,0.995l-0.812,0.472l-1.724-0.995l-0.951,0.553l1.896,1.095l-0.812,0.472L441.589,192.945
									 M447.329,196.259l4.161-2.418l1.622,0.936c0.581,0.335,0.913,0.63,1.004,0.881c0.078,0.251-0.067,0.49-0.454,0.715
									c-0.203,0.118-0.419,0.192-0.655,0.217c-0.241,0.029-0.483,0.007-0.731-0.056c0.16,0.174,0.219,0.347,0.168,0.523
									c-0.056,0.181-0.214,0.347-0.475,0.498c-0.399,0.232-0.844,0.328-1.309,0.288c-0.471-0.044-0.981-0.229-1.543-0.553
									L447.329,196.259 M468.005,197.232l-3.312,1.924l-11.083-6.399l-18.095-10.448l-8.297,4.822l18.095,10.448l11.083,6.399
									l-3.311,1.924l14.01-0.553L468.005,197.232"/>
								<path fill="#CFD0D2" d="M434.311,171.604l-0.523-0.302c-0.211-0.122-0.402-0.195-0.574-0.214
									c-0.179-0.022-0.338,0.011-0.478,0.092c-0.12,0.07-0.177,0.155-0.163,0.244c0.006,0.092,0.096,0.18,0.25,0.269
									c0.185,0.107,0.407,0.162,0.675,0.155c0.267,0,0.496-0.059,0.698-0.177L434.311,171.604 M430.464,168.898l-0.632-0.365
									l-1.091,0.634l0.632,0.365c0.217,0.125,0.421,0.192,0.631,0.203c0.197,0.011,0.388-0.041,0.572-0.147
									c0.178-0.104,0.259-0.21,0.246-0.328C430.803,169.146,430.681,169.024,430.464,168.898 M432.037,167.94l-0.594-0.343
									l-0.882,0.513l0.594,0.343c0.173,0.1,0.338,0.151,0.504,0.158c0.158,0.011,0.317-0.029,0.457-0.111
									c0.146-0.084,0.209-0.173,0.196-0.269C432.299,168.136,432.209,168.04,432.037,167.94 M425.852,166.912l0.812-0.472
									l1.762,1.017l-0.812,0.472L425.852,166.912 M436.684,173.82c0.211,0.122,0.459,0.169,0.739,0.147
									c0.279-0.022,0.559-0.118,0.845-0.284l1.541-0.896l1.003,0.579l-3.121,1.814l-1.003-0.579l0.451-0.262
									c-0.338,0.019-0.63,0.004-0.879-0.044c-0.261-0.048-0.49-0.129-0.695-0.247c-0.363-0.21-0.524-0.436-0.5-0.671
									c0.03-0.24,0.258-0.483,0.684-0.73l1.902-1.106l1.016,0.586l-0.311,0.181c-0.171,0.1-0.381,0.221-0.647,0.368
									c-0.254,0.147-0.425,0.247-0.508,0.295c-0.254,0.147-0.424,0.255-0.526,0.329c-0.095,0.07-0.158,0.129-0.177,0.177
									c-0.019,0.063-0.019,0.122,0.021,0.181C436.543,173.717,436.601,173.772,436.684,173.82 M433.289,170.001l0.762-0.442
									c0.268,0.096,0.522,0.199,0.771,0.306c0.242,0.111,0.473,0.229,0.689,0.354c0.567,0.328,0.862,0.63,0.89,0.903
									c0.033,0.276-0.201,0.553-0.702,0.844l-1.782,1.036l-1.009-0.583l0.463-0.269c-0.324,0.033-0.617,0.026-0.871-0.026
									c-0.256-0.044-0.505-0.136-0.747-0.276c-0.325-0.188-0.492-0.395-0.506-0.623c-0.015-0.229,0.125-0.428,0.43-0.604
									c0.361-0.21,0.762-0.295,1.188-0.247c0.426,0.048,0.904,0.229,1.447,0.542l0.594,0.343l0.076-0.044
									c0.158-0.092,0.209-0.195,0.157-0.313c-0.045-0.114-0.211-0.247-0.479-0.402c-0.211-0.122-0.434-0.229-0.663-0.31
									C433.773,170.104,433.531,170.045,433.289,170.001 M421.192,165.654l4.161-2.418l2.918,1.685l-0.812,0.472l-1.84-1.062
									l-0.773,0.45l1.725,0.996l-0.812,0.472l-1.725-0.996l-1.763,1.025L421.192,165.654 M426.926,168.965l4.161-2.418
									l1.622,0.937c0.58,0.335,0.914,0.63,1.004,0.881c0.084,0.254-0.061,0.494-0.448,0.719c-0.196,0.114-0.425,0.188-0.66,0.214
									c-0.235,0.026-0.478,0.011-0.732-0.056c0.173,0.173,0.225,0.351,0.175,0.527c-0.062,0.177-0.221,0.343-0.48,0.494
									c-0.399,0.232-0.832,0.328-1.303,0.284c-0.479-0.041-0.988-0.225-1.543-0.545L426.926,168.965 M430.818,160.63l-14.01,0.553
									l-0.909,8.118l3.312-1.925l14.907,8.608l14.271,8.239l8.297-4.822l-14.271-8.239l-14.907-8.608L430.818,160.63"/>
								<polyline fill="#FFFFFF" points="448.669,192.211 445.751,190.526 441.589,192.945 444.571,194.667 445.383,194.194
									443.487,193.1 444.438,192.547 446.162,193.542 446.974,193.07 445.25,192.075 446.024,191.625 447.856,192.684
									448.669,192.211 								"/>
								<polyline fill="#FFFFFF" points="448.822,194.748 447.061,193.73 446.248,194.202 448.01,195.219 448.822,194.748
									"/>
								<path fill="#FFFFFF" d="M449.138,196.458l1.091-0.634l0.632,0.365c0.217,0.125,0.339,0.247,0.353,0.365
									c0.02,0.114-0.057,0.225-0.234,0.328c-0.184,0.107-0.381,0.155-0.584,0.147c-0.197-0.011-0.408-0.081-0.625-0.206
									L449.138,196.458 M450.958,195.4l0.882-0.513l0.594,0.343c0.173,0.1,0.262,0.195,0.275,0.291
									c0.013,0.096-0.05,0.185-0.195,0.27c-0.14,0.081-0.299,0.122-0.458,0.11c-0.166-0.007-0.331-0.059-0.504-0.158
									L450.958,195.4 M453.112,194.777l-1.622-0.936l-4.161,2.418l1.788,1.033c0.562,0.324,1.072,0.508,1.543,0.553
									c0.465,0.041,0.909-0.055,1.309-0.288c0.261-0.151,0.419-0.317,0.475-0.498c0.051-0.177-0.008-0.35-0.168-0.523
									c0.248,0.063,0.49,0.085,0.731,0.056c0.236-0.025,0.452-0.1,0.655-0.217c0.387-0.225,0.532-0.464,0.454-0.715
									C454.025,195.407,453.693,195.112,453.112,194.777"/>
								<path fill="#FFFFFF" d="M453.219,198.983c-0.153-0.088-0.236-0.173-0.25-0.269c-0.014-0.088,0.037-0.17,0.164-0.244
									c0.14-0.081,0.299-0.107,0.477-0.092c0.179,0.021,0.363,0.092,0.574,0.214l0.523,0.302l-0.114,0.066
									c-0.203,0.118-0.432,0.177-0.692,0.181C453.626,199.146,453.41,199.094,453.219,198.983 M455.908,197.509
									c-0.217-0.125-0.446-0.243-0.695-0.351c-0.242-0.11-0.498-0.213-0.76-0.306l-0.761,0.442
									c0.242,0.044,0.479,0.107,0.707,0.188c0.229,0.081,0.447,0.185,0.664,0.31c0.262,0.151,0.422,0.288,0.479,0.402
									c0.045,0.114-0.006,0.217-0.164,0.31l-0.076,0.044l-0.594-0.343c-0.542-0.313-1.026-0.49-1.454-0.538
									c-0.413-0.048-0.813,0.037-1.176,0.247c-0.305,0.177-0.449,0.38-0.436,0.601c0.014,0.229,0.187,0.438,0.513,0.626
									c0.236,0.137,0.485,0.229,0.746,0.276c0.249,0.048,0.542,0.056,0.865,0.022l-0.463,0.269l1.016,0.586l1.783-1.036
									c0.494-0.288,0.728-0.572,0.694-0.848C456.771,198.139,456.477,197.837,455.908,197.509"/>
								<path fill="#FFFFFF" d="M461.214,200.66l-1.009-0.582l-1.541,0.896c-0.285,0.166-0.565,0.262-0.845,0.284
									c-0.279,0.022-0.521-0.022-0.732-0.144c-0.089-0.052-0.147-0.107-0.173-0.166c-0.039-0.059-0.038-0.118-0.014-0.177
									c0.019-0.048,0.075-0.111,0.171-0.18c0.102-0.074,0.272-0.181,0.525-0.329c0.083-0.048,0.255-0.147,0.508-0.295
									c0.268-0.147,0.477-0.269,0.647-0.368l0.312-0.181l-1.009-0.583l-1.909,1.109c-0.419,0.244-0.647,0.487-0.684,0.723
									c-0.031,0.239,0.136,0.461,0.499,0.671c0.205,0.118,0.435,0.199,0.695,0.247c0.249,0.048,0.548,0.066,0.879,0.044
									l-0.45,0.262l1.008,0.583L461.214,200.66"/>
								<polyline fill="#FFFFFF" points="428.271,164.921 425.354,163.236 421.192,165.654 422.271,166.277 424.034,165.252
									425.759,166.248 426.571,165.776 424.847,164.781 425.62,164.331 427.46,165.393 428.271,164.921 								"/>
								<polyline fill="#FFFFFF" points="428.426,167.457 426.664,166.44 425.852,166.912 427.613,167.929 428.426,167.457
									"/>
								<path fill="#FFFFFF" d="M428.741,169.168l1.091-0.634l0.632,0.365c0.217,0.125,0.339,0.247,0.358,0.361
									c0.013,0.118-0.068,0.225-0.246,0.328c-0.185,0.107-0.375,0.158-0.572,0.147c-0.21-0.011-0.414-0.078-0.631-0.203
									L428.741,169.168 M430.562,168.11l0.882-0.513l0.594,0.343c0.172,0.1,0.262,0.195,0.275,0.291
									c0.013,0.096-0.051,0.184-0.196,0.269c-0.14,0.082-0.299,0.122-0.457,0.111c-0.166-0.007-0.331-0.059-0.504-0.158
									L430.562,168.11 M432.709,167.483l-1.622-0.937l-4.161,2.418l1.795,1.036c0.555,0.32,1.064,0.504,1.543,0.545
									c0.471,0.044,0.903-0.051,1.303-0.284c0.26-0.151,0.418-0.317,0.48-0.494c0.05-0.177-0.002-0.354-0.175-0.527
									c0.255,0.066,0.497,0.082,0.732,0.056c0.235-0.026,0.464-0.1,0.66-0.214c0.388-0.225,0.532-0.465,0.448-0.719
									C433.623,168.113,433.289,167.818,432.709,167.483"/>
								<path fill="#FFFFFF" d="M432.822,171.693c-0.154-0.089-0.244-0.177-0.25-0.269c-0.014-0.088,0.043-0.173,0.163-0.244
									c0.14-0.081,0.299-0.114,0.478-0.092c0.172,0.019,0.363,0.092,0.574,0.214l0.523,0.302l-0.115,0.066
									c-0.202,0.118-0.432,0.177-0.698,0.177C433.229,171.855,433.007,171.8,432.822,171.693 M435.512,170.218
									c-0.217-0.125-0.447-0.243-0.689-0.354c-0.249-0.106-0.504-0.21-0.771-0.306l-0.762,0.442
									c0.242,0.044,0.484,0.103,0.708,0.188c0.229,0.081,0.452,0.188,0.663,0.31c0.269,0.155,0.435,0.288,0.479,0.402
									c0.052,0.118,0.001,0.221-0.157,0.313l-0.076,0.044l-0.594-0.343c-0.543-0.313-1.021-0.494-1.447-0.542
									c-0.427-0.048-0.827,0.037-1.188,0.247c-0.305,0.177-0.444,0.376-0.43,0.604c0.014,0.229,0.181,0.435,0.506,0.623
									c0.242,0.14,0.491,0.232,0.747,0.276c0.254,0.052,0.547,0.059,0.871,0.026l-0.463,0.269l1.009,0.583l1.782-1.036
									c0.501-0.291,0.735-0.567,0.702-0.844C436.374,170.849,436.079,170.546,435.512,170.218"/>
								<path fill="#FFFFFF" d="M440.812,173.366l-1.003-0.579l-1.541,0.896c-0.286,0.166-0.565,0.262-0.845,0.284
									c-0.28,0.022-0.528-0.026-0.739-0.147c-0.083-0.048-0.141-0.103-0.166-0.162c-0.039-0.059-0.039-0.118-0.021-0.181
									c0.019-0.048,0.082-0.107,0.177-0.177c0.103-0.074,0.272-0.181,0.526-0.329c0.083-0.048,0.254-0.147,0.508-0.295
									c0.267-0.147,0.477-0.269,0.647-0.368l0.311-0.181l-1.016-0.586l-1.902,1.106c-0.426,0.247-0.653,0.49-0.684,0.73
									c-0.024,0.236,0.137,0.461,0.5,0.671c0.205,0.118,0.435,0.199,0.695,0.247c0.249,0.048,0.541,0.063,0.879,0.044
									l-0.451,0.262l1.003,0.579L440.812,173.366"/>
								<path fill="#FFFFFF" d="M333.409,225.769l2.23-0.63l-1.081,1.294L333.409,225.769 M337.255,224.946l-1.29-0.744
									l-5.713,1.522l1.086,0.627l1.029-0.288l1.686,0.974l-0.493,0.597l1.085,0.627L337.255,224.946"/>
								<polyline fill="#FFFFFF" points="341.194,227.221 340.166,226.627 338.999,226.182 338.27,226.605 339.443,227.056
									336.754,228.618 335.802,228.068 335.06,228.5 337.983,230.188 338.727,229.757 337.775,229.208 341.194,227.221
									"/>
								<polyline fill="#FFFFFF" points="340.768,230.546 339.759,229.964 338.68,230.591 339.688,231.173 340.768,230.546
									"/>
								<polyline fill="#FFFFFF" points="346.8,230.458 345.771,229.864 344.604,229.418 343.875,229.842 345.049,230.292
									342.359,231.854 341.408,231.306 340.666,231.737 343.59,233.426 344.332,232.994 343.381,232.444 346.8,230.458
									"/>
								<path fill="#FFFFFF" d="M346.376,234.343c-0.191-0.11-0.269-0.228-0.243-0.354c0.031-0.121,0.163-0.258,0.404-0.398
									c0.241-0.14,0.477-0.217,0.687-0.235c0.223-0.019,0.42,0.029,0.611,0.14c0.191,0.111,0.274,0.225,0.244,0.354
									c-0.024,0.125-0.165,0.258-0.405,0.397c-0.241,0.141-0.47,0.222-0.686,0.236
									C346.771,234.498,346.568,234.454,346.376,234.343 M350.247,232.367c-0.606-0.35-1.282-0.513-2.021-0.49
									c-0.737,0.029-1.462,0.243-2.147,0.642c-0.672,0.391-1.032,0.778-1.106,1.161c-0.068,0.387,0.176,0.733,0.719,1.047
									c0.498,0.288,1.021,0.436,1.58,0.45c0.561,0.015,1.069-0.11,1.513-0.369c0.406-0.235,0.602-0.498,0.587-0.793
									c-0.014-0.302-0.238-0.57-0.666-0.817c-0.166-0.096-0.345-0.178-0.542-0.232c-0.186-0.056-0.389-0.093-0.599-0.111
									c0.375-0.188,0.749-0.28,1.105-0.28s0.694,0.093,1.02,0.28c0.147,0.085,0.281,0.185,0.396,0.303
									c0.115,0.11,0.218,0.243,0.313,0.395l0.768-0.446c-0.115-0.14-0.249-0.27-0.403-0.387
									C350.611,232.592,350.438,232.479,350.247,232.367"/>
								<polyline fill="#FFFFFF" points="469.631,159.347 468.066,158.444 461.92,162.016 465.004,163.796 468.106,165.588
									469.654,164.688 468.109,163.796 469.645,162.904 468.105,162.016 469.635,161.128 468.096,160.239 469.631,159.347
																	"/>
								<polyline fill="#FFFFFF" points="254.688,299.618 253.131,298.719 250.055,300.507 246.991,302.287 253.171,305.855
									254.719,304.957 253.18,304.068 254.716,303.176 253.177,302.287 254.706,301.398 253.16,300.507 254.688,299.618
									"/>
								<polyline fill="#FFFFFF" points="120.297,222.757 118.739,221.857 115.663,223.646 112.599,225.426 118.779,228.994
									120.327,228.095 118.789,227.206 120.323,226.314 118.785,225.426 120.313,224.537 118.768,223.646 120.297,222.757
																	"/>
								<path fill="#FFFFFF" d="M165.206,238.324l-1.096-1.293l2.238,0.63L165.206,238.324 M169.504,237.616l-5.73-1.521
									l-1.282,0.744l2.647,3.314l1.079-0.627l-0.5-0.598l1.681-0.977l1.026,0.291L169.504,237.616"/>
								<polyline fill="#FFFFFF" points="172.828,235.685 172.081,235.254 171.129,235.807 167.688,233.82 166.667,234.413
									165.9,235.088 166.635,235.512 167.407,234.833 170.114,236.396 169.169,236.945 169.916,237.377 172.828,235.685
									"/>
								<polyline fill="#FFFFFF" points="174.521,234.701 173.436,234.074 172.427,234.66 173.512,235.287 174.521,234.701
									"/>
								<path fill="#FFFFFF" d="M174.063,232.533c-0.523-0.302-0.849-0.542-0.958-0.723c-0.121-0.181-0.065-0.339,0.169-0.476
									c0.229-0.133,0.503-0.166,0.814-0.096c0.312,0.062,0.727,0.251,1.25,0.553c0.53,0.306,0.855,0.546,0.972,0.73
									c0.122,0.18,0.065,0.339-0.163,0.472c-0.235,0.137-0.508,0.169-0.821,0.1C175.008,233.027,174.593,232.84,174.063,232.533
									 M176.423,231.169c-0.696-0.401-1.385-0.623-2.06-0.667c-0.675-0.044-1.278,0.092-1.824,0.409
									c-0.552,0.321-0.786,0.671-0.707,1.062c0.079,0.391,0.462,0.789,1.158,1.19c0.696,0.402,1.385,0.623,2.06,0.668
									c0.675,0.044,1.278-0.093,1.83-0.413c0.546-0.317,0.779-0.667,0.701-1.058S177.12,231.571,176.423,231.169"/>
								<polyline fill="#FFFFFF" points="182.082,230.307 181.335,229.875 180.568,230.321 180.384,230.428 176.943,228.441
									175.928,229.031 175.155,229.709 175.889,230.134 176.668,229.451 179.375,231.015 178.424,231.567 179.171,231.998
									181.314,230.753 182.082,230.307 								"/>
								<path fill="#FFFFFF" d="M182.098,228.479c-0.3-0.174-0.467-0.336-0.512-0.494c-0.046-0.159,0.042-0.299,0.251-0.42
									c0.216-0.126,0.457-0.178,0.725-0.147c0.267,0.021,0.554,0.121,0.854,0.294c0.3,0.174,0.473,0.34,0.512,0.494
									c0.051,0.155-0.037,0.295-0.252,0.421c-0.209,0.121-0.451,0.173-0.725,0.147
									C182.678,228.747,182.397,228.651,182.098,228.479 M184.451,227.11c-0.485-0.28-1.008-0.435-1.562-0.468
									c-0.554-0.033-1.024,0.062-1.405,0.283c-0.222,0.129-0.374,0.262-0.45,0.41c-0.082,0.15-0.1,0.316-0.048,0.501l-1.686-0.974
									l-1.002,0.583l4.367,2.521l1.002-0.583l-0.454-0.262c0.312,0.026,0.599,0.015,0.859-0.033
									c0.255-0.044,0.483-0.133,0.705-0.262c0.38-0.221,0.545-0.494,0.485-0.814C185.205,227.692,184.936,227.391,184.451,227.11"
									/>
							</g>
						</g>
					</g>
				</g>
			</g>
		</g>
	</g>


	<g>
		<polygon fill="#EC7404" stroke="#FFFFFF" stroke-width="0.5" points="312.837,-23.968 316.249,-23.968 314.68,-12.192 		"/>
		<circle fill="#EC7404" cx="314.543" cy="-33" r="9.731"/>
		<polygon fill="none" stroke="#FFFFFF" stroke-width="0.5" points="318.413,-35.826 314.543,-40.501 310.674,-35.826
			312.627,-35.826 312.627,-30.704 316.46,-30.704 316.46,-35.826 		"/>
		<text transform="matrix(1 0 0 1 312.875 -25.1201)" fill="#FFFFFF" font-family="'DejaVuSansCondensed-Bold'" font-size="5"></text>
	</g>
	<g>
		<polygon fill="#EC7404" stroke="#FFFFFF" stroke-width="0.5" points="338.409,-23.968 341.822,-23.968 340.252,-12.192 		"/>
		<circle fill="#EC7404" cx="340.116" cy="-33" r="9.731"/>
		<polygon fill="none" stroke="#FFFFFF" stroke-width="0.5" points="343.985,-35.826 340.115,-40.501 336.246,-35.826
			338.199,-35.826 338.199,-30.704 342.032,-30.704 342.032,-35.826 		"/>
		<rect x="338.429" y="-29.443" fill="none" width="8" height="3.833"/>
		<text transform="matrix(1 0 0 1 338.4287 -25.644)" fill="#FFFFFF" font-family="'DejaVuSansCondensed-Bold'" font-size="5">P</text>
	</g>
	<g>
		<polygon fill="#EC7404" stroke="#FFFFFF" stroke-width="0.5" points="363.981,-23.968 367.394,-23.968 365.824,-12.192 		"/>
		<circle fill="#EC7404" cx="365.688" cy="-33" r="9.731"/>
		<polygon fill="none" stroke="#FFFFFF" stroke-width="0.5" points="369.558,-35.826 365.688,-40.501 361.818,-35.826
			363.771,-35.826 363.771,-30.704 367.604,-30.704 367.604,-35.826 		"/>
		<rect x="360.819" y="-29.442" fill="none" width="8" height="3.833"/>
		<text transform="matrix(1 0 0 1 360.8193 -25.6431)" fill="#FFFFFF" font-family="'DejaVuSansCondensed-Bold'" font-size="5"> EC</text>
	</g>
	<g>
		<polygon fill="#EC7404" stroke="#FFFFFF" stroke-width="0.5" points="415.003,-23.991 418.417,-23.991 416.847,-12.215 		"/>
		<g>
			<circle fill="#EC7404" cx="416.71" cy="-33" r="9.731"/>
			<g>
				<g>
					<path fill="none" stroke="#FFFFFF" stroke-width="0.5" d="M421.197-29.081c0,0.312-0.255,0.567-0.567,0.567h-7.839
						c-0.312,0-0.567-0.255-0.567-0.567v-7.84c0-0.312,0.255-0.567,0.567-0.567h7.839c0.312,0,0.567,0.255,0.567,0.567V-29.081z"/>
				</g>
				<polygon fill="#FFFFFF" points="413.152,-32.975 415.846,-29.744 420.287,-36.475 415.608,-31.057 				"/>
			</g>
		</g>
	</g>
	<g>
		<polygon fill="#EC7404" stroke="#FFFFFF" stroke-width="0.5" points="440.863,-23.991 444.277,-23.991 442.707,-12.215 		"/>
		<circle fill="#EC7404" cx="442.571" cy="-33" r="9.731"/>
		<g>
			<g>
				<path fill="#EC7404" d="M446.946-31.146c0,0.312-0.255,0.567-0.567,0.567h-9.54c-0.312,0-0.567-0.255-0.567-0.567V-36.6
					c0-0.312,0.255-0.567,0.567-0.567h9.54c0.312,0,0.567,0.255,0.567,0.567V-31.146z"/>
				<path fill="none" stroke="#FFFFFF" stroke-width="0.5" d="M446.946-31.146c0,0.312-0.255,0.567-0.567,0.567h-9.54
					c-0.312,0-0.567-0.255-0.567-0.567V-36.6c0-0.312,0.255-0.567,0.567-0.567h9.54c0.312,0,0.567,0.255,0.567,0.567V-31.146z"/>
			</g>
			<g>
				<path fill="#EC7404" d="M448.87-29.223c0,0.312-0.255,0.567-0.567,0.567h-9.54c-0.312,0-0.567-0.255-0.567-0.567v-5.454
					c0-0.312,0.255-0.567,0.567-0.567h9.54c0.312,0,0.567,0.255,0.567,0.567V-29.223z"/>
				<path fill="none" stroke="#FFFFFF" stroke-width="0.5" d="M448.87-29.223c0,0.312-0.255,0.567-0.567,0.567h-9.54
					c-0.312,0-0.567-0.255-0.567-0.567v-5.454c0-0.312,0.255-0.567,0.567-0.567h9.54c0.312,0,0.567,0.255,0.567,0.567V-29.223z"/>
			</g>
		</g>
	</g>
	<g>
		<polygon fill="#EC7404" stroke="#FFFFFF" stroke-width="0.5" points="287.264,-23.968 290.677,-23.968 289.107,-12.192 		"/>
		<circle fill="#EC7404" cx="288.97" cy="-33" r="9.731"/>
		<g>
			<path fill="#FFFFFF" d="M285.842-31.311h6.294v-0.557h-6.294V-31.311z M285.842-29.615h6.294v-0.557h-6.294V-29.615z
				 M285.842-34.658h6.294v-0.558h-6.294V-34.658z M285.842-32.993h6.294v-0.557h-6.294V-32.993z M292.842-27.685h-7.744v-11.183
				h5.521v2.222h2.223V-27.685z M284.54-27.125 M291.178-38.797l1.594,1.592h-1.594V-38.797z M291.336-39.427h-6.796v12.301h8.86
				v-10.239L291.336-39.427z"/>
		</g>
	</g>
	<polygon fill="#EC7404" stroke="#FFFFFF" stroke-width="0.5" points="261.69,-23.968 265.104,-23.968 263.533,-12.192 	"/>
	<circle fill="#EC7404" cx="263.397" cy="-33.001" r="9.731"/>
	<path fill="#FFFFFF" d="M268.454-33.723c-0.002-0.272-0.025-0.522-0.083-0.758c-0.046-0.183-0.114-0.358-0.217-0.517
		c-0.152-0.24-0.387-0.429-0.656-0.535c-0.269-0.108-0.564-0.149-0.898-0.149c-0.295,0-0.563,0.033-0.811,0.114
		c-0.185,0.062-0.357,0.153-0.505,0.277c-0.223,0.186-0.377,0.438-0.463,0.709c-0.086,0.264-0.118,0.55-0.119,0.862l-0.569,4.806
		h1.198v2.099h0.97v-2.099h0.6v2.099h0.97v-2.099h1.204L268.454-33.723z"/>
	<path fill="#FFFFFF" d="M260.08-36.128c0.872,0,1.576-0.707,1.576-1.577c0-0.871-0.704-1.577-1.576-1.577
		c-0.87,0-1.575,0.706-1.576,1.577C258.505-36.834,259.21-36.128,260.08-36.128 M260.08-35.59c-1.305,0.001-2.36,1.057-2.36,2.361
		v2.469h1.092v3.943h0.969v-3.943h0.6v3.943h0.97v-3.943h1.091v-2.469C262.44-34.534,261.385-35.589,260.08-35.59"/>
	<polygon fill="#EC7404" stroke="#FFFFFF" stroke-width="0.5" points="474.327,-23.991 477.741,-23.991 476.171,-12.215 	"/>
	<circle fill="#EC7404" cx="476.035" cy="-33" r="9.731"/>
	<g>
		<g>
			<path fill="none" stroke="#FFFFFF" stroke-width="0.5" d="M480.521-27.206c0,0.312-0.255,0.567-0.566,0.567h-7.84
				c-0.312,0-0.567-0.255-0.567-0.567v-11.507c0-0.312,0.255-0.567,0.567-0.567h7.84c0.312,0,0.566,0.255,0.566,0.567V-27.206z"/>
		</g>
	</g>
	<path fill="#FFFFFF" d="M476.034-34.628c0.743,0,1.342-0.601,1.342-1.342s-0.599-1.342-1.342-1.342c-0.74,0-1.34,0.601-1.341,1.342
		C474.694-35.229,475.294-34.628,476.034-34.628 M476.034-34.17c-1.11,0-2.009,0.899-2.009,2.01v2.102h0.93v3.357h0.824v-3.357
		h0.511v3.357h0.825v-3.357h0.929v-2.102C478.044-33.271,477.146-34.17,476.034-34.17"/>
	<circle fill="#FFFFFF" cx="266.494" cy="-37.707" r="1.584"/>
	<g>
		<polygon fill="#EC7404" stroke="#FFFFFF" stroke-width="0.5" points="389.554,-23.968 392.967,-23.968 391.397,-12.192 		"/>
		<circle fill="#EC7404" cx="391.26" cy="-33" r="9.731"/>
		<text transform="matrix(1 0 0 1 389.5 -25.1201)" fill="#FFFFFF" font-family="'DejaVuSansCondensed-Bold'" font-size="5"></text>
		<polygon fill="none" stroke="#FFFFFF" stroke-width="0.5" points="387.342,-35.379 391.212,-30.704 395.081,-35.379
			393.128,-35.379 393.128,-40.501 389.295,-40.501 389.295,-35.379 		"/>
	</g>
	<g>
		<polygon fill="#EC7404" stroke="#FFFFFF" stroke-width="0.5" points="235.707,-24.926 239.12,-24.926 237.549,-13.151 		"/>
		<circle fill="#EC7404" cx="237.135" cy="-33.959" r="9.731"/>
		<g>
			<path fill="#FFFFFF" d="M237.551-31.461c-0.175,1.439-1.402,2.558-2.887,2.558c-1.606,0-2.91-1.305-2.91-2.91
				c0-0.9,0.411-1.709,1.057-2.243v-1.217c-1.233,0.663-2.073,1.965-2.073,3.46c0,2.164,1.762,3.926,3.927,3.926
				c1.641,0,3.05-1.014,3.635-2.449L237.551-31.461z"/>
			<path fill="#FFFFFF" d="M241.225-30.738l-0.811,0.56l-2.081-3.488l-3.998,0.025v-0.829h2.116v-0.889h-2.116v-2.055
				c0.495-0.188,0.846-0.664,0.846-1.225c0-0.725-0.587-1.313-1.311-1.313c-0.725,0-1.313,0.589-1.313,1.313
				c0,0.576,0.373,1.064,0.889,1.24v4.621l4.394,0.005l2.276,3.813l1.593-1.033L241.225-30.738z"/>
			<polygon fill="#FFFFFF" points="236.309,-39.381 237.094,-39.381 237.641,-37.076 238.185,-39.381 238.973,-39.381
				239.519,-37.076 240.065,-39.381 240.843,-39.381 240.095,-36.208 239.152,-36.208 238.577,-38.621 238.007,-36.208
				237.063,-36.208 			"/>
			<path fill="#FFFFFF" d="M243.532-36.382c-0.149,0.077-0.308,0.135-0.471,0.176c-0.162,0.04-0.332,0.06-0.51,0.06
				c-0.528,0-0.946-0.148-1.254-0.443c-0.31-0.295-0.464-0.695-0.464-1.201c0-0.507,0.154-0.909,0.464-1.204
				c0.308-0.295,0.726-0.442,1.254-0.442c0.178,0,0.348,0.02,0.51,0.059c0.163,0.039,0.321,0.1,0.471,0.178v0.655
				c-0.151-0.104-0.302-0.179-0.448-0.228c-0.148-0.048-0.303-0.072-0.465-0.072c-0.293,0-0.521,0.094-0.689,0.281
				s-0.251,0.444-0.251,0.773c0,0.327,0.083,0.585,0.251,0.771s0.396,0.279,0.689,0.279c0.162,0,0.316-0.023,0.465-0.072
				c0.146-0.048,0.297-0.123,0.448-0.227V-36.382z"/>
		</g>
	</g>
</g>
</svg>
