<?xml version="1.0" encoding="utf-8"?>
<!-- Generator: Adobe Illustrator 16.0.0, SVG Export Plug-In . SVG Version: 6.00 Build 0)  -->
<!DOCTYPE svg PUBLIC "-//W3C//DTD SVG 1.1//EN" "http://www.w3.org/Graphics/SVG/1.1/DTD/svg11.dtd">
<svg version="1.1" id="Ebene_1" xmlns="http://www.w3.org/2000/svg" xmlns:xlink="http://www.w3.org/1999/xlink" x="0px" y="0px"
	 width="595.275px" height="419.527px" viewBox="0 0 595.275 419.527" enable-background="new 0 0 595.275 419.527"
	 xml:space="preserve">
<polygon fill="#FFFFFF" points="319.666,-239.695 314.809,-239.695 314.809,-242.141 317.223,-242.141 317.223,-244.553
	319.637,-244.553 319.637,-246.967 322.052,-246.967 322.052,-249.381 324.494,-249.381 324.494,-239.695 "/>
<g>
	<path fill="#FFFFFF" d="M348.96-247.213c-0.003-0.365-0.036-0.702-0.118-1.02c-0.066-0.246-0.161-0.48-0.309-0.694
		c-0.217-0.322-0.555-0.576-0.938-0.719c-0.386-0.146-0.809-0.2-1.287-0.201c-0.423,0-0.805,0.044-1.158,0.153
		c-0.268,0.083-0.514,0.205-0.724,0.372c-0.319,0.25-0.541,0.588-0.665,0.953c-0.121,0.355-0.166,0.738-0.17,1.158l-0.812,6.458
		h1.715v2.822h1.385v-2.822h0.86v2.822h1.386v-2.822h1.723L348.96-247.213z M344.427-251.066v0.609V-251.066z M348.191-251.066
		v0.609V-251.066z M344.427-249.764c0.408,0,0.738-0.311,0.738-0.693c0-0.122-0.036-0.239-0.097-0.339
		c0.358,0.221,0.781,0.349,1.24,0.349c0.457,0,0.883-0.128,1.239-0.348c-0.059,0.1-0.095,0.216-0.095,0.338
		c0,0.383,0.33,0.693,0.738,0.693c0.406,0,0.739-0.311,0.739-0.693c0-0.384-0.333-0.692-0.739-0.692
		c-0.085,0-0.166,0.014-0.243,0.04c0.383-0.38,0.618-0.893,0.618-1.456c-0.003-1.172-1.011-2.119-2.258-2.119
		c-1.245,0-2.253,0.947-2.253,2.119c0,0.563,0.234,1.076,0.617,1.457c-0.077-0.026-0.161-0.041-0.246-0.041
		c-0.404,0-0.735,0.309-0.735,0.692C343.691-250.074,344.022-249.764,344.427-249.764"/>
	<g>
		<path fill="#FFFFFF" d="M338.412-250.445c1.246,0,2.254-0.95,2.254-2.12c0-1.171-1.008-2.119-2.254-2.119
			s-2.254,0.948-2.254,2.119C336.158-251.396,337.166-250.445,338.412-250.445 M338.412-249.723
			c-1.867,0.001-3.375,1.42-3.375,3.173v3.32h1.559v5.301h1.387v-5.301h0.859v5.301h1.386v-5.301h1.562v-3.32
			C341.79-248.303,340.279-249.722,338.412-249.723"/>
	</g>
</g>
<g enable-background="new    ">
	<g>
		<polygon fill="#EC7404" points="295.225,261.728 297.068,262.792 330.541,282.111 347.81,272.076 312.5,251.689 		"/>
		<g>
			<defs>
				<polygon id="SVGID_1_" points="189.351,200.602 336.451,115.117 477.635,196.629 330.535,282.115 				"/>
			</defs>
			<clipPath id="SVGID_2_">
				<use xlink:href="#SVGID_1_"  overflow="visible"/>
			</clipPath>
			<path clip-path="url(#SVGID_2_)" id="E3.06" fill="#BED5E5" d="M371.402,237.794c-0.528-0.305-0.941-0.49-1.251-0.557
				c-0.315-0.063-0.585-0.033-0.819,0.102c-0.229,0.134-0.283,0.293-0.168,0.473c0.115,0.179,0.432,0.42,0.959,0.727
				c0.529,0.305,0.955,0.49,1.264,0.557c0.316,0.07,0.592,0.037,0.82-0.096c0.232-0.137,0.284-0.293,0.162-0.475
				C372.26,238.342,371.932,238.1,371.402,237.794 M375.861,236.089c-0.248-0.143-0.477-0.223-0.695-0.234
				c-0.213-0.018-0.418,0.029-0.605,0.139c-0.188,0.109-0.268,0.229-0.24,0.352c0.025,0.125,0.163,0.258,0.41,0.401
				c0.247,0.142,0.471,0.219,0.694,0.235c0.213,0.017,0.417-0.029,0.606-0.14c0.188-0.108,0.27-0.229,0.237-0.352
				C376.24,236.361,376.109,236.232,375.861,236.089 M361.512,243.916l0.96,0.555l1.884-1.096l0.816,0.472l-2.957,1.72l-4.189-2.42
				l2.9-1.686l0.815,0.472l-1.827,1.062l0.781,0.451l1.719-0.998l0.816,0.471L361.512,243.916 M365.705,240.92
				c0.354-0.126,0.697-0.173,1.019-0.153c0.327,0.018,0.63,0.105,0.913,0.27c0.412,0.238,0.568,0.514,0.475,0.822
				c-0.109,0.309-0.455,0.637-1.061,0.988c-0.217,0.127-0.445,0.238-0.697,0.346c-0.25,0.105-0.514,0.199-0.795,0.281l-0.834-0.48
				c0.305-0.063,0.584-0.133,0.83-0.217c0.252-0.086,0.469-0.186,0.658-0.295c0.285-0.166,0.449-0.321,0.506-0.467
				c0.057-0.146-0.013-0.271-0.197-0.379c-0.189-0.109-0.413-0.146-0.664-0.112c-0.258,0.029-0.533,0.136-0.836,0.312l-0.433,0.252
				l-0.695-0.4l0.457-0.266c0.269-0.156,0.422-0.299,0.474-0.422c0.043-0.126-0.02-0.242-0.192-0.342
				c-0.159-0.092-0.35-0.129-0.567-0.104c-0.211,0.024-0.439,0.104-0.674,0.24c-0.172,0.099-0.33,0.212-0.469,0.338
				c-0.136,0.127-0.257,0.263-0.347,0.408l-0.792-0.459c0.146-0.158,0.317-0.305,0.49-0.443c0.176-0.135,0.369-0.262,0.576-0.381
				c0.536-0.312,1.027-0.499,1.474-0.552s0.854,0.022,1.216,0.231c0.242,0.141,0.375,0.296,0.403,0.459
				C365.978,240.562,365.893,240.738,365.705,240.92 M368.486,240.662l1.004-0.584l1.086,0.627l-1.003,0.585L368.486,240.662
				 M369.057,239.166c-0.695-0.402-1.082-0.797-1.163-1.188c-0.083-0.392,0.157-0.743,0.705-1.062s1.151-0.457,1.831-0.412
				c0.674,0.047,1.356,0.27,2.053,0.671c0.694,0.403,1.081,0.796,1.164,1.188c0.075,0.389-0.156,0.743-0.705,1.062
				c-0.548,0.319-1.16,0.455-1.83,0.412C370.435,239.789,369.752,239.566,369.057,239.166 M373.451,236.154
				c0.033-0.127,0.096-0.243,0.191-0.354c0.098-0.108,0.229-0.211,0.4-0.312c0.428-0.249,0.896-0.374,1.399-0.382
				c0.517-0.007,0.976,0.107,1.384,0.342c0.447,0.259,0.66,0.548,0.635,0.876c-0.021,0.325-0.271,0.631-0.763,0.915
				c-0.542,0.316-1.144,0.452-1.808,0.414c-0.664-0.041-1.336-0.257-2.01-0.646c-0.693-0.401-1.062-0.813-1.11-1.243
				c-0.05-0.432,0.229-0.82,0.835-1.172c0.189-0.109,0.388-0.212,0.594-0.299c0.219-0.086,0.435-0.166,0.674-0.232l0.777,0.448
				c-0.264,0.053-0.492,0.112-0.688,0.181c-0.201,0.068-0.364,0.145-0.514,0.23c-0.32,0.186-0.483,0.382-0.483,0.588
				C372.967,235.714,373.127,235.933,373.451,236.154 M419.335,230.509l-35.31-20.387l-67.655,39.316l35.31,20.387L419.335,230.509"
				/>
			<path clip-path="url(#SVGID_2_)" id="E2.07" fill="#BFBFBF" d="M350.416,184.527c-0.523-0.301-0.937-0.487-1.246-0.553
				c-0.315-0.069-0.585-0.033-0.813,0.1c-0.233,0.135-0.296,0.291-0.175,0.474c0.115,0.179,0.434,0.421,0.955,0.723
				c0.529,0.306,0.953,0.491,1.27,0.561c0.314,0.07,0.59,0.037,0.823-0.101c0.229-0.132,0.278-0.288,0.165-0.473
				C351.272,185.075,350.943,184.833,350.416,184.527 M340.523,190.648l0.961,0.554l1.883-1.094l0.816,0.471l-2.957,1.718
				l-4.183-2.415l2.899-1.686l0.816,0.471l-1.827,1.062l0.776,0.448l1.719-0.999l0.814,0.471L340.523,190.648 M344.723,187.65
				c0.354-0.12,0.691-0.17,1.024-0.149c0.321,0.019,0.624,0.109,0.901,0.268c0.418,0.243,0.576,0.518,0.475,0.823
				c-0.097,0.309-0.449,0.64-1.055,0.992c-0.217,0.126-0.445,0.239-0.697,0.345c-0.246,0.103-0.515,0.199-0.789,0.28l-0.838-0.485
				c0.303-0.056,0.577-0.129,0.822-0.213c0.254-0.086,0.475-0.182,0.67-0.295c0.285-0.167,0.449-0.322,0.501-0.464
				c0.056-0.146-0.013-0.272-0.196-0.378c-0.195-0.113-0.419-0.149-0.672-0.117c-0.252,0.033-0.525,0.14-0.828,0.315l-0.428,0.25
				l-0.701-0.405l0.45-0.263c0.269-0.155,0.429-0.295,0.474-0.42c0.045-0.126-0.014-0.24-0.186-0.338
				c-0.16-0.094-0.35-0.13-0.567-0.104c-0.218,0.021-0.441,0.104-0.675,0.239c-0.171,0.099-0.33,0.212-0.468,0.338
				c-0.136,0.125-0.257,0.262-0.353,0.404l-0.787-0.455c0.147-0.159,0.313-0.308,0.489-0.444c0.183-0.139,0.372-0.268,0.571-0.384
				c0.536-0.313,1.034-0.494,1.48-0.548c0.445-0.053,0.854,0.023,1.21,0.229c0.247,0.143,0.386,0.295,0.409,0.462
				C344.99,187.295,344.911,187.467,344.723,187.65 M347.506,187.391l0.998-0.58l1.086,0.626l-0.999,0.58L347.506,187.391
				 M348.075,185.9c-0.696-0.4-1.087-0.799-1.163-1.187c-0.077-0.394,0.156-0.75,0.704-1.068c0.542-0.315,1.153-0.451,1.83-0.405
				c0.669,0.043,1.364,0.266,2.06,0.667c0.695,0.401,1.076,0.8,1.154,1.188c0.08,0.392-0.152,0.746-0.694,1.062
				c-0.548,0.318-1.16,0.454-1.843,0.411C349.453,186.525,348.771,186.303,348.075,185.9 M349.775,182.484l3.133-1.821l0.604,0.349
				l1.959,3.009l-1.045,0.606l-1.855-2.85l-2.002,1.164L349.775,182.484 M379.121,188.502l-31.46-18.164l-27.693,16.094
				l31.46,18.164L379.121,188.502"/>
			<path clip-path="url(#SVGID_2_)" id="E2.05" fill="#BFBFBF" d="M329.759,202.21c-0.229-0.132-0.499-0.169-0.813-0.1
				c-0.309,0.067-0.727,0.25-1.245,0.551c-0.525,0.306-0.845,0.551-0.965,0.733c-0.12,0.183-0.061,0.342,0.169,0.475
				c0.23,0.133,0.504,0.166,0.82,0.097c0.314-0.07,0.736-0.256,1.261-0.561c0.521-0.303,0.841-0.542,0.948-0.724
				C330.053,202.499,329.994,202.345,329.759,202.21 M322.949,202.333l1.079-0.627l1.011,0.583l-1.08,0.628L322.949,202.333
				 M315.543,198.057l4.156-2.416l2.912,1.682l-0.811,0.472l-1.832-1.058l-0.771,0.447l1.723,0.995l-0.809,0.472l-1.725-0.996
				l-0.953,0.555l1.896,1.094l-0.811,0.471L315.543,198.057 M330.396,204.529l2.34-1.36l2.684,1.549l-0.787,0.458l-1.822-1.051
				l-0.641,0.371c0.104,0.034,0.197,0.074,0.299,0.114c0.093,0.04,0.186,0.086,0.276,0.139c0.512,0.295,0.776,0.601,0.812,0.912
				c0.032,0.309-0.178,0.598-0.636,0.863c-0.452,0.262-0.954,0.375-1.521,0.345c-0.562-0.033-1.124-0.206-1.67-0.521
				c-0.242-0.141-0.453-0.29-0.639-0.448c-0.189-0.162-0.352-0.335-0.484-0.524l0.846-0.491c0.098,0.209,0.215,0.389,0.352,0.547
				c0.146,0.156,0.301,0.286,0.484,0.391c0.259,0.149,0.527,0.233,0.814,0.246c0.275,0.013,0.52-0.043,0.737-0.169
				c0.222-0.129,0.319-0.271,0.296-0.431c-0.029-0.163-0.174-0.319-0.432-0.468c-0.156-0.089-0.34-0.176-0.558-0.256
				C330.935,204.669,330.684,204.595,330.396,204.529 M322.492,198.279l0.781-0.455c0.275,0.086,0.527,0.179,0.77,0.285
				c0.234,0.103,0.459,0.212,0.66,0.329c0.546,0.315,0.863,0.604,0.955,0.863c0.094,0.259-0.037,0.493-0.391,0.7
				c-0.245,0.143-0.514,0.219-0.795,0.236c-0.286,0.013-0.585-0.034-0.9-0.143c0.208,0.206,0.301,0.404,0.263,0.593
				c-0.03,0.189-0.183,0.366-0.457,0.525c-0.417,0.242-0.892,0.331-1.419,0.271c-0.539-0.06-1.107-0.262-1.721-0.617
				c-0.213-0.123-0.414-0.259-0.592-0.401c-0.186-0.146-0.347-0.298-0.49-0.461l0.827-0.481c0.105,0.172,0.231,0.332,0.382,0.478
				c0.148,0.146,0.316,0.275,0.505,0.384c0.288,0.166,0.558,0.263,0.81,0.296c0.246,0.03,0.469-0.007,0.652-0.113
				c0.188-0.109,0.256-0.242,0.199-0.388c-0.059-0.146-0.243-0.305-0.547-0.481l-0.437-0.251l0.695-0.405l0.454,0.262
				c0.276,0.16,0.518,0.252,0.734,0.278c0.219,0.027,0.412-0.006,0.584-0.106c0.16-0.092,0.217-0.206,0.176-0.328
				c-0.04-0.129-0.18-0.256-0.414-0.392c-0.179-0.103-0.367-0.192-0.586-0.271C322.974,198.405,322.738,198.335,322.492,198.279
				 M326.173,204.293c-0.55-0.318-0.788-0.674-0.71-1.064c0.072-0.389,0.454-0.784,1.145-1.185c0.69-0.401,1.377-0.626,2.047-0.669
				c0.676-0.047,1.29,0.088,1.841,0.407c0.552,0.319,0.788,0.674,0.71,1.066c-0.072,0.388-0.459,0.786-1.149,1.188
				c-0.69,0.402-1.371,0.623-2.042,0.667C327.338,204.749,326.725,204.613,326.173,204.293 M347.654,206.789l-31.461-18.165
				l-12.719,7.393l31.461,18.164L347.654,206.789"/>
			<path clip-path="url(#SVGID_2_)" id="E2.01" fill="#BED5E5" d="M293.544,169.861c-0.523-0.302-0.936-0.488-1.251-0.557
				c-0.311-0.067-0.579-0.031-0.808,0.102c-0.234,0.136-0.296,0.292-0.18,0.471c0.121,0.183,0.437,0.424,0.959,0.726
				c0.529,0.306,0.954,0.491,1.27,0.561c0.315,0.07,0.589,0.037,0.823-0.099c0.229-0.132,0.28-0.289,0.158-0.472
				C294.401,170.408,294.073,170.166,293.544,169.861 M283.653,175.982l0.959,0.554l1.883-1.095l0.817,0.471l-2.958,1.719
				l-4.188-2.418l2.899-1.686l0.816,0.471l-1.827,1.062l0.781,0.451l1.719-0.998l0.815,0.471L283.653,175.982 M287.846,172.986
				c0.36-0.122,0.698-0.173,1.023-0.156c0.328,0.022,0.632,0.113,0.907,0.272c0.414,0.238,0.57,0.515,0.476,0.822
				c-0.096,0.309-0.456,0.637-1.062,0.989c-0.216,0.126-0.445,0.239-0.696,0.345c-0.245,0.102-0.514,0.198-0.789,0.278l-0.833-0.481
				c0.304-0.056,0.578-0.129,0.823-0.212c0.252-0.086,0.475-0.183,0.669-0.296c0.285-0.166,0.445-0.318,0.501-0.463
				c0.05-0.149-0.013-0.273-0.203-0.382c-0.189-0.109-0.413-0.146-0.665-0.113s-0.532,0.136-0.834,0.312l-0.428,0.249l-0.696-0.401
				l0.451-0.263c0.269-0.155,0.428-0.295,0.474-0.421c0.045-0.125-0.013-0.238-0.192-0.342c-0.161-0.093-0.343-0.125-0.567-0.102
				c-0.212,0.022-0.436,0.106-0.669,0.242c-0.171,0.099-0.331,0.212-0.468,0.338c-0.136,0.126-0.255,0.262-0.352,0.404l-0.792-0.457
				c0.154-0.157,0.318-0.305,0.495-0.441c0.183-0.14,0.371-0.269,0.57-0.385c0.538-0.312,1.034-0.494,1.48-0.547
				c0.448-0.053,0.854,0.022,1.211,0.229c0.248,0.144,0.384,0.295,0.408,0.462C288.119,172.627,288.04,172.799,287.846,172.986
				 M290.628,172.727l1.005-0.584l1.085,0.628l-1.004,0.583L290.628,172.727 M291.204,171.234c-0.702-0.405-1.087-0.8-1.17-1.192
				c-0.076-0.387,0.157-0.742,0.71-1.064c0.542-0.315,1.155-0.451,1.825-0.408c0.676,0.046,1.359,0.268,2.061,0.673
				c0.689,0.398,1.074,0.793,1.157,1.185c0.083,0.392-0.155,0.744-0.698,1.058c-0.555,0.323-1.16,0.462-1.836,0.415
				S291.894,171.632,291.204,171.234 M293.362,167.778l0.763-0.677l1.022-0.594l3.441,1.987l0.948-0.551l0.746,0.431l-2.911,1.692
				l-0.747-0.431l0.947-0.551l-2.706-1.562l-0.77,0.679L293.362,167.778 M385.487,143.429l-49.036-28.312l-62.038,36.053
				l-85.062,49.432l16.003,9.239l33.04,19.07l85.055-49.43l10.448-6.071L385.487,143.429"/>
			<path clip-path="url(#SVGID_2_)" id="E2.02" fill="#BFBFBF" d="M395.199,159.975c-0.524-0.303-0.937-0.488-1.252-0.558
				c-0.312-0.066-0.585-0.034-0.813,0.1c-0.233,0.136-0.29,0.295-0.176,0.475c0.123,0.182,0.438,0.424,0.962,0.726
				c0.527,0.306,0.953,0.492,1.27,0.561c0.314,0.07,0.584,0.033,0.818-0.103c0.229-0.132,0.283-0.285,0.162-0.468
				C396.055,160.521,395.727,160.279,395.199,159.975 M385.307,166.095l0.961,0.554l1.883-1.095l0.816,0.471l-2.958,1.719
				l-4.188-2.419l2.902-1.685l0.812,0.471l-1.824,1.062l0.779,0.451l1.718-0.998l0.817,0.471L385.307,166.095 M389.505,163.095
				c0.354-0.119,0.692-0.169,1.019-0.152c0.326,0.022,0.631,0.112,0.908,0.272c0.413,0.238,0.569,0.514,0.473,0.823
				c-0.1,0.305-0.454,0.637-1.059,0.989c-0.217,0.126-0.445,0.239-0.697,0.345c-0.246,0.103-0.514,0.199-0.79,0.279l-0.833-0.482
				c0.304-0.056,0.578-0.128,0.824-0.212c0.252-0.086,0.469-0.186,0.664-0.298c0.285-0.167,0.457-0.319,0.5-0.465
				c0.059-0.146-0.013-0.273-0.197-0.379c-0.189-0.109-0.412-0.146-0.664-0.112c-0.253,0.033-0.531,0.136-0.834,0.311l-0.429,0.25
				l-0.695-0.401l0.452-0.262c0.266-0.156,0.427-0.296,0.473-0.421c0.045-0.126-0.02-0.243-0.191-0.342
				c-0.161-0.093-0.346-0.126-0.568-0.103c-0.211,0.022-0.439,0.103-0.675,0.239c-0.171,0.1-0.324,0.215-0.462,0.342
				c-0.143,0.123-0.256,0.262-0.352,0.404l-0.793-0.458c0.152-0.156,0.318-0.305,0.496-0.44c0.182-0.141,0.369-0.27,0.57-0.386
				c0.535-0.312,1.027-0.497,1.479-0.547c0.447-0.053,0.854,0.022,1.213,0.229c0.246,0.143,0.377,0.292,0.408,0.461
				C389.771,162.741,389.693,162.913,389.505,163.095 M392.282,162.84l1.005-0.583l1.086,0.627l-1.004,0.583L392.282,162.84
				 M392.853,161.344c-0.694-0.402-1.081-0.797-1.165-1.188c-0.068-0.391,0.163-0.746,0.711-1.064
				c0.543-0.315,1.152-0.451,1.824-0.408c0.678,0.046,1.359,0.268,2.055,0.67c0.695,0.401,1.082,0.796,1.165,1.188
				c0.075,0.388-0.157,0.743-0.7,1.059c-0.548,0.318-1.16,0.454-1.838,0.414C394.23,161.968,393.547,161.746,392.853,161.344
				 M399.209,159.154l1.834-1.065l0.791,0.458l-3.025,1.757l-0.794-0.458l0.171-1.661c0.015-0.149-0.002-0.279-0.061-0.385
				c-0.053-0.103-0.146-0.195-0.271-0.268c-0.194-0.113-0.419-0.169-0.667-0.16c-0.252,0.007-0.491,0.074-0.709,0.2
				c-0.164,0.096-0.307,0.226-0.438,0.381c-0.125,0.159-0.233,0.341-0.318,0.558l-0.918-0.532c0.164-0.189,0.335-0.361,0.535-0.523
				c0.193-0.159,0.404-0.309,0.627-0.438c0.502-0.291,0.992-0.451,1.498-0.484c0.492-0.033,0.939,0.066,1.331,0.292
				c0.229,0.133,0.384,0.289,0.46,0.472c0.088,0.182,0.105,0.477,0.057,0.885L399.209,159.154 M421.203,164.048l-31.461-18.164
				l-26.01,15.115l31.46,18.164L421.203,164.048"/>
			<polygon clip-path="url(#SVGID_2_)" fill="#BFBFBF" points="438.688,174.143 425.392,166.466 394.728,184.285 359.078,163.703
				352.312,167.634 387.963,188.217 335.437,218.742 299.787,198.16 242.642,231.369 291.559,259.606 			"/>
			<polygon clip-path="url(#SVGID_2_)" fill="#FFFFFF" points="287.313,175.912 286.496,175.441 284.613,176.536 283.653,175.982
				285.371,174.983 284.556,174.512 282.837,175.511 282.056,175.06 283.883,173.998 283.066,173.527 280.167,175.213
				284.355,177.631 			"/>
			<path clip-path="url(#SVGID_2_)" fill="#FFFFFF" d="M289.777,173.102c-0.275-0.159-0.581-0.248-0.907-0.272
				c-0.326-0.016-0.664,0.034-1.024,0.157c0.194-0.187,0.274-0.359,0.244-0.521c-0.024-0.167-0.162-0.318-0.41-0.462
				c-0.356-0.205-0.763-0.282-1.209-0.229s-0.944,0.236-1.48,0.547c-0.2,0.116-0.388,0.246-0.571,0.385
				c-0.176,0.136-0.342,0.284-0.495,0.441l0.792,0.458c0.097-0.143,0.217-0.279,0.353-0.405c0.137-0.126,0.297-0.238,0.468-0.338
				c0.233-0.136,0.457-0.219,0.668-0.242c0.223-0.023,0.407,0.01,0.568,0.103c0.178,0.104,0.236,0.216,0.191,0.341
				c-0.045,0.127-0.205,0.266-0.473,0.422l-0.451,0.262l0.696,0.403l0.428-0.25c0.303-0.177,0.583-0.278,0.834-0.312
				c0.252-0.033,0.475,0.004,0.665,0.113c0.19,0.111,0.253,0.233,0.202,0.382c-0.057,0.146-0.216,0.298-0.501,0.463
				c-0.195,0.113-0.417,0.21-0.669,0.296c-0.245,0.083-0.521,0.155-0.823,0.211l0.833,0.481c0.275-0.079,0.543-0.176,0.789-0.279
				c0.251-0.106,0.479-0.219,0.696-0.345c0.605-0.351,0.965-0.681,1.06-0.988C290.347,173.616,290.191,173.341,289.777,173.102"/>
			<polygon clip-path="url(#SVGID_2_)" fill="#FFFFFF" points="292.719,172.771 291.633,172.143 290.629,172.728 291.715,173.354
							"/>
			<path clip-path="url(#SVGID_2_)" fill="#FFFFFF" d="M292.266,170.604c-0.523-0.302-0.839-0.543-0.96-0.726
				c-0.117-0.179-0.054-0.335,0.18-0.471c0.229-0.133,0.498-0.169,0.807-0.104c0.315,0.07,0.729,0.256,1.251,0.558
				c0.529,0.305,0.857,0.547,0.973,0.732c0.122,0.183,0.07,0.338-0.159,0.472c-0.233,0.136-0.508,0.169-0.823,0.099
				C293.22,171.095,292.794,170.91,292.266,170.604 M294.63,169.244c-0.701-0.405-1.384-0.627-2.061-0.674
				c-0.67-0.042-1.282,0.093-1.825,0.409c-0.554,0.322-0.787,0.677-0.709,1.064c0.082,0.391,0.468,0.787,1.169,1.191
				c0.689,0.398,1.373,0.62,2.048,0.667c0.676,0.046,1.283-0.092,1.836-0.415c0.543-0.315,0.781-0.667,0.699-1.059
				C295.704,170.037,295.319,169.642,294.63,169.244"/>
			<polygon clip-path="url(#SVGID_2_)" fill="#FFFFFF" points="300.283,168.375 299.537,167.943 298.59,168.494 295.146,166.507
				294.125,167.101 293.362,167.777 294.096,168.202 294.866,167.522 297.573,169.084 296.625,169.635 297.373,170.066 			"/>
			<polygon clip-path="url(#SVGID_2_)" fill="#FFFFFF" points="388.967,166.025 388.15,165.555 386.266,166.649 385.307,166.096
				387.025,165.097 386.209,164.625 384.49,165.624 383.709,165.173 385.535,164.111 384.721,163.64 381.82,165.325 386.01,167.744
							"/>
			<path clip-path="url(#SVGID_2_)" fill="#FFFFFF" d="M391.432,163.215c-0.277-0.159-0.582-0.249-0.908-0.271
				c-0.326-0.017-0.664,0.032-1.019,0.152c0.188-0.183,0.267-0.354,0.239-0.518c-0.031-0.169-0.162-0.318-0.408-0.46
				c-0.358-0.207-0.766-0.283-1.213-0.23c-0.451,0.051-0.943,0.236-1.479,0.548c-0.201,0.117-0.389,0.246-0.57,0.386
				c-0.178,0.135-0.344,0.284-0.497,0.441l0.794,0.457c0.096-0.142,0.209-0.282,0.354-0.405c0.136-0.126,0.289-0.242,0.46-0.341
				c0.235-0.136,0.464-0.216,0.675-0.239c0.223-0.023,0.407,0.011,0.568,0.104c0.172,0.099,0.236,0.215,0.191,0.341
				c-0.046,0.126-0.207,0.266-0.473,0.422l-0.452,0.262l0.695,0.401l0.429-0.249c0.303-0.176,0.581-0.278,0.834-0.312
				c0.252-0.033,0.475,0.002,0.664,0.112c0.185,0.106,0.256,0.232,0.197,0.378c-0.043,0.147-0.215,0.299-0.5,0.466
				c-0.195,0.112-0.412,0.211-0.664,0.298c-0.246,0.083-0.521,0.155-0.824,0.212l0.833,0.482c0.276-0.08,0.544-0.176,0.79-0.279
				c0.252-0.106,0.48-0.22,0.697-0.344c0.604-0.352,0.957-0.685,1.059-0.989C392.001,163.729,391.845,163.454,391.432,163.215"/>
			<polygon clip-path="url(#SVGID_2_)" fill="#FFFFFF" points="394.373,162.884 393.287,162.256 392.282,162.84 393.369,163.468
				"/>
			<path clip-path="url(#SVGID_2_)" fill="#FFFFFF" d="M393.92,160.717c-0.523-0.302-0.84-0.544-0.962-0.727
				c-0.113-0.179-0.059-0.338,0.176-0.474c0.229-0.133,0.502-0.166,0.813-0.1c0.315,0.069,0.729,0.255,1.252,0.557
				c0.528,0.306,0.855,0.548,0.973,0.733c0.12,0.183,0.062,0.335-0.166,0.468c-0.232,0.136-0.502,0.173-0.816,0.103
				C394.873,161.208,394.447,161.022,393.92,160.717 M396.277,159.354c-0.695-0.401-1.377-0.624-2.053-0.671
				c-0.672-0.042-1.285,0.094-1.826,0.409c-0.548,0.319-0.781,0.673-0.711,1.065c0.084,0.392,0.471,0.787,1.164,1.188
				c0.695,0.401,1.379,0.624,2.055,0.669c0.676,0.041,1.287-0.095,1.838-0.414c0.541-0.315,0.773-0.671,0.698-1.06
				C397.359,160.15,396.973,159.755,396.277,159.354"/>
			<path clip-path="url(#SVGID_2_)" fill="#FFFFFF" d="M401.834,158.547l-0.793-0.458l-1.832,1.064l0.102-0.972
				c0.051-0.408,0.031-0.704-0.055-0.886c-0.076-0.183-0.23-0.338-0.461-0.472c-0.393-0.225-0.838-0.324-1.33-0.291
				c-0.506,0.033-0.997,0.192-1.499,0.485c-0.222,0.128-0.433,0.278-0.628,0.438c-0.198,0.163-0.371,0.335-0.535,0.524l0.92,0.53
				c0.085-0.215,0.193-0.398,0.316-0.558c0.133-0.155,0.275-0.285,0.441-0.381c0.216-0.126,0.455-0.192,0.708-0.199
				c0.246-0.01,0.47,0.047,0.665,0.159c0.127,0.073,0.219,0.166,0.271,0.268c0.057,0.106,0.075,0.236,0.059,0.386l-0.168,1.662
				l0.793,0.458L401.834,158.547"/>
			<polygon clip-path="url(#SVGID_2_)" fill="#FFFFFF" points="344.184,190.579 343.367,190.108 341.483,191.202 340.524,190.648
				342.242,189.65 341.428,189.179 339.708,190.178 338.933,189.729 340.76,188.667 339.943,188.196 337.043,189.882
				341.227,192.297 			"/>
			<path clip-path="url(#SVGID_2_)" fill="#FFFFFF" d="M346.648,187.769c-0.277-0.159-0.58-0.249-0.9-0.268
				c-0.332-0.021-0.672,0.03-1.025,0.149c0.188-0.183,0.268-0.355,0.238-0.518c-0.023-0.167-0.162-0.318-0.41-0.461
				c-0.355-0.206-0.764-0.282-1.209-0.229c-0.447,0.053-0.943,0.236-1.48,0.547c-0.201,0.116-0.389,0.246-0.571,0.385
				c-0.176,0.136-0.341,0.286-0.489,0.444l0.786,0.455c0.098-0.143,0.216-0.279,0.354-0.404c0.137-0.126,0.296-0.239,0.467-0.338
				c0.233-0.136,0.457-0.219,0.675-0.239c0.218-0.026,0.405,0.009,0.567,0.103c0.172,0.099,0.23,0.213,0.186,0.338
				s-0.205,0.266-0.473,0.421l-0.451,0.263l0.699,0.404l0.43-0.249c0.303-0.176,0.576-0.282,0.828-0.315
				c0.252-0.033,0.477,0.003,0.672,0.117c0.184,0.105,0.252,0.232,0.196,0.378c-0.05,0.143-0.216,0.298-0.501,0.464
				c-0.195,0.113-0.418,0.209-0.67,0.295c-0.244,0.083-0.52,0.157-0.823,0.213l0.839,0.484c0.274-0.08,0.543-0.176,0.789-0.279
				c0.252-0.106,0.48-0.219,0.697-0.345c0.605-0.352,0.959-0.683,1.055-0.992C347.225,188.286,347.068,188.011,346.648,187.769"/>
			<polygon clip-path="url(#SVGID_2_)" fill="#FFFFFF" points="349.59,187.437 348.504,186.811 347.506,187.391 348.591,188.018
				"/>
			<path clip-path="url(#SVGID_2_)" fill="#FFFFFF" d="M349.137,185.271c-0.521-0.301-0.838-0.543-0.955-0.723
				c-0.121-0.183-0.059-0.339,0.175-0.474c0.229-0.133,0.497-0.169,0.813-0.1c0.31,0.066,0.723,0.252,1.246,0.553
				c0.527,0.306,0.855,0.548,0.979,0.73c0.113,0.187,0.063,0.342-0.165,0.474c-0.233,0.137-0.509,0.17-0.823,0.101
				C350.09,185.762,349.666,185.576,349.137,185.271 M351.506,183.907c-0.695-0.401-1.389-0.624-2.06-0.667
				c-0.677-0.045-1.288,0.09-1.83,0.405c-0.548,0.319-0.781,0.674-0.704,1.068c0.076,0.388,0.469,0.787,1.163,1.187
				c0.696,0.402,1.378,0.625,2.048,0.668c0.683,0.042,1.295-0.093,1.842-0.411c0.543-0.316,0.777-0.671,0.693-1.062
				C352.582,184.707,352.201,184.308,351.506,183.907"/>
			<polygon clip-path="url(#SVGID_2_)" fill="#FFFFFF" points="353.512,181.011 352.909,180.663 349.775,182.484 350.568,182.941
				352.572,181.778 354.426,184.627 355.471,184.02 			"/>
			<polygon clip-path="url(#SVGID_2_)" fill="#FFFFFF" points="365.172,243.846 364.355,243.375 362.472,244.47 361.512,243.916
				363.229,242.917 362.414,242.447 360.695,243.445 359.914,242.994 361.741,241.932 360.926,241.46 358.025,243.146
				362.215,245.564 			"/>
			<path clip-path="url(#SVGID_2_)" fill="#FFFFFF" d="M367.637,241.037c-0.283-0.164-0.586-0.252-0.914-0.27
				c-0.32-0.02-0.664,0.027-1.019,0.153c0.188-0.183,0.274-0.358,0.239-0.524c-0.029-0.163-0.164-0.318-0.404-0.459
				c-0.362-0.209-0.77-0.284-1.216-0.231c-0.445,0.053-0.938,0.239-1.474,0.552c-0.205,0.119-0.4,0.244-0.576,0.381
				c-0.172,0.139-0.344,0.285-0.49,0.443l0.792,0.459c0.091-0.146,0.21-0.281,0.347-0.408c0.139-0.126,0.297-0.239,0.469-0.338
				c0.234-0.137,0.463-0.216,0.674-0.24c0.217-0.025,0.406,0.012,0.567,0.104c0.173,0.1,0.235,0.216,0.192,0.342
				c-0.052,0.123-0.205,0.266-0.474,0.422l-0.457,0.266l0.696,0.4l0.434-0.252c0.302-0.176,0.576-0.282,0.833-0.312
				c0.253-0.033,0.476,0.003,0.666,0.112c0.184,0.107,0.253,0.232,0.196,0.379c-0.057,0.146-0.222,0.301-0.506,0.467
				c-0.189,0.111-0.406,0.209-0.658,0.297c-0.246,0.082-0.525,0.151-0.828,0.215l0.832,0.48c0.281-0.082,0.543-0.176,0.795-0.281
				c0.252-0.107,0.479-0.219,0.697-0.346c0.604-0.352,0.953-0.68,1.059-0.988C368.205,241.55,368.049,241.275,367.637,241.037"/>
			<polygon clip-path="url(#SVGID_2_)" fill="#FFFFFF" points="370.578,240.705 369.491,240.078 368.486,240.662 369.573,241.289
							"/>
			<path clip-path="url(#SVGID_2_)" fill="#FFFFFF" d="M370.123,238.539c-0.527-0.307-0.844-0.548-0.959-0.727
				c-0.115-0.18-0.059-0.339,0.168-0.473c0.234-0.135,0.505-0.165,0.819-0.102c0.31,0.066,0.723,0.252,1.251,0.557
				c0.529,0.306,0.857,0.548,0.967,0.73c0.122,0.182,0.07,0.338-0.162,0.475c-0.229,0.133-0.504,0.166-0.82,0.096
				C371.078,239.029,370.652,238.843,370.123,238.539 M372.482,237.174c-0.695-0.401-1.379-0.624-2.053-0.671
				c-0.68-0.045-1.283,0.094-1.831,0.412s-0.788,0.67-0.705,1.062c0.081,0.392,0.468,0.786,1.163,1.188
				c0.695,0.4,1.378,0.623,2.056,0.67c0.669,0.043,1.281-0.093,1.829-0.412c0.549-0.318,0.78-0.673,0.705-1.062
				C373.563,237.97,373.177,237.576,372.482,237.174"/>
			<path clip-path="url(#SVGID_2_)" fill="#FFFFFF" d="M374.731,236.747c-0.249-0.144-0.386-0.276-0.409-0.401
				c-0.029-0.123,0.05-0.242,0.238-0.354c0.188-0.107,0.395-0.154,0.605-0.137c0.219,0.012,0.449,0.092,0.697,0.234
				c0.246,0.143,0.377,0.271,0.406,0.401c0.029,0.123-0.051,0.243-0.238,0.352c-0.188,0.11-0.394,0.156-0.606,0.14
				C375.201,236.965,374.979,236.888,374.731,236.747 M376.826,235.449c-0.408-0.235-0.867-0.349-1.383-0.342
				c-0.504,0.008-0.973,0.133-1.402,0.382c-0.17,0.101-0.302,0.203-0.398,0.312c-0.097,0.11-0.158,0.227-0.192,0.352
				c-0.321-0.219-0.483-0.438-0.485-0.643c0-0.206,0.164-0.402,0.484-0.588c0.148-0.086,0.314-0.162,0.514-0.231
				c0.195-0.067,0.424-0.127,0.688-0.18l-0.777-0.448c-0.239,0.066-0.457,0.146-0.674,0.232c-0.205,0.086-0.406,0.189-0.594,0.299
				c-0.605,0.352-0.883,0.74-0.836,1.172c0.049,0.43,0.416,0.842,1.113,1.243c0.672,0.389,1.344,0.604,2.008,0.644
				c0.664,0.04,1.265-0.096,1.807-0.412c0.49-0.284,0.742-0.59,0.764-0.915C377.486,235.997,377.273,235.708,376.826,235.449"/>
			<path clip-path="url(#SVGID_2_)" id="E2.03" fill="#BFBFBF" d="M450.436,191.866c-0.529-0.306-0.941-0.491-1.25-0.557
				c-0.311-0.067-0.586-0.033-0.814,0.1c-0.232,0.136-0.289,0.295-0.174,0.474c0.115,0.179,0.432,0.422,0.961,0.727
				c0.527,0.306,0.953,0.492,1.264,0.558c0.314,0.069,0.589,0.037,0.822-0.1c0.229-0.133,0.279-0.288,0.158-0.471
				C451.292,192.414,450.965,192.171,450.436,191.866 M440.545,197.987l0.959,0.554l1.885-1.094l0.816,0.471l-2.958,1.718
				l-4.19-2.418l2.902-1.685l0.816,0.471l-1.828,1.062l0.781,0.451l1.719-0.999l0.814,0.471L440.545,197.987 M444.744,194.988
				c0.348-0.123,0.691-0.169,1.018-0.153c0.322,0.02,0.625,0.11,0.907,0.272c0.415,0.239,0.569,0.514,0.475,0.823
				c-0.103,0.305-0.456,0.637-1.06,0.989c-0.217,0.125-0.447,0.238-0.697,0.344c-0.245,0.103-0.514,0.2-0.79,0.279l-0.831-0.482
				c0.297-0.059,0.576-0.128,0.822-0.211c0.252-0.086,0.469-0.186,0.664-0.299c0.284-0.166,0.449-0.322,0.5-0.464
				c0.058-0.146-0.013-0.272-0.197-0.378c-0.188-0.11-0.412-0.146-0.664-0.113c-0.258,0.03-0.532,0.136-0.836,0.312l-0.427,0.25
				l-0.696-0.401l0.452-0.262c0.269-0.157,0.422-0.299,0.473-0.422c0.046-0.125-0.019-0.242-0.19-0.342
				c-0.161-0.093-0.352-0.129-0.568-0.103c-0.211,0.024-0.439,0.103-0.676,0.239c-0.17,0.099-0.328,0.213-0.467,0.338
				c-0.136,0.126-0.256,0.262-0.347,0.408l-0.793-0.458c0.149-0.159,0.318-0.305,0.491-0.444c0.182-0.14,0.377-0.265,0.576-0.381
				c0.535-0.312,1.026-0.498,1.474-0.551c0.446-0.054,0.853,0.022,1.216,0.232c0.24,0.14,0.379,0.292,0.404,0.458
				C445.01,194.633,444.932,194.805,444.744,194.988 M447.52,194.732l1.006-0.583l1.084,0.626l-1.004,0.584L447.52,194.732
				 M448.09,193.235c-0.695-0.401-1.08-0.795-1.162-1.188c-0.078-0.395,0.162-0.746,0.709-1.064
				c0.543-0.315,1.146-0.455,1.824-0.409c0.676,0.047,1.359,0.269,2.055,0.671c0.693,0.401,1.082,0.796,1.164,1.187
				c0.076,0.389-0.156,0.744-0.699,1.059c-0.548,0.319-1.16,0.455-1.836,0.415C449.467,193.859,448.785,193.637,448.09,193.235
				 M453.998,189.61c0.348-0.124,0.691-0.17,1.018-0.153c0.326,0.017,0.625,0.11,0.906,0.272c0.415,0.239,0.576,0.51,0.475,0.822
				c-0.102,0.305-0.454,0.637-1.059,0.989c-0.213,0.123-0.445,0.238-0.691,0.342c-0.252,0.106-0.514,0.198-0.795,0.281l-0.834-0.481
				c0.298-0.061,0.578-0.129,0.83-0.215c0.246-0.083,0.47-0.187,0.658-0.295c0.284-0.166,0.45-0.322,0.507-0.467
				c0.05-0.144-0.019-0.269-0.202-0.375c-0.191-0.11-0.408-0.149-0.66-0.116c-0.264,0.033-0.537,0.14-0.84,0.316l-0.429,0.249
				l-0.694-0.402l0.451-0.262c0.266-0.156,0.42-0.299,0.477-0.424c0.047-0.127-0.023-0.239-0.195-0.339
				c-0.161-0.092-0.352-0.129-0.562-0.105c-0.217,0.026-0.445,0.105-0.68,0.241c-0.172,0.101-0.325,0.21-0.461,0.336
				c-0.139,0.126-0.258,0.263-0.354,0.412l-0.793-0.458c0.149-0.159,0.319-0.306,0.496-0.448c0.176-0.136,0.372-0.262,0.571-0.378
				c0.542-0.315,1.033-0.501,1.479-0.555c0.447-0.053,0.849,0.026,1.211,0.236c0.242,0.14,0.381,0.292,0.408,0.454
				C454.265,189.255,454.186,189.427,453.998,189.61 M477.635,196.629l-35.309-20.386l-26.223,15.238l35.311,20.386L477.635,196.629
				"/>
			<path clip-path="url(#SVGID_2_)" id="E2.04" fill="#BFBFBF" d="M421.195,208.859c-0.527-0.306-0.941-0.492-1.25-0.558
				c-0.311-0.066-0.586-0.033-0.814,0.1c-0.234,0.136-0.289,0.295-0.175,0.475c0.116,0.178,0.432,0.421,0.96,0.726
				c0.529,0.306,0.955,0.491,1.265,0.557c0.313,0.07,0.591,0.037,0.825-0.1c0.229-0.132,0.277-0.287,0.161-0.475
				C422.053,209.406,421.725,209.164,421.195,208.859 M424.91,207.339l-1.752-1.011l0.576,1.695L424.91,207.339 M411.305,214.98
				l0.959,0.553l1.885-1.094l0.814,0.471l-2.956,1.719l-4.188-2.419l2.9-1.685l0.816,0.472l-1.826,1.062l0.779,0.45l1.719-0.999
				l0.816,0.472L411.305,214.98 M415.503,211.98c0.349-0.123,0.692-0.169,1.02-0.152c0.319,0.02,0.623,0.109,0.905,0.272
				c0.415,0.238,0.57,0.513,0.475,0.823c-0.102,0.305-0.455,0.637-1.061,0.988c-0.215,0.125-0.443,0.238-0.695,0.344
				c-0.246,0.104-0.516,0.2-0.789,0.279l-0.834-0.48c0.297-0.061,0.578-0.131,0.823-0.213c0.251-0.086,0.47-0.186,0.663-0.298
				c0.286-0.167,0.451-0.321,0.502-0.466c0.057-0.145-0.015-0.271-0.197-0.377c-0.189-0.11-0.414-0.146-0.666-0.113
				c-0.256,0.029-0.53,0.136-0.832,0.312l-0.43,0.249l-0.695-0.4l0.451-0.263c0.27-0.156,0.423-0.299,0.475-0.422
				c0.044-0.126-0.02-0.241-0.191-0.342c-0.161-0.093-0.352-0.129-0.568-0.103c-0.211,0.023-0.439,0.103-0.675,0.238
				c-0.173,0.1-0.331,0.213-0.468,0.339s-0.258,0.263-0.347,0.407l-0.792-0.457c0.146-0.159,0.318-0.305,0.488-0.443
				c0.184-0.141,0.379-0.266,0.576-0.383c0.537-0.311,1.029-0.496,1.476-0.551c0.445-0.053,0.854,0.023,1.216,0.232
				c0.24,0.14,0.379,0.293,0.402,0.458C415.77,211.625,415.691,211.798,415.503,211.98 M418.285,211.721l0.998-0.58l1.086,0.627
				l-0.997,0.581L418.285,211.721 M418.851,210.229c-0.696-0.402-1.081-0.796-1.165-1.188c-0.076-0.395,0.162-0.747,0.712-1.065
				c0.54-0.315,1.147-0.454,1.823-0.408c0.676,0.046,1.364,0.265,2.059,0.667c0.697,0.401,1.076,0.8,1.158,1.191
				c0.078,0.388-0.154,0.743-0.697,1.058c-0.548,0.318-1.16,0.455-1.836,0.414C420.227,210.852,419.545,210.63,418.851,210.229
				 M422.923,208.328l-0.833-2.412l1.194-0.693l2.644,1.526l0.592-0.345l0.781,0.451l-0.594,0.344l0.766,0.441l-1.017,0.59
				l-0.765-0.441l-1.845,1.072L422.923,208.328 M447.115,214.365l-35.311-20.386l-24.178,14.05l35.312,20.387L447.115,214.365"/>
			<polygon clip-path="url(#SVGID_2_)" fill="#FFFFFF" points="414.963,214.91 414.148,214.439 412.264,215.533 411.305,214.98
				413.023,213.981 412.207,213.509 410.488,214.508 409.707,214.058 411.533,212.996 410.717,212.525 407.818,214.209
				412.008,216.628 			"/>
			<path clip-path="url(#SVGID_2_)" fill="#FFFFFF" d="M417.428,212.1c-0.282-0.163-0.586-0.253-0.906-0.272
				c-0.326-0.017-0.67,0.029-1.02,0.152c0.188-0.182,0.268-0.354,0.232-0.521c-0.021-0.165-0.162-0.318-0.402-0.458
				c-0.362-0.209-0.771-0.285-1.217-0.232c-0.446,0.055-0.938,0.239-1.475,0.551c-0.197,0.117-0.393,0.242-0.576,0.383
				c-0.17,0.139-0.342,0.284-0.49,0.443l0.794,0.457c0.091-0.145,0.209-0.281,0.348-0.407c0.136-0.126,0.296-0.239,0.466-0.339
				c0.236-0.136,0.465-0.215,0.674-0.238c0.219-0.026,0.408,0.01,0.568,0.103c0.174,0.101,0.238,0.216,0.191,0.342
				c-0.05,0.123-0.203,0.266-0.471,0.422l-0.452,0.263l0.693,0.4l0.431-0.249c0.303-0.176,0.574-0.282,0.832-0.312
				c0.254-0.033,0.477,0.003,0.668,0.113c0.182,0.105,0.252,0.232,0.195,0.377c-0.05,0.143-0.216,0.299-0.5,0.467
				c-0.195,0.112-0.412,0.211-0.665,0.297c-0.245,0.082-0.526,0.152-0.823,0.213l0.833,0.48c0.274-0.079,0.544-0.175,0.788-0.277
				c0.254-0.107,0.482-0.221,0.697-0.346c0.605-0.352,0.959-0.684,1.061-0.988C417.999,212.613,417.843,212.338,417.428,212.1"/>
			<polygon clip-path="url(#SVGID_2_)" fill="#FFFFFF" points="420.369,211.768 419.284,211.141 418.285,211.721 419.372,212.349
							"/>
			<path clip-path="url(#SVGID_2_)" fill="#FFFFFF" d="M419.916,209.602c-0.528-0.305-0.844-0.548-0.96-0.726
				c-0.114-0.179-0.06-0.338,0.176-0.475c0.228-0.133,0.503-0.166,0.812-0.1c0.311,0.066,0.725,0.253,1.252,0.558
				c0.529,0.305,0.857,0.547,0.972,0.726c0.118,0.187,0.065,0.342-0.163,0.475c-0.232,0.136-0.508,0.17-0.824,0.1
				C420.871,210.093,420.445,209.907,419.916,209.602 M422.279,208.235c-0.694-0.402-1.381-0.62-2.059-0.667
				c-0.676-0.047-1.283,0.092-1.823,0.408c-0.55,0.318-0.788,0.67-0.712,1.065c0.082,0.391,0.469,0.787,1.164,1.188
				c0.695,0.401,1.377,0.623,2.055,0.669c0.676,0.041,1.288-0.094,1.836-0.414c0.541-0.315,0.775-0.67,0.697-1.058
				C423.355,209.035,422.976,208.636,422.279,208.235"/>
			<path clip-path="url(#SVGID_2_)" fill="#FFFFFF" d="M423.734,208.023l-0.576-1.695l1.752,1.011L423.734,208.023z
				 M427.301,206.855l-0.781-0.451l-0.592,0.345l-2.645-1.525l-1.193,0.692l0.834,2.412l0.923,0.535l1.845-1.072l0.765,0.441
				l1.017-0.59l-0.765-0.441L427.301,206.855"/>
			<polygon clip-path="url(#SVGID_2_)" fill="#FFFFFF" points="444.205,197.917 443.389,197.446 441.504,198.541 440.545,197.987
				442.264,196.988 441.448,196.517 439.729,197.516 438.947,197.064 440.774,196.003 439.957,195.532 437.059,197.217
				441.248,199.635 			"/>
			<path clip-path="url(#SVGID_2_)" fill="#FFFFFF" d="M446.669,195.107c-0.281-0.163-0.585-0.252-0.907-0.272
				c-0.326-0.017-0.67,0.029-1.018,0.153c0.188-0.183,0.266-0.355,0.23-0.521c-0.023-0.167-0.162-0.318-0.402-0.458
				c-0.362-0.209-0.77-0.286-1.216-0.233c-0.447,0.054-0.938,0.24-1.474,0.552c-0.201,0.116-0.396,0.242-0.576,0.381
				c-0.172,0.139-0.344,0.285-0.492,0.444l0.794,0.458c0.091-0.146,0.211-0.281,0.347-0.408c0.137-0.125,0.297-0.239,0.467-0.339
				c0.236-0.135,0.465-0.214,0.676-0.238c0.217-0.026,0.407,0.01,0.567,0.103c0.173,0.1,0.237,0.216,0.191,0.342
				c-0.051,0.123-0.204,0.266-0.473,0.422l-0.45,0.262l0.693,0.401l0.43-0.25c0.302-0.176,0.576-0.282,0.834-0.312
				c0.252-0.033,0.477,0.003,0.665,0.113c0.184,0.105,0.252,0.232,0.196,0.378c-0.051,0.143-0.216,0.299-0.5,0.464
				c-0.195,0.113-0.412,0.212-0.664,0.299c-0.247,0.083-0.525,0.152-0.822,0.212l0.831,0.481c0.276-0.079,0.546-0.176,0.789-0.279
				c0.251-0.106,0.481-0.219,0.698-0.344c0.604-0.352,0.957-0.684,1.06-0.989C447.238,195.622,447.082,195.346,446.669,195.107"/>
			<polygon clip-path="url(#SVGID_2_)" fill="#FFFFFF" points="449.609,194.775 448.525,194.148 447.52,194.732 448.607,195.359
				"/>
			<path clip-path="url(#SVGID_2_)" fill="#FFFFFF" d="M449.159,192.608c-0.529-0.305-0.848-0.547-0.962-0.727
				c-0.115-0.179-0.061-0.337,0.176-0.474c0.229-0.133,0.501-0.167,0.812-0.1c0.312,0.066,0.724,0.251,1.253,0.557
				c0.528,0.305,0.855,0.548,0.965,0.729c0.123,0.183,0.07,0.338-0.158,0.471c-0.233,0.136-0.507,0.17-0.824,0.1
				C450.111,193.1,449.688,192.914,449.159,192.608 M451.516,191.246c-0.695-0.402-1.379-0.624-2.053-0.671
				c-0.678-0.046-1.283,0.093-1.827,0.409c-0.548,0.319-0.786,0.67-0.71,1.064c0.082,0.392,0.471,0.787,1.164,1.188
				c0.695,0.4,1.379,0.623,2.055,0.669c0.676,0.041,1.287-0.096,1.838-0.415c0.54-0.315,0.773-0.67,0.697-1.059
				C452.596,192.042,452.209,191.647,451.516,191.246"/>
			<path clip-path="url(#SVGID_2_)" fill="#FFFFFF" d="M455.924,189.729c-0.283-0.163-0.582-0.256-0.908-0.272
				c-0.326-0.017-0.67,0.029-1.018,0.153c0.188-0.183,0.267-0.355,0.238-0.525c-0.029-0.163-0.168-0.314-0.41-0.454
				c-0.362-0.209-0.764-0.289-1.211-0.236c-0.445,0.054-0.937,0.239-1.479,0.555c-0.199,0.116-0.396,0.242-0.571,0.378
				c-0.177,0.143-0.347,0.289-0.496,0.448l0.793,0.458c0.097-0.149,0.216-0.286,0.354-0.412c0.136-0.126,0.289-0.235,0.461-0.336
				c0.234-0.135,0.463-0.214,0.68-0.241c0.211-0.024,0.401,0.013,0.562,0.105c0.172,0.1,0.242,0.212,0.195,0.339
				c-0.057,0.125-0.211,0.268-0.477,0.424l-0.451,0.262l0.694,0.402l0.429-0.249c0.303-0.176,0.576-0.283,0.84-0.316
				c0.252-0.033,0.469,0.006,0.66,0.116c0.184,0.106,0.252,0.232,0.202,0.375c-0.057,0.146-0.223,0.301-0.507,0.467
				c-0.188,0.109-0.412,0.212-0.658,0.295c-0.252,0.086-0.531,0.155-0.83,0.215l0.834,0.481c0.281-0.083,0.543-0.175,0.795-0.281
				c0.246-0.104,0.479-0.219,0.691-0.342c0.604-0.352,0.957-0.684,1.059-0.989C456.498,190.24,456.337,189.968,455.924,189.729"/>
			<polygon clip-path="url(#SVGID_2_)" fill="#FFFFFF" points="322.611,197.323 319.699,195.642 315.543,198.057 318.52,199.775
				319.33,199.304 317.435,198.21 318.387,197.655 320.111,198.651 320.922,198.179 319.197,197.184 319.969,196.737
				321.801,197.795 			"/>
			<path clip-path="url(#SVGID_2_)" fill="#FFFFFF" d="M324.703,198.438c-0.2-0.116-0.426-0.226-0.66-0.329
				c-0.242-0.106-0.494-0.199-0.77-0.285l-0.782,0.455c0.247,0.056,0.482,0.125,0.7,0.206c0.219,0.079,0.408,0.169,0.586,0.272
				c0.234,0.135,0.374,0.263,0.414,0.391c0.041,0.122-0.016,0.236-0.176,0.328c-0.171,0.1-0.365,0.133-0.584,0.106
				c-0.217-0.026-0.458-0.119-0.734-0.278l-0.453-0.262l-0.697,0.405l0.438,0.251c0.304,0.177,0.488,0.336,0.547,0.481
				c0.057,0.146-0.01,0.279-0.199,0.388c-0.184,0.106-0.405,0.144-0.652,0.113c-0.252-0.033-0.521-0.13-0.809-0.296
				c-0.189-0.109-0.357-0.238-0.506-0.384c-0.15-0.146-0.277-0.306-0.382-0.478l-0.827,0.481c0.145,0.163,0.305,0.315,0.488,0.461
				c0.18,0.142,0.381,0.278,0.593,0.401c0.616,0.355,1.185,0.557,1.722,0.617c0.527,0.06,1.002-0.03,1.419-0.271
				c0.274-0.159,0.428-0.336,0.456-0.525c0.039-0.189-0.054-0.388-0.262-0.593c0.316,0.109,0.614,0.156,0.9,0.143
				c0.279-0.017,0.549-0.093,0.794-0.236c0.356-0.206,0.485-0.441,0.394-0.7C325.565,199.042,325.248,198.754,324.703,198.438"/>
			<polygon clip-path="url(#SVGID_2_)" fill="#FFFFFF" points="325.039,202.29 324.028,201.706 322.949,202.333 323.959,202.917
				"/>
			<path clip-path="url(#SVGID_2_)" fill="#FFFFFF" d="M326.904,203.869c-0.229-0.133-0.289-0.292-0.169-0.475
				c0.12-0.182,0.439-0.427,0.965-0.733c0.519-0.302,0.937-0.485,1.245-0.551c0.314-0.069,0.584-0.032,0.813,0.1
				c0.235,0.136,0.294,0.289,0.175,0.471c-0.107,0.182-0.428,0.421-0.948,0.724c-0.524,0.305-0.946,0.49-1.261,0.561
				C327.408,204.035,327.135,204.002,326.904,203.869 M330.495,201.783c-0.55-0.318-1.165-0.455-1.841-0.408
				c-0.67,0.043-1.356,0.268-2.045,0.669c-0.692,0.401-1.074,0.796-1.146,1.185c-0.078,0.391,0.158,0.746,0.71,1.064
				c0.552,0.319,1.166,0.456,1.841,0.409c0.671-0.044,1.352-0.265,2.042-0.667c0.69-0.401,1.077-0.8,1.149-1.188
				C331.283,202.456,331.047,202.101,330.495,201.783"/>
			<path clip-path="url(#SVGID_2_)" fill="#FFFFFF" d="M335.42,204.718l-2.683-1.549l-2.341,1.36
				c0.286,0.067,0.539,0.14,0.751,0.216c0.218,0.079,0.402,0.166,0.558,0.255c0.258,0.148,0.402,0.305,0.432,0.468
				c0.023,0.159-0.072,0.301-0.296,0.431c-0.218,0.126-0.464,0.183-0.737,0.169c-0.287-0.013-0.556-0.097-0.814-0.246
				c-0.184-0.105-0.34-0.235-0.484-0.391c-0.137-0.159-0.254-0.338-0.352-0.547l-0.845,0.49c0.132,0.19,0.294,0.363,0.483,0.525
				c0.186,0.159,0.398,0.309,0.639,0.448c0.547,0.314,1.107,0.488,1.67,0.521c0.568,0.031,1.07-0.083,1.521-0.345
				c0.456-0.266,0.667-0.555,0.637-0.863c-0.037-0.311-0.302-0.617-0.813-0.912c-0.091-0.053-0.183-0.099-0.274-0.139
				c-0.104-0.04-0.197-0.08-0.299-0.114l0.639-0.371l1.822,1.051L335.42,204.718"/>
		</g>
	</g>
</g>
<g>
	<g>
		<g enable-background="new    ">
			<defs>
				<polygon id="SVGID_3_" enable-background="new    " points="270.308,218.647 277.133,214.68 284.002,218.647 277.178,222.614
									"/>
			</defs>
			<clipPath id="SVGID_4_">
				<use xlink:href="#SVGID_3_"  overflow="visible"/>
			</clipPath>
			<g clip-path="url(#SVGID_4_)">
				<g>
					<g>
						<g>
							<polyline fill="#FFFFFF" points="278.863,215.679 277.133,214.68 270.308,218.647 273.73,220.623 277.178,222.614
								278.903,221.611 277.192,220.623 278.892,219.634 277.175,218.643 278.874,217.656 277.163,216.667 278.863,215.679
								"/>
						</g>
					</g>
				</g>
			</g>
		</g>
	</g>
</g>
<g>
	<polygon fill="#EC7404" stroke="#FFFFFF" stroke-width="0.5" points="312.837,-23.968 316.249,-23.968 314.68,-12.192 	"/>
	<circle fill="#EC7404" cx="314.543" cy="-33" r="9.731"/>
	<polygon fill="none" stroke="#FFFFFF" stroke-width="0.5" points="318.413,-35.826 314.543,-40.501 310.674,-35.826
		312.627,-35.826 312.627,-30.704 316.46,-30.704 316.46,-35.826 	"/>
	<text transform="matrix(1 0 0 1 312.877 -25.1196)" fill="#FFFFFF" font-family="'DejaVuSansCondensed-Bold'" font-size="5">€</text>
</g>
<g>
	<polygon fill="#EC7404" stroke="#FFFFFF" stroke-width="0.5" points="338.409,-23.968 341.822,-23.968 340.252,-12.192 	"/>
	<circle fill="#EC7404" cx="340.116" cy="-33" r="9.731"/>
	<polygon fill="none" stroke="#FFFFFF" stroke-width="0.5" points="343.985,-35.826 340.115,-40.501 336.246,-35.826
		338.199,-35.826 338.199,-30.704 342.032,-30.704 342.032,-35.826 	"/>
	<rect x="338.429" y="-29.443" fill="none" width="8" height="3.833"/>
	<text transform="matrix(1 0 0 1 338.4307 -25.6436)" fill="#FFFFFF" font-family="'DejaVuSansCondensed-Bold'" font-size="5">P</text>
</g>
<g>
	<polygon fill="#EC7404" stroke="#FFFFFF" stroke-width="0.5" points="363.981,-23.968 367.394,-23.968 365.824,-12.192 	"/>
	<circle fill="#EC7404" cx="365.688" cy="-33" r="9.731"/>
	<polygon fill="none" stroke="#FFFFFF" stroke-width="0.5" points="369.558,-35.826 365.688,-40.501 361.818,-35.826
		363.771,-35.826 363.771,-30.704 367.604,-30.704 367.604,-35.826 	"/>
	<rect x="360.819" y="-29.442" fill="none" width="8" height="3.833"/>
	<text transform="matrix(1 0 0 1 360.8213 -25.6436)" fill="#FFFFFF" font-family="'DejaVuSansCondensed-Bold'" font-size="5"> EC</text>
</g>
<g>
	<polygon fill="#EC7404" stroke="#FFFFFF" stroke-width="0.5" points="415.003,-23.991 418.417,-23.991 416.847,-12.215 	"/>
	<g>
		<circle fill="#EC7404" cx="416.71" cy="-33" r="9.731"/>
		<g>
			<g>
				<path fill="none" stroke="#FFFFFF" stroke-width="0.5" d="M421.197-29.081c0,0.312-0.255,0.567-0.567,0.567h-7.839
					c-0.312,0-0.567-0.255-0.567-0.567v-7.84c0-0.312,0.255-0.567,0.567-0.567h7.839c0.312,0,0.567,0.255,0.567,0.567V-29.081z"/>
			</g>
			<polygon fill="#FFFFFF" points="413.152,-32.975 415.846,-29.744 420.287,-36.475 415.608,-31.057 			"/>
		</g>
	</g>
</g>
<g>
	<polygon fill="#EC7404" stroke="#FFFFFF" stroke-width="0.5" points="440.863,-23.991 444.277,-23.991 442.707,-12.215 	"/>
	<circle fill="#EC7404" cx="442.571" cy="-33" r="9.731"/>
	<g>
		<g>
			<path fill="#EC7404" d="M446.946-31.146c0,0.312-0.255,0.567-0.567,0.567h-9.54c-0.312,0-0.567-0.255-0.567-0.567V-36.6
				c0-0.312,0.255-0.567,0.567-0.567h9.54c0.312,0,0.567,0.255,0.567,0.567V-31.146z"/>
			<path fill="none" stroke="#FFFFFF" stroke-width="0.5" d="M446.946-31.146c0,0.312-0.255,0.567-0.567,0.567h-9.54
				c-0.312,0-0.567-0.255-0.567-0.567V-36.6c0-0.312,0.255-0.567,0.567-0.567h9.54c0.312,0,0.567,0.255,0.567,0.567V-31.146z"/>
		</g>
		<g>
			<path fill="#EC7404" d="M448.87-29.223c0,0.312-0.255,0.567-0.567,0.567h-9.54c-0.312,0-0.567-0.255-0.567-0.567v-5.454
				c0-0.312,0.255-0.567,0.567-0.567h9.54c0.312,0,0.567,0.255,0.567,0.567V-29.223z"/>
			<path fill="none" stroke="#FFFFFF" stroke-width="0.5" d="M448.87-29.223c0,0.312-0.255,0.567-0.567,0.567h-9.54
				c-0.312,0-0.567-0.255-0.567-0.567v-5.454c0-0.312,0.255-0.567,0.567-0.567h9.54c0.312,0,0.567,0.255,0.567,0.567V-29.223z"/>
		</g>
	</g>
</g>
<g>
	<polygon fill="#EC7404" stroke="#FFFFFF" stroke-width="0.5" points="287.264,-23.968 290.677,-23.968 289.107,-12.192 	"/>
	<circle fill="#EC7404" cx="288.97" cy="-33" r="9.731"/>
	<g>
		<path fill="#FFFFFF" d="M285.842-31.311h6.294v-0.557h-6.294V-31.311z M285.842-29.615h6.294v-0.557h-6.294V-29.615z
			 M285.842-34.658h6.294v-0.558h-6.294V-34.658z M285.842-32.993h6.294v-0.557h-6.294V-32.993z M292.842-27.685h-7.744v-11.183
			h5.521v2.222h2.223V-27.685z M284.54-27.125 M291.178-38.797l1.594,1.592h-1.594V-38.797z M291.336-39.427h-6.796v12.301h8.86
			v-10.239L291.336-39.427z"/>
	</g>
</g>
<g>
	<polygon fill="#EC7404" stroke="#FFFFFF" stroke-width="0.5" points="261.69,-23.968 265.104,-23.968 263.533,-12.192 	"/>
	<circle fill="#EC7404" cx="263.397" cy="-33.001" r="9.731"/>
	<g>
		<g>
			<path fill="#FFFFFF" d="M268.454-33.723c-0.002-0.272-0.025-0.522-0.083-0.758c-0.046-0.183-0.114-0.358-0.217-0.517
				c-0.152-0.24-0.387-0.429-0.656-0.535c-0.269-0.108-0.564-0.149-0.898-0.149c-0.295,0-0.563,0.033-0.811,0.114
				c-0.185,0.062-0.357,0.153-0.505,0.277c-0.223,0.186-0.377,0.438-0.463,0.709c-0.086,0.264-0.118,0.55-0.119,0.862l-0.569,4.806
				h1.198v2.099h0.97v-2.099h0.6v2.099h0.97v-2.099h1.204L268.454-33.723z"/>
			<path fill="#FFFFFF" d="M260.08-36.128c0.872,0,1.576-0.707,1.576-1.577c0-0.871-0.704-1.577-1.576-1.577
				c-0.87,0-1.575,0.706-1.576,1.577C258.505-36.834,259.21-36.128,260.08-36.128 M260.08-35.59c-1.305,0.001-2.36,1.057-2.36,2.361
				v2.469h1.092v3.943h0.969v-3.943h0.6v3.943h0.97v-3.943h1.091v-2.469C262.44-34.534,261.385-35.589,260.08-35.59"/>
		</g>
		<circle fill="#FFFFFF" cx="266.494" cy="-37.707" r="1.584"/>
	</g>
</g>
<g>
	<polygon fill="#EC7404" stroke="#FFFFFF" stroke-width="0.5" points="389.554,-23.968 392.967,-23.968 391.397,-12.192 	"/>
	<circle fill="#EC7404" cx="391.26" cy="-33" r="9.731"/>
	<text transform="matrix(1 0 0 1 389.502 -25.1196)" fill="#FFFFFF" font-family="'DejaVuSansCondensed-Bold'" font-size="5">€</text>
	<polygon fill="none" stroke="#FFFFFF" stroke-width="0.5" points="387.342,-35.379 391.212,-30.704 395.081,-35.379
		393.128,-35.379 393.128,-40.501 389.295,-40.501 389.295,-35.379 	"/>
</g>
<g>
	<polygon fill="#EC7404" stroke="#FFFFFF" stroke-width="0.5" points="310.828,245.566 314.241,245.566 312.671,257.341 	"/>
	<circle fill="#EC7404" cx="312.535" cy="236.533" r="9.731"/>
	<g>
		<g>
			<path fill="#FFFFFF" d="M317.592,235.811c-0.002-0.272-0.025-0.523-0.083-0.758c-0.046-0.184-0.114-0.358-0.217-0.518
				c-0.152-0.239-0.387-0.429-0.656-0.535c-0.269-0.107-0.564-0.148-0.898-0.148c-0.295,0-0.563,0.032-0.811,0.113
				c-0.185,0.062-0.357,0.152-0.505,0.277c-0.223,0.186-0.377,0.438-0.463,0.709c-0.086,0.264-0.118,0.549-0.119,0.861l-0.569,4.806
				h1.198v2.099h0.97v-2.099h0.6v2.099h0.97v-2.099h1.204L317.592,235.811z"/>
			<path fill="#FFFFFF" d="M309.218,233.406c0.872,0,1.576-0.706,1.576-1.577s-0.704-1.576-1.576-1.576
				c-0.87,0-1.575,0.705-1.576,1.576C307.643,232.7,308.348,233.406,309.218,233.406 M309.218,233.944
				c-1.305,0-2.36,1.057-2.36,2.36v2.47h1.092v3.943h0.969v-3.943h0.6v3.943h0.97v-3.943h1.091v-2.47
				C311.578,235,310.522,233.944,309.218,233.944"/>
		</g>
		<circle fill="#FFFFFF" cx="315.631" cy="231.827" r="1.584"/>
	</g>
</g>
<g>
	<polygon fill="#EC7404" points="281.811,238.026 285.225,238.026 283.654,249.802 	"/>
	<circle fill="#EC7404" cx="283.518" cy="229.016" r="9.731"/>
	<g>
		<g>
			<path fill="none" stroke="#FFFFFF" stroke-width="0.5" d="M288.005,234.811c0,0.312-0.255,0.567-0.566,0.567h-7.84
				c-0.312,0-0.567-0.256-0.567-0.567v-11.507c0-0.312,0.255-0.566,0.567-0.566h7.84c0.312,0,0.566,0.254,0.566,0.566V234.811z"/>
		</g>
	</g>
	<path fill="#FFFFFF" d="M283.518,227.388c0.743,0,1.342-0.602,1.342-1.342c0-0.742-0.599-1.342-1.342-1.342
		c-0.74,0-1.34,0.6-1.341,1.342C282.178,226.787,282.777,227.388,283.518,227.388 M283.518,227.846
		c-1.11,0.001-2.009,0.899-2.009,2.01v2.102h0.93v3.356h0.824v-3.356h0.511v3.356h0.825v-3.356h0.929v-2.102
		C285.527,228.746,284.629,227.847,283.518,227.846"/>
</g>
</svg>
