<?xml version="1.0" encoding="utf-8"?>
<!-- Generator: Adobe Illustrator 16.0.0, SVG Export Plug-In . SVG Version: 6.00 Build 0)  -->
<!DOCTYPE svg PUBLIC "-//W3C//DTD SVG 1.1//EN" "http://www.w3.org/Graphics/SVG/1.1/DTD/svg11.dtd">
<svg version="1.1" xmlns="http://www.w3.org/2000/svg" xmlns:xlink="http://www.w3.org/1999/xlink" x="0px" y="0px"
	 width="595.275px" height="419.527px" viewBox="0 0 595.275 419.527" enable-background="new 0 0 595.275 419.527"
	 xml:space="preserve">
<g id="Ebene_2">
</g>
<g id="Ebene_1">
	<g>
		<g>
			<g enable-background="new    ">
				<defs>
					<polygon id="SVGID_1_" enable-background="new    " points="9.299,234.486 271.057,82.363 449.251,185.251 187.493,337.374
											"/>
				</defs>
				<clipPath id="SVGID_2_">
					<use xlink:href="#SVGID_1_"  overflow="visible"/>
				</clipPath>
				<g clip-path="url(#SVGID_2_)">
					<g>
						<g>
							<g>
								<path id="L1.03" fill="#BDD4E4" d="M106.514,209.649c-0.157-0.09-0.295-0.154-0.415-0.19c-0.224-0.062-0.427-0.055-0.617,0.033
									c-0.19,0.088-0.253,0.199-0.188,0.339c0.051,0.141,0.256,0.332,0.595,0.579c0.161,0.118,0.309,0.216,0.443,0.293
									c0.152,0.088,0.288,0.149,0.406,0.183c0.223,0.07,0.427,0.055,0.623-0.029c0.184-0.085,0.248-0.203,0.189-0.339
									c-0.064-0.141-0.27-0.339-0.614-0.59C106.783,209.816,106.643,209.724,106.514,209.649 M99.604,214.3l1.542-0.712
									l0.53,0.388l-2.425,1.12l-2.729-1.986l0.882-0.409L99.604,214.3 M103.254,212.674l0.78-0.357l0.486,0.354l-2.393,1.103
									l-0.486-0.354l0.775-0.361l-1.764-1.283l-0.665,0.468l-0.479-0.35l0.659-0.465l0.837-0.383L103.254,212.674
									 M105.085,212.408l-0.709-0.512l0.826-0.384l0.703,0.517L105.085,212.408 M105.338,211.035
									c-0.109-0.063-0.218-0.134-0.325-0.212c-0.454-0.328-0.678-0.641-0.687-0.932c0.005-0.292,0.227-0.539,0.677-0.749
									c0.45-0.203,0.921-0.277,1.405-0.21c0.38,0.051,0.746,0.179,1.099,0.383c0.109,0.063,0.217,0.133,0.324,0.21
									c0.447,0.333,0.678,0.642,0.673,0.933c0.001,0.288-0.22,0.542-0.671,0.745c-0.451,0.21-0.914,0.28-1.411,0.214
									C106.053,211.366,105.69,211.238,105.338,211.035 M107.489,208.748l-0.511-0.376c0.133-0.107,0.279-0.207,0.425-0.299
									c0.152-0.096,0.311-0.181,0.476-0.254c0.444-0.207,0.838-0.317,1.175-0.335c0.287-0.009,0.534,0.043,0.747,0.166
									c0.037,0.021,0.073,0.044,0.108,0.07c0.159,0.115,0.236,0.232,0.23,0.354c0.001,0.125-0.081,0.247-0.246,0.372
									c0.273-0.07,0.528-0.092,0.77-0.062c0.188,0.026,0.359,0.081,0.515,0.17c0.041,0.023,0.079,0.048,0.117,0.076
									c0.269,0.191,0.347,0.405,0.226,0.623c-0.119,0.225-0.43,0.45-0.924,0.678c-0.179,0.081-0.363,0.151-0.559,0.221
									c-0.197,0.063-0.407,0.118-0.629,0.166l-0.543-0.394c0.229-0.03,0.445-0.067,0.642-0.122
									c0.197-0.048,0.375-0.107,0.527-0.181c0.234-0.107,0.381-0.214,0.444-0.317c0.057-0.107,0.03-0.203-0.091-0.288
									c-0.019-0.014-0.038-0.026-0.057-0.038c-0.113-0.065-0.254-0.093-0.421-0.083c-0.19,0.015-0.413,0.077-0.661,0.192
									l-0.349,0.166l-0.454-0.335l0.368-0.169c0.223-0.1,0.362-0.195,0.419-0.288c0.05-0.088,0.018-0.173-0.091-0.258
									c-0.013-0.009-0.027-0.019-0.042-0.027c-0.101-0.058-0.221-0.083-0.366-0.076c-0.159,0.003-0.337,0.055-0.527,0.144
									c-0.146,0.063-0.279,0.14-0.4,0.225C107.692,208.556,107.584,208.648,107.489,208.748 M112.227,195.639l-0.444,0.206
									l-4.398,2.054l-25.916,12.117l-0.438,0.21l0.358,0.258l6.798,4.866l10.939,7.852l0.351,0.255l0.444-0.207l25.795-12.062
									l0.445-0.207l-0.358-0.258l-9.533-6.842l-0.588-0.42l4.075-1.902l0.444-0.207l-0.358-0.258l-7.265-5.201L112.227,195.639"/>
								<path id="L1.02" fill="#BDD4E4" d="M83.255,220.509c-0.162-0.093-0.306-0.158-0.431-0.192c-0.217-0.066-0.427-0.056-0.617,0.032
									c-0.185,0.085-0.254,0.2-0.19,0.34c0.058,0.137,0.257,0.331,0.595,0.579c0.155,0.112,0.299,0.207,0.43,0.282
									c0.16,0.092,0.3,0.156,0.42,0.192c0.229,0.066,0.433,0.052,0.617-0.032c0.19-0.089,0.254-0.2,0.189-0.34
									c-0.052-0.14-0.257-0.339-0.602-0.59C83.519,220.672,83.381,220.582,83.255,220.509 M76.329,225.156l1.548-0.715l0.53,0.387
									l-2.424,1.121l-2.729-1.987l0.876-0.405L76.329,225.156 M79.978,223.53l0.774-0.361l0.492,0.357l-2.393,1.103l-0.486-0.354
									l0.775-0.361l-1.764-1.283l-0.666,0.461l-0.473-0.347l0.652-0.461l0.845-0.387L79.978,223.53 M81.81,223.265l-0.703-0.516
									l0.819-0.38l0.709,0.513L81.81,223.265 M82.06,221.89c-0.108-0.062-0.216-0.133-0.324-0.21
									c-0.446-0.332-0.677-0.642-0.679-0.936c-0.001-0.288,0.226-0.539,0.671-0.745c0.451-0.21,0.921-0.276,1.411-0.214
									c0.374,0.053,0.738,0.182,1.091,0.386c0.109,0.063,0.218,0.134,0.325,0.212c0.455,0.327,0.672,0.637,0.681,0.929
									c-0.005,0.291-0.227,0.538-0.671,0.744c-0.45,0.21-0.928,0.28-1.411,0.214C82.778,222.222,82.414,222.094,82.06,221.89
									 M84.272,219.733l-0.601-0.435c0.146-0.13,0.298-0.247,0.463-0.358c0.165-0.11,0.342-0.206,0.533-0.294
									c0.407-0.185,0.8-0.28,1.169-0.28c0.315,0,0.588,0.066,0.825,0.203c0.041,0.023,0.081,0.049,0.119,0.077
									c0.147,0.106,0.236,0.231,0.27,0.368c0.033,0.136,0.002,0.354-0.092,0.652l-0.218,0.711l1.511-0.692l0.511,0.376
									l-2.482,1.146l-0.517-0.38l0.369-1.213c0.024-0.11,0.037-0.206,0.011-0.287s-0.077-0.147-0.16-0.21
									c-0.02-0.013-0.038-0.025-0.058-0.037c-0.12-0.069-0.256-0.107-0.415-0.11c-0.185-0.012-0.369,0.029-0.546,0.11
									c-0.133,0.062-0.26,0.151-0.38,0.258C84.467,219.45,84.36,219.578,84.272,219.733 M79.577,210.9l-0.438,0.211l-16.776,7.841
									l-0.432,0.206l0.352,0.255l4.933,3.531l12.798,9.19l0.365,0.254l0.438-0.202l16.77-7.845l0.438-0.203l-0.358-0.258
									L81.909,212.57l-1.975-1.411L79.577,210.9"/>
								<path id="L1.10" fill="#BDD4E4" d="M204.454,163.166c-0.202-0.117-0.381-0.198-0.535-0.244c-0.293-0.088-0.567-0.07-0.821,0.041
									c-0.254,0.118-0.342,0.265-0.265,0.45c0.071,0.188,0.34,0.446,0.793,0.782c0.211,0.155,0.405,0.284,0.582,0.386
									c0.204,0.118,0.385,0.2,0.542,0.248c0.293,0.088,0.573,0.074,0.827-0.044c0.254-0.111,0.336-0.262,0.258-0.446
									c-0.077-0.191-0.346-0.45-0.806-0.789C204.821,163.395,204.629,163.267,204.454,163.166 M191.142,171.198l2.07-0.944
									l0.703,0.516l-3.25,1.482l-3.611-2.658l1.181-0.538L191.142,171.198 M196.023,169.042l1.041-0.472l0.646,0.476l-3.199,1.453
									l-0.646-0.468l1.041-0.479l-2.339-1.718l-0.894,0.616l-0.633-0.468l0.894-0.608l1.124-0.512L196.023,169.042
									 M198.465,168.695l-0.933-0.686l1.098-0.505l0.939,0.689L198.465,168.695 M202.149,166.251l1.041-0.472l0.646,0.476
									l-3.199,1.453l-0.645-0.468l1.041-0.479l-2.333-1.714l-0.9,0.612l-0.626-0.465l0.888-0.612l1.124-0.512L202.149,166.251
									 M202.904,165.033c-0.153-0.088-0.303-0.187-0.452-0.297c-0.601-0.442-0.902-0.859-0.898-1.246
									c0.004-0.387,0.308-0.719,0.911-0.996c0.597-0.273,1.227-0.365,1.876-0.276c0.492,0.069,0.967,0.236,1.427,0.501
									c0.153,0.088,0.305,0.188,0.456,0.298c0.594,0.439,0.896,0.855,0.891,1.242c-0.004,0.387-0.301,0.723-0.904,0.992
									c-0.603,0.276-1.233,0.369-1.882,0.28C203.835,165.463,203.361,165.296,202.904,165.033 M208.466,164.688l-2.458-3.727
									l0.68-0.313l2.458,3.734L208.466,164.688 M212.242,161.658l1.035-0.475l0.646,0.475l-3.193,1.456l-0.652-0.472l1.047-0.476
									l-2.339-1.718l-0.894,0.616l-0.632-0.468l0.888-0.612l1.123-0.513L212.242,161.658 M216.298,159.811l1.035-0.476
									l0.646,0.476l-3.193,1.456l-0.652-0.472l1.047-0.475l-2.339-1.718l-0.894,0.616l-0.633-0.468l0.887-0.612l1.124-0.512
									L216.298,159.811 M212.235,148.037l-0.432,0.207l-39.695,18.558l-0.444,0.206l0.357,0.258l9.968,7.144l8.473,6.083
									l0.352,0.254l0.444-0.207l39.689-18.561l0.438-0.203l-0.352-0.254l-9.84-7.07l-8.601-6.156L212.235,148.037"/>
								<path id="L1.01" fill="#BDD4E4" d="M61.378,230.54c-0.157-0.09-0.295-0.153-0.415-0.189c-0.223-0.063-0.427-0.056-0.617,0.033
									c-0.19,0.088-0.253,0.198-0.189,0.339c0.052,0.141,0.256,0.332,0.596,0.578c0.161,0.118,0.309,0.216,0.443,0.294
									c0.152,0.088,0.287,0.148,0.406,0.183c0.223,0.069,0.427,0.055,0.617-0.033c0.185-0.085,0.254-0.199,0.189-0.34
									c-0.058-0.137-0.263-0.335-0.607-0.586C61.647,230.707,61.506,230.614,61.378,230.54 M54.468,235.19l1.542-0.712l0.53,0.388
									l-2.424,1.12L51.387,234l0.882-0.409L54.468,235.19 M58.117,233.564l0.774-0.361l0.486,0.354l-2.387,1.105l-0.492-0.357
									l0.781-0.357l-1.764-1.283l-0.672,0.465l-0.473-0.347l0.659-0.465l0.838-0.383L58.117,233.564 M59.948,233.3l-0.709-0.513
									l0.826-0.384l0.702,0.517L59.948,233.3 M60.201,231.926c-0.109-0.063-0.217-0.134-0.325-0.212
									c-0.454-0.327-0.678-0.642-0.687-0.933c0.005-0.291,0.226-0.538,0.677-0.748c0.444-0.206,0.921-0.276,1.405-0.21
									c0.38,0.051,0.745,0.179,1.099,0.383c0.108,0.063,0.216,0.134,0.324,0.21c0.447,0.332,0.671,0.639,0.673,0.934
									c0.001,0.287-0.227,0.538-0.671,0.744c-0.451,0.21-0.921,0.276-1.412,0.214C60.917,232.257,60.554,232.129,60.201,231.926
									 M65.715,230.066l0.774-0.361l0.486,0.354l-2.387,1.099l-0.486-0.354l0.781-0.357l-1.763-1.283l-0.672,0.465l-0.479-0.351
									l0.666-0.461l0.838-0.383L65.715,230.066 M60.478,219.833l-0.444,0.206l-20.59,9.629l-0.438,0.211l0.358,0.25l2.613,1.877
									l15.118,10.845l0.358,0.259l0.444-0.207l20.591-9.629l0.438-0.203l-0.358-0.258l-17.003-12.198l-0.729-0.523L60.478,219.833
									"/>
								<path id="L1.09" fill="#CFD0D2" d="M180.949,179.534c-0.105-0.06-0.223-0.089-0.357-0.089c-0.159,0.004-0.344,0.051-0.541,0.144
									c-0.203,0.088-0.323,0.181-0.354,0.273c-0.044,0.092,0.001,0.185,0.122,0.269c0.021,0.016,0.042,0.03,0.064,0.043
									c0.108,0.062,0.231,0.09,0.363,0.093c0.166,0,0.35-0.048,0.547-0.14c0.197-0.092,0.317-0.185,0.355-0.273
									c0.037-0.096-0.001-0.185-0.129-0.273C180.997,179.564,180.973,179.548,180.949,179.534 M178.564,177.851
									c-0.14-0.081-0.318-0.109-0.526-0.08c-0.249,0.033-0.572,0.147-1.004,0.347c-0.432,0.199-0.698,0.361-0.818,0.49
									c-0.108,0.129-0.094,0.247,0.059,0.357c0.018,0.013,0.036,0.024,0.054,0.036c0.144,0.083,0.317,0.108,0.532,0.075
									c0.248-0.033,0.579-0.151,1.01-0.35c0.431-0.199,0.704-0.358,0.812-0.487s0.088-0.243-0.065-0.354
									C178.6,177.873,178.582,177.861,178.564,177.851 M174.24,178.121l-0.652-0.479l0.882-0.409l0.665,0.479L174.24,178.121
									 M179.252,180.391c-0.043-0.024-0.084-0.051-0.125-0.08c-0.274-0.203-0.397-0.413-0.366-0.63
									c0.037-0.221,0.214-0.405,0.55-0.557c0.368-0.17,0.756-0.24,1.17-0.199c0.336,0.027,0.64,0.123,0.917,0.283
									c0.063,0.036,0.125,0.076,0.186,0.119c0.351,0.262,0.474,0.531,0.367,0.807c-0.101,0.28-0.43,0.546-0.982,0.8
									c-0.565,0.262-1.118,0.383-1.672,0.365c-0.452-0.012-0.856-0.117-1.207-0.319c-0.074-0.043-0.146-0.09-0.215-0.142
									c-0.127-0.088-0.243-0.184-0.332-0.28c-0.09-0.096-0.173-0.196-0.237-0.299l0.628-0.291c0.052,0.111,0.109,0.21,0.18,0.302
									c0.064,0.088,0.154,0.169,0.256,0.243c0.042,0.032,0.086,0.062,0.131,0.088c0.172,0.1,0.365,0.155,0.576,0.167
									c0.261,0.019,0.547-0.029,0.852-0.147c-0.159-0.026-0.299-0.062-0.439-0.114
									C179.409,180.473,179.329,180.435,179.252,180.391 M175.842,179.352c-0.059-0.034-0.116-0.07-0.17-0.11
									c-0.352-0.262-0.48-0.535-0.361-0.818c0.106-0.284,0.449-0.557,1.014-0.818c0.565-0.262,1.105-0.391,1.602-0.391
									c0.424,0,0.792,0.09,1.109,0.273c0.063,0.037,0.125,0.078,0.185,0.122c0.358,0.258,0.487,0.531,0.368,0.815
									c-0.106,0.284-0.449,0.557-1.014,0.818c-0.571,0.258-1.105,0.391-1.602,0.391
									C176.541,179.633,176.167,179.54,175.842,179.352 M173.864,174.693l0.597-0.28l0.798,0.387l0.677,0.487l-2.812,1.293
									l0.62,0.454l-0.609,0.28l-1.911-1.39l0.609-0.28l0.62,0.453l2.209-1.017L173.864,174.693 M170.873,175.67l-1.943-1.416
									l3.421-1.574l0.703,0.516l-2.748,1.265l1.227,0.899L170.873,175.67 M170.217,167.685l-0.438,0.21l-7.052,3.292l-0.444,0.207
									l0.364,0.255l18.44,13.227l0.352,0.254l0.444-0.206l2.825-1.316l4.214-1.976l0.444-0.207l-0.351-0.254l-18.441-13.227
									L170.217,167.685"/>
								<path id="L1.08" fill="#CFD0D2" d="M169.96,183.999c-0.108-0.062-0.221-0.096-0.347-0.104c-0.166-0.008-0.331,0.022-0.496,0.103
									c-0.171,0.077-0.26,0.158-0.285,0.254c-0.019,0.092,0.039,0.184,0.173,0.284c0.022,0.015,0.045,0.029,0.067,0.042
									c0.114,0.066,0.233,0.104,0.367,0.113c0.159,0.011,0.324-0.026,0.496-0.103c0.159-0.077,0.254-0.163,0.279-0.251
									c0.019-0.092-0.033-0.188-0.167-0.28C170.019,184.035,169.99,184.016,169.96,183.999 M171.38,183.366
									c-0.092-0.053-0.192-0.085-0.306-0.091c-0.134-0.011-0.268,0.015-0.4,0.077c-0.133,0.062-0.209,0.129-0.222,0.21
									c-0.012,0.074,0.04,0.155,0.148,0.239c0.019,0.013,0.037,0.025,0.057,0.037c0.095,0.055,0.201,0.087,0.307,0.093
									c0.134,0.011,0.268-0.015,0.4-0.078c0.14-0.059,0.216-0.133,0.229-0.206c0.013-0.081-0.039-0.155-0.147-0.24
									C171.423,183.393,171.401,183.379,171.38,183.366 M168.924,181.64c-0.144-0.083-0.318-0.109-0.532-0.083
									c-0.242,0.037-0.565,0.151-0.997,0.35c-0.432,0.199-0.711,0.361-0.818,0.49c-0.114,0.125-0.094,0.247,0.059,0.358
									c0.017,0.012,0.034,0.023,0.053,0.034c0.141,0.081,0.319,0.109,0.533,0.077c0.241-0.037,0.578-0.151,1.01-0.35
									c0.425-0.195,0.698-0.361,0.812-0.487c0.107-0.129,0.087-0.243-0.066-0.354C168.96,181.662,168.942,181.65,168.924,181.64
									 M164.601,181.911l-0.652-0.479l0.882-0.409l0.652,0.479L164.601,181.911 M168.721,184.963
									c-0.089-0.051-0.178-0.109-0.267-0.173c-0.357-0.258-0.537-0.494-0.544-0.704c-0.008-0.21,0.157-0.395,0.493-0.553
									c0.223-0.1,0.452-0.151,0.687-0.147c0.243,0,0.491,0.055,0.739,0.162c-0.108-0.151-0.135-0.284-0.091-0.406
									c0.044-0.122,0.164-0.229,0.367-0.317c0.28-0.133,0.591-0.173,0.91-0.114c0.237,0.04,0.477,0.129,0.716,0.267
									c0.089,0.051,0.178,0.11,0.267,0.175c0.332,0.243,0.505,0.46,0.531,0.653c0.021,0.195-0.112,0.361-0.404,0.494
									c-0.19,0.088-0.394,0.132-0.61,0.133c-0.217-0.007-0.434-0.052-0.669-0.144c0.122,0.166,0.161,0.313,0.116,0.45
									c-0.056,0.136-0.189,0.25-0.405,0.354c-0.342,0.155-0.693,0.21-1.049,0.159C169.25,185.212,168.985,185.116,168.721,184.963
									 M166.201,183.141c-0.058-0.033-0.114-0.07-0.168-0.109c-0.357-0.266-0.479-0.535-0.367-0.822
									c0.113-0.28,0.455-0.553,1.02-0.814c0.565-0.262,1.105-0.391,1.602-0.391c0.424,0,0.792,0.09,1.11,0.273
									c0.063,0.037,0.125,0.078,0.184,0.122c0.358,0.258,0.487,0.531,0.367,0.815c-0.113,0.28-0.448,0.556-1.02,0.814
									c-0.564,0.262-1.098,0.395-1.601,0.391C166.9,183.422,166.523,183.327,166.201,183.141 M164.219,178.479l0.603-0.276
									l0.799,0.387l0.664,0.487l-2.799,1.294l0.62,0.454l-0.609,0.28l-1.911-1.39l0.609-0.28l0.62,0.453l2.208-1.017
									L164.219,178.479 M161.227,179.456l-1.937-1.412l3.422-1.574l0.696,0.513l-2.748,1.271l1.233,0.896L161.227,179.456
									 M160.835,172.072l-0.431,0.207l-7.224,3.376l-0.444,0.207l0.352,0.254l18.44,13.227l0.364,0.254l0.438-0.203l5.116-2.396
									l2.101-0.984l0.438-0.203l-0.352-0.254l-18.434-13.23L160.835,172.072"/>
								<path id="L1.12" fill="#BDD4E4" d="M231.386,152.884l2.089-0.933l0.696,0.52l-3.282,1.463l-3.566-2.676l1.187-0.535L231.386,152.884
									 M236.306,150.757l1.047-0.468l0.639,0.479l-3.225,1.438l-0.639-0.479l1.054-0.464l-2.313-1.733l-0.9,0.612l-0.626-0.472
									l0.894-0.608l1.136-0.505L236.306,150.757 M238.754,150.422l-0.92-0.693l1.111-0.498l0.926,0.697L238.754,150.422
									 M242.477,148l1.047-0.468l0.639,0.479l-3.225,1.438l-0.633-0.475l1.047-0.468l-2.313-1.732l-0.9,0.612l-0.626-0.472
									l0.9-0.604l1.13-0.509L242.477,148 M242.152,145.748l-0.78-0.59c0.196-0.173,0.412-0.328,0.634-0.472
									c0.234-0.144,0.469-0.273,0.724-0.383c0.552-0.247,1.067-0.369,1.563-0.361c0.408,0.003,0.767,0.09,1.072,0.266
									c0.062,0.036,0.121,0.075,0.177,0.117c0.192,0.147,0.308,0.31,0.347,0.494c0.039,0.185-0.01,0.479-0.142,0.874l-0.319,0.94
									l2.031-0.907l0.678,0.509l-3.352,1.497l-0.678-0.509l0.532-1.611c0.05-0.147,0.056-0.276,0.023-0.383
									c-0.026-0.103-0.09-0.199-0.205-0.28c-0.03-0.022-0.062-0.044-0.095-0.062c-0.149-0.086-0.327-0.135-0.53-0.144
									c-0.242-0.015-0.484,0.037-0.731,0.144c-0.178,0.081-0.349,0.195-0.513,0.343
									C242.43,145.371,242.285,145.544,242.152,145.748 M245.234,132.609l-0.444,0.206l-30.664,14.336l-0.438,0.21l0.358,0.25
									l1.092,0.786l17.348,12.441l0.352,0.254l0.438-0.203l25.979-12.147l0.438-0.202l-0.357-0.258l-10.089-7.244l-0.594-0.424
									l4.259-1.987l0.431-0.207l-0.351-0.254l-7.399-5.301L245.234,132.609"/>
								<path id="K1.06" fill="#CFD0D2" d="M310.863,128.753l4.365-0.015l-1.332,0.774l-3.258,0.007l1.628,0.94l-1.066,0.619l-4.137-2.389
									l1.065-0.62l1.514,0.874l0.009-1.758l1.23-0.715L310.863,128.753 M311.467,126.36l0.76-0.671l1.009-0.586l3.403,1.965
									l0.933-0.542l0.733,0.424l-2.873,1.67l-0.734-0.424l0.938-0.545l-2.675-1.544l-0.767,0.674L311.467,126.36 M309.682,120.127
									l-0.402-0.232l-0.399,0.232l-12.471,7.232l-0.399,0.232l0.402,0.232l18.79,10.871l0.402,0.232l0.399-0.232l2.513-1.46
									l9.959-5.773l0.399-0.232l-0.402-0.232l-8.585-4.967l-0.896,0.521l-1.072-0.619l0.897-0.522L309.682,120.127"/>
								<path id="K1.04" fill="#CFD0D2" d="M329.544,139.54l4.366-0.015l-1.332,0.774l-3.259,0.007l1.628,0.94l-1.065,0.62l-4.138-2.389
									l1.066-0.619l1.513,0.874l0.009-1.759l1.231-0.715L329.544,139.54 M330.148,137.147l0.76-0.671l1.009-0.586l3.403,1.965
									l0.932-0.542l0.734,0.424l-2.874,1.67l-0.733-0.424l0.938-0.545l-2.675-1.545l-0.767,0.675L330.148,137.147
									 M330.598,132.226l-0.402-0.232l-0.399,0.232l-12.477,7.236l-0.4,0.232l0.402,0.232l11.026,6.374l0.396,0.236l0.399-0.232
									l12.478-7.236l0.399-0.232l-0.402-0.232l-3.066-1.775l-0.88,0.511l-1.072-0.619l0.88-0.511L330.598,132.226"/>
								<path id="K1.07" fill="#CFD0D2" d="M294.429,119.264l4.366-0.015l-1.332,0.774l-3.258,0.007l1.628,0.94l-1.065,0.62l-4.138-2.389
									l1.066-0.62l1.514,0.874l0.009-1.759l1.23-0.715L294.429,119.264 M295.033,116.872l0.759-0.671l1.009-0.586l3.404,1.965
									l0.932-0.542l0.734,0.424l-2.874,1.67l-0.734-0.424l0.939-0.546l-2.675-1.544l-0.766,0.674L295.033,116.872
									 M294.952,111.608l-0.402-0.232l-0.399,0.232l-12.47,7.233l-0.4,0.232l0.402,0.232l12.604,7.292l0.402,0.232l0.4-0.232
									l12.47-7.233l0.4-0.232l-0.402-0.232l-4.089-2.365l-0.911,0.529l-1.072-0.619l0.912-0.53L294.952,111.608"/>
								<path id="K1.08" fill="#BDD4E4" d="M281.187,111.619l4.366-0.015l-1.332,0.774l-3.258,0.007l1.628,0.94l-1.066,0.62l-4.137-2.389
									l1.065-0.62l1.507,0.87l0.016-1.755l1.23-0.715L281.187,111.619 M281.792,109.226l0.759-0.671l1.009-0.586l3.396,1.961
									l0.933-0.542l0.741,0.428l-2.874,1.67l-0.741-0.427l0.939-0.546l-2.669-1.541l-0.766,0.675L281.792,109.226
									 M283.415,104.932l-0.351-0.203l-0.394,0.177l-14.372,6.407l-0.527,0.232l0.472,0.266l11.293,6.278l0.402,0.225l0.393-0.228
									l12.49-7.244l0.399-0.232l-0.402-0.232l-2.583-1.495l-0.923,0.537l-1.072-0.619l0.924-0.538L283.415,104.932"/>
								<path id="M1.02" fill="#BDD4E4" d="M186.241,313.898c-0.23-0.132-0.491-0.165-0.802-0.104c-0.305,0.066-0.718,0.248-1.231,0.547
									c-0.521,0.302-0.837,0.545-0.958,0.726c-0.107,0.181-0.055,0.335,0.175,0.468s0.497,0.162,0.802,0.097
									c0.318-0.067,0.73-0.255,1.25-0.558c0.514-0.298,0.832-0.534,0.945-0.711C186.536,314.187,186.471,314.031,186.241,313.898
									 M179.516,314.021l1.065-0.619l0.996,0.575l-1.065,0.619L179.516,314.021 M174.638,308.992l3.152-0.73l1.354,0.782
									l-4.11,2.389l-1.009-0.582l3.007-1.748l-3.171,0.741l-0.677-0.391l1.262-1.844l-3.006,1.748l-1.009-0.583l4.11-2.389
									l1.36,0.785L174.638,308.992 M179.104,310.087l0.724-0.42l1.154,0.438l1.015,0.586l-3.381,1.965l0.945,0.546l-0.729,0.424
									l-2.892-1.67l0.73-0.424l0.938,0.542l2.657-1.545L179.104,310.087 M182.701,315.956c-0.542-0.313-0.774-0.667-0.699-1.051
									c0.067-0.387,0.446-0.778,1.125-1.173c0.685-0.397,1.358-0.619,2.027-0.659c0.661-0.045,1.273,0.089,1.815,0.401
									c0.542,0.313,0.774,0.668,0.7,1.051c-0.074,0.384-0.447,0.778-1.132,1.176c-0.68,0.395-1.359,0.612-2.021,0.656
									C183.855,316.402,183.244,316.269,182.701,315.956 M187.974,315.385l0.901-0.523c0.319,0.088,0.618,0.195,0.893,0.302
									c0.274,0.114,0.529,0.232,0.752,0.361c0.498,0.288,0.774,0.571,0.826,0.859c0.06,0.283-0.099,0.538-0.486,0.763
									c-0.228,0.133-0.495,0.221-0.807,0.262c-0.312,0.048-0.814,0.06-1.515,0.029l-1.648-0.062l1.819,1.051l-0.78,0.453
									l-3.007-1.736l0.78-0.453l2.839,0.104c0.255,0.007,0.464-0.004,0.649-0.037c0.184-0.025,0.336-0.078,0.457-0.147
									c0.196-0.114,0.279-0.243,0.271-0.388c-0.013-0.14-0.129-0.272-0.346-0.397c-0.166-0.096-0.383-0.185-0.65-0.259
									C188.656,315.491,188.337,315.432,187.974,315.385 M178.158,296.894l-0.401-0.232l-0.399,0.232l-24.066,13.957l-0.4,0.232
									l0.402,0.231l15.228,8.807l13.625,7.882l0.402,0.232l0.4-0.232l24.054-13.956l0.406-0.236l-0.402-0.232l-19.76-11.432
									L178.158,296.894"/>
								<path fill="#CFD0D2" d="M223.683,276.961l1.725-1.002l1.711,0.987l1.7-0.987l1.711,0.987l1.7-0.987l1.717,0.991l1.7-0.988
									l1.73,0.999l-6.825,3.967l-3.421-1.976L223.683,276.961 M261.153,244.053l-0.403-0.232l-0.4,0.232l-19.866,11.545
									l-20.876,12.11l-10.592-6.123l-0.402-0.232l-0.399,0.232l-75.18,43.603l-0.394,0.229l0.396,0.235l30.035,17.621l0.409,0.236
									l0.406-0.236l3.318-1.928l0.393-0.229l-0.396-0.236l-16.944-9.799l26.838-15.567l0.076-0.044l26.756-15.52l16.952,9.802
									l0.402,0.232l0.4-0.232l58.75-34.077l0.4-0.232l-0.402-0.232L261.153,244.053"/>
								<path id="M1.01" fill="#BDD4E4" d="M211.613,299.153c-0.23-0.133-0.49-0.166-0.802-0.104c-0.305,0.066-0.717,0.247-1.231,0.546
									c-0.521,0.303-0.837,0.545-0.958,0.727c-0.107,0.181-0.055,0.335,0.175,0.468c0.229,0.133,0.497,0.162,0.802,0.096
									c0.318-0.066,0.73-0.255,1.25-0.557c0.513-0.299,0.831-0.534,0.945-0.711C211.908,299.441,211.843,299.286,211.613,299.153
									 M204.888,299.275l1.065-0.619l0.996,0.574l-1.065,0.619L204.888,299.275 M200.011,294.246l3.152-0.729l1.354,0.781
									l-4.11,2.389l-1.009-0.582l3.006-1.747l-3.171,0.74l-0.677-0.391l1.262-1.843l-3.006,1.747l-1.009-0.582l4.11-2.389
									l1.36,0.785L200.011,294.246 M204.478,295.342l0.723-0.42l1.154,0.438l1.015,0.586l-3.381,1.965l0.945,0.546l-0.729,0.424
									l-2.892-1.669l0.729-0.425l0.938,0.542l2.657-1.544L204.478,295.342 M213.678,300.653l0.723-0.42l1.161,0.442l1.009,0.582
									l-3.381,1.965l0.945,0.546l-0.729,0.424l-2.893-1.67l0.73-0.424l0.938,0.542l2.658-1.545L213.678,300.653 M208.074,301.21
									c-0.542-0.313-0.774-0.667-0.699-1.05c0.067-0.388,0.447-0.778,1.126-1.173c0.685-0.398,1.358-0.619,2.026-0.659
									c0.661-0.045,1.273,0.088,1.815,0.401c0.542,0.313,0.774,0.667,0.7,1.051c-0.074,0.383-0.447,0.777-1.132,1.176
									c-0.679,0.395-1.359,0.612-2.02,0.656C209.229,301.656,208.617,301.523,208.074,301.21 M204.337,281.709l-0.402-0.232
									l-0.4,0.232l-24.066,13.957l-0.399,0.232l0.402,0.231l14.429,8.347l14.423,8.342l0.403,0.232l0.399-0.232l24.06-13.952
									l0.4-0.232l-0.403-0.232L204.337,281.709"/>
								<polyline fill="#CFD0D2" points="396.363,195.853 391.677,193.147 391.274,192.915 390.875,193.147 307.525,241.498
									307.125,241.73 307.527,241.963 311.62,244.325 329.158,254.474 329.561,254.706 329.961,254.475 413.324,206.13
									413.724,205.898 413.32,205.666 396.363,195.853 								"/>
								<path fill="#EC7405" d="M303.158,257.327l-0.114-0.066l-0.514,0.299c-0.203,0.118-0.322,0.232-0.36,0.328
									c-0.025,0.103,0.026,0.191,0.16,0.269c0.128,0.074,0.262,0.107,0.414,0.1c0.159-0.003,0.312-0.055,0.457-0.14
									c0.185-0.106,0.279-0.236,0.271-0.388C303.466,257.578,303.356,257.441,303.158,257.327 M308.42,253.567
									c-0.191-0.11-0.396-0.163-0.625-0.17c-0.229,0-0.426,0.048-0.604,0.151c-0.19,0.11-0.285,0.232-0.297,0.365
									c-0.018,0.129,0.065,0.265,0.244,0.397L308.42,253.567 M314.37,250.109c-0.191-0.111-0.39-0.166-0.618-0.174
									c-0.229,0-0.427,0.048-0.604,0.151c-0.19,0.11-0.285,0.232-0.297,0.365c-0.018,0.129,0.065,0.266,0.244,0.398
									L314.37,250.109 M297.527,259.69c0.428,0.247,0.875,0.38,1.332,0.395c0.459,0.015,0.878-0.089,1.259-0.31
									c0.209-0.122,0.38-0.259,0.507-0.405c0.133-0.145,0.221-0.313,0.283-0.506l0.855,0.494
									c-0.088,0.169-0.214,0.332-0.379,0.487c-0.158,0.15-0.354,0.294-0.583,0.427c-0.686,0.398-1.416,0.602-2.198,0.612
									c-0.789,0.008-1.51-0.174-2.173-0.557c-0.657-0.38-0.978-0.8-0.967-1.257c0.016-0.453,0.363-0.878,1.048-1.276
									c0.229-0.133,0.476-0.246,0.736-0.338c0.267-0.097,0.547-0.171,0.839-0.222l0.855,0.494
									c-0.331,0.037-0.617,0.092-0.871,0.166c-0.254,0.073-0.489,0.173-0.699,0.294c-0.38,0.222-0.557,0.465-0.53,0.73
									C296.875,259.189,297.1,259.443,297.527,259.69 M299.564,257.405c0.164-0.155,0.336-0.299,0.519-0.443
									c0.185-0.136,0.387-0.269,0.597-0.391c0.558-0.324,1.066-0.493,1.537-0.509c0.465-0.018,0.955,0.118,1.446,0.402
									l1.775,1.025l-0.996,0.578l-0.46-0.266c0.052,0.185,0.047,0.351-0.035,0.494c-0.075,0.147-0.24,0.287-0.475,0.424
									c-0.324,0.188-0.674,0.287-1.062,0.291c-0.382,0.008-0.726-0.073-1.026-0.247c-0.363-0.21-0.505-0.438-0.43-0.682
									c0.081-0.239,0.386-0.512,0.919-0.822l0.583-0.339l-0.083-0.048c-0.153-0.088-0.332-0.118-0.529-0.093
									c-0.196,0.033-0.426,0.122-0.687,0.273c-0.209,0.121-0.379,0.25-0.525,0.38c-0.133,0.129-0.24,0.265-0.315,0.405
									L299.564,257.405 M302.873,255.134c-0.338-0.195-0.492-0.394-0.468-0.601c0.024-0.199,0.233-0.417,0.626-0.645l0.756-0.439
									l0.65,0.376l-0.546,0.317c-0.139,0.081-0.215,0.154-0.215,0.213c-0.006,0.063,0.059,0.13,0.186,0.203l0.218,0.126
									l0.844-0.49l0.709,0.409l-0.844,0.49l2.394,1.382l-0.989,0.575l-2.395-1.382l-0.488,0.283l-0.709-0.409l0.488-0.283
									L302.873,255.134 M306.462,255.097c-0.504-0.291-0.748-0.607-0.743-0.95c0.017-0.344,0.289-0.672,0.821-0.981
									c0.482-0.28,1.022-0.424,1.602-0.42c0.586,0,1.127,0.144,1.612,0.424l0.288,0.166l-2.303,1.339
									c0.255,0.117,0.51,0.169,0.771,0.158c0.261-0.019,0.521-0.104,0.775-0.251c0.209-0.122,0.387-0.262,0.545-0.428
									c0.158-0.158,0.284-0.343,0.385-0.55l0.766,0.443c-0.146,0.188-0.303,0.361-0.493,0.522
									c-0.189,0.163-0.399,0.307-0.634,0.442c-0.559,0.325-1.136,0.498-1.728,0.51
									C307.533,255.539,306.979,255.396,306.462,255.097 M307.893,251.447l0.983-0.571l0.881,0.509l1.015-0.59l0.709,0.409
									l-1.015,0.59l1.314,0.76c0.141,0.081,0.274,0.121,0.383,0.118c0.108-0.004,0.242-0.052,0.413-0.151l0.508-0.295l0.709,0.409
									l-0.844,0.49c-0.394,0.229-0.75,0.339-1.081,0.339c-0.317,0-0.682-0.114-1.07-0.339l-1.315-0.76l-0.488,0.284l-0.709-0.409
									l0.488-0.284L307.893,251.447 M312.412,251.639c-0.505-0.291-0.748-0.607-0.737-0.954c0.017-0.343,0.289-0.671,0.821-0.98
									c0.482-0.28,1.017-0.421,1.602-0.421c0.586,0,1.127,0.144,1.613,0.424l0.287,0.166l-2.303,1.339
									c0.255,0.117,0.51,0.169,0.771,0.158c0.261-0.019,0.521-0.104,0.775-0.251c0.209-0.121,0.387-0.262,0.538-0.424
									c0.165-0.162,0.291-0.346,0.392-0.553l0.767,0.442c-0.146,0.188-0.304,0.361-0.494,0.523
									c-0.189,0.162-0.405,0.31-0.634,0.442c-0.558,0.324-1.136,0.498-1.728,0.509C313.49,252.078,312.93,251.938,312.412,251.639
									 M306.208,242.722l-0.402-0.232l-0.399,0.232l-21.536,12.493l-0.399,0.232l0.402,0.232l21.638,12.516l0.401,0.231l0.4-0.232
									l21.535-12.492l0.399-0.232l-0.402-0.232L306.208,242.722"/>
								<path fill="#CFD0D2" d="M216.742,258.153l1.719-0.999l1.717,0.991l1.707-0.991l1.711,0.988l1.7-0.988l1.711,0.988l1.7-0.988
									l1.736,1.002l-6.825,3.967l-3.429-1.979L216.742,258.153 M228.18,250.471l-0.402-0.232l-0.4,0.232l-17.044,9.891l-0.4,0.232
									l0.402,0.232l8.862,5.124l0.403,0.231l0.4-0.231l17.05-9.888l0.399-0.231l-0.402-0.232L228.18,250.471"/>
								<path fill="#EC7405" d="M325.348,213.949c-0.28-0.162-0.593-0.247-0.93-0.25c-0.338-0.004-0.63,0.069-0.896,0.225
									c-0.285,0.166-0.443,0.347-0.455,0.546c-0.018,0.194,0.104,0.397,0.359,0.597L325.348,213.949 M341.529,205.604l-0.173-0.1
									l-0.773,0.45c-0.305,0.177-0.488,0.343-0.531,0.494c-0.057,0.151,0.026,0.287,0.23,0.405
									c0.186,0.107,0.396,0.155,0.631,0.144c0.229-0.007,0.458-0.081,0.681-0.209c0.278-0.162,0.417-0.354,0.403-0.583
									C341.989,205.979,341.829,205.776,341.529,205.604 M310.953,218.41l2.023-1.176l4.721,1.102l-1.904-2.738l2.017-1.173
									l6.206,3.583l-1.503,0.874l-4.539-2.621l1.924,2.758l-1.009,0.586l-4.766-1.106l4.539,2.621l-1.504,0.874L310.953,218.41
									 M322.414,216.246c-0.759-0.438-1.124-0.914-1.102-1.431c0.021-0.516,0.427-1.002,1.226-1.467
									c0.729-0.424,1.524-0.634,2.402-0.634s1.682,0.214,2.422,0.641l0.421,0.244l-3.45,2.005c0.383,0.185,0.771,0.262,1.16,0.236
									c0.394-0.022,0.775-0.147,1.162-0.372c0.311-0.181,0.583-0.392,0.811-0.635c0.24-0.243,0.437-0.52,0.588-0.829l1.148,0.664
									c-0.215,0.279-0.461,0.541-0.746,0.781c-0.285,0.247-0.603,0.468-0.951,0.671c-0.837,0.486-1.695,0.74-2.585,0.763
									C324.022,216.909,323.188,216.692,322.414,216.246 M325.743,211.612l1.478-0.859l0.683,0.395
									c-0.053-0.288-0.009-0.542,0.11-0.76c0.126-0.221,0.335-0.417,0.64-0.593c0.533-0.31,1.098-0.454,1.71-0.424
									c0.604,0.033,1.223,0.229,1.848,0.59l2.835,1.637l-1.484,0.862l-0.459-0.265l-1.711-0.988
									c-0.396-0.229-0.689-0.383-0.855-0.464c-0.173-0.078-0.312-0.122-0.428-0.137c-0.159-0.026-0.305-0.022-0.464,0.004
									c-0.152,0.029-0.299,0.077-0.419,0.147c-0.312,0.18-0.431,0.39-0.366,0.633c0.059,0.24,0.302,0.483,0.729,0.73l2.286,1.319
									l-1.479,0.859L325.743,211.612 M333.687,208.512c0.121,0.07,0.261,0.092,0.427,0.07c0.165-0.022,0.4-0.1,0.698-0.243
									l0.299-0.129c0.85-0.383,1.518-0.586,2.001-0.608c0.489-0.026,0.962,0.1,1.434,0.373c0.498,0.287,0.697,0.608,0.579,0.966
									c-0.113,0.354-0.531,0.737-1.255,1.157c-0.304,0.177-0.646,0.346-1.021,0.512c-0.375,0.159-0.781,0.313-1.22,0.457
									l-1.131-0.652c0.433-0.088,0.847-0.203,1.227-0.343c0.388-0.136,0.73-0.298,1.055-0.486
									c0.285-0.166,0.462-0.314,0.525-0.446c0.069-0.129,0.024-0.244-0.135-0.336c-0.129-0.074-0.281-0.103-0.446-0.081
									c-0.166,0.022-0.413,0.107-0.757,0.262l-0.292,0.133c-0.735,0.332-1.353,0.512-1.842,0.538
									c-0.49,0.019-0.961-0.1-1.421-0.365c-0.492-0.284-0.691-0.589-0.591-0.921c0.094-0.335,0.492-0.7,1.189-1.106
									c0.273-0.159,0.578-0.313,0.914-0.464c0.343-0.147,0.736-0.302,1.175-0.453l1.13,0.652
									c-0.444,0.103-0.852,0.229-1.213,0.357c-0.362,0.137-0.667,0.276-0.934,0.431c-0.279,0.162-0.456,0.303-0.52,0.42
									C333.494,208.328,333.54,208.427,333.687,208.512 M336.14,205.718c0.24-0.229,0.494-0.45,0.772-0.656
									c0.286-0.21,0.583-0.405,0.9-0.59c0.838-0.486,1.606-0.741,2.3-0.767c0.7-0.022,1.433,0.181,2.173,0.608l2.656,1.534
									l-1.49,0.866l-0.689-0.398c0.084,0.284,0.066,0.531-0.053,0.749c-0.12,0.217-0.354,0.427-0.71,0.634
									c-0.481,0.28-1.01,0.424-1.588,0.435c-0.58,0.011-1.096-0.11-1.543-0.369c-0.549-0.317-0.767-0.656-0.648-1.021
									c0.12-0.365,0.581-0.774,1.381-1.239l0.875-0.509l-0.121-0.07c-0.236-0.136-0.503-0.18-0.796-0.136
									c-0.293,0.044-0.63,0.181-1.022,0.409c-0.317,0.185-0.577,0.373-0.793,0.564c-0.208,0.196-0.366,0.398-0.474,0.608
									L336.14,205.718 M402.981,184.595l-0.573-0.221l-23.978-8.737l-0.389-0.151l-0.33,0.192l-6.317,3.752l-1.708,0.991
									l0.002,0.001l-0.002-0.001l-19.065,11.053l-0.66,0.383l-10.362-6.005l-0.402-0.232l-0.399,0.232l-87.309,50.637l-0.4,0.232
									l0.402,0.232l30.251,17.495l0.402,0.231l0.399-0.231l5.228-3.03l16.315-9.459l0.735-0.428l0.387-0.225l63.553-36.861
									l20.8-12.065l12.934-7.502L402.981,184.595"/>
								<path fill="#EC7405" d="M127.534,197.084l-7.118-5.095l7.497-3.299l7.118,5.102L127.534,197.084 M128.006,188.237
									l-0.432,0.191l-7.503,3.296l-0.458,0.206l0.364,0.262l7.118,5.102l0.345,0.25l0.438-0.195l7.497-3.299l0.463-0.203
									l-0.364-0.261l-7.118-5.102L128.006,188.237"/>
								<polyline fill="#EC7405" points="127.913,188.69 120.416,191.989 127.534,197.084 135.031,193.792 127.913,188.69
									"/>
								<path fill="#EC7405" d="M260.628,133.648l-6.696-4.792l7.479-3.259l6.696,4.8L260.628,133.648 M261.503,125.144
									l-0.438,0.188l-7.479,3.259l-0.463,0.203l0.371,0.265l6.69,4.796l0.345,0.251l0.432-0.192l7.485-3.255l0.469-0.207
									l-0.371-0.265l-6.696-4.8L261.503,125.144"/>
								<polyline fill="#EC7405" points="261.411,125.597 253.932,128.856 260.628,133.648 268.107,130.397 261.411,125.597
																	"/>
								<path fill="#CFD0D2" d="M139.152,201.25l1.885-0.867l1.527,1.11l-7.573,3.483l-3.009-2.193l-3.029-2.204l1.91-0.881
									l1.508,1.098l1.885-0.866l1.501,1.095l1.892-0.871L139.152,201.25 M166.929,164.736l1.739-0.803l1.406,1.024l-6.982,3.215
									l-2.78-2.024l-2.799-2.035l1.765-0.811l1.387,1.014l1.746-0.8l1.386,1.006l1.74-0.796L166.929,164.736 M272.986,138.05
									l1.886-0.866l1.527,1.109l-7.572,3.484l-3.01-2.193l-3.029-2.205l1.91-0.881l1.508,1.099l1.885-0.866l1.508,1.091
									l1.885-0.866L272.986,138.05 M361.317,155.085l1.153-0.818l1.392,0.664l1.141-0.811l1.404,0.664l1.135-0.807l1.403,0.664
									l1.135-0.807l1.416,0.67l-4.57,3.241l-2.801-1.324L361.317,155.085 M376.325,155.27l-0.594-0.195l-2.837-0.94
									l-29.106-14.366l-0.402-0.195l-0.368,0.214l-14.266,8.276l-13.81-7.988l-1.066-0.616l-18.784-10.868l-15.853-9.168
									l-12.608-7.015l-0.351-0.196l-0.388,0.174l-5.497,2.418L29.692,222.679l-0.438,0.21l0.352,0.255l7.866,5.636l0.364,0.255
									l0.432-0.207l22.926-10.72l19.105-8.929l28.01-13.097l4.189-1.961l10.325,7.396l-4.075,1.902l-0.438,0.21l0.351,0.254
									l8.588,6.164l0.357,0.258l0.445-0.207l17.981-8.409l0.444-0.207l-0.358-0.258l-8.754-6.282l-0.345-0.25l-0.444,0.191
									l-9.446,4.151l-9.578-6.861l-0.601-0.435l11.363-4.999l9.903,7.004l0.358,0.258l0.431-0.206l21.638-10.111l0.438-0.21
									l-0.351-0.255l-10.613-7.524l10.276-4.803l1.155-0.546l9.381-4.387l42.019-19.648l32.555-15.221l10.466,7.498l-4.247,1.987
									l-0.444,0.207l0.358,0.258l9.144,6.565l0.364,0.254l0.438-0.203l18.509-8.656l0.444-0.206l-0.364-0.254l-9.738-6.997
									l-0.352-0.248l-0.432,0.192l-9.434,4.107l-9.156-6.558l-0.607-0.438l11.363-4.948l6.799,4.874l0.358,0.258l0.444-0.207
									l7.693-3.598l45.101,26.085l16.302,7.465l0.428,0.195l0.354-0.243l11.316-7.708l18.798,8.737l0.434,0.199l0.355-0.244
									l5.686-3.896L376.325,155.27"/>
								<path id="K1.01" fill="#BDD4E4" d="M398.509,170.169c-0.044-0.025-0.094-0.048-0.151-0.069c-0.269-0.104-0.549-0.104-0.827,0
									c-0.273,0.107-0.604,0.335-0.996,0.689c-0.393,0.361-0.613,0.638-0.657,0.826c-0.039,0.153,0.029,0.275,0.196,0.371
									c0.041,0.024,0.089,0.047,0.144,0.067c0.274,0.1,0.548,0.096,0.827-0.007c0.273-0.106,0.609-0.339,1.008-0.696
									c0.387-0.358,0.602-0.63,0.645-0.819C398.73,170.383,398.67,170.262,398.509,170.169 M391.839,171.062l0.812-0.737
									l1.186,0.435l-0.805,0.741L391.839,171.062 M390.197,166.461l-3.848,0.475l0.975,2.466l-1.594-0.59l-0.736-1.843
									l-1.222,1.125l-1.27-0.468l3.115-2.853l1.269,0.468l-1.133,1.043l2.97-0.365L390.197,166.461 M389.966,167.269l0.545-0.501
									l1.3,0.288l1.205,0.446l-2.564,2.341l1.122,0.413l-0.55,0.505l-3.45-1.265l0.557-0.509l1.123,0.413l2.013-1.843
									L389.966,167.269 M395.192,172.333c-0.349-0.201-0.549-0.439-0.601-0.718c-0.072-0.387,0.147-0.818,0.661-1.287
									c0.525-0.476,1.097-0.778,1.732-0.903c0.629-0.122,1.271-0.067,1.922,0.169c0.181,0.067,0.34,0.14,0.476,0.218
									c0.351,0.203,0.552,0.442,0.6,0.718c0.071,0.387-0.148,0.818-0.668,1.29c-0.519,0.472-1.09,0.774-1.726,0.899
									c-0.63,0.122-1.266,0.07-1.923-0.169C395.485,172.484,395.328,172.412,395.192,172.333 M400.929,171.305l0.55-0.498
									l1.294,0.284l1.205,0.445l-2.563,2.341l1.122,0.413l-0.551,0.505l-3.444-1.268l0.552-0.505l1.122,0.413l2.014-1.843
									L400.929,171.305 M425.494,171.534l-0.644-0.21l-46.467-15.373l-0.408-0.14l-0.298,0.21l-7.582,5.19l-18.804-8.741
									l-0.434-0.199l-0.355,0.243l-9.712,6.621l-0.381,0.258l0.467,0.21l8.485,3.886l54.568,20.175l0.39,0.151l0.33-0.191
									l20.317-11.785L425.494,171.534"/>
								<path fill="#CFD0D2" d="M347.546,182.239l1.726-1.003l1.717,0.992l1.7-0.988l1.711,0.988l1.7-0.988l1.711,0.988l1.707-0.992
									l1.729,0.999l-6.831,3.97l-3.423-1.976L347.546,182.239 M359.307,174.42l-0.402-0.232l-0.399,0.232l-8.83,5.117
									l-8.766,5.087l-0.399,0.232l0.401,0.232l8.646,5.006l0.402,0.232l0.399-0.232l17.596-10.204l0.399-0.232l-0.402-0.232
									l1.735,0.994l0.002,0.001l-0.002-0.001L359.307,174.42"/>
								<polyline fill="#FFFFFF" points="204.517,294.298 203.163,293.517 200.011,294.246 201.273,292.426 199.913,291.641
									195.803,294.029 196.812,294.611 199.818,292.864 198.556,294.707 199.233,295.098 202.404,294.357 199.397,296.104
									200.406,296.687 204.517,294.298 								"/>
								<polyline fill="#FFFFFF" points="207.37,295.945 206.355,295.359 205.201,294.922 204.478,295.342 205.638,295.784
									202.98,297.328 202.042,296.786 201.313,297.211 204.205,298.88 204.934,298.456 203.989,297.91 207.37,295.945 								"/>
								<polyline fill="#FFFFFF" points="206.949,299.23 205.954,298.656 204.888,299.275 205.884,299.85 206.949,299.23
									"/>
								<path fill="#FFFFFF" d="M208.798,300.79c-0.23-0.133-0.282-0.287-0.175-0.468c0.12-0.182,0.437-0.424,0.958-0.727
									c0.514-0.299,0.926-0.479,1.231-0.546c0.312-0.062,0.572-0.029,0.802,0.104s0.295,0.288,0.182,0.465
									c-0.114,0.177-0.432,0.412-0.945,0.711c-0.521,0.302-0.932,0.49-1.25,0.557C209.294,300.952,209.027,300.923,208.798,300.79
									 M212.343,298.729c-0.542-0.313-1.154-0.446-1.815-0.401c-0.668,0.04-1.342,0.261-2.026,0.659
									c-0.679,0.395-1.059,0.785-1.126,1.173c-0.075,0.383,0.157,0.736,0.699,1.05s1.154,0.446,1.816,0.402
									c0.661-0.044,1.341-0.262,2.02-0.656c0.685-0.398,1.058-0.793,1.132-1.176C213.117,299.396,212.885,299.043,212.343,298.729
									"/>
								<polyline fill="#FFFFFF" points="216.571,301.258 215.562,300.676 214.401,300.233 213.678,300.653 214.839,301.096
									212.181,302.641 211.243,302.099 210.513,302.522 213.405,304.192 214.135,303.769 213.19,303.223 216.571,301.258
									"/>
								<polyline fill="#FFFFFF" points="333.91,139.524 329.544,139.54 329.563,137.258 328.332,137.973 328.323,139.731
									326.811,138.857 325.744,139.477 329.882,141.866 330.947,141.246 329.319,140.306 332.578,140.299 333.91,139.524
									"/>
								<polyline fill="#FFFFFF" points="336.986,137.737 336.252,137.313 335.32,137.854 331.917,135.89 330.908,136.476
									330.148,137.147 330.876,137.567 331.643,136.893 334.317,138.438 333.379,138.983 334.112,139.407 336.986,137.737
																	"/>
								<polyline fill="#FFFFFF" points="338.661,136.764 337.588,136.145 337.479,136.208 336.599,136.719 337.671,137.338
									338.551,136.828 338.661,136.764 								"/>
								<path fill="#C6C7C9" d="M338.21,134.622c-0.518-0.298-0.831-0.538-0.946-0.715c-0.115-0.177-0.06-0.335,0.169-0.468
									s0.496-0.162,0.808-0.1c0.307,0.066,0.715,0.251,1.232,0.549c0.523,0.302,0.849,0.542,0.965,0.726
									c0.115,0.177,0.065,0.332-0.163,0.465s-0.502,0.166-0.808,0.099C339.154,135.108,338.733,134.924,338.21,134.622
									 M340.544,133.28c-0.689-0.398-1.365-0.619-2.027-0.664c-0.668-0.048-1.272,0.088-1.812,0.402s-0.772,0.664-0.694,1.055
									c0.079,0.383,0.463,0.774,1.152,1.172c0.684,0.395,1.359,0.616,2.021,0.66c0.668,0.041,1.278-0.092,1.817-0.406
									s0.767-0.667,0.688-1.05C341.611,134.065,341.228,133.674,340.544,133.28"/>
								<path fill="#C6C7C9" d="M341.987,133.062l-0.569-1.674l1.73,0.999L341.987,133.062 M345.507,131.912l-0.772-0.446
									l-0.584,0.339l-2.611-1.508l-1.18,0.686l0.828,2.381l0.913,0.527l1.82-1.058l0.753,0.435l1.003-0.582l-0.754-0.435
									L345.507,131.912"/>
								<polyline fill="#FFFFFF" points="324.016,218.008 317.81,214.425 315.793,215.598 317.697,218.336 312.977,217.234
									310.953,218.41 317.158,221.993 318.662,221.119 314.123,218.498 318.889,219.604 319.897,219.019 317.974,216.261
									322.513,218.882 324.016,218.008 								"/>
								<path fill="#FFFFFF" d="M323.426,215.066c-0.255-0.199-0.377-0.402-0.359-0.597c0.012-0.199,0.17-0.38,0.455-0.546
									c0.267-0.155,0.559-0.229,0.896-0.225c0.337,0.003,0.649,0.088,0.93,0.25L323.426,215.066 M327.783,213.6l-0.421-0.244
									c-0.74-0.427-1.544-0.641-2.422-0.641s-1.673,0.21-2.402,0.634c-0.799,0.465-1.204,0.951-1.226,1.467
									c-0.022,0.517,0.343,0.992,1.102,1.431c0.773,0.446,1.608,0.663,2.506,0.638c0.89-0.022,1.748-0.276,2.585-0.763
									c0.349-0.203,0.666-0.424,0.951-0.671c0.285-0.24,0.531-0.502,0.746-0.781l-1.148-0.664
									c-0.151,0.31-0.348,0.586-0.588,0.829c-0.228,0.243-0.5,0.454-0.811,0.635c-0.387,0.225-0.769,0.35-1.162,0.372
									c-0.389,0.025-0.777-0.052-1.16-0.236L327.783,213.6"/>
								<path fill="#FFFFFF" d="M335.046,211.598l-2.835-1.637c-0.625-0.361-1.243-0.557-1.848-0.59
									c-0.612-0.03-1.177,0.114-1.71,0.424c-0.305,0.177-0.514,0.372-0.64,0.593c-0.119,0.218-0.163,0.472-0.11,0.76l-0.683-0.395
									l-1.478,0.859l4.653,2.688l1.479-0.859l-2.286-1.319c-0.428-0.247-0.671-0.49-0.729-0.73
									c-0.064-0.243,0.055-0.453,0.366-0.633c0.12-0.07,0.267-0.118,0.419-0.147c0.159-0.026,0.305-0.03,0.464-0.004
									c0.115,0.015,0.255,0.059,0.428,0.137c0.166,0.081,0.459,0.235,0.855,0.464l1.711,0.988l0.459,0.265L335.046,211.598"/>
								<path fill="#FFFFFF" d="M338.545,207.974c-0.472-0.273-0.944-0.398-1.434-0.373c-0.483,0.022-1.151,0.225-2.001,0.608
									l-0.299,0.129c-0.298,0.144-0.533,0.221-0.698,0.243c-0.166,0.022-0.306,0-0.427-0.07c-0.146-0.084-0.192-0.184-0.123-0.306
									c0.063-0.118,0.24-0.258,0.52-0.42c0.267-0.155,0.571-0.294,0.934-0.431c0.361-0.129,0.769-0.254,1.213-0.357l-1.13-0.652
									c-0.438,0.151-0.832,0.306-1.175,0.453c-0.336,0.151-0.641,0.306-0.914,0.464c-0.697,0.406-1.096,0.771-1.189,1.106
									c-0.101,0.332,0.099,0.638,0.591,0.921c0.46,0.266,0.931,0.384,1.421,0.365c0.489-0.026,1.106-0.206,1.842-0.538
									l0.292-0.133c0.344-0.155,0.591-0.24,0.757-0.262c0.165-0.022,0.317,0.007,0.446,0.081c0.159,0.092,0.204,0.207,0.135,0.336
									c-0.063,0.132-0.24,0.28-0.525,0.446c-0.324,0.188-0.667,0.35-1.055,0.486c-0.38,0.14-0.794,0.254-1.227,0.343l1.131,0.652
									c0.438-0.144,0.845-0.298,1.22-0.457c0.374-0.166,0.717-0.335,1.021-0.512c0.724-0.42,1.142-0.804,1.255-1.157
									C339.242,208.582,339.043,208.261,338.545,207.974"/>
								<path fill="#FFFFFF" d="M340.282,206.853c-0.204-0.118-0.287-0.254-0.23-0.405c0.043-0.151,0.227-0.317,0.531-0.494
									l0.773-0.45l0.173,0.1c0.3,0.173,0.46,0.376,0.468,0.601c0.014,0.228-0.125,0.42-0.403,0.583
									c-0.223,0.129-0.451,0.203-0.681,0.209C340.678,207.008,340.468,206.96,340.282,206.853 M344.941,205.847l-2.656-1.534
									c-0.74-0.427-1.473-0.63-2.173-0.608c-0.693,0.026-1.462,0.28-2.3,0.767c-0.317,0.185-0.614,0.38-0.9,0.59
									c-0.278,0.207-0.532,0.427-0.772,0.656l1.13,0.652c0.107-0.21,0.266-0.413,0.474-0.608c0.216-0.191,0.476-0.379,0.793-0.564
									c0.393-0.229,0.729-0.365,1.022-0.409c0.293-0.044,0.56,0,0.796,0.136l0.121,0.07l-0.875,0.509
									c-0.8,0.464-1.261,0.874-1.381,1.239c-0.118,0.365,0.1,0.704,0.648,1.021c0.447,0.258,0.963,0.379,1.543,0.369
									c0.578-0.011,1.106-0.155,1.588-0.435c0.355-0.207,0.59-0.417,0.71-0.634c0.119-0.218,0.137-0.465,0.053-0.749l0.689,0.398
									L344.941,205.847"/>
								<path fill="#FFFFFF" d="M301.764,259.358l-0.855-0.494c-0.062,0.192-0.15,0.361-0.283,0.506
									c-0.127,0.146-0.298,0.283-0.507,0.405c-0.381,0.221-0.8,0.324-1.259,0.31c-0.458-0.015-0.904-0.147-1.332-0.395
									s-0.652-0.501-0.685-0.771c-0.027-0.266,0.15-0.509,0.53-0.73c0.209-0.121,0.444-0.221,0.699-0.294
									c0.254-0.074,0.54-0.129,0.871-0.166l-0.855-0.494c-0.292,0.051-0.572,0.125-0.839,0.222
									c-0.26,0.092-0.508,0.205-0.736,0.338c-0.685,0.398-1.032,0.823-1.048,1.276c-0.011,0.457,0.31,0.877,0.967,1.257
									c0.664,0.383,1.384,0.564,2.173,0.557c0.782-0.011,1.513-0.214,2.198-0.612c0.229-0.133,0.425-0.276,0.583-0.427
									C301.55,259.69,301.676,259.527,301.764,259.358"/>
								<path fill="#FFFFFF" d="M302.33,258.156c-0.134-0.077-0.186-0.166-0.16-0.269c0.038-0.096,0.157-0.21,0.36-0.328
									l0.514-0.299l0.114,0.066c0.198,0.114,0.308,0.251,0.314,0.401c0.008,0.151-0.087,0.281-0.271,0.388
									c-0.146,0.085-0.298,0.137-0.457,0.14C302.592,258.264,302.458,258.23,302.33,258.156 M305.438,257.49l-1.775-1.025
									c-0.491-0.284-0.981-0.42-1.446-0.402c-0.471,0.016-0.979,0.185-1.537,0.509c-0.21,0.122-0.412,0.255-0.597,0.391
									c-0.183,0.145-0.354,0.288-0.519,0.443l0.753,0.435c0.075-0.141,0.183-0.276,0.315-0.405c0.146-0.13,0.316-0.259,0.525-0.38
									c0.261-0.151,0.49-0.24,0.687-0.273c0.197-0.025,0.376,0.005,0.529,0.093l0.083,0.048l-0.583,0.339
									c-0.533,0.311-0.838,0.583-0.919,0.822c-0.075,0.243,0.066,0.472,0.43,0.682c0.301,0.174,0.645,0.255,1.026,0.247
									c0.388-0.004,0.737-0.104,1.062-0.291c0.234-0.137,0.399-0.276,0.475-0.424c0.082-0.144,0.087-0.31,0.035-0.494l0.46,0.266
									L305.438,257.49"/>
								<path fill="#FFFFFF" d="M304.438,253.825l-0.65-0.376l-0.756,0.439c-0.393,0.228-0.602,0.445-0.626,0.645
									c-0.024,0.207,0.13,0.405,0.468,0.601l0.217,0.126l-0.488,0.283l0.709,0.409l0.488-0.283l2.395,1.382l0.989-0.575
									l-2.394-1.382l0.844-0.49l-0.709-0.409l-0.844,0.49l-0.218-0.126c-0.127-0.073-0.191-0.14-0.186-0.203
									c0-0.059,0.076-0.132,0.215-0.213L304.438,253.825"/>
								<path fill="#FFFFFF" d="M307.139,254.312c-0.179-0.133-0.262-0.269-0.244-0.397c0.012-0.133,0.106-0.255,0.297-0.365
									c0.178-0.104,0.375-0.151,0.604-0.151c0.229,0.007,0.434,0.06,0.625,0.17L307.139,254.312 M310.042,253.335l-0.288-0.166
									c-0.485-0.28-1.026-0.424-1.612-0.424c-0.579-0.004-1.119,0.14-1.602,0.42c-0.532,0.31-0.805,0.638-0.821,0.981
									c-0.005,0.343,0.239,0.659,0.743,0.95c0.518,0.299,1.071,0.442,1.664,0.425c0.592-0.012,1.169-0.185,1.728-0.51
									c0.234-0.136,0.444-0.279,0.634-0.442c0.19-0.161,0.348-0.335,0.493-0.522l-0.766-0.443
									c-0.101,0.207-0.227,0.392-0.385,0.55c-0.158,0.166-0.336,0.306-0.545,0.428c-0.254,0.147-0.515,0.232-0.775,0.251
									c-0.261,0.011-0.516-0.041-0.771-0.158L310.042,253.335"/>
								<path fill="#FFFFFF" d="M311.48,251.204l-0.709-0.409l-1.015,0.59l-0.881-0.509l-0.983,0.571l0.881,0.509l-0.488,0.284
									l0.709,0.409l0.488-0.284l1.315,0.76c0.389,0.225,0.753,0.339,1.07,0.339c0.331,0,0.688-0.11,1.081-0.339l0.844-0.49
									l-0.709-0.409l-0.508,0.295c-0.171,0.1-0.305,0.147-0.413,0.151c-0.108,0.003-0.242-0.037-0.383-0.118l-1.314-0.76
									L311.48,251.204"/>
								<path fill="#FFFFFF" d="M313.095,250.851c-0.179-0.133-0.262-0.27-0.244-0.398c0.012-0.133,0.106-0.255,0.297-0.365
									c0.178-0.104,0.375-0.151,0.604-0.151c0.229,0.008,0.427,0.062,0.618,0.174L313.095,250.851 M315.998,249.873l-0.287-0.166
									c-0.486-0.28-1.027-0.424-1.613-0.424c-0.585,0-1.119,0.141-1.602,0.421c-0.532,0.31-0.805,0.638-0.821,0.98
									c-0.011,0.347,0.232,0.663,0.737,0.954c0.518,0.299,1.078,0.439,1.67,0.421c0.592-0.011,1.17-0.185,1.728-0.509
									c0.229-0.133,0.444-0.28,0.634-0.442c0.19-0.162,0.349-0.336,0.494-0.523l-0.767-0.442
									c-0.101,0.207-0.227,0.391-0.392,0.553c-0.151,0.162-0.329,0.303-0.538,0.424c-0.254,0.147-0.515,0.232-0.775,0.251
									c-0.261,0.011-0.516-0.041-0.771-0.158L315.998,249.873"/>
								<polyline fill="#FFFFFF" points="390.197,166.461 388.724,165.919 385.754,166.284 386.887,165.241 385.618,164.773
									382.503,167.626 383.772,168.094 384.994,166.97 385.73,168.813 387.324,169.403 386.35,166.937 390.197,166.461
									"/>
								<polyline fill="#FFFFFF" points="393.016,167.501 391.811,167.055 390.511,166.767 389.966,167.269 391.266,167.556
									389.253,169.399 388.13,168.986 387.573,169.495 391.023,170.76 391.573,170.254 390.451,169.842 393.016,167.501
									"/>
								<polyline fill="#FFFFFF" points="393.836,170.76 392.65,170.325 391.839,171.062 393.031,171.5 393.836,170.76 								"/>
								<path fill="#FFFFFF" d="M396.073,171.986c-0.167-0.096-0.235-0.218-0.196-0.371c0.044-0.188,0.265-0.465,0.657-0.826
									c0.393-0.354,0.723-0.583,0.996-0.689c0.278-0.104,0.559-0.104,0.827,0c0.058,0.021,0.107,0.044,0.151,0.069
									c0.161,0.093,0.222,0.214,0.188,0.362c-0.043,0.188-0.258,0.461-0.645,0.819c-0.398,0.357-0.734,0.59-1.008,0.696
									c-0.279,0.104-0.553,0.107-0.827,0.007C396.162,172.033,396.114,172.01,396.073,171.986 M399.383,169.813
									c-0.136-0.079-0.295-0.151-0.476-0.218c-0.65-0.236-1.293-0.291-1.922-0.169c-0.636,0.125-1.207,0.427-1.732,0.903
									c-0.514,0.468-0.733,0.9-0.661,1.287c0.052,0.279,0.252,0.517,0.601,0.718c0.136,0.079,0.293,0.151,0.474,0.218
									c0.657,0.24,1.293,0.291,1.923,0.169c0.636-0.125,1.207-0.428,1.726-0.899c0.52-0.472,0.739-0.903,0.668-1.29
									C399.935,170.255,399.733,170.016,399.383,169.813"/>
								<polyline fill="#FFFFFF" points="403.978,171.537 402.772,171.092 401.479,170.808 400.929,171.305 402.229,171.593
									400.215,173.436 399.093,173.023 398.541,173.528 401.985,174.796 402.536,174.291 401.414,173.878 403.978,171.537
																	"/>
								<polyline fill="#FFFFFF" points="172.351,172.68 168.93,174.254 170.873,175.67 171.533,175.36 170.306,174.461
									173.054,173.196 172.351,172.68 								"/>
								<polyline fill="#FFFFFF" points="175.259,174.8 174.461,174.413 173.864,174.693 174.662,175.08 172.453,176.097
									171.833,175.644 171.224,175.924 173.134,177.314 173.744,177.034 173.124,176.58 175.936,175.287 175.259,174.8
									"/>
								<polyline fill="#FFFFFF" points="174.47,177.233 173.588,177.642 174.24,178.121 175.135,177.712 174.47,177.233
									"/>
								<path fill="#FFFFFF" d="M176.329,179.001c-0.019-0.011-0.037-0.022-0.054-0.036c-0.153-0.11-0.167-0.229-0.059-0.357
									c0.12-0.129,0.386-0.291,0.818-0.49c0.432-0.199,0.755-0.313,1.004-0.347c0.208-0.029,0.386-0.001,0.526,0.08
									c0.018,0.01,0.036,0.022,0.053,0.034c0.153,0.111,0.173,0.225,0.065,0.354s-0.38,0.288-0.812,0.487
									c-0.432,0.199-0.763,0.317-1.01,0.35C176.646,179.109,176.473,179.083,176.329,179.001 M179.035,177.487
									c-0.318-0.183-0.685-0.273-1.109-0.273c-0.496,0-1.036,0.129-1.602,0.391c-0.564,0.262-0.907,0.534-1.014,0.818
									c-0.119,0.284,0.01,0.557,0.361,0.818c0.055,0.04,0.112,0.076,0.17,0.11c0.325,0.188,0.698,0.281,1.13,0.281
									c0.497,0,1.03-0.133,1.602-0.391c0.565-0.262,0.907-0.535,1.014-0.818c0.12-0.284-0.01-0.557-0.368-0.815
									C179.161,177.565,179.099,177.524,179.035,177.487"/>
								<path fill="#FFFFFF" d="M179.884,180.173c-0.022-0.013-0.043-0.027-0.064-0.043c-0.121-0.084-0.166-0.177-0.122-0.269
									c0.031-0.092,0.151-0.185,0.354-0.273c0.197-0.092,0.381-0.14,0.541-0.144c0.134,0,0.252,0.029,0.357,0.089
									c0.024,0.014,0.047,0.03,0.07,0.047c0.128,0.088,0.166,0.177,0.129,0.273c-0.038,0.088-0.158,0.181-0.355,0.273
									c-0.197,0.092-0.381,0.14-0.547,0.14C180.115,180.264,179.992,180.235,179.884,180.173 M181.399,179.208
									c-0.277-0.161-0.581-0.256-0.917-0.283c-0.415-0.041-0.802,0.029-1.17,0.199c-0.336,0.151-0.513,0.335-0.55,0.557
									c-0.031,0.218,0.092,0.428,0.366,0.63c0.041,0.029,0.082,0.055,0.125,0.08c0.077,0.044,0.157,0.083,0.239,0.116
									c0.14,0.052,0.281,0.088,0.439,0.114c-0.304,0.118-0.59,0.166-0.852,0.147c-0.211-0.012-0.404-0.067-0.576-0.167
									c-0.045-0.026-0.089-0.056-0.131-0.088c-0.103-0.074-0.192-0.155-0.256-0.243c-0.071-0.092-0.128-0.191-0.18-0.302
									l-0.628,0.291c0.064,0.103,0.147,0.203,0.237,0.299c0.089,0.096,0.205,0.192,0.332,0.28
									c0.069,0.052,0.141,0.099,0.215,0.142c0.351,0.202,0.755,0.307,1.207,0.319c0.554,0.019,1.107-0.103,1.672-0.365
									c0.552-0.254,0.881-0.52,0.982-0.8c0.106-0.276-0.016-0.545-0.367-0.807C181.524,179.284,181.462,179.244,181.399,179.208"
									/>
								<polyline fill="#FFFFFF" points="101.146,213.588 99.604,214.3 97.405,212.7 96.523,213.109 99.251,215.096
									101.676,213.976 101.146,213.588 								"/>
								<polyline fill="#FFFFFF" points="104.034,212.316 103.254,212.674 101.004,211.045 100.167,211.428 99.508,211.893
									99.987,212.242 100.652,211.774 102.416,213.058 101.641,213.419 102.127,213.772 104.52,212.67 104.034,212.316
									"/>
								<polyline fill="#FFFFFF" points="105.201,211.513 104.375,211.896 105.085,212.408 105.904,212.029 105.201,211.513
																	"/>
								<path fill="#FFFFFF" d="M106.332,210.704c-0.134-0.078-0.282-0.175-0.443-0.293c-0.339-0.247-0.544-0.438-0.595-0.579
									c-0.064-0.14-0.002-0.25,0.188-0.339c0.19-0.088,0.394-0.096,0.617-0.033c0.119,0.036,0.258,0.1,0.415,0.19
									c0.128,0.074,0.269,0.167,0.422,0.278c0.345,0.251,0.55,0.45,0.614,0.59c0.058,0.136-0.005,0.254-0.189,0.339
									c-0.196,0.084-0.4,0.099-0.623,0.029C106.619,210.853,106.484,210.792,106.332,210.704 M107.507,209.315
									c-0.354-0.204-0.719-0.332-1.099-0.383c-0.483-0.066-0.955,0.008-1.405,0.21c-0.451,0.21-0.672,0.457-0.677,0.749
									c0.008,0.291,0.233,0.604,0.687,0.932c0.107,0.078,0.216,0.148,0.325,0.212c0.353,0.203,0.715,0.331,1.084,0.382
									c0.497,0.066,0.96-0.004,1.411-0.214c0.451-0.203,0.672-0.457,0.671-0.745c0.004-0.291-0.227-0.6-0.673-0.933
									C107.724,209.449,107.616,209.378,107.507,209.315"/>
								<path fill="#FFFFFF" d="M109.8,207.649c-0.213-0.123-0.459-0.175-0.747-0.166c-0.337,0.019-0.731,0.129-1.175,0.335
									c-0.165,0.074-0.324,0.159-0.476,0.254c-0.146,0.092-0.292,0.192-0.425,0.299l0.511,0.376c0.095-0.1,0.203-0.192,0.316-0.28
									c0.121-0.085,0.254-0.162,0.4-0.225c0.19-0.088,0.368-0.14,0.527-0.144c0.145-0.006,0.265,0.018,0.366,0.076
									c0.015,0.008,0.029,0.018,0.042,0.027c0.109,0.085,0.141,0.17,0.091,0.258c-0.057,0.093-0.196,0.188-0.419,0.288
									l-0.368,0.169l0.454,0.335l0.349-0.166c0.248-0.115,0.471-0.177,0.661-0.192c0.167-0.009,0.308,0.019,0.421,0.083
									c0.02,0.012,0.039,0.024,0.057,0.038c0.121,0.085,0.147,0.181,0.091,0.288c-0.063,0.103-0.209,0.21-0.444,0.317
									c-0.152,0.074-0.33,0.132-0.527,0.181c-0.197,0.055-0.413,0.092-0.642,0.122l0.543,0.394
									c0.222-0.048,0.432-0.103,0.629-0.166c0.196-0.07,0.38-0.14,0.559-0.221c0.495-0.229,0.806-0.454,0.924-0.678
									c0.121-0.218,0.043-0.432-0.226-0.623c-0.038-0.028-0.076-0.053-0.117-0.076c-0.155-0.09-0.327-0.145-0.515-0.17
									c-0.242-0.03-0.497-0.008-0.77,0.062c0.165-0.125,0.248-0.247,0.246-0.372c0.006-0.122-0.071-0.24-0.23-0.354
									C109.874,207.694,109.837,207.67,109.8,207.649"/>
								<polyline fill="#FFFFFF" points="56.01,234.479 54.468,235.19 52.269,233.591 51.387,234 54.115,235.986 56.54,234.866
									56.01,234.479 								"/>
								<polyline fill="#FFFFFF" points="58.892,233.203 58.117,233.564 55.868,231.936 55.03,232.318 54.371,232.783
									54.844,233.13 55.516,232.665 57.28,233.948 56.499,234.306 56.991,234.663 59.377,233.558 58.892,233.203 								"/>
								<polyline fill="#FFFFFF" points="60.065,232.403 59.239,232.787 59.948,233.3 60.767,232.92 60.065,232.403 								"/>
								<path fill="#FFFFFF" d="M61.195,231.595c-0.134-0.078-0.282-0.176-0.443-0.294c-0.339-0.246-0.544-0.438-0.596-0.578
									c-0.064-0.141-0.001-0.251,0.189-0.339c0.19-0.089,0.394-0.097,0.617-0.033c0.12,0.036,0.258,0.1,0.415,0.189
									c0.128,0.074,0.27,0.167,0.422,0.278c0.345,0.251,0.549,0.449,0.607,0.586c0.065,0.141-0.005,0.255-0.189,0.34
									c-0.19,0.088-0.394,0.103-0.617,0.033C61.482,231.743,61.348,231.683,61.195,231.595 M62.371,230.206
									c-0.354-0.204-0.719-0.332-1.099-0.383c-0.484-0.066-0.961,0.004-1.405,0.21c-0.451,0.21-0.672,0.457-0.677,0.748
									c0.008,0.291,0.232,0.605,0.687,0.933c0.107,0.078,0.215,0.148,0.325,0.212c0.353,0.203,0.715,0.331,1.084,0.382
									c0.491,0.062,0.961-0.004,1.412-0.214c0.444-0.206,0.672-0.457,0.671-0.744c-0.002-0.295-0.227-0.602-0.673-0.934
									C62.587,230.34,62.479,230.27,62.371,230.206"/>
								<polyline fill="#FFFFFF" points="66.49,229.705 65.715,230.066 63.473,228.434 62.635,228.816 61.969,229.277
									62.449,229.628 63.121,229.163 64.884,230.446 64.103,230.804 64.589,231.157 66.976,230.059 66.49,229.705 								"/>
								<polyline fill="#FFFFFF" points="162.712,176.47 159.291,178.044 161.227,179.456 161.894,179.15 160.66,178.254
									163.408,176.982 162.712,176.47 								"/>
								<polyline fill="#FFFFFF" points="165.62,178.589 164.821,178.203 164.219,178.479 165.022,178.87 162.814,179.887
									162.194,179.434 161.585,179.714 163.496,181.104 164.104,180.824 163.485,180.37 166.284,179.076 165.62,178.589
									"/>
								<polyline fill="#FFFFFF" points="164.832,181.022 163.949,181.432 164.601,181.911 165.483,181.501 164.832,181.022
																	"/>
								<path fill="#FFFFFF" d="M166.688,182.789c-0.019-0.011-0.036-0.021-0.053-0.034c-0.153-0.111-0.173-0.232-0.059-0.358
									c0.107-0.129,0.386-0.291,0.818-0.49c0.432-0.199,0.755-0.313,0.997-0.35c0.214-0.026,0.389,0,0.532,0.083
									c0.019,0.011,0.036,0.022,0.054,0.035c0.153,0.111,0.173,0.225,0.066,0.354c-0.114,0.125-0.387,0.292-0.812,0.487
									c-0.432,0.199-0.769,0.313-1.01,0.35C167.008,182.898,166.829,182.87,166.688,182.789 M169.396,181.277
									c-0.318-0.183-0.686-0.273-1.11-0.273c-0.497,0-1.037,0.129-1.602,0.391c-0.564,0.262-0.907,0.534-1.02,0.814
									c-0.113,0.288,0.009,0.557,0.367,0.822c0.054,0.039,0.11,0.076,0.168,0.109c0.323,0.187,0.7,0.281,1.126,0.278
									c0.502,0.004,1.036-0.129,1.601-0.391c0.572-0.258,0.907-0.534,1.02-0.814c0.12-0.284-0.009-0.557-0.367-0.815
									C169.521,181.354,169.46,181.314,169.396,181.277"/>
								<path fill="#FFFFFF" d="M169.074,184.578c-0.022-0.013-0.045-0.027-0.067-0.042c-0.134-0.1-0.191-0.192-0.173-0.284
									c0.025-0.096,0.113-0.177,0.285-0.254c0.165-0.081,0.33-0.111,0.496-0.103c0.125,0.008,0.239,0.042,0.347,0.104
									c0.029,0.017,0.059,0.036,0.087,0.058c0.135,0.092,0.186,0.188,0.167,0.28c-0.025,0.088-0.12,0.174-0.279,0.251
									c-0.172,0.077-0.337,0.114-0.496,0.103C169.307,184.682,169.188,184.644,169.074,184.578 M170.656,183.838
									c-0.02-0.011-0.038-0.023-0.057-0.037c-0.108-0.084-0.16-0.166-0.148-0.239c0.013-0.081,0.089-0.147,0.222-0.21
									c0.133-0.062,0.266-0.088,0.4-0.077c0.113,0.005,0.214,0.038,0.306,0.091c0.021,0.013,0.043,0.026,0.064,0.042
									c0.108,0.085,0.16,0.159,0.147,0.24c-0.012,0.073-0.088,0.147-0.229,0.206c-0.133,0.063-0.267,0.089-0.4,0.078
									C170.857,183.925,170.751,183.894,170.656,183.838 M171.729,182.978c-0.239-0.138-0.479-0.227-0.716-0.267
									c-0.319-0.059-0.63-0.019-0.91,0.114c-0.203,0.088-0.323,0.195-0.367,0.317c-0.044,0.122-0.018,0.254,0.091,0.406
									c-0.249-0.107-0.497-0.163-0.739-0.162c-0.234-0.004-0.464,0.048-0.687,0.147c-0.336,0.158-0.5,0.343-0.493,0.553
									c0.007,0.21,0.187,0.446,0.544,0.704c0.089,0.064,0.178,0.122,0.267,0.173c0.264,0.153,0.529,0.249,0.786,0.288
									c0.356,0.052,0.707-0.004,1.049-0.159c0.216-0.104,0.349-0.218,0.405-0.354c0.044-0.137,0.005-0.284-0.116-0.45
									c0.235,0.092,0.452,0.137,0.669,0.144c0.216,0,0.419-0.044,0.61-0.133c0.292-0.133,0.425-0.299,0.404-0.494
									c-0.026-0.192-0.2-0.41-0.531-0.653C171.907,183.088,171.818,183.029,171.729,182.978"/>
								<polyline fill="#FFFFFF" points="285.553,111.604 281.187,111.619 281.206,109.337 279.976,110.052 279.96,111.807
									278.453,110.937 277.388,111.556 281.525,113.945 282.591,113.325 280.962,112.385 284.221,112.378 285.553,111.604
																	"/>
								<polyline fill="#FFFFFF" points="288.629,109.816 287.889,109.388 286.956,109.93 283.56,107.969 282.551,108.555
									281.792,109.226 282.519,109.646 283.285,108.972 285.954,110.513 285.015,111.059 285.756,111.486 288.629,109.816
																	"/>
								<polyline fill="#FFFFFF" points="290.304,108.843 289.231,108.224 289.167,108.261 288.242,108.799 289.314,109.418
									290.237,108.881 290.304,108.843 								"/>
								<path fill="#BDD4E4" d="M289.853,106.701c-0.517-0.299-0.831-0.539-0.946-0.715c-0.116-0.177-0.06-0.335,0.169-0.468
									c0.228-0.133,0.495-0.162,0.808-0.1c0.306,0.066,0.714,0.251,1.231,0.549c0.523,0.302,0.849,0.542,0.959,0.723
									c0.121,0.181,0.071,0.335-0.157,0.468c-0.229,0.133-0.502,0.166-0.814,0.096
									C290.797,107.188,290.376,107.003,289.853,106.701 M292.188,105.359c-0.69-0.398-1.366-0.62-2.028-0.664
									c-0.668-0.047-1.272,0.089-1.812,0.402c-0.539,0.313-0.772,0.664-0.694,1.055c0.079,0.383,0.463,0.774,1.153,1.172
									c0.683,0.394,1.359,0.615,2.021,0.66c0.669,0.041,1.272-0.096,1.812-0.409c0.54-0.313,0.772-0.664,0.694-1.047
									C293.254,106.145,292.87,105.753,292.188,105.359"/>
								<path fill="#BDD4E4" d="M292.644,103.969c-0.16-0.092-0.243-0.191-0.237-0.298c0-0.103,0.082-0.203,0.253-0.302
									c0.165-0.096,0.336-0.144,0.515-0.144c0.184-0.003,0.35,0.041,0.516,0.137s0.25,0.195,0.244,0.302
									c-0.005,0.1-0.088,0.199-0.253,0.295c-0.171,0.1-0.343,0.147-0.515,0.151C292.982,104.113,292.81,104.065,292.644,103.969
									 M294.368,105.068c-0.204-0.118-0.307-0.236-0.308-0.361c0-0.125,0.094-0.247,0.291-0.361c0.196-0.114,0.4-0.173,0.61-0.169
									c0.216,0,0.426,0.062,0.631,0.181c0.204,0.118,0.307,0.236,0.308,0.361c0.007,0.122-0.095,0.24-0.291,0.354
									c-0.197,0.115-0.4,0.174-0.616,0.173C294.776,105.245,294.573,105.186,294.368,105.068 M296.652,103.808
									c-0.269-0.155-0.562-0.244-0.88-0.258c-0.312-0.019-0.648,0.029-1.005,0.147c0.171-0.188,0.247-0.365,0.214-0.53
									c-0.026-0.163-0.161-0.313-0.397-0.45c-0.351-0.203-0.746-0.284-1.185-0.236c-0.446,0.044-0.909,0.21-1.41,0.501
									s-0.792,0.564-0.867,0.822c-0.069,0.254,0.06,0.482,0.411,0.686c0.236,0.136,0.498,0.214,0.778,0.229
									c0.286,0.019,0.591-0.026,0.916-0.125c-0.202,0.207-0.284,0.402-0.258,0.586c0.033,0.181,0.187,0.35,0.455,0.505
									c0.408,0.236,0.848,0.335,1.331,0.299c0.484-0.037,0.992-0.214,1.525-0.523s0.83-0.601,0.892-0.881
									C297.234,104.297,297.061,104.043,296.652,103.808"/>
								<polyline fill="#FFFFFF" points="298.794,119.25 294.429,119.264 294.448,116.982 293.217,117.697 293.208,119.456
									291.695,118.582 290.629,119.202 294.767,121.59 295.832,120.971 294.204,120.031 297.462,120.023 298.794,119.25
									"/>
								<polyline fill="#FFFFFF" points="301.871,117.461 301.137,117.038 300.205,117.58 296.801,115.615 295.792,116.201
									295.033,116.872 295.761,117.292 296.527,116.618 299.202,118.162 298.263,118.708 298.997,119.132 301.871,117.461
																	"/>
								<polyline fill="#FFFFFF" points="303.545,116.488 302.473,115.869 302.396,115.914 301.483,116.444 302.556,117.063
									303.467,116.534 303.545,116.488 								"/>
								<path fill="#C6C7C9" d="M303.095,114.347c-0.518-0.299-0.831-0.538-0.946-0.715c-0.115-0.177-0.06-0.335,0.169-0.468
									s0.496-0.162,0.808-0.1c0.307,0.066,0.715,0.251,1.232,0.549c0.522,0.302,0.849,0.542,0.965,0.727
									c0.115,0.177,0.064,0.332-0.163,0.464c-0.229,0.133-0.502,0.166-0.808,0.1C304.039,114.833,303.618,114.649,303.095,114.347
									 M305.429,113.005c-0.689-0.398-1.365-0.62-2.027-0.664c-0.669-0.048-1.272,0.088-1.812,0.402
									c-0.539,0.313-0.772,0.664-0.694,1.054c0.079,0.383,0.463,0.774,1.152,1.172c0.684,0.394,1.359,0.615,2.021,0.66
									c0.669,0.041,1.279-0.092,1.818-0.405c0.539-0.313,0.767-0.667,0.688-1.051C306.496,113.79,306.112,113.399,305.429,113.005
									"/>
								<polyline fill="#C6C7C9" points="307.418,110.141 306.817,109.794 303.722,111.593 304.507,112.046 306.486,110.896
									308.322,113.712 309.355,113.111 307.418,110.141 								"/>
								<polyline fill="#FFFFFF" points="315.229,128.738 310.863,128.753 310.882,126.471 309.651,127.187 309.643,128.945
									308.129,128.071 307.063,128.69 311.2,131.079 312.267,130.46 310.639,129.52 313.896,129.512 315.229,128.738 								"/>
								<polyline fill="#FFFFFF" points="318.305,126.95 317.571,126.526 316.639,127.068 313.235,125.104 312.227,125.689
									311.467,126.36 312.194,126.781 312.961,126.106 315.636,127.651 314.697,128.196 315.432,128.62 318.305,126.95
									"/>
								<polyline fill="#FFFFFF" points="319.979,125.977 318.907,125.358 318.815,125.411 317.918,125.933 318.99,126.552
									319.887,126.031 319.979,125.977 								"/>
								<path fill="#C6C7C9" d="M319.528,123.835c-0.517-0.299-0.83-0.539-0.945-0.715c-0.116-0.177-0.06-0.335,0.169-0.468
									c0.228-0.132,0.495-0.162,0.808-0.099c0.306,0.066,0.714,0.25,1.231,0.549c0.523,0.302,0.85,0.542,0.965,0.727
									c0.115,0.177,0.065,0.332-0.163,0.464c-0.229,0.133-0.502,0.166-0.808,0.1C320.473,124.322,320.052,124.138,319.528,123.835
									 M321.863,122.494c-0.69-0.398-1.366-0.62-2.028-0.664c-0.668-0.048-1.271,0.088-1.812,0.402
									c-0.539,0.313-0.771,0.664-0.693,1.054c0.078,0.383,0.463,0.774,1.152,1.172c0.683,0.394,1.358,0.616,2.021,0.66
									c0.669,0.041,1.278-0.092,1.817-0.405c0.54-0.313,0.767-0.667,0.688-1.051C322.93,123.279,322.546,122.888,321.863,122.494"
									/>
								<path fill="#C6C7C9" d="M324.088,122.066c-0.243-0.14-0.377-0.269-0.409-0.391c-0.026-0.125,0.049-0.244,0.233-0.35
									c0.189-0.111,0.393-0.155,0.604-0.137c0.217,0.015,0.439,0.092,0.682,0.232c0.243,0.14,0.378,0.269,0.403,0.395
									c0.032,0.122-0.043,0.239-0.233,0.35c-0.184,0.107-0.387,0.151-0.604,0.136C324.554,122.283,324.33,122.206,324.088,122.066
									 M326.149,120.787c-0.402-0.232-0.855-0.346-1.358-0.335c-0.502,0.004-0.973,0.129-1.392,0.373
									c-0.165,0.096-0.298,0.203-0.393,0.31s-0.157,0.225-0.188,0.346c-0.313-0.217-0.474-0.427-0.475-0.634
									c-0.008-0.203,0.157-0.395,0.474-0.579c0.146-0.085,0.317-0.163,0.508-0.229c0.19-0.066,0.419-0.125,0.681-0.18
									l-0.767-0.442c-0.235,0.07-0.451,0.144-0.667,0.232c-0.21,0.084-0.399,0.18-0.59,0.291
									c-0.597,0.347-0.868,0.733-0.821,1.157c0.047,0.424,0.412,0.833,1.095,1.228c0.671,0.387,1.327,0.597,1.983,0.638
									c0.655,0.04,1.253-0.092,1.786-0.402c0.488-0.284,0.741-0.586,0.759-0.907C326.808,121.329,326.59,121.041,326.149,120.787"
									/>
								<polyline fill="#FFFFFF" points="233.475,151.952 231.386,152.884 228.51,150.724 227.323,151.259 230.889,153.935
									234.171,152.471 233.475,151.952 								"/>
								<polyline fill="#FFFFFF" points="237.354,150.289 236.306,150.757 233.373,148.556 232.236,149.062 231.343,149.67
									231.969,150.142 232.869,149.529 235.183,151.262 234.129,151.727 234.768,152.206 237.993,150.768 237.354,150.289
																	"/>
								<polyline fill="#FFFFFF" points="238.945,149.231 237.834,149.729 238.754,150.422 239.872,149.928 238.945,149.231
																	"/>
								<polyline fill="#FFFFFF" points="243.523,147.532 242.477,148 239.543,145.799 238.413,146.308 237.513,146.912
									238.139,147.384 239.039,146.772 241.353,148.505 240.305,148.973 240.938,149.448 244.163,148.011 243.523,147.532
																	"/>
								<path fill="#FFFFFF" d="M245.365,144.207c-0.305-0.176-0.664-0.263-1.072-0.266c-0.497-0.008-1.012,0.114-1.563,0.361
									c-0.254,0.11-0.489,0.24-0.724,0.383c-0.222,0.144-0.438,0.299-0.634,0.472l0.78,0.59c0.133-0.203,0.278-0.376,0.437-0.52
									c0.165-0.147,0.335-0.262,0.513-0.343c0.248-0.107,0.489-0.158,0.731-0.144c0.203,0.009,0.381,0.058,0.53,0.144
									c0.033,0.019,0.064,0.04,0.095,0.062c0.115,0.081,0.179,0.177,0.205,0.28c0.033,0.107,0.027,0.236-0.023,0.383l-0.532,1.611
									l0.678,0.509l3.352-1.497l-0.678-0.509l-2.031,0.907l0.319-0.94c0.132-0.394,0.181-0.689,0.142-0.874
									c-0.039-0.184-0.155-0.347-0.347-0.494C245.485,144.282,245.426,144.243,245.365,144.207"/>
								<polyline fill="#FFFFFF" points="193.211,170.254 191.142,171.198 188.234,169.057 187.053,169.595 190.664,172.252
									193.914,170.771 193.211,170.254 								"/>
								<polyline fill="#FFFFFF" points="197.064,168.57 196.023,169.042 193.059,166.859 191.935,167.372 191.041,167.98
									191.674,168.448 192.567,167.833 194.906,169.551 193.865,170.03 194.511,170.498 197.71,169.045 197.064,168.57
									"/>
								<polyline fill="#FFFFFF" points="198.63,167.504 197.532,168.01 198.465,168.695 199.569,168.194 198.63,167.504
									"/>
								<polyline fill="#FFFFFF" points="203.19,165.779 202.149,166.251 199.184,164.069 198.061,164.581 197.173,165.193
									197.799,165.658 198.699,165.046 201.032,166.76 199.991,167.239 200.636,167.708 203.835,166.255 203.19,165.779
									"/>
								<path fill="#FFFFFF" d="M204.208,164.581c-0.177-0.102-0.371-0.231-0.582-0.386c-0.454-0.336-0.722-0.594-0.793-0.782
									c-0.077-0.185,0.011-0.332,0.265-0.45c0.254-0.111,0.528-0.129,0.821-0.041c0.154,0.045,0.333,0.127,0.535,0.244
									c0.175,0.101,0.368,0.229,0.576,0.383c0.46,0.339,0.729,0.598,0.806,0.789c0.078,0.184-0.004,0.335-0.258,0.446
									c-0.254,0.118-0.534,0.132-0.827,0.044C204.593,164.781,204.412,164.699,204.208,164.581 M205.768,162.72
									c-0.46-0.266-0.935-0.433-1.427-0.501c-0.649-0.088-1.279,0.003-1.876,0.276c-0.603,0.276-0.906,0.608-0.911,0.996
									c-0.004,0.387,0.297,0.804,0.898,1.246c0.148,0.11,0.299,0.208,0.452,0.297c0.457,0.264,0.931,0.43,1.423,0.5
									c0.649,0.088,1.279-0.004,1.882-0.28c0.603-0.269,0.9-0.604,0.904-0.992c0.004-0.387-0.297-0.803-0.891-1.242
									C206.073,162.908,205.921,162.808,205.768,162.72"/>
								<polyline fill="#FFFFFF" points="206.687,160.648 206.007,160.961 208.466,164.688 209.145,164.382 206.687,160.648
																	"/>
								<polyline fill="#FFFFFF" points="213.276,161.183 212.242,161.658 209.27,159.472 208.147,159.984 207.259,160.596
									207.892,161.064 208.786,160.449 211.125,162.167 210.077,162.642 210.729,163.114 213.922,161.658 213.276,161.183
																	"/>
								<polyline fill="#FFFFFF" points="217.333,159.335 216.298,159.811 213.327,157.625 212.203,158.137 211.315,158.75
									211.948,159.218 212.842,158.602 215.181,160.32 214.133,160.795 214.785,161.267 217.978,159.811 217.333,159.335
									"/>
								<polyline fill="#FFFFFF" points="179.144,309.044 177.79,308.262 174.638,308.992 175.9,307.171 174.54,306.386
									170.43,308.774 171.438,309.357 174.445,307.609 173.183,309.453 173.86,309.844 177.031,309.103 174.024,310.851
									175.033,311.433 179.144,309.044 								"/>
								<polyline fill="#FFFFFF" points="181.997,310.691 180.982,310.105 179.828,309.667 179.104,310.087 180.265,310.529
									177.608,312.074 176.67,311.532 175.94,311.956 178.832,313.626 179.562,313.202 178.616,312.656 181.997,310.691
									"/>
								<polyline fill="#FFFFFF" points="181.577,313.977 180.581,313.401 179.516,314.021 180.511,314.596 181.577,313.977
																	"/>
								<path fill="#FFFFFF" d="M183.425,315.535c-0.23-0.133-0.282-0.287-0.175-0.468c0.121-0.181,0.438-0.424,0.958-0.726
									c0.513-0.299,0.926-0.48,1.231-0.547c0.312-0.062,0.572-0.028,0.802,0.104c0.23,0.133,0.295,0.288,0.181,0.465
									c-0.113,0.177-0.431,0.413-0.945,0.711c-0.52,0.303-0.932,0.49-1.25,0.558C183.921,315.697,183.655,315.668,183.425,315.535
									 M186.97,313.475c-0.542-0.312-1.154-0.446-1.815-0.401c-0.668,0.04-1.342,0.262-2.027,0.659
									c-0.679,0.395-1.059,0.786-1.125,1.173c-0.075,0.384,0.157,0.737,0.699,1.051c0.543,0.312,1.154,0.446,1.816,0.401
									c0.661-0.044,1.341-0.262,2.021-0.656c0.685-0.397,1.058-0.792,1.132-1.176C187.745,314.143,187.513,313.788,186.97,313.475
									"/>
								<path fill="#FFFFFF" d="M190.52,315.524c-0.223-0.129-0.479-0.247-0.752-0.361c-0.274-0.106-0.574-0.214-0.893-0.302
									l-0.901,0.523c0.363,0.047,0.683,0.106,0.949,0.18c0.268,0.074,0.484,0.163,0.65,0.259c0.217,0.125,0.333,0.258,0.346,0.397
									c0.008,0.145-0.075,0.273-0.271,0.388c-0.121,0.069-0.273,0.122-0.457,0.147c-0.186,0.033-0.395,0.044-0.649,0.037
									l-2.839-0.104l-0.78,0.453l3.007,1.736l0.78-0.453l-1.819-1.051l1.648,0.062c0.7,0.03,1.203,0.019,1.515-0.029
									c0.312-0.041,0.579-0.129,0.807-0.262c0.387-0.225,0.545-0.479,0.486-0.763C191.294,316.096,191.018,315.812,190.52,315.524
									"/>
								<polyline fill="#FFFFFF" points="77.877,224.441 76.329,225.156 74.13,223.557 73.254,223.962 75.982,225.949
									78.407,224.828 77.877,224.441 								"/>
								<polyline fill="#FFFFFF" points="80.752,223.169 79.978,223.53 77.735,221.897 76.891,222.284 76.238,222.745
									76.711,223.092 77.377,222.631 79.141,223.914 78.366,224.275 78.852,224.629 81.245,223.526 80.752,223.169 								"/>
								<polyline fill="#FFFFFF" points="81.925,222.369 81.106,222.749 81.81,223.265 82.634,222.882 81.925,222.369 								"/>
								<path fill="#FFFFFF" d="M83.042,221.55c-0.131-0.075-0.274-0.17-0.43-0.282c-0.338-0.248-0.537-0.442-0.595-0.579
									c-0.064-0.14,0.005-0.255,0.19-0.34c0.189-0.088,0.399-0.099,0.617-0.032c0.125,0.034,0.269,0.1,0.431,0.192
									c0.126,0.073,0.263,0.163,0.412,0.271c0.345,0.251,0.549,0.45,0.602,0.59c0.064,0.14,0.001,0.251-0.189,0.34
									c-0.184,0.084-0.388,0.099-0.617,0.032C83.343,221.706,83.202,221.642,83.042,221.55 M84.23,220.171
									c-0.353-0.204-0.717-0.333-1.091-0.386c-0.49-0.062-0.96,0.004-1.411,0.214c-0.445,0.206-0.672,0.457-0.671,0.745
									c0.002,0.294,0.233,0.604,0.679,0.936c0.107,0.077,0.215,0.147,0.324,0.21c0.354,0.204,0.718,0.332,1.093,0.38
									c0.483,0.066,0.961-0.004,1.411-0.214c0.444-0.206,0.666-0.453,0.671-0.744c-0.008-0.292-0.226-0.602-0.681-0.929
									C84.448,220.305,84.339,220.234,84.23,220.171"/>
								<path fill="#FFFFFF" d="M86.66,218.569c-0.236-0.137-0.51-0.203-0.825-0.203c-0.369,0-0.762,0.096-1.169,0.28
									c-0.19,0.088-0.368,0.184-0.533,0.294c-0.165,0.111-0.317,0.229-0.463,0.358l0.601,0.435
									c0.088-0.155,0.195-0.283,0.31-0.395c0.12-0.106,0.247-0.195,0.38-0.258c0.177-0.081,0.361-0.122,0.546-0.11
									c0.159,0.003,0.294,0.041,0.415,0.11c0.02,0.012,0.038,0.024,0.058,0.037c0.083,0.062,0.134,0.129,0.16,0.21
									s0.014,0.177-0.011,0.287l-0.369,1.213l0.517,0.38l2.482-1.146l-0.511-0.376l-1.511,0.692l0.218-0.711
									c0.094-0.299,0.125-0.517,0.092-0.652c-0.033-0.137-0.122-0.262-0.27-0.368C86.741,218.618,86.701,218.593,86.66,218.569"/>
								<polyline fill="#CFD0D2" points="257.699,244.381 240.968,244.385 241.017,254.076 257.699,244.381 								"/>
								<polyline fill="#CFD0D2" points="280.153,257.412 263.471,267.107 280.208,267.107 280.153,257.412 								"/>
								<polyline fill="#CFD0D2" points="337.866,159.675 319.63,150.901 321.211,160.56 337.866,159.675 								"/>
								<polyline fill="#CFD0D2" points="360.45,137.822 343.748,138.422 361.535,147.495 360.45,137.822 								"/>
								<polyline fill="#CFD0D2" points="160.769,185.203 143.13,193.42 160.488,195.086 160.769,185.203 								"/>
								<polyline fill="#FFFFFF" points="361.247,182.235 359.518,181.236 357.811,182.228 356.1,181.24 354.399,182.228
									352.688,181.24 350.988,182.228 349.271,181.236 347.546,182.239 350.993,184.229 354.416,186.206 361.247,182.235
									"/>
								<polyline fill="#FFFFFF" points="371.496,154.502 370.08,153.832 368.945,154.639 367.542,153.976 366.407,154.783
									365.003,154.119 363.862,154.93 362.471,154.267 361.317,155.085 364.125,156.419 366.926,157.743 371.496,154.502
									"/>
								<polyline fill="#FFFFFF" points="230.443,258.156 228.707,257.154 227.007,258.143 225.296,257.154 223.596,258.143
									221.885,257.154 220.178,258.146 218.461,257.154 216.742,258.153 220.19,260.144 223.619,262.123 230.443,258.156
									"/>
								<polyline fill="#FFFFFF" points="141.037,200.383 139.152,201.25 137.65,200.155 135.759,201.025 134.257,199.93
									132.372,200.796 130.864,199.698 128.954,200.579 131.982,202.783 134.992,204.977 142.564,201.493 141.037,200.383
																	"/>
								<polyline fill="#FFFFFF" points="274.872,137.184 272.986,138.05 271.484,136.955 269.6,137.821 268.091,136.73
									266.206,137.597 264.698,136.498 262.788,137.379 265.816,139.584 268.826,141.777 276.398,138.293 274.872,137.184
																	"/>
								<polyline fill="#FFFFFF" points="237.377,276.961 235.647,275.962 233.947,276.95 232.23,275.959 230.53,276.946
									228.819,275.959 227.119,276.946 225.408,275.959 223.683,276.961 227.131,278.952 230.552,280.928 237.377,276.961
																	"/>
								<polyline fill="#FFFFFF" points="168.668,163.933 166.929,164.736 165.536,163.726 163.796,164.522 162.41,163.516
									160.665,164.316 159.278,163.302 157.513,164.113 160.312,166.148 163.092,168.172 170.074,164.957 168.668,163.933
																	"/>
							</g>
						</g>
					</g>
				</g>
			</g>
		</g>
	</g>
	<g>
		<polygon fill="#EC7404" stroke="#FFFFFF" stroke-width="0.5" points="312.837,-23.968 316.249,-23.968 314.68,-12.192 		"/>
		<circle fill="#EC7404" cx="314.543" cy="-33" r="9.731"/>
		<polygon fill="none" stroke="#FFFFFF" stroke-width="0.5" points="318.413,-35.826 314.543,-40.501 310.674,-35.826
			312.627,-35.826 312.627,-30.704 316.46,-30.704 316.46,-35.826 		"/>
		<text transform="matrix(1 0 0 1 312.875 -25.1201)" fill="#FFFFFF" font-family="'DejaVuSansCondensed-Bold'" font-size="5"></text>
	</g>
	<g>
		<polygon fill="#EC7404" stroke="#FFFFFF" stroke-width="0.5" points="338.409,-23.968 341.822,-23.968 340.252,-12.192 		"/>
		<circle fill="#EC7404" cx="340.116" cy="-33" r="9.731"/>
		<polygon fill="none" stroke="#FFFFFF" stroke-width="0.5" points="343.985,-35.826 340.115,-40.501 336.246,-35.826
			338.199,-35.826 338.199,-30.704 342.032,-30.704 342.032,-35.826 		"/>
		<rect x="338.429" y="-29.443" fill="none" width="8" height="3.833"/>
		<text transform="matrix(1 0 0 1 338.4287 -25.644)" fill="#FFFFFF" font-family="'DejaVuSansCondensed-Bold'" font-size="5">P</text>
	</g>
	<g>
		<polygon fill="#EC7404" stroke="#FFFFFF" stroke-width="0.5" points="363.981,-23.968 367.394,-23.968 365.824,-12.192 		"/>
		<circle fill="#EC7404" cx="365.688" cy="-33" r="9.731"/>
		<polygon fill="none" stroke="#FFFFFF" stroke-width="0.5" points="369.558,-35.826 365.688,-40.501 361.818,-35.826
			363.771,-35.826 363.771,-30.704 367.604,-30.704 367.604,-35.826 		"/>
		<rect x="360.819" y="-29.442" fill="none" width="8" height="3.833"/>
		<text transform="matrix(1 0 0 1 360.8193 -25.6431)" fill="#FFFFFF" font-family="'DejaVuSansCondensed-Bold'" font-size="5"> EC</text>
	</g>
	<g>
		<polygon fill="#EC7404" stroke="#FFFFFF" stroke-width="0.5" points="415.003,-23.991 418.417,-23.991 416.847,-12.215 		"/>
		<g>
			<circle fill="#EC7404" cx="416.71" cy="-33" r="9.731"/>
			<g>
				<g>
					<path fill="none" stroke="#FFFFFF" stroke-width="0.5" d="M421.197-29.081c0,0.312-0.255,0.567-0.567,0.567h-7.839
						c-0.312,0-0.567-0.255-0.567-0.567v-7.84c0-0.312,0.255-0.567,0.567-0.567h7.839c0.312,0,0.567,0.255,0.567,0.567V-29.081z"/>
				</g>
				<polygon fill="#FFFFFF" points="413.152,-32.975 415.846,-29.744 420.287,-36.475 415.608,-31.057 				"/>
			</g>
		</g>
	</g>
	<g>
		<polygon fill="#EC7404" stroke="#FFFFFF" stroke-width="0.5" points="440.863,-23.991 444.277,-23.991 442.707,-12.215 		"/>
		<circle fill="#EC7404" cx="442.571" cy="-33" r="9.731"/>
		<g>
			<g>
				<path fill="#EC7404" d="M446.946-31.146c0,0.312-0.255,0.567-0.567,0.567h-9.54c-0.312,0-0.567-0.255-0.567-0.567V-36.6
					c0-0.312,0.255-0.567,0.567-0.567h9.54c0.312,0,0.567,0.255,0.567,0.567V-31.146z"/>
				<path fill="none" stroke="#FFFFFF" stroke-width="0.5" d="M446.946-31.146c0,0.312-0.255,0.567-0.567,0.567h-9.54
					c-0.312,0-0.567-0.255-0.567-0.567V-36.6c0-0.312,0.255-0.567,0.567-0.567h9.54c0.312,0,0.567,0.255,0.567,0.567V-31.146z"/>
			</g>
			<g>
				<path fill="#EC7404" d="M448.87-29.223c0,0.312-0.255,0.567-0.567,0.567h-9.54c-0.312,0-0.567-0.255-0.567-0.567v-5.454
					c0-0.312,0.255-0.567,0.567-0.567h9.54c0.312,0,0.567,0.255,0.567,0.567V-29.223z"/>
				<path fill="none" stroke="#FFFFFF" stroke-width="0.5" d="M448.87-29.223c0,0.312-0.255,0.567-0.567,0.567h-9.54
					c-0.312,0-0.567-0.255-0.567-0.567v-5.454c0-0.312,0.255-0.567,0.567-0.567h9.54c0.312,0,0.567,0.255,0.567,0.567V-29.223z"/>
			</g>
		</g>
	</g>
	<g>
		<polygon fill="#EC7404" stroke="#FFFFFF" stroke-width="0.5" points="287.264,-23.968 290.677,-23.968 289.107,-12.192 		"/>
		<circle fill="#EC7404" cx="288.97" cy="-33" r="9.731"/>
		<g>
			<path fill="#FFFFFF" d="M285.842-31.311h6.294v-0.557h-6.294V-31.311z M285.842-29.615h6.294v-0.557h-6.294V-29.615z
				 M285.842-34.658h6.294v-0.558h-6.294V-34.658z M285.842-32.993h6.294v-0.557h-6.294V-32.993z M292.842-27.685h-7.744v-11.183
				h5.521v2.222h2.223V-27.685z M284.54-27.125 M291.178-38.797l1.594,1.592h-1.594V-38.797z M291.336-39.427h-6.796v12.301h8.86
				v-10.239L291.336-39.427z"/>
		</g>
	</g>
	<g>
		<polygon fill="#EC7404" stroke="#FFFFFF" stroke-width="0.5" points="261.69,-23.968 265.104,-23.968 263.533,-12.192 		"/>
		<circle fill="#EC7404" cx="263.397" cy="-33.001" r="9.731"/>
		<g>
			<g>
				<path fill="#FFFFFF" d="M268.454-33.723c-0.002-0.272-0.025-0.522-0.083-0.758c-0.046-0.183-0.114-0.358-0.217-0.517
					c-0.152-0.24-0.387-0.429-0.656-0.535c-0.269-0.108-0.564-0.149-0.898-0.149c-0.295,0-0.563,0.033-0.811,0.114
					c-0.185,0.062-0.357,0.153-0.505,0.277c-0.223,0.186-0.377,0.438-0.463,0.709c-0.086,0.264-0.118,0.55-0.119,0.862l-0.569,4.806
					h1.198v2.099h0.97v-2.099h0.6v2.099h0.97v-2.099h1.204L268.454-33.723z"/>
				<path fill="#FFFFFF" d="M260.08-36.128c0.872,0,1.576-0.707,1.576-1.577c0-0.871-0.704-1.577-1.576-1.577
					c-0.87,0-1.575,0.706-1.576,1.577C258.505-36.834,259.21-36.128,260.08-36.128 M260.08-35.59
					c-1.305,0.001-2.36,1.057-2.36,2.361v2.469h1.092v3.943h0.969v-3.943h0.6v3.943h0.97v-3.943h1.091v-2.469
					C262.44-34.534,261.385-35.589,260.08-35.59"/>
			</g>
			<circle fill="#FFFFFF" cx="266.494" cy="-37.707" r="1.584"/>
		</g>
	</g>
	<g>
		<polygon fill="#EC7404" stroke="#FFFFFF" stroke-width="0.5" points="389.554,-23.968 392.967,-23.968 391.397,-12.192 		"/>
		<circle fill="#EC7404" cx="391.26" cy="-33" r="9.731"/>
		<text transform="matrix(1 0 0 1 389.5 -25.1201)" fill="#FFFFFF" font-family="'DejaVuSansCondensed-Bold'" font-size="5"></text>
		<polygon fill="none" stroke="#FFFFFF" stroke-width="0.5" points="387.342,-35.379 391.212,-30.704 395.081,-35.379
			393.128,-35.379 393.128,-40.501 389.295,-40.501 389.295,-35.379 		"/>
	</g>
	<g>
		<polygon fill="#EC7404" stroke="#FFFFFF" stroke-width="0.5" points="259.53,117.822 262.943,117.822 261.373,129.597 		"/>
		<circle fill="#EC7404" cx="261.237" cy="108.789" r="9.731"/>
		<g>
			<g>
				<path fill="#FFFFFF" d="M266.293,108.067c-0.002-0.272-0.025-0.523-0.083-0.758c-0.046-0.184-0.114-0.358-0.217-0.518
					c-0.152-0.239-0.387-0.429-0.656-0.535c-0.269-0.107-0.564-0.148-0.898-0.148c-0.295,0-0.563,0.032-0.811,0.113
					c-0.185,0.062-0.357,0.152-0.505,0.277c-0.223,0.186-0.377,0.438-0.463,0.709c-0.086,0.264-0.118,0.549-0.119,0.861
					l-0.569,4.806h1.198v2.099h0.97v-2.099h0.6v2.099h0.97v-2.099h1.204L266.293,108.067z"/>
				<path fill="#FFFFFF" d="M257.919,105.662c0.872,0,1.576-0.706,1.576-1.577s-0.704-1.576-1.576-1.576
					c-0.87,0-1.575,0.705-1.576,1.576C256.344,104.956,257.049,105.662,257.919,105.662 M257.919,106.2
					c-1.305,0-2.36,1.057-2.36,2.36v2.47h1.092v3.943h0.969v-3.943h0.6v3.943h0.97v-3.943h1.091v-2.47
					C260.28,107.256,259.224,106.2,257.919,106.2"/>
			</g>
			<circle fill="#FFFFFF" cx="264.333" cy="104.083" r="1.584"/>
		</g>
	</g>
	<g>
		<polygon fill="#EC7404" stroke="#FFFFFF" stroke-width="0.5" points="127.115,180.74 130.528,180.74 128.958,192.516 		"/>
		<circle fill="#EC7404" cx="128.822" cy="171.707" r="9.731"/>
		<g>
			<g>
				<path fill="#FFFFFF" d="M133.878,170.984c-0.002-0.271-0.025-0.523-0.083-0.758c-0.046-0.184-0.114-0.357-0.217-0.518
					c-0.152-0.238-0.387-0.428-0.656-0.535c-0.269-0.107-0.564-0.148-0.898-0.148c-0.295,0-0.563,0.033-0.811,0.113
					c-0.185,0.062-0.357,0.152-0.505,0.277c-0.223,0.186-0.377,0.438-0.463,0.709c-0.086,0.264-0.118,0.549-0.119,0.861
					l-0.569,4.807h1.198v2.098h0.97v-2.098h0.6v2.098h0.97v-2.098h1.204L133.878,170.984z"/>
				<path fill="#FFFFFF" d="M125.504,168.58c0.872,0,1.576-0.707,1.576-1.578s-0.704-1.576-1.576-1.576
					c-0.87,0-1.575,0.705-1.576,1.576C123.929,167.873,124.634,168.58,125.504,168.58 M125.504,169.117
					c-1.305,0-2.36,1.057-2.36,2.361v2.469h1.092v3.943h0.969v-3.943h0.6v3.943h0.97v-3.943h1.091v-2.469
					C127.865,170.174,126.809,169.117,125.504,169.117"/>
			</g>
			<circle fill="#FFFFFF" cx="131.918" cy="167" r="1.584"/>
		</g>
	</g>
	<g>
		<polygon fill="#EC7404" stroke="#FFFFFF" stroke-width="0.5" points="299.377,202.486 302.789,202.486 301.22,225.5 		"/>
		<circle fill="#EC7404" cx="301.083" cy="193.454" r="9.731"/>
		<polygon fill="none" stroke="#FFFFFF" stroke-width="0.5" points="304.953,190.628 301.083,185.953 297.214,190.628
			299.167,190.628 299.167,195.75 303,195.75 303,190.628 		"/>
		<text transform="matrix(1 0 0 1 299.4141 201.334)" fill="#FFFFFF" font-family="'DejaVuSansCondensed-Bold'" font-size="5"></text>
	</g>
	<g>
		<g>
			<polygon fill="#EC7404" stroke="#FFFFFF" stroke-width="0.5" points="287.325,213.834 290.225,212.036 297.877,227.25 			"/>
			<circle fill="#EC7404" cx="283.599" cy="205.768" r="9.732"/>
		</g>
		<polygon fill="none" stroke="#FFFFFF" stroke-width="0.5" points="287.225,202.757 283.354,198.083 279.485,202.757
			281.438,202.757 281.438,207.879 285.271,207.879 285.271,202.757 		"/>
		<rect x="278.486" y="209.141" fill="none" width="8" height="3.833"/>
		<text transform="matrix(1 0 0 1 278.4863 212.9414)" fill="#FFFFFF" font-family="'DejaVuSansCondensed-Bold'" font-size="5"> EC</text>
	</g>
	<g>
		<polygon fill="#EC7404" stroke="#FFFFFF" stroke-width="0.5" points="259.877,208.858 263.289,208.858 261.72,234.872 		"/>
		<circle fill="#EC7404" cx="261.583" cy="199.826" r="9.731"/>
		<polygon fill="none" stroke="#FFFFFF" stroke-width="0.5" points="265.453,197 261.583,192.325 257.714,197 259.667,197
			259.667,202.122 263.5,202.122 263.5,197 		"/>
		<text transform="matrix(1 0 0 1 259.9146 207.7061)" fill="#FFFFFF" font-family="'DejaVuSansCondensed-Bold'" font-size="5"></text>
	</g>
	<g>
		<g>
			<polygon fill="#EC7404" stroke="#FFFFFF" stroke-width="0.5" points="249.825,223.206 252.725,221.408 260.377,236.622 			"/>
		</g>
	</g>
	<g>
		<polygon fill="#EC7404" stroke="#FFFFFF" stroke-width="0.5" points="238.708,235.18 239.906,231.983 258.75,237.75 		"/>
		<circle fill="#EC7404" cx="230.821" cy="230" r="9.731"/>
		<g>
			<g>
				<path fill="#EC7404" d="M235.196,231.854c0,0.312-0.255,0.566-0.567,0.566h-9.54c-0.312,0-0.567-0.255-0.567-0.566V226.4
					c0-0.312,0.255-0.566,0.567-0.566h9.54c0.312,0,0.567,0.255,0.567,0.566V231.854z"/>
				<path fill="none" stroke="#FFFFFF" stroke-width="0.5" d="M235.196,231.854c0,0.312-0.255,0.566-0.567,0.566h-9.54
					c-0.312,0-0.567-0.255-0.567-0.566V226.4c0-0.312,0.255-0.566,0.567-0.566h9.54c0.312,0,0.567,0.255,0.567,0.566V231.854z"/>
			</g>
			<g>
				<path fill="#EC7404" d="M237.12,233.777c0,0.312-0.255,0.566-0.567,0.566h-9.54c-0.312,0-0.567-0.255-0.567-0.566v-5.453
					c0-0.312,0.255-0.567,0.567-0.567h9.54c0.312,0,0.567,0.255,0.567,0.567V233.777z"/>
				<path fill="none" stroke="#FFFFFF" stroke-width="0.5" d="M237.12,233.777c0,0.312-0.255,0.566-0.567,0.566h-9.54
					c-0.312,0-0.567-0.255-0.567-0.566v-5.453c0-0.312,0.255-0.567,0.567-0.567h9.54c0.312,0,0.567,0.255,0.567,0.567V233.777z"/>
			</g>
		</g>
	</g>
	<g>
		<polygon fill="#EC7404" stroke="#FFFFFF" stroke-width="0.5" points="205.503,255.01 208.917,255.01 207.347,266.785 		"/>
		<g>
			<circle fill="#EC7404" cx="207.21" cy="246" r="9.731"/>
			<g>
				<g>
					<path fill="none" stroke="#FFFFFF" stroke-width="0.5" d="M211.697,249.92c0,0.312-0.255,0.566-0.567,0.566h-7.839
						c-0.312,0-0.567-0.255-0.567-0.566v-7.84c0-0.312,0.255-0.567,0.567-0.567h7.839c0.312,0,0.567,0.255,0.567,0.567V249.92z"/>
				</g>
				<polygon fill="#FFFFFF" points="203.652,246.025 206.346,249.256 210.787,242.525 206.108,247.943 				"/>
			</g>
		</g>
	</g>
	<g>
		<polygon fill="#EC7404" stroke="#FFFFFF" stroke-width="0.5" points="193.59,263.366 195.583,260.596 204.225,268.75 		"/>
		<circle fill="#EC7404" cx="187.616" cy="255.75" r="9.731"/>
		<polygon fill="none" stroke="#FFFFFF" stroke-width="0.5" points="191.485,252.924 187.615,248.249 183.746,252.924
			185.699,252.924 185.699,258.046 189.532,258.046 189.532,252.924 		"/>
		<rect x="185.929" y="259.307" fill="none" width="8" height="3.834"/>
		<text transform="matrix(1 0 0 1 185.9287 263.1055)" fill="#FFFFFF" font-family="'DejaVuSansCondensed-Bold'" font-size="5">P</text>
	</g>
	<g>
		<polygon fill="#EC7404" points="237.311,117.799 240.725,117.799 239.154,129.575 		"/>
		<circle fill="#EC7404" cx="239.018" cy="108.789" r="9.731"/>
		<g>
			<g>
				<path fill="none" stroke="#FFFFFF" stroke-width="0.5" d="M243.505,114.584c0,0.312-0.255,0.567-0.567,0.567h-7.84
					c-0.312,0-0.567-0.255-0.567-0.567v-11.507c0-0.312,0.255-0.567,0.567-0.567h7.84c0.312,0,0.567,0.255,0.567,0.567V114.584z"/>
			</g>
		</g>
		<path fill="#FFFFFF" d="M239.018,107.161c0.743,0,1.342-0.601,1.342-1.342s-0.599-1.342-1.342-1.342
			c-0.74,0-1.34,0.601-1.341,1.342C237.678,106.56,238.277,107.161,239.018,107.161 M239.018,107.619
			c-1.11,0-2.009,0.899-2.009,2.01v2.102h0.93v3.357h0.824v-3.357h0.511v3.357h0.825v-3.357h0.929v-2.102
			C241.027,108.518,240.129,107.62,239.018,107.619"/>
	</g>
	<g>
		<g>
			<polygon fill="#EC7404" stroke="#FFFFFF" stroke-width="0.5" points="466.674,-23.812 470.086,-23.771 468.379,-12.015 			"/>
			<circle fill="#EC7404" cx="468.492" cy="-32.815" r="9.731"/>
		</g>
		<path fill="#FFFFFF" d="M468.798-29.855c-0.174,1.439-1.402,2.558-2.887,2.558c-1.605,0-2.91-1.305-2.91-2.91
			c0-0.9,0.412-1.709,1.057-2.243v-1.217c-1.232,0.663-2.072,1.965-2.072,3.46c0,2.164,1.762,3.926,3.926,3.926
			c1.641,0,3.051-1.014,3.635-2.449L468.798-29.855z"/>
		<path fill="#FFFFFF" d="M472.472-29.131l-0.811,0.56l-2.08-3.488l-3.998,0.025v-0.829h2.115v-0.889h-2.115v-2.055
			c0.494-0.188,0.846-0.664,0.846-1.225c0-0.725-0.588-1.313-1.311-1.313c-0.725,0-1.314,0.589-1.314,1.313
			c0,0.576,0.373,1.064,0.889,1.24v4.621l4.395,0.005l2.275,3.813l1.594-1.033L472.472-29.131z"/>
		<polygon fill="#FFFFFF" points="467.556,-37.775 468.341,-37.775 468.888,-35.469 469.433,-37.775 470.22,-37.775
			470.767,-35.469 471.312,-37.775 472.091,-37.775 471.343,-34.602 470.399,-34.602 469.823,-37.014 469.255,-34.602
			468.31,-34.602 		"/>
		<path fill="#FFFFFF" d="M474.778-34.776c-0.148,0.077-0.307,0.135-0.471,0.176c-0.162,0.04-0.332,0.06-0.51,0.06
			c-0.527,0-0.945-0.148-1.254-0.443s-0.463-0.695-0.463-1.201c0-0.507,0.154-0.909,0.463-1.204s0.727-0.442,1.254-0.442
			c0.178,0,0.348,0.02,0.51,0.059c0.164,0.039,0.322,0.1,0.471,0.178v0.655c-0.15-0.104-0.301-0.179-0.447-0.228
			c-0.148-0.048-0.303-0.072-0.465-0.072c-0.293,0-0.521,0.094-0.689,0.281s-0.252,0.444-0.252,0.773
			c0,0.327,0.084,0.585,0.252,0.771s0.396,0.279,0.689,0.279c0.162,0,0.316-0.023,0.465-0.072c0.146-0.048,0.297-0.123,0.447-0.227
			V-34.776z"/>
	</g>
	<g>
		<polygon fill="#EC7404" points="252.9,274.925 251.381,277.982 241.537,271.332 		"/>
		<g>
			<circle fill="#EC7404" cx="260.412" cy="280.393" r="9.731"/>
			<g>
				<g>
					<path fill="none" stroke="#FFFFFF" stroke-width="0.5" d="M264.898,286.188c0,0.312-0.255,0.566-0.566,0.566h-7.84
						c-0.312,0-0.567-0.255-0.567-0.566V274.68c0-0.312,0.255-0.566,0.567-0.566h7.84c0.312,0,0.566,0.255,0.566,0.566V286.188z"/>
				</g>
			</g>
			<path fill="#FFFFFF" d="M260.411,278.764c0.743,0,1.342-0.601,1.342-1.342s-0.599-1.342-1.342-1.342
				c-0.74,0-1.34,0.601-1.341,1.342C259.071,278.163,259.671,278.764,260.411,278.764 M260.411,279.223
				c-1.11,0-2.009,0.898-2.009,2.01v2.102h0.93v3.356h0.824v-3.356h0.511v3.356h0.825v-3.356h0.929v-2.102
				C262.421,280.121,261.522,279.223,260.411,279.223"/>
		</g>
	</g>
	<g>
		<circle fill="#EC7404" cx="246.74" cy="214.845" r="9.731"/>
		<text transform="matrix(1 0 0 1 244.979 222.7246)" fill="#FFFFFF" font-family="'DejaVuSansCondensed-Bold'" font-size="5"></text>
		<polygon fill="none" stroke="#FFFFFF" stroke-width="0.5" points="242.821,212.466 246.691,217.142 250.561,212.466
			248.607,212.466 248.607,207.344 244.774,207.344 244.774,212.466 		"/>
	</g>
</g>
</svg>
