<?xml version="1.0" encoding="utf-8"?>
<!-- Generator: Adobe Illustrator 16.0.0, SVG Export Plug-In . SVG Version: 6.00 Build 0)  -->
<!DOCTYPE svg PUBLIC "-//W3C//DTD SVG 1.1//EN" "http://www.w3.org/Graphics/SVG/1.1/DTD/svg11.dtd">
<svg version="1.1" xmlns="http://www.w3.org/2000/svg" xmlns:xlink="http://www.w3.org/1999/xlink" x="0px" y="0px"
	 width="595.275px" height="419.527px" viewBox="0 0 595.275 419.527" enable-background="new 0 0 595.275 419.527"
	 xml:space="preserve">
<g id="Ebene_1">
	<g>
		<g>
			<g enable-background="new    ">
				<defs>
					<polygon id="SVGID_1_" enable-background="new    " points="167.406,183.274 215.665,155.229 455.088,293.469 406.829,321.515 
											"/>
				</defs>
				<clipPath id="SVGID_2_">
					<use xlink:href="#SVGID_1_"  overflow="visible"/>
				</clipPath>
				<g clip-path="url(#SVGID_2_)">
					<g>
						<g>
							<g>
								<path fill="#BDD4E4" d="M322.457,260.63c-0.121-0.069-0.242-0.103-0.381-0.096c-0.135,0.004-0.273,0.048-0.413,0.129
									l-0.495,0.288l0.74,0.428l0.495-0.288c0.14-0.081,0.215-0.162,0.221-0.24C322.637,260.771,322.579,260.7,322.457,260.63
									 M324.034,261.371c-0.147-0.085-0.306-0.125-0.472-0.118c-0.172,0.011-0.344,0.066-0.521,0.17l-0.526,0.306l0.913,0.527
									l0.526-0.306c0.178-0.104,0.273-0.203,0.285-0.299C324.258,261.552,324.188,261.46,324.034,261.371 M326.551,259.664
									l-1.456-0.84l0.479,1.407L326.551,259.664 M331.153,256.457c-0.435-0.251-0.779-0.405-1.04-0.461
									c-0.261-0.055-0.484-0.029-0.681,0.085c-0.19,0.11-0.234,0.24-0.138,0.391c0.097,0.151,0.365,0.351,0.799,0.601
									c0.435,0.251,0.785,0.409,1.046,0.465c0.268,0.059,0.49,0.033,0.68-0.077c0.191-0.111,0.241-0.244,0.139-0.398
									C331.861,256.91,331.588,256.708,331.153,256.457 M323.527,260.748c0.248-0.077,0.502-0.107,0.757-0.077
									c0.255,0.021,0.491,0.1,0.708,0.225c0.338,0.195,0.474,0.405,0.417,0.63c-0.062,0.229-0.321,0.476-0.778,0.741l-1.478,0.859
									l-3.48-2.01l1.338-0.777c0.477-0.276,0.896-0.439,1.258-0.479s0.707,0.033,1.026,0.218c0.166,0.096,0.275,0.202,0.313,0.32
									C323.647,260.509,323.622,260.627,323.527,260.748 M324.9,260.482l-0.692-2.002l0.99-0.574l2.196,1.268l0.494-0.288
									l0.646,0.373l-0.495,0.287l0.639,0.369l-0.844,0.49l-0.639-0.368l-1.528,0.888L324.9,260.482 M328.729,258.835l0.837-0.487
									l0.906,0.524l-0.837,0.486L328.729,258.835 M329.205,257.596c-0.581-0.335-0.895-0.663-0.966-0.984
									c-0.065-0.324,0.13-0.622,0.58-0.884c0.457-0.266,0.966-0.377,1.525-0.339c0.562,0.036,1.128,0.217,1.709,0.553
									c0.575,0.332,0.896,0.663,0.96,0.987c0.065,0.325-0.13,0.616-0.587,0.882c-0.45,0.262-0.959,0.379-1.519,0.342
									C330.354,258.112,329.78,257.928,329.205,257.596 M334.478,255.775l1.522-0.885l0.664,0.383l-2.513,1.46l-0.664-0.383
									l0.146-1.379c0.012-0.126-0.008-0.232-0.053-0.317c-0.045-0.092-0.122-0.166-0.224-0.225
									c-0.166-0.097-0.351-0.137-0.561-0.133c-0.204,0.008-0.401,0.062-0.579,0.166c-0.139,0.081-0.26,0.188-0.366,0.316
									c-0.108,0.13-0.196,0.284-0.265,0.465l-0.767-0.442c0.14-0.155,0.284-0.299,0.443-0.435
									c0.165-0.133,0.335-0.255,0.526-0.365c0.412-0.24,0.824-0.376,1.237-0.401c0.414-0.026,0.783,0.055,1.109,0.243
									c0.191,0.11,0.319,0.235,0.384,0.391c0.071,0.151,0.085,0.395,0.049,0.733L334.478,255.775 M365.849,262.086l-43.882-25.337
									l-30.872,17.942l43.882,25.336L365.849,262.086"/>
								<path fill="#CFD0D2" d="M181.852,185.516c-0.115-0.066-0.242-0.104-0.383-0.096c-0.126,0.008-0.267,0.052-0.406,0.133
									l-0.495,0.288l0.734,0.424l0.495-0.288c0.139-0.081,0.215-0.162,0.221-0.239
									C182.038,185.66,181.973,185.586,181.852,185.516 M183.428,186.257c-0.147-0.084-0.307-0.125-0.478-0.114
									c-0.166,0.008-0.33,0.066-0.508,0.169l-0.526,0.306l0.906,0.523l0.526-0.306c0.178-0.103,0.272-0.203,0.285-0.298
									S183.581,186.345,183.428,186.257 M185.945,184.55l-1.456-0.841l0.479,1.408L185.945,184.55 M190.547,181.343
									c-0.434-0.25-0.778-0.405-1.04-0.46c-0.261-0.055-0.489-0.026-0.68,0.084c-0.19,0.11-0.234,0.24-0.138,0.391
									c0.097,0.151,0.359,0.354,0.793,0.604c0.44,0.255,0.791,0.406,1.053,0.461c0.268,0.059,0.491,0.033,0.681-0.078
									c0.19-0.111,0.24-0.243,0.138-0.398C191.25,181.8,190.987,181.597,190.547,181.343 M182.922,185.634
									c0.248-0.077,0.502-0.106,0.757-0.077c0.255,0.021,0.49,0.1,0.714,0.229c0.332,0.191,0.467,0.402,0.411,0.626
									c-0.062,0.229-0.322,0.476-0.779,0.741l-1.479,0.859l-3.479-2.009l1.339-0.778c0.476-0.276,0.901-0.435,1.257-0.479
									c0.363-0.041,0.707,0.033,1.025,0.217c0.173,0.1,0.275,0.203,0.314,0.321C183.042,185.394,183.017,185.512,182.922,185.634
									 M184.295,185.368l-0.692-2.001l0.99-0.575l2.196,1.268l0.494-0.287l0.651,0.376l-0.494,0.287l0.632,0.365l-0.844,0.49
									l-0.632-0.365l-1.529,0.888L184.295,185.368 M188.129,183.725l0.831-0.483l0.9,0.52l-0.831,0.483L188.129,183.725
									 M188.6,182.482c-0.581-0.335-0.901-0.66-0.967-0.984c-0.065-0.325,0.13-0.623,0.581-0.885
									c0.457-0.266,0.965-0.376,1.525-0.339s1.121,0.221,1.702,0.557c0.575,0.332,0.901,0.66,0.967,0.984
									c0.065,0.324-0.13,0.615-0.587,0.881c-0.45,0.262-0.959,0.379-1.52,0.343C189.742,183.002,189.175,182.814,188.6,182.482
									 M190.009,179.644l2.601-1.512l0.504,0.292l1.63,2.499l-0.87,0.505l-1.546-2.371l-1.662,0.966L190.009,179.644
									 M206.676,182.932l-19.403-11.203l-19.867,11.545l19.403,11.203L206.676,182.932"/>
								<path fill="#BDD4E4" d="M371.356,288.864c-0.121-0.07-0.242-0.104-0.382-0.096c-0.134,0.004-0.272,0.048-0.412,0.129
									l-0.495,0.287l0.734,0.425l0.495-0.288c0.14-0.081,0.221-0.158,0.228-0.236
									C371.536,289.005,371.479,288.935,371.356,288.864 M372.934,289.605c-0.153-0.089-0.307-0.126-0.472-0.118
									c-0.171,0.011-0.343,0.066-0.521,0.17l-0.526,0.306l0.912,0.527l0.526-0.307c0.178-0.104,0.273-0.203,0.286-0.298
									C373.157,289.786,373.086,289.693,372.934,289.605 M375.444,287.895l-1.456-0.84l0.479,1.408L375.444,287.895
									 M380.047,284.688c-0.435-0.251-0.779-0.405-1.04-0.461c-0.255-0.052-0.479-0.025-0.675,0.089
									c-0.19,0.11-0.234,0.239-0.144,0.387c0.096,0.151,0.364,0.35,0.799,0.601c0.44,0.255,0.791,0.413,1.053,0.469
									c0.261,0.056,0.483,0.029,0.674-0.081s0.241-0.243,0.145-0.395C380.761,285.145,380.487,284.941,380.047,284.688
									 M372.427,288.982c0.249-0.078,0.503-0.107,0.751-0.081c0.262,0.025,0.497,0.103,0.714,0.228
									c0.339,0.196,0.474,0.406,0.417,0.631c-0.068,0.226-0.328,0.472-0.785,0.737l-1.478,0.859l-3.474-2.006l1.338-0.777
									c0.477-0.277,0.896-0.439,1.259-0.479s0.7,0.029,1.026,0.218c0.165,0.096,0.274,0.202,0.307,0.316
									C372.547,288.742,372.521,288.86,372.427,288.982 M373.801,288.717l-0.693-2.002l0.99-0.575l2.19,1.265l0.495-0.287
									l0.65,0.376l-0.494,0.287l0.632,0.365l-0.844,0.49l-0.632-0.364l-1.529,0.888L373.801,288.717 M377.629,287.068l0.837-0.486
									l0.9,0.521l-0.837,0.486L377.629,287.068 M378.104,285.83c-0.58-0.335-0.9-0.667-0.972-0.988
									c-0.066-0.324,0.136-0.619,0.586-0.881c0.457-0.266,0.959-0.38,1.52-0.343s1.134,0.222,1.715,0.557
									c0.575,0.332,0.889,0.66,0.953,0.984c0.066,0.324-0.123,0.619-0.58,0.885c-0.45,0.262-0.965,0.376-1.525,0.339
									C379.247,286.343,378.68,286.162,378.104,285.83 M379.896,282.962l0.639-0.563l0.845-0.49l2.854,1.647l0.787-0.457
									l0.619,0.357l-2.417,1.405l-0.619-0.357l0.793-0.461l-2.248-1.298l-0.645,0.567L379.896,282.962 M414.448,290.146
									l-45.069-26.021l-30.872,17.941l45.069,26.022L414.448,290.146"/>
								<polyline fill="#EC7405" points="318.494,234.744 302.073,225.263 271.201,243.204 287.622,252.686 318.494,234.744 
																	"/>
								<path fill="#BDD4E4" d="M250.599,219.14c-0.115-0.066-0.242-0.104-0.381-0.096c-0.128,0.008-0.267,0.052-0.407,0.133
									l-0.495,0.287l0.734,0.424l0.495-0.287c0.14-0.081,0.215-0.162,0.222-0.24C250.784,219.283,250.72,219.21,250.599,219.14
									 M252.175,219.881c-0.146-0.085-0.306-0.126-0.471-0.118c-0.171,0.011-0.337,0.07-0.514,0.173l-0.527,0.307l0.907,0.523
									l0.526-0.307c0.178-0.103,0.272-0.203,0.285-0.299C252.399,220.062,252.328,219.969,252.175,219.881 M254.692,218.174
									l-1.456-0.841l0.479,1.408L254.692,218.174 M259.295,214.967c-0.435-0.251-0.78-0.405-1.041-0.461
									c-0.261-0.056-0.484-0.029-0.681,0.085c-0.189,0.11-0.234,0.239-0.137,0.391c0.096,0.151,0.365,0.35,0.799,0.601
									c0.44,0.254,0.785,0.409,1.046,0.465c0.268,0.059,0.49,0.033,0.68-0.077c0.191-0.111,0.241-0.244,0.138-0.398
									C260.003,215.42,259.735,215.221,259.295,214.967 M251.669,219.258c0.248-0.078,0.502-0.107,0.757-0.077
									c0.255,0.021,0.491,0.099,0.714,0.228c0.332,0.192,0.466,0.402,0.411,0.627c-0.062,0.229-0.322,0.476-0.779,0.741
									l-1.478,0.859l-3.48-2.01l1.338-0.777c0.477-0.276,0.902-0.436,1.258-0.479c0.362-0.04,0.707,0.033,1.025,0.218
									c0.172,0.1,0.275,0.202,0.314,0.32C251.795,219.021,251.763,219.136,251.669,219.258 M253.042,218.992l-0.692-2.002
									l0.99-0.575l2.197,1.269l0.495-0.287l0.651,0.375l-0.495,0.288l0.632,0.365l-0.844,0.49l-0.632-0.365l-1.529,0.889
									L253.042,218.992 M256.877,217.348l0.837-0.486l0.9,0.52l-0.837,0.487L256.877,217.348 M257.347,216.105
									c-0.574-0.331-0.895-0.663-0.966-0.984c-0.066-0.324,0.13-0.622,0.58-0.884c0.457-0.266,0.965-0.377,1.525-0.34
									c0.561,0.037,1.134,0.222,1.708,0.553c0.575,0.332,0.895,0.664,0.96,0.988c0.066,0.324-0.13,0.616-0.587,0.881
									c-0.45,0.262-0.958,0.38-1.519,0.343C258.495,216.622,257.921,216.438,257.347,216.105 M260.309,213.127l0.542,0.313
									c0.05-0.052,0.102-0.104,0.159-0.144c0.057-0.048,0.121-0.093,0.196-0.137c0.418-0.243,0.857-0.372,1.303-0.387
									c0.445-0.015,0.866,0.088,1.243,0.306c0.376,0.218,0.543,0.461,0.494,0.733c-0.037,0.273-0.29,0.538-0.74,0.8
									c-0.197,0.114-0.413,0.218-0.642,0.307c-0.229,0.088-0.483,0.169-0.744,0.232l-0.702-0.405
									c0.292-0.045,0.554-0.101,0.775-0.17c0.229-0.066,0.414-0.145,0.559-0.229c0.216-0.126,0.33-0.259,0.354-0.391
									c0.012-0.133-0.065-0.251-0.25-0.357c-0.185-0.107-0.389-0.151-0.618-0.145c-0.229,0.015-0.458,0.081-0.673,0.206
									c-0.127,0.074-0.241,0.163-0.355,0.266c-0.108,0.107-0.215,0.229-0.31,0.365l-1.96-1.132l2.214-1.286l0.658,0.38
									L260.309,213.127 M298.593,223.254l-53.803-31.065l-18.167,10.558l-0.006-0.004l-12.705,7.384l53.809,31.069l16.828-9.78
									l7.504-4.36L298.593,223.254"/>
								<path fill="#FFFFFF" d="M249.315,219.464l0.495-0.287c0.14-0.081,0.279-0.125,0.407-0.133
									c0.139-0.008,0.267,0.029,0.381,0.096c0.122,0.07,0.186,0.144,0.167,0.221c-0.006,0.078-0.082,0.159-0.222,0.24
									l-0.495,0.287L249.315,219.464 M250.663,220.242l0.527-0.307c0.177-0.103,0.343-0.162,0.514-0.173
									c0.166-0.008,0.325,0.033,0.471,0.118c0.153,0.088,0.224,0.181,0.206,0.279c-0.012,0.096-0.107,0.196-0.285,0.299
									l-0.526,0.307L250.663,220.242 M253.14,219.408c-0.224-0.129-0.459-0.206-0.714-0.228c-0.254-0.03-0.509-0.001-0.757,0.077
									c0.094-0.122,0.126-0.236,0.081-0.351c-0.039-0.118-0.142-0.221-0.314-0.32c-0.319-0.185-0.663-0.258-1.025-0.218
									c-0.356,0.044-0.782,0.203-1.258,0.479l-1.338,0.777l3.48,2.01l1.478-0.859c0.457-0.266,0.716-0.513,0.779-0.741
									C253.606,219.811,253.472,219.601,253.14,219.408"/>
								<path fill="#FFFFFF" d="M253.715,218.741l-0.479-1.408l1.456,0.841L253.715,218.741 M256.682,217.771l-0.651-0.375
									l-0.495,0.287l-2.197-1.269l-0.99,0.575l0.692,2.002l0.772,0.446l1.529-0.889l0.632,0.365l0.844-0.49l-0.632-0.365
									L256.682,217.771"/>
								<polyline fill="#FFFFFF" points="258.614,217.381 257.714,216.861 256.877,217.348 257.777,217.868 258.614,217.381 
																	"/>
								<path fill="#FFFFFF" d="M258.235,215.582c-0.435-0.251-0.703-0.449-0.799-0.601c-0.097-0.151-0.052-0.28,0.137-0.391
									c0.197-0.114,0.42-0.141,0.681-0.085c0.261,0.056,0.606,0.21,1.041,0.461c0.44,0.254,0.708,0.453,0.805,0.604
									c0.103,0.154,0.053,0.287-0.138,0.398c-0.19,0.11-0.413,0.136-0.68,0.077C259.02,215.991,258.676,215.836,258.235,215.582
									 M260.195,214.45c-0.575-0.331-1.148-0.516-1.708-0.553c-0.56-0.037-1.068,0.074-1.525,0.34
									c-0.45,0.262-0.646,0.56-0.58,0.884c0.071,0.321,0.392,0.653,0.966,0.984c0.575,0.332,1.148,0.517,1.703,0.557
									c0.56,0.037,1.069-0.081,1.519-0.343c0.457-0.265,0.653-0.557,0.587-0.881C261.09,215.114,260.77,214.782,260.195,214.45"/>
								<path fill="#FFFFFF" d="M263.751,213.079c-0.377-0.218-0.797-0.32-1.243-0.306c-0.446,0.015-0.884,0.144-1.303,0.387
									c-0.076,0.044-0.14,0.089-0.196,0.137c-0.057,0.04-0.108,0.092-0.159,0.144l-0.542-0.313l1.503-0.873l-0.658-0.38
									l-2.214,1.286l1.96,1.132c0.094-0.136,0.202-0.258,0.31-0.365c0.114-0.103,0.228-0.191,0.355-0.266
									c0.215-0.125,0.444-0.191,0.673-0.206c0.229-0.007,0.433,0.037,0.618,0.145c0.185,0.106,0.263,0.225,0.25,0.357
									c-0.024,0.132-0.138,0.265-0.354,0.391c-0.146,0.084-0.33,0.162-0.559,0.229c-0.222,0.069-0.483,0.125-0.775,0.17
									l0.702,0.405c0.26-0.063,0.515-0.145,0.744-0.232c0.229-0.089,0.444-0.192,0.642-0.307c0.45-0.262,0.703-0.526,0.74-0.8
									C264.294,213.54,264.128,213.297,263.751,213.079"/>
								<path fill="#FFFFFF" d="M180.568,185.84l0.495-0.288c0.139-0.081,0.279-0.125,0.406-0.133
									c0.141-0.007,0.268,0.03,0.383,0.096c0.121,0.07,0.186,0.144,0.167,0.221c-0.006,0.077-0.082,0.158-0.221,0.239
									l-0.495,0.288L180.568,185.84 M181.916,186.618l0.526-0.306c0.178-0.103,0.342-0.162,0.508-0.169
									c0.171-0.011,0.331,0.03,0.478,0.114c0.153,0.088,0.217,0.185,0.205,0.28s-0.107,0.195-0.285,0.298l-0.526,0.306
									L181.916,186.618 M184.393,185.785c-0.224-0.129-0.459-0.207-0.714-0.229c-0.255-0.029-0.509,0-0.757,0.077
									c0.095-0.122,0.12-0.24,0.081-0.35c-0.039-0.118-0.141-0.222-0.314-0.321c-0.319-0.184-0.663-0.258-1.025-0.217
									c-0.356,0.044-0.782,0.203-1.257,0.479l-1.339,0.778l3.479,2.009l1.479-0.859c0.457-0.265,0.716-0.512,0.779-0.741
									C184.859,186.187,184.725,185.977,184.393,185.785"/>
								<path fill="#FFFFFF" d="M184.969,185.118l-0.479-1.408l1.456,0.841L184.969,185.118 M187.935,184.148l-0.651-0.376
									l-0.494,0.287l-2.196-1.268l-0.99,0.575l0.692,2.001l0.773,0.446l1.529-0.888l0.632,0.365l0.844-0.49l-0.632-0.365
									L187.935,184.148"/>
								<polyline fill="#FFFFFF" points="189.86,183.761 188.96,183.242 188.129,183.725 189.029,184.244 189.86,183.761 								
									"/>
								<path fill="#FFFFFF" d="M189.481,181.962c-0.434-0.25-0.696-0.453-0.793-0.604c-0.096-0.151-0.052-0.281,0.138-0.391
									c0.191-0.11,0.419-0.14,0.68-0.084c0.262,0.055,0.606,0.21,1.04,0.46c0.44,0.254,0.703,0.457,0.806,0.605
									c0.103,0.155,0.053,0.287-0.138,0.398c-0.19,0.11-0.413,0.137-0.681,0.078C190.272,182.368,189.922,182.217,189.481,181.962
									 M191.441,180.831c-0.581-0.336-1.142-0.52-1.702-0.557s-1.068,0.074-1.525,0.339c-0.45,0.262-0.646,0.56-0.581,0.885
									c0.066,0.324,0.386,0.648,0.967,0.984c0.575,0.332,1.142,0.52,1.702,0.557c0.561,0.037,1.069-0.081,1.52-0.343
									c0.457-0.266,0.652-0.557,0.587-0.881C192.342,181.491,192.016,181.163,191.441,180.831"/>
								<polyline fill="#FFFFFF" points="193.115,178.423 192.61,178.132 190.009,179.644 190.667,180.023 192.329,179.057 
									193.875,181.428 194.745,180.922 193.115,178.423 								"/>
								<path fill="#FFFFFF" d="M370.067,289.185l0.495-0.287c0.14-0.081,0.278-0.125,0.412-0.129
									c0.14-0.008,0.261,0.025,0.382,0.096c0.122,0.07,0.18,0.141,0.168,0.221c-0.007,0.078-0.088,0.155-0.228,0.236l-0.495,0.288
									L370.067,289.185 M371.415,289.963l0.526-0.306c0.178-0.104,0.35-0.159,0.521-0.17c0.165-0.008,0.318,0.029,0.472,0.118
									c0.152,0.088,0.224,0.181,0.206,0.28c-0.013,0.095-0.108,0.194-0.286,0.298l-0.526,0.307L371.415,289.963 M373.892,289.129
									c-0.217-0.125-0.452-0.202-0.714-0.228c-0.248-0.026-0.502,0.003-0.751,0.081c0.095-0.122,0.12-0.24,0.075-0.354
									c-0.032-0.114-0.142-0.221-0.307-0.316c-0.326-0.188-0.664-0.258-1.026-0.218s-0.782,0.202-1.259,0.479l-1.338,0.777
									l3.474,2.006l1.478-0.859c0.457-0.266,0.717-0.512,0.785-0.737C374.365,289.535,374.23,289.325,373.892,289.129"/>
								<path fill="#FFFFFF" d="M374.468,288.463l-0.479-1.408l1.456,0.84L374.468,288.463 M377.434,287.493l-0.65-0.376
									l-0.495,0.287l-2.19-1.265l-0.99,0.575l0.693,2.002l0.766,0.442l1.529-0.888l0.632,0.364l0.844-0.49l-0.632-0.365
									L377.434,287.493"/>
								<polyline fill="#FFFFFF" points="379.366,287.103 378.466,286.582 377.629,287.068 378.529,287.589 379.366,287.103 
																	"/>
								<path fill="#FFFFFF" d="M378.987,285.303c-0.435-0.251-0.703-0.449-0.799-0.601c-0.091-0.147-0.047-0.276,0.144-0.387
									c0.196-0.114,0.42-0.141,0.675-0.089c0.261,0.056,0.605,0.21,1.04,0.461c0.44,0.254,0.714,0.457,0.812,0.608
									c0.097,0.151,0.046,0.284-0.145,0.395s-0.413,0.137-0.674,0.081C379.778,285.716,379.428,285.558,378.987,285.303
									 M380.953,284.175c-0.581-0.335-1.154-0.52-1.715-0.557s-1.062,0.077-1.52,0.343c-0.45,0.262-0.652,0.557-0.586,0.881
									c0.071,0.321,0.392,0.653,0.972,0.988c0.575,0.332,1.143,0.513,1.696,0.553c0.561,0.037,1.075-0.077,1.525-0.339
									c0.457-0.266,0.646-0.561,0.58-0.885C381.842,284.835,381.528,284.507,380.953,284.175"/>
								<polyline fill="#FFFFFF" points="385.64,283.456 385.021,283.099 384.233,283.556 381.38,281.908 380.535,282.398 
									379.896,282.962 380.504,283.312 381.148,282.745 383.396,284.043 382.604,284.504 383.223,284.861 385.64,283.456 								
									"/>
								<path fill="#CFD0D2" d="M202.165,197.854l5.741-3.336l1.456,0.84l-1.434,0.833l1.443,0.833l-1.427,0.83l1.437,0.829
									l-1.427,0.829l1.443,0.833l-1.453,0.844l-2.898-1.673L202.165,197.854 M406.705,306.282l5.734-3.332l1.455,0.84l-1.427,0.83
									l1.437,0.829l-1.434,0.833l1.443,0.834l-1.428,0.829l1.437,0.829l-1.446,0.841l-2.893-1.67L406.705,306.282
									 M455.088,293.469L250.295,175.224l-9.033,5.234l-19.373,11.259l-11.141-6.433l-19.867,11.545l19.556,11.292l34.723-20.179
									l176.63,101.992l-6.711,3.893l-9.877,5.739l2.836-1.64l-20.964,12.184l19.754,11.405L455.088,293.469"/>
								<path fill="#CFD0D2" d="M213.762,173.192c-0.122-0.07-0.243-0.104-0.383-0.096c-0.133,0.003-0.273,0.048-0.413,0.129
									l-0.495,0.288l0.74,0.428l0.495-0.288c0.14-0.082,0.216-0.163,0.222-0.24C213.941,173.333,213.883,173.262,213.762,173.192
									 M215.338,173.933c-0.153-0.088-0.307-0.125-0.472-0.118c-0.171,0.011-0.343,0.066-0.521,0.169l-0.526,0.306l0.913,0.527
									l0.526-0.306c0.178-0.103,0.273-0.203,0.285-0.299C215.561,174.114,215.491,174.022,215.338,173.933 M217.848,172.223
									l-1.456-0.84l0.478,1.408L217.848,172.223 M222.45,169.016c-0.434-0.25-0.778-0.406-1.033-0.457
									c-0.262-0.056-0.484-0.03-0.681,0.084c-0.191,0.111-0.234,0.24-0.138,0.391c0.089,0.147,0.358,0.346,0.792,0.597
									c0.441,0.254,0.792,0.413,1.053,0.468c0.262,0.055,0.484,0.03,0.675-0.081c0.19-0.11,0.24-0.243,0.144-0.395
									C223.166,169.473,222.891,169.27,222.45,169.016 M226.152,167.604c-0.204-0.118-0.396-0.185-0.574-0.199
									c-0.178-0.015-0.349,0.026-0.508,0.118c-0.152,0.088-0.221,0.188-0.196,0.291c0.026,0.103,0.142,0.213,0.347,0.332
									c0.204,0.118,0.395,0.185,0.573,0.199c0.179,0.015,0.35-0.026,0.502-0.114c0.159-0.092,0.229-0.192,0.202-0.295
									C226.472,167.833,226.356,167.722,226.152,167.604 M214.831,173.311c0.248-0.078,0.502-0.107,0.751-0.082
									c0.261,0.026,0.497,0.104,0.714,0.229c0.338,0.195,0.473,0.405,0.417,0.63c-0.068,0.225-0.328,0.472-0.785,0.737
									l-1.479,0.859l-3.473-2.006l1.339-0.778c0.476-0.276,0.895-0.438,1.257-0.479c0.363-0.041,0.7,0.029,1.026,0.218
									c0.166,0.096,0.275,0.203,0.307,0.317C214.951,173.071,214.926,173.188,214.831,173.311 M216.205,173.045l-0.693-2.002
									l0.989-0.575l2.19,1.264l0.495-0.288l0.652,0.376l-0.495,0.288l0.632,0.365l-0.843,0.49l-0.632-0.365l-1.528,0.889
									L216.205,173.045 M220.032,171.397l0.837-0.486l0.9,0.52l-0.837,0.487L220.032,171.397 M220.509,170.159
									c-0.581-0.335-0.9-0.667-0.972-0.988c-0.066-0.324,0.137-0.62,0.587-0.881c0.456-0.265,0.958-0.38,1.519-0.343
									c0.56,0.037,1.134,0.221,1.714,0.557c0.575,0.332,0.889,0.66,0.955,0.984c0.065,0.325-0.125,0.62-0.581,0.885
									c-0.45,0.262-0.965,0.376-1.525,0.339C221.651,170.671,221.083,170.49,220.509,170.159 M224.155,167.655
									c0.024-0.103,0.081-0.203,0.157-0.291c0.083-0.092,0.19-0.177,0.336-0.262c0.349-0.203,0.737-0.31,1.163-0.313
									c0.427-0.011,0.809,0.085,1.147,0.28c0.371,0.214,0.55,0.457,0.526,0.73c-0.018,0.269-0.226,0.523-0.632,0.759
									c-0.45,0.262-0.952,0.376-1.507,0.343c-0.547-0.037-1.102-0.21-1.664-0.535c-0.575-0.332-0.882-0.678-0.922-1.032
									c-0.041-0.361,0.193-0.682,0.694-0.973c0.159-0.092,0.318-0.177,0.496-0.25c0.171-0.07,0.362-0.136,0.559-0.192l0.645,0.373
									c-0.216,0.044-0.407,0.096-0.572,0.147c-0.166,0.059-0.311,0.122-0.432,0.191c-0.267,0.155-0.399,0.321-0.398,0.49
									C223.758,167.294,223.886,167.471,224.155,167.655 M246.675,173.133l-31.01-17.905l-24.941,14.495l31.01,17.904
									L246.675,173.133"/>
								<path fill="#FFFFFF" d="M212.471,173.513l0.495-0.288c0.14-0.081,0.28-0.125,0.413-0.129
									c0.14-0.008,0.261,0.025,0.383,0.096c0.121,0.07,0.179,0.14,0.167,0.221c-0.006,0.077-0.082,0.158-0.222,0.24l-0.495,0.288
									L212.471,173.513 M213.818,174.291l0.526-0.306c0.178-0.103,0.35-0.159,0.521-0.169c0.166-0.007,0.319,0.029,0.472,0.118
									c0.153,0.089,0.223,0.181,0.205,0.28c-0.012,0.096-0.107,0.196-0.285,0.299l-0.526,0.306L213.818,174.291 M216.296,173.458
									c-0.217-0.125-0.453-0.203-0.714-0.229c-0.249-0.026-0.503,0.004-0.751,0.082c0.095-0.122,0.12-0.24,0.074-0.354
									c-0.032-0.114-0.141-0.221-0.307-0.317c-0.326-0.188-0.663-0.258-1.026-0.218c-0.362,0.041-0.781,0.203-1.257,0.479
									l-1.339,0.778l3.473,2.006l1.479-0.859c0.457-0.265,0.716-0.512,0.785-0.737
									C216.769,173.863,216.634,173.653,216.296,173.458"/>
								<path fill="#FFFFFF" d="M216.871,172.791l-0.478-1.408l1.456,0.84L216.871,172.791 M219.838,171.821l-0.652-0.376
									l-0.495,0.288l-2.19-1.264l-0.989,0.575l0.693,2.002l0.766,0.442l1.528-0.889l0.632,0.365l0.843-0.49l-0.632-0.365
									L219.838,171.821"/>
								<polyline fill="#FFFFFF" points="221.77,171.43 220.869,170.911 220.032,171.397 220.933,171.917 221.77,171.43 								"/>
								<path fill="#FFFFFF" d="M221.391,169.631c-0.434-0.251-0.703-0.45-0.792-0.597c-0.097-0.151-0.053-0.28,0.138-0.391
									c0.197-0.114,0.419-0.14,0.681-0.084c0.255,0.051,0.599,0.207,1.033,0.457c0.44,0.254,0.715,0.457,0.812,0.608
									c0.097,0.151,0.046,0.284-0.144,0.395c-0.191,0.111-0.413,0.136-0.675,0.081
									C222.182,170.044,221.832,169.886,221.391,169.631 M223.357,168.503c-0.581-0.335-1.154-0.52-1.714-0.557
									c-0.561-0.037-1.063,0.078-1.519,0.343c-0.45,0.261-0.653,0.557-0.587,0.881c0.072,0.321,0.391,0.653,0.972,0.988
									c0.575,0.332,1.143,0.512,1.696,0.553c0.56,0.037,1.076-0.078,1.525-0.339c0.457-0.265,0.646-0.56,0.581-0.885
									C224.246,169.163,223.932,168.835,223.357,168.503"/>
								<path fill="#FFFFFF" d="M225.221,168.146c-0.205-0.118-0.32-0.229-0.347-0.332c-0.025-0.103,0.044-0.203,0.196-0.291
									c0.159-0.092,0.331-0.133,0.508-0.118c0.179,0.015,0.37,0.081,0.574,0.199c0.204,0.118,0.32,0.229,0.345,0.332
									c0.027,0.103-0.043,0.203-0.202,0.295c-0.152,0.088-0.324,0.129-0.502,0.114
									C225.616,168.33,225.424,168.263,225.221,168.146 M226.958,167.069c-0.338-0.195-0.721-0.292-1.147-0.28
									c-0.426,0.004-0.814,0.111-1.163,0.313c-0.146,0.084-0.253,0.17-0.336,0.262c-0.076,0.088-0.132,0.188-0.157,0.291
									c-0.269-0.185-0.397-0.361-0.404-0.535c-0.001-0.169,0.131-0.335,0.398-0.49c0.121-0.07,0.266-0.132,0.432-0.191
									c0.165-0.052,0.355-0.104,0.572-0.147l-0.645-0.373c-0.197,0.056-0.387,0.122-0.559,0.192
									c-0.178,0.074-0.337,0.159-0.496,0.25c-0.501,0.291-0.734,0.612-0.694,0.973c0.04,0.354,0.347,0.701,0.922,1.032
									c0.562,0.325,1.116,0.498,1.664,0.535c0.555,0.033,1.057-0.081,1.507-0.343c0.406-0.236,0.614-0.49,0.632-0.759
									C227.507,167.526,227.328,167.283,226.958,167.069"/>
								<path fill="#FFFFFF" d="M321.168,260.951l0.495-0.288c0.14-0.081,0.278-0.125,0.413-0.129
									c0.139-0.007,0.26,0.026,0.381,0.096c0.122,0.07,0.18,0.141,0.167,0.221c-0.006,0.078-0.081,0.159-0.221,0.24l-0.495,0.288
									L321.168,260.951 M322.515,261.729l0.526-0.306c0.178-0.104,0.35-0.159,0.521-0.17c0.166-0.007,0.324,0.033,0.472,0.118
									c0.153,0.089,0.224,0.181,0.205,0.28c-0.012,0.096-0.107,0.195-0.285,0.299l-0.526,0.306L322.515,261.729 M324.992,260.896
									c-0.217-0.125-0.453-0.203-0.708-0.225c-0.255-0.03-0.509,0-0.757,0.077c0.095-0.121,0.12-0.239,0.081-0.351
									c-0.038-0.118-0.147-0.225-0.313-0.32c-0.319-0.185-0.664-0.258-1.026-0.218s-0.781,0.203-1.258,0.479l-1.338,0.777
									l3.48,2.01l1.478-0.859c0.457-0.266,0.716-0.512,0.778-0.741C325.466,261.301,325.33,261.091,324.992,260.896"/>
								<path fill="#FFFFFF" d="M325.573,260.231l-0.479-1.407l1.456,0.84L325.573,260.231 M328.534,259.259l-0.646-0.373
									l-0.494,0.288l-2.196-1.268l-0.99,0.574l0.692,2.002l0.767,0.442l1.528-0.888l0.639,0.368l0.844-0.49l-0.639-0.369
									L328.534,259.259"/>
								<polyline fill="#FFFFFF" points="330.473,258.872 329.566,258.348 328.729,258.835 329.636,259.358 330.473,258.872 
																	"/>
								<path fill="#FFFFFF" d="M330.094,257.072c-0.434-0.25-0.702-0.449-0.799-0.601c-0.097-0.15-0.053-0.28,0.138-0.391
									c0.196-0.114,0.42-0.14,0.681-0.085c0.261,0.056,0.605,0.21,1.04,0.461s0.708,0.453,0.805,0.604
									c0.103,0.154,0.053,0.287-0.139,0.398c-0.189,0.11-0.412,0.136-0.68,0.077C330.879,257.481,330.528,257.323,330.094,257.072
									 M332.054,255.941c-0.581-0.336-1.147-0.517-1.709-0.553c-0.56-0.038-1.068,0.073-1.525,0.339
									c-0.45,0.262-0.646,0.56-0.58,0.884c0.071,0.321,0.385,0.649,0.966,0.984c0.575,0.332,1.148,0.517,1.703,0.557
									c0.56,0.037,1.068-0.08,1.519-0.342c0.457-0.266,0.652-0.557,0.587-0.882C332.949,256.604,332.629,256.273,332.054,255.941"
									/>
								<path fill="#FFFFFF" d="M336.664,255.273L336,254.891l-1.522,0.885l0.091-0.808c0.036-0.339,0.022-0.582-0.049-0.733
									c-0.064-0.155-0.192-0.28-0.384-0.391c-0.326-0.188-0.695-0.27-1.109-0.243c-0.413,0.025-0.825,0.161-1.237,0.401
									c-0.191,0.11-0.361,0.232-0.526,0.365c-0.159,0.136-0.304,0.279-0.443,0.435l0.767,0.442
									c0.068-0.181,0.156-0.335,0.265-0.465c0.106-0.128,0.228-0.235,0.366-0.316c0.178-0.104,0.375-0.158,0.579-0.166
									c0.21-0.004,0.395,0.036,0.561,0.133c0.102,0.059,0.179,0.133,0.224,0.225c0.045,0.085,0.064,0.191,0.053,0.317
									l-0.146,1.379l0.664,0.383L336.664,255.273"/>
								<polyline fill="#FFFFFF" points="209.362,195.358 207.906,194.518 202.165,197.854 205.044,199.517 207.943,201.19 
									209.396,200.346 207.953,199.513 209.38,198.684 207.943,197.854 209.371,197.025 207.928,196.192 209.362,195.358 								
									"/>
								<polyline fill="#FFFFFF" points="413.895,303.79 412.439,302.95 406.705,306.282 409.584,307.945 412.477,309.615 
									413.923,308.774 412.486,307.945 413.914,307.116 412.471,306.282 413.904,305.449 412.468,304.62 413.895,303.79 								
									"/>
							</g>
						</g>
					</g>
				</g>
			</g>
		</g>
	</g>
</g>
<g id="Ebene_2">
	<g>
		<polygon fill="#EC7404" stroke="#FFFFFF" stroke-width="0.5" points="312.837,-23.968 316.249,-23.968 314.68,-12.192 		"/>
		<circle fill="#EC7404" cx="314.543" cy="-33" r="9.731"/>
		<polygon fill="none" stroke="#FFFFFF" stroke-width="0.5" points="318.413,-35.826 314.543,-40.501 310.674,-35.826 
			312.627,-35.826 312.627,-30.704 316.46,-30.704 316.46,-35.826 		"/>
		<text transform="matrix(1 0 0 1 312.875 -25.1201)" fill="#FFFFFF" font-family="'DejaVuSansCondensed-Bold'" font-size="5">€</text>
	</g>
	<g>
		<polygon fill="#EC7404" stroke="#FFFFFF" stroke-width="0.5" points="338.409,-23.968 341.822,-23.968 340.252,-12.192 		"/>
		<circle fill="#EC7404" cx="340.116" cy="-33" r="9.731"/>
		<polygon fill="none" stroke="#FFFFFF" stroke-width="0.5" points="343.985,-35.826 340.115,-40.501 336.246,-35.826 
			338.199,-35.826 338.199,-30.704 342.032,-30.704 342.032,-35.826 		"/>
		<rect x="338.429" y="-29.443" fill="none" width="8" height="3.833"/>
		<text transform="matrix(1 0 0 1 338.4287 -25.644)" fill="#FFFFFF" font-family="'DejaVuSansCondensed-Bold'" font-size="5">P</text>
	</g>
	<g>
		<polygon fill="#EC7404" stroke="#FFFFFF" stroke-width="0.5" points="363.981,-23.968 367.394,-23.968 365.824,-12.192 		"/>
		<circle fill="#EC7404" cx="365.688" cy="-33" r="9.731"/>
		<polygon fill="none" stroke="#FFFFFF" stroke-width="0.5" points="369.558,-35.826 365.688,-40.501 361.818,-35.826 
			363.771,-35.826 363.771,-30.704 367.604,-30.704 367.604,-35.826 		"/>
		<rect x="360.819" y="-29.442" fill="none" width="8" height="3.833"/>
		<text transform="matrix(1 0 0 1 360.8193 -25.6431)" fill="#FFFFFF" font-family="'DejaVuSansCondensed-Bold'" font-size="5"> EC</text>
	</g>
	<g>
		<polygon fill="#EC7404" stroke="#FFFFFF" stroke-width="0.5" points="415.003,-23.991 418.417,-23.991 416.847,-12.215 		"/>
		<g>
			<circle fill="#EC7404" cx="416.71" cy="-33" r="9.731"/>
			<g>
				<g>
					<path fill="none" stroke="#FFFFFF" stroke-width="0.5" d="M421.197-29.081c0,0.312-0.255,0.567-0.567,0.567h-7.839
						c-0.312,0-0.567-0.255-0.567-0.567v-7.84c0-0.312,0.255-0.567,0.567-0.567h7.839c0.312,0,0.567,0.255,0.567,0.567V-29.081z"/>
				</g>
				<polygon fill="#FFFFFF" points="413.152,-32.975 415.846,-29.744 420.287,-36.475 415.608,-31.057 				"/>
			</g>
		</g>
	</g>
	<g>
		<polygon fill="#EC7404" stroke="#FFFFFF" stroke-width="0.5" points="440.863,-23.991 444.277,-23.991 442.707,-12.215 		"/>
		<circle fill="#EC7404" cx="442.571" cy="-33" r="9.731"/>
		<g>
			<g>
				<path fill="#EC7404" d="M446.946-31.146c0,0.312-0.255,0.567-0.567,0.567h-9.54c-0.312,0-0.567-0.255-0.567-0.567V-36.6
					c0-0.312,0.255-0.567,0.567-0.567h9.54c0.312,0,0.567,0.255,0.567,0.567V-31.146z"/>
				<path fill="none" stroke="#FFFFFF" stroke-width="0.5" d="M446.946-31.146c0,0.312-0.255,0.567-0.567,0.567h-9.54
					c-0.312,0-0.567-0.255-0.567-0.567V-36.6c0-0.312,0.255-0.567,0.567-0.567h9.54c0.312,0,0.567,0.255,0.567,0.567V-31.146z"/>
			</g>
			<g>
				<path fill="#EC7404" d="M448.87-29.223c0,0.312-0.255,0.567-0.567,0.567h-9.54c-0.312,0-0.567-0.255-0.567-0.567v-5.454
					c0-0.312,0.255-0.567,0.567-0.567h9.54c0.312,0,0.567,0.255,0.567,0.567V-29.223z"/>
				<path fill="none" stroke="#FFFFFF" stroke-width="0.5" d="M448.87-29.223c0,0.312-0.255,0.567-0.567,0.567h-9.54
					c-0.312,0-0.567-0.255-0.567-0.567v-5.454c0-0.312,0.255-0.567,0.567-0.567h9.54c0.312,0,0.567,0.255,0.567,0.567V-29.223z"/>
			</g>
		</g>
	</g>
	<g>
		<polygon fill="#EC7404" stroke="#FFFFFF" stroke-width="0.5" points="287.264,-23.968 290.677,-23.968 289.107,-12.192 		"/>
		<circle fill="#EC7404" cx="288.97" cy="-33" r="9.731"/>
		<g>
			<path fill="#FFFFFF" d="M285.842-31.311h6.294v-0.557h-6.294V-31.311z M285.842-29.615h6.294v-0.557h-6.294V-29.615z
				 M285.842-34.658h6.294v-0.558h-6.294V-34.658z M285.842-32.993h6.294v-0.557h-6.294V-32.993z M292.842-27.685h-7.744v-11.183
				h5.521v2.222h2.223V-27.685z M284.54-27.125 M291.178-38.797l1.594,1.592h-1.594V-38.797z M291.336-39.427h-6.796v12.301h8.86
				v-10.239L291.336-39.427z"/>
		</g>
	</g>
	<g>
		<polygon fill="#EC7404" stroke="#FFFFFF" stroke-width="0.5" points="261.69,-23.968 265.104,-23.968 263.533,-12.192 		"/>
		<circle fill="#EC7404" cx="263.397" cy="-33.001" r="9.731"/>
		<g>
			<g>
				<path fill="#FFFFFF" d="M268.454-33.723c-0.002-0.272-0.025-0.522-0.083-0.758c-0.046-0.183-0.114-0.358-0.217-0.517
					c-0.152-0.24-0.387-0.429-0.656-0.535c-0.269-0.108-0.564-0.149-0.898-0.149c-0.295,0-0.563,0.033-0.811,0.114
					c-0.185,0.062-0.357,0.153-0.505,0.277c-0.223,0.186-0.377,0.438-0.463,0.709c-0.086,0.264-0.118,0.55-0.119,0.862l-0.569,4.806
					h1.198v2.099h0.97v-2.099h0.6v2.099h0.97v-2.099h1.204L268.454-33.723z"/>
				<path fill="#FFFFFF" d="M260.08-36.128c0.872,0,1.576-0.707,1.576-1.577c0-0.871-0.704-1.577-1.576-1.577
					c-0.87,0-1.575,0.706-1.576,1.577C258.505-36.834,259.21-36.128,260.08-36.128 M260.08-35.59
					c-1.305,0.001-2.36,1.057-2.36,2.361v2.469h1.092v3.943h0.969v-3.943h0.6v3.943h0.97v-3.943h1.091v-2.469
					C262.44-34.534,261.385-35.589,260.08-35.59"/>
			</g>
			<circle fill="#FFFFFF" cx="266.494" cy="-37.707" r="1.584"/>
		</g>
	</g>
	<g>
		<polygon fill="#EC7404" stroke="#FFFFFF" stroke-width="0.5" points="389.554,-23.968 392.967,-23.968 391.397,-12.192 		"/>
		<circle fill="#EC7404" cx="391.26" cy="-33" r="9.731"/>
		<text transform="matrix(1 0 0 1 389.5 -25.1201)" fill="#FFFFFF" font-family="'DejaVuSansCondensed-Bold'" font-size="5">€</text>
		<polygon fill="none" stroke="#FFFFFF" stroke-width="0.5" points="387.342,-35.379 391.212,-30.704 395.081,-35.379 
			393.128,-35.379 393.128,-40.501 389.295,-40.501 389.295,-35.379 		"/>
	</g>
	<g>
		<polygon fill="#EC7404" stroke="#FFFFFF" stroke-width="0.5" points="300.363,219.739 303.776,219.739 302.206,231.515 		"/>
		<circle fill="#EC7404" cx="302.07" cy="210.706" r="9.731"/>
		<g>
			<g>
				<path fill="#FFFFFF" d="M307.127,209.984c-0.002-0.272-0.025-0.522-0.083-0.758c-0.046-0.183-0.114-0.358-0.217-0.517
					c-0.152-0.24-0.387-0.429-0.656-0.535c-0.269-0.108-0.564-0.149-0.898-0.149c-0.295,0-0.563,0.033-0.811,0.114
					c-0.185,0.062-0.357,0.153-0.505,0.277c-0.223,0.186-0.377,0.438-0.463,0.709c-0.086,0.264-0.118,0.55-0.119,0.862l-0.569,4.806
					h1.198v2.099h0.97v-2.099h0.6v2.099h0.97v-2.099h1.204L307.127,209.984z"/>
				<path fill="#FFFFFF" d="M298.753,207.579c0.872,0,1.576-0.707,1.576-1.577c0-0.871-0.704-1.577-1.576-1.577
					c-0.87,0-1.575,0.706-1.576,1.577C297.178,206.873,297.883,207.579,298.753,207.579 M298.753,208.117
					c-1.305,0.001-2.36,1.057-2.36,2.361v2.47h1.092v3.943h0.969v-3.943h0.6v3.943h0.97v-3.943h1.091v-2.47
					C301.113,209.173,300.058,208.118,298.753,208.117"/>
			</g>
			<circle fill="#FFFFFF" cx="305.167" cy="206" r="1.584"/>
		</g>
	</g>
</g>
</svg>
