<?xml version="1.0" encoding="utf-8"?>
<!-- Generator: Adobe Illustrator 16.0.0, SVG Export Plug-In . SVG Version: 6.00 Build 0)  -->
<!DOCTYPE svg PUBLIC "-//W3C//DTD SVG 1.1//EN" "http://www.w3.org/Graphics/SVG/1.1/DTD/svg11.dtd">
<svg version="1.1" id="Ebene_1" xmlns="http://www.w3.org/2000/svg" xmlns:xlink="http://www.w3.org/1999/xlink" x="0px" y="0px"
	 width="595.275px" height="419.527px" viewBox="0 0 595.275 419.527" enable-background="new 0 0 595.275 419.527"
	 xml:space="preserve">
<g>
	<g enable-background="new    ">
		<g>
			<polygon fill="#EC7404" points="207.225,286.728 209.068,287.792 242.541,307.111 259.81,297.076 224.5,276.689 			"/>
			<g>
				<defs>
					<polygon id="SVGID_1_" points="101.351,225.602 248.451,140.117 389.635,221.629 242.535,307.115 					"/>
				</defs>
				<clipPath id="SVGID_2_">
					<use xlink:href="#SVGID_1_"  overflow="visible"/>
				</clipPath>
				<path clip-path="url(#SVGID_2_)" id="E5.07" fill="#BFBFBF" d="M261.551,274.656c-0.523-0.303-0.936-0.488-1.247-0.555
					c-0.315-0.069-0.584-0.033-0.818,0.104c-0.229,0.133-0.291,0.289-0.169,0.471c0.115,0.18,0.432,0.421,0.955,0.723
					c0.53,0.306,0.954,0.492,1.27,0.561c0.315,0.07,0.59,0.035,0.818-0.096c0.234-0.136,0.286-0.292,0.164-0.475
					C262.407,275.203,262.079,274.96,261.551,274.656 M251.665,280.779l0.954,0.551l1.884-1.094l0.821,0.474l-2.957,1.72
					l-4.189-2.419l2.9-1.687l0.816,0.472l-1.827,1.062l0.776,0.448l1.718-0.999l0.822,0.475L251.665,280.779 M253.521,277.824
					l0.65,0.375c0.062-0.063,0.125-0.119,0.193-0.18c0.068-0.053,0.148-0.105,0.24-0.158c0.508-0.296,1.028-0.452,1.566-0.465
					c0.538-0.02,1.038,0.102,1.497,0.367c0.455,0.262,0.651,0.555,0.601,0.883c-0.055,0.326-0.351,0.65-0.898,0.969
					c-0.234,0.137-0.491,0.26-0.766,0.365c-0.281,0.109-0.577,0.202-0.904,0.279l-0.845-0.488c0.35-0.057,0.666-0.127,0.938-0.205
					c0.264-0.08,0.493-0.173,0.675-0.279c0.257-0.149,0.4-0.305,0.416-0.467c0.028-0.162-0.07-0.306-0.289-0.432
					c-0.224-0.13-0.471-0.188-0.751-0.17c-0.274,0.013-0.543,0.096-0.8,0.246c-0.154,0.09-0.303,0.195-0.439,0.321
					c-0.131,0.123-0.256,0.269-0.37,0.435l-2.355-1.359l2.666-1.551l0.793,0.459L253.521,277.824 M258.64,277.525l1.005-0.584
					l1.085,0.627l-1.004,0.584L258.64,277.525 M259.21,276.029c-0.696-0.4-1.086-0.799-1.164-1.188
					c-0.083-0.393,0.15-0.746,0.698-1.065c0.548-0.317,1.16-0.454,1.837-0.407c0.67,0.043,1.358,0.269,2.054,0.67
					c0.695,0.4,1.081,0.795,1.157,1.184c0.084,0.392-0.149,0.746-0.697,1.066c-0.549,0.317-1.16,0.453-1.837,0.407
					C260.588,276.653,259.905,276.43,259.21,276.029 M260.909,272.611l3.134-1.82l0.61,0.352l1.958,3.01l-1.043,0.605l-1.861-2.853
					l-2.004,1.163L260.909,272.611 M289.986,279.539l-35.31-20.387l-26.792,15.57l35.31,20.386L289.986,279.539"/>
				<path clip-path="url(#SVGID_2_)" id="E5.04" fill="#BFBFBF" d="M361.078,216.816c-0.523-0.302-0.937-0.488-1.246-0.554
					c-0.316-0.07-0.585-0.034-0.818,0.103c-0.229,0.133-0.291,0.289-0.169,0.471c0.116,0.18,0.433,0.422,0.956,0.725
					c0.527,0.305,0.953,0.49,1.268,0.561c0.315,0.068,0.59,0.035,0.818-0.098c0.235-0.136,0.285-0.291,0.164-0.475
					C361.936,217.363,361.607,217.122,361.078,216.816 M364.792,215.296l-1.751-1.012l0.576,1.695L364.792,215.296 M351.193,222.94
					l0.954,0.552l1.882-1.096l0.823,0.475l-2.958,1.719l-4.188-2.42l2.9-1.684l0.815,0.471l-1.825,1.062l0.773,0.447l1.72-0.999
					l0.82,0.475L351.193,222.94 M353.049,219.984l0.648,0.375c0.065-0.062,0.127-0.119,0.193-0.18
					c0.07-0.053,0.15-0.105,0.241-0.158c0.508-0.295,1.027-0.451,1.566-0.465c0.54-0.02,1.037,0.104,1.497,0.367
					c0.454,0.262,0.652,0.556,0.6,0.884c-0.055,0.325-0.35,0.65-0.898,0.968c-0.234,0.136-0.492,0.26-0.766,0.365
					c-0.279,0.109-0.577,0.203-0.902,0.279l-0.846-0.488c0.35-0.057,0.663-0.126,0.938-0.205c0.264-0.08,0.494-0.173,0.674-0.278
					c0.258-0.149,0.4-0.306,0.416-0.468c0.027-0.164-0.068-0.307-0.287-0.432c-0.225-0.13-0.473-0.186-0.751-0.17
					c-0.276,0.014-0.544,0.098-0.802,0.246c-0.154,0.09-0.303,0.195-0.438,0.322c-0.132,0.122-0.256,0.27-0.369,0.434l-2.358-1.359
					l2.667-1.549l0.794,0.457L353.049,219.984 M358.168,219.685l1.004-0.583l1.087,0.626l-1.005,0.585L358.168,219.685
					 M358.739,218.189c-0.697-0.4-1.087-0.799-1.165-1.188c-0.083-0.391,0.15-0.746,0.697-1.064c0.551-0.319,1.16-0.455,1.837-0.408
					c0.671,0.043,1.358,0.269,2.055,0.67c0.694,0.402,1.081,0.797,1.159,1.184c0.08,0.393-0.152,0.748-0.7,1.065
					c-0.548,0.319-1.16,0.456-1.837,0.408C360.116,218.812,359.434,218.591,358.739,218.189 M362.811,216.289l-0.832-2.412
					l1.193-0.693l2.637,1.522l0.595-0.345l0.787,0.455l-0.595,0.344l0.764,0.442l-1.016,0.59l-0.764-0.441l-1.844,1.072
					L362.811,216.289 M389.635,221.629l-35.31-20.386l-28.7,16.677l35.31,20.386L389.635,221.629"/>
				<path clip-path="url(#SVGID_2_)" id="E5.05" fill="#BFBFBF" d="M328.984,235.468c-0.523-0.303-0.938-0.488-1.246-0.555
					c-0.316-0.07-0.586-0.033-0.82,0.103c-0.228,0.133-0.289,0.289-0.168,0.472c0.115,0.179,0.432,0.422,0.955,0.723
					c0.527,0.305,0.953,0.492,1.27,0.561c0.312,0.07,0.59,0.037,0.818-0.096c0.232-0.136,0.283-0.291,0.162-0.475
					C329.841,236.015,329.512,235.773,328.984,235.468 M319.097,241.592l0.956,0.55l1.883-1.094l0.821,0.475l-2.957,1.719
					l-4.188-2.42l2.9-1.686l0.815,0.471l-1.826,1.062l0.776,0.448l1.717-0.999l0.822,0.475L319.097,241.592 M320.959,238.634
					l0.65,0.373c0.058-0.06,0.119-0.116,0.188-0.176c0.068-0.053,0.147-0.106,0.24-0.158c0.508-0.297,1.027-0.451,1.566-0.466
					c0.538-0.02,1.037,0.103,1.496,0.368c0.455,0.262,0.651,0.555,0.602,0.883c-0.056,0.324-0.352,0.65-0.899,0.969
					c-0.234,0.137-0.491,0.259-0.766,0.365c-0.28,0.109-0.576,0.202-0.903,0.279l-0.844-0.488c0.354-0.061,0.662-0.126,0.938-0.206
					c0.264-0.079,0.492-0.173,0.674-0.278c0.256-0.149,0.399-0.305,0.417-0.468c0.026-0.163-0.071-0.306-0.29-0.432
					c-0.223-0.129-0.471-0.187-0.752-0.169c-0.273,0.014-0.543,0.096-0.8,0.246c-0.155,0.089-0.303,0.195-0.438,0.321
					c-0.133,0.122-0.258,0.269-0.37,0.435l-2.357-1.359l2.665-1.551l0.795,0.459L320.959,238.634 M326.072,238.337l1.005-0.584
					l1.085,0.627l-1.004,0.584L326.072,238.337 M326.643,236.841c-0.695-0.402-1.086-0.799-1.162-1.188
					c-0.084-0.393,0.15-0.748,0.697-1.065c0.548-0.318,1.16-0.454,1.836-0.408c0.67,0.044,1.359,0.269,2.054,0.67
					c0.696,0.401,1.083,0.796,1.158,1.185c0.083,0.391-0.149,0.746-0.698,1.065c-0.547,0.318-1.16,0.454-1.836,0.409
					C328.021,237.464,327.338,237.243,326.643,236.841 M330.213,233.255l0.65,0.375c0.057-0.059,0.126-0.121,0.187-0.177
					c0.075-0.056,0.155-0.108,0.241-0.159c0.508-0.295,1.027-0.451,1.573-0.468c0.533-0.017,1.03,0.107,1.49,0.372
					c0.452,0.262,0.651,0.554,0.6,0.883c-0.054,0.324-0.345,0.646-0.892,0.965c-0.235,0.136-0.492,0.259-0.771,0.368
					c-0.275,0.106-0.578,0.202-0.903,0.278l-0.846-0.488c0.355-0.059,0.67-0.129,0.937-0.205c0.271-0.082,0.499-0.176,0.676-0.279
					c0.262-0.152,0.404-0.308,0.422-0.471c0.021-0.158-0.076-0.301-0.295-0.428c-0.224-0.129-0.472-0.186-0.744-0.172
					c-0.275,0.013-0.545,0.096-0.807,0.248c-0.156,0.09-0.305,0.196-0.434,0.319c-0.139,0.126-0.262,0.271-0.375,0.438l-2.357-1.36
					l2.665-1.549l0.792,0.457L330.213,233.255 M357.048,240.566l-35.31-20.386l-26.786,15.567l35.31,20.385L357.048,240.566"/>
				<path clip-path="url(#SVGID_2_)" id="E5.06" fill="#BFBFBF" d="M295.426,254.968c-0.523-0.301-0.937-0.488-1.247-0.554
					c-0.32-0.067-0.584-0.033-0.817,0.103c-0.229,0.133-0.29,0.289-0.168,0.471c0.116,0.18,0.431,0.422,0.955,0.725
					c0.529,0.305,0.954,0.49,1.269,0.561c0.314,0.068,0.59,0.035,0.818-0.098c0.229-0.133,0.284-0.291,0.163-0.475
					C296.283,255.515,295.955,255.274,295.426,254.968 M299.891,253.267c-0.248-0.144-0.478-0.223-0.693-0.236
					c-0.219-0.02-0.419,0.03-0.607,0.139c-0.189,0.11-0.273,0.227-0.24,0.352c0.026,0.127,0.163,0.26,0.409,0.402
					c0.243,0.14,0.472,0.219,0.696,0.235c0.211,0.017,0.418-0.03,0.605-0.14c0.189-0.107,0.27-0.229,0.238-0.351
					C300.27,253.539,300.132,253.406,299.891,253.267 M285.541,261.092l0.954,0.552l1.884-1.096l0.822,0.475l-2.957,1.719
					l-4.189-2.418l2.9-1.686l0.816,0.471l-1.827,1.062l0.775,0.447l1.713-0.995l0.822,0.477L285.541,261.092 M287.397,258.136
					l0.65,0.376c0.062-0.064,0.126-0.12,0.193-0.18c0.069-0.054,0.148-0.106,0.24-0.159c0.508-0.295,1.028-0.451,1.566-0.465
					c0.539-0.02,1.038,0.104,1.497,0.369c0.455,0.262,0.652,0.553,0.602,0.882c-0.056,0.325-0.351,0.65-0.899,0.97
					c-0.234,0.135-0.491,0.258-0.766,0.364c-0.28,0.108-0.577,0.202-0.904,0.278l-0.844-0.487c0.349-0.056,0.664-0.126,0.938-0.206
					c0.264-0.08,0.492-0.172,0.674-0.278c0.258-0.149,0.401-0.306,0.416-0.468c0.023-0.158-0.076-0.303-0.294-0.429
					c-0.224-0.13-0.471-0.186-0.746-0.171c-0.275,0.012-0.543,0.096-0.8,0.244c-0.154,0.09-0.303,0.197-0.439,0.322
					c-0.137,0.125-0.256,0.268-0.375,0.438l-2.356-1.36l2.672-1.552l0.792,0.457L287.397,258.136 M292.516,257.839l1.004-0.585
					l1.086,0.626l-1.004,0.585L292.516,257.839 M293.085,256.341c-0.694-0.4-1.085-0.799-1.162-1.187
					c-0.084-0.392,0.149-0.747,0.698-1.065c0.547-0.318,1.159-0.455,1.835-0.408c0.672,0.043,1.36,0.269,2.055,0.67
					c0.695,0.402,1.081,0.797,1.157,1.184c0.083,0.393-0.149,0.748-0.698,1.066c-0.547,0.318-1.159,0.455-1.836,0.407
					C294.465,256.965,293.782,256.744,293.085,256.341 M297.474,253.327c0.04-0.123,0.096-0.243,0.197-0.349
					c0.099-0.109,0.229-0.213,0.402-0.312c0.427-0.249,0.888-0.379,1.399-0.382c0.517-0.007,0.975,0.105,1.378,0.339
					c0.455,0.262,0.668,0.55,0.639,0.879c-0.02,0.325-0.27,0.63-0.761,0.915c-0.543,0.315-1.144,0.451-1.808,0.411
					s-1.335-0.255-2.008-0.644c-0.695-0.4-1.071-0.815-1.113-1.244c-0.047-0.432,0.225-0.822,0.83-1.174
					c0.188-0.109,0.395-0.209,0.6-0.295c0.212-0.09,0.435-0.166,0.675-0.232l0.77,0.443c-0.257,0.057-0.485,0.117-0.679,0.184
					c-0.202,0.069-0.372,0.143-0.521,0.229c-0.321,0.186-0.48,0.385-0.48,0.59C296.996,252.892,297.15,253.107,297.474,253.327
					 M326.373,258.392l-35.309-20.387l-32.501,18.888l35.311,20.386L326.373,258.392"/>
				<path clip-path="url(#SVGID_2_)" id="E5.08" fill="#BFBFBF" d="M241.799,231.341c-0.202-0.117-0.408-0.176-0.626-0.17
					c-0.217,0-0.429,0.057-0.634,0.176c-0.206,0.12-0.303,0.242-0.302,0.369c-0.005,0.121,0.093,0.244,0.294,0.361
					c0.201,0.115,0.413,0.172,0.631,0.173c0.211-0.004,0.417-0.063,0.623-0.183c0.205-0.12,0.313-0.243,0.319-0.365
					C242.104,231.576,242,231.457,241.799,231.341 M239.737,228.246c-0.236-0.136-0.505-0.166-0.821-0.104
					c-0.308,0.066-0.726,0.256-1.245,0.559c-0.525,0.305-0.851,0.547-0.969,0.729c-0.108,0.184-0.056,0.339,0.18,0.475
					c0.229,0.133,0.498,0.163,0.813,0.1c0.315-0.068,0.737-0.256,1.262-0.561c0.52-0.303,0.839-0.547,0.953-0.727
					C240.025,228.538,239.967,228.378,239.737,228.246 M243.5,230.352c-0.167-0.097-0.345-0.146-0.529-0.152
					c-0.182,0-0.353,0.047-0.519,0.143c-0.167,0.096-0.246,0.196-0.245,0.302c0.011,0.105,0.098,0.209,0.265,0.306
					c0.172,0.099,0.344,0.146,0.522,0.149c0.183-0.001,0.354-0.047,0.521-0.144c0.165-0.096,0.245-0.194,0.244-0.302
					C243.753,230.55,243.673,230.453,243.5,230.352 M232.921,228.372l1.08-0.628l1.005,0.582l-1.079,0.627L232.921,228.372
					 M225.515,224.095l4.162-2.419l2.914,1.683l-0.811,0.471l-1.833-1.059l-0.776,0.452l1.724,0.995l-0.811,0.471l-1.724-0.994
					l-0.954,0.553l1.896,1.096l-0.811,0.471L225.515,224.095 M231.054,225.184l2.341-1.36l2.683,1.549l-0.788,0.458l-1.821-1.052
					l-0.646,0.375c0.104,0.033,0.207,0.072,0.298,0.113c0.098,0.043,0.189,0.089,0.276,0.139c0.511,0.295,0.782,0.598,0.818,0.909
					c0.025,0.312-0.186,0.601-0.637,0.861c-0.451,0.263-0.96,0.38-1.521,0.346c-0.567-0.029-1.124-0.205-1.669-0.521
					c-0.241-0.139-0.454-0.288-0.638-0.448c-0.191-0.161-0.351-0.335-0.49-0.521l0.844-0.491c0.099,0.208,0.215,0.389,0.358,0.544
					c0.145,0.156,0.299,0.285,0.484,0.393c0.264,0.152,0.527,0.231,0.809,0.248c0.281,0.01,0.526-0.047,0.744-0.173
					c0.217-0.126,0.319-0.271,0.295-0.431c-0.03-0.162-0.168-0.315-0.433-0.468c-0.155-0.089-0.344-0.173-0.556-0.249
					C231.587,225.326,231.34,225.25,231.054,225.184 M236.152,230.33c-0.552-0.318-0.789-0.674-0.717-1.062
					c0.079-0.391,0.455-0.789,1.146-1.191c0.69-0.4,1.376-0.619,2.052-0.666c0.677-0.047,1.283,0.093,1.835,0.412
					c0.546,0.314,0.789,0.666,0.716,1.061c-0.083,0.389-0.459,0.787-1.15,1.188c-0.69,0.4-1.377,0.62-2.047,0.669
					C237.311,230.78,236.697,230.644,236.152,230.33 M239.858,232.469c-0.54-0.312-0.852-0.61-0.917-0.894
					c-0.063-0.281,0.106-0.547,0.518-0.785c0.268-0.156,0.565-0.242,0.886-0.263c0.315-0.017,0.666,0.033,1.021,0.153
					c-0.173-0.193-0.249-0.369-0.221-0.537c0.028-0.163,0.165-0.316,0.398-0.452c0.354-0.206,0.748-0.288,1.195-0.241
					c0.447,0.046,0.929,0.219,1.435,0.51c0.511,0.295,0.805,0.57,0.888,0.83c0.081,0.258-0.055,0.49-0.409,0.695
					c-0.234,0.137-0.503,0.213-0.784,0.23c-0.292,0.016-0.601-0.03-0.934-0.129c0.213,0.207,0.294,0.407,0.268,0.589
					c-0.028,0.19-0.181,0.358-0.45,0.515c-0.411,0.238-0.863,0.342-1.35,0.306C240.915,232.959,240.403,232.784,239.858,232.469
					 M257.815,232.857l-31.46-18.164l-10.881,6.324l31.46,18.164L257.815,232.857"/>
				<path clip-path="url(#SVGID_2_)" id="E5.09" fill="#BFBFBF" d="M255.167,219.279c-0.235-0.137-0.499-0.17-0.813-0.107
					c-0.315,0.07-0.727,0.256-1.246,0.559c-0.526,0.305-0.851,0.547-0.969,0.729c-0.113,0.186-0.062,0.342,0.174,0.479
					c0.229,0.133,0.499,0.162,0.819,0.096c0.314-0.069,0.737-0.255,1.263-0.561c0.52-0.302,0.833-0.544,0.953-0.727
					C255.462,219.567,255.397,219.41,255.167,219.279 M258.839,221.332c-0.185-0.106-0.391-0.152-0.608-0.139
					c-0.218,0.02-0.452,0.096-0.691,0.235c-0.246,0.143-0.377,0.278-0.405,0.401c-0.022,0.126,0.059,0.246,0.242,0.352
					c0.19,0.109,0.397,0.156,0.614,0.143c0.212-0.017,0.448-0.093,0.692-0.235c0.239-0.14,0.371-0.276,0.404-0.401
					C259.109,221.56,259.028,221.441,258.839,221.332 M248.358,219.401l1.08-0.627l1.005,0.58l-1.078,0.628L248.358,219.401
					 M240.951,215.125l4.162-2.418l2.913,1.682l-0.81,0.471l-1.833-1.058l-0.776,0.45l1.724,0.996l-0.811,0.471l-1.723-0.995
					l-0.954,0.554l1.896,1.096l-0.81,0.471L240.951,215.125 M246.49,216.212l2.34-1.359l2.684,1.549l-0.788,0.458l-1.821-1.052
					l-0.645,0.375c0.103,0.033,0.207,0.072,0.298,0.112c0.098,0.043,0.19,0.09,0.276,0.14c0.512,0.295,0.782,0.598,0.814,0.912
					c0.029,0.309-0.181,0.598-0.632,0.859c-0.451,0.262-0.96,0.379-1.527,0.349c-0.562-0.033-1.118-0.209-1.664-0.524
					c-0.241-0.139-0.454-0.289-0.638-0.447c-0.189-0.163-0.351-0.336-0.489-0.521l0.845-0.491c0.098,0.209,0.214,0.388,0.358,0.544
					c0.137,0.16,0.293,0.29,0.478,0.396c0.264,0.151,0.534,0.229,0.814,0.245c0.275,0.014,0.521-0.043,0.744-0.174
					c0.217-0.125,0.313-0.268,0.289-0.426c-0.029-0.164-0.162-0.318-0.427-0.472c-0.155-0.09-0.344-0.173-0.556-0.249
					C247.024,216.355,246.771,216.283,246.49,216.212 M256.503,222.483c-0.425-0.246-0.649-0.521-0.663-0.813
					c-0.019-0.295,0.18-0.563,0.585-0.799c0.445-0.259,0.955-0.382,1.516-0.369c0.562,0.014,1.09,0.16,1.578,0.441
					c0.546,0.316,0.789,0.668,0.723,1.053c-0.067,0.385-0.438,0.771-1.105,1.16c-0.69,0.402-1.4,0.613-2.145,0.641
					c-0.743,0.027-1.415-0.136-2.029-0.49c-0.195-0.113-0.374-0.23-0.523-0.35c-0.15-0.119-0.282-0.248-0.398-0.381l0.771-0.447
					c0.092,0.146,0.195,0.278,0.312,0.391c0.12,0.117,0.258,0.215,0.413,0.305c0.317,0.184,0.655,0.279,1.011,0.279
					c0.36,0.004,0.732-0.093,1.109-0.279c-0.224-0.016-0.424-0.053-0.613-0.109C256.853,222.659,256.669,222.58,256.503,222.483
					 M251.588,221.358c-0.551-0.317-0.794-0.669-0.716-1.062c0.079-0.391,0.455-0.789,1.14-1.188
					c0.696-0.405,1.383-0.624,2.059-0.67c0.669-0.044,1.282,0.092,1.835,0.41c0.545,0.316,0.782,0.671,0.716,1.062
					c-0.085,0.389-0.46,0.786-1.157,1.19c-0.685,0.398-1.372,0.618-2.041,0.667C252.742,221.812,252.133,221.673,251.588,221.358
					 M272.693,224.21l-31.46-18.164l-10.881,6.324l31.46,18.164L272.693,224.21"/>
				<path clip-path="url(#SVGID_2_)" id="E5.10" fill="#EC7404" d="M274.014,212.621c-0.229-0.135-0.5-0.17-0.808-0.104
					c-0.315,0.07-0.731,0.253-1.251,0.555c-0.525,0.306-0.845,0.552-0.964,0.733c-0.119,0.183-0.061,0.342,0.17,0.475
					c0.234,0.136,0.503,0.166,0.818,0.096c0.321-0.066,0.738-0.256,1.263-0.561c0.519-0.302,0.838-0.54,0.958-0.723
					C274.313,212.912,274.25,212.755,274.014,212.621 M263.498,210.603l1.079-0.628l1.005,0.581l-1.079,0.627L263.498,210.603
					 M256.091,206.327l4.163-2.419l2.912,1.682l-0.811,0.471l-1.833-1.058l-0.775,0.452l1.724,0.995l-0.811,0.471l-1.724-0.995
					l-0.954,0.555l1.896,1.094l-0.81,0.471L256.091,206.327 M261.625,207.418l2.346-1.363l2.684,1.549l-0.793,0.46l-1.821-1.051
					l-0.64,0.372c0.103,0.033,0.207,0.073,0.298,0.112c0.098,0.043,0.19,0.09,0.276,0.14c0.512,0.295,0.782,0.597,0.813,0.912
					c0.03,0.309-0.18,0.598-0.631,0.86c-0.451,0.262-0.96,0.377-1.528,0.348c-0.561-0.033-1.118-0.209-1.664-0.524
					c-0.241-0.14-0.46-0.286-0.644-0.444c-0.19-0.163-0.345-0.338-0.484-0.524l0.845-0.491c0.098,0.208,0.213,0.387,0.358,0.544
					c0.137,0.158,0.293,0.288,0.477,0.394c0.265,0.153,0.535,0.229,0.815,0.246c0.275,0.014,0.521-0.043,0.743-0.173
					c0.217-0.126,0.314-0.268,0.291-0.427c-0.031-0.163-0.168-0.315-0.433-0.468c-0.155-0.09-0.338-0.175-0.551-0.252
					C262.165,207.557,261.911,207.483,261.625,207.418 M268.683,209.853l0.726-0.421l1.182,0.445l1.029,0.594l-3.419,1.987
					l0.954,0.55l-0.742,0.432l-2.93-1.691l0.741-0.432l0.954,0.551l2.689-1.562L268.683,209.853 M270.435,214.699
					c-0.552-0.317-0.794-0.669-0.716-1.061c0.078-0.392,0.459-0.786,1.145-1.185c0.69-0.401,1.377-0.626,2.047-0.669
					c0.675-0.047,1.29,0.088,1.84,0.407c0.551,0.318,0.788,0.673,0.711,1.064c-0.073,0.388-0.46,0.786-1.15,1.188
					c-0.686,0.398-1.366,0.62-2.042,0.667C271.594,215.158,270.986,215.019,270.435,214.699 M290.385,213.929l-31.46-18.164
					l-14.021,8.149l31.46,18.163L290.385,213.929"/>
				<path clip-path="url(#SVGID_2_)" id="E5.01" fill="#BED5E5" d="M178.05,209.728c-0.523-0.302-0.936-0.489-1.246-0.554
					c-0.315-0.069-0.585-0.033-0.819,0.103c-0.228,0.132-0.29,0.289-0.168,0.471c0.115,0.18,0.432,0.422,0.954,0.724
					c0.529,0.305,0.954,0.491,1.269,0.561c0.316,0.07,0.591,0.037,0.818-0.096c0.235-0.137,0.285-0.292,0.165-0.475
					C178.907,210.274,178.578,210.033,178.05,209.728 M168.166,215.853l0.953,0.549l1.883-1.094l0.822,0.475l-2.958,1.718
					l-4.188-2.419l2.9-1.686l0.816,0.471l-1.827,1.062l0.777,0.447l1.718-0.998l0.821,0.475L168.166,215.853 M170.021,212.895
					l0.644,0.372c0.068-0.061,0.13-0.116,0.199-0.176c0.068-0.053,0.148-0.106,0.24-0.159c0.508-0.296,1.035-0.448,1.566-0.464
					c0.539-0.021,1.038,0.102,1.498,0.367c0.454,0.262,0.651,0.555,0.6,0.883c-0.055,0.324-0.352,0.65-0.899,0.969
					c-0.234,0.135-0.491,0.258-0.766,0.365c-0.28,0.109-0.577,0.201-0.902,0.278l-0.851-0.491c0.354-0.053,0.668-0.123,0.944-0.202
					c0.263-0.08,0.491-0.171,0.674-0.278c0.257-0.15,0.398-0.305,0.415-0.469c0.027-0.162-0.07-0.305-0.289-0.431
					c-0.224-0.13-0.471-0.186-0.752-0.169c-0.274,0.014-0.542,0.096-0.8,0.245c-0.153,0.09-0.302,0.196-0.439,0.321
					c-0.13,0.123-0.255,0.27-0.37,0.436l-2.356-1.36l2.667-1.55l0.793,0.459L170.021,212.895 M175.14,212.597l1.005-0.584
					l1.085,0.627l-1.004,0.584L175.14,212.597 M175.709,211.101c-0.696-0.402-1.086-0.801-1.164-1.188
					c-0.081-0.393,0.15-0.747,0.699-1.065c0.548-0.319,1.16-0.455,1.836-0.408c0.67,0.043,1.359,0.269,2.055,0.67
					c0.695,0.402,1.08,0.797,1.158,1.185c0.083,0.393-0.15,0.746-0.699,1.064c-0.549,0.318-1.16,0.455-1.837,0.408
					C177.088,211.724,176.405,211.502,175.709,211.101 M177.873,207.646l0.763-0.677l1.022-0.594l3.441,1.987l0.948-0.551
					l0.747,0.431l-2.912,1.692l-0.747-0.431l0.948-0.551l-2.712-1.566l-0.764,0.684L177.873,207.646 M244.145,199.429
					l-49.038-28.312l-93.756,54.486l49.039,28.312L244.145,199.429"/>
				<path clip-path="url(#SVGID_2_)" id="E5.02" fill="#BED5E5" d="M252.449,166.492c-0.523-0.302-0.937-0.488-1.247-0.555
					c-0.315-0.069-0.584-0.033-0.818,0.103c-0.229,0.133-0.291,0.289-0.169,0.472c0.115,0.179,0.432,0.421,0.955,0.722
					c0.528,0.307,0.953,0.492,1.268,0.561c0.316,0.07,0.591,0.037,0.819-0.096c0.234-0.135,0.284-0.292,0.163-0.474
					C253.304,167.04,252.977,166.797,252.449,166.492 M242.563,172.616l0.953,0.551l1.884-1.094l0.822,0.475l-2.957,1.718
					l-4.189-2.418l2.899-1.685l0.816,0.471l-1.827,1.062l0.777,0.448l1.718-0.998l0.822,0.474L242.563,172.616 M244.419,169.66
					l0.643,0.372c0.069-0.06,0.131-0.116,0.2-0.176c0.067-0.053,0.147-0.105,0.239-0.158c0.508-0.295,1.034-0.448,1.567-0.464
					c0.538-0.02,1.037,0.102,1.497,0.368c0.454,0.262,0.65,0.554,0.601,0.882c-0.055,0.326-0.352,0.651-0.899,0.969
					c-0.234,0.137-0.491,0.259-0.766,0.366c-0.28,0.108-0.577,0.202-0.903,0.278l-0.851-0.491c0.354-0.053,0.668-0.122,0.944-0.202
					c0.263-0.08,0.491-0.172,0.674-0.278c0.256-0.149,0.399-0.305,0.416-0.468c0.027-0.163-0.071-0.306-0.29-0.431
					c-0.224-0.13-0.471-0.187-0.75-0.169c-0.275,0.013-0.544,0.097-0.801,0.246c-0.154,0.089-0.302,0.195-0.439,0.321
					c-0.131,0.123-0.255,0.269-0.37,0.435l-2.355-1.36l2.666-1.55l0.793,0.458L244.419,169.66 M249.537,169.361l1.005-0.584
					l1.085,0.627l-1.004,0.584L249.537,169.361 M250.107,167.866c-0.695-0.401-1.087-0.8-1.164-1.188
					c-0.083-0.392,0.15-0.746,0.698-1.065c0.548-0.318,1.16-0.454,1.836-0.409c0.671,0.043,1.359,0.269,2.055,0.671
					c0.695,0.401,1.081,0.795,1.157,1.184c0.083,0.392-0.15,0.746-0.699,1.065c-0.548,0.318-1.16,0.455-1.837,0.408
					C251.485,168.489,250.802,168.267,250.107,167.866 M256.458,165.672l1.832-1.065l0.799,0.461l-3.025,1.759l-0.799-0.461
					l0.174-1.659c0.01-0.153-0.007-0.282-0.059-0.385c-0.058-0.106-0.145-0.196-0.271-0.269c-0.202-0.116-0.419-0.169-0.67-0.162
					c-0.252,0.006-0.487,0.076-0.704,0.203c-0.165,0.096-0.314,0.222-0.439,0.38c-0.13,0.157-0.233,0.342-0.318,0.558l-0.924-0.535
					c0.158-0.186,0.341-0.358,0.534-0.524c0.195-0.159,0.4-0.305,0.628-0.438c0.496-0.288,1-0.448,1.498-0.484
					c0.493-0.033,0.939,0.067,1.336,0.295c0.224,0.13,0.379,0.285,0.461,0.471c0.081,0.18,0.1,0.475,0.056,0.886L256.458,165.672
					 M297.487,168.429l-49.037-28.312l-48.782,28.35l49.044,28.308L297.487,168.429"/>
				<path clip-path="url(#SVGID_2_)" id="E5.03" fill="#BFBFBF" d="M307.623,185.22c-0.523-0.303-0.938-0.488-1.252-0.558
					c-0.309-0.065-0.577-0.03-0.812,0.106c-0.229,0.133-0.291,0.289-0.174,0.468c0.121,0.182,0.438,0.424,0.96,0.727
					c0.528,0.305,0.954,0.491,1.268,0.56c0.317,0.069,0.593,0.037,0.821-0.096c0.232-0.136,0.284-0.292,0.161-0.474
					C308.479,185.766,308.152,185.524,307.623,185.22 M297.731,191.34l0.96,0.555l1.883-1.096l0.816,0.472l-2.957,1.719
					l-4.188-2.419l2.9-1.685l0.817,0.47l-1.829,1.062l0.783,0.451l1.718-0.998l0.814,0.471L297.731,191.34 M299.594,188.38
					l0.65,0.375c0.056-0.06,0.119-0.116,0.193-0.173c0.068-0.053,0.148-0.106,0.239-0.159c0.508-0.295,1.029-0.451,1.566-0.465
					c0.538-0.02,1.038,0.103,1.491,0.366c0.455,0.262,0.656,0.557,0.602,0.882c-0.051,0.329-0.353,0.65-0.9,0.969
					c-0.234,0.136-0.491,0.258-0.766,0.365c-0.279,0.11-0.576,0.202-0.898,0.282l-0.849-0.491c0.359-0.057,0.67-0.123,0.938-0.206
					c0.272-0.08,0.496-0.169,0.679-0.274c0.257-0.149,0.394-0.309,0.415-0.468c0.029-0.163-0.07-0.306-0.294-0.435
					c-0.218-0.126-0.464-0.183-0.745-0.166c-0.274,0.013-0.549,0.093-0.807,0.242c-0.153,0.089-0.297,0.199-0.435,0.325
					c-0.13,0.123-0.255,0.268-0.375,0.431l-2.355-1.36l2.667-1.55l0.793,0.458L299.594,188.38 M304.707,188.086l1.004-0.584
					l1.086,0.627l-1.003,0.584L304.707,188.086 M305.283,186.592c-0.701-0.404-1.088-0.799-1.17-1.19
					c-0.076-0.388,0.157-0.743,0.705-1.061c0.547-0.319,1.159-0.455,1.83-0.412c0.675,0.047,1.358,0.269,2.059,0.674
					c0.69,0.398,1.076,0.793,1.158,1.184c0.083,0.393-0.156,0.744-0.705,1.062c-0.547,0.319-1.153,0.458-1.829,0.412
					C306.656,187.213,305.971,186.991,305.283,186.592 M311.186,182.964c0.354-0.12,0.691-0.169,1.018-0.153
					c0.332,0.02,0.63,0.112,0.906,0.272c0.415,0.24,0.575,0.511,0.475,0.824c-0.096,0.308-0.455,0.637-1.06,0.988
					c-0.21,0.122-0.446,0.238-0.69,0.342c-0.252,0.106-0.516,0.199-0.794,0.282l-0.834-0.482c0.302-0.056,0.578-0.128,0.827-0.215
					c0.248-0.083,0.47-0.179,0.663-0.292c0.286-0.166,0.452-0.321,0.509-0.467c0.045-0.146-0.02-0.269-0.209-0.378
					c-0.188-0.11-0.408-0.149-0.66-0.116c-0.256,0.036-0.536,0.138-0.84,0.315l-0.428,0.248l-0.695-0.401l0.451-0.262
					c0.268-0.155,0.428-0.294,0.479-0.424c0.045-0.126-0.018-0.236-0.196-0.338c-0.161-0.093-0.345-0.126-0.562-0.106
					c-0.217,0.027-0.439,0.11-0.674,0.246c-0.173,0.1-0.331,0.212-0.464,0.335c-0.134,0.126-0.254,0.263-0.357,0.409l-0.793-0.458
					c0.154-0.155,0.318-0.305,0.502-0.444c0.177-0.136,0.365-0.266,0.565-0.382c0.542-0.314,1.04-0.497,1.486-0.55
					s0.847,0.027,1.204,0.232c0.247,0.143,0.384,0.295,0.414,0.458C311.452,182.608,311.373,182.781,311.186,182.964
					 M333.203,189.048l-31.461-18.164l-27.912,16.22l31.46,18.164L333.203,189.048"/>
				<polygon clip-path="url(#SVGID_2_)" fill="#BFBFBF" points="350.687,199.143 337.391,191.466 305.46,210.021 269.812,189.439
					263.046,193.371 298.695,213.953 247.436,243.742 211.787,223.16 154.641,256.369 203.558,284.606 				"/>
				<polygon clip-path="url(#SVGID_2_)" fill="#FFFFFF" points="171.824,215.783 171.002,215.308 169.119,216.402 168.166,215.851
					169.884,214.853 169.062,214.378 167.343,215.376 166.567,214.929 168.394,213.867 167.578,213.396 164.678,215.082
					168.866,217.5 				"/>
				<path clip-path="url(#SVGID_2_)" fill="#FFFFFF" d="M174.167,212.835c-0.459-0.266-0.958-0.388-1.498-0.367
					c-0.532,0.016-1.058,0.168-1.566,0.464c-0.092,0.053-0.172,0.106-0.24,0.159c-0.069,0.06-0.131,0.115-0.199,0.176l-0.644-0.372
					l1.815-1.054l-0.793-0.459l-2.667,1.55l2.356,1.36c0.114-0.166,0.24-0.312,0.37-0.436c0.137-0.125,0.286-0.231,0.439-0.321
					c0.258-0.149,0.526-0.231,0.8-0.245c0.281-0.017,0.527,0.039,0.751,0.169c0.219,0.126,0.317,0.269,0.289,0.431
					c-0.017,0.164-0.158,0.318-0.415,0.469c-0.184,0.107-0.412,0.198-0.675,0.278c-0.275,0.079-0.589,0.149-0.943,0.202l0.85,0.491
					c0.327-0.075,0.624-0.169,0.903-0.278c0.275-0.107,0.532-0.23,0.766-0.365c0.547-0.318,0.844-0.645,0.899-0.969
					C174.818,213.39,174.621,213.097,174.167,212.835"/>
				<polygon clip-path="url(#SVGID_2_)" fill="#FFFFFF" points="177.23,212.64 176.144,212.013 175.14,212.597 176.226,213.224
					"/>
				<path clip-path="url(#SVGID_2_)" fill="#FFFFFF" d="M176.771,210.47c-0.523-0.302-0.84-0.543-0.955-0.723
					c-0.122-0.183-0.059-0.338,0.168-0.471c0.235-0.136,0.504-0.172,0.819-0.104c0.31,0.067,0.723,0.253,1.246,0.555
					c0.529,0.305,0.857,0.546,0.973,0.733c0.122,0.183,0.07,0.338-0.164,0.474c-0.228,0.134-0.503,0.167-0.817,0.097
					C177.725,210.961,177.3,210.776,176.771,210.47 M179.135,209.11c-0.696-0.401-1.384-0.627-2.055-0.67
					c-0.676-0.046-1.288,0.09-1.836,0.409c-0.548,0.318-0.78,0.673-0.698,1.065c0.076,0.387,0.468,0.787,1.164,1.188
					c0.695,0.401,1.378,0.623,2.049,0.666c0.677,0.047,1.288-0.09,1.835-0.407c0.548-0.319,0.781-0.674,0.699-1.065
					C180.216,209.907,179.83,209.511,179.135,209.11"/>
				<polygon clip-path="url(#SVGID_2_)" fill="#FFFFFF" points="184.795,208.244 184.048,207.813 183.1,208.363 179.658,206.376
					178.636,206.969 177.873,207.647 178.607,208.072 179.373,207.388 182.084,208.954 181.136,209.505 181.883,209.936 				"/>
				<polygon clip-path="url(#SVGID_2_)" fill="#FFFFFF" points="246.222,172.547 245.4,172.072 243.516,173.167 242.563,172.616
					244.281,171.618 243.459,171.143 241.74,172.142 240.965,171.693 242.792,170.632 241.975,170.162 239.076,171.847
					243.265,174.265 				"/>
				<path clip-path="url(#SVGID_2_)" fill="#FFFFFF" d="M248.564,169.601c-0.458-0.266-0.958-0.388-1.497-0.368
					c-0.532,0.016-1.058,0.169-1.566,0.464c-0.091,0.053-0.171,0.106-0.24,0.16c-0.069,0.059-0.131,0.116-0.2,0.175l-0.643-0.372
					l1.814-1.055l-0.793-0.458l-2.666,1.549l2.356,1.36c0.113-0.166,0.238-0.312,0.37-0.435c0.136-0.126,0.285-0.232,0.438-0.321
					c0.257-0.149,0.525-0.232,0.801-0.246c0.281-0.018,0.527,0.04,0.751,0.169c0.219,0.126,0.316,0.27,0.289,0.431
					c-0.017,0.163-0.158,0.318-0.416,0.468c-0.183,0.106-0.411,0.199-0.674,0.278c-0.275,0.08-0.589,0.149-0.944,0.204l0.85,0.49
					c0.326-0.076,0.624-0.17,0.904-0.279c0.274-0.106,0.531-0.229,0.765-0.364c0.548-0.319,0.844-0.644,0.899-0.97
					C249.215,170.155,249.018,169.862,248.564,169.601"/>
				<polygon clip-path="url(#SVGID_2_)" fill="#FFFFFF" points="251.628,169.405 250.542,168.777 249.538,169.361 250.623,169.989
									"/>
				<path clip-path="url(#SVGID_2_)" fill="#FFFFFF" d="M251.169,167.235c-0.523-0.302-0.84-0.544-0.955-0.723
					c-0.121-0.183-0.059-0.338,0.169-0.472c0.234-0.136,0.503-0.172,0.818-0.103c0.31,0.067,0.724,0.252,1.247,0.555
					c0.528,0.305,0.857,0.547,0.972,0.733c0.122,0.183,0.07,0.338-0.164,0.474c-0.229,0.133-0.503,0.167-0.818,0.096
					C252.124,167.726,251.698,167.541,251.169,167.235 M253.533,165.875c-0.696-0.401-1.384-0.627-2.055-0.671
					c-0.676-0.045-1.288,0.09-1.836,0.408c-0.548,0.319-0.78,0.674-0.699,1.065c0.077,0.388,0.468,0.787,1.164,1.187
					c0.696,0.402,1.378,0.625,2.049,0.668c0.676,0.046,1.288-0.09,1.836-0.409c0.549-0.319,0.781-0.673,0.699-1.065
					C254.615,166.67,254.228,166.276,253.533,165.875"/>
				<path clip-path="url(#SVGID_2_)" fill="#FFFFFF" d="M259.089,165.068l-0.799-0.461l-1.832,1.065l0.109-0.969
					c0.044-0.411,0.025-0.706-0.056-0.886c-0.082-0.186-0.236-0.342-0.46-0.471c-0.397-0.229-0.843-0.328-1.336-0.295
					c-0.498,0.036-1.002,0.197-1.498,0.484c-0.229,0.133-0.434,0.279-0.628,0.438c-0.193,0.166-0.376,0.338-0.534,0.524l0.924,0.534
					c0.085-0.215,0.188-0.4,0.318-0.558c0.125-0.159,0.274-0.285,0.439-0.38c0.217-0.127,0.452-0.196,0.704-0.204
					c0.251-0.006,0.47,0.047,0.67,0.163c0.126,0.073,0.213,0.163,0.271,0.269c0.052,0.103,0.069,0.232,0.059,0.385l-0.174,1.658
					l0.799,0.462L259.089,165.068"/>
				<polygon clip-path="url(#SVGID_2_)" fill="#FFFFFF" points="301.391,191.271 300.576,190.799 298.691,191.895 297.731,191.34
					299.449,190.342 298.635,189.87 296.915,190.87 296.134,190.419 297.961,189.356 297.146,188.886 294.245,190.571
					298.436,192.99 				"/>
				<path clip-path="url(#SVGID_2_)" fill="#FFFFFF" d="M303.734,188.325c-0.453-0.263-0.953-0.385-1.491-0.365
					c-0.538,0.013-1.059,0.17-1.566,0.464c-0.091,0.053-0.171,0.106-0.239,0.16c-0.074,0.056-0.137,0.113-0.193,0.172l-0.65-0.375
					l1.809-1.052l-0.791-0.458l-2.667,1.549l2.356,1.36c0.119-0.162,0.243-0.309,0.376-0.431c0.136-0.126,0.278-0.236,0.433-0.325
					c0.256-0.149,0.532-0.229,0.807-0.242c0.279-0.017,0.527,0.04,0.746,0.165c0.225,0.129,0.32,0.272,0.293,0.435
					c-0.021,0.159-0.158,0.319-0.415,0.468c-0.183,0.105-0.404,0.195-0.679,0.274c-0.271,0.084-0.579,0.149-0.938,0.206l0.849,0.491
					c0.322-0.079,0.619-0.172,0.898-0.282c0.273-0.106,0.531-0.229,0.766-0.364c0.548-0.319,0.85-0.641,0.9-0.97
					C304.391,188.882,304.189,188.587,303.734,188.325"/>
				<polygon clip-path="url(#SVGID_2_)" fill="#FFFFFF" points="306.799,188.129 305.712,187.502 304.707,188.086 305.794,188.712
									"/>
				<path clip-path="url(#SVGID_2_)" fill="#FFFFFF" d="M306.345,185.963c-0.522-0.302-0.841-0.544-0.96-0.727
					c-0.117-0.179-0.055-0.335,0.174-0.468c0.235-0.136,0.504-0.171,0.812-0.106c0.315,0.07,0.73,0.255,1.252,0.558
					c0.529,0.304,0.856,0.546,0.972,0.732c0.123,0.183,0.071,0.338-0.163,0.474c-0.229,0.133-0.502,0.166-0.819,0.096
					C307.299,186.454,306.873,186.268,306.345,185.963 M308.707,184.603c-0.7-0.405-1.383-0.627-2.059-0.674
					c-0.671-0.042-1.283,0.092-1.83,0.411c-0.549,0.319-0.781,0.674-0.705,1.062c0.082,0.391,0.469,0.787,1.17,1.19
					c0.688,0.399,1.373,0.621,2.048,0.667c0.676,0.046,1.282-0.093,1.831-0.412c0.547-0.318,0.786-0.67,0.703-1.062
					C309.783,185.396,309.397,185,308.707,184.603"/>
				<path clip-path="url(#SVGID_2_)" fill="#FFFFFF" d="M313.109,183.083c-0.276-0.159-0.574-0.252-0.908-0.271
					c-0.324-0.016-0.662,0.033-1.016,0.153c0.188-0.183,0.267-0.355,0.242-0.521c-0.028-0.163-0.167-0.315-0.414-0.458
					c-0.357-0.205-0.759-0.286-1.205-0.232c-0.445,0.053-0.943,0.236-1.484,0.551c-0.202,0.116-0.39,0.246-0.566,0.382
					c-0.183,0.139-0.348,0.289-0.502,0.444l0.793,0.458c0.104-0.146,0.222-0.283,0.357-0.409c0.133-0.122,0.293-0.234,0.463-0.335
					c0.235-0.136,0.458-0.218,0.674-0.246c0.219-0.02,0.402,0.014,0.562,0.106c0.18,0.103,0.244,0.212,0.197,0.338
					c-0.051,0.13-0.211,0.269-0.479,0.425l-0.449,0.262l0.693,0.401l0.428-0.248c0.304-0.177,0.584-0.279,0.84-0.315
					c0.254-0.035,0.473,0.006,0.66,0.115c0.191,0.11,0.252,0.233,0.209,0.379c-0.057,0.146-0.223,0.302-0.507,0.467
					c-0.195,0.113-0.417,0.209-0.665,0.292c-0.251,0.086-0.525,0.159-0.827,0.215l0.833,0.482c0.279-0.083,0.543-0.175,0.795-0.282
					c0.244-0.104,0.479-0.22,0.69-0.342c0.604-0.351,0.964-0.681,1.06-0.988C313.687,183.594,313.523,183.322,313.109,183.083"/>
				<polygon clip-path="url(#SVGID_2_)" fill="#FFFFFF" points="354.853,222.871 354.031,222.396 352.147,223.49 351.193,222.94
					352.912,221.941 352.09,221.466 350.372,222.465 349.595,222.018 351.422,220.957 350.605,220.486 347.707,222.169
					351.896,224.589 				"/>
				<path clip-path="url(#SVGID_2_)" fill="#FFFFFF" d="M357.195,219.924c-0.46-0.265-0.957-0.388-1.497-0.368
					c-0.539,0.014-1.059,0.17-1.566,0.465c-0.091,0.053-0.171,0.105-0.241,0.158c-0.066,0.061-0.128,0.117-0.193,0.18l-0.648-0.375
					l1.816-1.055l-0.794-0.457l-2.667,1.549l2.358,1.359c0.113-0.164,0.237-0.312,0.369-0.434c0.136-0.127,0.284-0.232,0.438-0.322
					c0.258-0.148,0.525-0.232,0.802-0.246c0.278-0.016,0.526,0.04,0.751,0.17c0.219,0.126,0.314,0.268,0.287,0.432
					c-0.016,0.162-0.158,0.318-0.416,0.468c-0.18,0.105-0.41,0.198-0.674,0.278c-0.274,0.079-0.588,0.148-0.938,0.205l0.844,0.488
					c0.327-0.075,0.625-0.17,0.904-0.279c0.273-0.105,0.531-0.229,0.766-0.365c0.549-0.317,0.844-0.643,0.898-0.968
					C357.848,220.479,357.649,220.187,357.195,219.924"/>
				<polygon clip-path="url(#SVGID_2_)" fill="#FFFFFF" points="360.259,219.728 359.172,219.102 358.168,219.685 359.254,220.313
									"/>
				<path clip-path="url(#SVGID_2_)" fill="#FFFFFF" d="M359.801,217.56c-0.523-0.303-0.84-0.545-0.956-0.725
					c-0.122-0.182-0.06-0.338,0.169-0.47c0.235-0.138,0.504-0.174,0.818-0.104c0.31,0.067,0.724,0.252,1.248,0.555
					c0.529,0.305,0.854,0.546,0.971,0.731c0.121,0.184,0.07,0.339-0.164,0.475c-0.229,0.133-0.503,0.166-0.818,0.098
					C360.754,218.05,360.33,217.865,359.801,217.56 M362.163,216.199c-0.694-0.401-1.384-0.627-2.054-0.67
					c-0.676-0.047-1.289,0.089-1.836,0.408c-0.549,0.318-0.781,0.674-0.699,1.064c0.076,0.389,0.469,0.787,1.163,1.188
					c0.696,0.402,1.38,0.623,2.05,0.667c0.676,0.048,1.287-0.088,1.837-0.408c0.546-0.317,0.78-0.673,0.696-1.065
					C363.244,216.996,362.857,216.601,362.163,216.199"/>
				<path clip-path="url(#SVGID_2_)" fill="#FFFFFF" d="M363.617,215.98l-0.576-1.695l1.752,1.012L363.617,215.98z M367.189,214.816
					l-0.788-0.455l-0.593,0.345l-2.639-1.522l-1.193,0.693l0.836,2.412l0.924,0.533l1.844-1.071l0.766,0.441l1.014-0.59
					l-0.763-0.441L367.189,214.816"/>
				<polygon clip-path="url(#SVGID_2_)" fill="#FFFFFF" points="289.201,261.023 288.379,260.548 286.496,261.644 285.542,261.092
					287.253,260.097 286.432,259.623 284.72,260.618 283.944,260.17 285.771,259.109 284.955,258.638 282.055,260.324
					286.243,262.742 				"/>
				<path clip-path="url(#SVGID_2_)" fill="#FFFFFF" d="M291.543,258.078c-0.46-0.266-0.958-0.389-1.497-0.369
					c-0.539,0.014-1.058,0.17-1.567,0.465c-0.091,0.053-0.171,0.105-0.239,0.159c-0.068,0.06-0.131,0.116-0.194,0.18l-0.649-0.376
					l1.815-1.055l-0.793-0.457l-2.671,1.552l2.356,1.36c0.12-0.17,0.239-0.312,0.375-0.438c0.137-0.127,0.286-0.232,0.439-0.322
					c0.257-0.148,0.525-0.232,0.8-0.244c0.274-0.015,0.522,0.041,0.745,0.171c0.219,0.126,0.317,0.269,0.295,0.429
					c-0.017,0.162-0.158,0.318-0.416,0.468c-0.183,0.106-0.411,0.198-0.675,0.278c-0.274,0.08-0.589,0.15-0.938,0.206l0.845,0.487
					c0.326-0.075,0.623-0.17,0.903-0.278c0.275-0.106,0.532-0.229,0.765-0.364c0.548-0.319,0.844-0.645,0.899-0.97
					C292.195,258.63,291.997,258.339,291.543,258.078"/>
				<polygon clip-path="url(#SVGID_2_)" fill="#FFFFFF" points="294.607,257.88 293.522,257.254 292.517,257.839 293.603,258.465
									"/>
				<path clip-path="url(#SVGID_2_)" fill="#FFFFFF" d="M294.149,255.712c-0.523-0.303-0.841-0.545-0.956-0.725
					c-0.121-0.182-0.06-0.338,0.169-0.471c0.234-0.136,0.499-0.17,0.817-0.103c0.312,0.067,0.725,0.253,1.248,0.555
					c0.528,0.305,0.855,0.546,0.972,0.731c0.121,0.184,0.063,0.342-0.165,0.475s-0.503,0.166-0.819,0.098
					C295.102,256.203,294.678,256.017,294.149,255.712 M296.513,254.351c-0.696-0.401-1.384-0.627-2.055-0.67
					c-0.676-0.047-1.289,0.09-1.836,0.408c-0.548,0.318-0.781,0.674-0.699,1.065c0.078,0.388,0.468,0.786,1.163,1.187
					c0.696,0.402,1.379,0.624,2.049,0.667c0.677,0.048,1.288-0.088,1.837-0.407c0.548-0.318,0.782-0.674,0.697-1.066
					C297.592,255.148,297.206,254.753,296.513,254.351"/>
				<path clip-path="url(#SVGID_2_)" fill="#FFFFFF" d="M298.761,253.923c-0.249-0.143-0.387-0.275-0.409-0.402
					c-0.035-0.125,0.049-0.242,0.238-0.352c0.188-0.108,0.389-0.158,0.605-0.139c0.218,0.014,0.447,0.093,0.695,0.236
					c0.24,0.139,0.379,0.271,0.409,0.401c0.03,0.122-0.05,0.241-0.24,0.351c-0.188,0.109-0.392,0.156-0.606,0.14
					C299.23,254.142,299.002,254.063,298.761,253.923 M300.85,252.624c-0.401-0.233-0.861-0.346-1.377-0.339
					c-0.512,0.003-0.973,0.133-1.401,0.382c-0.171,0.099-0.303,0.202-0.4,0.312c-0.102,0.105-0.158,0.226-0.198,0.349
					c-0.322-0.22-0.478-0.435-0.48-0.642c0-0.205,0.159-0.404,0.478-0.59c0.148-0.086,0.32-0.159,0.521-0.229
					c0.193-0.066,0.423-0.127,0.679-0.184l-0.768-0.443c-0.241,0.066-0.463,0.143-0.675,0.232c-0.207,0.086-0.411,0.186-0.601,0.295
					c-0.604,0.352-0.877,0.742-0.829,1.174c0.043,0.429,0.417,0.844,1.112,1.244c0.673,0.389,1.342,0.604,2.008,0.644
					c0.664,0.04,1.267-0.096,1.807-0.411c0.492-0.285,0.742-0.59,0.762-0.915C301.518,253.173,301.305,252.885,300.85,252.624"/>
				<polygon clip-path="url(#SVGID_2_)" fill="#FFFFFF" points="255.324,280.709 254.502,280.236 252.619,281.33 251.665,280.779
					253.383,279.781 252.562,279.306 250.843,280.305 250.067,279.857 251.895,278.795 251.078,278.324 248.178,280.01
					252.367,282.429 				"/>
				<path clip-path="url(#SVGID_2_)" fill="#FFFFFF" d="M257.667,277.763c-0.459-0.266-0.958-0.387-1.498-0.367
					c-0.539,0.012-1.058,0.169-1.565,0.465c-0.092,0.053-0.172,0.105-0.24,0.158c-0.069,0.061-0.131,0.116-0.195,0.18l-0.648-0.375
					l1.815-1.055l-0.793-0.459l-2.667,1.551l2.357,1.359c0.114-0.166,0.239-0.312,0.369-0.435c0.137-0.126,0.285-0.231,0.439-0.321
					c0.258-0.15,0.527-0.233,0.801-0.246c0.28-0.018,0.527,0.04,0.751,0.17c0.218,0.126,0.316,0.269,0.288,0.432
					c-0.016,0.162-0.158,0.317-0.415,0.467c-0.184,0.106-0.411,0.199-0.675,0.279c-0.274,0.078-0.588,0.148-0.938,0.204l0.844,0.489
					c0.327-0.077,0.624-0.17,0.903-0.279c0.276-0.105,0.532-0.229,0.766-0.365c0.548-0.318,0.843-0.643,0.899-0.97
					C258.318,278.318,258.121,278.025,257.667,277.763"/>
				<polygon clip-path="url(#SVGID_2_)" fill="#FFFFFF" points="260.731,277.568 259.645,276.941 258.64,277.525 259.727,278.152
									"/>
				<path clip-path="url(#SVGID_2_)" fill="#FFFFFF" d="M260.272,275.398c-0.524-0.302-0.84-0.543-0.956-0.723
					c-0.122-0.182-0.059-0.338,0.169-0.471c0.234-0.137,0.503-0.173,0.818-0.104c0.31,0.066,0.723,0.252,1.246,0.556
					c0.528,0.304,0.857,0.546,0.972,0.731c0.122,0.183,0.071,0.339-0.164,0.475c-0.228,0.133-0.503,0.166-0.818,0.096
					C261.226,275.89,260.801,275.704,260.272,275.398 M262.635,274.039c-0.695-0.401-1.384-0.627-2.054-0.67
					c-0.677-0.047-1.289,0.09-1.837,0.407c-0.548,0.319-0.78,0.673-0.698,1.065c0.077,0.389,0.468,0.787,1.164,1.188
					c0.695,0.401,1.379,0.624,2.048,0.667c0.677,0.046,1.288-0.089,1.837-0.407c0.548-0.318,0.781-0.675,0.699-1.066
					C263.716,274.833,263.33,274.439,262.635,274.039"/>
				<polygon clip-path="url(#SVGID_2_)" fill="#FFFFFF" points="264.653,271.142 264.043,270.791 260.909,272.611 261.703,273.07
					263.706,271.905 265.566,274.757 266.611,274.152 				"/>
				<polygon clip-path="url(#SVGID_2_)" fill="#FFFFFF" points="232.59,223.359 229.677,221.676 225.514,224.095 228.491,225.814
					229.303,225.343 227.406,224.248 228.359,223.695 230.083,224.689 230.894,224.218 229.17,223.223 229.946,222.771
					231.779,223.83 				"/>
				<path clip-path="url(#SVGID_2_)" fill="#FFFFFF" d="M236.078,225.373l-2.683-1.549l-2.342,1.36
					c0.287,0.065,0.534,0.142,0.752,0.222c0.212,0.076,0.401,0.16,0.556,0.248c0.265,0.153,0.403,0.307,0.433,0.469
					c0.023,0.159-0.078,0.305-0.296,0.431c-0.217,0.126-0.462,0.183-0.743,0.173c-0.281-0.017-0.545-0.096-0.809-0.248
					c-0.184-0.107-0.339-0.236-0.483-0.393c-0.143-0.155-0.259-0.334-0.358-0.544l-0.844,0.491c0.139,0.186,0.299,0.359,0.49,0.521
					c0.184,0.16,0.397,0.31,0.638,0.448c0.545,0.315,1.103,0.491,1.669,0.521c0.562,0.034,1.071-0.083,1.522-0.345
					c0.451-0.262,0.661-0.551,0.637-0.862c-0.037-0.312-0.308-0.614-0.819-0.909c-0.087-0.05-0.179-0.096-0.276-0.139
					c-0.092-0.04-0.194-0.08-0.298-0.113l0.646-0.375l1.821,1.052L236.078,225.373"/>
				<polygon clip-path="url(#SVGID_2_)" fill="#FFFFFF" points="235.006,228.326 234.001,227.744 232.922,228.372 233.927,228.953
									"/>
				<path clip-path="url(#SVGID_2_)" fill="#FFFFFF" d="M236.883,229.904c-0.236-0.136-0.289-0.291-0.181-0.475
					c0.12-0.182,0.445-0.424,0.97-0.729c0.52-0.303,0.937-0.492,1.245-0.559c0.315-0.062,0.585-0.032,0.82,0.104
					c0.23,0.133,0.289,0.292,0.175,0.471c-0.114,0.18-0.433,0.424-0.952,0.727c-0.525,0.305-0.948,0.492-1.263,0.561
					C237.381,230.067,237.112,230.037,236.883,229.904 M240.467,227.822c-0.551-0.318-1.159-0.459-1.835-0.412
					c-0.676,0.047-1.362,0.266-2.052,0.666c-0.69,0.401-1.067,0.801-1.145,1.191c-0.072,0.389,0.165,0.744,0.716,1.062
					c0.545,0.314,1.159,0.45,1.835,0.41c0.669-0.049,1.355-0.269,2.047-0.669c0.691-0.401,1.066-0.8,1.15-1.188
					C241.256,228.488,241.013,228.136,240.467,227.822"/>
				<path clip-path="url(#SVGID_2_)" fill="#FFFFFF" d="M240.532,232.078c-0.202-0.117-0.3-0.24-0.295-0.361
					c0-0.127,0.097-0.249,0.303-0.369c0.204-0.119,0.417-0.176,0.634-0.176c0.218-0.006,0.424,0.053,0.625,0.17
					c0.201,0.115,0.304,0.234,0.305,0.361c-0.005,0.122-0.114,0.245-0.318,0.365c-0.205,0.119-0.411,0.179-0.624,0.183
					C240.945,232.25,240.733,232.193,240.532,232.078 M242.473,230.95c-0.167-0.097-0.253-0.2-0.266-0.306
					c0-0.105,0.079-0.205,0.245-0.302c0.166-0.096,0.338-0.143,0.521-0.143c0.184,0.007,0.361,0.056,0.528,0.152
					c0.172,0.101,0.252,0.199,0.259,0.304c0.001,0.105-0.079,0.204-0.244,0.3c-0.167,0.097-0.337,0.143-0.521,0.144
					C242.817,231.095,242.645,231.048,242.473,230.95 M244.174,229.96c-0.506-0.291-0.988-0.464-1.435-0.51
					c-0.447-0.047-0.841,0.035-1.195,0.241c-0.235,0.138-0.371,0.289-0.4,0.452c-0.027,0.168,0.048,0.344,0.222,0.537
					c-0.356-0.12-0.706-0.17-1.021-0.153c-0.32,0.021-0.618,0.106-0.887,0.263c-0.41,0.238-0.582,0.504-0.517,0.785
					c0.064,0.283,0.375,0.582,0.917,0.894c0.545,0.314,1.055,0.49,1.543,0.527c0.487,0.036,0.939-0.067,1.349-0.306
					c0.269-0.156,0.423-0.324,0.451-0.515c0.027-0.182-0.055-0.382-0.267-0.589c0.333,0.099,0.642,0.145,0.934,0.129
					c0.281-0.018,0.549-0.094,0.784-0.23c0.354-0.205,0.49-0.438,0.408-0.695C244.979,230.531,244.685,230.255,244.174,229.96"/>
				<polygon clip-path="url(#SVGID_2_)" fill="#FFFFFF" points="248.026,214.388 245.113,212.707 240.952,215.125 243.928,216.843
					244.739,216.373 242.843,215.277 243.796,214.723 245.52,215.718 246.331,215.248 244.607,214.251 245.383,213.801
					247.216,214.859 				"/>
				<path clip-path="url(#SVGID_2_)" fill="#FFFFFF" d="M251.515,216.402l-2.684-1.549l-2.341,1.359
					c0.281,0.07,0.533,0.143,0.751,0.223c0.213,0.076,0.402,0.159,0.557,0.248c0.265,0.154,0.396,0.31,0.427,0.473
					c0.024,0.158-0.072,0.301-0.29,0.426c-0.223,0.131-0.468,0.188-0.744,0.174c-0.281-0.017-0.55-0.094-0.814-0.245
					c-0.184-0.106-0.339-0.235-0.477-0.396c-0.145-0.156-0.26-0.335-0.358-0.544l-0.845,0.491c0.139,0.186,0.299,0.358,0.49,0.521
					c0.183,0.158,0.397,0.309,0.638,0.447c0.546,0.315,1.102,0.49,1.663,0.524c0.568,0.03,1.078-0.087,1.529-0.349
					c0.451-0.262,0.66-0.551,0.63-0.859c-0.03-0.314-0.301-0.617-0.812-0.912c-0.086-0.05-0.178-0.097-0.276-0.14
					c-0.092-0.04-0.194-0.079-0.299-0.112l0.646-0.375l1.821,1.052L251.515,216.402"/>
				<polygon clip-path="url(#SVGID_2_)" fill="#FFFFFF" points="250.443,219.354 249.438,218.774 248.358,219.401 249.364,219.982
									"/>
				<path clip-path="url(#SVGID_2_)" fill="#FFFFFF" d="M252.313,220.937c-0.235-0.137-0.288-0.293-0.174-0.479
					c0.119-0.182,0.445-0.424,0.97-0.729c0.52-0.303,0.931-0.488,1.245-0.559c0.315-0.062,0.578-0.029,0.815,0.107
					c0.229,0.131,0.293,0.288,0.18,0.467c-0.12,0.183-0.433,0.425-0.953,0.727c-0.525,0.306-0.948,0.491-1.263,0.561
					C252.812,221.099,252.544,221.07,252.313,220.937 M255.904,218.849c-0.551-0.318-1.166-0.454-1.835-0.41
					c-0.676,0.046-1.362,0.265-2.059,0.67c-0.685,0.398-1.06,0.797-1.139,1.188c-0.078,0.393,0.165,0.744,0.716,1.062
					c0.546,0.315,1.154,0.454,1.835,0.411c0.67-0.049,1.356-0.269,2.042-0.667c0.696-0.404,1.071-0.802,1.155-1.19
					C256.688,219.52,256.45,219.166,255.904,218.849"/>
				<path clip-path="url(#SVGID_2_)" fill="#FFFFFF" d="M257.377,222.181c-0.184-0.105-0.265-0.226-0.242-0.352
					c0.028-0.123,0.158-0.259,0.404-0.401c0.24-0.14,0.475-0.216,0.692-0.236c0.218-0.013,0.424,0.032,0.608,0.14
					c0.189,0.109,0.27,0.229,0.248,0.355c-0.034,0.125-0.165,0.262-0.404,0.4c-0.246,0.144-0.479,0.22-0.692,0.236
					C257.774,222.337,257.567,222.291,257.377,222.181 M259.519,220.943c-0.488-0.281-1.016-0.428-1.578-0.441
					c-0.561-0.013-1.07,0.11-1.516,0.369c-0.405,0.235-0.604,0.504-0.585,0.799c0.012,0.293,0.237,0.567,0.662,0.813
					c0.167,0.096,0.351,0.176,0.541,0.231c0.188,0.057,0.39,0.094,0.613,0.109c-0.378,0.187-0.749,0.283-1.11,0.279
					c-0.354,0-0.693-0.096-1.01-0.279c-0.155-0.09-0.293-0.188-0.414-0.305c-0.115-0.112-0.218-0.245-0.31-0.391l-0.771,0.445
					c0.115,0.135,0.248,0.264,0.397,0.383s0.327,0.236,0.524,0.35c0.615,0.354,1.286,0.518,2.029,0.49
					c0.745-0.027,1.455-0.238,2.145-0.641c0.668-0.389,1.038-0.775,1.104-1.16S260.064,221.259,259.519,220.943"/>
				<polygon clip-path="url(#SVGID_2_)" fill="#FFFFFF" points="263.167,205.589 260.253,203.907 256.092,206.326 259.067,208.045
					259.879,207.574 257.982,206.479 258.936,205.925 260.66,206.92 261.47,206.449 259.747,205.454 260.523,205.003
					262.355,206.06 				"/>
				<path clip-path="url(#SVGID_2_)" fill="#FFFFFF" d="M266.654,207.604l-2.683-1.55l-2.347,1.364
					c0.286,0.066,0.54,0.14,0.757,0.22c0.212,0.076,0.396,0.162,0.551,0.251c0.265,0.152,0.402,0.306,0.433,0.467
					c0.023,0.16-0.073,0.302-0.291,0.428c-0.223,0.13-0.468,0.187-0.744,0.172c-0.28-0.016-0.55-0.092-0.814-0.245
					c-0.184-0.106-0.338-0.235-0.477-0.395c-0.145-0.156-0.26-0.335-0.359-0.543l-0.845,0.49c0.139,0.187,0.294,0.362,0.484,0.525
					c0.184,0.159,0.403,0.305,0.644,0.444c0.546,0.315,1.102,0.491,1.664,0.524c0.567,0.03,1.077-0.086,1.528-0.348
					c0.451-0.262,0.661-0.551,0.63-0.86c-0.03-0.314-0.301-0.616-0.812-0.911c-0.086-0.051-0.178-0.097-0.276-0.14
					c-0.091-0.04-0.194-0.08-0.298-0.113l0.64-0.371l1.821,1.051L266.654,207.604"/>
				<polygon clip-path="url(#SVGID_2_)" fill="#FFFFFF" points="265.583,210.556 264.578,209.975 263.499,210.602 264.503,211.183
									"/>
				<polygon clip-path="url(#SVGID_2_)" fill="#FFFFFF" points="271.619,210.47 270.59,209.875 269.408,209.431 268.683,209.852
					269.866,210.304 267.176,211.867 266.223,211.316 265.48,211.748 268.412,213.439 269.153,213.007 268.199,212.457 				"/>
				<path clip-path="url(#SVGID_2_)" fill="#FFFFFF" d="M271.159,214.279c-0.23-0.133-0.288-0.292-0.168-0.475
					c0.119-0.182,0.438-0.428,0.964-0.733c0.52-0.302,0.936-0.484,1.251-0.555c0.309-0.065,0.578-0.03,0.808,0.104
					c0.235,0.135,0.299,0.291,0.186,0.471c-0.119,0.182-0.438,0.421-0.958,0.723c-0.525,0.305-0.943,0.494-1.263,0.561
					C271.664,214.445,271.395,214.415,271.159,214.279 M274.75,212.191c-0.552-0.318-1.166-0.454-1.84-0.406
					c-0.671,0.043-1.356,0.268-2.047,0.67c-0.686,0.397-1.066,0.792-1.145,1.184s0.164,0.743,0.716,1.061
					c0.55,0.32,1.159,0.459,1.835,0.412c0.675-0.046,1.355-0.268,2.041-0.666c0.691-0.402,1.078-0.801,1.151-1.188
					C275.539,212.865,275.302,212.51,274.75,212.191"/>
				<polygon clip-path="url(#SVGID_2_)" fill="#FFFFFF" points="322.758,241.522 321.937,241.048 320.051,242.142 319.099,241.592
					320.816,240.593 319.994,240.119 318.277,241.118 317.501,240.669 319.327,239.607 318.511,239.136 315.611,240.822
					319.8,243.242 				"/>
				<path clip-path="url(#SVGID_2_)" fill="#FFFFFF" d="M325.1,238.576c-0.459-0.266-0.958-0.388-1.496-0.368
					c-0.539,0.013-1.059,0.169-1.566,0.465c-0.093,0.053-0.172,0.106-0.24,0.159c-0.068,0.06-0.13,0.116-0.188,0.175l-0.65-0.374
					l1.811-1.051l-0.795-0.459l-2.665,1.55l2.357,1.36c0.113-0.166,0.237-0.313,0.37-0.435c0.136-0.126,0.283-0.232,0.438-0.321
					c0.257-0.15,0.526-0.232,0.8-0.246c0.281-0.018,0.529,0.04,0.752,0.169c0.219,0.126,0.316,0.269,0.29,0.432
					c-0.018,0.163-0.161,0.318-0.418,0.468c-0.181,0.105-0.409,0.199-0.673,0.278c-0.275,0.08-0.584,0.146-0.939,0.206l0.846,0.486
					c0.327-0.075,0.623-0.168,0.903-0.277c0.274-0.106,0.531-0.229,0.766-0.365c0.548-0.318,0.844-0.645,0.899-0.969
					C325.751,239.13,325.555,238.837,325.1,238.576"/>
				<polygon clip-path="url(#SVGID_2_)" fill="#FFFFFF" points="328.164,238.38 327.078,237.753 326.074,238.337 327.16,238.964
									"/>
				<path clip-path="url(#SVGID_2_)" fill="#FFFFFF" d="M327.705,236.21c-0.523-0.301-0.84-0.544-0.957-0.723
					c-0.119-0.183-0.058-0.339,0.17-0.472c0.236-0.136,0.504-0.173,0.818-0.103c0.311,0.067,0.725,0.252,1.248,0.555
					c0.528,0.305,0.854,0.547,0.971,0.732c0.123,0.182,0.07,0.339-0.164,0.475c-0.229,0.133-0.502,0.166-0.818,0.096
					C328.659,236.703,328.234,236.515,327.705,236.21 M330.067,234.85c-0.694-0.401-1.382-0.626-2.054-0.67
					c-0.676-0.046-1.288,0.09-1.836,0.408c-0.549,0.319-0.781,0.673-0.698,1.065c0.077,0.389,0.47,0.785,1.163,1.188
					c0.697,0.401,1.379,0.623,2.049,0.666c0.678,0.047,1.288-0.088,1.838-0.407c0.547-0.318,0.779-0.675,0.696-1.065
					C331.148,235.646,330.764,235.251,330.067,234.85"/>
				<path clip-path="url(#SVGID_2_)" fill="#FFFFFF" d="M334.354,233.199c-0.46-0.266-0.957-0.389-1.49-0.372
					c-0.546,0.017-1.065,0.173-1.573,0.468c-0.086,0.051-0.166,0.104-0.241,0.159c-0.061,0.056-0.13,0.116-0.187,0.176l-0.65-0.374
					l1.809-1.053l-0.792-0.457l-2.666,1.549l2.358,1.36c0.113-0.166,0.236-0.312,0.375-0.438c0.129-0.123,0.277-0.229,0.434-0.319
					c0.262-0.152,0.531-0.235,0.805-0.248c0.274-0.014,0.522,0.043,0.746,0.172c0.219,0.127,0.316,0.27,0.295,0.428
					c-0.018,0.163-0.16,0.317-0.422,0.471c-0.177,0.104-0.405,0.197-0.676,0.279c-0.267,0.076-0.581,0.146-0.937,0.205l0.844,0.487
					c0.327-0.075,0.63-0.171,0.903-0.277c0.281-0.109,0.538-0.232,0.773-0.368c0.547-0.318,0.837-0.641,0.892-0.965
					C335.006,233.752,334.809,233.46,334.354,233.199"/>
			</g>
		</g>
	</g>
</g>
<g>
	<g>
		<g enable-background="new    ">
			<defs>
				<polygon id="SVGID_3_" enable-background="new    " points="183.802,243.46 190.627,239.494 197.503,243.463 190.678,247.43
									"/>
			</defs>
			<clipPath id="SVGID_4_">
				<use xlink:href="#SVGID_3_"  overflow="visible"/>
			</clipPath>
			<g clip-path="url(#SVGID_4_)">
				<g>
					<g>
						<g>
							<polyline fill="#FFFFFF" points="192.364,240.496 190.627,239.494 183.802,243.46 187.23,245.44 190.678,247.43
								192.403,246.427 190.686,245.436 192.386,244.448 190.675,243.46 192.375,242.472 190.664,241.484 192.364,240.496
								"/>
						</g>
					</g>
				</g>
			</g>
		</g>
	</g>
</g>
<g>
	<polygon fill="#EC7404" stroke="#FFFFFF" stroke-width="0.5" points="312.837,-23.968 316.249,-23.968 314.68,-12.192 	"/>
	<circle fill="#EC7404" cx="314.543" cy="-33" r="9.731"/>
	<polygon fill="none" stroke="#FFFFFF" stroke-width="0.5" points="318.413,-35.826 314.543,-40.501 310.674,-35.826
		312.627,-35.826 312.627,-30.704 316.46,-30.704 316.46,-35.826 	"/>
	<text transform="matrix(1 0 0 1 312.877 -25.1196)" fill="#FFFFFF" font-family="'DejaVuSansCondensed-Bold'" font-size="5"></text>
</g>
<g>
	<polygon fill="#EC7404" stroke="#FFFFFF" stroke-width="0.5" points="338.409,-23.968 341.822,-23.968 340.252,-12.192 	"/>
	<circle fill="#EC7404" cx="340.116" cy="-33" r="9.731"/>
	<polygon fill="none" stroke="#FFFFFF" stroke-width="0.5" points="343.985,-35.826 340.115,-40.501 336.246,-35.826
		338.199,-35.826 338.199,-30.704 342.032,-30.704 342.032,-35.826 	"/>
	<rect x="338.429" y="-29.443" fill="none" width="8" height="3.833"/>
	<text transform="matrix(1 0 0 1 338.4307 -25.6436)" fill="#FFFFFF" font-family="'DejaVuSansCondensed-Bold'" font-size="5">P</text>
</g>
<g>
	<polygon fill="#EC7404" stroke="#FFFFFF" stroke-width="0.5" points="363.981,-23.968 367.394,-23.968 365.824,-12.192 	"/>
	<circle fill="#EC7404" cx="365.688" cy="-33" r="9.731"/>
	<polygon fill="none" stroke="#FFFFFF" stroke-width="0.5" points="369.558,-35.826 365.688,-40.501 361.818,-35.826
		363.771,-35.826 363.771,-30.704 367.604,-30.704 367.604,-35.826 	"/>
	<rect x="360.819" y="-29.442" fill="none" width="8" height="3.833"/>
	<text transform="matrix(1 0 0 1 360.8213 -25.6436)" fill="#FFFFFF" font-family="'DejaVuSansCondensed-Bold'" font-size="5"> EC</text>
</g>
<g>
	<polygon fill="#EC7404" stroke="#FFFFFF" stroke-width="0.5" points="415.003,-23.991 418.417,-23.991 416.847,-12.215 	"/>
	<g>
		<circle fill="#EC7404" cx="416.71" cy="-33" r="9.731"/>
		<g>
			<g>
				<path fill="none" stroke="#FFFFFF" stroke-width="0.5" d="M421.197-29.081c0,0.312-0.255,0.567-0.567,0.567h-7.839
					c-0.312,0-0.567-0.255-0.567-0.567v-7.84c0-0.312,0.255-0.567,0.567-0.567h7.839c0.312,0,0.567,0.255,0.567,0.567V-29.081z"/>
			</g>
			<polygon fill="#FFFFFF" points="413.152,-32.975 415.846,-29.744 420.287,-36.475 415.608,-31.057 			"/>
		</g>
	</g>
</g>
<g>
	<polygon fill="#EC7404" stroke="#FFFFFF" stroke-width="0.5" points="440.863,-23.991 444.277,-23.991 442.707,-12.215 	"/>
	<circle fill="#EC7404" cx="442.571" cy="-33" r="9.731"/>
	<g>
		<g>
			<path fill="#EC7404" d="M446.946-31.146c0,0.312-0.255,0.567-0.567,0.567h-9.54c-0.312,0-0.567-0.255-0.567-0.567V-36.6
				c0-0.312,0.255-0.567,0.567-0.567h9.54c0.312,0,0.567,0.255,0.567,0.567V-31.146z"/>
			<path fill="none" stroke="#FFFFFF" stroke-width="0.5" d="M446.946-31.146c0,0.312-0.255,0.567-0.567,0.567h-9.54
				c-0.312,0-0.567-0.255-0.567-0.567V-36.6c0-0.312,0.255-0.567,0.567-0.567h9.54c0.312,0,0.567,0.255,0.567,0.567V-31.146z"/>
		</g>
		<g>
			<path fill="#EC7404" d="M448.87-29.223c0,0.312-0.255,0.567-0.567,0.567h-9.54c-0.312,0-0.567-0.255-0.567-0.567v-5.454
				c0-0.312,0.255-0.567,0.567-0.567h9.54c0.312,0,0.567,0.255,0.567,0.567V-29.223z"/>
			<path fill="none" stroke="#FFFFFF" stroke-width="0.5" d="M448.87-29.223c0,0.312-0.255,0.567-0.567,0.567h-9.54
				c-0.312,0-0.567-0.255-0.567-0.567v-5.454c0-0.312,0.255-0.567,0.567-0.567h9.54c0.312,0,0.567,0.255,0.567,0.567V-29.223z"/>
		</g>
	</g>
</g>
<g>
	<polygon fill="#EC7404" stroke="#FFFFFF" stroke-width="0.5" points="287.264,-23.968 290.677,-23.968 289.107,-12.192 	"/>
	<circle fill="#EC7404" cx="288.97" cy="-33" r="9.731"/>
	<g>
		<path fill="#FFFFFF" d="M285.842-31.311h6.294v-0.557h-6.294V-31.311z M285.842-29.615h6.294v-0.557h-6.294V-29.615z
			 M285.842-34.658h6.294v-0.558h-6.294V-34.658z M285.842-32.993h6.294v-0.557h-6.294V-32.993z M292.842-27.685h-7.744v-11.183
			h5.521v2.222h2.223V-27.685z M284.54-27.125 M291.178-38.797l1.594,1.592h-1.594V-38.797z M291.336-39.427h-6.796v12.301h8.86
			v-10.239L291.336-39.427z"/>
	</g>
</g>
<g>
	<polygon fill="#EC7404" stroke="#FFFFFF" stroke-width="0.5" points="261.69,-23.968 265.104,-23.968 263.533,-12.192 	"/>
	<circle fill="#EC7404" cx="263.397" cy="-33.001" r="9.731"/>
	<g>
		<g>
			<path fill="#FFFFFF" d="M268.454-33.723c-0.002-0.272-0.025-0.522-0.083-0.758c-0.046-0.183-0.114-0.358-0.217-0.517
				c-0.152-0.24-0.387-0.429-0.656-0.535c-0.269-0.108-0.564-0.149-0.898-0.149c-0.295,0-0.563,0.033-0.811,0.114
				c-0.185,0.062-0.357,0.153-0.505,0.277c-0.223,0.186-0.377,0.438-0.463,0.709c-0.086,0.264-0.118,0.55-0.119,0.862l-0.569,4.806
				h1.198v2.099h0.97v-2.099h0.6v2.099h0.97v-2.099h1.204L268.454-33.723z"/>
			<path fill="#FFFFFF" d="M260.08-36.128c0.872,0,1.576-0.707,1.576-1.577c0-0.871-0.704-1.577-1.576-1.577
				c-0.87,0-1.575,0.706-1.576,1.577C258.505-36.834,259.21-36.128,260.08-36.128 M260.08-35.59c-1.305,0.001-2.36,1.057-2.36,2.361
				v2.469h1.092v3.943h0.969v-3.943h0.6v3.943h0.97v-3.943h1.091v-2.469C262.44-34.534,261.385-35.589,260.08-35.59"/>
		</g>
		<circle fill="#FFFFFF" cx="266.494" cy="-37.707" r="1.584"/>
	</g>
</g>
<g>
	<polygon fill="#EC7404" stroke="#FFFFFF" stroke-width="0.5" points="389.554,-23.968 392.967,-23.968 391.397,-12.192 	"/>
	<circle fill="#EC7404" cx="391.26" cy="-33" r="9.731"/>
	<text transform="matrix(1 0 0 1 389.502 -25.1196)" fill="#FFFFFF" font-family="'DejaVuSansCondensed-Bold'" font-size="5"></text>
	<polygon fill="none" stroke="#FFFFFF" stroke-width="0.5" points="387.342,-35.379 391.212,-30.704 395.081,-35.379
		393.128,-35.379 393.128,-40.501 389.295,-40.501 389.295,-35.379 	"/>
</g>
<g>
	<polygon fill="#EC7404" stroke="#FFFFFF" stroke-width="0.5" points="222.458,272.016 225.872,272.016 224.301,283.792 	"/>
	<circle fill="#EC7404" cx="224.166" cy="262.983" r="9.731"/>
	<g>
		<g>
			<path fill="#FFFFFF" d="M229.222,262.261c-0.002-0.272-0.025-0.523-0.083-0.758c-0.046-0.184-0.114-0.358-0.217-0.518
				c-0.152-0.239-0.387-0.429-0.656-0.535c-0.269-0.107-0.564-0.148-0.898-0.148c-0.295,0-0.563,0.032-0.811,0.113
				c-0.185,0.062-0.357,0.152-0.505,0.277c-0.223,0.186-0.377,0.438-0.463,0.709c-0.086,0.264-0.118,0.549-0.119,0.861l-0.569,4.806
				h1.198v2.099h0.97v-2.099h0.6v2.099h0.97v-2.099h1.204L229.222,262.261z"/>
			<path fill="#FFFFFF" d="M220.848,259.856c0.872,0,1.576-0.706,1.576-1.577s-0.704-1.576-1.576-1.576
				c-0.87,0-1.575,0.705-1.576,1.576C219.273,259.15,219.978,259.856,220.848,259.856 M220.848,260.394
				c-1.305,0-2.36,1.057-2.36,2.36v2.47h1.092v3.943h0.969v-3.943h0.6v3.943h0.97v-3.943h1.091v-2.47
				C223.208,261.451,222.153,260.394,220.848,260.394"/>
		</g>
		<circle fill="#FFFFFF" cx="227.262" cy="258.277" r="1.584"/>
	</g>
</g>
<g>
	<polygon fill="#EC7404" points="195.811,263.026 199.225,263.026 197.654,274.802 	"/>
	<circle fill="#EC7404" cx="197.518" cy="254.016" r="9.731"/>
	<g>
		<g>
			<path fill="none" stroke="#FFFFFF" stroke-width="0.5" d="M202.005,259.811c0,0.312-0.255,0.567-0.566,0.567h-7.84
				c-0.312,0-0.567-0.256-0.567-0.567v-11.507c0-0.312,0.255-0.566,0.567-0.566h7.84c0.312,0,0.566,0.254,0.566,0.566V259.811z"/>
		</g>
	</g>
	<path fill="#FFFFFF" d="M197.518,252.388c0.743,0,1.342-0.602,1.342-1.342c0-0.742-0.599-1.342-1.342-1.342
		c-0.74,0-1.34,0.6-1.341,1.342C196.178,251.787,196.777,252.388,197.518,252.388 M197.518,252.846
		c-1.11,0.001-2.009,0.899-2.009,2.01v2.102h0.93v3.356h0.824v-3.356h0.511v3.356h0.825v-3.356h0.929v-2.102
		C199.527,253.746,198.629,252.847,197.518,252.846"/>
</g>
</svg>
