<?xml version="1.0" encoding="utf-8"?>
<!-- Generator: Adobe Illustrator 16.0.0, SVG Export Plug-In . SVG Version: 6.00 Build 0)  -->
<!DOCTYPE svg PUBLIC "-//W3C//DTD SVG 1.1//EN" "http://www.w3.org/Graphics/SVG/1.1/DTD/svg11.dtd">
<svg version="1.1" id="Ebene_1" xmlns="http://www.w3.org/2000/svg" xmlns:xlink="http://www.w3.org/1999/xlink" x="0px" y="0px"
	 width="595.275px" height="419.527px" viewBox="0 0 595.275 419.527" enable-background="new 0 0 595.275 419.527"
	 xml:space="preserve">
<g>
	<g enable-background="new    ">
		<g>
			<polygon fill="#EC7404" points="207.225,286.728 209.068,287.792 242.541,307.111 259.81,297.076 224.5,276.689 			"/>
			<g>
				<defs>
					<polygon id="SVGID_1_" points="101.351,225.602 248.451,140.117 389.635,221.629 242.535,307.115 					"/>
				</defs>
				<clipPath id="SVGID_2_">
					<use xlink:href="#SVGID_1_"  overflow="visible"/>
				</clipPath>
				<path clip-path="url(#SVGID_2_)" fill="#BED5E5" d="M298.065,254.72l-1.759-1.016l0.582,1.699L298.065,254.72 M303.6,250.857
					c-0.523-0.301-0.941-0.483-1.251-0.549c-0.316-0.07-0.579-0.037-0.813,0.099c-0.228,0.133-0.291,0.289-0.168,0.472
					c0.115,0.179,0.432,0.422,0.954,0.723c0.533,0.309,0.96,0.496,1.271,0.561c0.312,0.07,0.59,0.036,0.818-0.096
					c0.229-0.133,0.283-0.293,0.161-0.475C304.458,251.412,304.135,251.167,303.6,250.857 M308.062,249.156
					c-0.246-0.143-0.477-0.223-0.691-0.235c-0.219-0.021-0.421,0.03-0.609,0.14s-0.273,0.225-0.238,0.352
					c0.024,0.126,0.162,0.259,0.41,0.4c0.24,0.141,0.471,0.219,0.693,0.236c0.213,0.017,0.418-0.03,0.607-0.139
					c0.188-0.11,0.268-0.23,0.237-0.352C308.443,249.427,308.304,249.294,308.062,249.156 M293.715,256.983l0.954,0.551l1.883-1.095
					l0.823,0.475l-2.958,1.718l-4.189-2.419l2.895-1.682l0.815,0.471l-1.82,1.059l0.775,0.448l1.712-0.996l0.821,0.475
					L293.715,256.983 M296.071,255.712l-0.832-2.412l1.194-0.693l2.642,1.525l0.595-0.346l0.781,0.452l-0.594,0.345l0.765,0.441
					l-1.011,0.588l-0.765-0.44l-1.85,1.073L296.071,255.712 M300.689,253.728l1.005-0.584l1.085,0.627l-1.005,0.584L300.689,253.728
					 M301.26,252.232c-0.695-0.402-1.088-0.801-1.165-1.188c-0.083-0.393,0.152-0.748,0.698-1.066
					c0.549-0.317,1.16-0.453,1.837-0.407c0.669,0.043,1.359,0.269,2.054,0.67c0.697,0.401,1.082,0.796,1.158,1.185
					c0.083,0.391-0.148,0.746-0.697,1.065c-0.547,0.319-1.161,0.454-1.838,0.407C302.637,252.855,301.955,252.632,301.26,252.232
					 M305.646,249.216c0.04-0.123,0.102-0.24,0.199-0.35c0.096-0.107,0.228-0.211,0.4-0.311c0.422-0.246,0.896-0.375,1.399-0.382
					c0.515-0.007,0.975,0.105,1.376,0.339c0.455,0.262,0.662,0.553,0.643,0.879c-0.023,0.324-0.271,0.63-0.764,0.916
					c-0.542,0.314-1.143,0.45-1.808,0.41s-1.336-0.256-2.009-0.643c-0.695-0.402-1.069-0.816-1.112-1.244
					c-0.046-0.432,0.224-0.822,0.829-1.175c0.189-0.11,0.396-0.21,0.602-0.296c0.211-0.09,0.434-0.166,0.673-0.231l0.771,0.444
					c-0.259,0.057-0.487,0.116-0.681,0.182c-0.201,0.07-0.372,0.143-0.52,0.23c-0.321,0.186-0.479,0.384-0.479,0.59
					C305.164,248.785,305.324,248.998,305.646,249.216 M359.114,239.365l-35.31-20.386l-94.653,55.007l35.311,20.386
					L359.114,239.365"/>
				<path clip-path="url(#SVGID_2_)" fill="#BFBFBF" d="M251.049,214.215l-2.93,0.332l1.184,0.683L251.049,214.215 M256.765,217.257
					c-0.229-0.133-0.505-0.166-0.813-0.099c-0.314,0.062-0.725,0.247-1.246,0.55c-0.53,0.309-0.855,0.551-0.964,0.733
					c-0.119,0.183-0.06,0.342,0.169,0.475s0.505,0.166,0.819,0.096c0.31-0.065,0.733-0.251,1.264-0.56
					c0.52-0.303,0.832-0.545,0.946-0.724C257.053,217.55,256.996,217.39,256.765,217.257 M249.951,217.384l1.079-0.627l1.011,0.583
					l-1.078,0.627L249.951,217.384 M242.544,213.108l4.162-2.419l2.914,1.682l-0.811,0.472l-1.833-1.058l-0.776,0.45l1.723,0.995
					l-0.811,0.471l-1.724-0.994l-0.953,0.553l1.897,1.096l-0.812,0.471L242.544,213.108 M246.671,214.61l0.919-0.534l4.161-0.475
					l1.202,0.693l-2.626,1.526l0.597,0.346l-0.777,0.45l-0.598-0.344l-0.758,0.441l-1.023-0.592l0.76-0.44L246.671,214.61
					 M258.732,218.544l0.788-0.457l3.154,1.821l-0.605,0.352l-5.188,1.124l-1.052-0.606l4.92-1.069L258.732,218.544
					 M253.181,219.341c-0.552-0.318-0.789-0.674-0.71-1.065c0.072-0.387,0.453-0.782,1.145-1.185c0.69-0.401,1.376-0.626,2.046-0.67
					c0.676-0.046,1.284,0.093,1.835,0.411c0.552,0.319,0.794,0.671,0.716,1.062c-0.072,0.388-0.459,0.786-1.149,1.188
					c-0.692,0.401-1.372,0.623-2.042,0.666C254.346,219.795,253.732,219.66,253.181,219.341 M274.634,223.083l-31.46-18.164
					l-11.207,6.513l31.46,18.164L274.634,223.083"/>
				<path clip-path="url(#SVGID_2_)" fill="#BFBFBF" d="M236.048,224.171l-2.925,0.328l1.184,0.685L236.048,224.171 M241.759,227.21
					c-0.23-0.133-0.5-0.17-0.814-0.1c-0.308,0.066-0.726,0.249-1.245,0.551c-0.526,0.306-0.845,0.551-0.965,0.732
					c-0.119,0.184-0.06,0.342,0.169,0.475c0.23,0.133,0.505,0.166,0.82,0.098c0.315-0.07,0.737-0.256,1.262-0.561
					c0.521-0.303,0.84-0.542,0.948-0.725C242.052,227.5,241.995,227.345,241.759,227.21 M234.948,227.333l1.08-0.627l1.011,0.583
					l-1.079,0.628L234.948,227.333 M227.542,223.057l4.156-2.415l2.914,1.682l-0.811,0.471l-1.833-1.058l-0.771,0.447l1.723,0.995
					l-0.81,0.472l-1.725-0.995l-0.953,0.555l1.896,1.094l-0.811,0.471L227.542,223.057 M231.663,224.564l0.919-0.535l4.162-0.475
					l1.201,0.693l-2.621,1.522l0.598,0.346l-0.782,0.454l-0.597-0.344l-0.754,0.438l-1.017-0.588l0.754-0.438L231.663,224.564
					 M242.396,229.529l2.341-1.359l2.683,1.549l-0.788,0.458l-1.821-1.052l-0.64,0.371c0.104,0.033,0.197,0.074,0.299,0.113
					c0.092,0.04,0.185,0.086,0.276,0.139c0.511,0.296,0.776,0.602,0.812,0.912c0.031,0.309-0.179,0.598-0.636,0.863
					c-0.452,0.262-0.954,0.376-1.521,0.346c-0.562-0.033-1.125-0.207-1.67-0.521c-0.241-0.141-0.454-0.289-0.638-0.447
					c-0.19-0.162-0.351-0.336-0.484-0.524l0.845-0.491c0.099,0.209,0.214,0.389,0.352,0.547c0.145,0.156,0.3,0.286,0.484,0.392
					c0.258,0.149,0.528,0.233,0.814,0.246c0.276,0.013,0.521-0.043,0.737-0.169c0.223-0.13,0.32-0.271,0.296-0.432
					c-0.028-0.162-0.173-0.318-0.432-0.467c-0.155-0.09-0.339-0.177-0.557-0.257C242.935,229.669,242.683,229.595,242.396,229.529
					 M238.173,229.293c-0.551-0.317-0.788-0.674-0.711-1.063c0.073-0.389,0.455-0.785,1.146-1.186
					c0.69-0.401,1.376-0.627,2.046-0.67c0.676-0.047,1.29,0.089,1.841,0.407c0.551,0.319,0.788,0.675,0.71,1.065
					c-0.072,0.389-0.459,0.787-1.149,1.188c-0.691,0.402-1.372,0.623-2.042,0.668C239.338,229.75,238.725,229.613,238.173,229.293
					 M259.654,231.789l-31.46-18.164l-12.72,7.393l31.46,18.164L259.654,231.789"/>
				<path clip-path="url(#SVGID_2_)" fill="#BED5E5" d="M148.408,227.592l-1.753-1.012l0.576,1.696L148.408,227.592
					 M153.947,223.734c-0.523-0.302-0.942-0.484-1.252-0.551c-0.314-0.068-0.578-0.037-0.812,0.1
					c-0.228,0.133-0.291,0.289-0.169,0.471c0.116,0.18,0.432,0.422,0.955,0.724c0.528,0.306,0.954,0.491,1.269,0.562
					c0.315,0.068,0.59,0.035,0.818-0.096c0.229-0.135,0.286-0.293,0.164-0.475C154.799,224.285,154.476,224.04,153.947,223.734
					 M144.062,229.859l0.954,0.551l1.883-1.096l0.822,0.475l-2.958,1.719l-4.189-2.418l2.895-1.683l0.817,0.472l-1.822,1.058
					l0.776,0.448l1.713-0.995l0.821,0.474L144.062,229.859 M146.42,228.587l-0.833-2.411l1.192-0.693l2.638,1.522l0.594-0.346
					l0.788,0.455l-0.594,0.345l0.764,0.442l-1.009,0.586l-0.765-0.44l-1.85,1.075L146.42,228.587 M151.037,226.603l1.005-0.584
					l1.086,0.629l-1.004,0.583L151.037,226.603 M151.606,225.107c-0.696-0.401-1.086-0.799-1.164-1.188
					c-0.082-0.392,0.151-0.746,0.699-1.064c0.549-0.318,1.16-0.455,1.837-0.408c0.669,0.043,1.358,0.268,2.053,0.67
					c0.696,0.402,1.081,0.797,1.159,1.185c0.082,0.392-0.15,0.747-0.698,1.065c-0.549,0.318-1.16,0.455-1.837,0.408
					C152.985,225.732,152.302,225.509,151.606,225.107 M153.77,221.654l0.764-0.678l1.021-0.593l3.443,1.987l0.947-0.551
					l0.747,0.432l-2.911,1.691l-0.747-0.432l0.947-0.551l-2.712-1.565l-0.763,0.684L153.77,221.654 M198.474,225.97l-49.037-28.313
					l-48.086,27.945l49.038,28.312L198.474,225.97"/>
				<path clip-path="url(#SVGID_2_)" fill="#BED5E5" d="M223.142,184.161l-1.753-1.012l0.576,1.695L223.142,184.161
					 M228.682,180.303c-0.523-0.302-0.937-0.488-1.247-0.553c-0.315-0.07-0.584-0.034-0.818,0.102
					c-0.229,0.132-0.291,0.289-0.169,0.471c0.115,0.18,0.432,0.422,0.955,0.724c0.529,0.305,0.953,0.492,1.269,0.561
					c0.315,0.07,0.59,0.037,0.818-0.096c0.235-0.136,0.286-0.292,0.164-0.475C229.538,180.851,229.21,180.609,228.682,180.303
					 M218.796,186.428l0.954,0.55l1.884-1.094l0.822,0.474l-2.957,1.719l-4.19-2.419l2.901-1.685l0.815,0.471l-1.826,1.062
					l0.775,0.447l1.718-0.999l0.822,0.475L218.796,186.428 M221.16,185.154l-0.833-2.412l1.193-0.694l2.637,1.522l0.594-0.345
					l0.788,0.455l-0.594,0.346l0.764,0.441l-1.016,0.591l-0.764-0.441l-1.843,1.071L221.16,185.154 M225.771,183.173l1.006-0.584
					l1.086,0.628l-1.005,0.584L225.771,183.173 M226.341,181.677c-0.696-0.403-1.086-0.8-1.164-1.188
					c-0.083-0.392,0.15-0.746,0.699-1.064c0.548-0.319,1.16-0.456,1.837-0.409c0.669,0.043,1.358,0.269,2.054,0.67
					c0.696,0.402,1.081,0.797,1.158,1.184c0.082,0.392-0.151,0.747-0.698,1.065c-0.549,0.319-1.16,0.455-1.837,0.408
					C227.719,182.301,227.037,182.079,226.341,181.677 M232.692,179.484l1.833-1.065l0.799,0.46l-3.027,1.759l-0.798-0.461
					l0.174-1.659c0.01-0.152-0.008-0.282-0.059-0.384c-0.059-0.106-0.145-0.196-0.272-0.27c-0.201-0.116-0.418-0.169-0.67-0.163
					c-0.252,0.007-0.485,0.077-0.703,0.202c-0.167,0.097-0.315,0.223-0.439,0.382c-0.131,0.155-0.233,0.342-0.317,0.557
					l-0.925-0.534c0.159-0.186,0.341-0.358,0.536-0.524c0.193-0.159,0.398-0.305,0.627-0.438c0.497-0.289,1-0.447,1.498-0.484
					c0.493-0.033,0.94,0.065,1.336,0.295c0.224,0.129,0.38,0.286,0.461,0.472c0.081,0.178,0.1,0.474,0.057,0.885L232.692,179.484
					 M297.487,168.429l-49.037-28.312l-94.453,54.89l49.044,28.309L297.487,168.429"/>
				<path clip-path="url(#SVGID_2_)" fill="#BFBFBF" d="M293.239,194.71l-1.754-1.012l0.577,1.696L293.239,194.71 M298.783,190.85
					c-0.522-0.302-0.942-0.484-1.258-0.554c-0.309-0.066-0.577-0.03-0.806,0.102c-0.229,0.133-0.291,0.289-0.175,0.469
					c0.114,0.186,0.438,0.424,0.96,0.726c0.529,0.305,0.949,0.494,1.27,0.56c0.314,0.07,0.59,0.037,0.818-0.095
					c0.229-0.134,0.285-0.292,0.164-0.476C299.635,191.4,299.312,191.154,298.783,190.85 M288.892,196.971l0.959,0.553l1.884-1.094
					l0.816,0.472l-2.958,1.718l-4.188-2.418l2.895-1.682l0.816,0.471l-1.822,1.058l0.781,0.452l1.713-0.996l0.816,0.471
					L288.892,196.971 M291.25,195.7l-0.833-2.412l1.193-0.693l2.644,1.525l0.593-0.345l0.782,0.451l-0.595,0.346l0.765,0.44
					l-1.016,0.591l-0.765-0.441l-1.844,1.072L291.25,195.7 M295.867,193.716l1.005-0.584l1.085,0.627l-1.004,0.584L295.867,193.716
					 M296.442,192.223c-0.7-0.405-1.086-0.799-1.169-1.19c-0.078-0.389,0.156-0.744,0.705-1.062c0.547-0.319,1.16-0.455,1.83-0.412
					c0.676,0.047,1.359,0.27,2.06,0.673c0.69,0.398,1.074,0.793,1.157,1.185c0.084,0.392-0.156,0.743-0.703,1.062
					c-0.549,0.318-1.155,0.458-1.83,0.411C297.815,192.843,297.133,192.622,296.442,192.223 M302.338,188.597
					c0.361-0.123,0.699-0.172,1.025-0.155c0.326,0.023,0.631,0.112,0.907,0.271c0.412,0.239,0.569,0.514,0.474,0.823
					c-0.102,0.312-0.454,0.637-1.06,0.989c-0.216,0.126-0.446,0.238-0.696,0.344c-0.253,0.106-0.516,0.199-0.795,0.282l-0.834-0.48
					c0.309-0.061,0.584-0.133,0.83-0.216c0.25-0.086,0.473-0.183,0.66-0.292c0.288-0.166,0.451-0.323,0.51-0.468
					c0.049-0.149-0.016-0.272-0.203-0.382c-0.189-0.109-0.414-0.146-0.666-0.112c-0.251,0.033-0.532,0.136-0.834,0.312l-0.434,0.251
					l-0.695-0.4l0.455-0.266c0.27-0.157,0.43-0.295,0.476-0.422c0.043-0.125-0.015-0.238-0.192-0.341
					c-0.16-0.094-0.344-0.126-0.566-0.103c-0.213,0.022-0.437,0.105-0.67,0.242c-0.172,0.1-0.332,0.213-0.468,0.337
					c-0.136,0.127-0.256,0.263-0.354,0.405l-0.791-0.457c0.153-0.157,0.317-0.306,0.495-0.442c0.176-0.136,0.365-0.265,0.57-0.384
					c0.537-0.312,1.034-0.495,1.48-0.548c0.447-0.052,0.854,0.024,1.209,0.23c0.248,0.142,0.381,0.299,0.411,0.46
					C302.612,188.239,302.527,188.414,302.338,188.597 M333.203,189.048l-31.461-18.164l-43.137,25.068l31.46,18.165
					L333.203,189.048"/>
				<polygon clip-path="url(#SVGID_2_)" fill="#BFBFBF" points="350.687,199.143 337.391,191.466 290.241,218.867 254.592,198.284 
					247.821,202.219 283.47,222.801 247.436,243.742 211.787,223.16 154.641,256.369 203.558,284.606 				"/>
				<polygon clip-path="url(#SVGID_2_)" fill="#FFFFFF" points="222.456,186.358 221.634,185.884 219.75,186.978 218.796,186.428 
					220.514,185.429 219.693,184.955 217.975,185.953 217.199,185.506 219.025,184.443 218.21,183.973 215.31,185.658 
					219.499,188.077 				"/>
				<path clip-path="url(#SVGID_2_)" fill="#FFFFFF" d="M221.965,184.844l-0.576-1.694l1.752,1.012L221.965,184.844z
					 M225.54,183.681l-0.788-0.455l-0.594,0.345l-2.637-1.523l-1.193,0.694l0.833,2.411l0.926,0.534l1.843-1.071l0.764,0.441
					l1.016-0.59l-0.764-0.442L225.54,183.681"/>
				<polygon clip-path="url(#SVGID_2_)" fill="#FFFFFF" points="227.862,183.216 226.776,182.589 225.771,183.173 226.857,183.799 
									"/>
				<path clip-path="url(#SVGID_2_)" fill="#FFFFFF" d="M227.404,181.046c-0.523-0.302-0.84-0.544-0.956-0.723
					c-0.121-0.183-0.058-0.338,0.169-0.471c0.234-0.137,0.504-0.173,0.819-0.104c0.31,0.066,0.723,0.252,1.246,0.554
					c0.529,0.305,0.857,0.547,0.973,0.733c0.12,0.183,0.07,0.338-0.164,0.474c-0.229,0.133-0.503,0.167-0.818,0.096
					C228.357,181.538,227.932,181.352,227.404,181.046 M229.767,179.686c-0.696-0.401-1.384-0.627-2.055-0.67
					c-0.676-0.046-1.288,0.09-1.836,0.409c-0.548,0.318-0.781,0.673-0.698,1.064c0.077,0.388,0.468,0.787,1.164,1.188
					c0.695,0.402,1.378,0.624,2.048,0.667c0.676,0.046,1.288-0.09,1.836-0.409c0.548-0.318,0.78-0.673,0.699-1.065
					C230.848,180.482,230.462,180.087,229.767,179.686"/>
				<path clip-path="url(#SVGID_2_)" fill="#FFFFFF" d="M235.324,178.879l-0.799-0.461l-1.832,1.065l0.109-0.969
					c0.044-0.411,0.025-0.706-0.056-0.885c-0.082-0.187-0.237-0.343-0.46-0.472c-0.397-0.229-0.844-0.328-1.336-0.295
					c-0.499,0.037-1.002,0.197-1.499,0.484c-0.228,0.133-0.433,0.279-0.627,0.438c-0.193,0.166-0.376,0.338-0.534,0.524l0.924,0.534
					c0.084-0.215,0.188-0.4,0.318-0.557c0.125-0.158,0.273-0.285,0.439-0.381c0.217-0.127,0.451-0.196,0.703-0.203
					c0.252-0.006,0.471,0.047,0.671,0.163c0.126,0.073,0.212,0.163,0.271,0.269c0.052,0.103,0.069,0.232,0.059,0.386l-0.174,1.657
					l0.799,0.462L235.324,178.879"/>
				<polygon clip-path="url(#SVGID_2_)" fill="#FFFFFF" points="297.375,256.914 296.553,256.439 294.667,257.533 293.715,256.983 
					295.428,255.987 294.606,255.512 292.893,256.508 292.117,256.06 293.939,255.001 293.123,254.531 290.228,256.212 
					294.417,258.631 				"/>
				<path clip-path="url(#SVGID_2_)" fill="#FFFFFF" d="M296.889,255.404l-0.582-1.699l1.759,1.016L296.889,255.404z
					 M300.451,254.239l-0.781-0.452l-0.593,0.346l-2.646-1.525l-1.191,0.693l0.833,2.412l0.923,0.533l1.852-1.074l0.763,0.441
					l1.011-0.588l-0.765-0.441L300.451,254.239"/>
				<polygon clip-path="url(#SVGID_2_)" fill="#FFFFFF" points="302.779,253.771 301.694,253.144 300.689,253.728 301.775,254.355 
									"/>
				<path clip-path="url(#SVGID_2_)" fill="#FFFFFF" d="M302.32,251.601c-0.521-0.301-0.84-0.544-0.955-0.723
					c-0.121-0.183-0.059-0.339,0.17-0.472c0.234-0.136,0.498-0.169,0.812-0.099c0.311,0.065,0.73,0.248,1.252,0.549
					c0.535,0.311,0.856,0.555,0.972,0.734c0.123,0.182,0.065,0.342-0.163,0.475c-0.229,0.132-0.502,0.166-0.818,0.096
					C303.28,252.097,302.856,251.91,302.32,251.601 M304.684,250.241c-0.694-0.401-1.383-0.627-2.054-0.67
					c-0.675-0.046-1.288,0.09-1.835,0.407c-0.549,0.32-0.781,0.674-0.701,1.066c0.078,0.387,0.471,0.785,1.166,1.188
					c0.695,0.4,1.379,0.623,2.047,0.666c0.678,0.047,1.29-0.088,1.838-0.407c0.547-0.318,0.78-0.675,0.697-1.065
					C305.766,251.037,305.379,250.642,304.684,250.241"/>
				<path clip-path="url(#SVGID_2_)" fill="#FFFFFF" d="M306.934,249.812c-0.248-0.142-0.386-0.274-0.408-0.4
					c-0.035-0.127,0.048-0.242,0.236-0.352s0.391-0.16,0.607-0.14c0.217,0.013,0.446,0.093,0.693,0.235
					c0.24,0.139,0.381,0.271,0.41,0.402c0.029,0.121-0.051,0.241-0.238,0.352c-0.189,0.108-0.394,0.155-0.607,0.139
					C307.402,250.033,307.174,249.953,306.934,249.812 M309.021,248.513c-0.401-0.233-0.861-0.346-1.376-0.339
					c-0.505,0.007-0.978,0.136-1.401,0.382c-0.17,0.1-0.304,0.201-0.398,0.312c-0.098,0.108-0.159,0.226-0.199,0.349
					c-0.321-0.219-0.482-0.432-0.479-0.641c-0.001-0.206,0.158-0.404,0.479-0.59c0.147-0.088,0.319-0.16,0.518-0.23
					c0.195-0.065,0.424-0.124,0.681-0.182l-0.769-0.444c-0.24,0.065-0.463,0.142-0.674,0.231c-0.205,0.086-0.411,0.186-0.6,0.296
					c-0.605,0.352-0.877,0.743-0.83,1.175c0.043,0.428,0.416,0.842,1.111,1.244c0.672,0.387,1.344,0.603,2.009,0.643
					s1.266-0.096,1.808-0.41c0.492-0.286,0.74-0.592,0.764-0.916C309.684,249.066,309.477,248.775,309.021,248.513"/>
				<path clip-path="url(#SVGID_2_)" fill="#BFBFBF" d="M356.896,220.724l-1.752-1.012l0.576,1.695L356.896,220.724
					 M362.436,216.866c-0.529-0.306-0.941-0.491-1.25-0.558c-0.311-0.066-0.586-0.033-0.814,0.1
					c-0.232,0.137-0.29,0.295-0.175,0.475c0.116,0.179,0.433,0.422,0.962,0.727c0.527,0.306,0.953,0.491,1.264,0.557
					c0.314,0.07,0.589,0.037,0.822-0.1c0.229-0.133,0.279-0.287,0.158-0.471C363.292,217.414,362.965,217.171,362.436,216.866
					 M366.15,215.346l-1.752-1.012l0.577,1.696L366.15,215.346 M352.545,222.987l0.959,0.554l1.884-1.094l0.816,0.471l-2.958,1.718
					l-4.189-2.419l2.902-1.685l0.816,0.472l-1.828,1.061l0.781,0.451l1.718-0.998l0.815,0.471L352.545,222.987 M354.908,221.712
					l-0.832-2.412l1.191-0.693l2.646,1.527l0.594-0.346l0.78,0.451l-0.593,0.345l0.766,0.441l-1.019,0.591l-0.764-0.441
					l-1.844,1.071L354.908,221.712 M359.52,219.732l1.006-0.584l1.084,0.627l-1.004,0.584L359.52,219.732 M360.09,218.236
					c-0.695-0.401-1.08-0.796-1.162-1.188c-0.078-0.395,0.161-0.746,0.709-1.064c0.542-0.316,1.146-0.455,1.823-0.409
					c0.677,0.047,1.36,0.269,2.056,0.671c0.693,0.401,1.082,0.796,1.164,1.188c0.076,0.389-0.156,0.743-0.699,1.059
					c-0.548,0.318-1.16,0.455-1.836,0.414C361.467,218.859,360.784,218.636,360.09,218.236 M364.162,216.335l-0.832-2.413
					l1.193-0.692l2.643,1.525l0.594-0.346l0.781,0.451l-0.593,0.346l0.765,0.441l-1.016,0.59l-0.766-0.44l-1.844,1.071
					L364.162,216.335 M389.635,221.629l-35.31-20.386l-26.222,15.238l35.31,20.386L389.635,221.629"/>
				<polygon clip-path="url(#SVGID_2_)" fill="#FFFFFF" points="356.204,222.917 355.389,222.447 353.504,223.541 352.545,222.987 
					354.263,221.988 353.448,221.517 351.729,222.515 350.947,222.064 352.773,221.003 351.957,220.532 349.059,222.216 
					353.248,224.635 				"/>
				<path clip-path="url(#SVGID_2_)" fill="#FFFFFF" d="M355.721,221.408l-0.577-1.695l1.753,1.012L355.721,221.408z
					 M359.287,220.24l-0.78-0.451l-0.594,0.346l-2.646-1.527l-1.191,0.693l0.832,2.412l0.926,0.534l1.844-1.071l0.764,0.441
					l1.017-0.591l-0.764-0.441L359.287,220.24"/>
				<polygon clip-path="url(#SVGID_2_)" fill="#FFFFFF" points="361.609,219.775 360.525,219.148 359.52,219.732 360.607,220.359 
									"/>
				<path clip-path="url(#SVGID_2_)" fill="#FFFFFF" d="M361.158,217.609c-0.529-0.305-0.847-0.548-0.962-0.727
					c-0.114-0.18-0.06-0.338,0.176-0.475c0.229-0.133,0.502-0.166,0.812-0.1c0.312,0.066,0.725,0.252,1.254,0.558
					c0.528,0.306,0.855,0.548,0.965,0.729c0.123,0.184,0.07,0.338-0.158,0.471c-0.233,0.137-0.507,0.17-0.824,0.1
					C362.11,218.1,361.688,217.914,361.158,217.609 M363.516,216.246c-0.695-0.402-1.379-0.624-2.054-0.671
					c-0.678-0.046-1.282,0.093-1.826,0.409c-0.548,0.318-0.786,0.67-0.71,1.064c0.082,0.392,0.47,0.786,1.164,1.188
					c0.695,0.4,1.379,0.623,2.055,0.67c0.676,0.041,1.287-0.096,1.838-0.414c0.54-0.315,0.773-0.67,0.697-1.059
					C364.596,217.042,364.209,216.647,363.516,216.246"/>
				<path clip-path="url(#SVGID_2_)" fill="#FFFFFF" d="M364.975,216.031l-0.576-1.696l1.754,1.012L364.975,216.031z
					 M368.543,214.862l-0.783-0.45l-0.592,0.344l-2.646-1.525l-1.192,0.692l0.832,2.413l0.926,0.533l1.846-1.071l0.764,0.44
					l1.015-0.59l-0.764-0.441L368.543,214.862"/>
				<polygon clip-path="url(#SVGID_2_)" fill="#FFFFFF" points="234.612,222.324 231.698,220.642 227.542,223.057 230.519,224.775 
					231.329,224.304 229.434,223.21 230.387,222.656 232.111,223.651 232.921,223.179 231.198,222.184 231.968,221.737 
					233.801,222.794 				"/>
				<path clip-path="url(#SVGID_2_)" fill="#FFFFFF" d="M233.124,224.5l2.925-0.328l-1.742,1.013L233.124,224.5z M237.945,224.248
					l-1.201-0.693l-4.162,0.475l-0.919,0.535l1.861,1.074l-0.754,0.438l1.017,0.588l0.754-0.438l0.598,0.344l0.782-0.454
					l-0.598-0.345L237.945,224.248"/>
				<polygon clip-path="url(#SVGID_2_)" fill="#FFFFFF" points="237.039,227.29 236.027,226.707 234.948,227.333 235.96,227.917 
									"/>
				<path clip-path="url(#SVGID_2_)" fill="#FFFFFF" d="M238.904,228.869c-0.229-0.133-0.288-0.291-0.169-0.475
					c0.12-0.182,0.439-0.427,0.965-0.732c0.52-0.302,0.937-0.485,1.245-0.551c0.314-0.07,0.584-0.033,0.814,0.1
					c0.236,0.136,0.293,0.289,0.174,0.471c-0.108,0.183-0.427,0.422-0.948,0.725c-0.524,0.305-0.946,0.49-1.262,0.561
					C239.409,229.035,239.134,229.001,238.904,228.869 M242.495,226.783c-0.551-0.318-1.166-0.455-1.841-0.408
					c-0.67,0.043-1.356,0.269-2.046,0.67c-0.691,0.4-1.073,0.797-1.146,1.186c-0.078,0.391,0.159,0.746,0.71,1.063
					c0.552,0.319,1.166,0.456,1.841,0.409c0.67-0.045,1.351-0.266,2.042-0.668c0.69-0.4,1.077-0.799,1.149-1.188
					C243.283,227.457,243.046,227.101,242.495,226.783"/>
				<path clip-path="url(#SVGID_2_)" fill="#FFFFFF" d="M247.42,229.718l-2.683-1.549l-2.341,1.359
					c0.286,0.067,0.539,0.141,0.75,0.217c0.219,0.079,0.403,0.166,0.558,0.256c0.259,0.147,0.402,0.305,0.432,0.467
					c0.023,0.16-0.073,0.302-0.296,0.432c-0.216,0.126-0.462,0.182-0.737,0.169c-0.287-0.013-0.556-0.097-0.814-0.246
					c-0.185-0.105-0.34-0.235-0.484-0.392c-0.138-0.158-0.254-0.338-0.352-0.547l-0.845,0.49c0.133,0.189,0.294,0.363,0.484,0.525
					c0.184,0.158,0.397,0.309,0.638,0.447c0.546,0.314,1.108,0.488,1.67,0.521c0.567,0.03,1.069-0.084,1.521-0.346
					c0.457-0.266,0.667-0.555,0.637-0.863c-0.036-0.311-0.302-0.616-0.813-0.912c-0.092-0.053-0.184-0.099-0.275-0.139
					c-0.104-0.039-0.196-0.08-0.299-0.113l0.64-0.371l1.821,1.052L247.42,229.718"/>
				<polygon clip-path="url(#SVGID_2_)" fill="#FFFFFF" points="292.551,196.901 291.735,196.43 289.851,197.524 288.892,196.971 
					290.604,195.976 289.789,195.504 288.076,196.5 287.294,196.049 289.116,194.99 288.3,194.52 285.405,196.201 289.594,198.62 
									"/>
				<path clip-path="url(#SVGID_2_)" fill="#FFFFFF" d="M292.062,195.394l-0.576-1.695l1.753,1.012L292.062,195.394z
					 M295.628,194.227l-0.781-0.451l-0.593,0.344l-2.644-1.525l-1.193,0.693l0.832,2.412l0.926,0.533l1.844-1.071l0.765,0.441
					l1.016-0.59l-0.765-0.442L295.628,194.227"/>
				<polygon clip-path="url(#SVGID_2_)" fill="#FFFFFF" points="297.958,193.759 296.872,193.132 295.867,193.716 296.954,194.343 
									"/>
				<path clip-path="url(#SVGID_2_)" fill="#FFFFFF" d="M297.503,191.593c-0.521-0.302-0.844-0.541-0.959-0.727
					c-0.116-0.179-0.054-0.335,0.175-0.468c0.229-0.132,0.497-0.169,0.806-0.103c0.315,0.069,0.736,0.252,1.258,0.555
					c0.529,0.305,0.852,0.549,0.971,0.732c0.123,0.183,0.066,0.342-0.162,0.474c-0.229,0.133-0.504,0.167-0.818,0.096
					C298.453,192.087,298.033,191.898,297.503,191.593 M299.868,190.232c-0.701-0.405-1.384-0.627-2.06-0.674
					c-0.67-0.042-1.283,0.094-1.83,0.412c-0.548,0.319-0.782,0.674-0.704,1.062c0.082,0.392,0.467,0.787,1.168,1.191
					c0.69,0.398,1.373,0.62,2.05,0.666c0.675,0.047,1.281-0.092,1.83-0.41c0.547-0.319,0.787-0.671,0.703-1.063
					C300.942,191.025,300.559,190.63,299.868,190.232"/>
				<path clip-path="url(#SVGID_2_)" fill="#FFFFFF" d="M304.271,188.713c-0.276-0.159-0.581-0.249-0.907-0.271
					c-0.326-0.017-0.663,0.033-1.025,0.155c0.189-0.183,0.272-0.358,0.245-0.521c-0.03-0.162-0.164-0.319-0.41-0.461
					c-0.356-0.206-0.763-0.282-1.21-0.229c-0.446,0.053-0.944,0.236-1.48,0.548c-0.207,0.12-0.395,0.249-0.57,0.386
					c-0.176,0.135-0.342,0.284-0.496,0.44l0.793,0.458c0.097-0.143,0.217-0.279,0.354-0.406c0.137-0.125,0.297-0.238,0.467-0.337
					c0.234-0.137,0.457-0.219,0.668-0.242c0.225-0.023,0.406,0.01,0.568,0.103c0.178,0.103,0.237,0.215,0.192,0.341
					c-0.048,0.127-0.206,0.266-0.474,0.422l-0.456,0.266l0.694,0.4l0.434-0.251c0.304-0.177,0.582-0.279,0.834-0.312
					c0.254-0.034,0.477,0.003,0.667,0.112c0.188,0.11,0.252,0.232,0.202,0.381c-0.057,0.146-0.224,0.303-0.508,0.468
					c-0.188,0.109-0.41,0.206-0.663,0.292c-0.246,0.082-0.521,0.155-0.828,0.215l0.833,0.481c0.281-0.083,0.543-0.175,0.793-0.282
					c0.252-0.106,0.48-0.219,0.698-0.344c0.604-0.352,0.958-0.677,1.06-0.989C304.84,189.227,304.684,188.952,304.271,188.713"/>
				<polygon clip-path="url(#SVGID_2_)" fill="#FFFFFF" points="147.721,229.789 146.899,229.314 145.016,230.41 144.062,229.859 
					145.774,228.863 144.953,228.388 143.24,229.384 142.464,228.936 144.286,227.878 143.469,227.408 140.575,229.089 
					144.764,231.507 				"/>
				<path clip-path="url(#SVGID_2_)" fill="#FFFFFF" d="M147.232,228.276l-0.576-1.695l1.751,1.012L147.232,228.276z
					 M150.799,227.115l-0.787-0.455l-0.594,0.346l-2.638-1.521l-1.193,0.692l0.833,2.411l0.925,0.535l1.85-1.075l0.764,0.44
					l1.011-0.588l-0.764-0.44L150.799,227.115"/>
				<polygon clip-path="url(#SVGID_2_)" fill="#FFFFFF" points="153.128,226.648 152.042,226.019 151.037,226.603 152.123,227.231 
									"/>
				<path clip-path="url(#SVGID_2_)" fill="#FFFFFF" d="M152.669,224.477c-0.523-0.302-0.84-0.544-0.955-0.724
					c-0.122-0.182-0.059-0.338,0.168-0.471c0.235-0.137,0.498-0.168,0.813-0.1c0.31,0.066,0.728,0.249,1.251,0.553
					c0.529,0.304,0.852,0.549,0.973,0.732c0.12,0.182,0.064,0.34-0.164,0.475c-0.229,0.131-0.503,0.164-0.818,0.096
					C153.622,224.968,153.197,224.783,152.669,224.477 M155.032,223.117c-0.695-0.402-1.384-0.627-2.055-0.67
					c-0.676-0.047-1.288,0.09-1.836,0.408s-0.78,0.673-0.698,1.064c0.076,0.389,0.468,0.786,1.164,1.188
					c0.695,0.402,1.378,0.625,2.048,0.668c0.677,0.047,1.288-0.09,1.836-0.408c0.548-0.318,0.781-0.674,0.699-1.065
					C156.113,223.914,155.727,223.519,155.032,223.117"/>
				<polygon clip-path="url(#SVGID_2_)" fill="#FFFFFF" points="160.691,222.251 159.944,221.82 158.997,222.371 155.555,220.383 
					154.534,220.976 153.77,221.654 154.505,222.079 155.269,221.395 157.98,222.96 157.034,223.511 157.78,223.943 				"/>
				<polygon clip-path="url(#SVGID_2_)" fill="#FFFFFF" points="249.619,212.371 246.706,210.689 242.544,213.108 245.52,214.826 
					246.332,214.355 244.435,213.259 245.388,212.707 247.111,213.701 247.922,213.23 246.199,212.235 246.976,211.783 
					248.809,212.842 				"/>
				<path clip-path="url(#SVGID_2_)" fill="#FFFFFF" d="M248.119,214.547l2.932-0.332l-1.748,1.015L248.119,214.547z
					 M252.952,214.294l-1.201-0.693l-4.162,0.475l-0.919,0.534l1.856,1.072l-0.759,0.44l1.023,0.592l0.76-0.441l0.597,0.344
					l0.776-0.45l-0.598-0.346L252.952,214.294"/>
				<polygon clip-path="url(#SVGID_2_)" fill="#FFFFFF" points="252.041,217.34 251.029,216.757 249.951,217.384 250.962,217.967 
									"/>
				<path clip-path="url(#SVGID_2_)" fill="#FFFFFF" d="M253.912,218.917c-0.23-0.133-0.29-0.292-0.169-0.475
					c0.108-0.183,0.433-0.425,0.964-0.733c0.52-0.303,0.931-0.487,1.246-0.55c0.309-0.067,0.584-0.034,0.813,0.099
					s0.288,0.293,0.175,0.472c-0.114,0.179-0.426,0.421-0.947,0.724c-0.531,0.309-0.953,0.494-1.263,0.56
					C254.417,219.083,254.141,219.049,253.912,218.917 M257.497,216.833c-0.552-0.318-1.16-0.457-1.836-0.411
					c-0.67,0.044-1.354,0.269-2.046,0.67c-0.691,0.402-1.072,0.797-1.145,1.186c-0.078,0.391,0.159,0.746,0.711,1.064
					c0.551,0.318,1.165,0.454,1.84,0.407c0.671-0.043,1.35-0.265,2.042-0.666c0.69-0.401,1.077-0.8,1.149-1.188
					C258.29,217.503,258.048,217.152,257.497,216.833"/>
				<polygon clip-path="url(#SVGID_2_)" fill="#FFFFFF" points="262.674,219.909 259.52,218.087 258.732,218.544 260.749,219.708 
					255.829,220.778 256.88,221.384 262.069,220.26 				"/>
			</g>
		</g>
	</g>
</g>
<g>
	<g>
		<g enable-background="new    ">
			<defs>
				<polygon id="SVGID_3_" enable-background="new    " points="184.801,242.458 191.626,238.493 198.497,242.458 191.671,246.425 
									"/>
			</defs>
			<clipPath id="SVGID_4_">
				<use xlink:href="#SVGID_3_"  overflow="visible"/>
			</clipPath>
			<g clip-path="url(#SVGID_4_)">
				<g>
					<g>
						<g>
							<polyline fill="#FFFFFF" points="193.364,239.496 191.626,238.493 184.801,242.458 188.23,244.439 191.671,246.425 
								193.39,245.426 191.679,244.438 193.379,243.451 191.667,242.462 193.374,241.47 191.664,240.483 193.364,239.496 							"/>
						</g>
					</g>
				</g>
			</g>
		</g>
	</g>
</g>
<g>
	<polygon fill="#EC7404" stroke="#FFFFFF" stroke-width="0.5" points="312.837,-23.968 316.249,-23.968 314.68,-12.192 	"/>
	<circle fill="#EC7404" cx="314.543" cy="-33" r="9.731"/>
	<polygon fill="none" stroke="#FFFFFF" stroke-width="0.5" points="318.413,-35.826 314.543,-40.501 310.674,-35.826 
		312.627,-35.826 312.627,-30.704 316.46,-30.704 316.46,-35.826 	"/>
	<text transform="matrix(1 0 0 1 312.877 -25.1196)" fill="#FFFFFF" font-family="'DejaVuSansCondensed-Bold'" font-size="5">€</text>
</g>
<g>
	<polygon fill="#EC7404" stroke="#FFFFFF" stroke-width="0.5" points="338.409,-23.968 341.822,-23.968 340.252,-12.192 	"/>
	<circle fill="#EC7404" cx="340.116" cy="-33" r="9.731"/>
	<polygon fill="none" stroke="#FFFFFF" stroke-width="0.5" points="343.985,-35.826 340.115,-40.501 336.246,-35.826 
		338.199,-35.826 338.199,-30.704 342.032,-30.704 342.032,-35.826 	"/>
	<rect x="338.429" y="-29.443" fill="none" width="8" height="3.833"/>
	<text transform="matrix(1 0 0 1 338.4316 -25.6436)" fill="#FFFFFF" font-family="'DejaVuSansCondensed-Bold'" font-size="5">P</text>
</g>
<g>
	<polygon fill="#EC7404" stroke="#FFFFFF" stroke-width="0.5" points="363.981,-23.968 367.394,-23.968 365.824,-12.192 	"/>
	<circle fill="#EC7404" cx="365.688" cy="-33" r="9.731"/>
	<polygon fill="none" stroke="#FFFFFF" stroke-width="0.5" points="369.558,-35.826 365.688,-40.501 361.818,-35.826 
		363.771,-35.826 363.771,-30.704 367.604,-30.704 367.604,-35.826 	"/>
	<rect x="360.819" y="-29.442" fill="none" width="8" height="3.833"/>
	<text transform="matrix(1 0 0 1 360.8223 -25.6436)" fill="#FFFFFF" font-family="'DejaVuSansCondensed-Bold'" font-size="5"> EC</text>
</g>
<g>
	<polygon fill="#EC7404" stroke="#FFFFFF" stroke-width="0.5" points="415.003,-23.991 418.417,-23.991 416.847,-12.215 	"/>
	<g>
		<circle fill="#EC7404" cx="416.71" cy="-33" r="9.731"/>
		<g>
			<g>
				<path fill="none" stroke="#FFFFFF" stroke-width="0.5" d="M421.197-29.081c0,0.312-0.255,0.567-0.567,0.567h-7.839
					c-0.312,0-0.567-0.255-0.567-0.567v-7.84c0-0.312,0.255-0.567,0.567-0.567h7.839c0.312,0,0.567,0.255,0.567,0.567V-29.081z"/>
			</g>
			<polygon fill="#FFFFFF" points="413.152,-32.975 415.846,-29.744 420.287,-36.475 415.608,-31.057 			"/>
		</g>
	</g>
</g>
<g>
	<polygon fill="#EC7404" stroke="#FFFFFF" stroke-width="0.5" points="440.863,-23.991 444.277,-23.991 442.707,-12.215 	"/>
	<circle fill="#EC7404" cx="442.571" cy="-33" r="9.731"/>
	<g>
		<g>
			<path fill="#EC7404" d="M446.946-31.146c0,0.312-0.255,0.567-0.567,0.567h-9.54c-0.312,0-0.567-0.255-0.567-0.567V-36.6
				c0-0.312,0.255-0.567,0.567-0.567h9.54c0.312,0,0.567,0.255,0.567,0.567V-31.146z"/>
			<path fill="none" stroke="#FFFFFF" stroke-width="0.5" d="M446.946-31.146c0,0.312-0.255,0.567-0.567,0.567h-9.54
				c-0.312,0-0.567-0.255-0.567-0.567V-36.6c0-0.312,0.255-0.567,0.567-0.567h9.54c0.312,0,0.567,0.255,0.567,0.567V-31.146z"/>
		</g>
		<g>
			<path fill="#EC7404" d="M448.87-29.223c0,0.312-0.255,0.567-0.567,0.567h-9.54c-0.312,0-0.567-0.255-0.567-0.567v-5.454
				c0-0.312,0.255-0.567,0.567-0.567h9.54c0.312,0,0.567,0.255,0.567,0.567V-29.223z"/>
			<path fill="none" stroke="#FFFFFF" stroke-width="0.5" d="M448.87-29.223c0,0.312-0.255,0.567-0.567,0.567h-9.54
				c-0.312,0-0.567-0.255-0.567-0.567v-5.454c0-0.312,0.255-0.567,0.567-0.567h9.54c0.312,0,0.567,0.255,0.567,0.567V-29.223z"/>
		</g>
	</g>
</g>
<g>
	<polygon fill="#EC7404" stroke="#FFFFFF" stroke-width="0.5" points="287.264,-23.968 290.677,-23.968 289.107,-12.192 	"/>
	<circle fill="#EC7404" cx="288.97" cy="-33" r="9.731"/>
	<g>
		<path fill="#FFFFFF" d="M285.842-31.311h6.294v-0.557h-6.294V-31.311z M285.842-29.615h6.294v-0.557h-6.294V-29.615z
			 M285.842-34.658h6.294v-0.558h-6.294V-34.658z M285.842-32.993h6.294v-0.557h-6.294V-32.993z M292.842-27.685h-7.744v-11.183
			h5.521v2.222h2.223V-27.685z M284.54-27.125 M291.178-38.797l1.594,1.592h-1.594V-38.797z M291.336-39.427h-6.796v12.301h8.86
			v-10.239L291.336-39.427z"/>
	</g>
</g>
<g>
	<polygon fill="#EC7404" stroke="#FFFFFF" stroke-width="0.5" points="261.69,-23.968 265.104,-23.968 263.533,-12.192 	"/>
	<circle fill="#EC7404" cx="263.397" cy="-33.001" r="9.731"/>
	<g>
		<g>
			<path fill="#FFFFFF" d="M268.454-33.723c-0.002-0.272-0.025-0.522-0.083-0.758c-0.046-0.183-0.114-0.358-0.217-0.517
				c-0.152-0.24-0.387-0.429-0.656-0.535c-0.269-0.108-0.564-0.149-0.898-0.149c-0.295,0-0.563,0.033-0.811,0.114
				c-0.185,0.062-0.357,0.153-0.505,0.277c-0.223,0.186-0.377,0.438-0.463,0.709c-0.086,0.264-0.118,0.55-0.119,0.862l-0.569,4.806
				h1.198v2.099h0.97v-2.099h0.6v2.099h0.97v-2.099h1.204L268.454-33.723z"/>
			<path fill="#FFFFFF" d="M260.08-36.128c0.872,0,1.576-0.707,1.576-1.577c0-0.871-0.704-1.577-1.576-1.577
				c-0.87,0-1.575,0.706-1.576,1.577C258.505-36.834,259.21-36.128,260.08-36.128 M260.08-35.59c-1.305,0.001-2.36,1.057-2.36,2.361
				v2.469h1.092v3.943h0.969v-3.943h0.6v3.943h0.97v-3.943h1.091v-2.469C262.44-34.534,261.385-35.589,260.08-35.59"/>
		</g>
		<circle fill="#FFFFFF" cx="266.494" cy="-37.707" r="1.584"/>
	</g>
</g>
<g>
	<polygon fill="#EC7404" stroke="#FFFFFF" stroke-width="0.5" points="389.554,-23.968 392.967,-23.968 391.397,-12.192 	"/>
	<circle fill="#EC7404" cx="391.26" cy="-33" r="9.731"/>
	<text transform="matrix(1 0 0 1 389.502 -25.1196)" fill="#FFFFFF" font-family="'DejaVuSansCondensed-Bold'" font-size="5">€</text>
	<polygon fill="none" stroke="#FFFFFF" stroke-width="0.5" points="387.342,-35.379 391.212,-30.704 395.081,-35.379 
		393.128,-35.379 393.128,-40.501 389.295,-40.501 389.295,-35.379 	"/>
</g>
<g>
	<polygon fill="#EC7404" stroke="#FFFFFF" stroke-width="0.5" points="221.887,271.025 225.3,271.025 223.729,282.8 	"/>
	<circle fill="#EC7404" cx="223.594" cy="261.992" r="9.731"/>
	<g>
		<g>
			<path fill="#FFFFFF" d="M228.65,261.269c-0.002-0.271-0.025-0.521-0.083-0.758c-0.046-0.183-0.114-0.357-0.217-0.516
				c-0.152-0.24-0.387-0.43-0.656-0.535c-0.269-0.109-0.564-0.149-0.898-0.15c-0.295,0-0.563,0.033-0.811,0.114
				c-0.185,0.062-0.357,0.153-0.505,0.276c-0.223,0.186-0.377,0.438-0.463,0.709c-0.086,0.265-0.118,0.551-0.119,0.862l-0.569,4.806
				h1.198v2.1h0.97v-2.1h0.6v2.1h0.97v-2.1h1.204L228.65,261.269z"/>
			<path fill="#FFFFFF" d="M220.276,258.865c0.872,0,1.576-0.707,1.576-1.576c0-0.871-0.704-1.577-1.576-1.577
				c-0.87,0-1.575,0.706-1.576,1.577C218.701,258.158,219.406,258.865,220.276,258.865 M220.276,259.402
				c-1.305,0.002-2.36,1.057-2.36,2.361v2.469h1.092v3.943h0.969v-3.943h0.6v3.943h0.97v-3.943h1.091v-2.469
				C222.637,260.458,221.581,259.404,220.276,259.402"/>
		</g>
		<circle fill="#FFFFFF" cx="226.69" cy="257.286" r="1.584"/>
	</g>
</g>
<g>
	<polygon fill="#EC7404" points="193.811,263.026 197.225,263.026 195.654,274.802 	"/>
	<circle fill="#EC7404" cx="195.518" cy="254.016" r="9.731"/>
	<g>
		<g>
			<path fill="none" stroke="#FFFFFF" stroke-width="0.5" d="M200.005,259.811c0,0.312-0.255,0.567-0.566,0.567h-7.84
				c-0.312,0-0.567-0.256-0.567-0.567v-11.507c0-0.312,0.255-0.566,0.567-0.566h7.84c0.312,0,0.566,0.254,0.566,0.566V259.811z"/>
		</g>
	</g>
	<path fill="#FFFFFF" d="M195.518,252.388c0.743,0,1.342-0.602,1.342-1.342c0-0.742-0.599-1.342-1.342-1.342
		c-0.74,0-1.34,0.6-1.341,1.342C194.178,251.787,194.777,252.388,195.518,252.388 M195.518,252.846
		c-1.11,0.001-2.009,0.899-2.009,2.01v2.102h0.93v3.356h0.824v-3.356h0.511v3.356h0.825v-3.356h0.929v-2.102
		C197.527,253.746,196.629,252.847,195.518,252.846"/>
</g>
</svg>
