<?xml version="1.0" encoding="utf-8"?>
<!-- Generator: Adobe Illustrator 16.0.0, SVG Export Plug-In . SVG Version: 6.00 Build 0)  -->
<!DOCTYPE svg PUBLIC "-//W3C//DTD SVG 1.1//EN" "http://www.w3.org/Graphics/SVG/1.1/DTD/svg11.dtd">
<svg version="1.1" id="Ebene_1" xmlns="http://www.w3.org/2000/svg" xmlns:xlink="http://www.w3.org/1999/xlink" x="0px" y="0px"
	 width="595.275px" height="419.527px" viewBox="0 0 595.275 419.527" enable-background="new 0 0 595.275 419.527"
	 xml:space="preserve">
<polygon fill="#FFFFFF" points="319.666,-239.695 314.809,-239.695 314.809,-242.141 317.223,-242.141 317.223,-244.553 
	319.637,-244.553 319.637,-246.967 322.052,-246.967 322.052,-249.381 324.494,-249.381 324.494,-239.695 "/>
<g>
	<path fill="#FFFFFF" d="M348.96-247.213c-0.003-0.365-0.036-0.702-0.118-1.02c-0.066-0.246-0.161-0.48-0.309-0.694
		c-0.217-0.322-0.555-0.576-0.938-0.719c-0.386-0.146-0.809-0.2-1.287-0.201c-0.423,0-0.805,0.044-1.158,0.153
		c-0.268,0.083-0.514,0.205-0.724,0.372c-0.319,0.25-0.541,0.588-0.665,0.953c-0.121,0.355-0.166,0.738-0.17,1.158l-0.812,6.458
		h1.715v2.822h1.385v-2.822h0.86v2.822h1.386v-2.822h1.723L348.96-247.213z M344.427-251.066v0.609V-251.066z M348.191-251.066
		v0.609V-251.066z M344.427-249.764c0.408,0,0.738-0.311,0.738-0.693c0-0.122-0.036-0.239-0.097-0.339
		c0.358,0.221,0.781,0.349,1.24,0.349c0.457,0,0.883-0.128,1.239-0.348c-0.059,0.1-0.095,0.216-0.095,0.338
		c0,0.383,0.33,0.693,0.738,0.693c0.406,0,0.739-0.311,0.739-0.693c0-0.384-0.333-0.692-0.739-0.692
		c-0.085,0-0.166,0.014-0.243,0.04c0.383-0.38,0.618-0.893,0.618-1.456c-0.003-1.172-1.011-2.119-2.258-2.119
		c-1.245,0-2.253,0.947-2.253,2.119c0,0.563,0.234,1.076,0.617,1.457c-0.077-0.026-0.161-0.041-0.246-0.041
		c-0.404,0-0.735,0.309-0.735,0.692C343.691-250.074,344.022-249.764,344.427-249.764"/>
	<g>
		<path fill="#FFFFFF" d="M338.412-250.445c1.246,0,2.254-0.95,2.254-2.12c0-1.171-1.008-2.119-2.254-2.119
			s-2.254,0.948-2.254,2.119C336.158-251.396,337.166-250.445,338.412-250.445 M338.412-249.723
			c-1.867,0.001-3.375,1.42-3.375,3.173v3.32h1.559v5.301h1.387v-5.301h0.859v5.301h1.386v-5.301h1.562v-3.32
			C341.79-248.303,340.279-249.722,338.412-249.723"/>
	</g>
</g>
<g enable-background="new    ">
	<g>
		<g>
			<defs>
				<polygon id="SVGID_1_" points="80.238,216.951 241.565,123.198 382.748,204.71 221.421,298.462 				"/>
			</defs>
			<clipPath id="SVGID_2_">
				<use xlink:href="#SVGID_1_"  overflow="visible"/>
			</clipPath>
			<path clip-path="url(#SVGID_2_)" fill="#BFBFBF" d="M197.955,276.884l-2.232-0.633l1.096,1.293L197.955,276.884 M202.631,272.462
				c-0.143-0.083-0.298-0.12-0.458-0.113c-0.166,0.01-0.332,0.061-0.502,0.16l-0.595,0.345l0.885,0.51l0.594-0.345
				c0.171-0.1,0.263-0.191,0.279-0.288C202.846,272.638,202.782,272.548,202.631,272.462 M204.522,273.361
				c-0.178-0.103-0.368-0.152-0.568-0.143c-0.202,0.01-0.407,0.077-0.624,0.203l-0.633,0.369l1.097,0.633l0.633-0.369
				c0.211-0.121,0.332-0.244,0.349-0.361C204.799,273.582,204.706,273.467,204.522,273.361 M196.744,279.373l-2.643-3.317
				l1.278-0.743l5.731,1.523l-1.079,0.627l-1.026-0.289l-1.678,0.975l0.496,0.598L196.744,279.373 M199.099,275.614l1.747-1.015
				l0.816,0.472l-1.748,1.015L199.099,275.614 M208.422,274.47l-2.33-1.346c0.099,0.135,0.128,0.273,0.085,0.42
				c-0.066,0.27-0.385,0.568-0.939,0.893l-1.781,1.034l-4.188-2.419l1.615-0.938c0.577-0.335,1.085-0.523,1.519-0.577
				c0.436-0.047,0.849,0.039,1.234,0.263c0.207,0.12,0.328,0.249,0.38,0.385c0.047,0.14,0.014,0.278-0.101,0.424
				c0.304-0.096,0.601-0.128,0.91-0.096c0.101,0.011,0.197,0.026,0.292,0.05l-3.977-2.295l-7.729,4.492l-2.913-1.684l0.049,7.562
				l13.053,0.001l-2.907-1.678L208.422,274.47"/>
			<path clip-path="url(#SVGID_2_)" fill="#BED5E5" d="M173.619,192.492c-0.522-0.302-0.942-0.484-1.257-0.554
				c-0.309-0.067-0.578-0.03-0.807,0.103c-0.229,0.133-0.29,0.289-0.174,0.468c0.121,0.182,0.438,0.424,0.96,0.726
				c0.529,0.306,0.954,0.491,1.269,0.561c0.316,0.069,0.59,0.037,0.819-0.096c0.228-0.133,0.284-0.292,0.163-0.475
				C174.47,193.043,174.148,192.797,173.619,192.492 M163.728,198.613l0.959,0.554l1.884-1.094l0.816,0.471l-2.958,1.718
				l-4.188-2.418l2.894-1.682l0.816,0.471l-1.821,1.057l0.781,0.452l1.713-0.995l0.815,0.471L163.728,198.613 M168.369,197.054
				l1.833-1.064l0.794,0.458l-3.026,1.758l-0.793-0.458l0.174-1.666c0.011-0.146-0.007-0.275-0.065-0.381
				c-0.047-0.105-0.145-0.195-0.272-0.268c-0.195-0.113-0.413-0.166-0.664-0.16c-0.253,0.007-0.487,0.077-0.704,0.203
				c-0.166,0.096-0.314,0.222-0.445,0.377c-0.125,0.16-0.233,0.343-0.317,0.558l-0.92-0.531c0.166-0.189,0.336-0.361,0.537-0.525
				c0.193-0.158,0.404-0.308,0.627-0.438c0.502-0.292,1-0.455,1.498-0.484c0.493-0.032,0.94,0.067,1.33,0.292
				c0.231,0.133,0.386,0.289,0.467,0.467c0.081,0.187,0.1,0.482,0.051,0.89L168.369,197.054 M170.703,195.359l1.004-0.584
				l1.086,0.628l-1.005,0.583L170.703,195.359 M171.279,193.865c-0.703-0.404-1.087-0.799-1.17-1.191
				c-0.077-0.387,0.157-0.743,0.705-1.061c0.548-0.319,1.16-0.456,1.83-0.412c0.676,0.046,1.359,0.269,2.06,0.674
				c0.689,0.398,1.075,0.793,1.158,1.184c0.083,0.392-0.156,0.744-0.704,1.062c-0.549,0.319-1.155,0.458-1.831,0.412
				C172.651,194.485,171.968,194.264,171.279,193.865 M173.437,190.408l0.763-0.676l1.022-0.595l3.441,1.988l0.948-0.551
				l0.747,0.432l-2.913,1.692l-0.747-0.431l0.948-0.551l-2.706-1.563l-0.769,0.68L173.437,190.408 M239.011,181.49l-49.037-28.312
				l-95.509,55.504l16.003,9.239l33.04,19.07L239.011,181.49"/>
			<polygon clip-path="url(#SVGID_2_)" fill="#FFFFFF" points="167.387,198.543 166.571,198.072 164.688,199.167 163.728,198.613 
				165.439,197.618 164.625,197.147 162.912,198.142 162.13,197.691 163.951,196.633 163.135,196.163 160.241,197.844 
				164.43,200.262 			"/>
			<path clip-path="url(#SVGID_2_)" fill="#FFFFFF" d="M170.995,196.447l-0.792-0.458l-1.833,1.064l0.103-0.972
				c0.049-0.408,0.03-0.703-0.051-0.89c-0.082-0.178-0.237-0.334-0.466-0.467c-0.392-0.225-0.839-0.324-1.33-0.292
				c-0.499,0.03-0.996,0.192-1.499,0.484c-0.224,0.13-0.434,0.279-0.628,0.438c-0.199,0.164-0.37,0.336-0.536,0.525l0.92,0.531
				c0.086-0.215,0.192-0.398,0.318-0.557c0.131-0.156,0.28-0.282,0.445-0.378c0.216-0.126,0.452-0.196,0.703-0.203
				c0.252-0.006,0.469,0.047,0.666,0.16c0.125,0.073,0.224,0.163,0.271,0.268c0.058,0.106,0.076,0.235,0.066,0.381l-0.175,1.666
				l0.793,0.458L170.995,196.447"/>
			<polygon clip-path="url(#SVGID_2_)" fill="#FFFFFF" points="172.793,195.402 171.707,194.774 170.703,195.359 171.788,195.986 
							"/>
			<path clip-path="url(#SVGID_2_)" fill="#FFFFFF" d="M172.341,193.235c-0.523-0.302-0.84-0.544-0.961-0.726
				c-0.116-0.179-0.053-0.335,0.174-0.468c0.229-0.132,0.498-0.169,0.807-0.103c0.316,0.069,0.734,0.251,1.257,0.554
				c0.529,0.305,0.852,0.551,0.972,0.733c0.121,0.183,0.064,0.342-0.163,0.475c-0.229,0.133-0.503,0.166-0.819,0.096
				C173.294,193.726,172.869,193.541,172.341,193.235 M174.704,191.875c-0.701-0.405-1.384-0.627-2.06-0.674
				c-0.67-0.043-1.282,0.093-1.831,0.412c-0.548,0.319-0.781,0.673-0.704,1.061c0.082,0.392,0.468,0.787,1.169,1.192
				c0.689,0.398,1.372,0.62,2.048,0.667c0.676,0.046,1.283-0.092,1.831-0.412c0.548-0.318,0.787-0.669,0.704-1.062
				C175.779,192.668,175.394,192.273,174.704,191.875"/>
			<polygon clip-path="url(#SVGID_2_)" fill="#FFFFFF" points="180.358,191.006 179.611,190.575 178.664,191.125 175.221,189.137 
				174.2,189.732 173.437,190.408 174.171,190.833 174.94,190.153 177.646,191.716 176.699,192.267 177.446,192.698 			"/>
			<polygon clip-path="url(#SVGID_2_)" fill="#EC7404" points="261.806,274.994 247.882,266.955 243.889,264.65 226.496,254.607 
				217.189,260.015 234.584,270.057 217.731,279.851 224.477,283.746 235.653,290.191 			"/>
			<path clip-path="url(#SVGID_2_)" fill="#BED5E5" d="M287.529,239.814c-0.522-0.303-0.941-0.491-1.25-0.559
				c-0.311-0.065-0.586-0.031-0.814,0.102c-0.232,0.135-0.284,0.29-0.175,0.473c0.116,0.18,0.443,0.422,0.966,0.724
				c0.53,0.306,0.949,0.495,1.266,0.564c0.314,0.062,0.583,0.032,0.817-0.103c0.229-0.133,0.278-0.289,0.168-0.472
				C288.388,240.361,288.059,240.119,287.529,239.814 M291.988,238.109c-0.247-0.143-0.477-0.223-0.688-0.238
				c-0.218-0.015-0.424,0.031-0.612,0.142c-0.188,0.109-0.263,0.226-0.238,0.352c0.029,0.123,0.162,0.259,0.41,0.401
				c0.246,0.143,0.481,0.219,0.694,0.235c0.216,0.014,0.417-0.03,0.604-0.14c0.191-0.109,0.27-0.229,0.244-0.354
				C292.374,238.384,292.236,238.251,291.988,238.109 M277.64,245.935l0.959,0.554l1.89-1.099l0.816,0.472l-2.963,1.722
				l-4.189-2.418l2.9-1.687l0.816,0.472l-1.827,1.062l0.781,0.452l1.718-1l0.817,0.473L277.64,245.935 M282.288,244.373l1.832-1.065
				l0.793,0.458l-3.023,1.758l-0.794-0.457l0.168-1.662c0.009-0.153-0.013-0.279-0.06-0.385c-0.058-0.107-0.144-0.196-0.271-0.27
				c-0.195-0.112-0.425-0.166-0.666-0.158c-0.25,0.006-0.491,0.072-0.709,0.197c-0.164,0.098-0.313,0.223-0.438,0.383
				c-0.124,0.158-0.232,0.342-0.317,0.558l-0.918-0.531c0.159-0.187,0.335-0.362,0.535-0.524c0.193-0.159,0.399-0.305,0.627-0.438
				c0.498-0.289,0.995-0.451,1.487-0.484c0.503-0.033,0.945,0.062,1.341,0.291c0.23,0.133,0.385,0.289,0.461,0.472
				c0.088,0.183,0.1,0.481,0.056,0.886L282.288,244.373 M284.619,242.677l1-0.582l1.086,0.628l-0.999,0.58L284.619,242.677
				 M285.185,241.183c-0.696-0.4-1.081-0.795-1.158-1.189c-0.076-0.389,0.157-0.744,0.704-1.062c0.542-0.314,1.155-0.451,1.83-0.41
				c0.669,0.049,1.358,0.268,2.055,0.669c0.695,0.401,1.075,0.8,1.164,1.188c0.071,0.392-0.161,0.746-0.705,1.062
				c-0.548,0.318-1.16,0.455-1.83,0.412C286.562,241.808,285.88,241.585,285.185,241.183 M289.584,238.167
				c0.027-0.121,0.088-0.238,0.186-0.348c0.097-0.109,0.234-0.217,0.399-0.312c0.429-0.248,0.896-0.374,1.406-0.385
				c0.517-0.007,0.971,0.11,1.377,0.346c0.449,0.258,0.667,0.551,0.648,0.875c-0.022,0.326-0.285,0.631-0.776,0.916
				c-0.541,0.316-1.142,0.451-1.808,0.412c-0.664-0.04-1.329-0.253-2.008-0.645c-0.689-0.397-1.059-0.816-1.112-1.244
				c-0.048-0.432,0.229-0.818,0.836-1.17c0.193-0.113,0.387-0.213,0.604-0.299c0.208-0.086,0.435-0.166,0.664-0.232l0.776,0.448
				c-0.257,0.05-0.486,0.108-0.687,0.179c-0.194,0.066-0.365,0.146-0.513,0.231c-0.322,0.187-0.48,0.379-0.478,0.591
				C289.101,237.736,289.262,237.949,289.584,238.167 M340.307,229.373l-35.309-20.386l-74.637,43.375l35.31,20.387L340.307,229.373
				"/>
			<path clip-path="url(#SVGID_2_)" fill="#BFBFBF" d="M350.244,203.37c-0.524-0.302-0.951-0.488-1.259-0.554
				c-0.311-0.067-0.585-0.034-0.813,0.099s-0.285,0.292-0.168,0.471c0.108,0.183,0.438,0.424,0.961,0.727
				c0.527,0.305,0.947,0.494,1.268,0.561c0.311,0.066,0.584,0.032,0.812-0.1c0.229-0.133,0.286-0.292,0.171-0.471
				C351.093,203.92,350.771,203.675,350.244,203.37 M353.957,201.851l-1.752-1.012l0.575,1.695L353.957,201.851 M340.353,209.49
				l0.957,0.555l1.886-1.095l0.814,0.471l-2.956,1.719l-4.188-2.419l2.893-1.682l0.816,0.471l-1.82,1.059l0.781,0.451l1.713-0.995
				l0.816,0.471L340.353,209.49 M344.994,207.932l1.832-1.066l0.793,0.459l-3.025,1.758l-0.794-0.458l0.167-1.662
				c0.012-0.153-0.008-0.281-0.057-0.384c-0.06-0.106-0.146-0.196-0.272-0.269c-0.196-0.114-0.42-0.17-0.664-0.16
				c-0.253,0.007-0.492,0.073-0.71,0.2c-0.166,0.096-0.314,0.222-0.439,0.381s-0.233,0.342-0.316,0.557l-0.92-0.531
				c0.166-0.189,0.334-0.361,0.535-0.524c0.193-0.159,0.404-0.309,0.628-0.438c0.503-0.292,0.994-0.452,1.492-0.488
				c0.497-0.031,0.938,0.066,1.336,0.295c0.23,0.133,0.386,0.289,0.462,0.471c0.085,0.182,0.104,0.478,0.055,0.885L344.994,207.932
				 M347.326,206.236l1.006-0.584l1.084,0.627l-1.004,0.584L347.326,206.236 M347.896,204.74c-0.695-0.401-1.082-0.796-1.165-1.188
				c-0.075-0.389,0.157-0.744,0.706-1.062c0.547-0.318,1.16-0.455,1.83-0.412c0.676,0.047,1.359,0.269,2.054,0.67
				c0.694,0.401,1.08,0.796,1.165,1.188c0.076,0.389-0.156,0.743-0.705,1.062c-0.549,0.318-1.16,0.454-1.829,0.411
				C349.274,205.364,348.592,205.141,347.896,204.74 M351.97,202.838l-0.84-2.408l1.193-0.693l2.646,1.527l0.599-0.349l0.782,0.451
				l-0.602,0.349l0.766,0.441l-1.011,0.587l-0.764-0.441l-1.846,1.071L351.97,202.838 M382.746,204.71l-35.309-20.386L308.6,206.893
				l35.312,20.386L382.746,204.71"/>
			<path clip-path="url(#SVGID_2_)" fill="#BFBFBF" d="M254.835,198.669c-0.229-0.133-0.499-0.169-0.813-0.099
				c-0.31,0.066-0.727,0.249-1.246,0.55c-0.526,0.305-0.845,0.551-0.964,0.734c-0.119,0.182-0.061,0.342,0.168,0.475
				c0.235,0.135,0.505,0.165,0.82,0.096c0.32-0.066,0.738-0.256,1.263-0.561c0.52-0.302,0.839-0.541,0.952-0.72
				C255.135,198.961,255.071,198.805,254.835,198.669 M248.021,198.795l1.079-0.627l1.011,0.583l-1.078,0.628L248.021,198.795
				 M240.614,194.519l4.162-2.419l2.919,1.686l-0.811,0.471l-1.838-1.062l-0.771,0.447l1.73,1l-0.816,0.474l-1.73-0.999
				l-0.947,0.551l1.896,1.094l-0.816,0.475L240.614,194.519 M256.802,199.956l0.788-0.457l3.154,1.821l-0.604,0.352l-5.188,1.125
				l-1.052-0.607l4.92-1.069L256.802,199.956 M247.271,194.797l0.919-0.534c0.321,0.093,0.62,0.199,0.901,0.309
				c0.275,0.113,0.534,0.235,0.764,0.368c0.5,0.289,0.776,0.581,0.835,0.867c0.059,0.285-0.106,0.546-0.5,0.776
				c-0.223,0.129-0.498,0.215-0.812,0.266c-0.315,0.043-0.826,0.053-1.536,0.026l-1.667-0.063l1.845,1.065l-0.793,0.461
				l-3.046-1.759l0.794-0.461l2.865,0.106c0.264,0.007,0.481-0.007,0.664-0.034c0.184-0.032,0.339-0.083,0.463-0.155
				c0.2-0.116,0.285-0.245,0.273-0.392c-0.013-0.145-0.128-0.278-0.347-0.404c-0.172-0.1-0.391-0.186-0.66-0.256
				C247.965,194.907,247.637,194.844,247.271,194.797 M251.251,200.753c-0.552-0.319-0.79-0.674-0.711-1.065
				c0.072-0.388,0.454-0.783,1.145-1.185c0.69-0.402,1.377-0.626,2.046-0.67c0.676-0.046,1.289,0.09,1.842,0.408
				c0.551,0.318,0.789,0.673,0.71,1.065c-0.072,0.388-0.46,0.786-1.151,1.188c-0.69,0.402-1.371,0.624-2.041,0.667
				C252.416,201.208,251.801,201.071,251.251,200.753 M274.724,202.109l-31.46-18.164l-18.183,10.567l31.46,18.164L274.724,202.109"
				/>
			<path clip-path="url(#SVGID_2_)" fill="#BFBFBF" d="M235.792,209.737c-0.23-0.133-0.5-0.17-0.815-0.101
				c-0.309,0.067-0.726,0.249-1.245,0.551c-0.532,0.309-0.852,0.554-0.965,0.733c-0.119,0.183-0.061,0.342,0.169,0.475
				c0.236,0.135,0.505,0.166,0.819,0.096c0.316-0.062,0.731-0.252,1.263-0.561c0.52-0.302,0.839-0.541,0.953-0.72
				C236.09,210.029,236.026,209.873,235.792,209.737 M228.976,209.862l1.079-0.625l1.012,0.583l-1.08,0.627L228.976,209.862
				 M221.569,205.586l4.162-2.418l2.919,1.685l-0.811,0.471L226,204.262l-0.771,0.448l1.729,0.999l-0.816,0.475l-1.729-0.999
				l-0.948,0.55l1.896,1.095l-0.815,0.475L221.569,205.586 M236.428,212.056l2.341-1.361l2.683,1.55l-0.787,0.458l-1.822-1.053
				l-0.644,0.376c0.102,0.032,0.206,0.073,0.298,0.112c0.103,0.041,0.195,0.086,0.282,0.137c0.511,0.295,0.775,0.6,0.812,0.912
				c0.032,0.309-0.179,0.598-0.636,0.863c-0.451,0.262-0.954,0.374-1.521,0.344c-0.562-0.032-1.124-0.205-1.669-0.521
				c-0.241-0.139-0.449-0.284-0.639-0.447c-0.189-0.162-0.351-0.334-0.484-0.523l0.839-0.488c0.104,0.207,0.225,0.389,0.358,0.545
				c0.144,0.155,0.299,0.285,0.483,0.391c0.265,0.153,0.534,0.236,0.814,0.246c0.275,0.014,0.521-0.043,0.738-0.17
				c0.222-0.129,0.319-0.271,0.295-0.432c-0.024-0.158-0.167-0.314-0.432-0.467c-0.155-0.09-0.339-0.176-0.551-0.252
				C236.967,212.195,236.715,212.122,236.428,212.056 M228.226,205.865l0.92-0.534c0.32,0.092,0.619,0.199,0.901,0.309
				c0.275,0.112,0.534,0.235,0.764,0.368c0.499,0.289,0.775,0.58,0.834,0.866c0.06,0.286-0.105,0.548-0.498,0.776
				c-0.224,0.13-0.498,0.216-0.812,0.265c-0.314,0.043-0.825,0.054-1.535,0.026l-1.667-0.062l1.844,1.064l-0.792,0.461l-3.046-1.759
				l0.794-0.46l2.864,0.105c0.264,0.007,0.48-0.006,0.664-0.032c0.183-0.034,0.338-0.083,0.462-0.156
				c0.201-0.117,0.286-0.246,0.273-0.392c-0.012-0.146-0.127-0.278-0.345-0.404c-0.172-0.1-0.391-0.186-0.66-0.256
				C228.919,205.975,228.593,205.911,228.226,205.865 M232.206,211.82c-0.551-0.318-0.789-0.674-0.711-1.064
				c0.072-0.389,0.454-0.784,1.145-1.185c0.69-0.401,1.377-0.627,2.047-0.67c0.675-0.046,1.289,0.09,1.84,0.409
				c0.552,0.318,0.789,0.673,0.711,1.064c-0.072,0.388-0.461,0.786-1.151,1.188c-0.69,0.402-1.371,0.624-2.04,0.667
				C233.371,212.275,232.758,212.138,232.206,211.82 M252.768,214.869l-31.46-18.164l-12.719,7.393l31.46,18.164L252.768,214.869"/>
			<path clip-path="url(#SVGID_2_)" fill="#BFBFBF" d="M109.458,254.169c-0.23-0.133-0.5-0.17-0.815-0.102
				c-0.309,0.067-0.726,0.25-1.245,0.552c-0.532,0.309-0.852,0.554-0.965,0.733c-0.119,0.183-0.061,0.342,0.169,0.475
				c0.236,0.135,0.505,0.166,0.819,0.096c0.316-0.062,0.731-0.252,1.263-0.561c0.52-0.302,0.839-0.541,0.953-0.721
				C109.757,254.46,109.693,254.304,109.458,254.169 M102.643,254.293l1.079-0.626l1.012,0.584l-1.08,0.627L102.643,254.293
				 M95.236,250.017l4.162-2.418l2.919,1.686l-0.811,0.471l-1.839-1.062l-0.771,0.448l1.729,0.998l-0.816,0.475l-1.729-0.998
				l-0.948,0.551l1.896,1.095l-0.815,0.475L95.236,250.017 M110.095,256.488l2.341-1.361l2.683,1.55l-0.787,0.458l-1.822-1.053
				l-0.644,0.376c0.102,0.032,0.206,0.073,0.298,0.112c0.103,0.041,0.195,0.086,0.282,0.137c0.511,0.295,0.775,0.6,0.812,0.912
				c0.032,0.309-0.179,0.598-0.636,0.863c-0.451,0.262-0.954,0.374-1.521,0.344c-0.562-0.032-1.124-0.205-1.669-0.521
				c-0.241-0.139-0.449-0.284-0.639-0.447c-0.189-0.162-0.351-0.334-0.484-0.523l0.839-0.488c0.104,0.207,0.225,0.389,0.358,0.545
				c0.144,0.155,0.299,0.285,0.483,0.391c0.265,0.153,0.534,0.236,0.814,0.246c0.275,0.014,0.521-0.043,0.738-0.17
				c0.222-0.129,0.319-0.271,0.295-0.432c-0.024-0.158-0.167-0.314-0.432-0.467c-0.155-0.09-0.339-0.176-0.551-0.252
				C110.634,256.626,110.382,256.553,110.095,256.488 M101.893,250.296l0.92-0.533c0.32,0.092,0.619,0.198,0.901,0.309
				c0.275,0.111,0.534,0.234,0.764,0.367c0.499,0.289,0.775,0.58,0.834,0.866c0.06,0.286-0.105,0.548-0.498,0.776
				c-0.224,0.13-0.498,0.216-0.812,0.266c-0.314,0.043-0.825,0.053-1.535,0.025l-1.667-0.062l1.844,1.064l-0.792,0.462l-3.046-1.759
				l0.794-0.461l2.864,0.105c0.264,0.008,0.48-0.006,0.664-0.031c0.183-0.034,0.338-0.084,0.462-0.156
				c0.201-0.117,0.286-0.246,0.273-0.393c-0.012-0.146-0.127-0.277-0.345-0.404c-0.172-0.1-0.391-0.186-0.66-0.256
				C102.586,250.406,102.26,250.343,101.893,250.296 M105.873,256.251c-0.551-0.318-0.789-0.674-0.711-1.064
				c0.072-0.389,0.454-0.783,1.145-1.185c0.69-0.401,1.377-0.628,2.047-0.671c0.675-0.046,1.289,0.09,1.84,0.409
				c0.552,0.318,0.789,0.673,0.711,1.064c-0.072,0.388-0.461,0.786-1.151,1.188c-0.69,0.402-1.371,0.624-2.04,0.667
				C107.038,256.707,106.425,256.57,105.873,256.251 M126.435,259.3l-31.46-18.164l-12.719,7.393l31.46,18.164L126.435,259.3"/>
			<path clip-path="url(#SVGID_2_)" fill="#BED5E5" d="M243.581,151.835c-0.523-0.303-0.936-0.488-1.252-0.557
				c-0.309-0.066-0.578-0.031-0.812,0.105c-0.228,0.133-0.29,0.29-0.174,0.468c0.121,0.183,0.437,0.425,0.959,0.727
				c0.529,0.305,0.954,0.491,1.269,0.56c0.315,0.07,0.59,0.037,0.819-0.095c0.234-0.137,0.286-0.293,0.163-0.476
				C244.438,152.382,244.11,152.14,243.581,151.835 M233.69,157.956l0.959,0.553l1.884-1.094l0.816,0.471l-2.958,1.719l-4.188-2.418
				l2.899-1.686l0.817,0.471l-1.828,1.062l0.782,0.452l1.719-1l0.815,0.471L233.69,157.956 M238.337,156.393l1.833-1.064
				l0.793,0.458l-3.026,1.758l-0.792-0.458l0.168-1.662c0.017-0.149-0.007-0.275-0.059-0.385c-0.051-0.103-0.144-0.195-0.271-0.268
				c-0.195-0.113-0.419-0.163-0.671-0.156c-0.252,0.006-0.48,0.073-0.697,0.199c-0.172,0.1-0.32,0.225-0.445,0.378
				c-0.125,0.159-0.238,0.346-0.317,0.557l-0.92-0.53c0.159-0.186,0.336-0.362,0.53-0.521c0.193-0.159,0.405-0.309,0.633-0.441
				c0.497-0.289,0.995-0.452,1.492-0.481c0.492-0.033,0.946,0.063,1.336,0.289c0.231,0.132,0.38,0.293,0.461,0.471
				c0.081,0.187,0.1,0.482,0.051,0.89L238.337,156.393 M240.665,154.701l1.004-0.583l1.086,0.627l-1.004,0.583L240.665,154.701
				 M241.241,153.208c-0.701-0.405-1.087-0.799-1.17-1.192c-0.077-0.388,0.156-0.743,0.705-1.061
				c0.548-0.319,1.16-0.455,1.831-0.411c0.676,0.046,1.359,0.269,2.059,0.673c0.69,0.399,1.076,0.793,1.159,1.185
				c0.083,0.391-0.156,0.743-0.704,1.061c-0.549,0.319-1.154,0.458-1.831,0.412C242.613,153.829,241.93,153.606,241.241,153.208
				 M247.591,151.015l1.833-1.065l0.793,0.458l-3.026,1.758l-0.793-0.457l0.168-1.662c0.015-0.149-0.002-0.279-0.061-0.386
				c-0.052-0.102-0.144-0.196-0.27-0.268c-0.196-0.113-0.414-0.167-0.667-0.159c-0.251,0.006-0.486,0.077-0.703,0.202
				c-0.166,0.096-0.314,0.222-0.445,0.378c-0.125,0.158-0.233,0.342-0.317,0.557l-0.919-0.531c0.159-0.185,0.335-0.36,0.536-0.523
				c0.193-0.159,0.398-0.305,0.626-0.438c0.498-0.289,0.995-0.451,1.494-0.481c0.497-0.036,0.945,0.063,1.335,0.289
				c0.23,0.134,0.386,0.289,0.461,0.472c0.086,0.182,0.106,0.477,0.056,0.885L247.591,151.015 M290.601,151.509l-49.036-28.312
				l-46.939,27.278l49.039,28.312L290.601,151.509"/>
			<path clip-path="url(#SVGID_2_)" fill="#BFBFBF" d="M294.693,171.299c-0.522-0.302-0.942-0.484-1.25-0.551
				c-0.317-0.07-0.585-0.033-0.813,0.1c-0.229,0.132-0.292,0.288-0.169,0.471c0.11,0.183,0.432,0.421,0.954,0.723
				c0.529,0.306,0.947,0.495,1.27,0.561c0.314,0.07,0.59,0.037,0.818-0.095c0.229-0.133,0.285-0.292,0.164-0.474
				C295.545,171.85,295.222,171.604,294.693,171.299 M284.804,177.42l0.959,0.554l1.884-1.095l0.814,0.471l-2.957,1.718
				l-4.187-2.418l2.893-1.682l0.815,0.471l-1.819,1.059l0.781,0.451l1.712-0.995l0.814,0.471L284.804,177.42 M289.444,175.86
				l1.833-1.065l0.793,0.458l-3.025,1.757l-0.792-0.457l0.168-1.663c0.014-0.149-0.001-0.279-0.062-0.384
				c-0.051-0.104-0.143-0.196-0.271-0.269c-0.194-0.113-0.412-0.167-0.664-0.16c-0.251,0.006-0.488,0.076-0.704,0.203
				c-0.166,0.096-0.314,0.222-0.444,0.378c-0.126,0.159-0.228,0.344-0.318,0.557l-0.919-0.53c0.165-0.19,0.342-0.359,0.535-0.524
				c0.193-0.16,0.406-0.309,0.627-0.438c0.503-0.292,0.994-0.451,1.498-0.484c0.494-0.033,0.94,0.067,1.33,0.292
				c0.231,0.132,0.388,0.288,0.463,0.471c0.085,0.183,0.104,0.478,0.055,0.886L289.444,175.86 M291.779,174.166l1.003-0.584
				l1.085,0.627l-1.004,0.583L291.779,174.166 M292.354,172.672c-0.698-0.401-1.088-0.8-1.165-1.188
				c-0.083-0.392,0.15-0.746,0.698-1.064c0.548-0.319,1.16-0.455,1.837-0.409c0.671,0.044,1.36,0.269,2.054,0.67
				c0.691,0.397,1.081,0.796,1.157,1.184c0.083,0.393-0.155,0.744-0.703,1.062c-0.547,0.318-1.154,0.457-1.832,0.411
				C293.732,173.296,293.042,173.07,292.354,172.672 M298.25,169.046c0.361-0.124,0.698-0.173,1.018-0.153
				c0.332,0.02,0.637,0.109,0.914,0.269c0.419,0.242,0.57,0.514,0.473,0.822c-0.1,0.312-0.453,0.637-1.059,0.989
				c-0.219,0.125-0.441,0.242-0.699,0.345c-0.249,0.106-0.513,0.199-0.794,0.282l-0.832-0.481c0.309-0.06,0.584-0.133,0.828-0.216
				c0.252-0.086,0.475-0.183,0.665-0.292c0.285-0.167,0.451-0.322,0.504-0.468c0.053-0.149-0.011-0.271-0.199-0.381
				c-0.19-0.11-0.414-0.146-0.667-0.112c-0.251,0.033-0.531,0.136-0.833,0.311l-0.435,0.253l-0.695-0.402l0.457-0.266
				c0.268-0.155,0.427-0.294,0.474-0.42c0.045-0.127-0.014-0.24-0.186-0.338c-0.163-0.094-0.352-0.13-0.567-0.104
				c-0.218,0.02-0.44,0.104-0.675,0.239c-0.171,0.1-0.331,0.212-0.469,0.338c-0.136,0.127-0.256,0.262-0.352,0.405l-0.794-0.458
				c0.155-0.155,0.32-0.305,0.497-0.44c0.177-0.136,0.364-0.266,0.571-0.385c0.536-0.312,1.034-0.495,1.48-0.548
				c0.446-0.053,0.853,0.023,1.211,0.229c0.245,0.142,0.378,0.298,0.409,0.461C298.521,168.688,298.437,168.864,298.25,169.046
				 M326.314,172.128l-31.46-18.164l-35.52,20.643l31.459,18.164L326.314,172.128"/>
			<path clip-path="url(#SVGID_2_)" fill="#BFBFBF" d="M208.102,271.269l-0.115-0.067l-0.519,0.302
				c-0.211,0.123-0.333,0.232-0.36,0.336c-0.04,0.103,0.012,0.191,0.15,0.271c0.132,0.076,0.27,0.109,0.425,0.1
				c0.16-0.007,0.315-0.057,0.463-0.143c0.189-0.109,0.28-0.242,0.272-0.392C208.406,271.523,208.308,271.388,208.102,271.269
				 M204.464,271.345c0.159-0.153,0.337-0.303,0.519-0.442c0.194-0.139,0.394-0.274,0.61-0.401c0.56-0.324,1.085-0.498,1.555-0.511
				c0.47-0.02,0.962,0.119,1.462,0.409l1.793,1.035l-1.004,0.583l-0.466-0.269c0.053,0.188,0.049,0.358-0.032,0.504
				c-0.084,0.148-0.244,0.289-0.484,0.428c-0.325,0.189-0.68,0.289-1.069,0.296c-0.396,0.01-0.739-0.077-1.044-0.253
				c-0.368-0.212-0.512-0.441-0.433-0.686c0.078-0.246,0.386-0.525,0.929-0.84l0.588-0.342l-0.075-0.043
				c-0.162-0.094-0.338-0.123-0.54-0.094c-0.2,0.029-0.434,0.12-0.696,0.273c-0.211,0.122-0.388,0.251-0.531,0.387
				c-0.141,0.131-0.251,0.266-0.319,0.404L204.464,271.345 M210.013,268.02l0.999-0.58l3.144,1.815l-1,0.58l-0.454-0.262
				c0.029,0.194,0.008,0.367-0.073,0.514c-0.079,0.146-0.227,0.278-0.427,0.395c-0.365,0.213-0.749,0.309-1.161,0.288
				c-0.407-0.016-0.825-0.151-1.25-0.397l-1.919-1.109l1.004-0.583l0.316,0.183c0.173,0.1,0.379,0.227,0.638,0.375
				c0.252,0.146,0.425,0.246,0.511,0.296c0.253,0.146,0.443,0.247,0.562,0.305c0.127,0.061,0.23,0.093,0.311,0.1
				c0.109,0.017,0.211,0.017,0.315-0.004c0.098-0.016,0.194-0.053,0.28-0.103c0.205-0.119,0.29-0.262,0.244-0.42
				c-0.042-0.164-0.202-0.33-0.49-0.496L210.013,268.02 M343.801,182.224l-13.297-7.677l-40.172,23.346l-35.65-20.582l-6.766,3.931
				l35.649,20.583l-43.017,24.998L204.9,206.24l-57.146,33.209l53.386,30.818l3.978,2.295c0.197,0.048,0.383,0.123,0.562,0.225
				c0.189,0.111,0.326,0.223,0.412,0.338l2.33,1.346l4.637,2.676l13.251-7.699l-16.348-9.445L343.801,182.224"/>
			<path clip-path="url(#SVGID_2_)" fill="#FFFFFF" d="M196.819,277.544l-1.095-1.293l2.232,0.633L196.819,277.544z
				 M201.111,276.835l-5.731-1.523l-1.279,0.743l2.643,3.317l1.08-0.627l-0.497-0.598l1.679-0.975l1.027,0.289L201.111,276.835"/>
			<polygon clip-path="url(#SVGID_2_)" fill="#FFFFFF" points="201.662,275.071 200.846,274.599 199.099,275.614 199.915,276.085 
							"/>
			<path clip-path="url(#SVGID_2_)" fill="#FFFFFF" d="M201.076,272.854l0.594-0.345c0.171-0.1,0.336-0.15,0.503-0.16
				c0.161-0.007,0.315,0.03,0.458,0.113c0.15,0.086,0.214,0.176,0.203,0.268c-0.016,0.098-0.108,0.189-0.279,0.289l-0.594,0.346
				L201.076,272.854 M202.697,273.791l0.634-0.369c0.217-0.126,0.422-0.193,0.624-0.203c0.2-0.01,0.39,0.04,0.567,0.143
				c0.185,0.106,0.277,0.221,0.255,0.332c-0.017,0.117-0.137,0.238-0.349,0.361l-0.633,0.369L202.697,273.791 M205.681,272.787
				c-0.178-0.102-0.364-0.177-0.562-0.225c-0.095-0.022-0.191-0.039-0.292-0.05c-0.309-0.032-0.606,0-0.91,0.096
				c0.114-0.146,0.147-0.284,0.101-0.424c-0.052-0.136-0.173-0.265-0.38-0.385c-0.385-0.224-0.798-0.309-1.234-0.263
				c-0.435,0.054-0.942,0.242-1.52,0.577l-1.614,0.938l4.188,2.419l1.781-1.034c0.555-0.322,0.873-0.621,0.939-0.893
				c0.043-0.146,0.013-0.285-0.085-0.42C206.006,273.009,205.87,272.897,205.681,272.787"/>
			<path clip-path="url(#SVGID_2_)" fill="#FFFFFF" d="M207.258,272.111c-0.137-0.08-0.189-0.169-0.15-0.271
				c0.028-0.104,0.147-0.213,0.359-0.336l0.52-0.302l0.114,0.067c0.207,0.119,0.306,0.254,0.317,0.407
				c0.006,0.149-0.083,0.282-0.272,0.392c-0.147,0.086-0.303,0.136-0.462,0.143C207.528,272.22,207.39,272.187,207.258,272.111
				 M210.404,271.435l-1.793-1.035c-0.5-0.29-0.992-0.429-1.463-0.408c-0.469,0.012-0.995,0.186-1.554,0.51
				c-0.217,0.127-0.417,0.263-0.61,0.401c-0.183,0.14-0.36,0.289-0.52,0.442l0.764,0.439c0.067-0.139,0.176-0.274,0.319-0.404
				c0.143-0.136,0.319-0.264,0.53-0.387c0.263-0.153,0.498-0.244,0.697-0.273c0.201-0.029,0.378,0,0.539,0.094l0.075,0.043
				l-0.587,0.342c-0.542,0.314-0.851,0.594-0.93,0.84c-0.078,0.244,0.066,0.474,0.434,0.686c0.306,0.176,0.649,0.263,1.043,0.253
				c0.391-0.007,0.745-0.106,1.07-0.296c0.241-0.139,0.4-0.279,0.484-0.428c0.08-0.146,0.084-0.315,0.031-0.504l0.466,0.269
				L210.404,271.435"/>
			<path clip-path="url(#SVGID_2_)" fill="#FFFFFF" d="M214.155,269.255l-3.144-1.815l-0.999,0.58l1.552,0.896
				c0.287,0.166,0.448,0.332,0.49,0.495c0.046,0.159-0.039,0.302-0.245,0.421c-0.086,0.05-0.182,0.087-0.28,0.103
				c-0.103,0.021-0.206,0.021-0.315,0.004c-0.08-0.007-0.184-0.04-0.31-0.1c-0.121-0.058-0.311-0.159-0.563-0.305
				c-0.087-0.05-0.259-0.149-0.512-0.296c-0.258-0.148-0.465-0.275-0.638-0.375l-0.316-0.183l-1.004,0.583l1.919,1.109
				c0.426,0.246,0.843,0.382,1.25,0.397c0.413,0.021,0.796-0.075,1.161-0.288c0.2-0.116,0.348-0.249,0.428-0.395
				c0.08-0.146,0.101-0.319,0.072-0.514l0.455,0.262L214.155,269.255"/>
			<polygon clip-path="url(#SVGID_2_)" fill="#FFFFFF" points="237.349,157.886 236.533,157.416 234.649,158.51 233.69,157.956 
				235.408,156.958 234.592,156.485 232.874,157.485 232.092,157.034 233.919,155.972 233.103,155.501 230.203,157.186 
				234.392,159.605 			"/>
			<path clip-path="url(#SVGID_2_)" fill="#FFFFFF" d="M240.963,155.786l-0.793-0.458l-1.833,1.064l0.097-0.968
				c0.05-0.408,0.031-0.703-0.05-0.89c-0.082-0.178-0.231-0.338-0.461-0.471c-0.392-0.226-0.844-0.322-1.336-0.289
				c-0.499,0.029-0.996,0.192-1.492,0.481c-0.228,0.132-0.439,0.282-0.634,0.441c-0.192,0.16-0.37,0.336-0.529,0.521l0.919,0.53
				c0.079-0.211,0.192-0.398,0.317-0.557c0.125-0.153,0.274-0.278,0.446-0.378c0.217-0.126,0.444-0.192,0.697-0.199
				c0.251-0.007,0.475,0.043,0.671,0.156c0.126,0.073,0.218,0.166,0.27,0.268c0.052,0.11,0.076,0.236,0.059,0.385l-0.168,1.662
				l0.793,0.458L240.963,155.786"/>
			<polygon clip-path="url(#SVGID_2_)" fill="#FFFFFF" points="242.755,154.745 241.669,154.117 240.665,154.701 241.75,155.328 			
				"/>
			<path clip-path="url(#SVGID_2_)" fill="#FFFFFF" d="M242.302,152.578c-0.523-0.302-0.84-0.544-0.96-0.727
				c-0.116-0.179-0.054-0.335,0.175-0.468c0.234-0.136,0.503-0.172,0.812-0.106c0.315,0.07,0.729,0.255,1.252,0.558
				c0.528,0.304,0.857,0.546,0.972,0.732c0.121,0.183,0.071,0.338-0.164,0.474c-0.229,0.133-0.503,0.166-0.818,0.096
				C243.256,153.069,242.831,152.884,242.302,152.578 M244.666,151.218c-0.701-0.405-1.384-0.627-2.06-0.674
				c-0.67-0.042-1.282,0.093-1.831,0.412c-0.548,0.319-0.78,0.674-0.704,1.062c0.082,0.392,0.468,0.787,1.169,1.19
				c0.689,0.399,1.372,0.621,2.048,0.667c0.676,0.047,1.283-0.092,1.831-0.411c0.548-0.318,0.787-0.67,0.705-1.062
				C245.741,152.011,245.355,151.616,244.666,151.218"/>
			<path clip-path="url(#SVGID_2_)" fill="#FFFFFF" d="M250.217,150.408l-0.793-0.458l-1.833,1.064l0.103-0.972
				c0.049-0.408,0.029-0.703-0.057-0.886c-0.075-0.183-0.231-0.338-0.46-0.472c-0.391-0.225-0.839-0.324-1.336-0.288
				c-0.499,0.029-0.996,0.191-1.494,0.48c-0.228,0.134-0.433,0.279-0.626,0.439c-0.2,0.163-0.376,0.338-0.536,0.523l0.919,0.531
				c0.084-0.215,0.192-0.398,0.317-0.558c0.131-0.155,0.279-0.282,0.445-0.378c0.217-0.125,0.452-0.196,0.703-0.202
				c0.252-0.007,0.471,0.047,0.667,0.159c0.126,0.073,0.217,0.166,0.27,0.268c0.059,0.106,0.076,0.236,0.061,0.386l-0.168,1.662
				l0.793,0.458L250.217,150.408"/>
			<polygon clip-path="url(#SVGID_2_)" fill="#FFFFFF" points="288.461,177.35 287.646,176.879 285.764,177.974 284.804,177.42 
				286.515,176.425 285.7,175.954 283.986,176.949 283.205,176.498 285.026,175.439 284.21,174.968 281.317,176.651 
				285.504,179.069 			"/>
			<path clip-path="url(#SVGID_2_)" fill="#FFFFFF" d="M292.071,175.253l-0.794-0.458l-1.833,1.065l0.104-0.972
				c0.051-0.408,0.03-0.704-0.055-0.887c-0.075-0.181-0.231-0.338-0.463-0.471c-0.39-0.226-0.837-0.325-1.33-0.291
				c-0.503,0.032-0.995,0.192-1.498,0.484c-0.223,0.128-0.434,0.278-0.627,0.438c-0.193,0.167-0.37,0.336-0.535,0.525l0.919,0.53
				c0.09-0.211,0.192-0.397,0.317-0.557c0.13-0.156,0.279-0.282,0.445-0.378c0.217-0.126,0.453-0.195,0.704-0.203
				c0.251-0.007,0.468,0.047,0.664,0.16c0.127,0.073,0.22,0.166,0.272,0.269c0.057,0.106,0.076,0.236,0.058,0.385l-0.167,1.662
				l0.792,0.458L292.071,175.253"/>
			<polygon clip-path="url(#SVGID_2_)" fill="#FFFFFF" points="293.867,174.208 292.782,173.582 291.779,174.165 292.864,174.792 
							"/>
			<path clip-path="url(#SVGID_2_)" fill="#FFFFFF" d="M293.415,172.042c-0.522-0.302-0.844-0.54-0.954-0.723
				c-0.122-0.183-0.06-0.338,0.169-0.471c0.229-0.133,0.498-0.17,0.813-0.1c0.308,0.067,0.729,0.249,1.251,0.551
				c0.529,0.305,0.85,0.551,0.973,0.733c0.121,0.183,0.064,0.342-0.165,0.475c-0.229,0.132-0.502,0.166-0.817,0.095
				C294.363,172.537,293.945,172.348,293.415,172.042 M295.78,170.682c-0.695-0.401-1.383-0.626-2.055-0.67
				c-0.676-0.046-1.289,0.09-1.836,0.409c-0.549,0.318-0.781,0.673-0.699,1.064c0.076,0.388,0.469,0.787,1.163,1.188
				c0.69,0.397,1.379,0.624,2.049,0.667c0.676,0.046,1.283-0.093,1.831-0.411c0.547-0.319,0.787-0.671,0.702-1.062
				C296.86,171.478,296.47,171.079,295.78,170.682"/>
			<path clip-path="url(#SVGID_2_)" fill="#FFFFFF" d="M300.182,169.163c-0.277-0.159-0.582-0.25-0.914-0.269
				c-0.319-0.02-0.656,0.029-1.018,0.153c0.187-0.183,0.271-0.358,0.244-0.521c-0.031-0.163-0.164-0.319-0.409-0.461
				c-0.358-0.206-0.765-0.283-1.211-0.229c-0.447,0.053-0.944,0.236-1.48,0.548c-0.207,0.119-0.394,0.248-0.571,0.384
				c-0.176,0.136-0.343,0.285-0.497,0.441l0.794,0.458c0.096-0.143,0.215-0.279,0.353-0.405c0.138-0.125,0.297-0.238,0.467-0.338
				c0.236-0.136,0.458-0.218,0.675-0.238c0.216-0.027,0.405,0.01,0.567,0.103c0.171,0.1,0.23,0.212,0.186,0.338
				c-0.046,0.127-0.206,0.266-0.474,0.421l-0.457,0.266l0.695,0.401l0.435-0.251c0.302-0.176,0.582-0.278,0.833-0.312
				c0.253-0.034,0.477,0.002,0.667,0.112c0.188,0.11,0.252,0.232,0.199,0.381c-0.053,0.146-0.219,0.302-0.504,0.468
				c-0.189,0.109-0.412,0.205-0.665,0.292c-0.245,0.083-0.52,0.156-0.828,0.216l0.832,0.481c0.281-0.083,0.545-0.175,0.794-0.282
				c0.258-0.103,0.48-0.22,0.699-0.345c0.605-0.352,0.958-0.677,1.059-0.989C300.752,169.677,300.601,169.405,300.182,169.163"/>
			<polygon clip-path="url(#SVGID_2_)" fill="#FFFFFF" points="344.01,209.421 343.195,208.95 341.31,210.045 340.353,209.49 
				342.064,208.495 341.248,208.024 339.535,209.019 338.754,208.568 340.574,207.51 339.758,207.04 336.865,208.721 
				341.054,211.14 			"/>
			<path clip-path="url(#SVGID_2_)" fill="#FFFFFF" d="M347.619,207.325l-0.795-0.458l-1.832,1.065l0.104-0.973
				c0.049-0.408,0.03-0.703-0.055-0.885c-0.076-0.183-0.231-0.338-0.463-0.471c-0.395-0.229-0.838-0.326-1.335-0.295
				c-0.498,0.036-0.989,0.196-1.492,0.488c-0.224,0.129-0.435,0.278-0.628,0.438c-0.2,0.163-0.369,0.335-0.535,0.524l0.92,0.531
				c0.085-0.215,0.191-0.398,0.316-0.557s0.273-0.286,0.439-0.381c0.218-0.127,0.459-0.193,0.71-0.2
				c0.244-0.01,0.468,0.046,0.663,0.16c0.128,0.073,0.214,0.163,0.273,0.269c0.051,0.103,0.068,0.231,0.057,0.384l-0.167,1.662
				l0.794,0.458L347.619,207.325"/>
			<polygon clip-path="url(#SVGID_2_)" fill="#FFFFFF" points="349.416,206.279 348.331,205.652 347.326,206.236 348.412,206.863 
							"/>
			<path clip-path="url(#SVGID_2_)" fill="#FFFFFF" d="M348.965,204.113c-0.523-0.302-0.853-0.544-0.963-0.727
				c-0.115-0.179-0.059-0.338,0.17-0.471s0.503-0.166,0.813-0.099c0.308,0.066,0.734,0.251,1.259,0.554
				c0.527,0.306,0.849,0.551,0.972,0.733c0.115,0.179,0.058,0.338-0.171,0.471c-0.229,0.132-0.502,0.166-0.812,0.1
				C349.912,204.607,349.492,204.417,348.965,204.113 M351.321,202.749c-0.694-0.401-1.378-0.623-2.054-0.67
				c-0.67-0.043-1.283,0.093-1.83,0.412c-0.549,0.318-0.781,0.673-0.706,1.062c0.083,0.391,0.47,0.787,1.165,1.188
				c0.695,0.401,1.378,0.624,2.056,0.67c0.669,0.043,1.28-0.093,1.829-0.411c0.549-0.318,0.781-0.673,0.705-1.062
				C352.401,203.545,352.016,203.15,351.321,202.749"/>
			<path clip-path="url(#SVGID_2_)" fill="#FFFFFF" d="M352.78,202.534l-0.575-1.695l1.752,1.012L352.78,202.534z M356.35,201.366
				l-0.782-0.451l-0.599,0.349l-2.646-1.527l-1.193,0.693l0.84,2.408l0.924,0.535l1.846-1.071l0.764,0.441l1.011-0.587l-0.766-0.441
				L356.35,201.366"/>
			<polygon clip-path="url(#SVGID_2_)" fill="#FFFFFF" points="281.305,245.862 280.489,245.39 278.599,246.489 277.639,245.935 
				279.358,244.937 278.542,244.464 276.824,245.464 276.042,245.012 277.869,243.951 277.052,243.479 274.152,245.166 
				278.342,247.583 			"/>
			<path clip-path="url(#SVGID_2_)" fill="#FFFFFF" d="M284.912,243.765l-0.793-0.458l-1.832,1.065l0.102-0.973
				c0.044-0.403,0.032-0.703-0.055-0.886c-0.076-0.183-0.231-0.339-0.462-0.472c-0.396-0.229-0.837-0.324-1.34-0.291
				c-0.493,0.033-0.99,0.195-1.488,0.484c-0.227,0.133-0.433,0.278-0.627,0.438c-0.2,0.162-0.376,0.338-0.535,0.524l0.918,0.531
				c0.085-0.216,0.193-0.399,0.317-0.558c0.125-0.16,0.274-0.285,0.439-0.383c0.217-0.125,0.458-0.191,0.71-0.197
				c0.238-0.008,0.467,0.046,0.664,0.158c0.127,0.073,0.212,0.162,0.272,0.27c0.045,0.105,0.067,0.231,0.057,0.385l-0.167,1.662
				l0.794,0.457L284.912,243.765"/>
			<polygon clip-path="url(#SVGID_2_)" fill="#FFFFFF" points="286.705,242.723 285.619,242.095 284.62,242.677 285.708,243.304 			
				"/>
			<path clip-path="url(#SVGID_2_)" fill="#FFFFFF" d="M286.258,240.553c-0.523-0.302-0.852-0.544-0.967-0.724
				c-0.11-0.183-0.06-0.338,0.174-0.473c0.229-0.133,0.503-0.167,0.812-0.102c0.31,0.067,0.73,0.256,1.252,0.559
				c0.529,0.305,0.857,0.547,0.978,0.729c0.11,0.183,0.058,0.339-0.17,0.472c-0.231,0.135-0.501,0.165-0.817,0.103
				C287.207,241.048,286.788,240.859,286.258,240.553 M288.616,239.19c-0.696-0.401-1.383-0.62-2.054-0.669
				c-0.675-0.041-1.289,0.096-1.83,0.41c-0.549,0.318-0.782,0.674-0.706,1.062c0.077,0.395,0.462,0.79,1.159,1.189
				c0.695,0.402,1.378,0.625,2.06,0.668c0.671,0.043,1.282-0.093,1.83-0.412c0.543-0.315,0.776-0.67,0.705-1.062
				C289.69,239.99,289.31,239.591,288.616,239.19"/>
			<path clip-path="url(#SVGID_2_)" fill="#FFFFFF" d="M290.859,238.765c-0.249-0.143-0.382-0.278-0.41-0.401
				c-0.025-0.126,0.051-0.242,0.238-0.352c0.188-0.11,0.395-0.156,0.611-0.142c0.213,0.016,0.442,0.096,0.69,0.238
				c0.247,0.143,0.385,0.275,0.415,0.397c0.023,0.126-0.056,0.245-0.246,0.354c-0.188,0.109-0.387,0.153-0.604,0.14
				C291.339,238.984,291.105,238.908,290.859,238.765 M292.952,237.468c-0.406-0.235-0.861-0.353-1.375-0.346
				c-0.511,0.011-0.978,0.137-1.407,0.385c-0.165,0.098-0.302,0.203-0.399,0.312c-0.098,0.109-0.16,0.227-0.186,0.348
				c-0.323-0.219-0.483-0.432-0.485-0.637c-0.002-0.212,0.158-0.404,0.477-0.591c0.148-0.086,0.321-0.165,0.515-0.231
				c0.2-0.07,0.429-0.129,0.687-0.179l-0.776-0.448c-0.229,0.066-0.456,0.146-0.664,0.232c-0.217,0.086-0.411,0.186-0.604,0.299
				c-0.604,0.352-0.885,0.738-0.836,1.17c0.053,0.428,0.424,0.847,1.112,1.244c0.678,0.392,1.344,0.604,2.008,0.645
				c0.666,0.039,1.267-0.096,1.807-0.412c0.491-0.285,0.754-0.59,0.776-0.916C293.62,238.019,293.4,237.726,292.952,237.468"/>
			<polygon clip-path="url(#SVGID_2_)" fill="#FFFFFF" points="247.695,193.786 244.775,192.1 240.613,194.519 243.59,196.237 
				244.407,195.763 242.511,194.668 243.458,194.117 245.187,195.116 246.004,194.642 244.273,193.643 245.045,193.195 
				246.885,194.257 			"/>
			<path clip-path="url(#SVGID_2_)" fill="#FFFFFF" d="M249.854,194.94c-0.229-0.132-0.488-0.255-0.764-0.368
				c-0.281-0.109-0.58-0.215-0.901-0.309l-0.919,0.534c0.368,0.047,0.694,0.11,0.963,0.186c0.271,0.07,0.488,0.156,0.661,0.256
				c0.217,0.126,0.333,0.259,0.345,0.404c0.013,0.146-0.073,0.276-0.272,0.392c-0.125,0.073-0.28,0.124-0.462,0.155
				c-0.184,0.026-0.4,0.041-0.666,0.034l-2.863-0.106l-0.794,0.461l3.046,1.759l0.793-0.461l-1.843-1.065l1.667,0.063
				c0.71,0.026,1.22,0.017,1.534-0.026c0.315-0.05,0.589-0.136,0.812-0.266c0.394-0.229,0.559-0.491,0.499-0.776
				C250.631,195.521,250.355,195.229,249.854,194.94"/>
			<polygon clip-path="url(#SVGID_2_)" fill="#FFFFFF" points="250.111,198.751 249.099,198.168 248.021,198.795 249.032,199.379 
							"/>
			<path clip-path="url(#SVGID_2_)" fill="#FFFFFF" d="M251.981,200.329c-0.23-0.133-0.288-0.293-0.169-0.475
				c0.12-0.183,0.439-0.429,0.964-0.734c0.52-0.302,0.937-0.485,1.245-0.55c0.315-0.07,0.584-0.034,0.815,0.099
				c0.234,0.136,0.299,0.292,0.179,0.475c-0.113,0.179-0.432,0.417-0.952,0.72c-0.525,0.305-0.942,0.495-1.263,0.561
				C252.486,200.494,252.216,200.464,251.981,200.329 M255.572,198.241c-0.552-0.319-1.166-0.455-1.841-0.408
				c-0.669,0.043-1.355,0.268-2.046,0.67c-0.69,0.402-1.072,0.796-1.145,1.185c-0.078,0.391,0.159,0.747,0.71,1.065
				c0.552,0.318,1.165,0.455,1.842,0.408c0.668-0.043,1.349-0.265,2.04-0.667c0.69-0.402,1.079-0.8,1.151-1.188
				C256.361,198.914,256.123,198.559,255.572,198.241"/>
			<polygon clip-path="url(#SVGID_2_)" fill="#FFFFFF" points="260.744,201.32 257.59,199.499 256.802,199.956 258.818,201.12 
				253.899,202.189 254.95,202.796 260.14,201.671 			"/>
			<polygon clip-path="url(#SVGID_2_)" fill="#FFFFFF" points="228.65,204.853 225.73,203.168 221.569,205.586 224.546,207.305 
				225.362,206.831 223.465,205.735 224.413,205.185 226.143,206.184 226.959,205.709 225.229,204.71 226,204.262 227.839,205.324 
							"/>
			<path clip-path="url(#SVGID_2_)" fill="#FFFFFF" d="M230.81,206.008c-0.229-0.133-0.489-0.256-0.764-0.368
				c-0.281-0.11-0.58-0.216-0.901-0.309l-0.919,0.534c0.367,0.046,0.693,0.11,0.963,0.186c0.27,0.07,0.488,0.156,0.661,0.256
				c0.217,0.126,0.334,0.258,0.344,0.404c0.014,0.146-0.072,0.275-0.271,0.392c-0.125,0.072-0.28,0.122-0.463,0.156
				c-0.184,0.026-0.4,0.04-0.665,0.032l-2.864-0.105l-0.794,0.46l3.046,1.759l0.793-0.461l-1.844-1.064l1.667,0.062
				c0.71,0.027,1.219,0.017,1.534-0.026c0.314-0.049,0.588-0.135,0.812-0.265c0.394-0.229,0.558-0.491,0.5-0.776
				C231.586,206.588,231.311,206.296,230.81,206.008"/>
			<polygon clip-path="url(#SVGID_2_)" fill="#FFFFFF" points="231.066,209.82 230.054,209.236 228.976,209.863 229.988,210.447 			
				"/>
			<path clip-path="url(#SVGID_2_)" fill="#FFFFFF" d="M232.936,211.396c-0.229-0.133-0.288-0.292-0.169-0.475
				c0.113-0.18,0.433-0.425,0.965-0.733c0.52-0.302,0.936-0.484,1.245-0.551c0.315-0.069,0.585-0.032,0.815,0.101
				c0.234,0.135,0.299,0.292,0.18,0.474c-0.114,0.179-0.433,0.418-0.953,0.72c-0.532,0.31-0.947,0.498-1.263,0.561
				C233.441,211.562,233.171,211.531,232.936,211.396 M236.527,209.309c-0.551-0.318-1.166-0.455-1.84-0.409
				c-0.671,0.043-1.356,0.269-2.046,0.67c-0.691,0.401-1.073,0.796-1.145,1.185c-0.079,0.391,0.158,0.746,0.71,1.064
				s1.165,0.455,1.841,0.408c0.669-0.043,1.35-0.266,2.04-0.667c0.69-0.401,1.079-0.8,1.151-1.188
				C237.316,209.982,237.079,209.628,236.527,209.309"/>
			<path clip-path="url(#SVGID_2_)" fill="#FFFFFF" d="M241.452,212.245l-2.683-1.55l-2.342,1.361
				c0.287,0.065,0.54,0.139,0.757,0.219c0.213,0.076,0.397,0.162,0.552,0.252c0.265,0.152,0.408,0.309,0.432,0.467
				c0.023,0.16-0.073,0.303-0.295,0.434c-0.217,0.125-0.464,0.182-0.738,0.168c-0.281-0.01-0.551-0.093-0.816-0.246
				c-0.183-0.105-0.339-0.235-0.482-0.391c-0.133-0.156-0.255-0.338-0.358-0.545l-0.84,0.488c0.133,0.189,0.294,0.361,0.484,0.525
				c0.19,0.161,0.398,0.307,0.639,0.445c0.545,0.316,1.107,0.489,1.669,0.521c0.567,0.03,1.07-0.082,1.521-0.344
				c0.456-0.266,0.667-0.555,0.636-0.863c-0.036-0.312-0.301-0.617-0.812-0.912c-0.086-0.051-0.179-0.096-0.282-0.137
				c-0.091-0.039-0.195-0.08-0.299-0.112l0.646-0.376l1.822,1.053L241.452,212.245"/>
		</g>
	</g>
</g>
<g>
	<g>
		<g enable-background="new    ">
			<defs>
				<polygon id="SVGID_3_" enable-background="new    " points="177.411,226.19 184.235,222.223 191.105,226.19 184.28,230.157 				
					"/>
			</defs>
			<clipPath id="SVGID_4_">
				<use xlink:href="#SVGID_3_"  overflow="visible"/>
			</clipPath>
			<g clip-path="url(#SVGID_4_)">
				<g>
					<g>
						<g>
							<polyline fill="#FFFFFF" points="185.966,223.222 184.236,222.223 177.411,226.19 180.833,228.166 184.28,230.157 
								185.999,229.158 184.288,228.169 185.988,227.181 184.271,226.19 185.977,225.199 184.266,224.21 185.966,223.222 							"/>
						</g>
					</g>
				</g>
			</g>
		</g>
	</g>
</g>
<g>
	<polygon fill="#EC7404" stroke="#FFFFFF" stroke-width="0.5" points="312.837,-23.968 316.249,-23.968 314.68,-12.192 	"/>
	<circle fill="#EC7404" cx="314.543" cy="-33" r="9.731"/>
	<polygon fill="none" stroke="#FFFFFF" stroke-width="0.5" points="318.413,-35.826 314.543,-40.501 310.674,-35.826 
		312.627,-35.826 312.627,-30.704 316.46,-30.704 316.46,-35.826 	"/>
	<text transform="matrix(1 0 0 1 312.877 -25.1196)" fill="#FFFFFF" font-family="'DejaVuSansCondensed-Bold'" font-size="5">€</text>
</g>
<g>
	<polygon fill="#EC7404" stroke="#FFFFFF" stroke-width="0.5" points="338.409,-23.968 341.822,-23.968 340.252,-12.192 	"/>
	<circle fill="#EC7404" cx="340.116" cy="-33" r="9.731"/>
	<polygon fill="none" stroke="#FFFFFF" stroke-width="0.5" points="343.985,-35.826 340.115,-40.501 336.246,-35.826 
		338.199,-35.826 338.199,-30.704 342.032,-30.704 342.032,-35.826 	"/>
	<rect x="338.429" y="-29.443" fill="none" width="8" height="3.833"/>
	<text transform="matrix(1 0 0 1 338.4316 -25.6436)" fill="#FFFFFF" font-family="'DejaVuSansCondensed-Bold'" font-size="5">P</text>
</g>
<g>
	<polygon fill="#EC7404" stroke="#FFFFFF" stroke-width="0.5" points="363.981,-23.968 367.394,-23.968 365.824,-12.192 	"/>
	<circle fill="#EC7404" cx="365.688" cy="-33" r="9.731"/>
	<polygon fill="none" stroke="#FFFFFF" stroke-width="0.5" points="369.558,-35.826 365.688,-40.501 361.818,-35.826 
		363.771,-35.826 363.771,-30.704 367.604,-30.704 367.604,-35.826 	"/>
	<rect x="360.819" y="-29.442" fill="none" width="8" height="3.833"/>
	<text transform="matrix(1 0 0 1 360.8223 -25.6436)" fill="#FFFFFF" font-family="'DejaVuSansCondensed-Bold'" font-size="5"> EC</text>
</g>
<g>
	<polygon fill="#EC7404" stroke="#FFFFFF" stroke-width="0.5" points="415.003,-23.991 418.417,-23.991 416.847,-12.215 	"/>
	<g>
		<circle fill="#EC7404" cx="416.71" cy="-33" r="9.731"/>
		<g>
			<g>
				<path fill="none" stroke="#FFFFFF" stroke-width="0.5" d="M421.197-29.081c0,0.312-0.255,0.567-0.567,0.567h-7.839
					c-0.312,0-0.567-0.255-0.567-0.567v-7.84c0-0.312,0.255-0.567,0.567-0.567h7.839c0.312,0,0.567,0.255,0.567,0.567V-29.081z"/>
			</g>
			<polygon fill="#FFFFFF" points="413.152,-32.975 415.846,-29.744 420.287,-36.475 415.608,-31.057 			"/>
		</g>
	</g>
</g>
<g>
	<polygon fill="#EC7404" stroke="#FFFFFF" stroke-width="0.5" points="440.863,-23.991 444.277,-23.991 442.707,-12.215 	"/>
	<circle fill="#EC7404" cx="442.571" cy="-33" r="9.731"/>
	<g>
		<g>
			<path fill="#EC7404" d="M446.946-31.146c0,0.312-0.255,0.567-0.567,0.567h-9.54c-0.312,0-0.567-0.255-0.567-0.567V-36.6
				c0-0.312,0.255-0.567,0.567-0.567h9.54c0.312,0,0.567,0.255,0.567,0.567V-31.146z"/>
			<path fill="none" stroke="#FFFFFF" stroke-width="0.5" d="M446.946-31.146c0,0.312-0.255,0.567-0.567,0.567h-9.54
				c-0.312,0-0.567-0.255-0.567-0.567V-36.6c0-0.312,0.255-0.567,0.567-0.567h9.54c0.312,0,0.567,0.255,0.567,0.567V-31.146z"/>
		</g>
		<g>
			<path fill="#EC7404" d="M448.87-29.223c0,0.312-0.255,0.567-0.567,0.567h-9.54c-0.312,0-0.567-0.255-0.567-0.567v-5.454
				c0-0.312,0.255-0.567,0.567-0.567h9.54c0.312,0,0.567,0.255,0.567,0.567V-29.223z"/>
			<path fill="none" stroke="#FFFFFF" stroke-width="0.5" d="M448.87-29.223c0,0.312-0.255,0.567-0.567,0.567h-9.54
				c-0.312,0-0.567-0.255-0.567-0.567v-5.454c0-0.312,0.255-0.567,0.567-0.567h9.54c0.312,0,0.567,0.255,0.567,0.567V-29.223z"/>
		</g>
	</g>
</g>
<g>
	<polygon fill="#EC7404" stroke="#FFFFFF" stroke-width="0.5" points="287.264,-23.968 290.677,-23.968 289.107,-12.192 	"/>
	<circle fill="#EC7404" cx="288.97" cy="-33" r="9.731"/>
	<g>
		<path fill="#FFFFFF" d="M285.842-31.311h6.294v-0.557h-6.294V-31.311z M285.842-29.615h6.294v-0.557h-6.294V-29.615z
			 M285.842-34.658h6.294v-0.558h-6.294V-34.658z M285.842-32.993h6.294v-0.557h-6.294V-32.993z M292.842-27.685h-7.744v-11.183
			h5.521v2.222h2.223V-27.685z M284.54-27.125 M291.178-38.797l1.594,1.592h-1.594V-38.797z M291.336-39.427h-6.796v12.301h8.86
			v-10.239L291.336-39.427z"/>
	</g>
</g>
<g>
	<polygon fill="#EC7404" stroke="#FFFFFF" stroke-width="0.5" points="261.69,-23.968 265.104,-23.968 263.533,-12.192 	"/>
	<circle fill="#EC7404" cx="263.397" cy="-33.001" r="9.731"/>
	<g>
		<g>
			<path fill="#FFFFFF" d="M268.454-33.723c-0.002-0.272-0.025-0.522-0.083-0.758c-0.046-0.183-0.114-0.358-0.217-0.517
				c-0.152-0.24-0.387-0.429-0.656-0.535c-0.269-0.108-0.564-0.149-0.898-0.149c-0.295,0-0.563,0.033-0.811,0.114
				c-0.185,0.062-0.357,0.153-0.505,0.277c-0.223,0.186-0.377,0.438-0.463,0.709c-0.086,0.264-0.118,0.55-0.119,0.862l-0.569,4.806
				h1.198v2.099h0.97v-2.099h0.6v2.099h0.97v-2.099h1.204L268.454-33.723z"/>
			<path fill="#FFFFFF" d="M260.08-36.128c0.872,0,1.576-0.707,1.576-1.577c0-0.871-0.704-1.577-1.576-1.577
				c-0.87,0-1.575,0.706-1.576,1.577C258.505-36.834,259.21-36.128,260.08-36.128 M260.08-35.59c-1.305,0.001-2.36,1.057-2.36,2.361
				v2.469h1.092v3.943h0.969v-3.943h0.6v3.943h0.97v-3.943h1.091v-2.469C262.44-34.534,261.385-35.589,260.08-35.59"/>
		</g>
		<circle fill="#FFFFFF" cx="266.494" cy="-37.707" r="1.584"/>
	</g>
</g>
<g>
	<polygon fill="#EC7404" stroke="#FFFFFF" stroke-width="0.5" points="389.554,-23.968 392.967,-23.968 391.397,-12.192 	"/>
	<circle fill="#EC7404" cx="391.26" cy="-33" r="9.731"/>
	<text transform="matrix(1 0 0 1 389.502 -25.1196)" fill="#FFFFFF" font-family="'DejaVuSansCondensed-Bold'" font-size="5">€</text>
	<polygon fill="none" stroke="#FFFFFF" stroke-width="0.5" points="387.342,-35.379 391.212,-30.704 395.081,-35.379 
		393.128,-35.379 393.128,-40.501 389.295,-40.501 389.295,-35.379 	"/>
</g>
<g>
	<polygon fill="#EC7404" stroke="#FFFFFF" stroke-width="0.5" points="225.125,248.516 228.538,248.516 226.968,260.292 	"/>
	<circle fill="#EC7404" cx="226.832" cy="239.483" r="9.731"/>
	<g>
		<g>
			<path fill="#FFFFFF" d="M231.889,238.761c-0.002-0.272-0.025-0.523-0.083-0.758c-0.046-0.184-0.114-0.358-0.217-0.518
				c-0.152-0.239-0.387-0.429-0.656-0.535c-0.269-0.107-0.564-0.148-0.898-0.148c-0.295,0-0.563,0.032-0.811,0.113
				c-0.185,0.062-0.357,0.152-0.505,0.277c-0.223,0.186-0.377,0.438-0.463,0.709c-0.086,0.264-0.118,0.549-0.119,0.861l-0.569,4.806
				h1.198v2.099h0.97v-2.099h0.6v2.099h0.97v-2.099h1.204L231.889,238.761z"/>
			<path fill="#FFFFFF" d="M223.515,236.356c0.872,0,1.576-0.706,1.576-1.577s-0.704-1.576-1.576-1.576
				c-0.87,0-1.575,0.705-1.576,1.576C221.939,235.65,222.645,236.356,223.515,236.356 M223.515,236.894
				c-1.305,0-2.36,1.057-2.36,2.36v2.47h1.092v3.943h0.969v-3.943h0.6v3.943h0.97v-3.943h1.091v-2.47
				C225.875,237.951,224.819,236.894,223.515,236.894"/>
		</g>
		<circle fill="#FFFFFF" cx="229.928" cy="234.777" r="1.584"/>
	</g>
</g>
<g>
	<polygon fill="#EC7404" points="191.811,248.026 195.225,248.026 193.654,259.802 	"/>
	<circle fill="#EC7404" cx="193.518" cy="239.016" r="9.731"/>
	<g>
		<g>
			<path fill="none" stroke="#FFFFFF" stroke-width="0.5" d="M198.005,244.811c0,0.312-0.255,0.567-0.566,0.567h-7.84
				c-0.312,0-0.567-0.256-0.567-0.567v-11.507c0-0.312,0.255-0.566,0.567-0.566h7.84c0.312,0,0.566,0.254,0.566,0.566V244.811z"/>
		</g>
	</g>
	<path fill="#FFFFFF" d="M193.518,237.388c0.743,0,1.342-0.602,1.342-1.342c0-0.742-0.599-1.342-1.342-1.342
		c-0.74,0-1.34,0.6-1.341,1.342C192.178,236.787,192.777,237.388,193.518,237.388 M193.518,237.846
		c-1.11,0.001-2.009,0.899-2.009,2.01v2.102h0.93v3.356h0.824v-3.356h0.511v3.356h0.825v-3.356h0.929v-2.102
		C195.527,238.746,194.629,237.847,193.518,237.846"/>
</g>
<path fill="#BED5E5" d="M174.639,259.541l-42.552-24.796l-75.053,44.439l42.554,24.796L174.639,259.541"/>
<path fill="#BFBFBF" d="M70.693,266.383l-37.198-21.869l-17.357,10.344l37.2,21.869"/>
<path fill="#BFBFBF" d="M88.848,255.569L51.65,233.7l-15.18,9.054l37.2,21.869"/>
<path fill="#BFBFBF" d="M108.959,244.039l-9.056-5.64l-17.357,10.344l8.692,5.111"/>
<path fill="#BFBFBF" d="M98.293,237.582l-26.235-15.424L54.7,232.501l25.872,14.896"/>
<path fill="#BFBFBF" d="M128.589,232.491l-37.198-21.869l-17.357,10.344l37.2,21.869"/>
<g>
	<g>
		<g>
			<g enable-background="new    ">
				<defs>
					<polygon id="SVGID_5_" enable-background="new    " points="86.521,219.635 90.84,217.125 106.808,226.344 102.489,228.855 
											"/>
				</defs>
				<clipPath id="SVGID_6_">
					<use xlink:href="#SVGID_5_"  overflow="visible"/>
				</clipPath>
				<g clip-path="url(#SVGID_6_)">
					<g>
						<g>
							<g>
								<polyline fill="#FFFFFF" points="93.683,218.853 90.765,217.168 86.604,219.587 89.579,221.305 90.385,220.836 
									88.488,219.742 89.446,219.185 91.169,220.18 91.981,219.708 90.258,218.713 91.032,218.264 92.87,219.326 93.683,218.853 
																	"/>
								<path fill="#FFFFFF" d="M95.833,220.007c-0.224-0.129-0.485-0.251-0.76-0.365c-0.28-0.11-0.586-0.214-0.905-0.31
									l-0.914,0.531c0.37,0.051,0.688,0.11,0.962,0.188c0.268,0.074,0.491,0.159,0.657,0.255c0.224,0.129,0.338,0.262,0.352,0.409
									c0.007,0.144-0.081,0.276-0.271,0.387c-0.127,0.074-0.292,0.125-0.47,0.155c-0.179,0.029-0.401,0.04-0.662,0.036
									l-2.871-0.106l-0.787,0.457l3.045,1.759l0.787-0.458l-1.845-1.064l1.68,0.066c0.707,0.025,1.216,0.018,1.527-0.03
									c0.318-0.044,0.585-0.133,0.813-0.265c0.393-0.229,0.558-0.487,0.498-0.778C96.613,220.589,96.338,220.298,95.833,220.007"
									/>
								<polyline fill="#FFFFFF" points="96.097,223.819 95.088,223.237 94.01,223.864 95.018,224.446 96.097,223.819 								"/>
								<path fill="#FFFFFF" d="M101.439,223.244c-0.224-0.129-0.484-0.25-0.759-0.364c-0.28-0.111-0.586-0.215-0.905-0.31
									l-0.914,0.53c0.37,0.052,0.688,0.11,0.962,0.188c0.268,0.073,0.49,0.158,0.656,0.254c0.224,0.129,0.339,0.262,0.353,0.409
									c0.007,0.144-0.081,0.276-0.271,0.388c-0.127,0.073-0.285,0.129-0.47,0.154c-0.178,0.029-0.401,0.04-0.661,0.037
									l-2.872-0.107l-0.787,0.457l3.045,1.759l0.787-0.457l-1.845-1.065l1.68,0.066c0.708,0.025,1.216,0.018,1.527-0.029
									c0.318-0.045,0.585-0.133,0.813-0.266c0.393-0.229,0.558-0.486,0.504-0.774
									C102.219,223.826,101.943,223.536,101.439,223.244"/>
								<path fill="#FFFFFF" d="M105.084,225.349c-0.204-0.118-0.427-0.226-0.669-0.328c-0.236-0.107-0.492-0.203-0.766-0.288
									l-0.787,0.458c0.249,0.055,0.491,0.121,0.708,0.202c0.217,0.081,0.408,0.17,0.581,0.27c0.236,0.136,0.377,0.269,0.416,0.394
									c0.045,0.122-0.018,0.232-0.177,0.325c-0.171,0.1-0.368,0.14-0.584,0.11s-0.459-0.118-0.733-0.276l-0.453-0.262
									l-0.692,0.401l0.434,0.251c0.307,0.177,0.486,0.339,0.544,0.483c0.064,0.146-0.005,0.276-0.195,0.387
									c-0.185,0.106-0.4,0.144-0.655,0.114c-0.249-0.033-0.517-0.129-0.804-0.295c-0.192-0.11-0.364-0.239-0.511-0.384
									c-0.147-0.144-0.275-0.306-0.372-0.479l-0.832,0.483c0.141,0.162,0.301,0.313,0.486,0.457s0.383,0.28,0.594,0.402
									c0.613,0.354,1.181,0.557,1.715,0.615c0.528,0.062,1.005-0.029,1.417-0.269c0.273-0.159,0.424-0.336,0.462-0.528
									c0.031-0.188-0.053-0.383-0.265-0.585c0.313,0.106,0.618,0.151,0.898,0.136c0.28-0.015,0.553-0.092,0.794-0.232
									c0.355-0.206,0.487-0.445,0.396-0.704C105.947,225.95,105.627,225.663,105.084,225.349"/>
							</g>
						</g>
					</g>
				</g>
			</g>
		</g>
	</g>
</g>
<g>
	<g>
		<g>
			<g enable-background="new    ">
				<defs>
					<polygon id="SVGID_7_" enable-background="new    " points="66.24,231.373 70.477,228.911 86.4,238.105 82.163,240.567 					
						"/>
				</defs>
				<clipPath id="SVGID_8_">
					<use xlink:href="#SVGID_7_"  overflow="visible"/>
				</clipPath>
				<g clip-path="url(#SVGID_8_)">
					<g>
						<g>
							<g>
								<polyline fill="#FFFFFF" points="73.325,230.635 70.408,228.951 66.24,231.373 69.215,233.091 70.026,232.62 68.13,231.525 
									69.089,230.967 70.812,231.962 71.618,231.495 69.894,230.5 70.674,230.046 72.513,231.108 73.325,230.635 								"/>
								<path fill="#FFFFFF" d="M75.47,231.793c-0.224-0.129-0.479-0.255-0.753-0.369c-0.281-0.11-0.587-0.213-0.905-0.31
									l-0.913,0.531c0.369,0.052,0.687,0.11,0.962,0.188c0.268,0.074,0.49,0.159,0.656,0.255c0.224,0.129,0.333,0.266,0.353,0.409
									c0.007,0.144-0.081,0.276-0.278,0.391c-0.12,0.07-0.286,0.121-0.463,0.151c-0.185,0.032-0.408,0.044-0.662,0.037
									l-2.87-0.107l-0.793,0.461l3.045,1.759l0.793-0.461l-1.845-1.065l1.68,0.066c0.707,0.025,1.216,0.019,1.527-0.029
									c0.318-0.045,0.585-0.133,0.813-0.266c0.393-0.229,0.557-0.486,0.499-0.778C76.255,232.373,75.974,232.084,75.47,231.793"/>
								<polyline fill="#FFFFFF" points="75.732,235.605 74.724,235.023 73.646,235.649 74.655,236.232 75.732,235.605 								"/>
								<path fill="#FFFFFF" d="M81.082,235.034c-0.229-0.133-0.485-0.258-0.759-0.372c-0.28-0.111-0.587-0.214-0.905-0.31
									l-0.913,0.53c0.369,0.052,0.688,0.111,0.962,0.188c0.268,0.073,0.49,0.158,0.657,0.254c0.223,0.13,0.332,0.266,0.352,0.409
									c0.007,0.144-0.081,0.276-0.277,0.391c-0.121,0.07-0.279,0.126-0.464,0.151c-0.184,0.033-0.407,0.045-0.662,0.037
									l-2.87-0.107l-0.793,0.461l3.045,1.759l0.793-0.461l-1.845-1.065l1.68,0.066c0.707,0.025,1.215,0.019,1.527-0.029
									c0.318-0.045,0.585-0.133,0.813-0.266c0.393-0.229,0.557-0.486,0.505-0.774C81.861,235.609,81.58,235.322,81.082,235.034"/>
								<path fill="#FFFFFF" d="M84.791,237.175c-0.229-0.133-0.485-0.258-0.759-0.372c-0.28-0.11-0.587-0.214-0.905-0.31
									l-0.913,0.53c0.369,0.052,0.694,0.114,0.962,0.188c0.268,0.073,0.49,0.158,0.663,0.258c0.217,0.126,0.326,0.262,0.347,0.406
									c0.013,0.147-0.081,0.275-0.278,0.391c-0.12,0.069-0.279,0.125-0.457,0.154c-0.19,0.029-0.414,0.041-0.668,0.033
									l-2.864-0.104l-0.793,0.461l3.039,1.755l0.793-0.461l-1.839-1.062l1.674,0.062c0.707,0.026,1.215,0.019,1.527-0.029
									c0.318-0.044,0.584-0.133,0.813-0.266c0.393-0.229,0.557-0.486,0.505-0.773C85.57,237.75,85.289,237.463,84.791,237.175"/>
							</g>
						</g>
					</g>
				</g>
			</g>
		</g>
	</g>
</g>
<g>
	<g>
		<g>
			<g enable-background="new    ">
				<defs>
					<polygon id="SVGID_9_" enable-background="new    " points="27.303,252.776 31.534,250.316 47.56,259.569 43.328,262.029 					
						"/>
				</defs>
				<clipPath id="SVGID_10_">
					<use xlink:href="#SVGID_9_"  overflow="visible"/>
				</clipPath>
				<g clip-path="url(#SVGID_10_)">
					<g>
						<g>
							<g>
								<polyline fill="#FFFFFF" points="34.375,252.039 31.464,250.357 27.303,252.776 30.278,254.494 31.084,254.025 
									29.188,252.93 30.146,252.374 31.87,253.369 32.681,252.897 30.957,251.902 31.731,251.452 33.564,252.509 34.375,252.039 
																	"/>
								<path fill="#FFFFFF" d="M36.527,253.199c-0.23-0.133-0.479-0.254-0.753-0.368c-0.288-0.114-0.587-0.214-0.906-0.31
									l-0.913,0.531c0.37,0.051,0.688,0.11,0.956,0.184c0.273,0.078,0.497,0.162,0.663,0.258c0.217,0.126,0.333,0.266,0.346,0.406
									c0.014,0.147-0.082,0.276-0.278,0.391c-0.121,0.07-0.279,0.125-0.457,0.155c-0.178,0.029-0.401,0.04-0.662,0.036
									l-2.871-0.106l-0.787,0.457l3.045,1.759l0.787-0.457l-1.845-1.066l1.674,0.062c0.713,0.03,1.216,0.019,1.534-0.025
									c0.311-0.048,0.577-0.137,0.806-0.27c0.394-0.229,0.564-0.482,0.505-0.773C37.312,253.778,37.031,253.49,36.527,253.199"/>
								<polyline fill="#FFFFFF" points="36.796,257.007 35.788,256.425 34.709,257.052 35.718,257.634 36.796,257.007 								"/>
								<path fill="#FFFFFF" d="M42.133,256.436c-0.23-0.133-0.479-0.255-0.753-0.369c-0.281-0.11-0.587-0.214-0.906-0.31
									l-0.913,0.531c0.369,0.052,0.688,0.11,0.962,0.188c0.268,0.074,0.491,0.158,0.657,0.255
									c0.217,0.125,0.332,0.265,0.346,0.405c0.014,0.147-0.082,0.276-0.278,0.391c-0.121,0.07-0.279,0.125-0.457,0.155
									c-0.178,0.029-0.4,0.04-0.661,0.036l-2.871-0.106l-0.787,0.457l3.046,1.759l0.787-0.457l-1.845-1.065l1.674,0.062
									c0.712,0.029,1.215,0.019,1.534-0.026c0.311-0.047,0.584-0.132,0.812-0.265c0.394-0.229,0.558-0.487,0.499-0.778
									C42.918,257.014,42.637,256.727,42.133,256.436"/>
								<polyline fill="#FFFFFF" points="46.538,259.06 45.51,258.467 44.336,258.025 43.607,258.449 44.787,258.895 
									42.091,260.461 41.14,259.912 40.404,260.34 43.328,262.029 44.064,261.6 43.113,261.051 46.538,259.06 								"/>
							</g>
						</g>
					</g>
				</g>
			</g>
		</g>
	</g>
</g>
<g>
	<g>
		<g enable-background="new    ">
			<defs>
				<polygon id="SVGID_11_" enable-background="new    " points="45.337,239.622 52.168,235.652 59.038,239.619 52.207,243.588 				
					"/>
			</defs>
			<clipPath id="SVGID_12_">
				<use xlink:href="#SVGID_11_"  overflow="visible"/>
			</clipPath>
			<g clip-path="url(#SVGID_12_)">
				<g>
					<g>
						<g>
							<polyline fill="#FFFFFF" points="53.905,236.655 52.168,235.652 45.337,239.622 48.766,241.601 52.207,243.588 
								53.932,242.586 52.221,241.598 53.921,240.61 52.209,239.622 53.91,238.634 52.199,237.646 53.905,236.655 							"/>
						</g>
					</g>
				</g>
			</g>
		</g>
	</g>
</g>
<g>
	<g>
		<g>
			<g enable-background="new    ">
				<defs>
					<polygon id="SVGID_13_" enable-background="new    " points="105.53,264.484 109.849,261.974 125.779,271.171 121.459,273.681 
											"/>
				</defs>
				<clipPath id="SVGID_14_">
					<use xlink:href="#SVGID_13_"  overflow="visible"/>
				</clipPath>
				<g clip-path="url(#SVGID_14_)">
					<g>
						<g>
							<g>
								<polyline fill="#FFFFFF" points="112.691,263.703 109.773,262.018 105.612,264.436 108.594,266.158 109.399,265.69 
									107.497,264.591 108.455,264.035 110.185,265.034 110.997,264.561 109.267,263.562 110.041,263.113 111.879,264.174 
									112.691,263.703 								"/>
								<polyline fill="#FFFFFF" points="115.533,265.343 114.511,264.753 113.331,264.307 112.602,264.731 113.782,265.177 
									111.092,266.74 110.141,266.191 109.398,266.623 112.329,268.314 113.071,267.883 112.113,267.33 115.533,265.343 								
									"/>
								<polyline fill="#FFFFFF" points="115.112,268.671 114.104,268.089 113.025,268.716 114.034,269.298 115.112,268.671 
																	"/>
								<path fill="#FFFFFF" d="M116.979,270.25c-0.23-0.133-0.288-0.291-0.174-0.476c0.12-0.181,0.437-0.424,0.963-0.729
									c0.52-0.303,0.939-0.486,1.25-0.557c0.312-0.063,0.585-0.029,0.815,0.104c0.229,0.132,0.289,0.291,0.181,0.472
									c-0.12,0.181-0.436,0.423-0.957,0.726c-0.526,0.306-0.946,0.49-1.264,0.557C117.483,270.416,117.209,270.382,116.979,270.25
									 M120.569,268.164c-0.549-0.317-1.167-0.454-1.842-0.41c-0.674,0.045-1.354,0.27-2.045,0.671
									c-0.691,0.402-1.078,0.797-1.152,1.188c-0.074,0.391,0.17,0.745,0.719,1.062c0.549,0.317,1.162,0.457,1.829,0.409
									c0.675-0.044,1.36-0.266,2.052-0.667c0.691-0.402,1.071-0.8,1.145-1.19C121.356,268.837,121.118,268.48,120.569,268.164"/>
								<path fill="#FFFFFF" d="M124.164,270.239c-0.23-0.133-0.485-0.251-0.759-0.365c-0.286-0.114-0.586-0.214-0.905-0.31
									l-0.913,0.53c0.363,0.048,0.688,0.111,0.956,0.185c0.274,0.078,0.497,0.162,0.663,0.259
									c0.217,0.125,0.339,0.262,0.346,0.405c0.014,0.147-0.081,0.276-0.271,0.387c-0.127,0.074-0.279,0.125-0.464,0.158
									c-0.178,0.03-0.4,0.041-0.662,0.037l-2.87-0.106l-0.787,0.457l3.045,1.758l0.787-0.457l-1.845-1.065l1.674,0.063
									c0.707,0.025,1.215,0.019,1.534-0.026c0.312-0.048,0.579-0.137,0.807-0.27c0.393-0.228,0.563-0.482,0.504-0.773
									C124.943,270.821,124.668,270.53,124.164,270.239"/>
							</g>
						</g>
					</g>
				</g>
			</g>
		</g>
	</g>
</g>
</svg>
