<?xml version="1.0" encoding="utf-8"?>
<!-- Generator: Adobe Illustrator 16.0.0, SVG Export Plug-In . SVG Version: 6.00 Build 0)  -->
<!DOCTYPE svg PUBLIC "-//W3C//DTD SVG 1.1//EN" "http://www.w3.org/Graphics/SVG/1.1/DTD/svg11.dtd">
<svg version="1.1" id="Ebene_1" xmlns="http://www.w3.org/2000/svg" xmlns:xlink="http://www.w3.org/1999/xlink" x="0px" y="0px"
	 width="595.275px" height="419.527px" viewBox="0 0 595.275 419.527" enable-background="new 0 0 595.275 419.527"
	 xml:space="preserve">
<g>
	<g enable-background="new    ">
		<g>
			<polygon fill="#EC7404" points="207.225,286.728 209.068,287.792 242.541,307.111 259.81,297.076 224.5,276.689 			"/>
			<g>
				<defs>
					<polygon id="SVGID_1_" points="101.351,225.602 248.451,140.117 389.635,221.629 242.535,307.115 					"/>
				</defs>
				<clipPath id="SVGID_2_">
					<use xlink:href="#SVGID_1_"  overflow="visible"/>
				</clipPath>
				<path clip-path="url(#SVGID_2_)" fill="#BFBFBF" d="M249.53,279.017c-0.189-0.108-0.384-0.154-0.607-0.139
					c-0.212,0.016-0.441,0.096-0.686,0.238c-0.24,0.141-0.377,0.273-0.41,0.398c-0.022,0.127,0.053,0.242,0.243,0.353
					c0.189,0.108,0.395,0.155,0.614,0.143c0.217-0.021,0.446-0.101,0.686-0.24c0.246-0.142,0.382-0.274,0.409-0.397
					C249.806,279.244,249.72,279.127,249.53,279.017 M256.507,281.367c-0.229-0.133-0.499-0.17-0.812-0.1
					c-0.31,0.066-0.728,0.248-1.246,0.551c-0.526,0.305-0.845,0.551-0.965,0.732c-0.119,0.184-0.06,0.343,0.169,0.475
					c0.229,0.133,0.505,0.167,0.82,0.098c0.315-0.07,0.737-0.256,1.263-0.561c0.519-0.303,0.833-0.545,0.947-0.724
					C256.802,281.656,256.743,281.502,256.507,281.367 M249.693,281.493l1.085-0.63l1.012,0.584l-1.085,0.631L249.693,281.493
					 M242.287,277.216l4.162-2.418l2.913,1.682l-0.811,0.472l-1.833-1.06l-0.771,0.449l1.724,0.994l-0.811,0.473l-1.723-0.996
					l-0.953,0.553l1.895,1.096l-0.816,0.475L242.287,277.216 M257.146,283.685l2.341-1.359l2.683,1.549l-0.788,0.458l-1.822-1.052
					l-0.639,0.371c0.098,0.037,0.195,0.073,0.299,0.113c0.092,0.04,0.185,0.086,0.276,0.139c0.511,0.296,0.776,0.602,0.812,0.913
					c0.031,0.309-0.181,0.598-0.637,0.862c-0.451,0.263-0.954,0.375-1.522,0.346c-0.561-0.033-1.123-0.205-1.669-0.521
					c-0.241-0.139-0.454-0.289-0.637-0.447c-0.189-0.163-0.353-0.336-0.485-0.523l0.844-0.492c0.099,0.209,0.215,0.389,0.354,0.548
					c0.144,0.156,0.3,0.286,0.483,0.392c0.258,0.148,0.527,0.232,0.808,0.242c0.282,0.017,0.527-0.041,0.743-0.166
					c0.223-0.129,0.32-0.271,0.291-0.435c-0.024-0.159-0.168-0.315-0.427-0.465c-0.155-0.09-0.339-0.176-0.557-0.256
					C257.684,283.826,257.433,283.751,257.146,283.685 M247.383,280.251c-0.54-0.311-0.782-0.662-0.716-1.047
					c0.066-0.385,0.437-0.773,1.104-1.162c0.69-0.4,1.412-0.613,2.144-0.641c0.745-0.025,1.422,0.133,2.03,0.484
					c0.196,0.113,0.362,0.23,0.519,0.352c0.148,0.12,0.287,0.252,0.402,0.392l-0.765,0.444c-0.098-0.148-0.202-0.281-0.323-0.398
					c-0.115-0.111-0.248-0.215-0.396-0.301c-0.322-0.186-0.661-0.275-1.021-0.279c-0.356,0-0.722,0.094-1.099,0.279
					c0.207,0.02,0.413,0.053,0.597,0.112c0.189,0.056,0.372,0.136,0.538,0.231c0.432,0.25,0.656,0.519,0.67,0.817
					c0.014,0.298-0.18,0.563-0.581,0.796c-0.445,0.259-0.953,0.382-1.515,0.369C248.412,280.687,247.877,280.538,247.383,280.251
					 M252.922,283.451c-0.551-0.318-0.788-0.674-0.71-1.066c0.073-0.387,0.454-0.781,1.146-1.184c0.69-0.401,1.376-0.627,2.045-0.67
					c0.676-0.046,1.29,0.09,1.842,0.408c0.551,0.318,0.789,0.674,0.71,1.064c-0.071,0.389-0.459,0.787-1.15,1.188
					c-0.691,0.4-1.371,0.623-2.041,0.665C254.088,283.904,253.475,283.769,252.922,283.451 M277.296,286.914l-35.31-20.387
					l-14.101,8.195l35.31,20.385L277.296,286.914"/>
				<path clip-path="url(#SVGID_2_)" fill="#BED5E5" d="M311.266,247.208c-0.242-0.139-0.477-0.215-0.695-0.236
					c-0.217-0.013-0.417,0.031-0.61,0.145c-0.185,0.105-0.263,0.225-0.233,0.348c0.029,0.129,0.166,0.262,0.409,0.401
					c0.246,0.143,0.476,0.223,0.694,0.235c0.213,0.016,0.416-0.029,0.6-0.136c0.195-0.114,0.269-0.229,0.244-0.355
					C311.646,247.486,311.512,247.351,311.266,247.208 M316.062,243.537c-0.522-0.303-0.937-0.488-1.254-0.558
					c-0.308-0.067-0.582-0.033-0.817,0.103c-0.229,0.133-0.284,0.292-0.169,0.471c0.119,0.183,0.438,0.426,0.96,0.727
					c0.529,0.307,0.956,0.492,1.271,0.561c0.314,0.07,0.585,0.033,0.812-0.1c0.235-0.136,0.292-0.289,0.169-0.471
					C316.917,244.083,316.59,243.841,316.062,243.537 M319.777,242.017l-1.753-1.012l0.575,1.694L319.777,242.017 M306.17,249.658
					l0.96,0.553l1.886-1.094l0.814,0.471l-2.957,1.719l-4.188-2.419l2.898-1.687l0.816,0.473l-1.828,1.062l0.782,0.451l1.718-0.999
					l0.818,0.472L306.17,249.658 M308.854,247.271c0.029-0.123,0.098-0.242,0.195-0.352c0.094-0.109,0.227-0.212,0.396-0.312
					c0.424-0.245,0.893-0.372,1.409-0.378c0.508-0.01,0.967,0.104,1.374,0.338c0.449,0.26,0.662,0.555,0.641,0.879
					c-0.019,0.326-0.281,0.631-0.771,0.916c-0.538,0.312-1.145,0.451-1.803,0.408c-0.666-0.039-1.33-0.252-2.009-0.643
					c-0.688-0.398-1.063-0.813-1.112-1.245c-0.055-0.429,0.232-0.819,0.831-1.167c0.193-0.113,0.398-0.213,0.604-0.299
					c0.211-0.09,0.435-0.166,0.668-0.236l0.777,0.449c-0.266,0.053-0.492,0.111-0.688,0.186c-0.198,0.062-0.371,0.142-0.521,0.229
					c-0.318,0.186-0.477,0.377-0.47,0.586C308.369,246.84,308.532,247.052,308.854,247.271 M313.146,246.402l1.004-0.583
					l1.086,0.626l-1.005,0.584L313.146,246.402 M313.717,244.907c-0.697-0.401-1.084-0.796-1.164-1.188
					c-0.076-0.388,0.154-0.742,0.703-1.062c0.547-0.318,1.162-0.454,1.832-0.411c0.674,0.047,1.358,0.269,2.053,0.67
					c0.695,0.4,1.08,0.797,1.164,1.188c0.076,0.389-0.157,0.744-0.703,1.062c-0.549,0.318-1.162,0.453-1.83,0.41
					C315.094,245.53,314.41,245.307,313.717,244.907 M317.789,243.005l-0.833-2.412l1.191-0.693l2.646,1.526l0.594-0.345
					l0.781,0.451l-0.594,0.344l0.764,0.441l-1.016,0.591l-0.766-0.44l-1.844,1.07L317.789,243.005 M389.635,221.629l-35.31-20.386
					l-108.657,63.145l35.311,20.386L389.635,221.629"/>
				<path clip-path="url(#SVGID_2_)" fill="#BFBFBF" d="M234.026,225.16c-0.189-0.109-0.396-0.155-0.607-0.139
					c-0.218,0.014-0.446,0.092-0.691,0.236c-0.24,0.139-0.377,0.271-0.405,0.4c-0.028,0.123,0.053,0.242,0.243,0.352
					c0.19,0.109,0.395,0.156,0.608,0.14c0.223-0.017,0.452-0.096,0.691-0.235c0.247-0.144,0.382-0.276,0.404-0.402
					C234.296,225.39,234.216,225.27,234.026,225.16 M243.341,230.539c-0.19-0.11-0.391-0.153-0.607-0.141
					c-0.212,0.018-0.441,0.096-0.687,0.24c-0.241,0.139-0.376,0.271-0.41,0.397c-0.022,0.126,0.053,0.241,0.242,0.352
					c0.19,0.11,0.396,0.155,0.614,0.143c0.217-0.02,0.446-0.1,0.686-0.238c0.246-0.144,0.383-0.276,0.411-0.398
					C243.611,230.767,243.53,230.647,243.341,230.539 M241.004,227.509c-0.236-0.137-0.504-0.166-0.82-0.104
					c-0.309,0.066-0.72,0.252-1.24,0.555c-0.532,0.309-0.856,0.551-0.97,0.729c-0.113,0.187-0.061,0.342,0.174,0.478
					c0.229,0.133,0.5,0.163,0.82,0.096c0.309-0.065,0.731-0.252,1.262-0.561c0.52-0.301,0.834-0.543,0.948-0.723
					C241.292,227.801,241.234,227.641,241.004,227.509 M234.189,227.635l1.079-0.628l1.005,0.58l-1.078,0.629L234.189,227.635
					 M226.782,223.359l4.163-2.42l2.913,1.684l-0.811,0.471l-1.833-1.059l-0.776,0.451l1.724,0.996l-0.811,0.471l-1.724-0.995
					l-0.953,0.554l1.896,1.096l-0.811,0.471L226.782,223.359 M231.879,226.394c-0.545-0.314-0.783-0.664-0.715-1.047
					c0.065-0.387,0.437-0.773,1.104-1.162c0.691-0.401,1.399-0.613,2.145-0.641c0.744-0.025,1.42,0.133,2.029,0.484
					c0.189,0.109,0.363,0.229,0.512,0.348c0.156,0.123,0.289,0.253,0.404,0.393l-0.765,0.443c-0.098-0.148-0.203-0.281-0.318-0.395
					c-0.121-0.117-0.252-0.211-0.402-0.297c-0.322-0.188-0.661-0.283-1.015-0.283c-0.356,0-0.728,0.09-1.11,0.279
					c0.218,0.02,0.419,0.057,0.608,0.112s0.367,0.133,0.54,0.231c0.424,0.246,0.649,0.521,0.663,0.813
					c0.013,0.299-0.181,0.563-0.586,0.8c-0.444,0.258-0.949,0.378-1.51,0.363C232.901,226.826,232.374,226.679,231.879,226.394
					 M241.195,231.772c-0.541-0.312-0.783-0.663-0.717-1.048s0.437-0.773,1.104-1.162c0.691-0.4,1.406-0.609,2.145-0.641
					c0.744-0.025,1.421,0.135,2.029,0.486c0.195,0.111,0.363,0.229,0.519,0.352c0.149,0.117,0.288,0.25,0.402,0.391l-0.764,0.444
					c-0.098-0.149-0.203-0.282-0.323-0.397c-0.115-0.113-0.252-0.213-0.402-0.299c-0.323-0.186-0.655-0.279-1.017-0.283
					c-0.354,0-0.721,0.094-1.103,0.283c0.211,0.016,0.413,0.053,0.602,0.109c0.189,0.055,0.373,0.137,0.539,0.232
					c0.431,0.248,0.65,0.521,0.668,0.816c0.014,0.299-0.18,0.562-0.585,0.799c-0.445,0.26-0.949,0.379-1.51,0.365
					S241.688,232.058,241.195,231.772 M237.419,229.592c-0.552-0.317-0.789-0.673-0.711-1.063c0.073-0.389,0.449-0.787,1.139-1.189
					c0.691-0.401,1.383-0.623,2.052-0.666c0.676-0.047,1.29,0.089,1.842,0.407c0.546,0.315,0.782,0.671,0.71,1.065
					c-0.079,0.385-0.459,0.787-1.151,1.188c-0.69,0.401-1.375,0.62-2.041,0.668C238.578,230.043,237.964,229.908,237.419,229.592
					 M257.815,232.857l-31.46-18.164l-10.881,6.324l31.46,18.164L257.815,232.857"/>
				<path clip-path="url(#SVGID_2_)" fill="#BFBFBF" d="M248.195,216.925c-0.189-0.108-0.396-0.155-0.608-0.139
					c-0.223,0.018-0.452,0.096-0.691,0.236c-0.246,0.142-0.383,0.274-0.404,0.4c-0.034,0.127,0.052,0.242,0.242,0.352
					s0.39,0.16,0.609,0.14c0.216-0.013,0.445-0.093,0.691-0.235c0.239-0.139,0.376-0.271,0.404-0.402
					C248.467,217.154,248.385,217.036,248.195,216.925 M255.168,219.279c-0.236-0.137-0.5-0.17-0.813-0.107
					c-0.315,0.07-0.727,0.256-1.246,0.559c-0.525,0.305-0.85,0.547-0.97,0.729c-0.113,0.186-0.061,0.342,0.176,0.479
					c0.229,0.133,0.499,0.162,0.819,0.096c0.314-0.069,0.737-0.255,1.263-0.561c0.519-0.302,0.832-0.544,0.952-0.727
					C255.461,219.567,255.397,219.41,255.168,219.279 M258.84,221.332c-0.185-0.106-0.392-0.152-0.608-0.14
					c-0.218,0.021-0.453,0.097-0.692,0.236c-0.246,0.143-0.376,0.278-0.404,0.401c-0.022,0.126,0.059,0.246,0.242,0.352
					c0.189,0.109,0.396,0.156,0.614,0.143c0.212-0.017,0.446-0.092,0.692-0.235c0.239-0.14,0.37-0.276,0.404-0.401
					C259.11,221.56,259.029,221.441,258.84,221.332 M248.358,219.401l1.079-0.627l1.005,0.58l-1.079,0.628L248.358,219.401
					 M240.952,215.125l4.162-2.418l2.913,1.682l-0.81,0.471l-1.833-1.058l-0.775,0.45l1.724,0.996l-0.812,0.471l-1.723-0.995
					l-0.954,0.554l1.896,1.096l-0.811,0.471L240.952,215.125 M246.049,218.161c-0.546-0.315-0.783-0.663-0.717-1.049
					c0.062-0.382,0.432-0.77,1.105-1.161c0.686-0.398,1.4-0.614,2.145-0.641c0.744-0.026,1.415,0.137,2.025,0.488
					c0.189,0.109,0.361,0.229,0.511,0.348c0.156,0.123,0.288,0.252,0.409,0.389l-0.77,0.447c-0.093-0.152-0.202-0.282-0.317-0.395
					c-0.122-0.116-0.248-0.215-0.397-0.302c-0.322-0.187-0.667-0.278-1.021-0.278c-0.355,0-0.728,0.089-1.104,0.275
					c0.219,0.02,0.419,0.056,0.608,0.112c0.189,0.058,0.367,0.132,0.54,0.233c0.425,0.244,0.649,0.52,0.658,0.814
					c0.019,0.296-0.175,0.561-0.58,0.797c-0.446,0.258-0.955,0.381-1.516,0.368C247.065,218.595,246.543,218.445,246.049,218.161
					 M256.502,222.483c-0.424-0.246-0.649-0.521-0.662-0.813c-0.019-0.295,0.18-0.562,0.585-0.799
					c0.445-0.259,0.954-0.382,1.516-0.369c0.562,0.014,1.089,0.16,1.578,0.441c0.545,0.316,0.788,0.668,0.722,1.053
					c-0.067,0.385-0.437,0.771-1.104,1.16c-0.69,0.402-1.4,0.613-2.145,0.641c-0.743,0.027-1.415-0.136-2.03-0.49
					c-0.195-0.113-0.374-0.23-0.523-0.35s-0.282-0.248-0.397-0.381l0.771-0.447c0.093,0.146,0.196,0.278,0.312,0.391
					c0.121,0.117,0.259,0.215,0.414,0.305c0.317,0.184,0.655,0.279,1.01,0.279c0.361,0.004,0.732-0.093,1.11-0.279
					c-0.224-0.016-0.425-0.053-0.614-0.109C256.854,222.659,256.67,222.579,256.502,222.483 M251.588,221.358
					c-0.551-0.317-0.794-0.669-0.716-1.062c0.079-0.391,0.454-0.789,1.14-1.188c0.696-0.405,1.381-0.624,2.057-0.67
					c0.67-0.044,1.284,0.092,1.835,0.41c0.546,0.316,0.783,0.671,0.716,1.062c-0.084,0.389-0.459,0.786-1.155,1.19
					c-0.686,0.398-1.372,0.618-2.042,0.667C252.743,221.812,252.134,221.673,251.588,221.358 M273.036,224.012l-31.46-18.164
					l-10.881,6.323l31.46,18.164L273.036,224.012"/>
				<path clip-path="url(#SVGID_2_)" fill="#BED5E5" d="M200.674,197.571c-0.241-0.138-0.477-0.222-0.688-0.239
					c-0.218-0.013-0.424,0.034-0.612,0.143c-0.188,0.11-0.263,0.226-0.239,0.352c0.029,0.123,0.173,0.259,0.415,0.398
					c0.248,0.143,0.477,0.223,0.689,0.239c0.218,0.014,0.418-0.031,0.607-0.14c0.188-0.109,0.267-0.229,0.244-0.355
					C201.06,197.847,200.922,197.714,200.674,197.571 M205.477,193.896c-0.523-0.303-0.942-0.492-1.253-0.558
					c-0.315-0.062-0.584-0.033-0.818,0.103c-0.229,0.132-0.285,0.292-0.169,0.471c0.115,0.18,0.438,0.425,0.961,0.727
					c0.529,0.305,0.954,0.491,1.269,0.561c0.311,0.065,0.585,0.032,0.812-0.1c0.229-0.132,0.286-0.292,0.17-0.471
					C206.327,194.446,206.005,194.2,205.477,193.896 M195.584,200.017l0.959,0.554l1.885-1.095l0.815,0.471l-2.957,1.718
					l-4.189-2.418l2.9-1.685l0.816,0.471l-1.827,1.061l0.781,0.452l1.713-0.996l0.815,0.471L195.584,200.017 M198.269,197.631
					c0.028-0.122,0.089-0.239,0.188-0.348c0.102-0.114,0.233-0.216,0.405-0.316c0.422-0.245,0.891-0.372,1.4-0.381
					c0.515-0.007,0.973,0.106,1.382,0.342c0.448,0.259,0.662,0.553,0.641,0.878s-0.283,0.63-0.774,0.917
					c-0.536,0.311-1.143,0.451-1.807,0.411c-0.666-0.041-1.325-0.255-2.003-0.647c-0.689-0.398-1.064-0.812-1.111-1.245
					c-0.054-0.428,0.224-0.816,0.83-1.167c0.193-0.114,0.388-0.212,0.604-0.299c0.211-0.089,0.434-0.166,0.669-0.235l0.776,0.447
					c-0.264,0.053-0.492,0.113-0.692,0.183c-0.194,0.065-0.365,0.145-0.514,0.232c-0.319,0.186-0.48,0.378-0.478,0.59
					C197.785,197.199,197.947,197.412,198.269,197.631 M202.56,196.762l1.005-0.584l1.085,0.627l-1.005,0.583L202.56,196.762
					 M203.13,195.265c-0.695-0.401-1.082-0.795-1.164-1.187c-0.077-0.389,0.156-0.744,0.703-1.062
					c0.549-0.319,1.161-0.455,1.832-0.412c0.677,0.047,1.358,0.27,2.054,0.671c0.695,0.401,1.082,0.796,1.164,1.187
					c0.077,0.389-0.155,0.743-0.704,1.062c-0.548,0.318-1.16,0.454-1.831,0.411C204.507,195.89,203.825,195.667,203.13,195.265
					 M205.293,191.812l0.763-0.677l1.022-0.594l3.442,1.987l0.946-0.55l0.747,0.431l-2.91,1.691l-0.747-0.431l0.947-0.551
					l-2.707-1.562l-0.77,0.681L205.293,191.812 M297.487,168.429l-49.037-28.312l-147.1,85.485l49.043,28.31L297.487,168.429"/>
				<path clip-path="url(#SVGID_2_)" fill="#BFBFBF" d="M288.558,207.889c-0.241-0.139-0.476-0.216-0.694-0.235
					c-0.218-0.013-0.418,0.029-0.612,0.142c-0.188,0.11-0.262,0.226-0.239,0.353c0.034,0.125,0.173,0.258,0.414,0.397
					c0.248,0.143,0.477,0.223,0.688,0.239c0.224,0.018,0.418-0.03,0.606-0.14c0.195-0.112,0.274-0.225,0.245-0.354
					C288.938,208.168,288.805,208.031,288.558,207.889 M293.354,204.216c-0.524-0.302-0.937-0.488-1.253-0.557
					c-0.309-0.066-0.577-0.029-0.812,0.106c-0.229,0.132-0.291,0.288-0.175,0.467c0.121,0.184,0.437,0.425,0.96,0.728
					c0.529,0.305,0.954,0.49,1.27,0.561c0.315,0.069,0.589,0.036,0.818-0.096c0.235-0.136,0.287-0.292,0.165-0.475
					C294.21,204.763,293.884,204.521,293.354,204.216 M283.463,210.337l0.959,0.554l1.884-1.095l0.815,0.471l-2.958,1.719
					l-4.188-2.418l2.899-1.686l0.816,0.472l-1.827,1.062l0.781,0.451l1.719-0.999l0.815,0.471L283.463,210.337 M286.146,207.952
					c0.028-0.122,0.097-0.242,0.193-0.352c0.097-0.109,0.228-0.213,0.399-0.312c0.423-0.245,0.891-0.371,1.407-0.378
					c0.51-0.01,0.968,0.103,1.377,0.338c0.448,0.259,0.662,0.555,0.64,0.879c-0.021,0.325-0.283,0.63-0.773,0.916
					c-0.537,0.312-1.143,0.451-1.809,0.412c-0.652-0.041-1.324-0.256-2.002-0.647c-0.688-0.397-1.063-0.812-1.112-1.244
					c-0.054-0.428,0.23-0.82,0.83-1.168c0.195-0.112,0.394-0.208,0.606-0.298c0.211-0.089,0.434-0.166,0.668-0.235l0.776,0.448
					c-0.264,0.053-0.486,0.116-0.687,0.186c-0.193,0.065-0.371,0.142-0.52,0.229c-0.319,0.186-0.473,0.381-0.473,0.587
					C285.663,207.521,285.826,207.733,286.146,207.952 M290.438,207.083l1.004-0.584l1.086,0.627l-1.004,0.584L290.438,207.083
					 M291.014,205.589c-0.701-0.404-1.087-0.799-1.17-1.191c-0.076-0.389,0.157-0.743,0.705-1.062
					c0.548-0.318,1.16-0.454,1.83-0.411c0.676,0.047,1.359,0.269,2.06,0.673c0.689,0.399,1.075,0.794,1.158,1.184
					c0.083,0.392-0.157,0.744-0.704,1.062c-0.548,0.319-1.154,0.458-1.831,0.412C292.387,206.21,291.703,205.988,291.014,205.589
					 M296.917,201.96c0.352-0.12,0.69-0.169,1.017-0.153c0.326,0.023,0.632,0.112,0.907,0.271c0.414,0.24,0.575,0.512,0.474,0.823
					c-0.095,0.309-0.455,0.637-1.061,0.989c-0.21,0.122-0.444,0.239-0.688,0.341c-0.254,0.107-0.517,0.2-0.796,0.283l-0.834-0.481
					c0.305-0.056,0.579-0.128,0.831-0.215c0.245-0.083,0.468-0.18,0.662-0.293c0.288-0.165,0.451-0.321,0.502-0.464
					c0.051-0.148-0.012-0.272-0.202-0.382c-0.19-0.109-0.409-0.149-0.659-0.116c-0.256,0.037-0.538,0.14-0.841,0.316l-0.427,0.249
					l-0.697-0.401l0.453-0.262c0.268-0.156,0.428-0.296,0.479-0.425c0.044-0.126-0.019-0.235-0.197-0.338
					c-0.161-0.093-0.344-0.126-0.567-0.102c-0.213,0.023-0.437,0.105-0.669,0.242c-0.172,0.1-0.332,0.212-0.469,0.338
					c-0.129,0.123-0.249,0.258-0.353,0.404l-0.792-0.457c0.154-0.156,0.319-0.306,0.502-0.446c0.176-0.135,0.365-0.265,0.563-0.38
					c0.544-0.315,1.042-0.498,1.488-0.551c0.446-0.053,0.848,0.027,1.203,0.232c0.247,0.142,0.386,0.295,0.41,0.46
					C297.183,201.605,297.103,201.778,296.917,201.96 M334.822,208.356l-48.94-28.255l-39.546,22.981l48.94,28.255L334.822,208.356"
					/>
				<polygon clip-path="url(#SVGID_2_)" fill="#BFBFBF" points="350.682,199.14 301.74,170.884 290.534,177.396 339.475,205.652 
									"/>
				<polygon clip-path="url(#SVGID_2_)" fill="#FFFFFF" points="248.026,214.388 245.113,212.707 240.952,215.125 243.928,216.843 
					244.739,216.373 242.843,215.277 243.796,214.723 245.52,215.718 246.331,215.248 244.607,214.251 245.383,213.801 
					247.216,214.859 				"/>
				<path clip-path="url(#SVGID_2_)" fill="#FFFFFF" d="M246.733,217.775c-0.189-0.109-0.275-0.225-0.242-0.352
					c0.022-0.126,0.158-0.259,0.404-0.4c0.241-0.141,0.468-0.219,0.692-0.236c0.211-0.017,0.417,0.03,0.607,0.139
					c0.19,0.11,0.271,0.229,0.243,0.352c-0.027,0.131-0.164,0.264-0.405,0.402c-0.245,0.143-0.474,0.223-0.691,0.235
					C247.124,217.935,246.925,217.884,246.733,217.775 M250.606,215.798c-0.609-0.352-1.28-0.515-2.025-0.488
					c-0.745,0.026-1.459,0.242-2.144,0.641c-0.674,0.391-1.044,0.779-1.104,1.161c-0.068,0.386,0.17,0.733,0.715,1.049
					c0.494,0.284,1.016,0.435,1.578,0.447c0.561,0.013,1.07-0.11,1.516-0.368c0.405-0.236,0.6-0.501,0.581-0.797
					c-0.008-0.295-0.233-0.57-0.658-0.814c-0.173-0.102-0.351-0.176-0.54-0.233c-0.189-0.057-0.39-0.093-0.607-0.112
					c0.377-0.187,0.749-0.275,1.103-0.275c0.355,0,0.7,0.092,1.021,0.278c0.149,0.087,0.276,0.186,0.397,0.302
					c0.115,0.112,0.224,0.242,0.318,0.395l0.77-0.447c-0.121-0.137-0.253-0.266-0.409-0.389
					C250.968,216.027,250.795,215.908,250.606,215.798"/>
				<polygon clip-path="url(#SVGID_2_)" fill="#FFFFFF" points="250.443,219.354 249.438,218.774 248.358,219.401 249.364,219.982 
									"/>
				<path clip-path="url(#SVGID_2_)" fill="#FFFFFF" d="M252.313,220.937c-0.235-0.137-0.288-0.293-0.174-0.479
					c0.119-0.182,0.445-0.424,0.97-0.729c0.52-0.303,0.931-0.488,1.245-0.559c0.315-0.062,0.578-0.029,0.815,0.107
					c0.229,0.131,0.293,0.288,0.18,0.467c-0.12,0.183-0.433,0.425-0.953,0.727c-0.525,0.306-0.948,0.491-1.263,0.561
					C252.812,221.099,252.544,221.07,252.313,220.937 M255.904,218.849c-0.551-0.318-1.166-0.454-1.835-0.41
					c-0.676,0.046-1.362,0.265-2.059,0.67c-0.685,0.398-1.06,0.797-1.139,1.188c-0.078,0.393,0.165,0.744,0.716,1.062
					c0.546,0.315,1.154,0.454,1.835,0.411c0.67-0.049,1.356-0.269,2.042-0.667c0.696-0.404,1.071-0.802,1.155-1.19
					C256.688,219.52,256.45,219.166,255.904,218.849"/>
				<path clip-path="url(#SVGID_2_)" fill="#FFFFFF" d="M257.377,222.181c-0.184-0.105-0.265-0.226-0.242-0.352
					c0.028-0.123,0.158-0.259,0.404-0.401c0.24-0.14,0.475-0.216,0.692-0.236c0.218-0.013,0.424,0.032,0.608,0.14
					c0.189,0.109,0.27,0.229,0.248,0.355c-0.034,0.125-0.165,0.262-0.404,0.4c-0.246,0.144-0.479,0.22-0.692,0.236
					C257.774,222.337,257.567,222.291,257.377,222.181 M259.519,220.943c-0.488-0.281-1.016-0.428-1.578-0.441
					c-0.561-0.013-1.07,0.11-1.516,0.369c-0.405,0.235-0.604,0.504-0.585,0.799c0.012,0.293,0.237,0.567,0.662,0.813
					c0.167,0.096,0.351,0.176,0.541,0.231c0.188,0.057,0.39,0.094,0.613,0.109c-0.378,0.187-0.749,0.283-1.11,0.279
					c-0.354,0-0.693-0.096-1.01-0.279c-0.155-0.09-0.293-0.188-0.414-0.305c-0.115-0.112-0.218-0.245-0.31-0.391l-0.771,0.445
					c0.115,0.135,0.248,0.264,0.397,0.383s0.327,0.236,0.524,0.35c0.615,0.354,1.286,0.518,2.029,0.49
					c0.745-0.027,1.455-0.238,2.145-0.641c0.668-0.389,1.038-0.775,1.104-1.16S260.064,221.259,259.519,220.943"/>
				<polygon clip-path="url(#SVGID_2_)" fill="#FFFFFF" points="233.857,222.623 230.944,220.939 226.781,223.359 229.759,225.079 
					230.57,224.607 228.673,223.511 229.626,222.958 231.35,223.954 232.161,223.482 230.438,222.486 231.213,222.035 
					233.047,223.093 				"/>
				<path clip-path="url(#SVGID_2_)" fill="#FFFFFF" d="M232.565,226.009c-0.19-0.109-0.271-0.229-0.243-0.352
					c0.028-0.129,0.165-0.262,0.405-0.4c0.246-0.144,0.474-0.223,0.691-0.236c0.211-0.017,0.418,0.029,0.607,0.139
					c0.19,0.11,0.27,0.23,0.242,0.352c-0.021,0.127-0.157,0.259-0.404,0.402c-0.239,0.14-0.468,0.219-0.691,0.235
					C232.96,226.166,232.755,226.119,232.565,226.009 M236.442,224.029c-0.609-0.352-1.286-0.51-2.029-0.484
					c-0.746,0.027-1.454,0.24-2.145,0.641c-0.667,0.389-1.039,0.775-1.104,1.162c-0.066,0.383,0.17,0.732,0.716,1.047
					c0.494,0.285,1.021,0.432,1.583,0.445c0.562,0.013,1.066-0.107,1.51-0.365c0.405-0.235,0.599-0.501,0.586-0.8
					c-0.014-0.292-0.239-0.567-0.664-0.813c-0.173-0.099-0.351-0.176-0.54-0.231s-0.39-0.093-0.608-0.112
					c0.383-0.189,0.754-0.279,1.11-0.279c0.354,0,0.693,0.096,1.016,0.283c0.149,0.086,0.281,0.182,0.402,0.297
					c0.115,0.113,0.22,0.246,0.318,0.395l0.765-0.443c-0.115-0.14-0.248-0.27-0.404-0.393
					C236.805,224.257,236.631,224.138,236.442,224.029"/>
				<polygon clip-path="url(#SVGID_2_)" fill="#FFFFFF" points="236.273,227.588 235.268,227.007 234.189,227.635 235.194,228.216 
									"/>
				<path clip-path="url(#SVGID_2_)" fill="#FFFFFF" d="M238.149,229.167c-0.235-0.136-0.288-0.291-0.175-0.478
					c0.114-0.179,0.439-0.421,0.971-0.729c0.52-0.304,0.932-0.487,1.24-0.556c0.315-0.062,0.584-0.033,0.82,0.104
					c0.229,0.132,0.288,0.292,0.173,0.471c-0.112,0.18-0.427,0.422-0.947,0.723c-0.531,0.31-0.953,0.496-1.263,0.561
					C238.648,229.331,238.379,229.3,238.149,229.167 M241.741,227.081c-0.551-0.318-1.166-0.454-1.841-0.407
					c-0.669,0.043-1.362,0.265-2.052,0.666c-0.69,0.402-1.066,0.801-1.139,1.189c-0.078,0.391,0.159,0.746,0.711,1.063
					c0.546,0.315,1.159,0.451,1.841,0.409c0.664-0.048,1.351-0.267,2.041-0.668c0.691-0.4,1.072-0.803,1.151-1.188
					C242.523,227.751,242.286,227.396,241.741,227.081"/>
				<path clip-path="url(#SVGID_2_)" fill="#FFFFFF" d="M241.879,231.387c-0.19-0.11-0.265-0.226-0.242-0.352
					c0.033-0.126,0.169-0.259,0.41-0.397c0.246-0.145,0.474-0.223,0.687-0.24c0.217-0.013,0.417,0.03,0.607,0.141
					c0.189,0.108,0.27,0.229,0.249,0.354c-0.028,0.122-0.165,0.255-0.411,0.398c-0.24,0.139-0.469,0.219-0.686,0.238
					C242.275,231.542,242.069,231.498,241.879,231.387 M245.756,229.408c-0.608-0.352-1.285-0.512-2.029-0.486
					c-0.739,0.031-1.454,0.24-2.145,0.641c-0.667,0.389-1.038,0.777-1.104,1.162s0.176,0.736,0.717,1.048
					c0.493,0.286,1.026,0.435,1.588,0.448s1.065-0.105,1.51-0.365c0.405-0.236,0.599-0.5,0.585-0.799
					c-0.019-0.295-0.238-0.568-0.668-0.816c-0.167-0.096-0.35-0.178-0.539-0.232c-0.189-0.057-0.391-0.094-0.602-0.109
					c0.382-0.189,0.749-0.283,1.103-0.283c0.361,0.004,0.694,0.098,1.017,0.283c0.149,0.086,0.287,0.186,0.401,0.299
					c0.121,0.115,0.225,0.248,0.324,0.397l0.764-0.444c-0.114-0.141-0.253-0.273-0.402-0.391
					C246.119,229.636,245.952,229.519,245.756,229.408"/>
				<polygon clip-path="url(#SVGID_2_)" fill="#FFFFFF" points="249.361,276.48 246.448,274.798 242.287,277.216 245.262,278.936 
					246.079,278.46 244.183,277.365 245.136,276.812 246.859,277.808 247.671,277.335 245.947,276.341 246.717,275.892 
					248.551,276.952 				"/>
				<path clip-path="url(#SVGID_2_)" fill="#FFFFFF" d="M248.069,279.868c-0.19-0.11-0.265-0.226-0.243-0.353
					c0.033-0.125,0.17-0.26,0.41-0.398c0.245-0.143,0.475-0.223,0.686-0.238c0.223-0.016,0.418,0.03,0.607,0.139
					c0.19,0.11,0.276,0.227,0.248,0.355c-0.027,0.123-0.163,0.256-0.409,0.398c-0.239,0.139-0.469,0.219-0.686,0.239
					C248.464,280.023,248.258,279.976,248.069,279.868 M251.946,277.886c-0.608-0.352-1.285-0.51-2.03-0.484
					c-0.732,0.027-1.454,0.24-2.144,0.641c-0.667,0.387-1.039,0.777-1.104,1.162c-0.067,0.385,0.175,0.736,0.715,1.047
					c0.494,0.286,1.029,0.436,1.589,0.449c0.562,0.013,1.07-0.11,1.515-0.369c0.401-0.232,0.594-0.498,0.581-0.796
					c-0.014-0.299-0.237-0.567-0.669-0.817c-0.167-0.096-0.349-0.176-0.538-0.231c-0.185-0.06-0.391-0.093-0.597-0.112
					c0.376-0.186,0.743-0.279,1.099-0.279c0.36,0.004,0.699,0.094,1.021,0.279c0.148,0.086,0.281,0.189,0.396,0.301
					c0.122,0.117,0.225,0.25,0.323,0.398l0.765-0.444c-0.115-0.14-0.253-0.271-0.402-0.392
					C252.309,278.117,252.142,278,251.946,277.886"/>
				<polygon clip-path="url(#SVGID_2_)" fill="#FFFFFF" points="251.79,281.447 250.778,280.863 249.692,281.493 250.704,282.078 
									"/>
				<path clip-path="url(#SVGID_2_)" fill="#FFFFFF" d="M253.653,283.025c-0.229-0.132-0.288-0.291-0.168-0.475
					c0.12-0.182,0.438-0.428,0.963-0.732c0.52-0.303,0.936-0.484,1.246-0.551c0.314-0.07,0.584-0.033,0.814,0.1
					c0.234,0.136,0.293,0.289,0.174,0.472c-0.113,0.179-0.428,0.421-0.946,0.724c-0.525,0.305-0.949,0.49-1.264,0.561
					C254.158,283.192,253.884,283.158,253.653,283.025 M257.244,280.939c-0.55-0.318-1.165-0.454-1.84-0.408
					c-0.67,0.043-1.356,0.269-2.046,0.67c-0.69,0.402-1.073,0.797-1.145,1.184c-0.077,0.393,0.158,0.748,0.71,1.066
					c0.551,0.318,1.166,0.453,1.841,0.407c0.67-0.043,1.35-0.266,2.04-0.666c0.691-0.401,1.079-0.8,1.151-1.188
					C258.033,281.613,257.796,281.257,257.244,280.939"/>
				<path clip-path="url(#SVGID_2_)" fill="#FFFFFF" d="M262.17,283.875l-2.683-1.549l-2.342,1.359
					c0.287,0.066,0.539,0.141,0.752,0.216c0.218,0.08,0.401,0.166,0.557,0.256c0.258,0.149,0.401,0.306,0.426,0.465
					c0.029,0.163-0.068,0.306-0.291,0.435c-0.217,0.125-0.463,0.183-0.744,0.166c-0.281-0.01-0.55-0.094-0.809-0.242
					c-0.184-0.105-0.339-0.235-0.482-0.392c-0.139-0.159-0.254-0.339-0.353-0.548l-0.844,0.492c0.132,0.188,0.294,0.36,0.484,0.523
					c0.184,0.158,0.397,0.309,0.637,0.447c0.546,0.316,1.109,0.489,1.67,0.521c0.568,0.029,1.072-0.083,1.522-0.346
					c0.456-0.265,0.667-0.554,0.636-0.862c-0.036-0.312-0.302-0.617-0.813-0.913c-0.092-0.053-0.185-0.099-0.275-0.139
					c-0.104-0.04-0.2-0.076-0.298-0.113l0.639-0.371l1.823,1.052L262.17,283.875"/>
				<polygon clip-path="url(#SVGID_2_)" fill="#FFFFFF" points="199.245,199.947 198.428,199.476 196.544,200.57 195.585,200.017 
					197.297,199.021 196.481,198.55 194.769,199.545 193.988,199.094 195.813,198.033 194.999,197.562 192.099,199.247 
					196.287,201.665 				"/>
				<path clip-path="url(#SVGID_2_)" fill="#FFFFFF" d="M199.549,198.225c-0.241-0.139-0.385-0.275-0.414-0.397
					c-0.023-0.126,0.051-0.243,0.239-0.352c0.189-0.11,0.394-0.156,0.612-0.143c0.212,0.017,0.447,0.1,0.688,0.239
					c0.248,0.143,0.386,0.275,0.415,0.398c0.023,0.126-0.056,0.246-0.244,0.355c-0.189,0.109-0.388,0.152-0.606,0.139
					C200.026,198.447,199.797,198.368,199.549,198.225 M201.644,196.928c-0.409-0.236-0.866-0.348-1.382-0.342
					c-0.509,0.01-0.978,0.136-1.4,0.381c-0.172,0.1-0.304,0.203-0.405,0.315c-0.097,0.11-0.159,0.226-0.188,0.348
					c-0.322-0.219-0.484-0.431-0.485-0.637c-0.002-0.212,0.159-0.405,0.478-0.591c0.148-0.086,0.319-0.166,0.514-0.232
					c0.201-0.07,0.429-0.129,0.692-0.182l-0.776-0.448c-0.235,0.069-0.458,0.146-0.668,0.236c-0.218,0.085-0.412,0.185-0.605,0.298
					c-0.606,0.352-0.884,0.74-0.83,1.168c0.049,0.431,0.423,0.846,1.113,1.244c0.677,0.392,1.336,0.607,2.002,0.647
					c0.665,0.04,1.271-0.1,1.807-0.411c0.491-0.286,0.753-0.591,0.774-0.916C202.306,197.481,202.092,197.187,201.644,196.928"/>
				<polygon clip-path="url(#SVGID_2_)" fill="#FFFFFF" points="204.65,196.805 203.564,196.177 202.559,196.762 203.646,197.388 
									"/>
				<path clip-path="url(#SVGID_2_)" fill="#FFFFFF" d="M204.197,194.639c-0.523-0.302-0.846-0.547-0.961-0.726
					c-0.115-0.18-0.059-0.338,0.169-0.472c0.233-0.136,0.503-0.166,0.818-0.103c0.311,0.067,0.73,0.256,1.252,0.558
					c0.529,0.305,0.851,0.551,0.972,0.733c0.115,0.179,0.059,0.338-0.17,0.471c-0.228,0.132-0.502,0.166-0.812,0.1
					C205.151,195.13,204.726,194.944,204.197,194.639 M206.555,193.275c-0.695-0.401-1.377-0.624-2.054-0.671
					c-0.67-0.043-1.282,0.093-1.83,0.412c-0.548,0.318-0.781,0.673-0.704,1.062c0.082,0.392,0.468,0.786,1.164,1.187
					c0.695,0.401,1.378,0.625,2.055,0.67c0.669,0.043,1.281-0.093,1.829-0.411c0.549-0.318,0.781-0.673,0.704-1.062
					C207.637,194.071,207.25,193.677,206.555,193.275"/>
				<polygon clip-path="url(#SVGID_2_)" fill="#FFFFFF" points="212.214,192.409 211.467,191.978 210.52,192.529 207.078,190.542 
					206.057,191.135 205.292,191.812 206.028,192.237 206.797,191.557 209.503,193.119 208.556,193.67 209.303,194.101 				"/>
				<polygon clip-path="url(#SVGID_2_)" fill="#FFFFFF" points="287.122,210.267 286.307,209.796 284.422,210.89 283.463,210.337 
					285.181,209.338 284.366,208.868 282.646,209.866 281.865,209.415 283.692,208.353 282.876,207.882 279.977,209.568 
					284.165,211.986 				"/>
				<path clip-path="url(#SVGID_2_)" fill="#FFFFFF" d="M287.427,208.545c-0.241-0.139-0.38-0.271-0.414-0.397
					c-0.023-0.127,0.051-0.243,0.239-0.353c0.193-0.113,0.394-0.155,0.612-0.142c0.218,0.02,0.453,0.096,0.694,0.235
					c0.248,0.143,0.381,0.278,0.41,0.402c0.029,0.129-0.05,0.242-0.245,0.354c-0.188,0.11-0.382,0.157-0.606,0.14
					C287.904,208.767,287.675,208.688,287.427,208.545 M289.522,207.248c-0.409-0.236-0.867-0.349-1.377-0.338
					c-0.516,0.007-0.984,0.133-1.407,0.378c-0.171,0.1-0.302,0.204-0.399,0.312c-0.097,0.11-0.166,0.229-0.193,0.352
					c-0.321-0.218-0.483-0.431-0.479-0.641c0-0.206,0.154-0.401,0.473-0.587c0.148-0.086,0.326-0.163,0.52-0.229
					c0.201-0.07,0.423-0.133,0.687-0.186l-0.776-0.448c-0.235,0.07-0.457,0.146-0.668,0.236c-0.212,0.09-0.411,0.186-0.605,0.298
					c-0.6,0.349-0.884,0.74-0.83,1.168c0.049,0.431,0.424,0.846,1.113,1.244c0.678,0.392,1.35,0.606,2.002,0.647
					c0.666,0.04,1.272-0.1,1.809-0.412c0.49-0.286,0.752-0.591,0.773-0.916C290.184,207.803,289.971,207.507,289.522,207.248"/>
				<polygon clip-path="url(#SVGID_2_)" fill="#FFFFFF" points="292.528,207.125 291.442,206.499 290.438,207.083 291.524,207.709 
									"/>
				<path clip-path="url(#SVGID_2_)" fill="#FFFFFF" d="M292.076,204.96c-0.524-0.302-0.84-0.544-0.961-0.728
					c-0.116-0.179-0.053-0.335,0.175-0.467c0.234-0.137,0.503-0.173,0.812-0.107c0.316,0.07,0.729,0.256,1.253,0.558
					c0.529,0.305,0.855,0.547,0.971,0.732c0.123,0.183,0.071,0.338-0.164,0.474c-0.229,0.133-0.502,0.167-0.818,0.097
					C293.028,205.45,292.604,205.265,292.076,204.96 M294.438,203.599c-0.701-0.405-1.384-0.626-2.06-0.673
					c-0.67-0.043-1.282,0.093-1.831,0.411c-0.548,0.319-0.781,0.673-0.704,1.062c0.082,0.392,0.468,0.786,1.169,1.19
					c0.689,0.398,1.373,0.62,2.048,0.667c0.677,0.045,1.282-0.093,1.831-0.412c0.547-0.318,0.787-0.67,0.704-1.062
					S295.128,203.997,294.438,203.599"/>
				<path clip-path="url(#SVGID_2_)" fill="#FFFFFF" d="M298.841,202.079c-0.276-0.159-0.581-0.248-0.907-0.271
					c-0.326-0.016-0.664,0.033-1.019,0.153c0.188-0.183,0.268-0.355,0.238-0.519c-0.023-0.166-0.163-0.318-0.409-0.46
					c-0.357-0.205-0.759-0.286-1.206-0.232c-0.444,0.053-0.943,0.236-1.485,0.551c-0.199,0.116-0.388,0.246-0.563,0.382
					c-0.184,0.139-0.349,0.289-0.502,0.445l0.793,0.458c0.102-0.146,0.223-0.282,0.354-0.405c0.135-0.126,0.296-0.238,0.466-0.338
					c0.235-0.136,0.458-0.219,0.669-0.242c0.223-0.023,0.406,0.01,0.568,0.103c0.177,0.103,0.243,0.212,0.197,0.338
					c-0.051,0.13-0.211,0.269-0.478,0.425l-0.452,0.262l0.694,0.401l0.429-0.249c0.303-0.177,0.582-0.279,0.839-0.315
					c0.252-0.034,0.47,0.006,0.66,0.115c0.191,0.11,0.254,0.233,0.202,0.381c-0.049,0.143-0.216,0.299-0.501,0.464
					c-0.193,0.113-0.417,0.209-0.663,0.293c-0.251,0.086-0.526,0.159-0.831,0.215l0.833,0.481c0.281-0.083,0.544-0.175,0.795-0.282
					c0.246-0.104,0.479-0.22,0.692-0.342c0.604-0.352,0.964-0.681,1.058-0.988C299.416,202.59,299.255,202.319,298.841,202.079"/>
				<polygon clip-path="url(#SVGID_2_)" fill="#FFFFFF" points="309.83,249.587 309.016,249.117 307.13,250.21 306.17,249.658 
					307.891,248.659 307.072,248.187 305.354,249.186 304.572,248.735 306.4,247.673 305.584,247.201 302.686,248.887 
					306.873,251.306 				"/>
				<path clip-path="url(#SVGID_2_)" fill="#FFFFFF" d="M310.136,247.866c-0.243-0.14-0.379-0.272-0.409-0.401
					c-0.029-0.123,0.049-0.242,0.233-0.348c0.193-0.113,0.394-0.157,0.61-0.145c0.219,0.021,0.453,0.098,0.695,0.236
					c0.246,0.143,0.38,0.279,0.408,0.401c0.024,0.126-0.049,0.241-0.244,0.355c-0.184,0.106-0.387,0.151-0.6,0.136
					C310.611,248.088,310.382,248.008,310.136,247.866 M312.229,246.568c-0.405-0.234-0.866-0.348-1.374-0.338
					c-0.517,0.006-0.985,0.133-1.409,0.378c-0.17,0.1-0.303,0.203-0.396,0.312c-0.098,0.109-0.166,0.229-0.195,0.352
					c-0.321-0.219-0.482-0.431-0.478-0.641c-0.007-0.209,0.151-0.4,0.47-0.586c0.15-0.087,0.323-0.166,0.521-0.229
					c0.195-0.074,0.422-0.133,0.688-0.186l-0.777-0.449c-0.232,0.07-0.457,0.146-0.668,0.236c-0.206,0.086-0.411,0.186-0.604,0.299
					c-0.599,0.348-0.886,0.738-0.831,1.167c0.049,0.432,0.424,0.847,1.112,1.245c0.679,0.391,1.343,0.604,2.009,0.643
					c0.658,0.043,1.266-0.096,1.803-0.408c0.49-0.285,0.752-0.59,0.773-0.916C312.891,247.123,312.678,246.828,312.229,246.568"/>
				<polygon clip-path="url(#SVGID_2_)" fill="#FFFFFF" points="315.236,246.445 314.15,245.819 313.146,246.402 314.231,247.029 
									"/>
				<path clip-path="url(#SVGID_2_)" fill="#FFFFFF" d="M314.783,244.279c-0.523-0.301-0.842-0.544-0.961-0.727
					c-0.115-0.179-0.06-0.338,0.17-0.471c0.234-0.136,0.508-0.17,0.816-0.103c0.317,0.069,0.731,0.255,1.254,0.558
					c0.527,0.305,0.856,0.547,0.973,0.732c0.121,0.182,0.064,0.335-0.172,0.471c-0.228,0.133-0.496,0.17-0.811,0.1
					C315.736,244.771,315.312,244.583,314.783,244.279 M317.141,242.916c-0.694-0.401-1.379-0.623-2.053-0.67
					c-0.67-0.043-1.283,0.093-1.832,0.411c-0.549,0.319-0.781,0.674-0.704,1.062c0.081,0.393,0.468,0.787,1.163,1.188
					c0.695,0.4,1.379,0.623,2.057,0.669c0.668,0.043,1.28-0.092,1.83-0.41c0.546-0.318,0.781-0.674,0.704-1.062
					C318.221,243.712,317.835,243.316,317.141,242.916"/>
				<path clip-path="url(#SVGID_2_)" fill="#FFFFFF" d="M318.6,242.7l-0.575-1.694l1.753,1.012L318.6,242.7z M322.168,241.533
					l-0.781-0.451l-0.594,0.345l-2.646-1.526l-1.19,0.693l0.832,2.412l0.924,0.533l1.845-1.07l0.765,0.44l1.016-0.591l-0.764-0.441
					L322.168,241.533"/>
				<polygon clip-path="url(#SVGID_2_)" fill="#BFBFBF" points="290.515,234.104 277.224,226.431 247.436,243.742 211.786,223.16 
					154.641,256.369 203.558,284.605 				"/>
			</g>
		</g>
	</g>
</g>
<g>
	<g>
		<g enable-background="new    ">
			<defs>
				<polygon id="SVGID_3_" enable-background="new    " points="182.802,243.46 189.627,239.494 196.503,243.463 189.678,247.43 
									"/>
			</defs>
			<clipPath id="SVGID_4_">
				<use xlink:href="#SVGID_3_"  overflow="visible"/>
			</clipPath>
			<g clip-path="url(#SVGID_4_)">
				<g>
					<g>
						<g>
							<polyline fill="#FFFFFF" points="191.364,240.497 189.627,239.494 182.802,243.46 186.23,245.44 189.678,247.43 
								191.403,246.427 189.686,245.436 191.386,244.448 189.675,243.46 191.375,242.472 189.664,241.484 191.364,240.497 							
								"/>
						</g>
					</g>
				</g>
			</g>
		</g>
	</g>
</g>
<g>
	<polygon fill="#EC7404" stroke="#FFFFFF" stroke-width="0.5" points="312.837,-23.968 316.249,-23.968 314.68,-12.192 	"/>
	<circle fill="#EC7404" cx="314.543" cy="-33" r="9.731"/>
	<polygon fill="none" stroke="#FFFFFF" stroke-width="0.5" points="318.413,-35.826 314.543,-40.501 310.674,-35.826 
		312.627,-35.826 312.627,-30.704 316.46,-30.704 316.46,-35.826 	"/>
	<text transform="matrix(1 0 0 1 312.876 -25.1196)" fill="#FFFFFF" font-family="'DejaVuSansCondensed-Bold'" font-size="5">€</text>
</g>
<g>
	<polygon fill="#EC7404" stroke="#FFFFFF" stroke-width="0.5" points="338.409,-23.968 341.822,-23.968 340.252,-12.192 	"/>
	<circle fill="#EC7404" cx="340.116" cy="-33" r="9.731"/>
	<polygon fill="none" stroke="#FFFFFF" stroke-width="0.5" points="343.985,-35.826 340.115,-40.501 336.246,-35.826 
		338.199,-35.826 338.199,-30.704 342.032,-30.704 342.032,-35.826 	"/>
	<rect x="338.429" y="-29.443" fill="none" width="8" height="3.833"/>
	<text transform="matrix(1 0 0 1 338.4297 -25.6436)" fill="#FFFFFF" font-family="'DejaVuSansCondensed-Bold'" font-size="5">P</text>
</g>
<g>
	<polygon fill="#EC7404" stroke="#FFFFFF" stroke-width="0.5" points="363.981,-23.968 367.394,-23.968 365.824,-12.192 	"/>
	<circle fill="#EC7404" cx="365.688" cy="-33" r="9.731"/>
	<polygon fill="none" stroke="#FFFFFF" stroke-width="0.5" points="369.558,-35.826 365.688,-40.501 361.818,-35.826 
		363.771,-35.826 363.771,-30.704 367.604,-30.704 367.604,-35.826 	"/>
	<rect x="360.819" y="-29.442" fill="none" width="8" height="3.833"/>
	<text transform="matrix(1 0 0 1 360.8203 -25.6436)" fill="#FFFFFF" font-family="'DejaVuSansCondensed-Bold'" font-size="5"> EC</text>
</g>
<g>
	<polygon fill="#EC7404" stroke="#FFFFFF" stroke-width="0.5" points="415.003,-23.991 418.417,-23.991 416.847,-12.215 	"/>
	<g>
		<circle fill="#EC7404" cx="416.71" cy="-33" r="9.731"/>
		<g>
			<g>
				<path fill="none" stroke="#FFFFFF" stroke-width="0.5" d="M421.197-29.081c0,0.312-0.255,0.567-0.567,0.567h-7.839
					c-0.312,0-0.567-0.255-0.567-0.567v-7.84c0-0.312,0.255-0.567,0.567-0.567h7.839c0.312,0,0.567,0.255,0.567,0.567V-29.081z"/>
			</g>
			<polygon fill="#FFFFFF" points="413.152,-32.975 415.846,-29.744 420.287,-36.475 415.608,-31.057 			"/>
		</g>
	</g>
</g>
<g>
	<polygon fill="#EC7404" stroke="#FFFFFF" stroke-width="0.5" points="440.863,-23.991 444.277,-23.991 442.707,-12.215 	"/>
	<circle fill="#EC7404" cx="442.571" cy="-33" r="9.731"/>
	<g>
		<g>
			<path fill="#EC7404" d="M446.946-31.146c0,0.312-0.255,0.567-0.567,0.567h-9.54c-0.312,0-0.567-0.255-0.567-0.567V-36.6
				c0-0.312,0.255-0.567,0.567-0.567h9.54c0.312,0,0.567,0.255,0.567,0.567V-31.146z"/>
			<path fill="none" stroke="#FFFFFF" stroke-width="0.5" d="M446.946-31.146c0,0.312-0.255,0.567-0.567,0.567h-9.54
				c-0.312,0-0.567-0.255-0.567-0.567V-36.6c0-0.312,0.255-0.567,0.567-0.567h9.54c0.312,0,0.567,0.255,0.567,0.567V-31.146z"/>
		</g>
		<g>
			<path fill="#EC7404" d="M448.87-29.223c0,0.312-0.255,0.567-0.567,0.567h-9.54c-0.312,0-0.567-0.255-0.567-0.567v-5.454
				c0-0.312,0.255-0.567,0.567-0.567h9.54c0.312,0,0.567,0.255,0.567,0.567V-29.223z"/>
			<path fill="none" stroke="#FFFFFF" stroke-width="0.5" d="M448.87-29.223c0,0.312-0.255,0.567-0.567,0.567h-9.54
				c-0.312,0-0.567-0.255-0.567-0.567v-5.454c0-0.312,0.255-0.567,0.567-0.567h9.54c0.312,0,0.567,0.255,0.567,0.567V-29.223z"/>
		</g>
	</g>
</g>
<g>
	<polygon fill="#EC7404" stroke="#FFFFFF" stroke-width="0.5" points="287.264,-23.968 290.677,-23.968 289.107,-12.192 	"/>
	<circle fill="#EC7404" cx="288.97" cy="-33" r="9.731"/>
	<g>
		<path fill="#FFFFFF" d="M285.842-31.311h6.294v-0.557h-6.294V-31.311z M285.842-29.615h6.294v-0.557h-6.294V-29.615z
			 M285.842-34.658h6.294v-0.558h-6.294V-34.658z M285.842-32.993h6.294v-0.557h-6.294V-32.993z M292.842-27.685h-7.744v-11.183
			h5.521v2.222h2.223V-27.685z M284.54-27.125 M291.178-38.797l1.594,1.592h-1.594V-38.797z M291.336-39.427h-6.796v12.301h8.86
			v-10.239L291.336-39.427z"/>
	</g>
</g>
<g>
	<polygon fill="#EC7404" stroke="#FFFFFF" stroke-width="0.5" points="261.69,-23.968 265.104,-23.968 263.533,-12.192 	"/>
	<circle fill="#EC7404" cx="263.397" cy="-33.001" r="9.731"/>
	<g>
		<g>
			<path fill="#FFFFFF" d="M268.454-33.723c-0.002-0.272-0.025-0.522-0.083-0.758c-0.046-0.183-0.114-0.358-0.217-0.517
				c-0.152-0.24-0.387-0.429-0.656-0.535c-0.269-0.108-0.564-0.149-0.898-0.149c-0.295,0-0.563,0.033-0.811,0.114
				c-0.185,0.062-0.357,0.153-0.505,0.277c-0.223,0.186-0.377,0.438-0.463,0.709c-0.086,0.264-0.118,0.55-0.119,0.862l-0.569,4.806
				h1.198v2.099h0.97v-2.099h0.6v2.099h0.97v-2.099h1.204L268.454-33.723z"/>
			<path fill="#FFFFFF" d="M260.08-36.128c0.872,0,1.576-0.707,1.576-1.577c0-0.871-0.704-1.577-1.576-1.577
				c-0.87,0-1.575,0.706-1.576,1.577C258.505-36.834,259.21-36.128,260.08-36.128 M260.08-35.59c-1.305,0.001-2.36,1.057-2.36,2.361
				v2.469h1.092v3.943h0.969v-3.943h0.6v3.943h0.97v-3.943h1.091v-2.469C262.44-34.534,261.385-35.589,260.08-35.59"/>
		</g>
		<circle fill="#FFFFFF" cx="266.494" cy="-37.707" r="1.584"/>
	</g>
</g>
<g>
	<polygon fill="#EC7404" stroke="#FFFFFF" stroke-width="0.5" points="389.554,-23.968 392.967,-23.968 391.397,-12.192 	"/>
	<circle fill="#EC7404" cx="391.26" cy="-33" r="9.731"/>
	<text transform="matrix(1 0 0 1 389.501 -25.1196)" fill="#FFFFFF" font-family="'DejaVuSansCondensed-Bold'" font-size="5">€</text>
	<polygon fill="none" stroke="#FFFFFF" stroke-width="0.5" points="387.342,-35.379 391.212,-30.704 395.081,-35.379 
		393.128,-35.379 393.128,-40.501 389.295,-40.501 389.295,-35.379 	"/>
</g>
<g>
	<polygon fill="#EC7404" stroke="#FFFFFF" stroke-width="0.5" points="222.333,271.75 225.746,271.75 224.176,283.525 	"/>
	<circle fill="#EC7404" cx="224.04" cy="262.716" r="9.731"/>
	<g>
		<g>
			<path fill="#FFFFFF" d="M229.097,261.995c-0.002-0.272-0.025-0.522-0.083-0.758c-0.046-0.183-0.114-0.358-0.217-0.517
				c-0.152-0.24-0.387-0.43-0.656-0.535c-0.269-0.108-0.564-0.148-0.898-0.149c-0.295,0-0.563,0.032-0.811,0.114
				c-0.185,0.061-0.357,0.152-0.505,0.276c-0.223,0.186-0.377,0.438-0.463,0.709c-0.086,0.265-0.118,0.55-0.119,0.862l-0.569,4.805
				h1.198v2.1h0.97v-2.1h0.6v2.1h0.97v-2.1h1.204L229.097,261.995z"/>
			<path fill="#FFFFFF" d="M220.723,259.589c0.872,0,1.576-0.706,1.576-1.576c0-0.871-0.704-1.576-1.576-1.576
				c-0.87,0-1.575,0.705-1.576,1.576C219.147,258.883,219.853,259.589,220.723,259.589 M220.723,260.127
				c-1.305,0.001-2.36,1.057-2.36,2.36v2.47h1.092v3.943h0.969v-3.943h0.6v3.943h0.97v-3.943h1.091v-2.47
				C223.083,261.184,222.027,260.128,220.723,260.127"/>
		</g>
		<circle fill="#FFFFFF" cx="227.136" cy="258.011" r="1.584"/>
	</g>
</g>
<g>
	<polygon fill="#EC7404" points="193.811,263.026 197.225,263.026 195.654,274.802 	"/>
	<circle fill="#EC7404" cx="195.518" cy="254.016" r="9.731"/>
	<g>
		<g>
			<path fill="none" stroke="#FFFFFF" stroke-width="0.5" d="M200.005,259.811c0,0.312-0.255,0.567-0.566,0.567h-7.84
				c-0.312,0-0.567-0.256-0.567-0.567v-11.507c0-0.312,0.255-0.566,0.567-0.566h7.84c0.312,0,0.566,0.254,0.566,0.566V259.811z"/>
		</g>
	</g>
	<path fill="#FFFFFF" d="M195.518,252.388c0.743,0,1.342-0.602,1.342-1.342c0-0.742-0.599-1.342-1.342-1.342
		c-0.74,0-1.34,0.6-1.341,1.342C194.178,251.787,194.777,252.388,195.518,252.388 M195.518,252.846
		c-1.11,0.001-2.009,0.899-2.009,2.01v2.102h0.93v3.356h0.824v-3.356h0.511v3.356h0.825v-3.356h0.929v-2.102
		C197.527,253.746,196.629,252.847,195.518,252.846"/>
</g>
</svg>
